<svg width="37" height="28" viewBox="0 0 37 28" fill="currentColor" xmlns="http://www.w3.org/2000/svg">
<path d="M32.1591 2.12C32.1572 1.21849 31.4248 0.486139 30.5233 0.48423L15.8329 0.453084C14.9314 0.451184 14.2021 1.18044 14.204 2.08193C14.2059 2.98342 14.9383 3.71577 15.8397 3.71767L28.8979 3.74527L28.9256 16.8035C28.9275 17.705 29.6599 18.4374 30.5614 18.4393C31.4629 18.4412 32.1921 17.7119 32.1902 16.8104L32.1591 2.12ZM5.51745 27.1258C6.15623 27.7646 7.1919 27.7646 7.83068 27.1258L31.6834 3.27309L29.3702 0.959868L5.51745 24.8126C4.87868 25.4514 4.87867 26.4871 5.51745 27.1258Z" fill="currentColor"/>
</svg>
