<svg width="364" height="390" viewBox="0 0 364 390" fill="none" xmlns="http://www.w3.org/2000/svg">
<path d="M195.821 2.64361C202.748 7.01921 207.625 10.8479 212.911 16.1807C225.672 28.9429 231.506 42.161 231.506 58.1139C231.506 67.8223 229.683 74.9782 224.305 86.0083C222.71 89.3356 221.434 92.0703 221.525 92.0703C221.616 92.0703 223.576 90.8852 225.946 89.4725C240.12 80.9036 253.929 75.4339 265.231 73.8843C273.936 72.6993 287.791 73.4741 297.225 75.662C315.318 79.9007 336.328 92.1617 347.447 104.924C355.468 114.131 362.306 127.121 363.355 135.189L363.628 137.513L359.162 138.014C342.664 139.883 328.261 140.385 327.031 139.154C326.757 138.881 326.074 137.331 325.481 135.781C323.339 129.628 318.827 123.11 312.948 117.412C308.528 113.174 306.386 111.852 302.648 111.168C299.732 110.621 298.364 110.94 298.364 112.125C298.364 112.581 299.595 115.908 301.144 119.509C304.608 127.622 306.066 132.089 306.431 135.462L306.705 138.106H295.129H283.552L281.501 132.317C279.086 125.526 277.217 122.198 273.754 118.689C271.384 116.227 268.057 114.222 267.282 114.678C266.553 115.134 266.918 122.791 268.057 130.585C268.695 134.961 269.06 138.835 268.923 139.2C268.422 140.521 263.773 141.433 254.157 142.208C240.894 143.256 236.61 143.621 236.474 143.803C236.382 143.894 237.294 144.077 238.524 144.213C250.511 145.717 259.899 147.905 271.885 152.007C311.627 165.681 332.409 186.602 340.474 221.06C342.937 231.407 343.804 242.027 343.028 251.826C341.753 268.782 338.015 282.045 332.956 287.788C329.902 291.252 328.535 291.025 326.165 286.877C324.615 284.096 322.929 281.772 313.905 270.058C310.624 265.773 307.434 261.352 306.796 260.213L305.656 258.116L306.75 251.553C308.619 240.386 308.983 236.329 308.71 230.45C308.436 224.296 307.571 220.878 305.93 219.1C303.469 216.457 303.059 217.55 302.512 228.353C302.193 233.868 301.919 235.6 300.826 238.836C299.093 243.896 296.04 249.957 295.129 250.14C293.533 250.413 283.188 238.927 280.818 234.233C279.451 231.589 279.405 230.313 280.59 224.752C281.957 218.234 281.729 205.153 280.225 203.649C279.268 202.691 278.767 203.877 277.628 210.03C275.577 221.06 274.255 224.843 272.068 225.664C269.743 226.53 267.92 225.162 263.044 218.827C259.717 214.451 258.304 213.129 253.017 209.255C251.513 208.161 249.189 206.338 247.822 205.198L245.361 203.102L246.865 205.609C260.218 228.262 262.315 258.435 251.969 279.174C246.819 289.566 238.114 298.91 230.822 301.918C229.182 302.602 229.09 302.602 227.723 301.417C225.9 299.913 221.662 291.207 218.927 283.276C217.788 279.994 216.101 275.71 215.236 273.704C213.094 268.873 213.094 267.05 215.236 263.95C217.423 260.669 221.57 253.877 222.983 251.006C225.581 245.946 227.176 239.064 226.402 236.329L226.037 234.962L224.487 236.603C223.621 237.469 221.024 241.389 218.745 245.263C213.048 254.743 210.177 258.253 208.217 257.888C207.762 257.797 206.622 256.156 205.391 253.649C201.7 246.311 195.319 232.318 195.046 231.042C194.727 229.265 195.547 226.985 198.601 221.516C200.059 218.872 201.472 215.682 201.745 214.451C201.973 213.175 202.338 211.671 202.475 211.078C202.702 210.03 202.611 210.075 200.743 211.534C199.649 212.354 197.279 214.451 195.456 216.183C192.403 219.009 191.947 219.283 190.443 219.146C188.529 219.009 189.076 219.966 180.735 202.6C175.403 191.57 176.178 191.616 173.945 202.327C171.074 216.001 170.117 227.943 169.569 256.384C168.977 287.515 171.529 311.125 178.32 337.288C179.186 340.66 180.28 345.858 180.781 348.772C181.692 354.335 182.604 356.659 185.749 361.355C187.207 363.631 187.389 364.134 187.344 366.731C187.161 373.98 181.419 380.133 170.117 385.102C156.991 390.843 142.316 391.572 128.598 387.106C121.488 384.825 118.845 382.822 116.703 378.082C115.016 374.48 114.333 370.607 113.376 359.395C110.915 331.864 110.869 309.986 113.102 285.555C115.426 260.669 122.4 224.296 128.415 205.654C132.016 194.579 135.479 186.921 141.131 177.532C142.908 174.615 144.321 172.062 144.23 171.88C144.139 171.698 137.986 173.156 130.512 175.071C121.169 177.486 114.196 179.583 108.408 181.771C103.714 183.548 97.2877 185.599 94.0973 186.374C90.9528 187.149 87.7625 188.106 87.0335 188.471C82.8861 190.659 80.6527 187.559 77.7359 175.754C77.007 172.746 76.4143 169.92 76.4143 169.464C76.4143 169.054 75.913 167.049 75.2752 165.043C74.4548 162.491 73.7255 161.123 72.8596 160.439L71.6291 159.482L70.8543 160.439C69.7148 161.852 68.7123 165.499 68.211 170.239C67.8464 173.202 67.9374 177.167 68.3932 184.597C68.8489 192.026 68.8944 194.943 68.5298 195.171C68.211 195.353 65.6588 196.128 62.742 196.949C59.8708 197.723 56.954 198.681 56.2702 199C54.3562 199.957 52.1228 199.82 51.0293 198.589C49.115 196.493 46.2892 189.747 43.874 181.543C43.0536 178.58 41.732 174.615 40.9572 172.746L39.5897 169.327L38.4506 171.88C35.9895 177.35 33.7564 190.841 34.3032 196.857C34.4854 198.589 34.4398 201.871 34.2577 204.241L33.9386 208.526L30.0191 210.44C25.963 212.4 3.08434 221.288 2.8109 220.969C2.49187 220.696 0.395425 209.939 0.0763992 207.158C-0.333775 203.694 0.987898 187.514 2.12727 180.996C5.77326 160.895 15.2528 144.806 29.928 133.912C51.3025 118.051 82.4304 113.949 116.839 122.381C122.172 123.702 134.112 127.394 137.713 128.807C138.533 129.127 138.579 129.081 137.941 128.352C136.938 127.075 124.724 117.367 119.483 113.629C113.421 109.3 107.269 105.471 101.709 102.554C96.1938 99.6367 95.1002 98.7249 95.1002 96.9931C95.1002 94.7142 97.8345 90.0193 103.805 81.9517C105.263 79.9918 106.95 77.3027 107.588 75.9352C109 73.0184 109.183 69.7366 107.998 69.7366C106.038 69.7366 84.8915 79.9918 79.3767 83.6383C75.5484 86.1452 74.5004 86.1452 70.2619 83.4102C68.7578 82.4532 66.9349 81.4049 66.2512 81.0858C64.5194 80.3109 64.656 79.7183 68.3932 71.4684C71.7202 64.0848 72.3128 62.216 72.3128 59.1164C72.3128 55.4244 71.0364 55.5614 64.1092 59.9826C58.6402 63.4921 54.0827 66.9105 52.3053 68.9618C50.4821 70.9671 49.115 70.785 44.0562 67.8223C41.6862 66.4548 37.4022 64.1303 34.5309 62.7173C27.3302 59.1164 25.3705 57.7037 25.3705 56.1082C25.3705 55.4244 25.963 54.0117 26.6466 53.0544C30.7028 47.4937 45.788 36.4636 52.0318 34.4579C55.5413 33.3641 60.0074 31.9056 62.6506 30.9484C69.8517 28.4416 89.1299 27.7123 99.2475 29.5355C116.657 32.6805 133.976 42.389 147.739 56.5639C155.259 64.3125 160.409 71.6509 165.149 81.3593L167.655 86.3729L167.245 66.5459C166.79 40.0642 166.744 41.0671 167.519 40.6113C168.385 40.0642 170.117 39.8365 180.599 38.7426C189.03 37.8763 191.719 37.3751 191.719 36.5547C191.719 35.9165 189.805 34.3669 187.845 33.4097C185.202 32.0879 179.55 30.3103 173.215 28.7606C167.017 27.2565 164.1 25.9803 163.463 24.4762C162.733 22.7442 158.449 2.37013 158.449 0.638112C158.449 0.091159 161.184 0 174.993 0H191.582L195.821 2.64361Z" fill="currentColor"/>
</svg>
