<svg width="207" height="59" viewBox="0 0 207 59" fill="none" xmlns="http://www.w3.org/2000/svg">
<path d="M70.401 37.5815C70.2165 37.2668 70.146 36.9629 70.1894 36.6699C70.2436 36.366 70.3902 35.9753 70.6289 35.4978C70.8677 35.0094 71.1933 34.4016 71.6057 33.6745L73.0383 31.2326L74.7964 28.3349L76.7825 25.2093L78.8662 22.0836C76.2507 22.7348 74.2538 23.5108 72.8755 24.4116C72.6476 24.5635 72.4522 24.7209 72.2894 24.8837L71.7359 25.4372C71.3995 25.7736 71.0685 25.9418 70.7429 25.9418C70.4173 25.9418 70.1622 25.9038 69.9778 25.8279C69.8041 25.741 69.663 25.6325 69.5545 25.5023C69.2832 25.1875 69.2343 24.8403 69.408 24.4604C69.8746 22.9627 70.5421 21.4325 71.4103 19.8697C71.8879 19.0014 72.2677 18.5022 72.5499 18.372C74.6119 17.482 78.9096 16.8363 85.4431 16.4347C87.5702 16.3045 89.8059 16.2394 92.1501 16.2394C93.6804 16.2394 95.1347 16.7874 96.513 17.8836C98.0541 19.1317 98.8246 20.6945 98.8246 22.572C98.8246 25.0248 96.7192 27.3473 92.5083 29.5395C90.1749 30.7659 87.9826 31.6233 85.9314 32.1117C85.3997 32.231 84.9872 32.2907 84.6942 32.2907C84.412 32.2907 84.0865 32.2528 83.7175 32.1768C83.3593 32.1008 83.0337 31.9923 82.7407 31.8512C82.0461 31.5039 81.6988 31.0861 81.6988 30.5977C81.6988 29.9031 82.3663 29.1977 83.7012 28.4814L87.2012 26.593C89.2741 25.486 90.5548 24.6829 91.0431 24.1837C91.5315 23.6844 91.7757 23.2774 91.7757 22.9627C91.7757 22.6371 91.7106 22.3387 91.5804 22.0674C91.461 21.796 91.2928 21.5518 91.0757 21.3348C90.609 20.8681 90.1098 20.6348 89.578 20.6348C88.471 20.6348 87.1361 20.7216 85.5733 20.8952L83.5872 24.3953C81.0477 29.0078 79.3221 33.1535 78.4104 36.8327C78.0414 38.2652 76.6468 38.9815 74.2266 38.9815C72.2297 38.9815 70.9545 38.5149 70.401 37.5815ZM125.995 26.3651C126.342 26.3651 126.516 26.6581 126.516 27.2442C126.516 28.2535 125.81 29.5612 124.399 31.1675L123.471 32.1117C120.661 34.9226 118.012 36.7947 115.527 37.728C113.986 38.3032 112.879 38.2761 112.206 37.6466C111.653 37.1148 111.213 36.2575 110.888 35.0745L110.497 33.6582L107.029 35.7908L105.027 36.9303C102.639 38.2327 100.849 38.8838 99.6549 38.8838C98.1246 38.8838 96.8494 38.2924 95.8292 37.1094C94.8525 35.9916 94.3641 34.6946 94.3641 33.2187C94.3641 31.7644 94.9447 30.4675 96.106 29.3279C97.7665 27.7 100.387 26.2077 103.969 24.8511C107.355 23.5813 110.09 22.9464 112.174 22.9464C112.879 22.9464 113.232 23.2937 113.232 23.9883C113.232 24.4658 113.14 24.824 112.955 25.0627C112.771 25.3015 112.391 25.5457 111.815 25.7953L109.764 26.6744C106.726 27.9442 104.501 29.2628 103.09 30.6303C102.688 31.0101 102.487 31.3791 102.487 31.7372C102.487 32.0954 102.775 32.2745 103.35 32.2745C103.915 32.2745 105.228 31.6667 107.29 30.4512L108.641 29.6535C110.736 28.3946 112.488 27.7651 113.899 27.7651C115.093 27.7651 115.885 28.2915 116.276 29.3442C116.374 29.6264 116.466 29.914 116.553 30.207C116.64 30.4892 116.726 30.7442 116.813 30.9721C117.009 31.5039 117.182 31.7698 117.334 31.7698C117.497 31.7698 117.725 31.6938 118.018 31.5419C118.311 31.3791 118.631 31.1783 118.978 30.9396C119.337 30.6899 119.706 30.4186 120.085 30.1256L122.055 28.5465C123.802 27.0922 125.116 26.3651 125.995 26.3651ZM141.867 27.0976C142.562 27.0976 142.909 27.3853 142.909 27.9605C142.909 28.6659 142.486 29.507 141.639 30.4837C140.239 32.1117 138.589 33.6962 136.69 35.2373C133.597 37.7117 130.835 38.949 128.404 38.949C126.657 38.949 125.224 38.1893 124.106 36.6699C122.945 35.0853 122.364 32.9582 122.364 30.2884C122.364 26.7829 124.074 22.9084 127.492 18.665C129.663 15.9626 131.709 14.1285 133.63 13.1626C134.227 12.8587 134.682 12.7068 134.997 12.7068C135.323 12.7068 135.616 12.761 135.876 12.8696C136.148 12.9672 136.397 13.1083 136.625 13.2928C137.157 13.7378 137.423 14.275 137.423 14.9045C137.423 15.5339 137.249 16.2828 136.902 17.151C136.555 18.0084 136.05 18.9255 135.388 19.9022C133.988 21.9751 132.094 23.9612 129.706 25.8604C129.088 27.0434 128.779 28.4651 128.779 30.1256C128.779 30.8744 129.017 31.5799 129.495 32.2419C129.983 32.9039 130.52 33.2349 131.106 33.2349C131.91 33.2349 133.445 32.4047 135.713 30.7442L138.611 28.5139C139.794 27.5697 140.879 27.0976 141.867 27.0976ZM170.16 29.6698C170.16 31.2651 170.66 32.0628 171.658 32.0628C172.353 32.0628 173.552 31.4551 175.256 30.2396C176.797 29.1 177.714 28.3837 178.007 28.0907C178.68 27.5263 179.385 27.2442 180.123 27.2442C180.438 27.2442 180.704 27.3527 180.921 27.5697C181.149 27.776 181.263 28.0907 181.263 28.5139C181.263 28.9372 181.16 29.3225 180.954 29.6698C180.747 30.0171 180.481 30.3752 180.156 30.7442C179.841 31.1132 179.445 31.5256 178.968 31.9814C178.501 32.4373 177.964 32.9202 177.356 33.4303C176.748 33.9295 176.081 34.4288 175.354 34.928C174.637 35.4272 173.894 35.8776 173.123 36.2792C171.387 37.1691 169.819 37.6141 168.419 37.6141C166.812 37.6141 165.722 36.8869 165.146 35.4326C164.81 34.597 164.642 33.5931 164.642 32.421L159.904 35.628C156.659 37.9071 154.728 39.1172 154.109 39.2583C153.794 39.3342 153.474 39.3722 153.149 39.3722C152.834 39.3722 152.535 39.3397 152.253 39.2746C151.971 39.2203 151.721 39.1226 151.504 38.9815C151.005 38.6885 150.756 38.2544 150.756 37.6792C150.756 37.4513 150.907 36.8978 151.211 36.0187L152.611 32.1768C153.045 30.9396 153.263 30.1961 153.263 29.9465C153.263 29.8597 153.208 29.8163 153.1 29.8163C152.991 29.8163 152.79 29.9302 152.497 30.1582C152.204 30.3861 151.852 30.6791 151.439 31.0372L147.565 34.4233L145.53 36.1164C143.446 37.7769 141.748 38.6071 140.434 38.6071C139.816 38.6071 139.192 38.3304 138.562 37.7769C137.879 37.1908 137.537 36.4854 137.537 35.6606C137.537 34.8357 137.618 33.9349 137.781 32.9582C137.933 31.9814 138.155 31.0427 138.448 30.1419C138.741 29.2302 139.105 28.3783 139.539 27.586C139.973 26.7829 140.467 26.0883 141.021 25.5023C142.214 24.2216 143.62 23.5813 145.237 23.5813C146.865 23.5813 147.679 24.0589 147.679 25.0139C147.679 25.4263 147.456 26.0558 147.011 26.9023C146.067 28.769 145.595 29.7783 145.595 29.9302C145.595 30.0713 145.638 30.1853 145.725 30.2721C145.823 30.3481 145.926 30.3861 146.035 30.3861C146.262 30.3861 146.588 30.2016 147.011 29.8326C149.8 27.3907 151.553 25.8767 152.27 25.2906C152.997 24.7046 153.697 24.1891 154.37 23.7441C155.911 22.7348 157.137 22.2301 158.049 22.2301C158.797 22.2301 159.405 22.3495 159.872 22.5883C160.686 23.0116 161.093 23.4891 161.093 24.0209C161.093 24.5527 161.017 25.155 160.865 25.8279C160.724 26.5007 160.567 27.1519 160.393 27.7814L159.904 29.4419C159.753 29.9194 159.677 30.2884 159.677 30.5489C159.677 30.7985 159.785 30.9233 160.002 30.9233C160.523 30.9233 161.56 30.1853 163.112 28.7093L164.691 27.2279C166.503 25.6 167.876 24.786 168.809 24.786C169.254 24.786 169.65 24.9596 169.998 25.3069C170.605 25.9147 170.909 26.4465 170.909 26.9023C170.909 27.1519 170.822 27.4884 170.649 27.9116C170.323 28.7039 170.16 29.2899 170.16 29.6698ZM206.284 26.3651C206.631 26.3651 206.805 26.6581 206.805 27.2442C206.805 28.2535 206.1 29.5612 204.689 31.1675L203.761 32.1117C200.95 34.9226 198.302 36.7947 195.817 37.728C194.275 38.3032 193.168 38.2761 192.496 37.6466C191.942 37.1148 191.503 36.2575 191.177 35.0745L190.786 33.6582L187.319 35.7908L185.316 36.9303C182.929 38.2327 181.138 38.8838 179.944 38.8838C178.414 38.8838 177.139 38.2924 176.119 37.1094C175.142 35.9916 174.654 34.6946 174.654 33.2187C174.654 31.7644 175.234 30.4675 176.395 29.3279C178.056 27.7 180.677 26.2077 184.258 24.8511C187.644 23.5813 190.379 22.9464 192.463 22.9464C193.168 22.9464 193.521 23.2937 193.521 23.9883C193.521 24.4658 193.429 24.824 193.244 25.0627C193.06 25.3015 192.68 25.5457 192.105 25.7953L190.054 26.6744C187.015 27.9442 184.79 29.2628 183.379 30.6303C182.978 31.0101 182.777 31.3791 182.777 31.7372C182.777 32.0954 183.064 32.2745 183.64 32.2745C184.204 32.2745 185.517 31.6667 187.579 30.4512L188.93 29.6535C191.025 28.3946 192.778 27.7651 194.189 27.7651C195.382 27.7651 196.175 28.2915 196.565 29.3442C196.663 29.6264 196.755 29.914 196.842 30.207C196.929 30.4892 197.016 30.7442 197.103 30.9721C197.298 31.5039 197.472 31.7698 197.624 31.7698C197.786 31.7698 198.014 31.6938 198.307 31.5419C198.6 31.3791 198.92 31.1783 199.268 30.9396C199.626 30.6899 199.995 30.4186 200.375 30.1256L202.345 28.5465C204.092 27.0922 205.405 26.3651 206.284 26.3651Z" fill="currentColor"/>
<path d="M145.631 46.3307C146.274 46.3307 146.837 46.4564 147.32 46.7077C147.813 46.949 148.195 47.3211 148.466 47.8238C148.748 48.3265 148.889 48.96 148.889 49.7242V54.3242H147.818V49.8297C147.818 48.9952 147.607 48.3668 147.184 47.9445C146.772 47.5121 146.189 47.2959 145.435 47.2959C144.872 47.2959 144.379 47.4116 143.957 47.6428C143.544 47.864 143.223 48.1908 142.991 48.6232C142.77 49.0455 142.66 49.5583 142.66 50.1615V54.3242H141.589V46.4061H142.614V48.5779L142.449 48.1707C142.7 47.5976 143.102 47.1501 143.655 46.8284C144.208 46.4966 144.867 46.3307 145.631 46.3307ZM155.144 54.3996C154.32 54.3996 153.596 54.2287 152.973 53.8868C152.349 53.5349 151.862 53.0573 151.51 52.454C151.158 51.8407 150.982 51.1419 150.982 50.3576C150.982 49.5733 151.148 48.8796 151.479 48.2763C151.821 47.673 152.284 47.2004 152.867 46.8585C153.46 46.5066 154.124 46.3307 154.858 46.3307C155.602 46.3307 156.26 46.5016 156.834 46.8435C157.417 47.1753 157.874 47.6478 158.206 48.2612C158.538 48.8645 158.704 49.5633 158.704 50.3576C158.704 50.4079 158.699 50.4632 158.689 50.5235C158.689 50.5738 158.689 50.6291 158.689 50.6894H151.796V49.8901H158.116L157.693 50.2068C157.693 49.6337 157.568 49.1259 157.316 48.6835C157.075 48.231 156.743 47.8791 156.321 47.6277C155.899 47.3764 155.411 47.2507 154.858 47.2507C154.315 47.2507 153.827 47.3764 153.395 47.6277C152.963 47.8791 152.626 48.231 152.384 48.6835C152.143 49.136 152.022 49.6538 152.022 50.237V50.4029C152.022 51.0061 152.153 51.539 152.415 52.0016C152.686 52.454 153.058 52.811 153.531 53.0724C154.013 53.3238 154.561 53.4495 155.175 53.4495C155.657 53.4495 156.105 53.364 156.517 53.1931C156.939 53.0221 157.301 52.7607 157.603 52.4088L158.206 53.1026C157.854 53.5249 157.412 53.8466 156.879 54.0678C156.356 54.289 155.778 54.3996 155.144 54.3996ZM163.387 54.3996C162.643 54.3996 162.07 54.1985 161.668 53.7963C161.265 53.3942 161.064 52.8261 161.064 52.0921V44.6566H162.135V52.0317C162.135 52.4942 162.251 52.8512 162.482 53.1026C162.723 53.3539 163.065 53.4796 163.508 53.4796C163.98 53.4796 164.372 53.3439 164.684 53.0724L165.061 53.8416C164.85 54.0326 164.594 54.1734 164.292 54.2639C164 54.3544 163.699 54.3996 163.387 54.3996ZM159.647 47.2959V46.4061H164.548V47.2959H159.647ZM168.477 54.3242L165.491 46.4061H166.516L169.231 53.7511H168.764L171.554 46.4061H172.474L175.234 53.7511H174.766L177.526 46.4061H178.507L175.505 54.3242H174.495L171.84 47.4166H172.157L169.488 54.3242H168.477ZM183.126 54.3996C182.362 54.3996 181.673 54.2287 181.059 53.8868C180.456 53.5349 179.979 53.0573 179.627 52.454C179.275 51.8407 179.099 51.1419 179.099 50.3576C179.099 49.5633 179.275 48.8645 179.627 48.2612C179.979 47.6579 180.456 47.1853 181.059 46.8435C181.663 46.5016 182.351 46.3307 183.126 46.3307C183.91 46.3307 184.604 46.5016 185.207 46.8435C185.82 47.1853 186.298 47.6579 186.64 48.2612C186.992 48.8645 187.168 49.5633 187.168 50.3576C187.168 51.1419 186.992 51.8407 186.64 52.454C186.298 53.0573 185.82 53.5349 185.207 53.8868C184.594 54.2287 183.9 54.3996 183.126 54.3996ZM183.126 53.4495C183.699 53.4495 184.207 53.3238 184.649 53.0724C185.091 52.811 185.438 52.449 185.69 51.9865C185.951 51.5139 186.082 50.971 186.082 50.3576C186.082 49.7342 185.951 49.1913 185.69 48.7287C185.438 48.2662 185.091 47.9093 184.649 47.6579C184.207 47.3965 183.704 47.2658 183.141 47.2658C182.578 47.2658 182.075 47.3965 181.633 47.6579C181.19 47.9093 180.838 48.2662 180.577 48.7287C180.315 49.1913 180.185 49.7342 180.185 50.3576C180.185 50.971 180.315 51.5139 180.577 51.9865C180.838 52.449 181.19 52.811 181.633 53.0724C182.075 53.3238 182.573 53.4495 183.126 53.4495ZM189.354 54.3242V46.4061H190.38V48.5628L190.274 48.1858C190.495 47.5825 190.867 47.125 191.39 46.8133C191.913 46.4915 192.561 46.3307 193.336 46.3307V47.3713C193.295 47.3713 193.255 47.3713 193.215 47.3713C193.175 47.3613 193.135 47.3563 193.094 47.3563C192.26 47.3563 191.606 47.6127 191.134 48.1255C190.661 48.6282 190.425 49.3471 190.425 50.2822V54.3242H189.354ZM196.134 52.273L196.164 50.9006L201.096 46.4061H202.408L198.924 49.7392L198.321 50.252L196.134 52.273ZM195.29 54.3242V43.1333H196.36V54.3242H195.29ZM201.428 54.3242L198.125 50.2068L198.819 49.3773L202.74 54.3242H201.428Z" fill="currentColor"/>
<g clip-path="url(#clip0_596_889)">
<path d="M24.9038 0.106907C18.3971 0.771744 12.6098 3.49648 8.06488 8.06315C4.43552 11.6925 2.07045 15.8668 0.806166 20.8476C-0.218337 24.913 -0.240135 29.8611 0.773469 33.9482C1.44921 36.7056 3.01866 40.3023 4.52272 42.5584C7.41094 46.8744 11.5417 50.4166 16.0756 52.4547C17.6124 53.1413 19.7922 53.926 19.8903 53.817C19.9012 53.7952 19.8794 53.2939 19.8249 52.6944C19.6941 51.1359 19.705 47.136 19.8467 45.6646C20.0755 43.1469 20.7295 39.474 21.3507 37.2615C21.7431 35.8773 22.3098 34.515 22.8766 33.5667C23.1164 33.1744 23.2689 32.8474 23.2145 32.8256C23.0619 32.7711 20.3153 33.5122 19.3453 33.8719C18.8658 34.0463 18.0592 34.3079 17.5688 34.4387C16.6642 34.6784 16.6533 34.6784 16.4462 34.4823C16.3263 34.3624 16.1192 33.8065 15.9666 33.1853C15.6288 31.8556 15.4871 31.4959 15.3127 31.4959C15.0511 31.4959 14.9312 32.1826 14.9312 33.7847V35.376L14.0702 35.6266C13.5907 35.7683 13.1547 35.8446 13.0893 35.801C12.8931 35.6811 12.588 35.0054 12.2065 33.8392C12.0103 33.2398 11.8141 32.7057 11.7705 32.6621C11.5526 32.4224 11.2256 33.9155 11.1384 35.5831L11.0621 36.8909L9.53624 37.5122C8.69702 37.85 7.92319 38.1334 7.8251 38.1334C7.61802 38.1443 7.58533 38.0462 7.42184 37.1198C7.26926 36.3133 7.43274 34.3188 7.74881 33.0763C8.44635 30.2971 10.2992 28.2916 13.0348 27.3543C15.3345 26.5587 18.517 26.6895 21.6232 27.6813C22.1573 27.8557 22.615 27.9865 22.6368 27.9756C22.6477 27.9538 22.2335 27.5941 21.6995 27.169C20.7731 26.4388 19.8031 25.7849 18.5279 25.0329C17.7541 24.5751 17.765 24.3789 18.6369 23.1037C19.3344 22.0683 19.5633 21.4689 19.2581 21.4689C19.16 21.4689 18.299 21.8722 17.3399 22.3517L15.5961 23.2345L15.0947 22.9511C14.8222 22.7877 14.6043 22.5915 14.6043 22.5152C14.6043 22.4389 14.7786 21.9811 14.9857 21.5016C15.4217 20.488 15.4762 20.052 15.1601 20.052C14.9421 20.052 13.4272 21.0111 13.1874 21.3054C13.1111 21.3926 12.9585 21.4689 12.8495 21.4689C12.6098 21.4689 10.43 20.3245 10.2447 20.1065C9.83051 19.6052 11.9885 17.9158 13.8195 17.3164C14.8222 16.9785 14.953 16.9567 16.6206 16.9567C18.1573 16.9458 18.4625 16.9785 19.1818 17.1965C21.7867 18.0139 24.13 19.943 25.4487 22.3735L25.9065 23.2127L25.852 20.706C25.8193 19.3327 25.8193 18.1992 25.852 18.1992C25.8738 18.1992 26.4841 18.1229 27.1926 18.0357C27.9119 17.9485 28.5114 17.8722 28.5331 17.8722C28.5441 17.8722 28.5549 17.8286 28.5549 17.7632C28.5549 17.5889 27.8029 17.2619 26.713 16.9676C26.1463 16.815 25.6231 16.6188 25.5468 16.5426C25.3724 16.3682 24.773 13.4363 24.6531 12.2048C24.5877 11.5399 24.5986 11.3328 24.6967 11.3764C25.0019 11.4963 29.5359 14.3301 30.059 14.7333C32.7837 16.8368 33.6775 19.8449 32.4132 22.7223C32.2061 23.2018 31.999 23.6487 31.9772 23.725C31.9445 23.7904 32.5658 23.5179 33.3723 23.1146C35.2687 22.1555 36.2278 21.8939 37.8845 21.8939C38.582 21.8939 39.443 21.9484 39.8027 22.0138C41.6882 22.3626 44.0533 23.5942 45.4375 24.9675C46.4293 25.9484 47.3121 27.4633 47.5628 28.6186C47.639 28.9565 47.6282 28.9565 47.1704 29.0328C46.9088 29.0655 46.0042 29.1309 45.1541 29.1745L43.5955 29.2399L43.334 28.6513C42.9634 27.8121 42.146 26.7767 41.5574 26.3843C41.0343 26.0356 40.4348 25.9375 40.4348 26.1881C40.4348 26.2644 40.5983 26.744 40.8054 27.2453C41.0125 27.7576 41.2196 28.357 41.2523 28.575L41.3285 28.9892H40.0207H38.7128L38.5711 28.575C38.2441 27.5505 37.4703 26.4824 37.0779 26.4824C36.9363 26.4824 36.9254 26.6568 36.9908 27.5396C37.0234 28.1282 37.0888 28.7385 37.1215 28.902C37.1869 29.1636 37.1542 29.2072 36.7728 29.3052C36.533 29.3597 35.7592 29.4687 35.0507 29.5341C34.3314 29.5995 33.732 29.6649 33.7102 29.6867C33.6884 29.7085 33.9499 29.7521 34.2987 29.7957C35.6938 29.9592 38.2441 30.7766 39.8027 31.5613C41.4484 32.4006 43.0724 33.861 43.9007 35.267C44.4566 36.1934 45.0669 38.0026 45.2413 39.2233C45.3939 40.3241 45.3176 42.4385 45.0669 43.5393C44.8816 44.4112 44.2931 45.6537 43.9879 45.8281C43.8244 45.9153 43.7481 45.8826 43.5955 45.6646C43.4756 45.512 42.898 44.7164 42.2877 43.899L41.1869 42.3949L41.3503 41.3268C41.5683 39.9753 41.5683 38.7983 41.3721 38.3078C41.067 37.5994 40.9362 37.8173 40.8272 39.1361C40.7727 39.8555 40.4566 40.8691 40.1733 41.2614C40.0207 41.4576 39.9989 41.4576 39.6065 41.087C39.3885 40.88 39.018 40.4658 38.7891 40.1824L38.364 39.6484L38.4403 38.0462C38.4839 36.9345 38.473 36.4114 38.3858 36.3569C38.255 36.2806 38.2332 36.3351 37.9826 37.5122C37.8845 37.9808 37.721 38.4604 37.612 38.6021C37.4158 38.8309 37.394 38.8309 37.1324 38.6675C36.9908 38.5585 36.6747 38.2424 36.4458 37.9481C36.206 37.6539 35.7047 37.1634 35.3123 36.8691L34.6039 36.3133L35.0071 37.1525C35.6938 38.5694 35.89 39.4849 35.9009 41.305C35.9009 42.7328 35.8682 42.9726 35.6066 43.7573C35.2469 44.8254 34.6257 45.7954 33.83 46.5256C33.1761 47.1251 32.7838 47.2885 32.5331 47.0815C32.2279 46.8308 31.0399 43.9208 31.0399 43.4303C31.0399 43.3104 31.2034 42.9399 31.4105 42.6129C32.1952 41.3922 32.5876 40.2914 32.3914 39.9317C32.326 39.8119 32.0971 40.0843 31.4868 40.9998C31.0399 41.6756 30.5931 42.2423 30.4841 42.2641C30.3315 42.2968 30.1571 42.0243 29.6775 41.0107C28.9146 39.3868 28.8819 39.1361 29.2961 38.3623C29.4705 38.0353 29.6557 37.5885 29.6993 37.3814L29.7756 36.9999L29.525 37.2179C29.3833 37.3378 29.1108 37.5667 28.9146 37.7519C28.7075 37.9372 28.5005 38.0353 28.4024 38.0026C28.3043 37.9699 27.9337 37.3378 27.574 36.6076C27.2035 35.8773 26.8656 35.3215 26.8111 35.376C26.6694 35.5395 26.3752 37.3596 26.2553 38.9617C26.179 39.8663 26.1572 41.7628 26.1899 43.5938C26.2444 46.7654 26.3643 47.9207 26.822 49.9152C26.9419 50.4275 27.2035 51.6481 27.4106 52.6399C27.6176 53.6318 27.8138 54.5582 27.8465 54.6999C27.9119 54.9505 27.9119 54.9505 29.0236 54.8851C31.7265 54.6999 33.8192 54.2857 36.3477 53.4356C38.1569 52.8252 41.0343 51.4193 42.5601 50.4057C49.1322 46.0134 53.47 39.2233 54.6144 31.5504C55.4318 26.0138 54.6035 20.5425 52.1621 15.5289C50.7235 12.5535 49.1431 10.341 46.8652 8.06315C42.6255 3.82345 37.4376 1.1968 31.5522 0.313988C29.9173 0.0633087 26.4188 -0.045681 24.9038 0.106907Z" fill="currentColor"/>
</g>
<defs>
<clipPath id="clip0_596_889">
<rect width="54.9308" height="54.9308" fill="white" transform="translate(-0.00195312)"/>
</clipPath>
</defs>
</svg>
