<svg width="621" height="621" viewBox="0 0 621 621" fill="none" xmlns="http://www.w3.org/2000/svg">
<g filter="url(#filter0_d_19_16479)">
<path d="M310.438 597.448C468.949 597.448 597.447 468.95 597.447 310.439C597.447 151.928 468.949 23.4294 310.438 23.4294C151.928 23.4294 23.4294 151.928 23.4294 310.439C23.4294 468.95 151.928 597.448 310.438 597.448Z" stroke="#131313" stroke-width="5.1412" shape-rendering="crispEdges"/>
</g>
<g opacity="0.5" filter="url(#filter1_d_19_16479)">
<path d="M522.201 310.438C522.201 308.696 522.179 306.959 522.138 305.227L521.233 305.249C521.15 301.782 520.982 298.336 520.733 294.913L521.635 294.848C521.383 291.376 521.046 287.928 520.628 284.505L519.73 284.615C519.31 281.176 518.808 277.763 518.224 274.378L519.115 274.224C518.525 270.797 517.852 267.398 517.098 264.029L516.216 264.227C515.46 260.849 514.624 257.502 513.708 254.187L514.58 253.946C513.655 250.597 512.65 247.281 511.567 244L510.708 244.284C509.623 241 508.46 237.751 507.221 234.541L508.065 234.215C506.814 230.976 505.487 227.775 504.084 224.615L503.257 224.982C501.855 221.823 500.377 218.705 498.826 215.63L499.634 215.223C498.071 212.125 496.435 209.07 494.727 206.061L493.94 206.508C492.235 203.504 490.458 200.546 488.612 197.637L489.375 197.152C487.517 194.224 485.589 191.345 483.594 188.516L482.855 189.038C480.865 186.217 478.807 183.447 476.684 180.73L477.396 180.174C475.262 177.442 473.062 174.765 470.799 172.144L470.114 172.735C467.859 170.123 465.541 167.567 463.163 165.069L463.818 164.445C461.428 161.936 458.978 159.486 456.469 157.097L455.845 157.752C453.347 155.373 450.791 153.055 448.18 150.8L448.771 150.115C446.149 147.852 443.472 145.652 440.741 143.518L440.184 144.23C437.467 142.107 434.698 140.05 431.877 138.059L432.398 137.32C429.57 135.325 426.69 133.397 423.762 131.539L423.277 132.302C420.368 130.456 417.41 128.679 414.406 126.974L414.853 126.187C411.844 124.479 408.79 122.843 405.691 121.28L405.284 122.088C402.209 120.537 399.091 119.059 395.932 117.657L396.299 116.83C393.139 115.427 389.939 114.099 386.699 112.849L386.374 113.693C383.163 112.453 379.915 111.29 376.631 110.206L376.914 109.347C373.634 108.264 370.317 107.259 366.968 106.334L366.727 107.205C363.413 106.29 360.066 105.454 356.688 104.698L356.885 103.816C353.516 103.062 350.118 102.389 346.69 101.798L346.537 102.69C343.151 102.106 339.738 101.603 336.3 101.183L336.409 100.286C332.986 99.8676 329.538 99.5313 326.067 99.2786L326.001 100.181C322.578 99.9315 319.132 99.7641 315.666 99.6803L315.688 98.7762C313.956 98.7343 312.218 98.7133 310.476 98.7133C308.734 98.7133 306.997 98.7343 305.265 98.7762L305.286 99.6803C301.82 99.7641 298.374 99.9315 294.951 100.181L294.886 99.2786C291.414 99.5313 287.966 99.8676 284.543 100.286L284.653 101.183C281.214 101.603 277.801 102.106 274.415 102.69L274.262 101.798C270.835 102.389 267.436 103.062 264.067 103.816L264.265 104.698C260.887 105.454 257.54 106.29 254.225 107.205L253.984 106.334C250.635 107.259 247.319 108.264 244.038 109.347L244.322 110.206C241.038 111.29 237.789 112.453 234.579 113.693L234.253 112.849C231.014 114.099 227.813 115.427 224.653 116.83L225.02 117.657C221.861 119.059 218.743 120.537 215.668 122.088L215.261 121.28C212.163 122.843 209.108 124.479 206.099 126.187L206.546 126.974C203.542 128.679 200.584 130.456 197.675 132.302L197.19 131.539C194.262 133.397 191.383 135.325 188.554 137.32L189.076 138.059C186.255 140.05 183.485 142.107 180.769 144.23L180.212 143.518C177.48 145.652 174.803 147.852 172.182 150.115L172.773 150.8C170.161 153.055 167.605 155.373 165.107 157.752L164.483 157.097C161.975 159.486 159.524 161.936 157.135 164.445L157.79 165.069C155.411 167.567 153.093 170.123 150.838 172.735L150.153 172.144C147.89 174.765 145.69 177.442 143.556 180.174L144.268 180.731C142.146 183.447 140.088 186.217 138.097 189.038L137.358 188.516C135.363 191.345 133.435 194.224 131.577 197.152L132.34 197.637C130.494 200.546 128.717 203.504 127.012 206.508L126.226 206.062C124.518 209.07 122.881 212.125 121.318 215.223L122.126 215.63C120.575 218.705 119.098 221.823 117.695 224.982L116.869 224.615C115.466 227.775 114.138 230.976 112.887 234.215L113.731 234.541C112.492 237.751 111.329 241 110.244 244.284L109.386 244C108.302 247.281 107.297 250.597 106.372 253.946L107.244 254.187C106.329 257.502 105.492 260.849 104.737 264.227L103.854 264.029C103.101 267.398 102.428 270.797 101.837 274.224L102.728 274.378C102.145 277.763 101.642 281.176 101.222 284.615L100.324 284.505C99.9062 287.928 99.5698 291.376 99.3172 294.848L100.219 294.913C99.97 298.336 99.8026 301.782 99.7189 305.249L98.8147 305.227C98.7729 306.959 98.7518 308.696 98.7518 310.438C98.7518 312.18 98.7729 313.918 98.8147 315.65L99.7189 315.628C99.8026 319.095 99.97 322.54 100.219 325.963L99.3172 326.029C99.5698 329.5 99.9062 332.948 100.324 336.371L101.222 336.262C101.642 339.7 102.145 343.114 102.728 346.499L101.837 346.653C102.428 350.08 103.101 353.479 103.854 356.847L104.737 356.65C105.492 360.028 106.329 363.375 107.244 366.689L106.372 366.93C107.297 370.28 108.302 373.596 109.386 376.876L110.244 376.593C111.329 379.877 112.492 383.125 113.731 386.336L112.887 386.661C114.138 389.901 115.466 393.102 116.869 396.262L117.695 395.895C119.098 399.054 120.575 402.172 122.126 405.246L121.318 405.654C122.881 408.752 124.518 411.806 126.226 414.815L127.012 414.369C128.717 417.372 130.494 420.33 132.34 423.24L131.577 423.724C133.435 426.652 135.363 429.532 137.359 432.36L138.098 431.839C140.088 434.66 142.146 437.43 144.268 440.146L143.556 440.703C145.69 443.434 147.89 446.112 150.153 448.733L150.838 448.142C153.093 450.754 155.411 453.31 157.79 455.807L157.135 456.431C159.524 458.94 161.975 461.391 164.483 463.78L165.107 463.125C167.605 465.504 170.161 467.822 172.773 470.077L172.182 470.761C174.803 473.025 177.48 475.225 180.212 477.359L180.769 476.646C183.485 478.769 186.255 480.827 189.076 482.817L188.554 483.556C191.383 485.552 194.262 487.48 197.19 489.338L197.675 488.574C200.584 490.421 203.542 492.198 206.546 493.903L206.099 494.689C209.108 496.397 212.163 498.034 215.261 499.596L215.668 498.789C218.743 500.34 221.861 501.818 225.02 503.22L224.653 504.046C227.813 505.449 231.014 506.777 234.253 508.028L234.579 507.184C237.789 508.423 241.038 509.586 244.322 510.671L244.038 511.529C247.319 512.613 250.635 513.618 253.984 514.543L254.225 513.671C257.54 514.587 260.887 515.423 264.265 516.178L264.067 517.061C267.436 517.814 270.835 518.487 274.262 519.078L274.415 518.187C277.801 518.77 281.214 519.273 284.653 519.693L284.543 520.591C287.966 521.009 291.414 521.345 294.886 521.598L294.951 520.696C298.374 520.945 301.82 521.113 305.286 521.196L305.265 522.1C306.997 522.142 308.734 522.163 310.476 522.163C312.218 522.163 313.956 522.142 315.688 522.1L315.666 521.196C319.132 521.113 322.578 520.945 326.001 520.696L326.067 521.598C329.538 521.345 332.986 521.009 336.409 520.591L336.3 519.693C339.738 519.273 343.151 518.77 346.537 518.187L346.691 519.078C350.118 518.487 353.517 517.814 356.885 517.061L356.688 516.178C360.066 515.423 363.413 514.587 366.727 513.671L366.968 514.543C370.317 513.618 373.634 512.613 376.914 511.529L376.631 510.671C379.915 509.586 383.163 508.423 386.374 507.184L386.699 508.028C389.939 506.777 393.139 505.449 396.299 504.046L395.933 503.22C399.091 501.817 402.209 500.34 405.284 498.789L405.691 499.596C408.79 498.034 411.844 496.397 414.853 494.689L414.406 493.903C417.41 492.198 420.368 490.421 423.277 488.574L423.762 489.338C426.69 487.48 429.57 485.552 432.398 483.556L431.877 482.817C434.698 480.827 437.467 478.769 440.184 476.646L440.741 477.359C443.472 475.225 446.149 473.025 448.771 470.761L448.18 470.077C450.791 467.822 453.347 465.504 455.845 463.125L456.469 463.78C458.978 461.39 461.428 458.94 463.818 456.431L463.163 455.807C465.541 453.31 467.859 450.754 470.114 448.142L470.799 448.733C473.062 446.112 475.262 443.434 477.397 440.703L476.684 440.146C478.807 437.43 480.865 434.66 482.855 431.839L483.594 432.36C485.589 429.532 487.517 426.652 489.376 423.724L488.612 423.24C490.458 420.33 492.235 417.372 493.94 414.369L494.727 414.815C496.435 411.806 498.071 408.752 499.634 405.654L498.826 405.246C500.377 402.172 501.855 399.054 503.257 395.895L504.084 396.262C505.487 393.102 506.814 389.901 508.065 386.661L507.221 386.336C508.46 383.125 509.623 379.877 510.708 376.593L511.567 376.876C512.65 373.596 513.655 370.28 514.58 366.93L513.708 366.689C514.624 363.375 515.46 360.028 516.216 356.65L517.098 356.847C517.852 353.479 518.525 350.08 519.115 346.653L518.224 346.499C518.808 343.114 519.31 339.7 519.73 336.262L520.628 336.371C521.046 332.948 521.383 329.5 521.635 326.029L520.733 325.963C520.982 322.54 521.15 319.094 521.233 315.628L522.138 315.65C522.179 313.918 522.201 312.18 522.201 310.438Z" stroke="#222939" stroke-opacity="0.7" stroke-width="1.80883" stroke-dasharray="10.28 10.28" shape-rendering="crispEdges"/>
</g>
<g filter="url(#filter2_d_19_16479)">
<ellipse cx="310.441" cy="310.441" rx="162.685" ry="162.686" fill="url(#paint0_radial_19_16479)" fill-opacity="0.4" shape-rendering="crispEdges"/>
<path d="M310.441 473.579C400.539 473.579 473.579 400.539 473.579 310.441C473.579 220.342 400.539 147.303 310.441 147.303C220.343 147.303 147.304 220.342 147.304 310.441C147.304 400.539 220.343 473.579 310.441 473.579Z" stroke="#222939" stroke-opacity="0.4" stroke-width="0.904415" shape-rendering="crispEdges"/>
</g>
<g opacity="0.2" filter="url(#filter3_d_19_16479)">
<ellipse cx="310.451" cy="310.441" rx="119.01" ry="119.01" fill="#111111"/>
</g>
<g filter="url(#filter4_d_19_16479)">
<path d="M312.708 29.6268C312.725 27.6289 314.357 26.02 316.355 26.0615C352.778 26.8194 388.717 34.5674 422.217 48.8843C424.054 49.6694 424.879 51.8082 424.071 53.6353L415.489 73.03C414.68 74.8571 412.545 75.6803 410.706 74.8978C380.762 62.1506 348.662 55.23 316.125 54.5071C314.128 54.4627 312.521 52.8326 312.537 50.8347L312.708 29.6268Z" fill="#1B7F4E"/>
</g>
<g filter="url(#filter5_d_19_16479)">
<path d="M430.102 56.3897C430.953 54.5822 433.112 53.8057 434.908 54.68C495.223 84.0328 543.228 133.764 570.432 195.078C571.242 196.904 570.39 199.034 568.554 199.821L549.06 208.175C547.224 208.962 545.099 208.109 544.286 206.284C519.825 151.363 476.809 106.799 422.786 80.4144C420.991 79.5376 420.213 77.3838 421.065 75.5763L430.102 56.3897Z" fill="#1B7F4E"/>
</g>
<g filter="url(#filter6_d_19_16479)">
<path d="M571.142 206.066C572.997 205.324 575.105 206.225 575.824 208.089C590.297 245.617 596.651 285.801 594.451 325.991C592.25 366.18 581.546 405.431 563.062 441.154C562.144 442.928 559.95 443.594 558.187 442.653L539.476 432.668C537.714 431.727 537.05 429.537 537.965 427.761C554.499 395.696 564.075 360.485 566.049 324.435C568.023 288.386 562.349 252.34 549.415 218.661C548.699 216.796 549.598 214.691 551.453 213.949L571.142 206.066Z" fill="#1B7F4E"/>
</g>
<g filter="url(#filter7_d_19_16479)">
<path d="M258.945 586.499C258.579 588.463 256.689 589.76 254.729 589.369C209.845 580.405 167.769 560.737 132.086 532.015C95.4636 502.536 66.719 464.44 48.4232 421.134C30.1274 377.827 22.8511 330.661 27.2451 283.854C31.5263 238.249 46.7564 194.37 71.6177 155.94C72.7029 154.262 74.9508 153.812 76.6144 154.918L94.2735 166.664C95.9371 167.77 96.3864 170.014 95.3035 171.693C73.0444 206.208 59.4062 245.588 55.5644 286.513C51.6098 328.639 58.1585 371.088 74.6247 410.064C91.0909 449.04 116.961 483.327 149.921 509.857C181.941 535.631 219.683 553.305 259.946 561.405C261.904 561.799 263.2 563.686 262.834 565.65L258.945 586.499Z" fill="#1B7F4E"/>
</g>
<g filter="url(#filter8_d_19_16479)">
<path d="M554.846 448.731C556.585 449.715 557.199 451.924 556.193 453.651C527.586 502.741 484.915 542.166 433.656 566.803C382.397 591.44 324.955 600.134 268.752 591.807C266.775 591.514 265.433 589.654 265.751 587.682L269.126 566.744C269.444 564.771 271.301 563.432 273.278 563.722C323.747 571.127 375.31 563.288 421.334 541.167C467.359 519.046 505.69 483.678 531.435 439.642C532.444 437.917 534.649 437.303 536.388 438.287L554.846 448.731Z" fill="#1B7F4E"/>
</g>
<g filter="url(#filter9_d_19_16479)">
<path d="M79.9798 149.973C78.3401 148.832 77.9345 146.575 79.0969 144.95C91.1013 128.169 104.896 112.744 120.237 98.9466C121.723 97.6106 124.01 97.7626 125.327 99.2651L139.308 115.214C140.625 116.716 140.472 119 138.989 120.338C125.379 132.613 113.126 146.314 102.442 161.205C101.277 162.828 99.0244 163.234 97.3847 162.092L79.9798 149.973Z" fill="#1B7F4E"/>
</g>
<g filter="url(#filter10_d_19_16479)">
<path d="M129.71 95.5023C128.424 93.9731 128.62 91.6891 130.165 90.4228C149.736 74.3876 171.358 61.0351 194.46 50.7189C196.284 49.9043 198.414 50.7521 199.205 52.5866L207.606 72.0605C208.397 73.8951 207.551 76.0214 205.727 76.8387C185.17 86.0536 165.919 97.9418 148.473 112.195C146.925 113.459 144.645 113.264 143.359 111.735L129.71 95.5023Z" fill="#1B7F4E"/>
</g>
<g filter="url(#filter11_d_19_16479)">
<path d="M204.887 50.2092C204.136 48.3578 205.027 46.2458 206.888 45.5184C237.406 33.5897 269.757 27.0237 302.51 26.1105C304.508 26.0548 306.152 27.6522 306.182 29.6499L306.504 50.8561C306.534 52.8538 304.939 54.4952 302.941 54.5537C273.707 55.4101 244.835 61.2701 217.58 71.879C215.718 72.6037 213.609 71.7141 212.859 69.8627L204.887 50.2092Z" fill="#1B7F4E"/>
</g>
<path opacity="0.9" d="M261.964 272.433V264.028H258.674V262.836H266.612V264.028H263.321V272.433H261.964ZM272.303 272.542C271.572 272.542 270.891 272.419 270.261 272.172C269.639 271.925 269.1 271.583 268.643 271.144C268.186 270.696 267.829 270.175 267.573 269.581C267.317 268.987 267.189 268.338 267.189 267.634C267.189 266.93 267.317 266.281 267.573 265.687C267.829 265.093 268.186 264.577 268.643 264.138C269.1 263.69 269.639 263.343 270.261 263.096C270.882 262.849 271.563 262.726 272.303 262.726C273.034 262.726 273.706 262.849 274.319 263.096C274.94 263.334 275.479 263.677 275.936 264.124C276.403 264.563 276.759 265.08 277.006 265.674C277.262 266.268 277.39 266.921 277.39 267.634C277.39 268.347 277.262 269.001 277.006 269.595C276.759 270.189 276.403 270.71 275.936 271.158C275.479 271.596 274.94 271.939 274.319 272.186C273.706 272.423 273.034 272.542 272.303 272.542ZM272.303 271.322C272.833 271.322 273.322 271.231 273.77 271.048C274.227 270.865 274.62 270.609 274.949 270.28C275.287 269.942 275.548 269.549 275.731 269.101C275.923 268.653 276.019 268.164 276.019 267.634C276.019 267.104 275.923 266.615 275.731 266.167C275.548 265.719 275.287 265.331 274.949 265.002C274.62 264.664 274.227 264.403 273.77 264.22C273.322 264.038 272.833 263.946 272.303 263.946C271.764 263.946 271.266 264.038 270.809 264.22C270.361 264.403 269.968 264.664 269.63 265.002C269.292 265.331 269.027 265.719 268.835 266.167C268.652 266.615 268.56 267.104 268.56 267.634C268.56 268.164 268.652 268.653 268.835 269.101C269.027 269.549 269.292 269.942 269.63 270.28C269.968 270.609 270.361 270.865 270.809 271.048C271.266 271.231 271.764 271.322 272.303 271.322ZM281.257 272.433V264.028H277.967V262.836H285.905V264.028H282.614V272.433H281.257ZM285.463 272.433L289.809 262.836H291.166L295.526 272.433H294.086L290.206 263.603H290.755L286.875 272.433H285.463ZM287.313 270.033L287.684 268.937H293.085L293.483 270.033H287.313ZM296.957 272.433V262.836H298.328V271.24H303.524V272.433H296.957ZM311.576 272.542C310.845 272.542 310.146 272.433 309.478 272.213C308.811 271.985 308.286 271.692 307.902 271.336L308.409 270.266C308.775 270.586 309.241 270.851 309.807 271.062C310.374 271.272 310.964 271.377 311.576 271.377C312.134 271.377 312.586 271.313 312.933 271.185C313.281 271.057 313.537 270.883 313.701 270.664C313.866 270.436 313.948 270.18 313.948 269.896C313.948 269.567 313.838 269.302 313.619 269.101C313.409 268.9 313.13 268.74 312.783 268.621C312.444 268.493 312.07 268.384 311.658 268.292C311.247 268.201 310.831 268.096 310.411 267.977C309.999 267.849 309.62 267.689 309.273 267.497C308.935 267.305 308.66 267.049 308.45 266.729C308.24 266.4 308.135 265.98 308.135 265.468C308.135 264.974 308.263 264.522 308.519 264.111C308.784 263.69 309.186 263.357 309.725 263.11C310.274 262.854 310.968 262.726 311.809 262.726C312.367 262.726 312.92 262.799 313.468 262.945C314.016 263.092 314.492 263.302 314.894 263.576L314.441 264.673C314.03 264.399 313.596 264.202 313.139 264.083C312.682 263.955 312.239 263.891 311.809 263.891C311.27 263.891 310.827 263.96 310.479 264.097C310.132 264.234 309.876 264.417 309.712 264.645C309.556 264.874 309.478 265.13 309.478 265.413C309.478 265.751 309.584 266.021 309.794 266.222C310.013 266.423 310.292 266.583 310.63 266.702C310.977 266.821 311.357 266.93 311.768 267.031C312.179 267.122 312.591 267.227 313.002 267.346C313.422 267.465 313.802 267.62 314.14 267.812C314.487 268.004 314.766 268.26 314.976 268.58C315.186 268.9 315.291 269.311 315.291 269.814C315.291 270.298 315.159 270.751 314.894 271.171C314.629 271.583 314.218 271.916 313.66 272.172C313.112 272.419 312.417 272.542 311.576 272.542ZM321.27 272.542C320.009 272.542 319.017 272.181 318.295 271.459C317.573 270.737 317.212 269.682 317.212 268.292V262.836H318.583V268.237C318.583 269.307 318.816 270.088 319.282 270.582C319.758 271.075 320.425 271.322 321.284 271.322C322.152 271.322 322.819 271.075 323.286 270.582C323.761 270.088 323.999 269.307 323.999 268.237V262.836H325.328V268.292C325.328 269.682 324.967 270.737 324.245 271.459C323.532 272.181 322.541 272.542 321.27 272.542ZM328.139 272.433V262.836H331.882C332.723 262.836 333.44 262.968 334.034 263.233C334.628 263.498 335.085 263.882 335.405 264.385C335.725 264.888 335.885 265.486 335.885 266.181C335.885 266.876 335.725 267.474 335.405 267.977C335.085 268.47 334.628 268.854 334.034 269.129C333.44 269.394 332.723 269.526 331.882 269.526H328.893L329.51 268.882V272.433H328.139ZM329.51 269.019L328.893 268.333H331.841C332.718 268.333 333.381 268.146 333.829 267.771C334.286 267.397 334.514 266.866 334.514 266.181C334.514 265.495 334.286 264.965 333.829 264.591C333.381 264.216 332.718 264.028 331.841 264.028H328.893L329.51 263.343V269.019ZM337.899 272.433V262.836H341.642C342.483 262.836 343.2 262.968 343.795 263.233C344.389 263.498 344.846 263.882 345.166 264.385C345.485 264.888 345.645 265.486 345.645 266.181C345.645 266.876 345.485 267.474 345.166 267.977C344.846 268.47 344.389 268.854 343.795 269.129C343.2 269.394 342.483 269.526 341.642 269.526H338.653L339.27 268.882V272.433H337.899ZM339.27 269.019L338.653 268.333H341.601C342.478 268.333 343.141 268.146 343.589 267.771C344.046 267.397 344.274 266.866 344.274 266.181C344.274 265.495 344.046 264.965 343.589 264.591C343.141 264.216 342.478 264.028 341.601 264.028H338.653L339.27 263.343V269.019ZM347.66 272.433V262.836H349.031V271.24H354.227V272.433H347.66ZM357.113 272.433V268.758L357.428 269.608L353.301 262.836H354.768L358.237 268.553H357.442L360.924 262.836H362.281L358.168 269.608L358.47 268.758V272.433H357.113Z" fill="#DEDEDE"/>
<path d="M244.26 319.143V302.197L247.029 304.829H240.969V299.949H250.731V319.143H244.26ZM262.076 319.143V299.949H272.331C274.982 299.949 276.938 300.424 278.199 301.375C279.46 302.307 280.091 303.504 280.091 304.967C280.091 305.935 279.817 306.804 279.268 307.571C278.738 308.321 277.961 308.915 276.938 309.354C275.914 309.792 274.653 310.012 273.154 310.012L273.702 308.531C275.201 308.531 276.49 308.741 277.568 309.162C278.665 309.582 279.506 310.195 280.091 310.999C280.694 311.785 280.996 312.735 280.996 313.851C280.996 315.514 280.301 316.812 278.912 317.744C277.541 318.676 275.53 319.143 272.88 319.143H262.076ZM268.438 314.618H272.331C273.044 314.618 273.574 314.49 273.922 314.234C274.287 313.979 274.47 313.604 274.47 313.11C274.47 312.617 274.287 312.242 273.922 311.986C273.574 311.73 273.044 311.602 272.331 311.602H267.999V307.325H271.454C272.185 307.325 272.715 307.206 273.044 306.968C273.391 306.712 273.565 306.356 273.565 305.899C273.565 305.424 273.391 305.067 273.044 304.829C272.715 304.592 272.185 304.473 271.454 304.473H268.438V314.618ZM283.284 319.143V299.949H289.755V319.143H283.284ZM292.87 319.143V299.949H299.341V314.125H308.006V319.143H292.87ZM309.793 319.143V299.949H316.264V314.125H324.929V319.143H309.793ZM326.716 319.143V299.949H333.187V319.143H326.716ZM346.365 319.581C344.812 319.581 343.367 319.335 342.033 318.841C340.717 318.347 339.574 317.653 338.606 316.757C337.637 315.843 336.878 314.774 336.33 313.549C335.8 312.324 335.535 310.99 335.535 309.546C335.535 308.083 335.8 306.749 336.33 305.542C336.878 304.318 337.637 303.257 338.606 302.362C339.574 301.448 340.717 300.744 342.033 300.25C343.367 299.757 344.812 299.51 346.365 299.51C347.937 299.51 349.382 299.757 350.698 300.25C352.014 300.744 353.156 301.448 354.125 302.362C355.094 303.257 355.843 304.318 356.374 305.542C356.922 306.749 357.196 308.083 357.196 309.546C357.196 310.99 356.922 312.324 356.374 313.549C355.843 314.774 355.094 315.843 354.125 316.757C353.156 317.653 352.014 318.347 350.698 318.841C349.382 319.335 347.937 319.581 346.365 319.581ZM346.365 314.344C346.969 314.344 347.526 314.234 348.038 314.015C348.568 313.796 349.025 313.485 349.409 313.083C349.811 312.662 350.122 312.16 350.341 311.575C350.561 310.971 350.67 310.295 350.67 309.546C350.67 308.796 350.561 308.129 350.341 307.544C350.122 306.941 349.811 306.438 349.409 306.036C349.025 305.616 348.568 305.296 348.038 305.076C347.526 304.857 346.969 304.747 346.365 304.747C345.762 304.747 345.195 304.857 344.665 305.076C344.154 305.296 343.697 305.616 343.294 306.036C342.91 306.438 342.609 306.941 342.389 307.544C342.17 308.129 342.06 308.796 342.06 309.546C342.06 310.295 342.17 310.971 342.389 311.575C342.609 312.16 342.91 312.662 343.294 313.083C343.697 313.485 344.154 313.796 344.665 314.015C345.195 314.234 345.762 314.344 346.365 314.344ZM359.545 319.143V299.949H364.864L374.626 311.63H372.158V299.949H378.464V319.143H373.145L363.384 307.462H365.851V319.143H359.545ZM256.929 356.581C255.32 356.581 253.766 356.398 252.267 356.033C250.768 355.667 249.534 355.192 248.566 354.607L250.65 349.891C251.564 350.421 252.578 350.851 253.693 351.18C254.826 351.49 255.923 351.646 256.984 351.646C257.605 351.646 258.089 351.609 258.437 351.536C258.802 351.445 259.067 351.326 259.232 351.18C259.396 351.015 259.479 350.823 259.479 350.604C259.479 350.256 259.287 349.982 258.903 349.781C258.519 349.58 258.007 349.416 257.367 349.288C256.746 349.141 256.06 348.995 255.311 348.849C254.561 348.684 253.803 348.474 253.035 348.218C252.286 347.962 251.591 347.624 250.951 347.204C250.33 346.783 249.827 346.235 249.443 345.559C249.059 344.864 248.867 344.005 248.867 342.981C248.867 341.793 249.196 340.714 249.854 339.746C250.531 338.758 251.527 337.972 252.843 337.387C254.178 336.803 255.832 336.51 257.806 336.51C259.104 336.51 260.384 336.647 261.645 336.921C262.906 337.196 264.04 337.616 265.045 338.183L263.098 342.871C262.148 342.396 261.224 342.04 260.329 341.802C259.451 341.564 258.592 341.446 257.751 341.446C257.13 341.446 256.636 341.5 256.271 341.61C255.905 341.72 255.64 341.866 255.475 342.049C255.329 342.232 255.256 342.433 255.256 342.652C255.256 342.981 255.448 343.246 255.832 343.447C256.216 343.63 256.718 343.785 257.34 343.913C257.98 344.041 258.674 344.178 259.424 344.325C260.192 344.471 260.95 344.672 261.7 344.928C262.449 345.184 263.135 345.522 263.756 345.942C264.396 346.363 264.908 346.911 265.292 347.588C265.676 348.264 265.868 349.105 265.868 350.11C265.868 351.28 265.529 352.359 264.853 353.346C264.195 354.315 263.208 355.101 261.892 355.704C260.575 356.289 258.921 356.581 256.929 356.581ZM255.613 359.433V355.868H259.479V359.433H255.613ZM255.613 337.223V333.658H259.479V337.223H255.613ZM267.793 356.143V336.949H277.034C278.825 336.949 280.37 337.241 281.667 337.826C282.984 338.411 283.998 339.252 284.711 340.349C285.424 341.427 285.78 342.707 285.78 344.188C285.78 345.668 285.424 346.948 284.711 348.026C283.998 349.105 282.984 349.946 281.667 350.549C280.37 351.134 278.825 351.426 277.034 351.426H271.385L274.264 348.657V356.143H267.793ZM274.264 349.37L271.385 346.436H276.622C277.518 346.436 278.176 346.235 278.596 345.833C279.035 345.431 279.255 344.882 279.255 344.188C279.255 343.493 279.035 342.945 278.596 342.542C278.176 342.14 277.518 341.939 276.622 341.939H271.385L274.264 339.005V349.37ZM284.855 356.143L293.245 336.949H299.607L307.997 356.143H301.307L295.11 340.02H297.632L291.436 356.143H284.855ZM289.845 352.797L291.49 348.136H300.32L301.965 352.797H289.845ZM309.03 356.143V336.949H315.501V351.125H324.166V356.143H309.03ZM325.953 356.143V336.949H331.272L338.95 349.48H336.153L343.611 336.949H348.931L348.986 356.143H343.09L343.035 345.833H343.968L338.868 354.415H336.016L330.697 345.833H331.848V356.143H325.953ZM350.03 356.143L358.421 336.949H364.782L373.173 356.143H366.482L360.285 340.02H362.808L356.611 356.143H350.03ZM355.021 352.797L356.666 348.136H365.495L367.14 352.797H355.021Z" fill="#1B7F4E"/>
<defs>
<filter id="filter0_d_19_16479" x="0.294556" y="0.294067" width="620.288" height="620.29" filterUnits="userSpaceOnUse" color-interpolation-filters="sRGB">
<feFlood flood-opacity="0" result="BackgroundImageFix"/>
<feColorMatrix in="SourceAlpha" type="matrix" values="0 0 0 0 0 0 0 0 0 0 0 0 0 0 0 0 0 0 127 0" result="hardAlpha"/>
<feOffset/>
<feGaussianBlur stdDeviation="10.2824"/>
<feComposite in2="hardAlpha" operator="out"/>
<feColorMatrix type="matrix" values="0 0 0 0 0 0 0 0 0 0 0 0 0 0 0 0 0 0 0.25 0"/>
<feBlend mode="normal" in2="BackgroundImageFix" result="effect1_dropShadow_19_16479"/>
<feBlend mode="normal" in="SourceGraphic" in2="effect1_dropShadow_19_16479" result="shape"/>
</filter>
<filter id="filter1_d_19_16479" x="77.2828" y="77.2443" width="466.387" height="466.388" filterUnits="userSpaceOnUse" color-interpolation-filters="sRGB">
<feFlood flood-opacity="0" result="BackgroundImageFix"/>
<feColorMatrix in="SourceAlpha" type="matrix" values="0 0 0 0 0 0 0 0 0 0 0 0 0 0 0 0 0 0 127 0" result="hardAlpha"/>
<feOffset/>
<feGaussianBlur stdDeviation="10.2824"/>
<feComposite in2="hardAlpha" operator="out"/>
<feColorMatrix type="matrix" values="0 0 0 0 0 0 0 0 0 0 0 0 0 0 0 0 0 0 0.25 0"/>
<feBlend mode="normal" in2="BackgroundImageFix" result="effect1_dropShadow_19_16479"/>
<feBlend mode="normal" in="SourceGraphic" in2="effect1_dropShadow_19_16479" result="shape"/>
</filter>
<filter id="filter2_d_19_16479" x="126.287" y="126.286" width="368.309" height="368.31" filterUnits="userSpaceOnUse" color-interpolation-filters="sRGB">
<feFlood flood-opacity="0" result="BackgroundImageFix"/>
<feColorMatrix in="SourceAlpha" type="matrix" values="0 0 0 0 0 0 0 0 0 0 0 0 0 0 0 0 0 0 127 0" result="hardAlpha"/>
<feOffset/>
<feGaussianBlur stdDeviation="10.2824"/>
<feComposite in2="hardAlpha" operator="out"/>
<feColorMatrix type="matrix" values="0 0 0 0 0 0 0 0 0 0 0 0 0 0 0 0 0 0 0.25 0"/>
<feBlend mode="normal" in2="BackgroundImageFix" result="effect1_dropShadow_19_16479"/>
<feBlend mode="normal" in="SourceGraphic" in2="effect1_dropShadow_19_16479" result="shape"/>
</filter>
<filter id="filter3_d_19_16479" x="159.737" y="159.727" width="301.428" height="301.429" filterUnits="userSpaceOnUse" color-interpolation-filters="sRGB">
<feFlood flood-opacity="0" result="BackgroundImageFix"/>
<feColorMatrix in="SourceAlpha" type="matrix" values="0 0 0 0 0 0 0 0 0 0 0 0 0 0 0 0 0 0 127 0" result="hardAlpha"/>
<feOffset/>
<feGaussianBlur stdDeviation="15.852"/>
<feComposite in2="hardAlpha" operator="out"/>
<feColorMatrix type="matrix" values="0 0 0 0 0.160784 0 0 0 0 0.85098 0 0 0 0 0.231373 0 0 0 1 0"/>
<feBlend mode="normal" in2="BackgroundImageFix" result="effect1_dropShadow_19_16479"/>
<feBlend mode="normal" in="SourceGraphic" in2="effect1_dropShadow_19_16479" result="shape"/>
</filter>
<filter id="filter4_d_19_16479" x="291.972" y="5.49573" width="152.973" height="90.2625" filterUnits="userSpaceOnUse" color-interpolation-filters="sRGB">
<feFlood flood-opacity="0" result="BackgroundImageFix"/>
<feColorMatrix in="SourceAlpha" type="matrix" values="0 0 0 0 0 0 0 0 0 0 0 0 0 0 0 0 0 0 127 0" result="hardAlpha"/>
<feOffset/>
<feGaussianBlur stdDeviation="10.2824"/>
<feComposite in2="hardAlpha" operator="out"/>
<feColorMatrix type="matrix" values="0 0 0 0 0 0 0 0 0 0 0 0 0 0 0 0 0 0 0.25 0"/>
<feBlend mode="normal" in2="BackgroundImageFix" result="effect1_dropShadow_19_16479"/>
<feBlend mode="normal" in="SourceGraphic" in2="effect1_dropShadow_19_16479" result="shape"/>
</filter>
<filter id="filter5_d_19_16479" x="400.154" y="33.7555" width="191.149" height="195.278" filterUnits="userSpaceOnUse" color-interpolation-filters="sRGB">
<feFlood flood-opacity="0" result="BackgroundImageFix"/>
<feColorMatrix in="SourceAlpha" type="matrix" values="0 0 0 0 0 0 0 0 0 0 0 0 0 0 0 0 0 0 127 0" result="hardAlpha"/>
<feOffset/>
<feGaussianBlur stdDeviation="10.2824"/>
<feComposite in2="hardAlpha" operator="out"/>
<feColorMatrix type="matrix" values="0 0 0 0 0 0 0 0 0 0 0 0 0 0 0 0 0 0 0.25 0"/>
<feBlend mode="normal" in2="BackgroundImageFix" result="effect1_dropShadow_19_16479"/>
<feBlend mode="normal" in="SourceGraphic" in2="effect1_dropShadow_19_16479" result="shape"/>
</filter>
<filter id="filter6_d_19_16479" x="516.99" y="185.241" width="98.4519" height="278.403" filterUnits="userSpaceOnUse" color-interpolation-filters="sRGB">
<feFlood flood-opacity="0" result="BackgroundImageFix"/>
<feColorMatrix in="SourceAlpha" type="matrix" values="0 0 0 0 0 0 0 0 0 0 0 0 0 0 0 0 0 0 127 0" result="hardAlpha"/>
<feOffset/>
<feGaussianBlur stdDeviation="10.2824"/>
<feComposite in2="hardAlpha" operator="out"/>
<feColorMatrix type="matrix" values="0 0 0 0 0 0 0 0 0 0 0 0 0 0 0 0 0 0 0.25 0"/>
<feBlend mode="normal" in2="BackgroundImageFix" result="effect1_dropShadow_19_16479"/>
<feBlend mode="normal" in="SourceGraphic" in2="effect1_dropShadow_19_16479" result="shape"/>
</filter>
<filter id="filter7_d_19_16479" x="5.43518" y="133.748" width="278.026" height="476.256" filterUnits="userSpaceOnUse" color-interpolation-filters="sRGB">
<feFlood flood-opacity="0" result="BackgroundImageFix"/>
<feColorMatrix in="SourceAlpha" type="matrix" values="0 0 0 0 0 0 0 0 0 0 0 0 0 0 0 0 0 0 127 0" result="hardAlpha"/>
<feOffset/>
<feGaussianBlur stdDeviation="10.2824"/>
<feComposite in2="hardAlpha" operator="out"/>
<feColorMatrix type="matrix" values="0 0 0 0 0 0 0 0 0 0 0 0 0 0 0 0 0 0 0.25 0"/>
<feBlend mode="normal" in2="BackgroundImageFix" result="effect1_dropShadow_19_16479"/>
<feBlend mode="normal" in="SourceGraphic" in2="effect1_dropShadow_19_16479" result="shape"/>
</filter>
<filter id="filter8_d_19_16479" x="245.14" y="417.253" width="332.102" height="198.19" filterUnits="userSpaceOnUse" color-interpolation-filters="sRGB">
<feFlood flood-opacity="0" result="BackgroundImageFix"/>
<feColorMatrix in="SourceAlpha" type="matrix" values="0 0 0 0 0 0 0 0 0 0 0 0 0 0 0 0 0 0 127 0" result="hardAlpha"/>
<feOffset/>
<feGaussianBlur stdDeviation="10.2824"/>
<feComposite in2="hardAlpha" operator="out"/>
<feColorMatrix type="matrix" values="0 0 0 0 0 0 0 0 0 0 0 0 0 0 0 0 0 0 0.25 0"/>
<feBlend mode="normal" in2="BackgroundImageFix" result="effect1_dropShadow_19_16479"/>
<feBlend mode="normal" in="SourceGraphic" in2="effect1_dropShadow_19_16479" result="shape"/>
</filter>
<filter id="filter9_d_19_16479" x="57.8668" y="77.4694" width="102.903" height="105.837" filterUnits="userSpaceOnUse" color-interpolation-filters="sRGB">
<feFlood flood-opacity="0" result="BackgroundImageFix"/>
<feColorMatrix in="SourceAlpha" type="matrix" values="0 0 0 0 0 0 0 0 0 0 0 0 0 0 0 0 0 0 127 0" result="hardAlpha"/>
<feOffset/>
<feGaussianBlur stdDeviation="10.2824"/>
<feComposite in2="hardAlpha" operator="out"/>
<feColorMatrix type="matrix" values="0 0 0 0 0 0 0 0 0 0 0 0 0 0 0 0 0 0 0.25 0"/>
<feBlend mode="normal" in2="BackgroundImageFix" result="effect1_dropShadow_19_16479"/>
<feBlend mode="normal" in="SourceGraphic" in2="effect1_dropShadow_19_16479" result="shape"/>
</filter>
<filter id="filter10_d_19_16479" x="108.297" y="29.8439" width="120.171" height="103.748" filterUnits="userSpaceOnUse" color-interpolation-filters="sRGB">
<feFlood flood-opacity="0" result="BackgroundImageFix"/>
<feColorMatrix in="SourceAlpha" type="matrix" values="0 0 0 0 0 0 0 0 0 0 0 0 0 0 0 0 0 0 127 0" result="hardAlpha"/>
<feOffset/>
<feGaussianBlur stdDeviation="10.2824"/>
<feComposite in2="hardAlpha" operator="out"/>
<feColorMatrix type="matrix" values="0 0 0 0 0 0 0 0 0 0 0 0 0 0 0 0 0 0 0.25 0"/>
<feBlend mode="normal" in2="BackgroundImageFix" result="effect1_dropShadow_19_16479"/>
<feBlend mode="normal" in="SourceGraphic" in2="effect1_dropShadow_19_16479" result="shape"/>
</filter>
<filter id="filter11_d_19_16479" x="184.056" y="5.54407" width="143.012" height="87.1516" filterUnits="userSpaceOnUse" color-interpolation-filters="sRGB">
<feFlood flood-opacity="0" result="BackgroundImageFix"/>
<feColorMatrix in="SourceAlpha" type="matrix" values="0 0 0 0 0 0 0 0 0 0 0 0 0 0 0 0 0 0 127 0" result="hardAlpha"/>
<feOffset/>
<feGaussianBlur stdDeviation="10.2824"/>
<feComposite in2="hardAlpha" operator="out"/>
<feColorMatrix type="matrix" values="0 0 0 0 0 0 0 0 0 0 0 0 0 0 0 0 0 0 0.25 0"/>
<feBlend mode="normal" in2="BackgroundImageFix" result="effect1_dropShadow_19_16479"/>
<feBlend mode="normal" in="SourceGraphic" in2="effect1_dropShadow_19_16479" result="shape"/>
</filter>
<radialGradient id="paint0_radial_19_16479" cx="0" cy="0" r="1" gradientUnits="userSpaceOnUse" gradientTransform="translate(310.441 310.441) rotate(84.1727) scale(806.565 806.563)">
<stop stop-color="#222939"/>
<stop offset="0.268463" stop-color="#222939" stop-opacity="0"/>
<stop offset="1" stop-color="#222939" stop-opacity="0"/>
</radialGradient>
</defs>
</svg>
