<svg width="25" height="25" viewBox="0 0 25 25" fill="none" xmlns="http://www.w3.org/2000/svg">
<g clip-path="url(#clip0_7_33)">
<g clip-path="url(#clip1_7_33)">
<g clip-path="url(#clip2_7_33)">
<mask id="mask0_7_33" style="mask-type:luminance" maskUnits="userSpaceOnUse" x="1" y="1" width="24" height="23">
<path d="M24.1069 1.03467H1.15039V23.9912H24.1069V1.03467Z" fill="white"/>
</mask>
<g mask="url(#mask0_7_33)">
<path d="M20.584 5.33152C19.1209 4.67093 17.5519 4.18423 15.9113 3.90546C15.8815 3.90009 15.8517 3.91353 15.8362 3.94043C15.6344 4.29358 15.4109 4.75428 15.2544 5.1164C13.4899 4.85647 11.7345 4.85647 10.0062 5.1164C9.84962 4.74624 9.61798 4.29358 9.41528 3.94043C9.3999 3.91443 9.37005 3.90099 9.34018 3.90546C7.70056 4.18334 6.13154 4.67003 4.66745 5.33152C4.65478 5.33691 4.64392 5.34587 4.63671 5.35753C1.66059 9.7325 0.845308 14 1.24526 18.2145C1.24707 18.2351 1.25883 18.2548 1.27512 18.2674C3.23868 19.6863 5.14072 20.5476 7.00744 21.1186C7.03732 21.1275 7.06898 21.1168 7.08798 21.0925C7.52956 20.4992 7.92318 19.8736 8.26067 19.2157C8.28059 19.1771 8.26158 19.1314 8.22086 19.1161C7.59652 18.8831 7.00201 18.599 6.43013 18.2763C6.38489 18.2504 6.38127 18.1867 6.42289 18.1562C6.54323 18.0674 6.66361 17.9751 6.77853 17.8819C6.79931 17.8649 6.82829 17.8612 6.85273 17.872C10.6097 19.5599 14.677 19.5599 18.3898 17.872C18.4142 17.8604 18.4431 17.864 18.4648 17.881C18.5797 17.9743 18.7001 18.0674 18.8214 18.1562C18.8629 18.1867 18.8603 18.2504 18.815 18.2763C18.2431 18.6052 17.6486 18.8831 17.0234 19.1153C16.9828 19.1305 16.9645 19.1771 16.9845 19.2157C17.3293 19.8727 17.7229 20.4983 18.1563 21.0916C18.1743 21.1168 18.207 21.1275 18.2368 21.1186C20.1126 20.5476 22.0146 19.6863 23.9782 18.2674C23.9954 18.2548 24.0063 18.236 24.0081 18.2154C24.4867 13.3429 23.2064 9.11046 20.6139 5.35841C20.6076 5.34587 20.5968 5.33691 20.584 5.33152ZM8.82172 15.6482C7.69061 15.6482 6.75861 14.6265 6.75861 13.3716C6.75861 12.1167 7.67253 11.0949 8.82172 11.0949C9.97992 11.0949 10.9029 12.1257 10.8848 13.3716C10.8848 14.6265 9.97087 15.6482 8.82172 15.6482ZM16.4497 15.6482C15.3186 15.6482 14.3866 14.6265 14.3866 13.3716C14.3866 12.1167 15.3005 11.0949 16.4497 11.0949C17.6079 11.0949 18.5309 12.1257 18.5128 13.3716C18.5128 14.6265 17.6079 15.6482 16.4497 15.6482Z" fill="white"/>
</g>
</g>
</g>
</g>
<defs>
<clipPath id="clip0_7_33">
<rect width="24" height="24" fill="white" transform="translate(0.5 0.5)"/>
</clipPath>
<clipPath id="clip1_7_33">
<rect width="24" height="24" fill="white" transform="translate(0.5 0.5)"/>
</clipPath>
<clipPath id="clip2_7_33">
<rect width="24" height="24" fill="white" transform="translate(0.5 0.5)"/>
</clipPath>
</defs>
</svg>
