<svg width="24" height="24" viewBox="0 0 24 24" fill="none" xmlns="http://www.w3.org/2000/svg">
<path d="M4.1 6.5H6.25C6.46667 6.5 6.64583 6.57083 6.7875 6.7125C6.92917 6.85417 7 7.03333 7 7.25C7 7.46667 6.92917 7.64583 6.7875 7.7875C6.64583 7.92917 6.46667 8 6.25 8H3C2.71667 8 2.47917 7.90417 2.2875 7.7125C2.09583 7.52083 2 7.28333 2 7V3.75C2 3.53333 2.07083 3.35417 2.2125 3.2125C2.35417 3.07083 2.53333 3 2.75 3C2.96667 3 3.14583 3.07083 3.2875 3.2125C3.42917 3.35417 3.5 3.53333 3.5 3.75V5.025C4.7 4.04167 6.025 3.29167 7.475 2.775C8.925 2.25833 10.4333 2 12 2C14.2333 2 16.2333 2.475 18 3.425C19.7667 4.375 21 5.625 21.7 7.175C21.7833 7.375 21.775 7.5625 21.675 7.7375C21.575 7.9125 21.425 8 21.225 8C20.975 8 20.7458 7.93333 20.5375 7.8C20.3292 7.66667 20.1583 7.49167 20.025 7.275C19.275 6.09167 18.2 5.16667 16.8 4.5C15.4 3.83333 13.8 3.5 12 3.5C10.5333 3.5 9.125 3.75833 7.775 4.275C6.425 4.79167 5.2 5.53333 4.1 6.5ZM11.825 23C11.425 23 11.0417 22.925 10.675 22.775C10.3083 22.625 9.98333 22.4083 9.7 22.125L5.3 17.7C5.11667 17.5167 5.02083 17.2875 5.0125 17.0125C5.00417 16.7375 5.09167 16.5 5.275 16.3L5.35 16.225C5.61667 15.9583 5.92917 15.7792 6.2875 15.6875C6.64583 15.5958 7 15.6 7.35 15.7L9 16.175V8C9 7.71667 9.09583 7.47917 9.2875 7.2875C9.47917 7.09583 9.71667 7 10 7C10.2833 7 10.5208 7.09583 10.7125 7.2875C10.9042 7.47917 11 7.71667 11 8V17.5C11 17.8333 10.8667 18.1 10.6 18.3C10.3333 18.5 10.0417 18.5583 9.725 18.475L8.575 18.15L11.125 20.7C11.2083 20.7833 11.3125 20.8542 11.4375 20.9125C11.5625 20.9708 11.6917 21 11.825 21H16C16.55 21 17.0208 20.8042 17.4125 20.4125C17.8042 20.0208 18 19.55 18 19V15C18 14.7167 18.0958 14.4792 18.2875 14.2875C18.4792 14.0958 18.7167 14 19 14C19.2833 14 19.5208 14.0958 19.7125 14.2875C19.9042 14.4792 20 14.7167 20 15V19C20 20.1 19.6083 21.0417 18.825 21.825C18.0417 22.6083 17.1 23 16 23H11.825ZM13 11C13.2833 11 13.5208 11.0958 13.7125 11.2875C13.9042 11.4792 14 11.7167 14 12V15C14 15.2833 13.9042 15.5208 13.7125 15.7125C13.5208 15.9042 13.2833 16 13 16C12.7167 16 12.4792 15.9042 12.2875 15.7125C12.0958 15.5208 12 15.2833 12 15V12C12 11.7167 12.0958 11.4792 12.2875 11.2875C12.4792 11.0958 12.7167 11 13 11ZM16 12C16.2833 12 16.5208 12.0958 16.7125 12.2875C16.9042 12.4792 17 12.7167 17 13V15C17 15.2833 16.9042 15.5208 16.7125 15.7125C16.5208 15.9042 16.2833 16 16 16C15.7167 16 15.4792 15.9042 15.2875 15.7125C15.0958 15.5208 15 15.2833 15 15V13C15 12.7167 15.0958 12.4792 15.2875 12.2875C15.4792 12.0958 15.7167 12 16 12Z" fill="white"/>
</svg>
