<svg width="195" height="36" viewBox="0 0 195 36" fill="none" xmlns="http://www.w3.org/2000/svg">
<path d="M47.4561 28.5L56.2165 8.45985H62.8583L71.6187 28.5H64.6333L58.1632 11.6663H60.7971L54.327 28.5H47.4561ZM52.6665 25.0073L54.3842 20.1404H63.6027L65.3204 25.0073H52.6665ZM71.5277 28.5L80.2881 8.45985H86.93L95.6904 28.5H88.705L82.2349 11.6663H84.8687L78.3986 28.5H71.5277ZM76.7382 25.0073L78.4559 20.1404H87.6743L89.3921 25.0073H76.7382ZM101.921 28.5L93.4466 8.45985H100.718L107.618 25.3795H103.295L110.395 8.45985H117.037L108.563 28.5H101.921ZM114.806 28.5L123.567 8.45985H130.209L138.969 28.5H131.984L125.514 11.6663H128.147L121.677 28.5H114.806ZM120.017 25.0073L121.735 20.1404H130.953L132.671 25.0073H120.017ZM149.219 28.9581C146.146 28.9581 143.751 28.1278 142.033 26.4674C140.315 24.8069 139.456 22.4784 139.456 19.4819V8.45985H146.213V19.2815C146.213 20.8084 146.489 21.8963 147.043 22.5452C147.596 23.175 148.341 23.49 149.276 23.49C150.23 23.49 150.975 23.175 151.509 22.5452C152.062 21.8963 152.339 20.8084 152.339 19.2815V8.45985H158.981V19.4819C158.981 22.4784 158.122 24.8069 156.404 26.4674C154.687 28.1278 152.291 28.9581 149.219 28.9581ZM162.078 28.5V8.45985H168.834V23.2609H177.881V28.5H162.078ZM182.226 28.5V13.6989H176.357V8.45985H194.851V13.6989H188.982V28.5H182.226Z" fill="url(#paint0_linear_51_222)"/>
<path d="M0.129639 9.00907L11.4769 35H20.08L31.4272 9.00907H22.3791L13.9985 30.8414H17.4101L9.02943 9.00907H0.129639Z" fill="url(#paint1_angular_51_222)"/>
<path d="M0 25.9909L11.3472 0H19.9504L31.2976 25.9909H22.2495L13.8688 4.15855H17.2804L8.89979 25.9909H0Z" fill="url(#paint2_angular_51_222)"/>
<defs>
<linearGradient id="paint0_linear_51_222" x1="121.5" y1="0.499993" x2="175.03" y2="90.0848" gradientUnits="userSpaceOnUse">
<stop stop-color="#1BEBA4"/>
<stop offset="1" stop-color="#29D93B" stop-opacity="0.75"/>
</linearGradient>
<radialGradient id="paint1_angular_51_222" cx="0" cy="0" r="1" gradientUnits="userSpaceOnUse" gradientTransform="translate(15.7822 22.3931) rotate(-90) scale(26.3363 17.4234)">
<stop stop-color="#19F9C3"/>
<stop offset="1" stop-color="#29D93B" stop-opacity="0.85"/>
</radialGradient>
<radialGradient id="paint2_angular_51_222" cx="0" cy="0" r="1" gradientUnits="userSpaceOnUse" gradientTransform="translate(15.6525 12.6069) rotate(90) scale(26.3363 17.4234)">
<stop stop-color="#19F9C3"/>
<stop offset="1" stop-color="#29D93B" stop-opacity="0.85"/>
</radialGradient>
</defs>
</svg>
