<svg width="215" height="39" viewBox="0 0 215 39" fill="none" xmlns="http://www.w3.org/2000/svg">
<path d="M52.1342 30.5503L61.7583 8.53436H69.055L78.6791 30.5503H71.005L63.897 12.0569H66.7905L59.6825 30.5503H52.1342ZM57.8583 26.7132L59.7454 21.3665H69.8728L71.7598 26.7132H57.8583ZM78.5791 30.5503L88.2032 8.53436H95.4999L105.124 30.5503H97.4499L90.3419 12.0569H93.2354L86.1274 30.5503H78.5791ZM84.3033 26.7132L86.1903 21.3665H96.3177L98.2048 26.7132H84.3033ZM111.969 30.5503L102.659 8.53436H110.648L118.227 27.1221H113.478L121.278 8.53436H128.575L119.265 30.5503H111.969ZM126.125 30.5503L135.749 8.53436H143.046L152.67 30.5503H144.996L137.887 12.0569H140.781L133.673 30.5503H126.125ZM131.849 26.7132L133.736 21.3665H143.863L145.75 26.7132H131.849ZM163.93 31.0535C160.554 31.0535 157.922 30.1414 156.035 28.3172C154.148 26.4931 153.205 23.935 153.205 20.6431V8.53436H160.627V20.423C160.627 22.1004 160.931 23.2955 161.539 24.0084C162.147 24.7003 162.965 25.0463 163.993 25.0463C165.041 25.0463 165.859 24.7003 166.446 24.0084C167.054 23.2955 167.358 22.1004 167.358 20.423V8.53436H174.655V20.6431C174.655 23.935 173.711 26.4931 171.824 28.3172C169.937 30.1414 167.305 31.0535 163.93 31.0535ZM178.057 30.5503V8.53436H185.48V24.7947H195.418V30.5503H178.057ZM200.191 30.5503V14.29H193.744V8.53436H214.061V14.29H207.614V30.5503H200.191Z" fill="#E9E9E9"/>
<path d="M0.142578 9.89775L12.6086 38.4512H22.0599L34.5259 9.89775H24.5857L15.3788 33.8826H19.1267L9.91982 9.89775H0.142578Z" fill="#E9E9E9"/>
<path d="M0 28.5534L12.466 0H21.9173L34.3833 28.5534H24.4431L15.2362 4.56855H18.9841L9.77724 28.5534H0Z" fill="#E9E9E9"/>
</svg>
