<svg width="609" height="371" viewBox="0 0 609 371" fill="none" xmlns="http://www.w3.org/2000/svg">
<rect width="609" height="371" fill="#121212"/>
<path d="M255.086 53.2987C254.891 53.0707 254.63 52.8509 254.305 52.6392C253.979 52.4276 253.613 52.2403 253.205 52.0775C252.798 51.8984 252.351 51.76 251.862 51.6623C251.39 51.5483 250.893 51.4913 250.372 51.4913C249.037 51.4913 248.052 51.7437 247.417 52.2485C246.782 52.7532 246.465 53.4452 246.465 54.3244C246.465 54.9431 246.628 55.4316 246.953 55.7898C247.279 56.148 247.775 56.4411 248.443 56.669C249.127 56.897 249.99 57.1331 251.032 57.3773C252.237 57.6378 253.279 57.9553 254.158 58.3298C255.037 58.7043 255.713 59.209 256.185 59.844C256.657 60.4628 256.893 61.2931 256.893 62.3352C256.893 63.1656 256.731 63.8901 256.405 64.5088C256.096 65.1113 255.656 65.616 255.086 66.0231C254.516 66.4138 253.849 66.7069 253.083 66.9023C252.318 67.0814 251.488 67.171 250.592 67.171C249.713 67.171 248.85 67.0814 248.003 66.9023C247.173 66.7069 246.383 66.4301 245.634 66.0719C244.885 65.7137 244.185 65.266 243.534 64.7287L244.584 62.8725C244.845 63.1493 245.178 63.4261 245.585 63.7029C246.009 63.9634 246.481 64.2076 247.002 64.4356C247.539 64.6635 248.117 64.8508 248.736 64.9973C249.355 65.1276 249.99 65.1927 250.641 65.1927C251.879 65.1927 252.839 64.9729 253.523 64.5333C254.207 64.0774 254.549 63.4179 254.549 62.555C254.549 61.9037 254.353 61.3827 253.963 60.9919C253.588 60.6012 253.026 60.2755 252.277 60.015C251.528 59.7545 250.617 59.494 249.542 59.2335C248.37 58.9404 247.385 58.6229 246.587 58.281C245.789 57.9228 245.187 57.4587 244.78 56.8888C244.389 56.319 244.193 55.5781 244.193 54.6663C244.193 53.5592 244.462 52.6229 244.999 51.8577C245.537 51.0924 246.277 50.5144 247.222 50.1237C248.166 49.7329 249.233 49.5375 250.421 49.5375C251.203 49.5375 251.927 49.6189 252.595 49.7817C253.279 49.9446 253.914 50.1725 254.5 50.4656C255.086 50.7587 255.623 51.1087 256.112 51.5158L255.086 53.2987ZM265.798 66.365C265.619 66.4464 265.375 66.5522 265.066 66.6825C264.756 66.8128 264.398 66.9267 263.991 67.0244C263.584 67.1221 263.152 67.171 262.697 67.171C262.176 67.171 261.695 67.0814 261.256 66.9023C260.816 66.7069 260.466 66.4138 260.205 66.0231C259.945 65.616 259.815 65.1113 259.815 64.5088V55.9363H258.081V54.2512H259.815V50.0015H261.964V54.2512H264.821V55.9363H261.964V63.8494C261.996 64.3053 262.151 64.6472 262.428 64.8752C262.705 65.0869 263.03 65.1927 263.405 65.1927C263.828 65.1927 264.219 65.1194 264.577 64.9729C264.935 64.8263 265.171 64.7205 265.285 64.6554L265.798 66.365ZM266.789 63.3121C266.789 62.498 267.017 61.7979 267.473 61.2117C267.945 60.6093 268.588 60.1453 269.402 59.8196C270.216 59.494 271.161 59.3312 272.235 59.3312C272.805 59.3312 273.408 59.38 274.043 59.4777C274.678 59.5591 275.239 59.6894 275.728 59.8685V58.9404C275.728 57.9635 275.435 57.1982 274.849 56.6446C274.262 56.0747 273.432 55.7898 272.357 55.7898C271.657 55.7898 270.982 55.9201 270.33 56.1806C269.695 56.4248 269.02 56.783 268.303 57.2552L267.522 55.741C268.352 55.1711 269.182 54.7478 270.013 54.471C270.843 54.1779 271.706 54.0313 272.602 54.0313C274.23 54.0313 275.516 54.4872 276.46 55.399C277.405 56.2946 277.877 57.5483 277.877 59.1602V64.5577C277.877 64.8182 277.926 65.0136 278.024 65.1438C278.138 65.2578 278.317 65.3229 278.561 65.3392V67C278.349 67.0326 278.162 67.057 277.999 67.0733C277.853 67.0896 277.73 67.0977 277.633 67.0977C277.128 67.0977 276.745 66.9593 276.485 66.6825C276.241 66.4057 276.102 66.1126 276.07 65.8033L276.021 64.9973C275.467 65.7137 274.743 66.2673 273.847 66.6581C272.952 67.0488 272.064 67.2442 271.185 67.2442C270.338 67.2442 269.581 67.0733 268.914 66.7313C268.246 66.3731 267.725 65.901 267.351 65.3148C266.976 64.7124 266.789 64.0448 266.789 63.3121ZM275.093 64.2158C275.288 63.9878 275.443 63.7599 275.557 63.5319C275.671 63.2877 275.728 63.0842 275.728 62.9213V61.3338C275.223 61.1385 274.694 60.9919 274.14 60.8942C273.587 60.7803 273.041 60.7233 272.504 60.7233C271.413 60.7233 270.526 60.9431 269.842 61.3827C269.174 61.806 268.84 62.3922 268.84 63.1412C268.84 63.5482 268.946 63.9471 269.158 64.3379C269.386 64.7124 269.712 65.0217 270.135 65.266C270.574 65.5102 271.112 65.6323 271.747 65.6323C272.414 65.6323 273.049 65.5021 273.652 65.2415C274.254 64.9647 274.735 64.6228 275.093 64.2158ZM288.054 56.1317C286.98 56.148 286.027 56.4248 285.197 56.9621C284.383 57.4831 283.805 58.2077 283.463 59.1358V67H281.314V54.2512H283.316V57.2063C283.756 56.3271 284.334 55.6188 285.05 55.0815C285.783 54.5279 286.548 54.2186 287.346 54.1535C287.509 54.1535 287.647 54.1535 287.761 54.1535C287.875 54.1535 287.973 54.1616 288.054 54.1779V56.1317ZM296.78 66.365C296.601 66.4464 296.357 66.5522 296.048 66.6825C295.738 66.8128 295.38 66.9267 294.973 67.0244C294.566 67.1221 294.134 67.171 293.679 67.171C293.158 67.171 292.677 67.0814 292.238 66.9023C291.798 66.7069 291.448 66.4138 291.187 66.0231C290.927 65.616 290.797 65.1113 290.797 64.5088V55.9363H289.063V54.2512H290.797V50.0015H292.946V54.2512H295.803V55.9363H292.946V63.8494C292.978 64.3053 293.133 64.6472 293.41 64.8752C293.687 65.0869 294.012 65.1927 294.387 65.1927C294.81 65.1927 295.201 65.1194 295.559 64.9729C295.917 64.8263 296.153 64.7205 296.267 64.6554L296.78 66.365ZM298.772 67V54.2512H300.922V67H298.772ZM298.772 51.8577V49.1712H300.922V51.8577H298.772ZM315.465 67H313.315V59.8685C313.315 58.5171 313.104 57.532 312.68 56.9133C312.273 56.2783 311.647 55.9608 310.8 55.9608C310.214 55.9608 309.628 56.1073 309.041 56.4004C308.472 56.6935 307.959 57.0924 307.503 57.5971C307.063 58.0856 306.746 58.6554 306.55 59.3067V67H304.401V54.2512H306.355V56.9865C306.697 56.3841 307.136 55.8631 307.674 55.4235C308.211 54.9838 308.822 54.6419 309.505 54.3977C310.189 54.1535 310.906 54.0313 311.655 54.0313C312.387 54.0313 312.998 54.1697 313.486 54.4465C313.991 54.7071 314.382 55.0815 314.659 55.57C314.952 56.0422 315.155 56.6039 315.269 57.2552C315.4 57.9065 315.465 58.6147 315.465 59.38V67ZM323.887 67.1465C323.024 67.1465 322.226 66.9756 321.493 66.6337C320.777 66.2754 320.158 65.7951 319.637 65.1927C319.116 64.574 318.709 63.8738 318.416 63.0923C318.139 62.3108 318.001 61.4967 318.001 60.65C318.001 59.7545 318.139 58.9078 318.416 58.11C318.709 57.3122 319.116 56.6121 319.637 56.0096C320.175 55.3909 320.801 54.9106 321.518 54.5687C322.234 54.2104 323.032 54.0313 323.911 54.0313C324.97 54.0313 325.89 54.2919 326.671 54.8129C327.469 55.3339 328.136 55.9933 328.674 56.7912V54.2512H330.579V66.8535C330.579 68.0583 330.286 69.076 329.7 69.9063C329.13 70.7367 328.348 71.3636 327.355 71.7869C326.378 72.2265 325.287 72.4463 324.082 72.4463C322.649 72.4463 321.477 72.194 320.565 71.6892C319.653 71.1845 318.896 70.5006 318.294 69.6377L319.54 68.5387C320.044 69.2876 320.696 69.8494 321.493 70.2238C322.307 70.5983 323.17 70.7856 324.082 70.7856C324.864 70.7856 325.58 70.639 326.231 70.346C326.899 70.0692 327.428 69.6377 327.819 69.0515C328.226 68.4654 328.43 67.7327 328.43 66.8535V64.6065C327.957 65.3881 327.306 66.0068 326.476 66.4627C325.662 66.9186 324.799 67.1465 323.887 67.1465ZM324.546 65.3881C325.002 65.3881 325.442 65.3067 325.865 65.1438C326.288 64.981 326.679 64.7694 327.037 64.5088C327.396 64.2321 327.697 63.9227 327.941 63.5808C328.185 63.2388 328.348 62.8888 328.43 62.5306V58.8671C328.202 58.281 327.876 57.7681 327.453 57.3285C327.029 56.8726 326.549 56.5225 326.012 56.2783C325.474 56.0178 324.921 55.8875 324.351 55.8875C323.7 55.8875 323.113 56.0259 322.592 56.3027C322.088 56.5795 321.656 56.954 321.298 57.4262C320.94 57.8821 320.663 58.3949 320.468 58.9648C320.272 59.5347 320.175 60.1127 320.175 60.6988C320.175 61.3338 320.288 61.9363 320.516 62.5062C320.744 63.0597 321.054 63.5563 321.445 63.996C321.835 64.4356 322.299 64.7775 322.837 65.0217C323.374 65.266 323.944 65.3881 324.546 65.3881ZM350.751 53.2987C350.556 53.0707 350.295 52.8509 349.97 52.6392C349.644 52.4276 349.278 52.2403 348.87 52.0775C348.463 51.8984 348.016 51.76 347.527 51.6623C347.055 51.5483 346.558 51.4913 346.037 51.4913C344.702 51.4913 343.717 51.7437 343.082 52.2485C342.447 52.7532 342.13 53.4452 342.13 54.3244C342.13 54.9431 342.293 55.4316 342.618 55.7898C342.944 56.148 343.44 56.4411 344.108 56.669C344.792 56.897 345.655 57.1331 346.697 57.3773C347.902 57.6378 348.944 57.9553 349.823 58.3298C350.702 58.7043 351.378 59.209 351.85 59.844C352.322 60.4628 352.558 61.2931 352.558 62.3352C352.558 63.1656 352.396 63.8901 352.07 64.5088C351.761 65.1113 351.321 65.616 350.751 66.0231C350.181 66.4138 349.514 66.7069 348.748 66.9023C347.983 67.0814 347.153 67.171 346.257 67.171C345.378 67.171 344.515 67.0814 343.668 66.9023C342.838 66.7069 342.048 66.4301 341.299 66.0719C340.55 65.7137 339.85 65.266 339.199 64.7287L340.249 62.8725C340.51 63.1493 340.843 63.4261 341.25 63.7029C341.674 63.9634 342.146 64.2076 342.667 64.4356C343.204 64.6635 343.782 64.8508 344.401 64.9973C345.02 65.1276 345.655 65.1927 346.306 65.1927C347.543 65.1927 348.504 64.9729 349.188 64.5333C349.872 64.0774 350.214 63.4179 350.214 62.555C350.214 61.9037 350.018 61.3827 349.628 60.9919C349.253 60.6012 348.691 60.2755 347.942 60.015C347.193 59.7545 346.282 59.494 345.207 59.2335C344.035 58.9404 343.05 58.6229 342.252 58.281C341.454 57.9228 340.852 57.4587 340.445 56.8888C340.054 56.319 339.858 55.5781 339.858 54.6663C339.858 53.5592 340.127 52.6229 340.664 51.8577C341.202 51.0924 341.942 50.5144 342.887 50.1237C343.831 49.7329 344.898 49.5375 346.086 49.5375C346.868 49.5375 347.592 49.6189 348.26 49.7817C348.944 49.9446 349.579 50.1725 350.165 50.4656C350.751 50.7587 351.288 51.1087 351.777 51.5158L350.751 53.2987ZM370.699 54.2512H372.775L367.353 67H365.472L363.005 60.9919L360.563 67H358.682L353.261 54.2512H355.312L359.708 64.8752L361.76 59.6487L359.611 54.2756H361.491L363.005 58.3298L364.52 54.2756H366.4L364.275 59.6487L366.327 64.8752L370.699 54.2512ZM373.473 63.3121C373.473 62.498 373.701 61.7979 374.157 61.2117C374.629 60.6093 375.272 60.1453 376.086 59.8196C376.9 59.494 377.845 59.3312 378.919 59.3312C379.489 59.3312 380.092 59.38 380.727 59.4777C381.362 59.5591 381.923 59.6894 382.412 59.8685V58.9404C382.412 57.9635 382.119 57.1982 381.533 56.6446C380.946 56.0747 380.116 55.7898 379.041 55.7898C378.341 55.7898 377.666 55.9201 377.014 56.1806C376.379 56.4248 375.704 56.783 374.987 57.2552L374.206 55.741C375.036 55.1711 375.866 54.7478 376.697 54.471C377.527 54.1779 378.39 54.0313 379.286 54.0313C380.914 54.0313 382.2 54.4872 383.144 55.399C384.089 56.2946 384.561 57.5483 384.561 59.1602V64.5577C384.561 64.8182 384.61 65.0136 384.708 65.1438C384.822 65.2578 385.001 65.3229 385.245 65.3392V67C385.033 67.0326 384.846 67.057 384.683 67.0733C384.537 67.0896 384.414 67.0977 384.317 67.0977C383.812 67.0977 383.429 66.9593 383.169 66.6825C382.925 66.4057 382.786 66.1126 382.754 65.8033L382.705 64.9973C382.151 65.7137 381.427 66.2673 380.531 66.6581C379.636 67.0488 378.748 67.2442 377.869 67.2442C377.022 67.2442 376.265 67.0733 375.598 66.7313C374.93 66.3731 374.409 65.901 374.035 65.3148C373.66 64.7124 373.473 64.0448 373.473 63.3121ZM381.777 64.2158C381.972 63.9878 382.127 63.7599 382.241 63.5319C382.355 63.2877 382.412 63.0842 382.412 62.9213V61.3338C381.907 61.1385 381.378 60.9919 380.824 60.8942C380.271 60.7803 379.725 60.7233 379.188 60.7233C378.097 60.7233 377.21 60.9431 376.526 61.3827C375.858 61.806 375.524 62.3922 375.524 63.1412C375.524 63.5482 375.63 63.9471 375.842 64.3379C376.07 64.7124 376.396 65.0217 376.819 65.266C377.258 65.5102 377.796 65.6323 378.431 65.6323C379.098 65.6323 379.733 65.5021 380.336 65.2415C380.938 64.9647 381.419 64.6228 381.777 64.2158ZM394.86 67.2442C393.818 67.2442 392.89 66.9837 392.076 66.4627C391.262 65.9417 390.619 65.2822 390.147 64.4844V72.2021H387.998V54.2512H389.903V56.6446C390.407 55.8631 391.067 55.2362 391.881 54.764C392.695 54.2756 393.582 54.0313 394.543 54.0313C395.422 54.0313 396.228 54.2104 396.961 54.5687C397.694 54.9269 398.329 55.4153 398.866 56.034C399.403 56.6528 399.818 57.361 400.111 58.1588C400.421 58.9404 400.575 59.7626 400.575 60.6256C400.575 61.8304 400.331 62.9376 399.843 63.9471C399.371 64.9566 398.703 65.7626 397.84 66.365C396.977 66.9512 395.984 67.2442 394.86 67.2442ZM394.201 65.3881C394.836 65.3881 395.406 65.2578 395.911 64.9973C396.432 64.7205 396.871 64.3623 397.23 63.9227C397.604 63.4668 397.889 62.9539 398.084 62.384C398.28 61.8142 398.377 61.228 398.377 60.6256C398.377 59.9906 398.263 59.3881 398.035 58.8183C397.824 58.2484 397.514 57.7437 397.107 57.304C396.717 56.8644 396.253 56.5225 395.715 56.2783C395.194 56.0178 394.624 55.8875 394.006 55.8875C393.615 55.8875 393.208 55.9608 392.785 56.1073C392.377 56.2538 391.987 56.4655 391.612 56.7423C391.238 57.0028 390.92 57.304 390.66 57.646C390.399 57.9879 390.228 58.3542 390.147 58.745V62.384C390.391 62.9376 390.717 63.4424 391.124 63.8983C391.531 64.3542 392.003 64.7205 392.54 64.9973C393.078 65.2578 393.631 65.3881 394.201 65.3881Z" fill="#828282"/>
<path d="M221.276 50.4649C221.673 50.4649 221.994 50.1433 221.994 49.7466C221.994 49.3499 221.673 49.0283 221.276 49.0283V50.4649ZM184.852 49.2386C184.571 49.5192 184.571 49.974 184.852 50.2545L189.423 54.8259C189.704 55.1064 190.158 55.1064 190.439 54.8259C190.719 54.5454 190.719 54.0906 190.439 53.81L186.375 49.7466L190.439 45.6831C190.719 45.4026 190.719 44.9478 190.439 44.6673C190.158 44.3867 189.704 44.3867 189.423 44.6673L184.852 49.2386ZM221.276 49.0283H185.36V50.4649H221.276V49.0283Z" fill="#828282"/>
<path d="M185.36 64.8315C184.963 64.8315 184.642 65.1531 184.642 65.5498C184.642 65.9465 184.963 66.2681 185.36 66.2681L185.36 64.8315ZM221.784 66.0577C222.065 65.7772 222.065 65.3224 221.784 65.0419L217.213 60.4705C216.932 60.1899 216.477 60.1899 216.197 60.4705C215.916 60.751 215.916 61.2058 216.197 61.4863L220.26 65.5498L216.197 69.6133C215.916 69.8938 215.916 70.3486 216.197 70.6291C216.477 70.9097 216.932 70.9097 217.213 70.6291L221.784 66.0577ZM185.36 66.2681L221.276 66.2681L221.276 64.8315L185.36 64.8315L185.36 66.2681Z" fill="#828282"/>
<path d="M205.687 139.249H199.703V154.636H197.505V139.249H191.521V137.295H205.687V139.249ZM212.603 143.767C211.529 143.784 210.576 144.061 209.746 144.598C208.932 145.119 208.354 145.843 208.012 146.772V154.636H205.863V141.887H207.865V144.842C208.305 143.963 208.883 143.255 209.599 142.717C210.332 142.164 211.097 141.854 211.895 141.789C212.058 141.789 212.196 141.789 212.31 141.789C212.424 141.789 212.522 141.797 212.603 141.814V143.767ZM213.734 150.948C213.734 150.134 213.962 149.434 214.418 148.847C214.89 148.245 215.533 147.781 216.347 147.455C217.161 147.13 218.106 146.967 219.18 146.967C219.75 146.967 220.352 147.016 220.987 147.113C221.622 147.195 222.184 147.325 222.673 147.504V146.576C222.673 145.599 222.38 144.834 221.793 144.28C221.207 143.71 220.377 143.426 219.302 143.426C218.602 143.426 217.926 143.556 217.275 143.816C216.64 144.061 215.964 144.419 215.248 144.891L214.466 143.377C215.297 142.807 216.127 142.383 216.958 142.107C217.788 141.814 218.651 141.667 219.546 141.667C221.175 141.667 222.461 142.123 223.405 143.035C224.35 143.93 224.822 145.184 224.822 146.796V152.193C224.822 152.454 224.871 152.649 224.968 152.78C225.082 152.894 225.261 152.959 225.506 152.975V154.636C225.294 154.668 225.107 154.693 224.944 154.709C224.797 154.725 224.675 154.733 224.578 154.733C224.073 154.733 223.69 154.595 223.43 154.318C223.186 154.041 223.047 153.748 223.015 153.439L222.966 152.633C222.412 153.349 221.688 153.903 220.792 154.294C219.897 154.685 219.009 154.88 218.13 154.88C217.283 154.88 216.526 154.709 215.859 154.367C215.191 154.009 214.67 153.537 214.296 152.951C213.921 152.348 213.734 151.681 213.734 150.948ZM222.038 151.852C222.233 151.624 222.388 151.396 222.502 151.168C222.616 150.923 222.673 150.72 222.673 150.557V148.97C222.168 148.774 221.639 148.628 221.085 148.53C220.532 148.416 219.986 148.359 219.449 148.359C218.358 148.359 217.471 148.579 216.787 149.018C216.119 149.442 215.785 150.028 215.785 150.777C215.785 151.184 215.891 151.583 216.103 151.974C216.331 152.348 216.656 152.657 217.08 152.902C217.519 153.146 218.057 153.268 218.692 153.268C219.359 153.268 219.994 153.138 220.597 152.877C221.199 152.6 221.679 152.259 222.038 151.852ZM239.322 154.636H237.173V147.504C237.173 146.153 236.961 145.168 236.538 144.549C236.131 143.914 235.504 143.597 234.657 143.597C234.071 143.597 233.485 143.743 232.899 144.036C232.329 144.329 231.816 144.728 231.36 145.233C230.921 145.721 230.603 146.291 230.408 146.942V154.636H228.258V141.887H230.212V144.622C230.554 144.02 230.994 143.499 231.531 143.059C232.068 142.62 232.679 142.278 233.363 142.033C234.047 141.789 234.763 141.667 235.512 141.667C236.245 141.667 236.855 141.805 237.344 142.082C237.849 142.343 238.239 142.717 238.516 143.206C238.809 143.678 239.013 144.24 239.127 144.891C239.257 145.542 239.322 146.25 239.322 147.016V154.636ZM247.036 154.88C245.978 154.88 244.984 154.709 244.056 154.367C243.128 154.009 242.33 153.48 241.663 152.78L242.493 151.265C243.226 151.949 243.959 152.438 244.691 152.731C245.424 153.024 246.173 153.17 246.938 153.17C247.818 153.17 248.534 153.008 249.088 152.682C249.641 152.34 249.918 151.843 249.918 151.192C249.918 150.72 249.771 150.37 249.478 150.142C249.202 149.914 248.803 149.727 248.282 149.58C247.761 149.417 247.142 149.238 246.425 149.043C245.546 148.782 244.805 148.506 244.203 148.212C243.6 147.919 243.145 147.553 242.835 147.113C242.526 146.674 242.371 146.12 242.371 145.453C242.371 144.639 242.583 143.955 243.006 143.401C243.43 142.831 244.008 142.4 244.74 142.107C245.489 141.814 246.336 141.667 247.28 141.667C248.225 141.667 249.079 141.814 249.845 142.107C250.61 142.4 251.269 142.831 251.823 143.401L250.846 144.891C250.341 144.37 249.788 143.987 249.185 143.743C248.583 143.483 247.907 143.352 247.158 143.352C246.718 143.352 246.287 143.409 245.864 143.523C245.44 143.621 245.09 143.808 244.813 144.085C244.537 144.345 244.398 144.72 244.398 145.208C244.398 145.615 244.504 145.941 244.716 146.185C244.944 146.413 245.269 146.609 245.693 146.772C246.132 146.934 246.662 147.113 247.28 147.309C248.241 147.586 249.071 147.862 249.771 148.139C250.488 148.416 251.041 148.774 251.432 149.214C251.823 149.653 252.018 150.264 252.018 151.046C252.018 152.25 251.562 153.195 250.651 153.879C249.739 154.546 248.534 154.88 247.036 154.88ZM253.588 150.948C253.588 150.134 253.816 149.434 254.272 148.847C254.744 148.245 255.387 147.781 256.202 147.455C257.016 147.13 257.96 146.967 259.035 146.967C259.604 146.967 260.207 147.016 260.842 147.113C261.477 147.195 262.039 147.325 262.527 147.504V146.576C262.527 145.599 262.234 144.834 261.648 144.28C261.062 143.71 260.231 143.426 259.157 143.426C258.457 143.426 257.781 143.556 257.13 143.816C256.495 144.061 255.819 144.419 255.102 144.891L254.321 143.377C255.151 142.807 255.982 142.383 256.812 142.107C257.642 141.814 258.505 141.667 259.401 141.667C261.029 141.667 262.315 142.123 263.26 143.035C264.204 143.93 264.676 145.184 264.676 146.796V152.193C264.676 152.454 264.725 152.649 264.823 152.78C264.937 152.894 265.116 152.959 265.36 152.975V154.636C265.149 154.668 264.961 154.693 264.798 154.709C264.652 154.725 264.53 154.733 264.432 154.733C263.927 154.733 263.545 154.595 263.284 154.318C263.04 154.041 262.902 153.748 262.869 153.439L262.82 152.633C262.267 153.349 261.542 153.903 260.647 154.294C259.751 154.685 258.864 154.88 257.984 154.88C257.138 154.88 256.381 154.709 255.713 154.367C255.045 154.009 254.524 153.537 254.15 152.951C253.775 152.348 253.588 151.681 253.588 150.948ZM261.892 151.852C262.087 151.624 262.242 151.396 262.356 151.168C262.47 150.923 262.527 150.72 262.527 150.557V148.97C262.022 148.774 261.493 148.628 260.94 148.53C260.386 148.416 259.841 148.359 259.303 148.359C258.212 148.359 257.325 148.579 256.641 149.018C255.974 149.442 255.64 150.028 255.64 150.777C255.64 151.184 255.746 151.583 255.957 151.974C256.185 152.348 256.511 152.657 256.934 152.902C257.374 153.146 257.911 153.268 258.546 153.268C259.214 153.268 259.849 153.138 260.451 152.877C261.054 152.6 261.534 152.259 261.892 151.852ZM273.755 154.88C272.794 154.88 271.915 154.709 271.117 154.367C270.335 154.009 269.652 153.52 269.065 152.902C268.496 152.283 268.048 151.575 267.722 150.777C267.413 149.979 267.258 149.132 267.258 148.237C267.258 147.032 267.527 145.933 268.064 144.94C268.601 143.947 269.358 143.157 270.335 142.571C271.312 141.968 272.444 141.667 273.73 141.667C274.984 141.667 276.075 141.952 277.003 142.522C277.947 143.075 278.647 143.824 279.103 144.769L277.003 145.428C276.677 144.826 276.221 144.362 275.635 144.036C275.049 143.694 274.398 143.523 273.681 143.523C272.9 143.523 272.183 143.727 271.532 144.134C270.897 144.541 270.392 145.103 270.018 145.819C269.643 146.519 269.456 147.325 269.456 148.237C269.456 149.132 269.643 149.947 270.018 150.679C270.409 151.396 270.922 151.965 271.557 152.389C272.208 152.812 272.924 153.024 273.706 153.024C274.211 153.024 274.691 152.934 275.147 152.755C275.619 152.576 276.026 152.34 276.368 152.047C276.726 151.738 276.97 151.404 277.101 151.046L279.201 151.681C278.94 152.299 278.542 152.853 278.004 153.341C277.483 153.813 276.856 154.188 276.124 154.465C275.407 154.742 274.618 154.88 273.755 154.88ZM288.23 154.001C288.051 154.082 287.807 154.188 287.498 154.318C287.188 154.448 286.83 154.562 286.423 154.66C286.016 154.758 285.585 154.807 285.129 154.807C284.608 154.807 284.127 154.717 283.688 154.538C283.248 154.343 282.898 154.05 282.638 153.659C282.377 153.252 282.247 152.747 282.247 152.145V143.572H280.513V141.887H282.247V137.637H284.396V141.887H287.254V143.572H284.396V151.485C284.429 151.941 284.583 152.283 284.86 152.511C285.137 152.723 285.463 152.828 285.837 152.828C286.26 152.828 286.651 152.755 287.009 152.609C287.368 152.462 287.604 152.356 287.718 152.291L288.23 154.001ZM290.222 154.636V141.887H292.372V154.636H290.222ZM290.222 139.493V136.807H292.372V139.493H290.222ZM301.42 154.88C300.459 154.88 299.588 154.709 298.806 154.367C298.025 154.009 297.349 153.529 296.779 152.926C296.209 152.307 295.77 151.599 295.46 150.801C295.151 150.003 294.996 149.165 294.996 148.286C294.996 147.39 295.151 146.544 295.46 145.746C295.77 144.948 296.209 144.248 296.779 143.645C297.349 143.027 298.025 142.546 298.806 142.204C299.604 141.846 300.475 141.667 301.42 141.667C302.38 141.667 303.251 141.846 304.033 142.204C304.815 142.546 305.49 143.027 306.06 143.645C306.646 144.248 307.094 144.948 307.403 145.746C307.713 146.544 307.867 147.39 307.867 148.286C307.867 149.165 307.713 150.003 307.403 150.801C307.094 151.599 306.654 152.307 306.085 152.926C305.515 153.529 304.831 154.009 304.033 154.367C303.251 154.709 302.38 154.88 301.42 154.88ZM297.195 148.31C297.195 149.189 297.382 149.987 297.756 150.704C298.147 151.42 298.66 151.99 299.295 152.413C299.93 152.82 300.638 153.024 301.42 153.024C302.201 153.024 302.91 152.812 303.545 152.389C304.196 151.965 304.709 151.396 305.083 150.679C305.474 149.947 305.669 149.141 305.669 148.261C305.669 147.382 305.474 146.584 305.083 145.868C304.709 145.151 304.196 144.582 303.545 144.158C302.91 143.735 302.201 143.523 301.42 143.523C300.638 143.523 299.93 143.743 299.295 144.183C298.66 144.606 298.147 145.176 297.756 145.892C297.382 146.609 297.195 147.415 297.195 148.31ZM321.535 154.636H319.386V147.504C319.386 146.153 319.174 145.168 318.751 144.549C318.344 143.914 317.717 143.597 316.871 143.597C316.284 143.597 315.698 143.743 315.112 144.036C314.542 144.329 314.029 144.728 313.573 145.233C313.134 145.721 312.816 146.291 312.621 146.942V154.636H310.472V141.887H312.426V144.622C312.767 144.02 313.207 143.499 313.744 143.059C314.282 142.62 314.892 142.278 315.576 142.033C316.26 141.789 316.976 141.667 317.725 141.667C318.458 141.667 319.069 141.805 319.557 142.082C320.062 142.343 320.453 142.717 320.729 143.206C321.022 143.678 321.226 144.24 321.34 144.891C321.47 145.542 321.535 146.25 321.535 147.016V154.636ZM337.918 154.88C336.876 154.88 335.948 154.619 335.133 154.098C334.319 153.577 333.676 152.918 333.204 152.12V159.838H331.055V141.887H332.96V144.28C333.465 143.499 334.124 142.872 334.938 142.4C335.752 141.911 336.64 141.667 337.6 141.667C338.479 141.667 339.285 141.846 340.018 142.204C340.751 142.563 341.386 143.051 341.923 143.67C342.46 144.288 342.876 144.997 343.169 145.795C343.478 146.576 343.633 147.398 343.633 148.261C343.633 149.466 343.388 150.573 342.9 151.583C342.428 152.592 341.76 153.398 340.897 154.001C340.034 154.587 339.041 154.88 337.918 154.88ZM337.258 153.024C337.893 153.024 338.463 152.894 338.968 152.633C339.489 152.356 339.929 151.998 340.287 151.558C340.661 151.103 340.946 150.59 341.142 150.02C341.337 149.45 341.435 148.864 341.435 148.261C341.435 147.626 341.321 147.024 341.093 146.454C340.881 145.884 340.572 145.379 340.165 144.94C339.774 144.5 339.31 144.158 338.773 143.914C338.251 143.653 337.682 143.523 337.063 143.523C336.672 143.523 336.265 143.597 335.842 143.743C335.435 143.89 335.044 144.101 334.669 144.378C334.295 144.639 333.977 144.94 333.717 145.282C333.456 145.624 333.285 145.99 333.204 146.381V150.02C333.448 150.573 333.774 151.078 334.181 151.534C334.588 151.99 335.06 152.356 335.598 152.633C336.135 152.894 336.688 153.024 337.258 153.024ZM353.012 143.767C351.938 143.784 350.985 144.061 350.155 144.598C349.341 145.119 348.763 145.843 348.421 146.772V154.636H346.272V141.887H348.274V144.842C348.714 143.963 349.292 143.255 350.008 142.717C350.741 142.164 351.506 141.854 352.304 141.789C352.467 141.789 352.605 141.789 352.719 141.789C352.833 141.789 352.931 141.797 353.012 141.814V143.767ZM360.402 154.88C359.442 154.88 358.571 154.709 357.789 154.367C357.008 154.009 356.332 153.529 355.762 152.926C355.192 152.307 354.753 151.599 354.443 150.801C354.134 150.003 353.979 149.165 353.979 148.286C353.979 147.39 354.134 146.544 354.443 145.746C354.753 144.948 355.192 144.248 355.762 143.645C356.332 143.027 357.008 142.546 357.789 142.204C358.587 141.846 359.458 141.667 360.402 141.667C361.363 141.667 362.234 141.846 363.016 142.204C363.797 142.546 364.473 143.027 365.043 143.645C365.629 144.248 366.077 144.948 366.386 145.746C366.695 146.544 366.85 147.39 366.85 148.286C366.85 149.165 366.695 150.003 366.386 150.801C366.077 151.599 365.637 152.307 365.067 152.926C364.497 153.529 363.813 154.009 363.016 154.367C362.234 154.709 361.363 154.88 360.402 154.88ZM356.177 148.31C356.177 149.189 356.364 149.987 356.739 150.704C357.13 151.42 357.643 151.99 358.278 152.413C358.913 152.82 359.621 153.024 360.402 153.024C361.184 153.024 361.892 152.812 362.527 152.389C363.178 151.965 363.691 151.396 364.066 150.679C364.457 149.947 364.652 149.141 364.652 148.261C364.652 147.382 364.457 146.584 364.066 145.868C363.691 145.151 363.178 144.582 362.527 144.158C361.892 143.735 361.184 143.523 360.402 143.523C359.621 143.523 358.913 143.743 358.278 144.183C357.643 144.606 357.13 145.176 356.739 145.892C356.364 146.609 356.177 147.415 356.177 148.31ZM375.096 154.88C374.135 154.88 373.256 154.709 372.458 154.367C371.677 154.009 370.993 153.52 370.407 152.902C369.837 152.283 369.389 151.575 369.064 150.777C368.754 149.979 368.6 149.132 368.6 148.237C368.6 147.032 368.868 145.933 369.406 144.94C369.943 143.947 370.7 143.157 371.677 142.571C372.654 141.968 373.785 141.667 375.072 141.667C376.325 141.667 377.416 141.952 378.344 142.522C379.289 143.075 379.989 143.824 380.445 144.769L378.344 145.428C378.019 144.826 377.563 144.362 376.977 144.036C376.391 143.694 375.739 143.523 375.023 143.523C374.241 143.523 373.525 143.727 372.874 144.134C372.239 144.541 371.734 145.103 371.359 145.819C370.985 146.519 370.798 147.325 370.798 148.237C370.798 149.132 370.985 149.947 371.359 150.679C371.75 151.396 372.263 151.965 372.898 152.389C373.549 152.812 374.266 153.024 375.047 153.024C375.552 153.024 376.032 152.934 376.488 152.755C376.96 152.576 377.367 152.34 377.709 152.047C378.068 151.738 378.312 151.404 378.442 151.046L380.542 151.681C380.282 152.299 379.883 152.853 379.346 153.341C378.825 153.813 378.198 154.188 377.465 154.465C376.749 154.742 375.959 154.88 375.096 154.88ZM388.5 154.88C387.54 154.88 386.66 154.709 385.862 154.367C385.081 154.009 384.397 153.529 383.811 152.926C383.241 152.307 382.793 151.599 382.468 150.801C382.158 150.003 382.004 149.157 382.004 148.261C382.004 147.056 382.28 145.957 382.834 144.964C383.388 143.971 384.153 143.173 385.13 142.571C386.123 141.968 387.255 141.667 388.525 141.667C389.811 141.667 390.926 141.976 391.871 142.595C392.831 143.198 393.572 143.995 394.093 144.989C394.63 145.966 394.899 147.024 394.899 148.164C394.899 148.326 394.891 148.489 394.875 148.652C394.875 148.799 394.866 148.913 394.85 148.994H384.275C384.34 149.824 384.568 150.565 384.959 151.217C385.366 151.852 385.887 152.356 386.522 152.731C387.157 153.089 387.841 153.268 388.573 153.268C389.355 153.268 390.088 153.073 390.772 152.682C391.472 152.291 391.952 151.778 392.212 151.143L394.069 151.656C393.792 152.275 393.377 152.828 392.823 153.317C392.286 153.805 391.643 154.188 390.894 154.465C390.161 154.742 389.363 154.88 388.5 154.88ZM384.202 147.504H392.896C392.831 146.674 392.595 145.941 392.188 145.306C391.781 144.671 391.26 144.175 390.625 143.816C389.99 143.458 389.29 143.279 388.525 143.279C387.776 143.279 387.084 143.458 386.449 143.816C385.814 144.175 385.293 144.671 384.886 145.306C384.495 145.941 384.267 146.674 384.202 147.504ZM401.66 154.88C400.601 154.88 399.608 154.709 398.68 154.367C397.752 154.009 396.954 153.48 396.287 152.78L397.117 151.265C397.85 151.949 398.583 152.438 399.315 152.731C400.048 153.024 400.797 153.17 401.562 153.17C402.441 153.17 403.158 153.008 403.711 152.682C404.265 152.34 404.542 151.843 404.542 151.192C404.542 150.72 404.395 150.37 404.102 150.142C403.825 149.914 403.426 149.727 402.905 149.58C402.384 149.417 401.766 149.238 401.049 149.043C400.17 148.782 399.429 148.506 398.827 148.212C398.224 147.919 397.768 147.553 397.459 147.113C397.15 146.674 396.995 146.12 396.995 145.453C396.995 144.639 397.207 143.955 397.63 143.401C398.053 142.831 398.631 142.4 399.364 142.107C400.113 141.814 400.96 141.667 401.904 141.667C402.848 141.667 403.703 141.814 404.468 142.107C405.234 142.4 405.893 142.831 406.447 143.401L405.47 144.891C404.965 144.37 404.411 143.987 403.809 143.743C403.207 143.483 402.531 143.352 401.782 143.352C401.342 143.352 400.911 143.409 400.488 143.523C400.064 143.621 399.714 143.808 399.437 144.085C399.161 144.345 399.022 144.72 399.022 145.208C399.022 145.615 399.128 145.941 399.34 146.185C399.568 146.413 399.893 146.609 400.317 146.772C400.756 146.934 401.285 147.113 401.904 147.309C402.865 147.586 403.695 147.862 404.395 148.139C405.112 148.416 405.665 148.774 406.056 149.214C406.447 149.653 406.642 150.264 406.642 151.046C406.642 152.25 406.186 153.195 405.274 153.879C404.363 154.546 403.158 154.88 401.66 154.88ZM413.585 154.88C412.527 154.88 411.534 154.709 410.606 154.367C409.677 154.009 408.88 153.48 408.212 152.78L409.042 151.265C409.775 151.949 410.508 152.438 411.241 152.731C411.973 153.024 412.722 153.17 413.487 153.17C414.367 153.17 415.083 153.008 415.637 152.682C416.19 152.34 416.467 151.843 416.467 151.192C416.467 150.72 416.321 150.37 416.027 150.142C415.751 149.914 415.352 149.727 414.831 149.58C414.31 149.417 413.691 149.238 412.975 149.043C412.095 148.782 411.355 148.506 410.752 148.212C410.15 147.919 409.694 147.553 409.384 147.113C409.075 146.674 408.92 146.12 408.92 145.453C408.92 144.639 409.132 143.955 409.555 143.401C409.979 142.831 410.557 142.4 411.289 142.107C412.038 141.814 412.885 141.667 413.829 141.667C414.774 141.667 415.629 141.814 416.394 142.107C417.159 142.4 417.818 142.831 418.372 143.401L417.395 144.891C416.89 144.37 416.337 143.987 415.734 143.743C415.132 143.483 414.456 143.352 413.707 143.352C413.268 143.352 412.836 143.409 412.413 143.523C411.99 143.621 411.639 143.808 411.363 144.085C411.086 144.345 410.947 144.72 410.947 145.208C410.947 145.615 411.053 145.941 411.265 146.185C411.493 146.413 411.819 146.609 412.242 146.772C412.682 146.934 413.211 147.113 413.829 147.309C414.79 147.586 415.62 147.862 416.321 148.139C417.037 148.416 417.591 148.774 417.981 149.214C418.372 149.653 418.567 150.264 418.567 151.046C418.567 152.25 418.112 153.195 417.2 153.879C416.288 154.546 415.083 154.88 413.585 154.88ZM421.139 154.636V141.887H423.288V154.636H421.139ZM421.139 139.493V136.807H423.288V139.493H421.139ZM437.831 154.636H435.682V147.504C435.682 146.153 435.47 145.168 435.047 144.549C434.64 143.914 434.013 143.597 433.166 143.597C432.58 143.597 431.994 143.743 431.408 144.036C430.838 144.329 430.325 144.728 429.869 145.233C429.43 145.721 429.112 146.291 428.917 146.942V154.636H426.768V141.887H428.721V144.622C429.063 144.02 429.503 143.499 430.04 143.059C430.578 142.62 431.188 142.278 431.872 142.033C432.556 141.789 433.272 141.667 434.021 141.667C434.754 141.667 435.364 141.805 435.853 142.082C436.358 142.343 436.748 142.717 437.025 143.206C437.318 143.678 437.522 144.24 437.636 144.891C437.766 145.542 437.831 146.25 437.831 147.016V154.636ZM446.253 154.782C445.39 154.782 444.593 154.611 443.86 154.269C443.143 153.911 442.525 153.431 442.004 152.828C441.483 152.21 441.076 151.51 440.783 150.728C440.506 149.947 440.367 149.132 440.367 148.286C440.367 147.39 440.506 146.544 440.783 145.746C441.076 144.948 441.483 144.248 442.004 143.645C442.541 143.027 443.168 142.546 443.884 142.204C444.601 141.846 445.398 141.667 446.278 141.667C447.336 141.667 448.256 141.928 449.038 142.449C449.835 142.97 450.503 143.629 451.04 144.427V141.887H452.945V154.489C452.945 155.694 452.652 156.712 452.066 157.542C451.496 158.372 450.715 158.999 449.721 159.423C448.744 159.862 447.654 160.082 446.449 160.082C445.016 160.082 443.844 159.83 442.932 159.325C442.02 158.82 441.263 158.136 440.66 157.273L441.906 156.174C442.411 156.923 443.062 157.485 443.86 157.86C444.674 158.234 445.537 158.421 446.449 158.421C447.23 158.421 447.947 158.275 448.598 157.982C449.265 157.705 449.795 157.273 450.185 156.687C450.592 156.101 450.796 155.368 450.796 154.489V152.242C450.324 153.024 449.673 153.643 448.842 154.098C448.028 154.554 447.165 154.782 446.253 154.782ZM446.913 153.024C447.369 153.024 447.808 152.942 448.232 152.78C448.655 152.617 449.046 152.405 449.404 152.145C449.762 151.868 450.063 151.558 450.308 151.217C450.552 150.875 450.715 150.525 450.796 150.166V146.503C450.568 145.917 450.242 145.404 449.819 144.964C449.396 144.508 448.915 144.158 448.378 143.914C447.841 143.653 447.287 143.523 446.717 143.523C446.066 143.523 445.48 143.662 444.959 143.938C444.454 144.215 444.023 144.59 443.664 145.062C443.306 145.518 443.029 146.031 442.834 146.601C442.639 147.17 442.541 147.748 442.541 148.335C442.541 148.97 442.655 149.572 442.883 150.142C443.111 150.695 443.42 151.192 443.811 151.632C444.202 152.071 444.666 152.413 445.203 152.657C445.74 152.902 446.31 153.024 446.913 153.024Z" fill="#828282"/>
<path d="M157.812 156.048C158.155 155.849 158.595 155.967 158.793 156.311C158.991 156.654 158.874 157.094 158.53 157.292L157.812 156.048ZM163.677 138.898C163.574 139.281 163.18 139.508 162.797 139.406L156.552 137.732C156.169 137.63 155.942 137.236 156.044 136.853C156.147 136.469 156.541 136.242 156.924 136.345L162.475 137.832L163.962 132.281C164.065 131.898 164.459 131.671 164.842 131.773C165.225 131.876 165.453 132.27 165.35 132.653L163.677 138.898ZM145.384 134.522C139.44 137.954 137.403 145.555 140.835 151.499L139.591 152.217C135.762 145.586 138.034 137.106 144.665 133.278L145.384 134.522ZM140.835 151.499C144.267 157.443 151.868 159.48 157.812 156.048L158.53 157.292C151.899 161.121 143.419 158.848 139.591 152.217L140.835 151.499ZM162.361 139.071C158.929 133.127 151.328 131.09 145.384 134.522L144.665 133.278C151.297 129.449 159.776 131.721 163.605 138.353L162.361 139.071Z" fill="#828282"/>
<path d="M148.969 141.34L148.969 145.04C148.969 146.627 150.255 147.913 151.842 147.913L154.227 147.913" stroke="#828282" stroke-width="1.43665" stroke-linecap="round"/>
<path d="M192.711 219.185H194.567L201.65 236.525H199.305L197.254 231.445H189.976L187.948 236.525H185.604L192.711 219.185ZM196.765 229.735L193.639 221.725L190.415 229.735H196.765ZM210.485 236.769C209.443 236.769 208.515 236.509 207.701 235.988C206.887 235.467 206.244 234.807 205.771 234.009V241.727H203.622V223.776H205.527V226.17C206.032 225.388 206.691 224.761 207.505 224.289C208.32 223.8 209.207 223.556 210.168 223.556C211.047 223.556 211.853 223.735 212.585 224.094C213.318 224.452 213.953 224.94 214.49 225.559C215.028 226.178 215.443 226.886 215.736 227.684C216.045 228.465 216.2 229.288 216.2 230.15C216.2 231.355 215.956 232.463 215.467 233.472C214.995 234.482 214.328 235.287 213.465 235.89C212.602 236.476 211.609 236.769 210.485 236.769ZM209.826 234.913C210.461 234.913 211.03 234.783 211.535 234.522C212.056 234.245 212.496 233.887 212.854 233.448C213.229 232.992 213.514 232.479 213.709 231.909C213.904 231.339 214.002 230.753 214.002 230.15C214.002 229.515 213.888 228.913 213.66 228.343C213.448 227.773 213.139 227.269 212.732 226.829C212.341 226.389 211.877 226.047 211.34 225.803C210.819 225.543 210.249 225.412 209.63 225.412C209.239 225.412 208.832 225.486 208.409 225.632C208.002 225.779 207.611 225.99 207.237 226.267C206.862 226.528 206.545 226.829 206.284 227.171C206.024 227.513 205.853 227.879 205.771 228.27V231.909C206.016 232.463 206.341 232.967 206.748 233.423C207.155 233.879 207.628 234.245 208.165 234.522C208.702 234.783 209.256 234.913 209.826 234.913ZM225.702 236.769C224.66 236.769 223.732 236.509 222.918 235.988C222.103 235.467 221.46 234.807 220.988 234.009V241.727H218.839V223.776H220.744V226.17C221.249 225.388 221.908 224.761 222.722 224.289C223.536 223.8 224.424 223.556 225.384 223.556C226.264 223.556 227.069 223.735 227.802 224.094C228.535 224.452 229.17 224.94 229.707 225.559C230.244 226.178 230.66 226.886 230.953 227.684C231.262 228.465 231.417 229.288 231.417 230.15C231.417 231.355 231.173 232.463 230.684 233.472C230.212 234.482 229.544 235.287 228.681 235.89C227.818 236.476 226.825 236.769 225.702 236.769ZM225.042 234.913C225.677 234.913 226.247 234.783 226.752 234.522C227.273 234.245 227.713 233.887 228.071 233.448C228.445 232.992 228.73 232.479 228.926 231.909C229.121 231.339 229.219 230.753 229.219 230.15C229.219 229.515 229.105 228.913 228.877 228.343C228.665 227.773 228.356 227.269 227.949 226.829C227.558 226.389 227.094 226.047 226.557 225.803C226.036 225.543 225.466 225.412 224.847 225.412C224.456 225.412 224.049 225.486 223.626 225.632C223.219 225.779 222.828 225.99 222.454 226.267C222.079 226.528 221.762 226.829 221.501 227.171C221.24 227.513 221.07 227.879 220.988 228.27V231.909C221.232 232.463 221.558 232.967 221.965 233.423C222.372 233.879 222.844 234.245 223.382 234.522C223.919 234.783 224.472 234.913 225.042 234.913ZM240.796 225.657C239.722 225.673 238.769 225.95 237.939 226.487C237.125 227.008 236.547 227.733 236.205 228.661V236.525H234.056V223.776H236.058V226.731C236.498 225.852 237.076 225.144 237.792 224.606C238.525 224.053 239.29 223.743 240.088 223.678C240.251 223.678 240.389 223.678 240.503 223.678C240.617 223.678 240.715 223.687 240.796 223.703V225.657ZM248.186 236.769C247.226 236.769 246.355 236.598 245.573 236.256C244.792 235.898 244.116 235.418 243.546 234.815C242.976 234.197 242.537 233.488 242.227 232.69C241.918 231.893 241.763 231.054 241.763 230.175C241.763 229.279 241.918 228.433 242.227 227.635C242.537 226.837 242.976 226.137 243.546 225.535C244.116 224.916 244.792 224.435 245.573 224.094C246.371 223.735 247.242 223.556 248.186 223.556C249.147 223.556 250.018 223.735 250.8 224.094C251.581 224.435 252.257 224.916 252.827 225.535C253.413 226.137 253.861 226.837 254.17 227.635C254.479 228.433 254.634 229.279 254.634 230.175C254.634 231.054 254.479 231.893 254.17 232.69C253.861 233.488 253.421 234.197 252.851 234.815C252.281 235.418 251.598 235.898 250.8 236.256C250.018 236.598 249.147 236.769 248.186 236.769ZM243.961 230.199C243.961 231.079 244.149 231.876 244.523 232.593C244.914 233.309 245.427 233.879 246.062 234.302C246.697 234.709 247.405 234.913 248.186 234.913C248.968 234.913 249.676 234.701 250.311 234.278C250.963 233.855 251.475 233.285 251.85 232.568C252.241 231.836 252.436 231.03 252.436 230.15C252.436 229.271 252.241 228.473 251.85 227.757C251.475 227.041 250.963 226.471 250.311 226.047C249.676 225.624 248.968 225.412 248.186 225.412C247.405 225.412 246.697 225.632 246.062 226.072C245.427 226.495 244.914 227.065 244.523 227.781C244.149 228.498 243.961 229.304 243.961 230.199ZM260.473 236.525L255.466 223.776H257.713L261.718 234.473L265.724 223.776H267.824L262.817 236.525H260.473ZM269.975 236.525V223.776H272.124V236.525H269.975ZM269.975 221.383V218.696H272.124V221.383H269.975ZM286.667 236.525H284.518V229.393C284.518 228.042 284.306 227.057 283.883 226.438C283.476 225.803 282.849 225.486 282.002 225.486C281.416 225.486 280.83 225.632 280.244 225.925C279.674 226.218 279.161 226.617 278.705 227.122C278.266 227.61 277.948 228.18 277.753 228.832V236.525H275.603V223.776H277.557V226.511C277.899 225.909 278.339 225.388 278.876 224.948C279.413 224.509 280.024 224.167 280.708 223.923C281.392 223.678 282.108 223.556 282.857 223.556C283.59 223.556 284.2 223.695 284.689 223.971C285.194 224.232 285.584 224.606 285.861 225.095C286.154 225.567 286.358 226.129 286.472 226.78C286.602 227.431 286.667 228.14 286.667 228.905V236.525ZM295.089 236.671C294.226 236.671 293.428 236.5 292.696 236.159C291.979 235.8 291.361 235.32 290.84 234.718C290.319 234.099 289.912 233.399 289.618 232.617C289.342 231.836 289.203 231.022 289.203 230.175C289.203 229.279 289.342 228.433 289.618 227.635C289.912 226.837 290.319 226.137 290.84 225.535C291.377 224.916 292.004 224.435 292.72 224.094C293.437 223.735 294.234 223.556 295.114 223.556C296.172 223.556 297.092 223.817 297.873 224.338C298.671 224.859 299.339 225.518 299.876 226.316V223.776H301.781V236.378C301.781 237.583 301.488 238.601 300.902 239.431C300.332 240.262 299.551 240.888 298.557 241.312C297.58 241.751 296.49 241.971 295.285 241.971C293.852 241.971 292.68 241.719 291.768 241.214C290.856 240.709 290.099 240.026 289.496 239.163L290.742 238.064C291.247 238.813 291.898 239.374 292.696 239.749C293.51 240.123 294.373 240.31 295.285 240.31C296.066 240.31 296.783 240.164 297.434 239.871C298.101 239.594 298.631 239.163 299.021 238.576C299.428 237.99 299.632 237.258 299.632 236.378V234.131C299.16 234.913 298.508 235.532 297.678 235.988C296.864 236.443 296.001 236.671 295.089 236.671ZM295.749 234.913C296.205 234.913 296.644 234.832 297.068 234.669C297.491 234.506 297.882 234.294 298.24 234.034C298.598 233.757 298.899 233.448 299.143 233.106C299.388 232.764 299.551 232.414 299.632 232.055V228.392C299.404 227.806 299.078 227.293 298.655 226.853C298.232 226.397 297.751 226.047 297.214 225.803C296.677 225.543 296.123 225.412 295.553 225.412C294.902 225.412 294.316 225.551 293.795 225.828C293.29 226.104 292.859 226.479 292.5 226.951C292.142 227.407 291.865 227.92 291.67 228.49C291.475 229.06 291.377 229.638 291.377 230.224C291.377 230.859 291.491 231.461 291.719 232.031C291.947 232.585 292.256 233.081 292.647 233.521C293.038 233.96 293.502 234.302 294.039 234.547C294.576 234.791 295.146 234.913 295.749 234.913ZM311.427 236.525V223.776H313.576V236.525H311.427ZM311.427 221.383V218.696H313.576V221.383H311.427ZM328.12 236.525H325.97V229.393C325.97 228.042 325.759 227.057 325.335 226.438C324.928 225.803 324.301 225.486 323.455 225.486C322.869 225.486 322.282 225.632 321.696 225.925C321.126 226.218 320.614 226.617 320.158 227.122C319.718 227.61 319.401 228.18 319.205 228.832V236.525H317.056V223.776H319.01V226.511C319.352 225.909 319.791 225.388 320.329 224.948C320.866 224.509 321.476 224.167 322.16 223.923C322.844 223.678 323.561 223.556 324.31 223.556C325.042 223.556 325.653 223.695 326.141 223.971C326.646 224.232 327.037 224.606 327.314 225.095C327.607 225.567 327.81 226.129 327.924 226.78C328.054 227.431 328.12 228.14 328.12 228.905V236.525ZM344.184 236.769C343.191 236.769 342.288 236.525 341.473 236.036C340.659 235.548 340.016 234.913 339.544 234.131V236.525H337.639V218.696H339.788V226.316C340.326 225.486 340.985 224.818 341.767 224.313C342.548 223.809 343.46 223.556 344.502 223.556C345.381 223.556 346.171 223.743 346.871 224.118C347.571 224.476 348.165 224.973 348.654 225.608C349.159 226.227 349.541 226.935 349.802 227.733C350.079 228.514 350.217 229.336 350.217 230.199C350.217 231.095 350.062 231.942 349.753 232.739C349.46 233.521 349.036 234.221 348.483 234.84C347.929 235.442 347.286 235.914 346.553 236.256C345.837 236.598 345.047 236.769 344.184 236.769ZM343.647 234.913C344.282 234.913 344.868 234.783 345.406 234.522C345.943 234.262 346.407 233.912 346.798 233.472C347.188 233.032 347.49 232.528 347.701 231.958C347.913 231.388 348.019 230.802 348.019 230.199C348.019 229.369 347.84 228.587 347.482 227.855C347.14 227.122 346.651 226.536 346.016 226.096C345.397 225.64 344.673 225.412 343.842 225.412C343.24 225.412 342.678 225.551 342.157 225.828C341.636 226.104 341.172 226.471 340.765 226.927C340.374 227.366 340.049 227.855 339.788 228.392V232.08C339.87 232.487 340.041 232.861 340.301 233.203C340.562 233.545 340.879 233.847 341.254 234.107C341.628 234.351 342.019 234.547 342.426 234.693C342.849 234.84 343.256 234.913 343.647 234.913ZM352.905 218.696H355.054V233.228C355.054 233.928 355.152 234.359 355.347 234.522C355.542 234.685 355.778 234.766 356.055 234.766C356.397 234.766 356.723 234.734 357.032 234.669C357.341 234.587 357.602 234.506 357.814 234.425L358.156 236.183C357.797 236.33 357.374 236.452 356.886 236.549C356.397 236.647 355.966 236.696 355.591 236.696C354.761 236.696 354.101 236.46 353.613 235.988C353.141 235.515 352.905 234.856 352.905 234.009V218.696ZM365.412 236.769C364.452 236.769 363.581 236.598 362.799 236.256C362.018 235.898 361.342 235.418 360.772 234.815C360.202 234.197 359.763 233.488 359.453 232.69C359.144 231.893 358.989 231.054 358.989 230.175C358.989 229.279 359.144 228.433 359.453 227.635C359.763 226.837 360.202 226.137 360.772 225.535C361.342 224.916 362.018 224.435 362.799 224.094C363.597 223.735 364.468 223.556 365.412 223.556C366.373 223.556 367.244 223.735 368.026 224.094C368.807 224.435 369.483 224.916 370.053 225.535C370.639 226.137 371.087 226.837 371.396 227.635C371.705 228.433 371.86 229.279 371.86 230.175C371.86 231.054 371.705 231.893 371.396 232.69C371.087 233.488 370.647 234.197 370.077 234.815C369.507 235.418 368.824 235.898 368.026 236.256C367.244 236.598 366.373 236.769 365.412 236.769ZM361.187 230.199C361.187 231.079 361.374 231.876 361.749 232.593C362.14 233.309 362.653 233.879 363.288 234.302C363.923 234.709 364.631 234.913 365.412 234.913C366.194 234.913 366.902 234.701 367.537 234.278C368.189 233.855 368.701 233.285 369.076 232.568C369.467 231.836 369.662 231.03 369.662 230.15C369.662 229.271 369.467 228.473 369.076 227.757C368.701 227.041 368.189 226.471 367.537 226.047C366.902 225.624 366.194 225.412 365.412 225.412C364.631 225.412 363.923 225.632 363.288 226.072C362.653 226.495 362.14 227.065 361.749 227.781C361.374 228.498 361.187 229.304 361.187 230.199ZM380.106 236.769C379.146 236.769 378.266 236.598 377.468 236.256C376.687 235.898 376.003 235.41 375.417 234.791C374.847 234.172 374.399 233.464 374.074 232.666C373.764 231.868 373.61 231.022 373.61 230.126C373.61 228.921 373.878 227.822 374.416 226.829C374.953 225.836 375.71 225.046 376.687 224.46C377.664 223.857 378.795 223.556 380.082 223.556C381.335 223.556 382.426 223.841 383.354 224.411C384.299 224.965 384.999 225.714 385.455 226.658L383.354 227.317C383.029 226.715 382.573 226.251 381.987 225.925C381.401 225.583 380.749 225.412 380.033 225.412C379.251 225.412 378.535 225.616 377.884 226.023C377.249 226.43 376.744 226.992 376.369 227.708C375.995 228.408 375.808 229.214 375.808 230.126C375.808 231.022 375.995 231.836 376.369 232.568C376.76 233.285 377.273 233.855 377.908 234.278C378.559 234.701 379.276 234.913 380.057 234.913C380.562 234.913 381.042 234.823 381.498 234.644C381.97 234.465 382.378 234.229 382.719 233.936C383.078 233.627 383.322 233.293 383.452 232.935L385.553 233.57C385.292 234.188 384.893 234.742 384.356 235.23C383.835 235.703 383.208 236.077 382.475 236.354C381.759 236.631 380.969 236.769 380.106 236.769ZM396.975 236.525L392.555 230.321L390.137 232.593V236.525H387.988V218.696H390.137V230.346L396.731 223.8H399.051L393.971 229.076L399.296 236.525H396.975ZM406.127 236.769C405.167 236.769 404.287 236.598 403.49 236.256C402.708 235.898 402.024 235.41 401.438 234.791C400.868 234.172 400.42 233.464 400.095 232.666C399.785 231.868 399.631 231.022 399.631 230.126C399.631 228.921 399.899 227.822 400.437 226.829C400.974 225.836 401.731 225.046 402.708 224.46C403.685 223.857 404.817 223.556 406.103 223.556C407.357 223.556 408.447 223.841 409.376 224.411C410.32 224.965 411.02 225.714 411.476 226.658L409.376 227.317C409.05 226.715 408.594 226.251 408.008 225.925C407.422 225.583 406.77 225.412 406.054 225.412C405.272 225.412 404.556 225.616 403.905 226.023C403.27 226.43 402.765 226.992 402.391 227.708C402.016 228.408 401.829 229.214 401.829 230.126C401.829 231.022 402.016 231.836 402.391 232.568C402.781 233.285 403.294 233.855 403.929 234.278C404.58 234.701 405.297 234.913 406.078 234.913C406.583 234.913 407.063 234.823 407.519 234.644C407.992 234.465 408.399 234.229 408.741 233.936C409.099 233.627 409.343 233.293 409.473 232.935L411.574 233.57C411.313 234.188 410.914 234.742 410.377 235.23C409.856 235.703 409.229 236.077 408.496 236.354C407.78 236.631 406.99 236.769 406.127 236.769ZM425.072 236.525H422.923V229.393C422.923 228.091 422.687 227.114 422.215 226.463C421.759 225.811 421.1 225.486 420.237 225.486C419.683 225.486 419.121 225.632 418.552 225.925C417.998 226.218 417.509 226.617 417.086 227.122C416.663 227.61 416.353 228.18 416.158 228.832V236.525H414.009V218.696H416.158V226.511C416.663 225.6 417.347 224.883 418.21 224.362C419.089 223.825 420.033 223.556 421.043 223.556C421.808 223.556 422.443 223.695 422.948 223.971C423.469 224.232 423.884 224.606 424.193 225.095C424.503 225.583 424.722 226.153 424.853 226.805C424.999 227.44 425.072 228.14 425.072 228.905V236.525ZM427.413 232.837C427.413 232.023 427.641 231.323 428.097 230.737C428.569 230.134 429.212 229.67 430.027 229.345C430.841 229.019 431.785 228.856 432.86 228.856C433.429 228.856 434.032 228.905 434.667 229.003C435.302 229.084 435.864 229.214 436.352 229.393V228.465C436.352 227.488 436.059 226.723 435.473 226.17C434.887 225.6 434.056 225.315 432.982 225.315C432.282 225.315 431.606 225.445 430.955 225.705C430.32 225.95 429.644 226.308 428.928 226.78L428.146 225.266C428.976 224.696 429.807 224.273 430.637 223.996C431.468 223.703 432.33 223.556 433.226 223.556C434.854 223.556 436.14 224.012 437.085 224.924C438.029 225.819 438.501 227.073 438.501 228.685V234.083C438.501 234.343 438.55 234.538 438.648 234.669C438.762 234.783 438.941 234.848 439.185 234.864V236.525C438.974 236.557 438.786 236.582 438.623 236.598C438.477 236.614 438.355 236.623 438.257 236.623C437.752 236.623 437.37 236.484 437.109 236.207C436.865 235.931 436.727 235.638 436.694 235.328L436.645 234.522C436.092 235.239 435.367 235.792 434.472 236.183C433.576 236.574 432.689 236.769 431.809 236.769C430.963 236.769 430.206 236.598 429.538 236.256C428.871 235.898 428.349 235.426 427.975 234.84C427.601 234.237 427.413 233.57 427.413 232.837ZM435.717 233.741C435.913 233.513 436.067 233.285 436.181 233.057C436.295 232.813 436.352 232.609 436.352 232.446V230.859C435.847 230.663 435.318 230.517 434.765 230.419C434.211 230.305 433.666 230.248 433.128 230.248C432.037 230.248 431.15 230.468 430.466 230.908C429.799 231.331 429.465 231.917 429.465 232.666C429.465 233.073 429.571 233.472 429.782 233.863C430.01 234.237 430.336 234.547 430.759 234.791C431.199 235.035 431.736 235.157 432.371 235.157C433.039 235.157 433.674 235.027 434.276 234.766C434.879 234.49 435.359 234.148 435.717 233.741ZM441.938 236.525V223.776H444.087V236.525H441.938ZM441.938 221.383V218.696H444.087V221.383H441.938ZM458.63 236.525H456.481V229.393C456.481 228.042 456.269 227.057 455.846 226.438C455.439 225.803 454.812 225.486 453.966 225.486C453.379 225.486 452.793 225.632 452.207 225.925C451.637 226.218 451.124 226.617 450.668 227.122C450.229 227.61 449.911 228.18 449.716 228.832V236.525H447.567V223.776H449.521V226.511C449.862 225.909 450.302 225.388 450.839 224.948C451.377 224.509 451.987 224.167 452.671 223.923C453.355 223.678 454.071 223.556 454.82 223.556C455.553 223.556 456.164 223.695 456.652 223.971C457.157 224.232 457.548 224.606 457.824 225.095C458.117 225.567 458.321 226.129 458.435 226.78C458.565 227.431 458.63 228.14 458.63 228.905V236.525Z" fill="#828282"/>
<path d="M133.144 232.988L132.064 233.582C129.843 234.802 126.998 234.189 125.461 232.159V232.159C123.658 229.776 124.37 226.441 126.985 225.025L135.696 220.307C138.14 218.984 141.269 220.018 142.431 222.533V222.533C143.337 224.495 142.753 226.778 141.017 228.059L139.47 229.2" stroke="#828282" stroke-width="1.43665" stroke-linecap="round"/>
<path d="M145.147 221.249L146.211 220.641C148.414 219.384 151.272 219.951 152.844 221.958V221.958C154.688 224.311 154.03 227.657 151.437 229.116L142.819 233.965C140.395 235.329 137.247 234.346 136.042 231.849V231.849C135.102 229.902 135.648 227.609 137.363 226.3L138.887 225.136" stroke="#828282" stroke-width="1.43665" stroke-linecap="round"/>
<path d="M258.631 311.058C258.631 310 258.811 308.966 259.169 307.957C259.543 306.931 260.081 306.003 260.781 305.172C261.497 304.326 262.368 303.658 263.394 303.17C264.42 302.665 265.584 302.413 266.886 302.413C268.433 302.413 269.76 302.771 270.867 303.487C271.975 304.187 272.797 305.091 273.334 306.198L271.6 307.322C271.258 306.589 270.819 306.011 270.281 305.588C269.76 305.148 269.19 304.839 268.572 304.659C267.969 304.48 267.375 304.391 266.789 304.391C265.828 304.391 264.973 304.586 264.224 304.977C263.492 305.368 262.873 305.889 262.368 306.54C261.863 307.191 261.481 307.924 261.22 308.738C260.976 309.536 260.854 310.342 260.854 311.156C260.854 312.051 261 312.914 261.294 313.745C261.603 314.575 262.026 315.308 262.564 315.943C263.101 316.578 263.736 317.083 264.469 317.457C265.201 317.832 265.999 318.019 266.862 318.019C267.464 318.019 268.083 317.913 268.718 317.701C269.353 317.49 269.947 317.164 270.501 316.724C271.055 316.269 271.494 315.682 271.82 314.966L273.652 315.967C273.293 316.83 272.74 317.563 271.991 318.165C271.242 318.768 270.403 319.224 269.475 319.533C268.564 319.842 267.66 319.997 266.764 319.997C265.576 319.997 264.485 319.745 263.492 319.24C262.498 318.719 261.635 318.035 260.903 317.188C260.186 316.326 259.625 315.365 259.218 314.307C258.827 313.232 258.631 312.149 258.631 311.058ZM281.629 320.095C280.669 320.095 279.797 319.924 279.016 319.582C278.234 319.224 277.559 318.743 276.989 318.141C276.419 317.522 275.979 316.814 275.67 316.016C275.361 315.218 275.206 314.38 275.206 313.501C275.206 312.605 275.361 311.758 275.67 310.961C275.979 310.163 276.419 309.463 276.989 308.86C277.559 308.241 278.234 307.761 279.016 307.419C279.814 307.061 280.685 306.882 281.629 306.882C282.59 306.882 283.461 307.061 284.242 307.419C285.024 307.761 285.7 308.241 286.27 308.86C286.856 309.463 287.304 310.163 287.613 310.961C287.922 311.758 288.077 312.605 288.077 313.501C288.077 314.38 287.922 315.218 287.613 316.016C287.304 316.814 286.864 317.522 286.294 318.141C285.724 318.743 285.04 319.224 284.242 319.582C283.461 319.924 282.59 320.095 281.629 320.095ZM277.404 313.525C277.404 314.404 277.591 315.202 277.966 315.918C278.357 316.635 278.869 317.205 279.504 317.628C280.139 318.035 280.848 318.239 281.629 318.239C282.411 318.239 283.119 318.027 283.754 317.604C284.405 317.18 284.918 316.61 285.293 315.894C285.683 315.161 285.879 314.355 285.879 313.476C285.879 312.597 285.683 311.799 285.293 311.083C284.918 310.366 284.405 309.796 283.754 309.373C283.119 308.95 282.411 308.738 281.629 308.738C280.848 308.738 280.139 308.958 279.504 309.398C278.869 309.821 278.357 310.391 277.966 311.107C277.591 311.824 277.404 312.629 277.404 313.525ZM309.902 319.851H307.753V312.719C307.753 311.384 307.533 310.399 307.094 309.764C306.67 309.129 306.035 308.811 305.189 308.811C304.326 308.811 303.544 309.129 302.844 309.764C302.144 310.383 301.647 311.189 301.354 312.182V319.851H299.205V312.719C299.205 311.368 298.993 310.383 298.57 309.764C298.147 309.129 297.512 308.811 296.665 308.811C295.818 308.811 295.037 309.121 294.32 309.739C293.62 310.342 293.124 311.148 292.83 312.157V319.851H290.681V307.102H292.635V309.837C293.156 308.893 293.832 308.168 294.662 307.663C295.493 307.142 296.429 306.882 297.471 306.882C298.529 306.882 299.376 307.175 300.011 307.761C300.646 308.331 301.037 309.072 301.183 309.984C301.753 308.974 302.445 308.209 303.259 307.688C304.073 307.151 305.001 306.882 306.043 306.882C306.776 306.882 307.387 307.02 307.875 307.297C308.38 307.558 308.779 307.932 309.072 308.421C309.365 308.893 309.577 309.454 309.707 310.106C309.837 310.757 309.902 311.465 309.902 312.231V319.851ZM320.107 320.095C319.065 320.095 318.137 319.834 317.323 319.313C316.508 318.792 315.865 318.133 315.393 317.335V325.053H313.244V307.102H315.149V309.495C315.654 308.714 316.313 308.087 317.127 307.615C317.941 307.126 318.829 306.882 319.789 306.882C320.669 306.882 321.475 307.061 322.207 307.419C322.94 307.777 323.575 308.266 324.112 308.885C324.65 309.503 325.065 310.212 325.358 311.009C325.667 311.791 325.822 312.613 325.822 313.476C325.822 314.681 325.578 315.788 325.089 316.798C324.617 317.807 323.949 318.613 323.086 319.216C322.223 319.802 321.23 320.095 320.107 320.095ZM319.447 318.239C320.082 318.239 320.652 318.108 321.157 317.848C321.678 317.571 322.118 317.213 322.476 316.773C322.85 316.317 323.135 315.804 323.331 315.235C323.526 314.665 323.624 314.079 323.624 313.476C323.624 312.841 323.51 312.239 323.282 311.669C323.07 311.099 322.761 310.594 322.354 310.155C321.963 309.715 321.499 309.373 320.962 309.129C320.441 308.868 319.871 308.738 319.252 308.738C318.861 308.738 318.454 308.811 318.031 308.958C317.624 309.104 317.233 309.316 316.859 309.593C316.484 309.853 316.167 310.155 315.906 310.497C315.646 310.838 315.475 311.205 315.393 311.596V315.235C315.637 315.788 315.963 316.293 316.37 316.749C316.777 317.205 317.249 317.571 317.787 317.848C318.324 318.108 318.878 318.239 319.447 318.239ZM328.51 302.022H330.659V316.553C330.659 317.254 330.756 317.685 330.952 317.848C331.147 318.011 331.383 318.092 331.66 318.092C332.002 318.092 332.328 318.06 332.637 317.994C332.946 317.913 333.207 317.832 333.419 317.75L333.76 319.509C333.402 319.655 332.979 319.777 332.49 319.875C332.002 319.973 331.571 320.022 331.196 320.022C330.366 320.022 329.706 319.785 329.218 319.313C328.746 318.841 328.51 318.182 328.51 317.335V302.022ZM341.091 320.095C340.13 320.095 339.251 319.924 338.453 319.582C337.671 319.224 336.988 318.743 336.401 318.141C335.832 317.522 335.384 316.814 335.058 316.016C334.749 315.218 334.594 314.372 334.594 313.476C334.594 312.271 334.871 311.172 335.424 310.179C335.978 309.186 336.743 308.388 337.72 307.786C338.713 307.183 339.845 306.882 341.115 306.882C342.401 306.882 343.517 307.191 344.461 307.81C345.422 308.412 346.162 309.21 346.684 310.203C347.221 311.18 347.489 312.239 347.489 313.378C347.489 313.541 347.481 313.704 347.465 313.867C347.465 314.013 347.457 314.127 347.441 314.209H336.865C336.931 315.039 337.159 315.78 337.549 316.431C337.956 317.066 338.477 317.571 339.112 317.946C339.747 318.304 340.431 318.483 341.164 318.483C341.945 318.483 342.678 318.288 343.362 317.897C344.062 317.506 344.542 316.993 344.803 316.358L346.659 316.871C346.382 317.49 345.967 318.043 345.414 318.532C344.876 319.02 344.233 319.403 343.484 319.68C342.751 319.956 341.954 320.095 341.091 320.095ZM336.792 312.719H345.487C345.422 311.889 345.186 311.156 344.779 310.521C344.371 309.886 343.85 309.389 343.215 309.031C342.58 308.673 341.88 308.494 341.115 308.494C340.366 308.494 339.674 308.673 339.039 309.031C338.404 309.389 337.883 309.886 337.476 310.521C337.085 311.156 336.857 311.889 336.792 312.719ZM356.354 319.216C356.174 319.297 355.93 319.403 355.621 319.533C355.311 319.663 354.953 319.777 354.546 319.875C354.139 319.973 353.708 320.022 353.252 320.022C352.731 320.022 352.25 319.932 351.811 319.753C351.371 319.558 351.021 319.264 350.761 318.874C350.5 318.467 350.37 317.962 350.37 317.359V308.787H348.636V307.102H350.37V302.852H352.519V307.102H355.377V308.787H352.519V316.7C352.552 317.156 352.706 317.498 352.983 317.726C353.26 317.937 353.586 318.043 353.96 318.043C354.383 318.043 354.774 317.97 355.132 317.823C355.491 317.677 355.727 317.571 355.841 317.506L356.354 319.216ZM363.82 320.095C362.86 320.095 361.98 319.924 361.183 319.582C360.401 319.224 359.717 318.743 359.131 318.141C358.561 317.522 358.113 316.814 357.788 316.016C357.478 315.218 357.324 314.372 357.324 313.476C357.324 312.271 357.601 311.172 358.154 310.179C358.708 309.186 359.473 308.388 360.45 307.786C361.443 307.183 362.575 306.882 363.845 306.882C365.131 306.882 366.246 307.191 367.191 307.81C368.151 308.412 368.892 309.21 369.413 310.203C369.95 311.18 370.219 312.239 370.219 313.378C370.219 313.541 370.211 313.704 370.195 313.867C370.195 314.013 370.187 314.127 370.17 314.209H359.595C359.66 315.039 359.888 315.78 360.279 316.431C360.686 317.066 361.207 317.571 361.842 317.946C362.477 318.304 363.161 318.483 363.894 318.483C364.675 318.483 365.408 318.288 366.092 317.897C366.792 317.506 367.272 316.993 367.533 316.358L369.389 316.871C369.112 317.49 368.697 318.043 368.143 318.532C367.606 319.02 366.963 319.403 366.214 319.68C365.481 319.956 364.683 320.095 363.82 320.095ZM359.522 312.719H368.216C368.151 311.889 367.915 311.156 367.508 310.521C367.101 309.886 366.58 309.389 365.945 309.031C365.31 308.673 364.61 308.494 363.845 308.494C363.096 308.494 362.404 308.673 361.769 309.031C361.134 309.389 360.613 309.886 360.206 310.521C359.815 311.156 359.587 311.889 359.522 312.719Z" fill="white"/>
<path d="M207.27 311.891L214.153 320.257C214.763 320.998 215.896 320.908 216.411 320.076L230.776 296.865" stroke="#22E16E" stroke-width="1.43665" stroke-linecap="round"/>
</svg>
