<svg width="584" height="371" viewBox="0 0 584 371" fill="none" xmlns="http://www.w3.org/2000/svg">
<path d="M0 0H583.75V371H0V0Z" fill="#FFFFFF"/>
<path d="M258.047 61.0809C257.863 60.8659 257.617 60.6587 257.31 60.4591C257.003 60.2595 256.658 60.0829 256.274 59.9294C255.89 59.7605 255.468 59.63 255.007 59.5379C254.562 59.4305 254.094 59.3767 253.603 59.3767C252.344 59.3767 251.415 59.6147 250.816 60.0906C250.217 60.5665 249.918 61.219 249.918 62.0481C249.918 62.6315 250.072 63.092 250.379 63.4298C250.686 63.7675 251.154 64.0439 251.783 64.2588C252.428 64.4738 253.242 64.6964 254.224 64.9267C255.36 65.1723 256.343 65.4717 257.172 65.8248C258.001 66.1779 258.638 66.6538 259.083 67.2526C259.529 67.836 259.751 68.6189 259.751 69.6015C259.751 70.3845 259.598 71.0677 259.291 71.6511C258.999 72.2191 258.584 72.695 258.047 73.0788C257.51 73.4473 256.88 73.7237 256.159 73.9079C255.437 74.0768 254.654 74.1612 253.81 74.1612C252.981 74.1612 252.167 74.0768 251.369 73.9079C250.586 73.7237 249.841 73.4627 249.135 73.1249C248.429 72.7872 247.769 72.365 247.155 71.8583L248.145 70.1081C248.39 70.3691 248.705 70.6301 249.089 70.8911C249.488 71.1368 249.933 71.367 250.425 71.582C250.931 71.7969 251.476 71.9735 252.06 72.1116C252.643 72.2345 253.242 72.2959 253.856 72.2959C255.023 72.2959 255.928 72.0886 256.573 71.6741C257.218 71.2442 257.541 70.6224 257.541 69.8088C257.541 69.1947 257.356 68.7034 256.988 68.3349C256.635 67.9665 256.105 67.6594 255.399 67.4138C254.693 67.1681 253.833 66.9225 252.82 66.6768C251.714 66.4005 250.785 66.1011 250.033 65.7787C249.281 65.441 248.713 65.0034 248.329 64.4661C247.961 63.9287 247.776 63.2302 247.776 62.3705C247.776 61.3265 248.03 60.4437 248.536 59.7222C249.043 59.0006 249.741 58.4556 250.632 58.0871C251.522 57.7187 252.528 57.5344 253.649 57.5344C254.386 57.5344 255.069 57.6112 255.698 57.7647C256.343 57.9182 256.942 58.1332 257.494 58.4095C258.047 58.6859 258.554 59.0159 259.014 59.3998L258.047 61.0809ZM268.148 73.4013C267.979 73.478 267.749 73.5778 267.457 73.7006C267.165 73.8234 266.827 73.9309 266.444 74.023C266.06 74.1151 265.653 74.1612 265.223 74.1612C264.732 74.1612 264.279 74.0768 263.864 73.9079C263.45 73.7237 263.12 73.4473 262.874 73.0788C262.629 72.695 262.506 72.2191 262.506 71.6511V63.568H260.871V61.979H262.506V57.972H264.532V61.979H267.227V63.568H264.532V71.0293C264.563 71.4592 264.709 71.7816 264.97 71.9965C265.231 72.1961 265.538 72.2959 265.891 72.2959C266.29 72.2959 266.659 72.2268 266.996 72.0886C267.334 71.9504 267.557 71.8506 267.664 71.7892L268.148 73.4013ZM269.082 70.5227C269.082 69.755 269.297 69.0949 269.727 68.5422C270.172 67.9741 270.778 67.5366 271.546 67.2295C272.314 66.9225 273.204 66.769 274.217 66.769C274.755 66.769 275.323 66.815 275.921 66.9071C276.52 66.9839 277.05 67.1067 277.51 67.2756V66.4005C277.51 65.4794 277.234 64.7578 276.681 64.2358C276.129 63.6985 275.346 63.4298 274.332 63.4298C273.672 63.4298 273.035 63.5526 272.421 63.7982C271.822 64.0285 271.185 64.3663 270.51 64.8115L269.773 63.3837C270.556 62.8464 271.339 62.4472 272.122 62.1862C272.905 61.9099 273.718 61.7717 274.563 61.7717C276.098 61.7717 277.311 62.2016 278.201 63.0613C279.092 63.9057 279.537 65.0879 279.537 66.6078V71.6971C279.537 71.9428 279.583 72.127 279.675 72.2498C279.783 72.3573 279.951 72.4187 280.182 72.434V74C279.982 74.0307 279.806 74.0537 279.652 74.0691C279.514 74.0844 279.399 74.0921 279.307 74.0921C278.831 74.0921 278.47 73.9616 278.224 73.7006C277.994 73.4396 277.864 73.1633 277.833 72.8716L277.787 72.1116C277.265 72.7872 276.582 73.3091 275.737 73.6776C274.893 74.0461 274.056 74.2303 273.227 74.2303C272.429 74.2303 271.715 74.0691 271.085 73.7467C270.456 73.4089 269.965 72.9637 269.612 72.411C269.258 71.843 269.082 71.2135 269.082 70.5227ZM276.912 71.3747C277.096 71.1598 277.242 70.9448 277.349 70.7299C277.457 70.4996 277.51 70.3077 277.51 70.1542V68.6573C277.034 68.4731 276.536 68.3349 276.014 68.2428C275.492 68.1353 274.977 68.0816 274.471 68.0816C273.442 68.0816 272.605 68.2889 271.96 68.7034C271.331 69.1025 271.016 69.6552 271.016 70.3615C271.016 70.7453 271.116 71.1214 271.316 71.4899C271.531 71.843 271.838 72.1347 272.237 72.365C272.651 72.5952 273.158 72.7104 273.757 72.7104C274.386 72.7104 274.985 72.5876 275.553 72.3419C276.121 72.0809 276.574 71.7585 276.912 71.3747ZM289.133 63.7522C288.12 63.7675 287.222 64.0285 286.439 64.5352C285.671 65.0265 285.126 65.7096 284.804 66.5847V74H282.777V61.979H284.666V64.7655C285.08 63.9364 285.625 63.2686 286.301 62.762C286.992 62.24 287.713 61.9483 288.465 61.8869C288.619 61.8869 288.749 61.8869 288.857 61.8869C288.964 61.8869 289.057 61.8945 289.133 61.9099V63.7522ZM297.361 73.4013C297.192 73.478 296.962 73.5778 296.67 73.7006C296.378 73.8234 296.041 73.9309 295.657 74.023C295.273 74.1151 294.866 74.1612 294.436 74.1612C293.945 74.1612 293.492 74.0768 293.078 73.9079C292.663 73.7237 292.333 73.4473 292.087 73.0788C291.842 72.695 291.719 72.2191 291.719 71.6511V63.568H290.084V61.979H291.719V57.972H293.746V61.979H296.44V63.568H293.746V71.0293C293.776 71.4592 293.922 71.7816 294.183 71.9965C294.444 72.1961 294.751 72.2959 295.104 72.2959C295.503 72.2959 295.872 72.2268 296.21 72.0886C296.547 71.9504 296.77 71.8506 296.877 71.7892L297.361 73.4013ZM299.239 74V61.979H301.266V74H299.239ZM299.239 59.7222V57.189H301.266V59.7222H299.239ZM314.979 74H312.952V67.2756C312.952 66.0013 312.753 65.0725 312.354 64.4891C311.97 63.8904 311.379 63.591 310.58 63.591C310.028 63.591 309.475 63.7292 308.922 64.0055C308.385 64.2819 307.901 64.658 307.471 65.1339C307.057 65.5945 306.758 66.1318 306.573 66.7459V74H304.547V61.979H306.389V64.5582C306.711 63.9902 307.126 63.4989 307.633 63.0844C308.139 62.6698 308.715 62.3474 309.36 62.1171C310.005 61.8869 310.68 61.7717 311.386 61.7717C312.077 61.7717 312.653 61.9022 313.113 62.1632C313.589 62.4088 313.958 62.762 314.219 63.2225C314.495 63.6678 314.687 64.1974 314.795 64.8115C314.917 65.4256 314.979 66.0935 314.979 66.815V74ZM322.92 74.1382C322.106 74.1382 321.354 73.977 320.663 73.6546C319.988 73.3168 319.404 72.8639 318.913 72.2959C318.422 71.7125 318.038 71.0523 317.762 70.3154C317.501 69.5785 317.37 68.8108 317.37 68.0125C317.37 67.1681 317.501 66.3698 317.762 65.6175C318.038 64.8652 318.422 64.2051 318.913 63.637C319.42 63.0537 320.011 62.6008 320.686 62.2783C321.362 61.9406 322.114 61.7717 322.943 61.7717C323.941 61.7717 324.808 62.0174 325.545 62.5086C326.298 62.9999 326.927 63.6217 327.434 64.374V61.979H329.23V73.8618C329.23 74.9979 328.954 75.9574 328.401 76.7404C327.864 77.5234 327.127 78.1145 326.19 78.5136C325.269 78.9282 324.24 79.1354 323.104 79.1354C321.753 79.1354 320.648 78.8975 319.788 78.4215C318.928 77.9456 318.215 77.3008 317.647 76.4871L318.821 75.4508C319.297 76.157 319.911 76.6867 320.663 77.0398C321.431 77.3929 322.245 77.5695 323.104 77.5695C323.841 77.5695 324.517 77.4313 325.131 77.1549C325.76 76.894 326.259 76.4871 326.628 75.9344C327.012 75.3817 327.203 74.6909 327.203 73.8618V71.7432C326.758 72.4801 326.144 73.0635 325.361 73.4934C324.594 73.9232 323.78 74.1382 322.92 74.1382ZM323.542 72.4801C323.972 72.4801 324.386 72.4033 324.785 72.2498C325.185 72.0963 325.553 71.8967 325.891 71.6511C326.229 71.3901 326.513 71.0984 326.743 70.776C326.973 70.4536 327.127 70.1235 327.203 69.7857V66.3314C326.989 65.7787 326.681 65.2951 326.282 64.8806C325.883 64.4507 325.43 64.1207 324.924 63.8904C324.417 63.6447 323.895 63.5219 323.358 63.5219C322.744 63.5219 322.191 63.6524 321.7 63.9134C321.224 64.1744 320.817 64.5275 320.479 64.9727C320.141 65.4026 319.88 65.8862 319.696 66.4235C319.512 66.9609 319.42 67.5059 319.42 68.0586C319.42 68.6573 319.527 69.2254 319.742 69.7627C319.957 70.2847 320.249 70.7529 320.617 71.1675C320.986 71.582 321.423 71.9044 321.93 72.1347C322.437 72.365 322.974 72.4801 323.542 72.4801ZM348.251 61.0809C348.066 60.8659 347.821 60.6587 347.514 60.4591C347.207 60.2595 346.861 60.0829 346.477 59.9294C346.094 59.7605 345.671 59.63 345.211 59.5379C344.766 59.4305 344.297 59.3767 343.806 59.3767C342.547 59.3767 341.618 59.6147 341.02 60.0906C340.421 60.5665 340.122 61.219 340.122 62.0481C340.122 62.6315 340.275 63.092 340.582 63.4298C340.889 63.7675 341.357 64.0439 341.987 64.2588C342.632 64.4738 343.445 64.6964 344.428 64.9267C345.564 65.1723 346.547 65.4717 347.376 65.8248C348.205 66.1779 348.842 66.6538 349.287 67.2526C349.732 67.836 349.955 68.6189 349.955 69.6015C349.955 70.3845 349.801 71.0677 349.494 71.6511C349.203 72.2191 348.788 72.695 348.251 73.0788C347.713 73.4473 347.084 73.7237 346.362 73.9079C345.641 74.0768 344.858 74.1612 344.013 74.1612C343.184 74.1612 342.371 74.0768 341.572 73.9079C340.789 73.7237 340.045 73.4627 339.339 73.1249C338.632 72.7872 337.972 72.365 337.358 71.8583L338.348 70.1081C338.594 70.3691 338.909 70.6301 339.293 70.8911C339.692 71.1368 340.137 71.367 340.628 71.582C341.135 71.7969 341.68 71.9735 342.263 72.1116C342.847 72.2345 343.445 72.2959 344.059 72.2959C345.226 72.2959 346.132 72.0886 346.777 71.6741C347.422 71.2442 347.744 70.6224 347.744 69.8088C347.744 69.1947 347.56 68.7034 347.191 68.3349C346.838 67.9665 346.309 67.6594 345.602 67.4138C344.896 67.1681 344.036 66.9225 343.023 66.6768C341.918 66.4005 340.989 66.1011 340.237 65.7787C339.484 65.441 338.916 65.0034 338.533 64.4661C338.164 63.9287 337.98 63.2302 337.98 62.3705C337.98 61.3265 338.233 60.4437 338.74 59.7222C339.246 59.0006 339.945 58.4556 340.835 58.0871C341.726 57.7187 342.731 57.5344 343.852 57.5344C344.589 57.5344 345.272 57.6112 345.902 57.7647C346.547 57.9182 347.145 58.1332 347.698 58.4095C348.251 58.6859 348.757 59.0159 349.218 59.3998L348.251 61.0809ZM367.059 61.979H369.017L363.905 74H362.131L359.805 68.3349L357.503 74H355.729L350.617 61.979H352.551L356.697 71.9965L358.631 67.0683L356.604 62.002H358.378L359.805 65.8248L361.233 62.002H363.006L361.003 67.0683L362.937 71.9965L367.059 61.979ZM369.675 70.5227C369.675 69.755 369.89 69.0949 370.32 68.5422C370.765 67.9741 371.372 67.5366 372.139 67.2295C372.907 66.9225 373.798 66.769 374.811 66.769C375.348 66.769 375.916 66.815 376.515 66.9071C377.114 66.9839 377.643 67.1067 378.104 67.2756V66.4005C378.104 65.4794 377.828 64.7578 377.275 64.2358C376.722 63.6985 375.939 63.4298 374.926 63.4298C374.266 63.4298 373.629 63.5526 373.015 63.7982C372.416 64.0285 371.779 64.3663 371.103 64.8115L370.366 63.3837C371.149 62.8464 371.932 62.4472 372.715 62.1862C373.498 61.9099 374.312 61.7717 375.156 61.7717C376.691 61.7717 377.904 62.2016 378.795 63.0613C379.685 63.9057 380.13 65.0879 380.13 66.6078V71.6971C380.13 71.9428 380.177 72.127 380.269 72.2498C380.376 72.3573 380.545 72.4187 380.775 72.434V74C380.576 74.0307 380.399 74.0537 380.246 74.0691C380.107 74.0844 379.992 74.0921 379.9 74.0921C379.424 74.0921 379.063 73.9616 378.818 73.7006C378.588 73.4396 378.457 73.1633 378.426 72.8716L378.38 72.1116C377.858 72.7872 377.175 73.3091 376.331 73.6776C375.486 74.0461 374.65 74.2303 373.821 74.2303C373.022 74.2303 372.308 74.0691 371.679 73.7467C371.049 73.4089 370.558 72.9637 370.205 72.411C369.852 71.843 369.675 71.2135 369.675 70.5227ZM377.505 71.3747C377.689 71.1598 377.835 70.9448 377.943 70.7299C378.05 70.4996 378.104 70.3077 378.104 70.1542V68.6573C377.628 68.4731 377.129 68.3349 376.607 68.2428C376.085 68.1353 375.571 68.0816 375.064 68.0816C374.035 68.0816 373.199 68.2889 372.554 68.7034C371.925 69.1025 371.61 69.6552 371.61 70.3615C371.61 70.7453 371.71 71.1214 371.909 71.4899C372.124 71.843 372.431 72.1347 372.83 72.365C373.245 72.5952 373.751 72.7104 374.35 72.7104C374.98 72.7104 375.578 72.5876 376.146 72.3419C376.715 72.0809 377.167 71.7585 377.505 71.3747ZM389.842 74.2303C388.859 74.2303 387.984 73.9846 387.217 73.4934C386.449 73.0021 385.843 72.3803 385.397 71.628V78.9051H383.371V61.979H385.167V64.2358C385.643 63.4989 386.265 62.9078 387.032 62.4626C387.8 62.002 388.637 61.7717 389.543 61.7717C390.372 61.7717 391.132 61.9406 391.822 62.2783C392.513 62.6161 393.112 63.0767 393.619 63.6601C394.125 64.2435 394.517 64.9113 394.793 65.6636C395.085 66.4005 395.231 67.1758 395.231 67.9895C395.231 69.1256 395 70.1695 394.54 71.1214C394.095 72.0733 393.465 72.8332 392.651 73.4013C391.838 73.9539 390.901 74.2303 389.842 74.2303ZM389.22 72.4801C389.819 72.4801 390.356 72.3573 390.832 72.1116C391.323 71.8506 391.738 71.5129 392.076 71.0984C392.429 70.6685 392.698 70.1849 392.882 69.6476C393.066 69.1102 393.158 68.5575 393.158 67.9895C393.158 67.3907 393.051 66.8227 392.836 66.2854C392.636 65.748 392.344 65.2721 391.961 64.8576C391.592 64.4431 391.155 64.1207 390.648 63.8904C390.157 63.6447 389.619 63.5219 389.036 63.5219C388.667 63.5219 388.284 63.591 387.884 63.7292C387.501 63.8673 387.132 64.0669 386.779 64.3279C386.426 64.5736 386.127 64.8576 385.881 65.18C385.635 65.5024 385.474 65.8478 385.397 66.2163V69.6476C385.628 70.1695 385.935 70.6455 386.319 71.0753C386.702 71.5052 387.148 71.8506 387.654 72.1116C388.161 72.3573 388.683 72.4801 389.22 72.4801Z" fill="#828282"/>
<path d="M226.167 58.0958C226.541 58.0958 226.844 57.7925 226.844 57.4185C226.844 57.0444 226.541 56.7411 226.167 56.7411V58.0958ZM191.822 56.9395C191.558 57.204 191.558 57.6329 191.822 57.8974L196.133 62.2078C196.397 62.4723 196.826 62.4723 197.091 62.2078C197.355 61.9433 197.355 61.5144 197.091 61.2499L193.259 57.4185L197.091 53.587C197.355 53.3225 197.355 52.8936 197.091 52.6291C196.826 52.3646 196.397 52.3646 196.133 52.6291L191.822 56.9395ZM226.167 56.7411H192.301V58.0958H226.167V56.7411Z" fill="#828282"/>
<path d="M192.301 71.6425C191.927 71.6425 191.624 71.9458 191.624 72.3198C191.624 72.6939 191.927 72.9971 192.301 72.9971L192.301 71.6425ZM226.646 72.7988C226.911 72.5342 226.911 72.1054 226.646 71.8409L222.336 67.5305C222.071 67.266 221.642 67.266 221.378 67.5305C221.113 67.795 221.113 68.2238 221.378 68.4883L225.209 72.3198L221.378 76.1513C221.113 76.4158 221.113 76.8447 221.378 77.1092C221.642 77.3737 222.071 77.3737 222.336 77.1092L226.646 72.7988ZM192.301 72.9971L226.167 72.9971L226.167 71.6425L192.301 71.6425L192.301 72.9971Z" fill="#828282"/>
<path d="M211.468 142.125H205.826V156.633H203.753V142.125H198.111V140.282H211.468V142.125ZM217.99 146.385C216.976 146.4 216.078 146.661 215.295 147.168C214.528 147.659 213.983 148.342 213.66 149.218V156.633H211.634V144.612H213.522V147.398C213.937 146.569 214.482 145.901 215.157 145.395C215.848 144.873 216.57 144.581 217.322 144.52C217.475 144.52 217.606 144.52 217.713 144.52C217.821 144.52 217.913 144.527 217.99 144.543V146.385ZM219.056 153.155C219.056 152.388 219.27 151.728 219.7 151.175C220.146 150.607 220.752 150.169 221.52 149.862C222.287 149.555 223.178 149.402 224.191 149.402C224.728 149.402 225.296 149.448 225.895 149.54C226.494 149.617 227.023 149.74 227.484 149.908V149.033C227.484 148.112 227.208 147.391 226.655 146.869C226.102 146.331 225.319 146.063 224.306 146.063C223.646 146.063 223.009 146.185 222.395 146.431C221.796 146.661 221.159 146.999 220.483 147.444L219.746 146.017C220.529 145.479 221.312 145.08 222.095 144.819C222.878 144.543 223.692 144.405 224.536 144.405C226.072 144.405 227.284 144.834 228.175 145.694C229.065 146.539 229.511 147.721 229.511 149.241V154.33C229.511 154.576 229.557 154.76 229.649 154.883C229.756 154.99 229.925 155.052 230.155 155.067V156.633C229.956 156.664 229.779 156.687 229.626 156.702C229.488 156.717 229.372 156.725 229.28 156.725C228.804 156.725 228.444 156.594 228.198 156.333C227.968 156.072 227.837 155.796 227.806 155.504L227.76 154.744C227.238 155.42 226.555 155.942 225.711 156.31C224.866 156.679 224.03 156.863 223.201 156.863C222.402 156.863 221.688 156.702 221.059 156.379C220.43 156.042 219.938 155.597 219.585 155.044C219.232 154.476 219.056 153.846 219.056 153.155ZM226.885 154.008C227.07 153.793 227.215 153.578 227.323 153.363C227.43 153.132 227.484 152.941 227.484 152.787V151.29C227.008 151.106 226.509 150.968 225.987 150.876C225.465 150.768 224.951 150.714 224.444 150.714C223.416 150.714 222.579 150.922 221.934 151.336C221.305 151.735 220.99 152.288 220.99 152.994C220.99 153.378 221.09 153.754 221.289 154.123C221.504 154.476 221.811 154.767 222.21 154.998C222.625 155.228 223.132 155.343 223.73 155.343C224.36 155.343 224.959 155.22 225.527 154.975C226.095 154.714 226.548 154.391 226.885 154.008ZM243.183 156.633H241.157V149.908C241.157 148.634 240.957 147.705 240.558 147.122C240.174 146.523 239.583 146.224 238.785 146.224C238.232 146.224 237.679 146.362 237.126 146.638C236.589 146.915 236.106 147.291 235.676 147.767C235.261 148.227 234.962 148.765 234.778 149.379V156.633H232.751V144.612H234.593V147.191C234.916 146.623 235.33 146.132 235.837 145.717C236.343 145.303 236.919 144.98 237.564 144.75C238.209 144.52 238.884 144.405 239.591 144.405C240.281 144.405 240.857 144.535 241.318 144.796C241.794 145.042 242.162 145.395 242.423 145.855C242.699 146.301 242.891 146.83 242.999 147.444C243.122 148.058 243.183 148.726 243.183 149.448V156.633ZM250.457 156.863C249.459 156.863 248.522 156.702 247.647 156.379C246.772 156.042 246.02 155.543 245.39 154.883L246.173 153.455C246.864 154.1 247.555 154.56 248.246 154.837C248.937 155.113 249.643 155.251 250.364 155.251C251.193 155.251 251.869 155.098 252.391 154.791C252.913 154.468 253.174 154 253.174 153.386C253.174 152.941 253.036 152.61 252.759 152.396C252.498 152.181 252.122 152.004 251.631 151.866C251.14 151.712 250.556 151.543 249.881 151.359C249.052 151.114 248.353 150.853 247.785 150.576C247.217 150.3 246.787 149.954 246.496 149.54C246.204 149.125 246.058 148.603 246.058 147.974C246.058 147.206 246.258 146.562 246.657 146.04C247.056 145.502 247.601 145.095 248.292 144.819C248.998 144.543 249.796 144.405 250.687 144.405C251.577 144.405 252.383 144.543 253.105 144.819C253.826 145.095 254.448 145.502 254.97 146.04L254.049 147.444C253.573 146.953 253.051 146.592 252.483 146.362C251.915 146.116 251.278 145.994 250.572 145.994C250.157 145.994 249.75 146.047 249.351 146.155C248.952 146.247 248.622 146.423 248.361 146.684C248.1 146.93 247.969 147.283 247.969 147.744C247.969 148.128 248.069 148.435 248.269 148.665C248.484 148.88 248.791 149.064 249.19 149.218C249.604 149.371 250.103 149.54 250.687 149.724C251.593 149.985 252.376 150.246 253.036 150.507C253.711 150.768 254.233 151.106 254.602 151.52C254.97 151.935 255.154 152.511 255.154 153.248C255.154 154.384 254.725 155.274 253.865 155.919C253.005 156.548 251.869 156.863 250.457 156.863ZM256.635 153.155C256.635 152.388 256.85 151.728 257.28 151.175C257.725 150.607 258.331 150.169 259.099 149.862C259.866 149.555 260.757 149.402 261.77 149.402C262.307 149.402 262.876 149.448 263.474 149.54C264.073 149.617 264.603 149.74 265.063 149.908V149.033C265.063 148.112 264.787 147.391 264.234 146.869C263.682 146.331 262.899 146.063 261.885 146.063C261.225 146.063 260.588 146.185 259.974 146.431C259.375 146.661 258.738 146.999 258.063 147.444L257.326 146.017C258.109 145.479 258.892 145.08 259.675 144.819C260.458 144.543 261.271 144.405 262.116 144.405C263.651 144.405 264.864 144.834 265.754 145.694C266.645 146.539 267.09 147.721 267.09 149.241V154.33C267.09 154.576 267.136 154.76 267.228 154.883C267.335 154.99 267.504 155.052 267.735 155.067V156.633C267.535 156.664 267.358 156.687 267.205 156.702C267.067 156.717 266.952 156.725 266.86 156.725C266.384 156.725 266.023 156.594 265.777 156.333C265.547 156.072 265.416 155.796 265.386 155.504L265.34 154.744C264.818 155.42 264.134 155.942 263.29 156.31C262.446 156.679 261.609 156.863 260.78 156.863C259.982 156.863 259.268 156.702 258.638 156.379C258.009 156.042 257.517 155.597 257.164 155.044C256.811 154.476 256.635 153.846 256.635 153.155ZM264.465 154.008C264.649 153.793 264.795 153.578 264.902 153.363C265.01 153.132 265.063 152.941 265.063 152.787V151.29C264.587 151.106 264.088 150.968 263.566 150.876C263.044 150.768 262.53 150.714 262.023 150.714C260.995 150.714 260.158 150.922 259.513 151.336C258.884 151.735 258.569 152.288 258.569 152.994C258.569 153.378 258.669 153.754 258.869 154.123C259.083 154.476 259.391 154.767 259.79 154.998C260.204 155.228 260.711 155.343 261.31 155.343C261.939 155.343 262.538 155.22 263.106 154.975C263.674 154.714 264.127 154.391 264.465 154.008ZM275.65 156.863C274.744 156.863 273.915 156.702 273.163 156.379C272.426 156.042 271.781 155.581 271.228 154.998C270.691 154.414 270.269 153.747 269.962 152.994C269.67 152.242 269.524 151.444 269.524 150.599C269.524 149.463 269.778 148.427 270.284 147.49C270.791 146.554 271.505 145.809 272.426 145.257C273.347 144.689 274.414 144.405 275.627 144.405C276.809 144.405 277.838 144.673 278.713 145.211C279.603 145.733 280.263 146.439 280.693 147.329L278.713 147.951C278.406 147.383 277.976 146.945 277.423 146.638C276.87 146.316 276.256 146.155 275.581 146.155C274.844 146.155 274.168 146.347 273.554 146.73C272.955 147.114 272.48 147.644 272.126 148.319C271.773 148.98 271.597 149.74 271.597 150.599C271.597 151.444 271.773 152.211 272.126 152.902C272.495 153.578 272.979 154.115 273.577 154.514C274.191 154.913 274.867 155.113 275.604 155.113C276.08 155.113 276.533 155.028 276.962 154.86C277.408 154.691 277.792 154.468 278.114 154.192C278.452 153.9 278.682 153.585 278.805 153.248L280.785 153.846C280.54 154.43 280.163 154.952 279.657 155.412C279.166 155.858 278.575 156.211 277.884 156.472C277.208 156.733 276.464 156.863 275.65 156.863ZM289.299 156.034C289.13 156.111 288.9 156.211 288.608 156.333C288.317 156.456 287.979 156.564 287.595 156.656C287.211 156.748 286.804 156.794 286.375 156.794C285.883 156.794 285.43 156.71 285.016 156.541C284.601 156.356 284.271 156.08 284.026 155.712C283.78 155.328 283.657 154.852 283.657 154.284V146.201H282.022V144.612H283.657V140.605H285.684V144.612H288.378V146.201H285.684V153.662C285.714 154.092 285.86 154.414 286.121 154.629C286.382 154.829 286.689 154.929 287.042 154.929C287.442 154.929 287.81 154.86 288.148 154.721C288.486 154.583 288.708 154.483 288.816 154.422L289.299 156.034ZM291.178 156.633V144.612H293.204V156.633H291.178ZM291.178 142.355V139.822H293.204V142.355H291.178ZM301.736 156.863C300.83 156.863 300.008 156.702 299.271 156.379C298.535 156.042 297.897 155.589 297.36 155.021C296.823 154.437 296.408 153.77 296.116 153.017C295.825 152.265 295.679 151.474 295.679 150.645C295.679 149.801 295.825 149.003 296.116 148.25C296.408 147.498 296.823 146.838 297.36 146.27C297.897 145.686 298.535 145.234 299.271 144.911C300.024 144.573 300.845 144.405 301.736 144.405C302.641 144.405 303.463 144.573 304.2 144.911C304.937 145.234 305.574 145.686 306.111 146.27C306.664 146.838 307.086 147.498 307.378 148.25C307.669 149.003 307.815 149.801 307.815 150.645C307.815 151.474 307.669 152.265 307.378 153.017C307.086 153.77 306.671 154.437 306.134 155.021C305.597 155.589 304.952 156.042 304.2 156.379C303.463 156.702 302.641 156.863 301.736 156.863ZM297.752 150.668C297.752 151.497 297.928 152.25 298.281 152.925C298.65 153.601 299.133 154.138 299.732 154.537C300.331 154.921 300.999 155.113 301.736 155.113C302.472 155.113 303.14 154.913 303.739 154.514C304.353 154.115 304.837 153.578 305.19 152.902C305.558 152.211 305.743 151.451 305.743 150.622C305.743 149.793 305.558 149.041 305.19 148.365C304.837 147.69 304.353 147.153 303.739 146.753C303.14 146.354 302.472 146.155 301.736 146.155C300.999 146.155 300.331 146.362 299.732 146.776C299.133 147.176 298.65 147.713 298.281 148.389C297.928 149.064 297.752 149.824 297.752 150.668ZM320.703 156.633H318.676V149.908C318.676 148.634 318.477 147.705 318.077 147.122C317.694 146.523 317.103 146.224 316.304 146.224C315.752 146.224 315.199 146.362 314.646 146.638C314.109 146.915 313.625 147.291 313.195 147.767C312.781 148.227 312.482 148.765 312.297 149.379V156.633H310.271V144.612H312.113V147.191C312.435 146.623 312.85 146.132 313.357 145.717C313.863 145.303 314.439 144.98 315.084 144.75C315.729 144.52 316.404 144.405 317.11 144.405C317.801 144.405 318.377 144.535 318.837 144.796C319.313 145.042 319.682 145.395 319.943 145.855C320.219 146.301 320.411 146.83 320.519 147.444C320.641 148.058 320.703 148.726 320.703 149.448V156.633ZM336.15 156.863C335.167 156.863 334.292 156.617 333.525 156.126C332.757 155.635 332.151 155.013 331.705 154.261V161.538H329.679V144.612H331.475V146.869C331.951 146.132 332.573 145.541 333.34 145.095C334.108 144.635 334.945 144.405 335.851 144.405C336.68 144.405 337.439 144.573 338.13 144.911C338.821 145.249 339.42 145.709 339.927 146.293C340.433 146.876 340.825 147.544 341.101 148.296C341.393 149.033 341.539 149.809 341.539 150.622C341.539 151.758 341.308 152.802 340.848 153.754C340.403 154.706 339.773 155.466 338.959 156.034C338.146 156.587 337.209 156.863 336.15 156.863ZM335.528 155.113C336.127 155.113 336.664 154.99 337.14 154.744C337.631 154.483 338.046 154.146 338.384 153.731C338.737 153.301 339.005 152.818 339.19 152.28C339.374 151.743 339.466 151.19 339.466 150.622C339.466 150.024 339.359 149.456 339.144 148.918C338.944 148.381 338.652 147.905 338.269 147.49C337.9 147.076 337.463 146.753 336.956 146.523C336.465 146.278 335.927 146.155 335.344 146.155C334.975 146.155 334.592 146.224 334.192 146.362C333.809 146.5 333.44 146.7 333.087 146.961C332.734 147.206 332.435 147.49 332.189 147.813C331.943 148.135 331.782 148.481 331.705 148.849V152.28C331.936 152.802 332.243 153.278 332.626 153.708C333.01 154.138 333.456 154.483 333.962 154.744C334.469 154.99 334.991 155.113 335.528 155.113ZM350.383 146.385C349.369 146.4 348.471 146.661 347.688 147.168C346.921 147.659 346.376 148.342 346.053 149.218V156.633H344.027V144.612H345.915V147.398C346.33 146.569 346.875 145.901 347.55 145.395C348.241 144.873 348.963 144.581 349.715 144.52C349.868 144.52 349.999 144.52 350.106 144.52C350.214 144.52 350.306 144.527 350.383 144.543V146.385ZM357.351 156.863C356.445 156.863 355.624 156.702 354.887 156.379C354.15 156.042 353.513 155.589 352.975 155.021C352.438 154.437 352.024 153.77 351.732 153.017C351.44 152.265 351.294 151.474 351.294 150.645C351.294 149.801 351.44 149.003 351.732 148.25C352.024 147.498 352.438 146.838 352.975 146.27C353.513 145.686 354.15 145.234 354.887 144.911C355.639 144.573 356.46 144.405 357.351 144.405C358.257 144.405 359.078 144.573 359.815 144.911C360.552 145.234 361.189 145.686 361.726 146.27C362.279 146.838 362.701 147.498 362.993 148.25C363.285 149.003 363.431 149.801 363.431 150.645C363.431 151.474 363.285 152.265 362.993 153.017C362.701 153.77 362.287 154.437 361.749 155.021C361.212 155.589 360.567 156.042 359.815 156.379C359.078 156.702 358.257 156.863 357.351 156.863ZM353.367 150.668C353.367 151.497 353.543 152.25 353.897 152.925C354.265 153.601 354.749 154.138 355.347 154.537C355.946 154.921 356.614 155.113 357.351 155.113C358.088 155.113 358.756 154.913 359.354 154.514C359.969 154.115 360.452 153.578 360.805 152.902C361.174 152.211 361.358 151.451 361.358 150.622C361.358 149.793 361.174 149.041 360.805 148.365C360.452 147.69 359.969 147.153 359.354 146.753C358.756 146.354 358.088 146.155 357.351 146.155C356.614 146.155 355.946 146.362 355.347 146.776C354.749 147.176 354.265 147.713 353.897 148.389C353.543 149.064 353.367 149.824 353.367 150.668ZM371.206 156.863C370.3 156.863 369.471 156.702 368.719 156.379C367.982 156.042 367.337 155.581 366.784 154.998C366.247 154.414 365.825 153.747 365.518 152.994C365.226 152.242 365.08 151.444 365.08 150.599C365.08 149.463 365.333 148.427 365.84 147.49C366.347 146.554 367.061 145.809 367.982 145.257C368.903 144.689 369.97 144.405 371.183 144.405C372.365 144.405 373.394 144.673 374.269 145.211C375.159 145.733 375.819 146.439 376.249 147.329L374.269 147.951C373.962 147.383 373.532 146.945 372.979 146.638C372.426 146.316 371.812 146.155 371.137 146.155C370.4 146.155 369.724 146.347 369.11 146.73C368.511 147.114 368.035 147.644 367.682 148.319C367.329 148.98 367.153 149.74 367.153 150.599C367.153 151.444 367.329 152.211 367.682 152.902C368.051 153.578 368.534 154.115 369.133 154.514C369.747 154.913 370.423 155.113 371.16 155.113C371.636 155.113 372.089 155.028 372.518 154.86C372.964 154.691 373.347 154.468 373.67 154.192C374.008 153.9 374.238 153.585 374.361 153.248L376.341 153.846C376.096 154.43 375.719 154.952 375.213 155.412C374.722 155.858 374.13 156.211 373.44 156.472C372.764 156.733 372.019 156.863 371.206 156.863ZM383.845 156.863C382.939 156.863 382.11 156.702 381.358 156.379C380.621 156.042 379.976 155.589 379.423 155.021C378.886 154.437 378.464 153.77 378.157 153.017C377.865 152.265 377.719 151.467 377.719 150.622C377.719 149.486 377.98 148.45 378.502 147.513C379.024 146.577 379.746 145.825 380.667 145.257C381.603 144.689 382.67 144.405 383.868 144.405C385.081 144.405 386.132 144.696 387.023 145.28C387.928 145.848 388.627 146.6 389.118 147.536C389.625 148.458 389.878 149.456 389.878 150.53C389.878 150.684 389.871 150.837 389.855 150.991C389.855 151.129 389.847 151.236 389.832 151.313H379.861C379.922 152.096 380.137 152.795 380.505 153.409C380.889 154.008 381.381 154.483 381.979 154.837C382.578 155.174 383.223 155.343 383.914 155.343C384.651 155.343 385.342 155.159 385.986 154.791C386.646 154.422 387.099 153.938 387.345 153.34L389.095 153.823C388.834 154.407 388.443 154.929 387.921 155.389C387.414 155.85 386.808 156.211 386.101 156.472C385.411 156.733 384.658 156.863 383.845 156.863ZM379.792 149.908H387.99C387.928 149.125 387.706 148.435 387.322 147.836C386.938 147.237 386.447 146.769 385.848 146.431C385.249 146.093 384.589 145.924 383.868 145.924C383.161 145.924 382.509 146.093 381.91 146.431C381.311 146.769 380.82 147.237 380.436 147.836C380.068 148.435 379.853 149.125 379.792 149.908ZM396.253 156.863C395.255 156.863 394.319 156.702 393.444 156.379C392.568 156.042 391.816 155.543 391.187 154.883L391.97 153.455C392.661 154.1 393.351 154.56 394.042 154.837C394.733 155.113 395.439 155.251 396.161 155.251C396.99 155.251 397.665 155.098 398.187 154.791C398.709 154.468 398.97 154 398.97 153.386C398.97 152.941 398.832 152.61 398.556 152.396C398.295 152.181 397.919 152.004 397.427 151.866C396.936 151.712 396.353 151.543 395.677 151.359C394.848 151.114 394.15 150.853 393.582 150.576C393.014 150.3 392.584 149.954 392.292 149.54C392 149.125 391.855 148.603 391.855 147.974C391.855 147.206 392.054 146.562 392.453 146.04C392.852 145.502 393.397 145.095 394.088 144.819C394.795 144.543 395.593 144.405 396.483 144.405C397.374 144.405 398.18 144.543 398.901 144.819C399.623 145.095 400.245 145.502 400.767 146.04L399.846 147.444C399.37 146.953 398.848 146.592 398.28 146.362C397.712 146.116 397.074 145.994 396.368 145.994C395.954 145.994 395.547 146.047 395.148 146.155C394.748 146.247 394.418 146.423 394.157 146.684C393.896 146.93 393.766 147.283 393.766 147.744C393.766 148.128 393.866 148.435 394.065 148.665C394.28 148.88 394.587 149.064 394.986 149.218C395.401 149.371 395.9 149.54 396.483 149.724C397.389 149.985 398.172 150.246 398.832 150.507C399.508 150.768 400.03 151.106 400.398 151.52C400.767 151.935 400.951 152.511 400.951 153.248C400.951 154.384 400.521 155.274 399.661 155.919C398.802 156.548 397.665 156.863 396.253 156.863ZM407.498 156.863C406.5 156.863 405.563 156.702 404.688 156.379C403.813 156.042 403.061 155.543 402.431 154.883L403.214 153.455C403.905 154.1 404.596 154.56 405.287 154.837C405.978 155.113 406.684 155.251 407.405 155.251C408.234 155.251 408.91 155.098 409.432 154.791C409.954 154.468 410.215 154 410.215 153.386C410.215 152.941 410.077 152.61 409.8 152.396C409.539 152.181 409.163 152.004 408.672 151.866C408.181 151.712 407.597 151.543 406.922 151.359C406.093 151.114 405.394 150.853 404.826 150.576C404.258 150.3 403.828 149.954 403.537 149.54C403.245 149.125 403.099 148.603 403.099 147.974C403.099 147.206 403.299 146.562 403.698 146.04C404.097 145.502 404.642 145.095 405.333 144.819C406.039 144.543 406.837 144.405 407.728 144.405C408.618 144.405 409.424 144.543 410.146 144.819C410.867 145.095 411.489 145.502 412.011 146.04L411.09 147.444C410.614 146.953 410.092 146.592 409.524 146.362C408.956 146.116 408.319 145.994 407.613 145.994C407.198 145.994 406.791 146.047 406.392 146.155C405.993 146.247 405.663 146.423 405.402 146.684C405.141 146.93 405.01 147.283 405.01 147.744C405.01 148.128 405.11 148.435 405.31 148.665C405.525 148.88 405.832 149.064 406.231 149.218C406.645 149.371 407.144 149.54 407.728 149.724C408.634 149.985 409.417 150.246 410.077 150.507C410.752 150.768 411.274 151.106 411.643 151.52C412.011 151.935 412.195 152.511 412.195 153.248C412.195 154.384 411.766 155.274 410.906 155.919C410.046 156.548 408.91 156.863 407.498 156.863ZM414.62 156.633V144.612H416.646V156.633H414.62ZM414.62 142.355V139.822H416.646V142.355H414.62ZM430.359 156.633H428.333V149.908C428.333 148.634 428.133 147.705 427.734 147.122C427.35 146.523 426.759 146.224 425.961 146.224C425.408 146.224 424.855 146.362 424.303 146.638C423.765 146.915 423.282 147.291 422.852 147.767C422.437 148.227 422.138 148.765 421.954 149.379V156.633H419.927V144.612H421.77V147.191C422.092 146.623 422.507 146.132 423.013 145.717C423.52 145.303 424.096 144.98 424.74 144.75C425.385 144.52 426.061 144.405 426.767 144.405C427.458 144.405 428.033 144.535 428.494 144.796C428.97 145.042 429.338 145.395 429.599 145.855C429.876 146.301 430.068 146.83 430.175 147.444C430.298 148.058 430.359 148.726 430.359 149.448V156.633ZM438.301 156.771C437.487 156.771 436.735 156.61 436.044 156.287C435.368 155.95 434.785 155.497 434.294 154.929C433.802 154.345 433.419 153.685 433.142 152.948C432.881 152.211 432.751 151.444 432.751 150.645C432.751 149.801 432.881 149.003 433.142 148.25C433.419 147.498 433.802 146.838 434.294 146.27C434.8 145.686 435.391 145.234 436.067 144.911C436.742 144.573 437.495 144.405 438.324 144.405C439.322 144.405 440.189 144.65 440.926 145.141C441.678 145.633 442.308 146.255 442.814 147.007V144.612H444.611V156.495C444.611 157.631 444.334 158.59 443.782 159.373C443.244 160.156 442.507 160.747 441.571 161.146C440.65 161.561 439.621 161.768 438.485 161.768C437.134 161.768 436.029 161.53 435.169 161.054C434.309 160.578 433.595 159.934 433.027 159.12L434.202 158.084C434.677 158.79 435.292 159.32 436.044 159.673C436.811 160.026 437.625 160.202 438.485 160.202C439.222 160.202 439.897 160.064 440.511 159.788C441.141 159.527 441.64 159.12 442.008 158.567C442.392 158.015 442.584 157.324 442.584 156.495V154.376C442.139 155.113 441.525 155.696 440.742 156.126C439.974 156.556 439.16 156.771 438.301 156.771ZM438.922 155.113C439.352 155.113 439.767 155.036 440.166 154.883C440.565 154.729 440.934 154.53 441.271 154.284C441.609 154.023 441.893 153.731 442.123 153.409C442.354 153.086 442.507 152.756 442.584 152.419V148.964C442.369 148.412 442.062 147.928 441.663 147.513C441.264 147.084 440.811 146.753 440.304 146.523C439.798 146.278 439.276 146.155 438.738 146.155C438.124 146.155 437.571 146.285 437.08 146.546C436.604 146.807 436.197 147.16 435.86 147.606C435.522 148.035 435.261 148.519 435.077 149.056C434.892 149.594 434.8 150.139 434.8 150.691C434.8 151.29 434.908 151.858 435.123 152.396C435.338 152.918 435.629 153.386 435.998 153.8C436.366 154.215 436.804 154.537 437.31 154.767C437.817 154.998 438.354 155.113 438.922 155.113Z" fill="#828282"/>
<path d="M166.326 157.652C166.65 157.465 167.064 157.576 167.251 157.9C167.438 158.224 167.327 158.638 167.003 158.825L166.326 157.652ZM171.856 141.481C171.759 141.842 171.388 142.057 171.026 141.96L165.138 140.382C164.777 140.285 164.562 139.914 164.659 139.552C164.756 139.191 165.127 138.977 165.489 139.074L170.723 140.476L172.125 135.242C172.222 134.881 172.593 134.666 172.955 134.763C173.316 134.86 173.53 135.231 173.434 135.593L171.856 141.481ZM154.607 137.355C149.003 140.591 147.082 147.758 150.318 153.363L149.145 154.04C145.535 147.787 147.677 139.792 153.93 136.182L154.607 137.355ZM150.318 153.363C153.554 158.967 160.721 160.888 166.326 157.652L167.003 158.825C160.75 162.435 152.755 160.293 149.145 154.04L150.318 153.363ZM170.615 141.644C167.379 136.039 160.212 134.119 154.607 137.355L153.93 136.182C160.183 132.572 168.178 134.714 171.788 140.967L170.615 141.644Z" fill="#828282"/>
<path d="M157.987 143.784L157.987 147.272C157.987 148.769 159.2 149.982 160.697 149.982L162.946 149.982" stroke="#828282" stroke-width="1.35463" stroke-linecap="round"/>
<path d="M199.233 217.496H200.983L207.661 233.847H205.451L203.516 229.057H196.654L194.742 233.847H192.532L199.233 217.496ZM203.056 227.445L200.108 219.891L197.068 227.445H203.056ZM215.992 234.077C215.01 234.077 214.135 233.831 213.367 233.34C212.599 232.849 211.993 232.227 211.548 231.475V238.752H209.521V221.826H211.317V224.082C211.793 223.346 212.415 222.754 213.183 222.309C213.95 221.849 214.787 221.618 215.693 221.618C216.522 221.618 217.282 221.787 217.973 222.125C218.664 222.463 219.262 222.923 219.769 223.507C220.276 224.09 220.667 224.758 220.943 225.51C221.235 226.247 221.381 227.022 221.381 227.836C221.381 228.972 221.151 230.016 220.69 230.968C220.245 231.92 219.616 232.68 218.802 233.248C217.988 233.801 217.052 234.077 215.992 234.077ZM215.371 232.327C215.969 232.327 216.507 232.204 216.983 231.958C217.474 231.697 217.888 231.36 218.226 230.945C218.579 230.515 218.848 230.032 219.032 229.494C219.216 228.957 219.308 228.404 219.308 227.836C219.308 227.237 219.201 226.669 218.986 226.132C218.786 225.595 218.495 225.119 218.111 224.704C217.742 224.29 217.305 223.967 216.798 223.737C216.307 223.491 215.77 223.369 215.186 223.369C214.818 223.369 214.434 223.438 214.035 223.576C213.651 223.714 213.283 223.914 212.929 224.175C212.576 224.42 212.277 224.704 212.031 225.027C211.786 225.349 211.625 225.694 211.548 226.063V229.494C211.778 230.016 212.085 230.492 212.469 230.922C212.853 231.352 213.298 231.697 213.805 231.958C214.311 232.204 214.833 232.327 215.371 232.327ZM230.34 234.077C229.358 234.077 228.483 233.831 227.715 233.34C226.947 232.849 226.341 232.227 225.896 231.475V238.752H223.869V221.826H225.665V224.082C226.141 223.346 226.763 222.754 227.531 222.309C228.298 221.849 229.135 221.618 230.041 221.618C230.87 221.618 231.63 221.787 232.321 222.125C233.012 222.463 233.61 222.923 234.117 223.507C234.624 224.09 235.015 224.758 235.292 225.51C235.583 226.247 235.729 227.022 235.729 227.836C235.729 228.972 235.499 230.016 235.038 230.968C234.593 231.92 233.964 232.68 233.15 233.248C232.336 233.801 231.4 234.077 230.34 234.077ZM229.719 232.327C230.317 232.327 230.855 232.204 231.331 231.958C231.822 231.697 232.236 231.36 232.574 230.945C232.927 230.515 233.196 230.032 233.38 229.494C233.564 228.957 233.656 228.404 233.656 227.836C233.656 227.237 233.549 226.669 233.334 226.132C233.134 225.595 232.843 225.119 232.459 224.704C232.091 224.29 231.653 223.967 231.146 223.737C230.655 223.491 230.118 223.369 229.534 223.369C229.166 223.369 228.782 223.438 228.383 223.576C227.999 223.714 227.631 223.914 227.277 224.175C226.924 224.42 226.625 224.704 226.379 225.027C226.134 225.349 225.973 225.694 225.896 226.063V229.494C226.126 230.016 226.433 230.492 226.817 230.922C227.201 231.352 227.646 231.697 228.153 231.958C228.659 232.204 229.181 232.327 229.719 232.327ZM244.573 223.599C243.56 223.614 242.662 223.875 241.879 224.382C241.111 224.873 240.566 225.556 240.244 226.431V233.847H238.217V221.826H240.106V224.612C240.52 223.783 241.065 223.115 241.741 222.609C242.432 222.087 243.153 221.795 243.905 221.734C244.059 221.734 244.189 221.734 244.297 221.734C244.404 221.734 244.496 221.741 244.573 221.757V223.599ZM251.541 234.077C250.636 234.077 249.814 233.916 249.077 233.593C248.34 233.256 247.703 232.803 247.166 232.235C246.629 231.651 246.214 230.983 245.922 230.231C245.631 229.479 245.485 228.688 245.485 227.859C245.485 227.015 245.631 226.216 245.922 225.464C246.214 224.712 246.629 224.052 247.166 223.484C247.703 222.9 248.34 222.447 249.077 222.125C249.83 221.787 250.651 221.618 251.541 221.618C252.447 221.618 253.269 221.787 254.005 222.125C254.742 222.447 255.38 222.9 255.917 223.484C256.47 224.052 256.892 224.712 257.183 225.464C257.475 226.216 257.621 227.015 257.621 227.859C257.621 228.688 257.475 229.479 257.183 230.231C256.892 230.983 256.477 231.651 255.94 232.235C255.403 232.803 254.758 233.256 254.005 233.593C253.269 233.916 252.447 234.077 251.541 234.077ZM247.557 227.882C247.557 228.711 247.734 229.464 248.087 230.139C248.456 230.815 248.939 231.352 249.538 231.751C250.137 232.135 250.804 232.327 251.541 232.327C252.278 232.327 252.946 232.127 253.545 231.728C254.159 231.329 254.643 230.792 254.996 230.116C255.364 229.425 255.548 228.665 255.548 227.836C255.548 227.007 255.364 226.255 254.996 225.579C254.643 224.904 254.159 224.366 253.545 223.967C252.946 223.568 252.278 223.369 251.541 223.369C250.804 223.369 250.137 223.576 249.538 223.99C248.939 224.39 248.456 224.927 248.087 225.602C247.734 226.278 247.557 227.038 247.557 227.882ZM263.126 233.847L258.405 221.826H260.524L264.301 231.912L268.077 221.826H270.058L265.337 233.847H263.126ZM272.086 233.847V221.826H274.112V233.847H272.086ZM272.086 219.569V217.036H274.112V219.569H272.086ZM287.825 233.847H285.799V227.122C285.799 225.848 285.599 224.919 285.2 224.336C284.816 223.737 284.225 223.438 283.427 223.438C282.874 223.438 282.321 223.576 281.769 223.852C281.231 224.129 280.748 224.505 280.318 224.981C279.903 225.441 279.604 225.979 279.42 226.593V233.847H277.393V221.826H279.235V224.405C279.558 223.837 279.972 223.346 280.479 222.931C280.986 222.517 281.561 222.194 282.206 221.964C282.851 221.734 283.526 221.618 284.233 221.618C284.924 221.618 285.499 221.749 285.96 222.01C286.436 222.256 286.804 222.609 287.065 223.069C287.342 223.514 287.534 224.044 287.641 224.658C287.764 225.272 287.825 225.94 287.825 226.662V233.847ZM295.767 233.985C294.953 233.985 294.201 233.824 293.51 233.501C292.834 233.163 292.251 232.711 291.76 232.143C291.268 231.559 290.884 230.899 290.608 230.162C290.347 229.425 290.217 228.658 290.217 227.859C290.217 227.015 290.347 226.216 290.608 225.464C290.884 224.712 291.268 224.052 291.76 223.484C292.266 222.9 292.857 222.447 293.533 222.125C294.208 221.787 294.961 221.618 295.79 221.618C296.787 221.618 297.655 221.864 298.392 222.355C299.144 222.847 299.774 223.468 300.28 224.221V221.826H302.076V233.709C302.076 234.845 301.8 235.804 301.247 236.587C300.71 237.37 299.973 237.961 299.037 238.36C298.115 238.775 297.087 238.982 295.951 238.982C294.6 238.982 293.494 238.744 292.635 238.268C291.775 237.792 291.061 237.147 290.493 236.334L291.667 235.297C292.143 236.004 292.757 236.533 293.51 236.886C294.277 237.24 295.091 237.416 295.951 237.416C296.688 237.416 297.363 237.278 297.977 237.002C298.607 236.741 299.106 236.334 299.474 235.781C299.858 235.228 300.05 234.538 300.05 233.709V231.59C299.605 232.327 298.991 232.91 298.208 233.34C297.44 233.77 296.626 233.985 295.767 233.985ZM296.388 232.327C296.818 232.327 297.233 232.25 297.632 232.096C298.031 231.943 298.399 231.743 298.737 231.498C299.075 231.237 299.359 230.945 299.589 230.623C299.82 230.3 299.973 229.97 300.05 229.632V226.178C299.835 225.625 299.528 225.142 299.129 224.727C298.73 224.297 298.277 223.967 297.77 223.737C297.263 223.491 296.741 223.369 296.204 223.369C295.59 223.369 295.037 223.499 294.546 223.76C294.07 224.021 293.663 224.374 293.325 224.819C292.988 225.249 292.727 225.733 292.543 226.27C292.358 226.808 292.266 227.353 292.266 227.905C292.266 228.504 292.374 229.072 292.589 229.609C292.803 230.131 293.095 230.6 293.464 231.014C293.832 231.429 294.27 231.751 294.776 231.981C295.283 232.212 295.82 232.327 296.388 232.327ZM311.172 233.847V221.826H313.198V233.847H311.172ZM311.172 219.569V217.036H313.198V219.569H311.172ZM326.911 233.847H324.885V227.122C324.885 225.848 324.685 224.919 324.286 224.336C323.902 223.737 323.311 223.438 322.513 223.438C321.96 223.438 321.407 223.576 320.855 223.852C320.317 224.129 319.834 224.505 319.404 224.981C318.989 225.441 318.69 225.979 318.506 226.593V233.847H316.479V221.826H318.321V224.405C318.644 223.837 319.058 223.346 319.565 222.931C320.072 222.517 320.647 222.194 321.292 221.964C321.937 221.734 322.612 221.618 323.319 221.618C324.01 221.618 324.585 221.749 325.046 222.01C325.522 222.256 325.89 222.609 326.151 223.069C326.428 223.514 326.619 224.044 326.727 224.658C326.85 225.272 326.911 225.94 326.911 226.662V233.847ZM342.059 234.077C341.122 234.077 340.27 233.847 339.503 233.386C338.735 232.926 338.129 232.327 337.683 231.59V233.847H335.887V217.036H337.914V224.221C338.42 223.438 339.042 222.808 339.779 222.332C340.516 221.856 341.376 221.618 342.358 221.618C343.187 221.618 343.932 221.795 344.592 222.148C345.252 222.486 345.813 222.954 346.273 223.553C346.749 224.136 347.11 224.804 347.355 225.556C347.616 226.293 347.747 227.069 347.747 227.882C347.747 228.727 347.601 229.525 347.309 230.277C347.033 231.014 346.634 231.674 346.112 232.258C345.59 232.826 344.984 233.271 344.293 233.593C343.617 233.916 342.873 234.077 342.059 234.077ZM341.552 232.327C342.151 232.327 342.704 232.204 343.21 231.958C343.717 231.713 344.154 231.383 344.523 230.968C344.891 230.554 345.175 230.078 345.375 229.54C345.575 229.003 345.674 228.45 345.674 227.882C345.674 227.099 345.506 226.362 345.168 225.671C344.845 224.981 344.385 224.428 343.786 224.013C343.203 223.584 342.519 223.369 341.736 223.369C341.168 223.369 340.639 223.499 340.147 223.76C339.656 224.021 339.219 224.366 338.835 224.796C338.466 225.211 338.159 225.671 337.914 226.178V229.655C337.99 230.039 338.152 230.392 338.397 230.715C338.643 231.037 338.942 231.321 339.295 231.567C339.649 231.797 340.017 231.981 340.401 232.12C340.8 232.258 341.184 232.327 341.552 232.327ZM350.281 217.036H352.308V230.738C352.308 231.398 352.4 231.805 352.584 231.958C352.768 232.112 352.991 232.189 353.252 232.189C353.574 232.189 353.881 232.158 354.173 232.096C354.465 232.02 354.71 231.943 354.91 231.866L355.232 233.524C354.895 233.662 354.495 233.778 354.035 233.87C353.574 233.962 353.168 234.008 352.814 234.008C352.031 234.008 351.41 233.785 350.949 233.34C350.504 232.895 350.281 232.273 350.281 231.475V217.036ZM362.075 234.077C361.169 234.077 360.348 233.916 359.611 233.593C358.874 233.256 358.237 232.803 357.7 232.235C357.162 231.651 356.748 230.983 356.456 230.231C356.164 229.479 356.018 228.688 356.018 227.859C356.018 227.015 356.164 226.216 356.456 225.464C356.748 224.712 357.162 224.052 357.7 223.484C358.237 222.9 358.874 222.447 359.611 222.125C360.363 221.787 361.185 221.618 362.075 221.618C362.981 221.618 363.802 221.787 364.539 222.125C365.276 222.447 365.913 222.9 366.45 223.484C367.003 224.052 367.425 224.712 367.717 225.464C368.009 226.216 368.155 227.015 368.155 227.859C368.155 228.688 368.009 229.479 367.717 230.231C367.425 230.983 367.011 231.651 366.474 232.235C365.936 232.803 365.291 233.256 364.539 233.593C363.802 233.916 362.981 234.077 362.075 234.077ZM358.091 227.882C358.091 228.711 358.268 229.464 358.621 230.139C358.989 230.815 359.473 231.352 360.072 231.751C360.67 232.135 361.338 232.327 362.075 232.327C362.812 232.327 363.48 232.127 364.079 231.728C364.693 231.329 365.176 230.792 365.529 230.116C365.898 229.425 366.082 228.665 366.082 227.836C366.082 227.007 365.898 226.255 365.529 225.579C365.176 224.904 364.693 224.366 364.079 223.967C363.48 223.568 362.812 223.369 362.075 223.369C361.338 223.369 360.67 223.576 360.072 223.99C359.473 224.39 358.989 224.927 358.621 225.602C358.268 226.278 358.091 227.038 358.091 227.882ZM375.93 234.077C375.024 234.077 374.195 233.916 373.443 233.593C372.706 233.256 372.061 232.795 371.508 232.212C370.971 231.628 370.549 230.96 370.242 230.208C369.95 229.456 369.804 228.658 369.804 227.813C369.804 226.677 370.058 225.641 370.564 224.704C371.071 223.768 371.785 223.023 372.706 222.47C373.627 221.902 374.694 221.618 375.907 221.618C377.089 221.618 378.118 221.887 378.993 222.424C379.883 222.946 380.543 223.653 380.973 224.543L378.993 225.165C378.686 224.597 378.256 224.159 377.703 223.852C377.15 223.53 376.536 223.369 375.861 223.369C375.124 223.369 374.448 223.56 373.834 223.944C373.236 224.328 372.76 224.858 372.406 225.533C372.053 226.193 371.877 226.953 371.877 227.813C371.877 228.658 372.053 229.425 372.406 230.116C372.775 230.792 373.259 231.329 373.857 231.728C374.471 232.127 375.147 232.327 375.884 232.327C376.36 232.327 376.813 232.242 377.243 232.073C377.688 231.905 378.072 231.682 378.394 231.406C378.732 231.114 378.962 230.799 379.085 230.461L381.065 231.06C380.82 231.644 380.444 232.166 379.937 232.626C379.446 233.071 378.855 233.424 378.164 233.685C377.488 233.946 376.744 234.077 375.93 234.077ZM391.836 233.847L387.668 227.997L385.388 230.139V233.847H383.362V217.036H385.388V228.02L391.606 221.849H393.794L389.004 226.823L394.024 233.847H391.836ZM400.465 234.077C399.56 234.077 398.731 233.916 397.978 233.593C397.241 233.256 396.597 232.795 396.044 232.212C395.507 231.628 395.084 230.96 394.777 230.208C394.486 229.456 394.34 228.658 394.34 227.813C394.34 226.677 394.593 225.641 395.1 224.704C395.606 223.768 396.32 223.023 397.241 222.47C398.163 221.902 399.23 221.618 400.442 221.618C401.625 221.618 402.653 221.887 403.528 222.424C404.419 222.946 405.079 223.653 405.509 224.543L403.528 225.165C403.221 224.597 402.791 224.159 402.239 223.852C401.686 223.53 401.072 223.369 400.396 223.369C399.659 223.369 398.984 223.56 398.37 223.944C397.771 224.328 397.295 224.858 396.942 225.533C396.589 226.193 396.412 226.953 396.412 227.813C396.412 228.658 396.589 229.425 396.942 230.116C397.311 230.792 397.794 231.329 398.393 231.728C399.007 232.127 399.682 232.327 400.419 232.327C400.895 232.327 401.348 232.242 401.778 232.073C402.223 231.905 402.607 231.682 402.93 231.406C403.267 231.114 403.498 230.799 403.62 230.461L405.601 231.06C405.355 231.644 404.979 232.166 404.472 232.626C403.981 233.071 403.39 233.424 402.699 233.685C402.024 233.946 401.279 234.077 400.465 234.077ZM418.329 233.847H416.303V227.122C416.303 225.894 416.08 224.973 415.635 224.359C415.205 223.745 414.583 223.438 413.769 223.438C413.247 223.438 412.718 223.576 412.18 223.852C411.658 224.129 411.198 224.505 410.799 224.981C410.4 225.441 410.108 225.979 409.924 226.593V233.847H407.897V217.036H409.924V224.405C410.4 223.545 411.044 222.87 411.858 222.378C412.687 221.872 413.578 221.618 414.529 221.618C415.251 221.618 415.85 221.749 416.326 222.01C416.817 222.256 417.208 222.609 417.5 223.069C417.792 223.53 417.999 224.067 418.122 224.681C418.26 225.28 418.329 225.94 418.329 226.662V233.847ZM420.536 230.369C420.536 229.602 420.751 228.942 421.181 228.389C421.626 227.821 422.233 227.383 423 227.076C423.768 226.769 424.658 226.616 425.672 226.616C426.209 226.616 426.777 226.662 427.376 226.754C427.975 226.831 428.504 226.953 428.965 227.122V226.247C428.965 225.326 428.688 224.604 428.136 224.082C427.583 223.545 426.8 223.276 425.787 223.276C425.127 223.276 424.49 223.399 423.875 223.645C423.277 223.875 422.64 224.213 421.964 224.658L421.227 223.23C422.01 222.693 422.793 222.294 423.576 222.033C424.359 221.757 425.173 221.618 426.017 221.618C427.552 221.618 428.765 222.048 429.656 222.908C430.546 223.752 430.991 224.935 430.991 226.454V231.544C430.991 231.789 431.037 231.974 431.13 232.096C431.237 232.204 431.406 232.265 431.636 232.281V233.847C431.437 233.877 431.26 233.9 431.107 233.916C430.968 233.931 430.853 233.939 430.761 233.939C430.285 233.939 429.924 233.808 429.679 233.547C429.448 233.286 429.318 233.01 429.287 232.718L429.241 231.958C428.719 232.634 428.036 233.156 427.192 233.524C426.347 233.893 425.511 234.077 424.681 234.077C423.883 234.077 423.169 233.916 422.54 233.593C421.91 233.256 421.419 232.81 421.066 232.258C420.713 231.69 420.536 231.06 420.536 230.369ZM428.366 231.221C428.55 231.006 428.696 230.792 428.804 230.577C428.911 230.346 428.965 230.154 428.965 230.001V228.504C428.489 228.32 427.99 228.182 427.468 228.089C426.946 227.982 426.432 227.928 425.925 227.928C424.896 227.928 424.06 228.136 423.415 228.55C422.785 228.949 422.471 229.502 422.471 230.208C422.471 230.592 422.571 230.968 422.77 231.337C422.985 231.69 423.292 231.981 423.691 232.212C424.106 232.442 424.612 232.557 425.211 232.557C425.841 232.557 426.439 232.434 427.007 232.189C427.575 231.928 428.028 231.605 428.366 231.221ZM434.232 233.847V221.826H436.258V233.847H434.232ZM434.232 219.569V217.036H436.258V219.569H434.232ZM449.971 233.847H447.945V227.122C447.945 225.848 447.745 224.919 447.346 224.336C446.962 223.737 446.371 223.438 445.573 223.438C445.02 223.438 444.467 223.576 443.915 223.852C443.377 224.129 442.894 224.505 442.464 224.981C442.049 225.441 441.75 225.979 441.566 226.593V233.847H439.539V221.826H441.381V224.405C441.704 223.837 442.118 223.346 442.625 222.931C443.132 222.517 443.707 222.194 444.352 221.964C444.997 221.734 445.673 221.618 446.379 221.618C447.07 221.618 447.645 221.749 448.106 222.01C448.582 222.256 448.95 222.609 449.211 223.069C449.488 223.514 449.68 224.044 449.787 224.658C449.91 225.272 449.971 225.94 449.971 226.662V233.847Z" fill="#828282"/>
<path d="M142.522 230.2L141.499 230.761C139.403 231.911 136.719 231.332 135.268 229.418V229.418C133.565 227.171 134.237 224.027 136.704 222.692L144.934 218.241C147.239 216.994 150.192 217.97 151.289 220.341V220.341C152.145 222.191 151.594 224.343 149.956 225.55L148.494 226.628" stroke="#828282" stroke-width="1.35463" stroke-linecap="round"/>
<path d="M153.854 219.13L154.861 218.555C156.94 217.371 159.636 217.906 161.12 219.798V219.798C162.861 222.017 162.241 225.172 159.795 226.547L151.653 231.122C149.366 232.407 146.395 231.479 145.257 229.125V229.125C144.37 227.289 144.884 225.127 146.503 223.894L147.944 222.795" stroke="#828282" stroke-width="1.35463" stroke-linecap="round"/>
<path d="M261.39 304.125C261.39 303.127 261.559 302.152 261.897 301.201C262.25 300.233 262.756 299.358 263.416 298.575C264.092 297.777 264.913 297.147 265.881 296.687C266.848 296.211 267.945 295.973 269.174 295.973C270.632 295.973 271.883 296.311 272.927 296.986C273.971 297.646 274.747 298.498 275.253 299.542L273.618 300.602C273.296 299.911 272.881 299.366 272.375 298.967C271.883 298.552 271.346 298.261 270.763 298.092C270.195 297.923 269.634 297.838 269.082 297.838C268.176 297.838 267.37 298.023 266.664 298.391C265.973 298.759 265.389 299.251 264.913 299.865C264.437 300.479 264.077 301.17 263.831 301.937C263.601 302.69 263.486 303.45 263.486 304.217C263.486 305.062 263.624 305.875 263.9 306.658C264.192 307.441 264.591 308.132 265.098 308.731C265.604 309.33 266.203 309.806 266.894 310.159C267.585 310.512 268.337 310.688 269.151 310.688C269.719 310.688 270.302 310.589 270.901 310.389C271.5 310.189 272.06 309.882 272.582 309.468C273.104 309.038 273.518 308.485 273.825 307.81L275.553 308.754C275.215 309.568 274.693 310.258 273.987 310.827C273.28 311.395 272.49 311.824 271.615 312.116C270.755 312.408 269.903 312.554 269.059 312.554C267.938 312.554 266.909 312.316 265.973 311.84C265.036 311.349 264.222 310.704 263.532 309.905C262.856 309.092 262.326 308.186 261.943 307.188C261.574 306.175 261.39 305.154 261.39 304.125ZM283.075 312.646C282.169 312.646 281.348 312.485 280.611 312.162C279.874 311.824 279.237 311.372 278.699 310.804C278.162 310.22 277.747 309.552 277.456 308.8C277.164 308.048 277.018 307.257 277.018 306.428C277.018 305.584 277.164 304.785 277.456 304.033C277.747 303.281 278.162 302.621 278.699 302.053C279.237 301.469 279.874 301.016 280.611 300.694C281.363 300.356 282.184 300.187 283.075 300.187C283.981 300.187 284.802 300.356 285.539 300.694C286.276 301.016 286.913 301.469 287.45 302.053C288.003 302.621 288.425 303.281 288.717 304.033C289.009 304.785 289.154 305.584 289.154 306.428C289.154 307.257 289.009 308.048 288.717 308.8C288.425 309.552 288.011 310.22 287.473 310.804C286.936 311.372 286.291 311.824 285.539 312.162C284.802 312.485 283.981 312.646 283.075 312.646ZM279.091 306.451C279.091 307.28 279.267 308.032 279.62 308.708C279.989 309.383 280.473 309.921 281.071 310.32C281.67 310.704 282.338 310.896 283.075 310.896C283.812 310.896 284.48 310.696 285.078 310.297C285.692 309.898 286.176 309.36 286.529 308.685C286.898 307.994 287.082 307.234 287.082 306.405C287.082 305.576 286.898 304.824 286.529 304.148C286.176 303.473 285.692 302.935 285.078 302.536C284.48 302.137 283.812 301.937 283.075 301.937C282.338 301.937 281.67 302.145 281.071 302.559C280.473 302.958 279.989 303.496 279.62 304.171C279.267 304.847 279.091 305.607 279.091 306.451ZM309.734 312.416H307.707V305.691C307.707 304.432 307.5 303.503 307.085 302.905C306.686 302.306 306.087 302.007 305.289 302.007C304.475 302.007 303.738 302.306 303.078 302.905C302.418 303.488 301.95 304.248 301.674 305.184V312.416H299.647V305.691C299.647 304.417 299.447 303.488 299.048 302.905C298.649 302.306 298.05 302.007 297.252 302.007C296.454 302.007 295.717 302.298 295.041 302.882C294.381 303.45 293.913 304.21 293.637 305.161V312.416H291.61V300.395H293.452V302.974C293.944 302.083 294.581 301.4 295.364 300.924C296.147 300.433 297.029 300.187 298.012 300.187C299.01 300.187 299.808 300.464 300.407 301.016C301.006 301.554 301.374 302.252 301.512 303.112C302.05 302.16 302.702 301.438 303.47 300.947C304.237 300.441 305.113 300.187 306.095 300.187C306.786 300.187 307.362 300.318 307.822 300.579C308.298 300.824 308.674 301.177 308.951 301.638C309.227 302.083 309.427 302.613 309.549 303.227C309.672 303.841 309.734 304.509 309.734 305.231V312.416ZM319.356 312.646C318.373 312.646 317.498 312.4 316.73 311.909C315.963 311.418 315.356 310.796 314.911 310.044V317.321H312.885V300.395H314.681V302.651C315.157 301.914 315.779 301.323 316.546 300.878C317.314 300.418 318.151 300.187 319.056 300.187C319.885 300.187 320.645 300.356 321.336 300.694C322.027 301.032 322.626 301.492 323.132 302.076C323.639 302.659 324.031 303.327 324.307 304.079C324.599 304.816 324.744 305.591 324.744 306.405C324.744 307.541 324.514 308.585 324.054 309.537C323.608 310.489 322.979 311.249 322.165 311.817C321.352 312.369 320.415 312.646 319.356 312.646ZM318.734 310.896C319.333 310.896 319.87 310.773 320.346 310.527C320.837 310.266 321.252 309.928 321.59 309.514C321.943 309.084 322.211 308.6 322.396 308.063C322.58 307.526 322.672 306.973 322.672 306.405C322.672 305.806 322.564 305.238 322.349 304.701C322.15 304.164 321.858 303.688 321.474 303.273C321.106 302.859 320.668 302.536 320.162 302.306C319.67 302.06 319.133 301.937 318.55 301.937C318.181 301.937 317.797 302.007 317.398 302.145C317.014 302.283 316.646 302.482 316.293 302.743C315.94 302.989 315.64 303.273 315.395 303.596C315.149 303.918 314.988 304.263 314.911 304.632V308.063C315.141 308.585 315.449 309.061 315.832 309.491C316.216 309.921 316.661 310.266 317.168 310.527C317.675 310.773 318.197 310.896 318.734 310.896ZM327.279 295.605H329.305V309.307C329.305 309.967 329.397 310.374 329.582 310.527C329.766 310.681 329.988 310.757 330.249 310.757C330.572 310.757 330.879 310.727 331.171 310.665C331.462 310.589 331.708 310.512 331.907 310.435L332.23 312.093C331.892 312.231 331.493 312.346 331.032 312.439C330.572 312.531 330.165 312.577 329.812 312.577C329.029 312.577 328.407 312.354 327.947 311.909C327.501 311.464 327.279 310.842 327.279 310.044V295.605ZM339.142 312.646C338.236 312.646 337.407 312.485 336.654 312.162C335.918 311.824 335.273 311.372 334.72 310.804C334.183 310.22 333.761 309.552 333.453 308.8C333.162 308.048 333.016 307.249 333.016 306.405C333.016 305.269 333.277 304.233 333.799 303.296C334.321 302.36 335.042 301.607 335.964 301.039C336.9 300.471 337.967 300.187 339.165 300.187C340.377 300.187 341.429 300.479 342.32 301.062C343.225 301.63 343.924 302.383 344.415 303.319C344.922 304.24 345.175 305.238 345.175 306.313C345.175 306.466 345.167 306.62 345.152 306.773C345.152 306.912 345.144 307.019 345.129 307.096H335.158C335.219 307.879 335.434 308.577 335.802 309.191C336.186 309.79 336.678 310.266 337.276 310.619C337.875 310.957 338.52 311.126 339.211 311.126C339.948 311.126 340.638 310.942 341.283 310.573C341.943 310.205 342.396 309.721 342.642 309.122L344.392 309.606C344.131 310.189 343.74 310.711 343.218 311.172C342.711 311.633 342.105 311.993 341.398 312.254C340.708 312.515 339.955 312.646 339.142 312.646ZM335.089 305.691H343.287C343.225 304.908 343.003 304.217 342.619 303.619C342.235 303.02 341.744 302.552 341.145 302.214C340.546 301.876 339.886 301.707 339.165 301.707C338.458 301.707 337.806 301.876 337.207 302.214C336.608 302.552 336.117 303.02 335.733 303.619C335.365 304.217 335.15 304.908 335.089 305.691ZM353.533 311.817C353.364 311.894 353.134 311.993 352.842 312.116C352.551 312.239 352.213 312.346 351.829 312.439C351.445 312.531 351.038 312.577 350.608 312.577C350.117 312.577 349.664 312.492 349.25 312.323C348.835 312.139 348.505 311.863 348.26 311.494C348.014 311.111 347.891 310.635 347.891 310.067V301.983H346.256V300.395H347.891V296.387H349.918V300.395H352.612V301.983H349.918V309.445C349.948 309.875 350.094 310.197 350.355 310.412C350.616 310.612 350.923 310.711 351.276 310.711C351.675 310.711 352.044 310.642 352.382 310.504C352.719 310.366 352.942 310.266 353.05 310.205L353.533 311.817ZM360.574 312.646C359.668 312.646 358.839 312.485 358.087 312.162C357.35 311.824 356.705 311.372 356.152 310.804C355.615 310.22 355.193 309.552 354.886 308.8C354.594 308.048 354.448 307.249 354.448 306.405C354.448 305.269 354.709 304.233 355.231 303.296C355.753 302.36 356.475 301.607 357.396 301.039C358.332 300.471 359.399 300.187 360.597 300.187C361.81 300.187 362.861 300.479 363.752 301.062C364.657 301.63 365.356 302.383 365.847 303.319C366.354 304.24 366.607 305.238 366.607 306.313C366.607 306.466 366.6 306.62 366.584 306.773C366.584 306.912 366.576 307.019 366.561 307.096H356.59C356.651 307.879 356.866 308.577 357.234 309.191C357.618 309.79 358.11 310.266 358.708 310.619C359.307 310.957 359.952 311.126 360.643 311.126C361.38 311.126 362.071 310.942 362.715 310.573C363.375 310.205 363.828 309.721 364.074 309.122L365.824 309.606C365.563 310.189 365.172 310.711 364.65 311.172C364.143 311.633 363.537 311.993 362.83 312.254C362.14 312.515 361.387 312.646 360.574 312.646ZM356.521 305.691H364.719C364.657 304.908 364.435 304.217 364.051 303.619C363.667 303.02 363.176 302.552 362.577 302.214C361.978 301.876 361.318 301.707 360.597 301.707C359.89 301.707 359.238 301.876 358.639 302.214C358.04 302.552 357.549 303.02 357.165 303.619C356.797 304.217 356.582 304.908 356.521 305.691Z" fill="black"/>
<path d="M212.505 304.598L219.005 312.487C219.58 313.185 220.649 313.1 221.135 312.317L234.698 290.429" stroke="#22E16E" stroke-width="1.35463" stroke-linecap="round"/>
</svg>
