<svg width="297" height="276" viewBox="0 0 297 276" fill="none" xmlns="http://www.w3.org/2000/svg">
<rect width="296" height="276" rx="4" fill="#121212"/>
<rect width="297" height="276" rx="4" fill="#121212"/>
<path d="M120.534 46.463C120.398 46.3043 120.217 46.1513 119.99 46.004C119.763 45.8567 119.508 45.7263 119.225 45.613C118.942 45.4883 118.63 45.392 118.29 45.324C117.961 45.2447 117.616 45.205 117.253 45.205C116.324 45.205 115.638 45.3807 115.196 45.732C114.754 46.0833 114.533 46.565 114.533 47.177C114.533 47.6077 114.646 47.9477 114.873 48.197C115.1 48.4463 115.445 48.6503 115.91 48.809C116.386 48.9677 116.987 49.132 117.712 49.302C118.551 49.4833 119.276 49.7043 119.888 49.965C120.5 50.2257 120.97 50.577 121.299 51.019C121.628 51.4497 121.792 52.0277 121.792 52.753C121.792 53.331 121.679 53.8353 121.452 54.266C121.237 54.6853 120.931 55.0367 120.534 55.32C120.137 55.592 119.673 55.796 119.14 55.932C118.607 56.0567 118.029 56.119 117.406 56.119C116.794 56.119 116.193 56.0567 115.604 55.932C115.026 55.796 114.476 55.6033 113.955 55.354C113.434 55.1047 112.946 54.793 112.493 54.419L113.224 53.127C113.405 53.3197 113.638 53.5123 113.921 53.705C114.216 53.8863 114.544 54.0563 114.907 54.215C115.281 54.3737 115.683 54.504 116.114 54.606C116.545 54.6967 116.987 54.742 117.44 54.742C118.301 54.742 118.97 54.589 119.446 54.283C119.922 53.9657 120.16 53.5067 120.16 52.906C120.16 52.4527 120.024 52.09 119.752 51.818C119.491 51.546 119.1 51.3193 118.579 51.138C118.058 50.9567 117.423 50.7753 116.675 50.594C115.859 50.39 115.173 50.169 114.618 49.931C114.063 49.6817 113.643 49.3587 113.36 48.962C113.088 48.5653 112.952 48.0497 112.952 47.415C112.952 46.6443 113.139 45.9927 113.513 45.46C113.887 44.9273 114.403 44.525 115.06 44.253C115.717 43.981 116.46 43.845 117.287 43.845C117.831 43.845 118.335 43.9017 118.8 44.015C119.276 44.1283 119.718 44.287 120.126 44.491C120.534 44.695 120.908 44.9387 121.248 45.222L120.534 46.463ZM127.99 55.558C127.866 55.6147 127.696 55.6883 127.48 55.779C127.265 55.8697 127.016 55.949 126.732 56.017C126.449 56.085 126.149 56.119 125.831 56.119C125.469 56.119 125.134 56.0567 124.828 55.932C124.522 55.796 124.279 55.592 124.097 55.32C123.916 55.0367 123.825 54.6853 123.825 54.266V48.299H122.618V47.126H123.825V44.168H125.321V47.126H127.31V48.299H125.321V53.807C125.344 54.1243 125.452 54.3623 125.644 54.521C125.837 54.6683 126.064 54.742 126.324 54.742C126.619 54.742 126.891 54.691 127.14 54.589C127.39 54.487 127.554 54.4133 127.633 54.368L127.99 55.558ZM128.68 53.433C128.68 52.8663 128.839 52.379 129.156 51.971C129.485 51.5517 129.932 51.2287 130.499 51.002C131.066 50.7753 131.723 50.662 132.471 50.662C132.868 50.662 133.287 50.696 133.729 50.764C134.171 50.8207 134.562 50.9113 134.902 51.036V50.39C134.902 49.71 134.698 49.1773 134.29 48.792C133.882 48.3953 133.304 48.197 132.556 48.197C132.069 48.197 131.598 48.2877 131.145 48.469C130.703 48.639 130.233 48.8883 129.734 49.217L129.19 48.163C129.768 47.7663 130.346 47.4717 130.924 47.279C131.502 47.075 132.103 46.973 132.726 46.973C133.859 46.973 134.755 47.2903 135.412 47.925C136.069 48.5483 136.398 49.421 136.398 50.543V54.3C136.398 54.4813 136.432 54.6173 136.5 54.708C136.579 54.7873 136.704 54.8327 136.874 54.844V56C136.727 56.0227 136.596 56.0397 136.483 56.051C136.381 56.0623 136.296 56.068 136.228 56.068C135.877 56.068 135.61 55.9717 135.429 55.779C135.259 55.5863 135.163 55.3823 135.14 55.167L135.106 54.606C134.721 55.1047 134.216 55.49 133.593 55.762C132.97 56.034 132.352 56.17 131.74 56.17C131.151 56.17 130.624 56.051 130.159 55.813C129.694 55.5637 129.332 55.235 129.071 54.827C128.81 54.4077 128.68 53.943 128.68 53.433ZM134.46 54.062C134.596 53.9033 134.704 53.7447 134.783 53.586C134.862 53.416 134.902 53.2743 134.902 53.161V52.056C134.551 51.92 134.182 51.818 133.797 51.75C133.412 51.6707 133.032 51.631 132.658 51.631C131.899 51.631 131.281 51.784 130.805 52.09C130.34 52.3847 130.108 52.7927 130.108 53.314C130.108 53.5973 130.182 53.875 130.329 54.147C130.488 54.4077 130.714 54.623 131.009 54.793C131.315 54.963 131.689 55.048 132.131 55.048C132.596 55.048 133.038 54.9573 133.457 54.776C133.876 54.5833 134.211 54.3453 134.46 54.062ZM143.482 48.435C142.734 48.4463 142.071 48.639 141.493 49.013C140.926 49.3757 140.524 49.88 140.286 50.526V56H138.79V47.126H140.184V49.183C140.49 48.571 140.892 48.078 141.391 47.704C141.901 47.3187 142.434 47.1033 142.989 47.058C143.102 47.058 143.199 47.058 143.278 47.058C143.357 47.058 143.425 47.0637 143.482 47.075V48.435ZM149.556 55.558C149.431 55.6147 149.261 55.6883 149.046 55.779C148.83 55.8697 148.581 55.949 148.298 56.017C148.014 56.085 147.714 56.119 147.397 56.119C147.034 56.119 146.7 56.0567 146.394 55.932C146.088 55.796 145.844 55.592 145.663 55.32C145.481 55.0367 145.391 54.6853 145.391 54.266V48.299H144.184V47.126H145.391V44.168H146.887V47.126H148.876V48.299H146.887V53.807C146.909 54.1243 147.017 54.3623 147.21 54.521C147.402 54.6683 147.629 54.742 147.89 54.742C148.184 54.742 148.456 54.691 148.706 54.589C148.955 54.487 149.119 54.4133 149.199 54.368L149.556 55.558ZM150.942 56V47.126H152.438V56H150.942ZM150.942 45.46V43.59H152.438V45.46H150.942ZM162.561 56H161.065V51.036C161.065 50.0953 160.918 49.4097 160.623 48.979C160.34 48.537 159.904 48.316 159.314 48.316C158.906 48.316 158.498 48.418 158.09 48.622C157.694 48.826 157.337 49.1037 157.019 49.455C156.713 49.795 156.492 50.1917 156.356 50.645V56H154.86V47.126H156.22V49.03C156.458 48.6107 156.764 48.248 157.138 47.942C157.512 47.636 157.937 47.398 158.413 47.228C158.889 47.058 159.388 46.973 159.909 46.973C160.419 46.973 160.844 47.0693 161.184 47.262C161.536 47.4433 161.808 47.704 162 48.044C162.204 48.3727 162.346 48.7637 162.425 49.217C162.516 49.6703 162.561 50.1633 162.561 50.696V56ZM168.424 56.102C167.823 56.102 167.268 55.983 166.758 55.745C166.259 55.4957 165.828 55.1613 165.466 54.742C165.103 54.3113 164.82 53.824 164.616 53.28C164.423 52.736 164.327 52.1693 164.327 51.58C164.327 50.9567 164.423 50.3673 164.616 49.812C164.82 49.2567 165.103 48.7693 165.466 48.35C165.84 47.9193 166.276 47.585 166.775 47.347C167.273 47.0977 167.829 46.973 168.441 46.973C169.177 46.973 169.818 47.1543 170.362 47.517C170.917 47.8797 171.382 48.3387 171.756 48.894V47.126H173.082V55.898C173.082 56.7367 172.878 57.445 172.47 58.023C172.073 58.601 171.529 59.0373 170.838 59.332C170.158 59.638 169.398 59.791 168.56 59.791C167.562 59.791 166.746 59.6153 166.112 59.264C165.477 58.9127 164.95 58.4367 164.531 57.836L165.398 57.071C165.749 57.5923 166.202 57.9833 166.758 58.244C167.324 58.5047 167.925 58.635 168.56 58.635C169.104 58.635 169.602 58.533 170.056 58.329C170.52 58.1363 170.889 57.836 171.161 57.428C171.444 57.02 171.586 56.51 171.586 55.898V54.334C171.257 54.878 170.804 55.3087 170.226 55.626C169.659 55.9433 169.058 56.102 168.424 56.102ZM168.883 54.878C169.2 54.878 169.506 54.8213 169.801 54.708C170.095 54.5947 170.367 54.4473 170.617 54.266C170.866 54.0733 171.076 53.858 171.246 53.62C171.416 53.382 171.529 53.1383 171.586 52.889V50.339C171.427 49.931 171.2 49.574 170.906 49.268C170.611 48.9507 170.277 48.707 169.903 48.537C169.529 48.3557 169.143 48.265 168.747 48.265C168.293 48.265 167.885 48.3613 167.523 48.554C167.171 48.7467 166.871 49.0073 166.622 49.336C166.372 49.6533 166.18 50.0103 166.044 50.407C165.908 50.8037 165.84 51.206 165.84 51.614C165.84 52.056 165.919 52.4753 166.078 52.872C166.236 53.2573 166.452 53.603 166.724 53.909C166.996 54.215 167.319 54.453 167.693 54.623C168.067 54.793 168.463 54.878 168.883 54.878ZM187.123 46.463C186.987 46.3043 186.806 46.1513 186.579 46.004C186.352 45.8567 186.097 45.7263 185.814 45.613C185.531 45.4883 185.219 45.392 184.879 45.324C184.55 45.2447 184.205 45.205 183.842 45.205C182.913 45.205 182.227 45.3807 181.785 45.732C181.343 46.0833 181.122 46.565 181.122 47.177C181.122 47.6077 181.235 47.9477 181.462 48.197C181.689 48.4463 182.034 48.6503 182.499 48.809C182.975 48.9677 183.576 49.132 184.301 49.302C185.14 49.4833 185.865 49.7043 186.477 49.965C187.089 50.2257 187.559 50.577 187.888 51.019C188.217 51.4497 188.381 52.0277 188.381 52.753C188.381 53.331 188.268 53.8353 188.041 54.266C187.826 54.6853 187.52 55.0367 187.123 55.32C186.726 55.592 186.262 55.796 185.729 55.932C185.196 56.0567 184.618 56.119 183.995 56.119C183.383 56.119 182.782 56.0567 182.193 55.932C181.615 55.796 181.065 55.6033 180.544 55.354C180.023 55.1047 179.535 54.793 179.082 54.419L179.813 53.127C179.994 53.3197 180.227 53.5123 180.51 53.705C180.805 53.8863 181.133 54.0563 181.496 54.215C181.87 54.3737 182.272 54.504 182.703 54.606C183.134 54.6967 183.576 54.742 184.029 54.742C184.89 54.742 185.559 54.589 186.035 54.283C186.511 53.9657 186.749 53.5067 186.749 52.906C186.749 52.4527 186.613 52.09 186.341 51.818C186.08 51.546 185.689 51.3193 185.168 51.138C184.647 50.9567 184.012 50.7753 183.264 50.594C182.448 50.39 181.762 50.169 181.207 49.931C180.652 49.6817 180.232 49.3587 179.949 48.962C179.677 48.5653 179.541 48.0497 179.541 47.415C179.541 46.6443 179.728 45.9927 180.102 45.46C180.476 44.9273 180.992 44.525 181.649 44.253C182.306 43.981 183.049 43.845 183.876 43.845C184.42 43.845 184.924 43.9017 185.389 44.015C185.865 44.1283 186.307 44.287 186.715 44.491C187.123 44.695 187.497 44.9387 187.837 45.222L187.123 46.463ZM201.008 47.126H202.453L198.679 56H197.37L195.653 51.818L193.953 56H192.644L188.87 47.126H190.298L193.358 54.521L194.786 50.883L193.29 47.143H194.599L195.653 49.965L196.707 47.143H198.016L196.537 50.883L197.965 54.521L201.008 47.126ZM202.939 53.433C202.939 52.8663 203.097 52.379 203.415 51.971C203.743 51.5517 204.191 51.2287 204.758 51.002C205.324 50.7753 205.982 50.662 206.73 50.662C207.126 50.662 207.546 50.696 207.988 50.764C208.43 50.8207 208.821 50.9113 209.161 51.036V50.39C209.161 49.71 208.957 49.1773 208.549 48.792C208.141 48.3953 207.563 48.197 206.815 48.197C206.327 48.197 205.857 48.2877 205.404 48.469C204.962 48.639 204.491 48.8883 203.993 49.217L203.449 48.163C204.027 47.7663 204.605 47.4717 205.183 47.279C205.761 47.075 206.361 46.973 206.985 46.973C208.118 46.973 209.013 47.2903 209.671 47.925C210.328 48.5483 210.657 49.421 210.657 50.543V54.3C210.657 54.4813 210.691 54.6173 210.759 54.708C210.838 54.7873 210.963 54.8327 211.133 54.844V56C210.985 56.0227 210.855 56.0397 210.742 56.051C210.64 56.0623 210.555 56.068 210.487 56.068C210.135 56.068 209.869 55.9717 209.688 55.779C209.518 55.5863 209.421 55.3823 209.399 55.167L209.365 54.606C208.979 55.1047 208.475 55.49 207.852 55.762C207.228 56.034 206.611 56.17 205.999 56.17C205.409 56.17 204.882 56.051 204.418 55.813C203.953 55.5637 203.59 55.235 203.33 54.827C203.069 54.4077 202.939 53.943 202.939 53.433ZM208.719 54.062C208.855 53.9033 208.962 53.7447 209.042 53.586C209.121 53.416 209.161 53.2743 209.161 53.161V52.056C208.809 51.92 208.441 51.818 208.056 51.75C207.67 51.6707 207.291 51.631 206.917 51.631C206.157 51.631 205.54 51.784 205.064 52.09C204.599 52.3847 204.367 52.7927 204.367 53.314C204.367 53.5973 204.44 53.875 204.588 54.147C204.746 54.4077 204.973 54.623 205.268 54.793C205.574 54.963 205.948 55.048 206.39 55.048C206.854 55.048 207.296 54.9573 207.716 54.776C208.135 54.5833 208.469 54.3453 208.719 54.062ZM217.826 56.17C217.1 56.17 216.454 55.9887 215.888 55.626C215.321 55.2633 214.873 54.8043 214.545 54.249V59.621H213.049V47.126H214.375V48.792C214.726 48.248 215.185 47.8117 215.752 47.483C216.318 47.143 216.936 46.973 217.605 46.973C218.217 46.973 218.778 47.0977 219.288 47.347C219.798 47.5963 220.24 47.9363 220.614 48.367C220.988 48.7977 221.277 49.2907 221.481 49.846C221.696 50.39 221.804 50.9623 221.804 51.563C221.804 52.4017 221.634 53.1723 221.294 53.875C220.965 54.5777 220.5 55.1387 219.9 55.558C219.299 55.966 218.608 56.17 217.826 56.17ZM217.367 54.878C217.809 54.878 218.205 54.7873 218.557 54.606C218.919 54.4133 219.225 54.164 219.475 53.858C219.735 53.5407 219.934 53.1837 220.07 52.787C220.206 52.3903 220.274 51.9823 220.274 51.563C220.274 51.121 220.194 50.7017 220.036 50.305C219.888 49.9083 219.673 49.557 219.39 49.251C219.118 48.945 218.795 48.707 218.421 48.537C218.058 48.3557 217.661 48.265 217.231 48.265C216.959 48.265 216.675 48.316 216.381 48.418C216.097 48.52 215.825 48.6673 215.565 48.86C215.304 49.0413 215.083 49.251 214.902 49.489C214.72 49.727 214.601 49.982 214.545 50.254V52.787C214.715 53.1723 214.941 53.5237 215.225 53.841C215.508 54.1583 215.837 54.4133 216.211 54.606C216.585 54.7873 216.97 54.878 217.367 54.878Z" fill="#828282"/>
<path d="M97 44.5C97.2761 44.5 97.5 44.2761 97.5 44C97.5 43.7239 97.2761 43.5 97 43.5V44.5ZM71.6464 43.6464C71.4512 43.8417 71.4512 44.1583 71.6464 44.3536L74.8284 47.5355C75.0237 47.7308 75.3403 47.7308 75.5355 47.5355C75.7308 47.3403 75.7308 47.0237 75.5355 46.8284L72.7071 44L75.5355 41.1716C75.7308 40.9763 75.7308 40.6597 75.5355 40.4645C75.3403 40.2692 75.0237 40.2692 74.8284 40.4645L71.6464 43.6464ZM97 43.5H72V44.5H97V43.5Z" fill="#828282"/>
<path d="M72 54.5C71.7239 54.5 71.5 54.7239 71.5 55C71.5 55.2761 71.7239 55.5 72 55.5L72 54.5ZM97.3536 55.3536C97.5488 55.1583 97.5488 54.8417 97.3536 54.6464L94.1716 51.4645C93.9763 51.2692 93.6597 51.2692 93.4645 51.4645C93.2692 51.6597 93.2692 51.9763 93.4645 52.1716L96.2929 55L93.4645 57.8284C93.2692 58.0237 93.2692 58.3403 93.4645 58.5355C93.6597 58.7308 93.9763 58.7308 94.1716 58.5355L97.3536 55.3536ZM72 55.5L97 55.5L97 54.5L72 54.5L72 55.5Z" fill="#828282"/>
<path d="M86.149 106.29H81.984V117H80.454V106.29H76.289V104.93H86.149V106.29ZM90.9635 109.435C90.2155 109.446 89.5525 109.639 88.9745 110.013C88.4078 110.376 88.0055 110.88 87.7675 111.526V117H86.2715V108.126H87.6655V110.183C87.9715 109.571 88.3738 109.078 88.8725 108.704C89.3825 108.319 89.9151 108.103 90.4705 108.058C90.5838 108.058 90.6801 108.058 90.7595 108.058C90.8388 108.058 90.9068 108.064 90.9635 108.075V109.435ZM91.7502 114.433C91.7502 113.866 91.9089 113.379 92.2262 112.971C92.5549 112.552 93.0026 112.229 93.5692 112.002C94.1359 111.775 94.7932 111.662 95.5412 111.662C95.9379 111.662 96.3572 111.696 96.7992 111.764C97.2412 111.821 97.6322 111.911 97.9722 112.036V111.39C97.9722 110.71 97.7682 110.177 97.3602 109.792C96.9522 109.395 96.3742 109.197 95.6262 109.197C95.1389 109.197 94.6686 109.288 94.2152 109.469C93.7732 109.639 93.3029 109.888 92.8042 110.217L92.2602 109.163C92.8382 108.766 93.4162 108.472 93.9942 108.279C94.5722 108.075 95.1729 107.973 95.7962 107.973C96.9296 107.973 97.8249 108.29 98.4822 108.925C99.1396 109.548 99.4682 110.421 99.4682 111.543V115.3C99.4682 115.481 99.5022 115.617 99.5702 115.708C99.6496 115.787 99.7742 115.833 99.9442 115.844V117C99.7969 117.023 99.6666 117.04 99.5532 117.051C99.4512 117.062 99.3662 117.068 99.2982 117.068C98.9469 117.068 98.6806 116.972 98.4992 116.779C98.3292 116.586 98.2329 116.382 98.2102 116.167L98.1762 115.606C97.7909 116.105 97.2866 116.49 96.6632 116.762C96.0399 117.034 95.4222 117.17 94.8102 117.17C94.2209 117.17 93.6939 117.051 93.2292 116.813C92.7646 116.564 92.4019 116.235 92.1412 115.827C91.8806 115.408 91.7502 114.943 91.7502 114.433ZM97.5302 115.062C97.6662 114.903 97.7739 114.745 97.8532 114.586C97.9326 114.416 97.9722 114.274 97.9722 114.161V113.056C97.6209 112.92 97.2526 112.818 96.8672 112.75C96.4819 112.671 96.1022 112.631 95.7282 112.631C94.9689 112.631 94.3512 112.784 93.8752 113.09C93.4106 113.385 93.1782 113.793 93.1782 114.314C93.1782 114.597 93.2519 114.875 93.3992 115.147C93.5579 115.408 93.7846 115.623 94.0792 115.793C94.3852 115.963 94.7592 116.048 95.2012 116.048C95.6659 116.048 96.1079 115.957 96.5272 115.776C96.9466 115.583 97.2809 115.345 97.5302 115.062ZM109.561 117H108.065V112.036C108.065 111.095 107.918 110.41 107.623 109.979C107.34 109.537 106.904 109.316 106.314 109.316C105.906 109.316 105.498 109.418 105.09 109.622C104.694 109.826 104.337 110.104 104.019 110.455C103.713 110.795 103.492 111.192 103.356 111.645V117H101.86V108.126H103.22V110.03C103.458 109.611 103.764 109.248 104.138 108.942C104.512 108.636 104.937 108.398 105.413 108.228C105.889 108.058 106.388 107.973 106.909 107.973C107.419 107.973 107.844 108.069 108.184 108.262C108.536 108.443 108.808 108.704 109 109.044C109.204 109.373 109.346 109.764 109.425 110.217C109.516 110.67 109.561 111.163 109.561 111.696V117ZM114.931 117.17C114.194 117.17 113.503 117.051 112.857 116.813C112.211 116.564 111.655 116.195 111.191 115.708L111.769 114.654C112.279 115.13 112.789 115.47 113.299 115.674C113.809 115.878 114.33 115.98 114.863 115.98C115.475 115.98 115.973 115.867 116.359 115.64C116.744 115.402 116.937 115.056 116.937 114.603C116.937 114.274 116.835 114.031 116.631 113.872C116.438 113.713 116.16 113.583 115.798 113.481C115.435 113.368 115.004 113.243 114.506 113.107C113.894 112.926 113.378 112.733 112.959 112.529C112.539 112.325 112.222 112.07 112.007 111.764C111.791 111.458 111.684 111.073 111.684 110.608C111.684 110.041 111.831 109.565 112.126 109.18C112.42 108.783 112.823 108.483 113.333 108.279C113.854 108.075 114.443 107.973 115.101 107.973C115.758 107.973 116.353 108.075 116.886 108.279C117.418 108.483 117.877 108.783 118.263 109.18L117.583 110.217C117.231 109.854 116.846 109.588 116.427 109.418C116.007 109.237 115.537 109.146 115.016 109.146C114.71 109.146 114.409 109.186 114.115 109.265C113.82 109.333 113.576 109.463 113.384 109.656C113.191 109.837 113.095 110.098 113.095 110.438C113.095 110.721 113.168 110.948 113.316 111.118C113.474 111.277 113.701 111.413 113.996 111.526C114.302 111.639 114.67 111.764 115.101 111.9C115.769 112.093 116.347 112.285 116.835 112.478C117.333 112.671 117.719 112.92 117.991 113.226C118.263 113.532 118.399 113.957 118.399 114.501C118.399 115.34 118.081 115.997 117.447 116.473C116.812 116.938 115.973 117.17 114.931 117.17ZM119.491 114.433C119.491 113.866 119.65 113.379 119.967 112.971C120.296 112.552 120.744 112.229 121.31 112.002C121.877 111.775 122.534 111.662 123.282 111.662C123.679 111.662 124.098 111.696 124.54 111.764C124.982 111.821 125.373 111.911 125.713 112.036V111.39C125.713 110.71 125.509 110.177 125.101 109.792C124.693 109.395 124.115 109.197 123.367 109.197C122.88 109.197 122.41 109.288 121.956 109.469C121.514 109.639 121.044 109.888 120.545 110.217L120.001 109.163C120.579 108.766 121.157 108.472 121.735 108.279C122.313 108.075 122.914 107.973 123.537 107.973C124.671 107.973 125.566 108.29 126.223 108.925C126.881 109.548 127.209 110.421 127.209 111.543V115.3C127.209 115.481 127.243 115.617 127.311 115.708C127.391 115.787 127.515 115.833 127.685 115.844V117C127.538 117.023 127.408 117.04 127.294 117.051C127.192 117.062 127.107 117.068 127.039 117.068C126.688 117.068 126.422 116.972 126.24 116.779C126.07 116.586 125.974 116.382 125.951 116.167L125.917 115.606C125.532 116.105 125.028 116.49 124.404 116.762C123.781 117.034 123.163 117.17 122.551 117.17C121.962 117.17 121.435 117.051 120.97 116.813C120.506 116.564 120.143 116.235 119.882 115.827C119.622 115.408 119.491 114.943 119.491 114.433ZM125.271 115.062C125.407 114.903 125.515 114.745 125.594 114.586C125.674 114.416 125.713 114.274 125.713 114.161V113.056C125.362 112.92 124.994 112.818 124.608 112.75C124.223 112.671 123.843 112.631 123.469 112.631C122.71 112.631 122.092 112.784 121.616 113.09C121.152 113.385 120.919 113.793 120.919 114.314C120.919 114.597 120.993 114.875 121.14 115.147C121.299 115.408 121.526 115.623 121.82 115.793C122.126 115.963 122.5 116.048 122.942 116.048C123.407 116.048 123.849 115.957 124.268 115.776C124.688 115.583 125.022 115.345 125.271 115.062ZM133.529 117.17C132.86 117.17 132.248 117.051 131.693 116.813C131.149 116.564 130.673 116.224 130.265 115.793C129.868 115.362 129.556 114.869 129.33 114.314C129.114 113.759 129.007 113.169 129.007 112.546C129.007 111.707 129.194 110.942 129.568 110.251C129.942 109.56 130.469 109.01 131.149 108.602C131.829 108.183 132.616 107.973 133.512 107.973C134.384 107.973 135.144 108.171 135.79 108.568C136.447 108.953 136.934 109.475 137.252 110.132L135.79 110.591C135.563 110.172 135.246 109.849 134.838 109.622C134.43 109.384 133.976 109.265 133.478 109.265C132.934 109.265 132.435 109.407 131.982 109.69C131.54 109.973 131.188 110.364 130.928 110.863C130.667 111.35 130.537 111.911 130.537 112.546C130.537 113.169 130.667 113.736 130.928 114.246C131.2 114.745 131.557 115.141 131.999 115.436C132.452 115.731 132.951 115.878 133.495 115.878C133.846 115.878 134.18 115.816 134.498 115.691C134.826 115.566 135.11 115.402 135.348 115.198C135.597 114.983 135.767 114.75 135.858 114.501L137.32 114.943C137.138 115.374 136.861 115.759 136.487 116.099C136.124 116.428 135.688 116.688 135.178 116.881C134.679 117.074 134.129 117.17 133.529 117.17ZM143.605 116.558C143.48 116.615 143.31 116.688 143.095 116.779C142.879 116.87 142.63 116.949 142.347 117.017C142.063 117.085 141.763 117.119 141.446 117.119C141.083 117.119 140.749 117.057 140.443 116.932C140.137 116.796 139.893 116.592 139.712 116.32C139.53 116.037 139.44 115.685 139.44 115.266V109.299H138.233V108.126H139.44V105.168H140.936V108.126H142.925V109.299H140.936V114.807C140.958 115.124 141.066 115.362 141.259 115.521C141.451 115.668 141.678 115.742 141.939 115.742C142.233 115.742 142.505 115.691 142.755 115.589C143.004 115.487 143.168 115.413 143.248 115.368L143.605 116.558ZM144.991 117V108.126H146.487V117H144.991ZM144.991 106.46V104.59H146.487V106.46H144.991ZM152.785 117.17C152.116 117.17 151.51 117.051 150.966 116.813C150.422 116.564 149.952 116.229 149.555 115.81C149.158 115.379 148.852 114.886 148.637 114.331C148.422 113.776 148.314 113.192 148.314 112.58C148.314 111.957 148.422 111.367 148.637 110.812C148.852 110.257 149.158 109.769 149.555 109.35C149.952 108.919 150.422 108.585 150.966 108.347C151.521 108.098 152.128 107.973 152.785 107.973C153.454 107.973 154.06 108.098 154.604 108.347C155.148 108.585 155.618 108.919 156.015 109.35C156.423 109.769 156.735 110.257 156.95 110.812C157.165 111.367 157.273 111.957 157.273 112.58C157.273 113.192 157.165 113.776 156.95 114.331C156.735 114.886 156.429 115.379 156.032 115.81C155.635 116.229 155.159 116.564 154.604 116.813C154.06 117.051 153.454 117.17 152.785 117.17ZM149.844 112.597C149.844 113.209 149.974 113.764 150.235 114.263C150.507 114.762 150.864 115.158 151.306 115.453C151.748 115.736 152.241 115.878 152.785 115.878C153.329 115.878 153.822 115.731 154.264 115.436C154.717 115.141 155.074 114.745 155.335 114.246C155.607 113.736 155.743 113.175 155.743 112.563C155.743 111.951 155.607 111.396 155.335 110.897C155.074 110.398 154.717 110.002 154.264 109.707C153.822 109.412 153.329 109.265 152.785 109.265C152.241 109.265 151.748 109.418 151.306 109.724C150.864 110.019 150.507 110.415 150.235 110.914C149.974 111.413 149.844 111.974 149.844 112.597ZM166.787 117H165.291V112.036C165.291 111.095 165.144 110.41 164.849 109.979C164.566 109.537 164.129 109.316 163.54 109.316C163.132 109.316 162.724 109.418 162.316 109.622C161.919 109.826 161.562 110.104 161.245 110.455C160.939 110.795 160.718 111.192 160.582 111.645V117H159.086V108.126H160.446V110.03C160.684 109.611 160.99 109.248 161.364 108.942C161.738 108.636 162.163 108.398 162.639 108.228C163.115 108.058 163.614 107.973 164.135 107.973C164.645 107.973 165.07 108.069 165.41 108.262C165.761 108.443 166.033 108.704 166.226 109.044C166.43 109.373 166.572 109.764 166.651 110.217C166.742 110.67 166.787 111.163 166.787 111.696V117ZM178.19 117.17C177.465 117.17 176.819 116.989 176.252 116.626C175.685 116.263 175.238 115.804 174.909 115.249V120.621H173.413V108.126H174.739V109.792C175.09 109.248 175.549 108.812 176.116 108.483C176.683 108.143 177.3 107.973 177.969 107.973C178.581 107.973 179.142 108.098 179.652 108.347C180.162 108.596 180.604 108.936 180.978 109.367C181.352 109.798 181.641 110.291 181.845 110.846C182.06 111.39 182.168 111.962 182.168 112.563C182.168 113.402 181.998 114.172 181.658 114.875C181.329 115.578 180.865 116.139 180.264 116.558C179.663 116.966 178.972 117.17 178.19 117.17ZM177.731 115.878C178.173 115.878 178.57 115.787 178.921 115.606C179.284 115.413 179.59 115.164 179.839 114.858C180.1 114.541 180.298 114.184 180.434 113.787C180.57 113.39 180.638 112.982 180.638 112.563C180.638 112.121 180.559 111.702 180.4 111.305C180.253 110.908 180.037 110.557 179.754 110.251C179.482 109.945 179.159 109.707 178.785 109.537C178.422 109.356 178.026 109.265 177.595 109.265C177.323 109.265 177.04 109.316 176.745 109.418C176.462 109.52 176.19 109.667 175.929 109.86C175.668 110.041 175.447 110.251 175.266 110.489C175.085 110.727 174.966 110.982 174.909 111.254V113.787C175.079 114.172 175.306 114.524 175.589 114.841C175.872 115.158 176.201 115.413 176.575 115.606C176.949 115.787 177.334 115.878 177.731 115.878ZM188.697 109.435C187.949 109.446 187.286 109.639 186.708 110.013C186.141 110.376 185.739 110.88 185.501 111.526V117H184.005V108.126H185.399V110.183C185.705 109.571 186.107 109.078 186.606 108.704C187.116 108.319 187.649 108.103 188.204 108.058C188.317 108.058 188.414 108.058 188.493 108.058C188.572 108.058 188.64 108.064 188.697 108.075V109.435ZM193.841 117.17C193.172 117.17 192.566 117.051 192.022 116.813C191.478 116.564 191.007 116.229 190.611 115.81C190.214 115.379 189.908 114.886 189.693 114.331C189.477 113.776 189.37 113.192 189.37 112.58C189.37 111.957 189.477 111.367 189.693 110.812C189.908 110.257 190.214 109.769 190.611 109.35C191.007 108.919 191.478 108.585 192.022 108.347C192.577 108.098 193.183 107.973 193.841 107.973C194.509 107.973 195.116 108.098 195.66 108.347C196.204 108.585 196.674 108.919 197.071 109.35C197.479 109.769 197.79 110.257 198.006 110.812C198.221 111.367 198.329 111.957 198.329 112.58C198.329 113.192 198.221 113.776 198.006 114.331C197.79 114.886 197.484 115.379 197.088 115.81C196.691 116.229 196.215 116.564 195.66 116.813C195.116 117.051 194.509 117.17 193.841 117.17ZM190.9 112.597C190.9 113.209 191.03 113.764 191.291 114.263C191.563 114.762 191.92 115.158 192.362 115.453C192.804 115.736 193.297 115.878 193.841 115.878C194.385 115.878 194.878 115.731 195.32 115.436C195.773 115.141 196.13 114.745 196.391 114.246C196.663 113.736 196.799 113.175 196.799 112.563C196.799 111.951 196.663 111.396 196.391 110.897C196.13 110.398 195.773 110.002 195.32 109.707C194.878 109.412 194.385 109.265 193.841 109.265C193.297 109.265 192.804 109.418 192.362 109.724C191.92 110.019 191.563 110.415 191.291 110.914C191.03 111.413 190.9 111.974 190.9 112.597ZM204.069 117.17C203.4 117.17 202.788 117.051 202.233 116.813C201.689 116.564 201.213 116.224 200.805 115.793C200.408 115.362 200.096 114.869 199.87 114.314C199.654 113.759 199.547 113.169 199.547 112.546C199.547 111.707 199.734 110.942 200.108 110.251C200.482 109.56 201.009 109.01 201.689 108.602C202.369 108.183 203.156 107.973 204.052 107.973C204.924 107.973 205.684 108.171 206.33 108.568C206.987 108.953 207.474 109.475 207.792 110.132L206.33 110.591C206.103 110.172 205.786 109.849 205.378 109.622C204.97 109.384 204.516 109.265 204.018 109.265C203.474 109.265 202.975 109.407 202.522 109.69C202.08 109.973 201.728 110.364 201.468 110.863C201.207 111.35 201.077 111.911 201.077 112.546C201.077 113.169 201.207 113.736 201.468 114.246C201.74 114.745 202.097 115.141 202.539 115.436C202.992 115.731 203.491 115.878 204.035 115.878C204.386 115.878 204.72 115.816 205.038 115.691C205.366 115.566 205.65 115.402 205.888 115.198C206.137 114.983 206.307 114.75 206.398 114.501L207.86 114.943C207.678 115.374 207.401 115.759 207.027 116.099C206.664 116.428 206.228 116.688 205.718 116.881C205.219 117.074 204.669 117.17 204.069 117.17ZM213.399 117.17C212.73 117.17 212.118 117.051 211.563 116.813C211.019 116.564 210.543 116.229 210.135 115.81C209.738 115.379 209.426 114.886 209.2 114.331C208.984 113.776 208.877 113.186 208.877 112.563C208.877 111.724 209.069 110.959 209.455 110.268C209.84 109.577 210.373 109.021 211.053 108.602C211.744 108.183 212.532 107.973 213.416 107.973C214.311 107.973 215.087 108.188 215.745 108.619C216.413 109.038 216.929 109.594 217.292 110.285C217.666 110.965 217.853 111.702 217.853 112.495C217.853 112.608 217.847 112.722 217.836 112.835C217.836 112.937 217.83 113.016 217.819 113.073H210.458C210.503 113.651 210.662 114.167 210.934 114.62C211.217 115.062 211.58 115.413 212.022 115.674C212.464 115.923 212.94 116.048 213.45 116.048C213.994 116.048 214.504 115.912 214.98 115.64C215.467 115.368 215.801 115.011 215.983 114.569L217.275 114.926C217.082 115.357 216.793 115.742 216.408 116.082C216.034 116.422 215.586 116.688 215.065 116.881C214.555 117.074 213.999 117.17 213.399 117.17ZM210.407 112.036H216.459C216.413 111.458 216.249 110.948 215.966 110.506C215.682 110.064 215.32 109.718 214.878 109.469C214.436 109.22 213.948 109.095 213.416 109.095C212.894 109.095 212.413 109.22 211.971 109.469C211.529 109.718 211.166 110.064 210.883 110.506C210.611 110.948 210.452 111.458 210.407 112.036ZM222.559 117.17C221.822 117.17 221.131 117.051 220.485 116.813C219.839 116.564 219.283 116.195 218.819 115.708L219.397 114.654C219.907 115.13 220.417 115.47 220.927 115.674C221.437 115.878 221.958 115.98 222.491 115.98C223.103 115.98 223.601 115.867 223.987 115.64C224.372 115.402 224.565 115.056 224.565 114.603C224.565 114.274 224.463 114.031 224.259 113.872C224.066 113.713 223.788 113.583 223.426 113.481C223.063 113.368 222.632 113.243 222.134 113.107C221.522 112.926 221.006 112.733 220.587 112.529C220.167 112.325 219.85 112.07 219.635 111.764C219.419 111.458 219.312 111.073 219.312 110.608C219.312 110.041 219.459 109.565 219.754 109.18C220.048 108.783 220.451 108.483 220.961 108.279C221.482 108.075 222.071 107.973 222.729 107.973C223.386 107.973 223.981 108.075 224.514 108.279C225.046 108.483 225.505 108.783 225.891 109.18L225.211 110.217C224.859 109.854 224.474 109.588 224.055 109.418C223.635 109.237 223.165 109.146 222.644 109.146C222.338 109.146 222.037 109.186 221.743 109.265C221.448 109.333 221.204 109.463 221.012 109.656C220.819 109.837 220.723 110.098 220.723 110.438C220.723 110.721 220.796 110.948 220.944 111.118C221.102 111.277 221.329 111.413 221.624 111.526C221.93 111.639 222.298 111.764 222.729 111.9C223.397 112.093 223.975 112.285 224.463 112.478C224.961 112.671 225.347 112.92 225.619 113.226C225.891 113.532 226.027 113.957 226.027 114.501C226.027 115.34 225.709 115.997 225.075 116.473C224.44 116.938 223.601 117.17 222.559 117.17ZM230.859 117.17C230.123 117.17 229.431 117.051 228.785 116.813C228.139 116.564 227.584 116.195 227.119 115.708L227.697 114.654C228.207 115.13 228.717 115.47 229.227 115.674C229.737 115.878 230.259 115.98 230.791 115.98C231.403 115.98 231.902 115.867 232.287 115.64C232.673 115.402 232.865 115.056 232.865 114.603C232.865 114.274 232.763 114.031 232.559 113.872C232.367 113.713 232.089 113.583 231.726 113.481C231.364 113.368 230.933 113.243 230.434 113.107C229.822 112.926 229.307 112.733 228.887 112.529C228.468 112.325 228.151 112.07 227.935 111.764C227.72 111.458 227.612 111.073 227.612 110.608C227.612 110.041 227.76 109.565 228.054 109.18C228.349 108.783 228.751 108.483 229.261 108.279C229.783 108.075 230.372 107.973 231.029 107.973C231.687 107.973 232.282 108.075 232.814 108.279C233.347 108.483 233.806 108.783 234.191 109.18L233.511 110.217C233.16 109.854 232.775 109.588 232.355 109.418C231.936 109.237 231.466 109.146 230.944 109.146C230.638 109.146 230.338 109.186 230.043 109.265C229.749 109.333 229.505 109.463 229.312 109.656C229.12 109.837 229.023 110.098 229.023 110.438C229.023 110.721 229.097 110.948 229.244 111.118C229.403 111.277 229.63 111.413 229.924 111.526C230.23 111.639 230.599 111.764 231.029 111.9C231.698 112.093 232.276 112.285 232.763 112.478C233.262 112.671 233.647 112.92 233.919 113.226C234.191 113.532 234.327 113.957 234.327 114.501C234.327 115.34 234.01 115.997 233.375 116.473C232.741 116.938 231.902 117.17 230.859 117.17ZM236.117 117V108.126H237.613V117H236.117ZM236.117 106.46V104.59H237.613V106.46H236.117ZM247.736 117H246.24V112.036C246.24 111.095 246.093 110.41 245.798 109.979C245.515 109.537 245.078 109.316 244.489 109.316C244.081 109.316 243.673 109.418 243.265 109.622C242.868 109.826 242.511 110.104 242.194 110.455C241.888 110.795 241.667 111.192 241.531 111.645V117H240.035V108.126H241.395V110.03C241.633 109.611 241.939 109.248 242.313 108.942C242.687 108.636 243.112 108.398 243.588 108.228C244.064 108.058 244.563 107.973 245.084 107.973C245.594 107.973 246.019 108.069 246.359 108.262C246.71 108.443 246.982 108.704 247.175 109.044C247.379 109.373 247.521 109.764 247.6 110.217C247.691 110.67 247.736 111.163 247.736 111.696V117ZM253.598 117.102C252.998 117.102 252.442 116.983 251.932 116.745C251.434 116.496 251.003 116.161 250.64 115.742C250.278 115.311 249.994 114.824 249.79 114.28C249.598 113.736 249.501 113.169 249.501 112.58C249.501 111.957 249.598 111.367 249.79 110.812C249.994 110.257 250.278 109.769 250.64 109.35C251.014 108.919 251.451 108.585 251.949 108.347C252.448 108.098 253.003 107.973 253.615 107.973C254.352 107.973 254.992 108.154 255.536 108.517C256.092 108.88 256.556 109.339 256.93 109.894V108.126H258.256V116.898C258.256 117.737 258.052 118.445 257.644 119.023C257.248 119.601 256.704 120.037 256.012 120.332C255.332 120.638 254.573 120.791 253.734 120.791C252.737 120.791 251.921 120.615 251.286 120.264C250.652 119.913 250.125 119.437 249.705 118.836L250.572 118.071C250.924 118.592 251.377 118.983 251.932 119.244C252.499 119.505 253.1 119.635 253.734 119.635C254.278 119.635 254.777 119.533 255.23 119.329C255.695 119.136 256.063 118.836 256.335 118.428C256.619 118.02 256.76 117.51 256.76 116.898V115.334C256.432 115.878 255.978 116.309 255.4 116.626C254.834 116.943 254.233 117.102 253.598 117.102ZM254.057 115.878C254.375 115.878 254.681 115.821 254.975 115.708C255.27 115.595 255.542 115.447 255.791 115.266C256.041 115.073 256.25 114.858 256.42 114.62C256.59 114.382 256.704 114.138 256.76 113.889V111.339C256.602 110.931 256.375 110.574 256.08 110.268C255.786 109.951 255.451 109.707 255.077 109.537C254.703 109.356 254.318 109.265 253.921 109.265C253.468 109.265 253.06 109.361 252.697 109.554C252.346 109.747 252.046 110.007 251.796 110.336C251.547 110.653 251.354 111.01 251.218 111.407C251.082 111.804 251.014 112.206 251.014 112.614C251.014 113.056 251.094 113.475 251.252 113.872C251.411 114.257 251.626 114.603 251.898 114.909C252.17 115.215 252.493 115.453 252.867 115.623C253.241 115.793 253.638 115.878 254.057 115.878Z" fill="#828282"/>
<path d="M52.8253 117.992C53.0645 117.854 53.3703 117.936 53.5083 118.175C53.6464 118.414 53.5645 118.72 53.3253 118.858L52.8253 117.992ZM56.9076 106.054C56.8362 106.321 56.562 106.479 56.2953 106.408L51.9486 105.243C51.6819 105.171 51.5236 104.897 51.5951 104.631C51.6665 104.364 51.9407 104.206 52.2074 104.277L56.0711 105.312L57.1064 101.449C57.1779 101.182 57.452 101.024 57.7188 101.095C57.9855 101.167 58.1438 101.441 58.0723 101.707L56.9076 106.054ZM44.1747 103.008C40.0371 105.397 38.6195 110.688 41.0083 114.825L40.1423 115.325C37.4774 110.709 39.0589 104.807 43.6747 102.142L44.1747 103.008ZM41.0083 114.825C43.3971 118.963 48.6878 120.38 52.8253 117.992L53.3253 118.858C48.7095 121.523 42.8073 119.941 40.1423 115.325L41.0083 114.825ZM55.9917 106.175C53.6029 102.037 48.3122 100.62 44.1747 103.008L43.6747 102.142C48.2905 99.4774 54.1927 101.059 56.8577 105.675L55.9917 106.175Z" fill="#828282"/>
<path d="M46.6698 107.755L46.6698 110.33C46.6698 111.435 47.5653 112.33 48.6698 112.33L50.3301 112.33" stroke="#828282" stroke-linecap="round"/>
<path d="M77.117 161.93H78.409L83.339 174H81.707L80.279 170.464H75.213L73.802 174H72.17L77.117 161.93ZM79.939 169.274L77.763 163.698L75.519 169.274H79.939ZM89.4889 174.17C88.7635 174.17 88.1175 173.989 87.5509 173.626C86.9842 173.263 86.5365 172.804 86.2079 172.249V177.621H84.7119V165.126H86.0379V166.792C86.3892 166.248 86.8482 165.812 87.4149 165.483C87.9815 165.143 88.5992 164.973 89.2679 164.973C89.8799 164.973 90.4409 165.098 90.9509 165.347C91.4609 165.596 91.9029 165.936 92.2769 166.367C92.6509 166.798 92.9399 167.291 93.1439 167.846C93.3592 168.39 93.4669 168.962 93.4669 169.563C93.4669 170.402 93.2969 171.172 92.9569 171.875C92.6282 172.578 92.1635 173.139 91.5629 173.558C90.9622 173.966 90.2709 174.17 89.4889 174.17ZM89.0299 172.878C89.4719 172.878 89.8685 172.787 90.2199 172.606C90.5825 172.413 90.8885 172.164 91.1379 171.858C91.3986 171.541 91.5969 171.184 91.7329 170.787C91.8689 170.39 91.9369 169.982 91.9369 169.563C91.9369 169.121 91.8575 168.702 91.6989 168.305C91.5515 167.908 91.3362 167.557 91.0529 167.251C90.7809 166.945 90.4579 166.707 90.0839 166.537C89.7212 166.356 89.3245 166.265 88.8939 166.265C88.6219 166.265 88.3385 166.316 88.0439 166.418C87.7605 166.52 87.4885 166.667 87.2279 166.86C86.9672 167.041 86.7462 167.251 86.5649 167.489C86.3835 167.727 86.2645 167.982 86.2079 168.254V170.787C86.3779 171.172 86.6045 171.524 86.8879 171.841C87.1712 172.158 87.4999 172.413 87.8739 172.606C88.2479 172.787 88.6332 172.878 89.0299 172.878ZM100.081 174.17C99.3553 174.17 98.7093 173.989 98.1427 173.626C97.576 173.263 97.1283 172.804 96.7997 172.249V177.621H95.3037V165.126H96.6297V166.792C96.981 166.248 97.44 165.812 98.0067 165.483C98.5733 165.143 99.191 164.973 99.8597 164.973C100.472 164.973 101.033 165.098 101.543 165.347C102.053 165.596 102.495 165.936 102.869 166.367C103.243 166.798 103.532 167.291 103.736 167.846C103.951 168.39 104.059 168.962 104.059 169.563C104.059 170.402 103.889 171.172 103.549 171.875C103.22 172.578 102.755 173.139 102.155 173.558C101.554 173.966 100.863 174.17 100.081 174.17ZM99.6217 172.878C100.064 172.878 100.46 172.787 100.812 172.606C101.174 172.413 101.48 172.164 101.73 171.858C101.99 171.541 102.189 171.184 102.325 170.787C102.461 170.39 102.529 169.982 102.529 169.563C102.529 169.121 102.449 168.702 102.291 168.305C102.143 167.908 101.928 167.557 101.645 167.251C101.373 166.945 101.05 166.707 100.676 166.537C100.313 166.356 99.9163 166.265 99.4857 166.265C99.2137 166.265 98.9303 166.316 98.6357 166.418C98.3523 166.52 98.0803 166.667 97.8197 166.86C97.559 167.041 97.338 167.251 97.1567 167.489C96.9753 167.727 96.8563 167.982 96.7997 168.254V170.787C96.9697 171.172 97.1963 171.524 97.4797 171.841C97.763 172.158 98.0917 172.413 98.4657 172.606C98.8397 172.787 99.225 172.878 99.6217 172.878ZM110.587 166.435C109.839 166.446 109.176 166.639 108.598 167.013C108.032 167.376 107.629 167.88 107.391 168.526V174H105.895V165.126H107.289V167.183C107.595 166.571 107.998 166.078 108.496 165.704C109.006 165.319 109.539 165.103 110.094 165.058C110.208 165.058 110.304 165.058 110.383 165.058C110.463 165.058 110.531 165.064 110.587 165.075V166.435ZM115.731 174.17C115.063 174.17 114.456 174.051 113.912 173.813C113.368 173.564 112.898 173.229 112.501 172.81C112.105 172.379 111.799 171.886 111.583 171.331C111.368 170.776 111.26 170.192 111.26 169.58C111.26 168.957 111.368 168.367 111.583 167.812C111.799 167.257 112.105 166.769 112.501 166.35C112.898 165.919 113.368 165.585 113.912 165.347C114.468 165.098 115.074 164.973 115.731 164.973C116.4 164.973 117.006 165.098 117.55 165.347C118.094 165.585 118.565 165.919 118.961 166.35C119.369 166.769 119.681 167.257 119.896 167.812C120.112 168.367 120.219 168.957 120.219 169.58C120.219 170.192 120.112 170.776 119.896 171.331C119.681 171.886 119.375 172.379 118.978 172.81C118.582 173.229 118.106 173.564 117.55 173.813C117.006 174.051 116.4 174.17 115.731 174.17ZM112.79 169.597C112.79 170.209 112.921 170.764 113.181 171.263C113.453 171.762 113.81 172.158 114.252 172.453C114.694 172.736 115.187 172.878 115.731 172.878C116.275 172.878 116.768 172.731 117.21 172.436C117.664 172.141 118.021 171.745 118.281 171.246C118.553 170.736 118.689 170.175 118.689 169.563C118.689 168.951 118.553 168.396 118.281 167.897C118.021 167.398 117.664 167.002 117.21 166.707C116.768 166.412 116.275 166.265 115.731 166.265C115.187 166.265 114.694 166.418 114.252 166.724C113.81 167.019 113.453 167.415 113.181 167.914C112.921 168.413 112.79 168.974 112.79 169.597ZM124.283 174L120.798 165.126H122.362L125.15 172.572L127.938 165.126H129.4L125.915 174H124.283ZM130.897 174V165.126H132.393V174H130.897ZM130.897 163.46V161.59H132.393V163.46H130.897ZM142.516 174H141.02V169.036C141.02 168.095 140.873 167.41 140.578 166.979C140.295 166.537 139.859 166.316 139.269 166.316C138.861 166.316 138.453 166.418 138.045 166.622C137.649 166.826 137.292 167.104 136.974 167.455C136.668 167.795 136.447 168.192 136.311 168.645V174H134.815V165.126H136.175V167.03C136.413 166.611 136.719 166.248 137.093 165.942C137.467 165.636 137.892 165.398 138.368 165.228C138.844 165.058 139.343 164.973 139.864 164.973C140.374 164.973 140.799 165.069 141.139 165.262C141.491 165.443 141.763 165.704 141.955 166.044C142.159 166.373 142.301 166.764 142.38 167.217C142.471 167.67 142.516 168.163 142.516 168.696V174ZM148.379 174.102C147.778 174.102 147.223 173.983 146.713 173.745C146.214 173.496 145.783 173.161 145.421 172.742C145.058 172.311 144.775 171.824 144.571 171.28C144.378 170.736 144.282 170.169 144.282 169.58C144.282 168.957 144.378 168.367 144.571 167.812C144.775 167.257 145.058 166.769 145.421 166.35C145.795 165.919 146.231 165.585 146.73 165.347C147.228 165.098 147.784 164.973 148.396 164.973C149.132 164.973 149.773 165.154 150.317 165.517C150.872 165.88 151.337 166.339 151.711 166.894V165.126H153.037V173.898C153.037 174.737 152.833 175.445 152.425 176.023C152.028 176.601 151.484 177.037 150.793 177.332C150.113 177.638 149.353 177.791 148.515 177.791C147.517 177.791 146.701 177.615 146.067 177.264C145.432 176.913 144.905 176.437 144.486 175.836L145.353 175.071C145.704 175.592 146.157 175.983 146.713 176.244C147.279 176.505 147.88 176.635 148.515 176.635C149.059 176.635 149.557 176.533 150.011 176.329C150.475 176.136 150.844 175.836 151.116 175.428C151.399 175.02 151.541 174.51 151.541 173.898V172.334C151.212 172.878 150.759 173.309 150.181 173.626C149.614 173.943 149.013 174.102 148.379 174.102ZM148.838 172.878C149.155 172.878 149.461 172.821 149.756 172.708C150.05 172.595 150.322 172.447 150.572 172.266C150.821 172.073 151.031 171.858 151.201 171.62C151.371 171.382 151.484 171.138 151.541 170.889V168.339C151.382 167.931 151.155 167.574 150.861 167.268C150.566 166.951 150.232 166.707 149.858 166.537C149.484 166.356 149.098 166.265 148.702 166.265C148.248 166.265 147.84 166.361 147.478 166.554C147.126 166.747 146.826 167.007 146.577 167.336C146.327 167.653 146.135 168.01 145.999 168.407C145.863 168.804 145.795 169.206 145.795 169.614C145.795 170.056 145.874 170.475 146.033 170.872C146.191 171.257 146.407 171.603 146.679 171.909C146.951 172.215 147.274 172.453 147.648 172.623C148.022 172.793 148.418 172.878 148.838 172.878ZM159.751 174V165.126H161.247V174H159.751ZM159.751 163.46V161.59H161.247V163.46H159.751ZM171.37 174H169.874V169.036C169.874 168.095 169.727 167.41 169.432 166.979C169.149 166.537 168.712 166.316 168.123 166.316C167.715 166.316 167.307 166.418 166.899 166.622C166.502 166.826 166.145 167.104 165.828 167.455C165.522 167.795 165.301 168.192 165.165 168.645V174H163.669V165.126H165.029V167.03C165.267 166.611 165.573 166.248 165.947 165.942C166.321 165.636 166.746 165.398 167.222 165.228C167.698 165.058 168.197 164.973 168.718 164.973C169.228 164.973 169.653 165.069 169.993 165.262C170.344 165.443 170.616 165.704 170.809 166.044C171.013 166.373 171.155 166.764 171.234 167.217C171.325 167.67 171.37 168.163 171.37 168.696V174ZM182.552 174.17C181.861 174.17 181.232 174 180.665 173.66C180.098 173.32 179.651 172.878 179.322 172.334V174H177.996V161.59H179.492V166.894C179.866 166.316 180.325 165.851 180.869 165.5C181.413 165.149 182.048 164.973 182.773 164.973C183.385 164.973 183.935 165.103 184.422 165.364C184.909 165.613 185.323 165.959 185.663 166.401C186.014 166.832 186.281 167.325 186.462 167.88C186.655 168.424 186.751 168.996 186.751 169.597C186.751 170.22 186.643 170.81 186.428 171.365C186.224 171.909 185.929 172.396 185.544 172.827C185.159 173.246 184.711 173.575 184.201 173.813C183.702 174.051 183.153 174.17 182.552 174.17ZM182.178 172.878C182.62 172.878 183.028 172.787 183.402 172.606C183.776 172.425 184.099 172.181 184.371 171.875C184.643 171.569 184.853 171.218 185 170.821C185.147 170.424 185.221 170.016 185.221 169.597C185.221 169.019 185.096 168.475 184.847 167.965C184.609 167.455 184.269 167.047 183.827 166.741C183.396 166.424 182.892 166.265 182.314 166.265C181.895 166.265 181.504 166.361 181.141 166.554C180.778 166.747 180.455 167.002 180.172 167.319C179.9 167.625 179.673 167.965 179.492 168.339V170.906C179.549 171.189 179.668 171.45 179.849 171.688C180.03 171.926 180.251 172.136 180.512 172.317C180.773 172.487 181.045 172.623 181.328 172.725C181.623 172.827 181.906 172.878 182.178 172.878ZM188.622 161.59H190.118V171.705C190.118 172.192 190.186 172.493 190.322 172.606C190.458 172.719 190.622 172.776 190.815 172.776C191.053 172.776 191.28 172.753 191.495 172.708C191.71 172.651 191.892 172.595 192.039 172.538L192.277 173.762C192.028 173.864 191.733 173.949 191.393 174.017C191.053 174.085 190.753 174.119 190.492 174.119C189.914 174.119 189.455 173.955 189.115 173.626C188.786 173.297 188.622 172.838 188.622 172.249V161.59ZM197.328 174.17C196.659 174.17 196.053 174.051 195.509 173.813C194.965 173.564 194.495 173.229 194.098 172.81C193.701 172.379 193.395 171.886 193.18 171.331C192.965 170.776 192.857 170.192 192.857 169.58C192.857 168.957 192.965 168.367 193.18 167.812C193.395 167.257 193.701 166.769 194.098 166.35C194.495 165.919 194.965 165.585 195.509 165.347C196.064 165.098 196.671 164.973 197.328 164.973C197.997 164.973 198.603 165.098 199.147 165.347C199.691 165.585 200.161 165.919 200.558 166.35C200.966 166.769 201.278 167.257 201.493 167.812C201.708 168.367 201.816 168.957 201.816 169.58C201.816 170.192 201.708 170.776 201.493 171.331C201.278 171.886 200.972 172.379 200.575 172.81C200.178 173.229 199.702 173.564 199.147 173.813C198.603 174.051 197.997 174.17 197.328 174.17ZM194.387 169.597C194.387 170.209 194.517 170.764 194.778 171.263C195.05 171.762 195.407 172.158 195.849 172.453C196.291 172.736 196.784 172.878 197.328 172.878C197.872 172.878 198.365 172.731 198.807 172.436C199.26 172.141 199.617 171.745 199.878 171.246C200.15 170.736 200.286 170.175 200.286 169.563C200.286 168.951 200.15 168.396 199.878 167.897C199.617 167.398 199.26 167.002 198.807 166.707C198.365 166.412 197.872 166.265 197.328 166.265C196.784 166.265 196.291 166.418 195.849 166.724C195.407 167.019 195.05 167.415 194.778 167.914C194.517 168.413 194.387 168.974 194.387 169.597ZM207.556 174.17C206.887 174.17 206.275 174.051 205.72 173.813C205.176 173.564 204.7 173.224 204.292 172.793C203.895 172.362 203.584 171.869 203.357 171.314C203.142 170.759 203.034 170.169 203.034 169.546C203.034 168.707 203.221 167.942 203.595 167.251C203.969 166.56 204.496 166.01 205.176 165.602C205.856 165.183 206.644 164.973 207.539 164.973C208.412 164.973 209.171 165.171 209.817 165.568C210.474 165.953 210.962 166.475 211.279 167.132L209.817 167.591C209.59 167.172 209.273 166.849 208.865 166.622C208.457 166.384 208.004 166.265 207.505 166.265C206.961 166.265 206.462 166.407 206.009 166.69C205.567 166.973 205.216 167.364 204.955 167.863C204.694 168.35 204.564 168.911 204.564 169.546C204.564 170.169 204.694 170.736 204.955 171.246C205.227 171.745 205.584 172.141 206.026 172.436C206.479 172.731 206.978 172.878 207.522 172.878C207.873 172.878 208.208 172.816 208.525 172.691C208.854 172.566 209.137 172.402 209.375 172.198C209.624 171.983 209.794 171.75 209.885 171.501L211.347 171.943C211.166 172.374 210.888 172.759 210.514 173.099C210.151 173.428 209.715 173.688 209.205 173.881C208.706 174.074 208.157 174.17 207.556 174.17ZM219.298 174L216.221 169.682L214.538 171.263V174H213.042V161.59H214.538V169.699L219.128 165.143H220.743L217.207 168.815L220.913 174H219.298ZM225.668 174.17C225 174.17 224.388 174.051 223.832 173.813C223.288 173.564 222.812 173.224 222.404 172.793C222.008 172.362 221.696 171.869 221.469 171.314C221.254 170.759 221.146 170.169 221.146 169.546C221.146 168.707 221.333 167.942 221.707 167.251C222.081 166.56 222.608 166.01 223.288 165.602C223.968 165.183 224.756 164.973 225.651 164.973C226.524 164.973 227.283 165.171 227.929 165.568C228.587 165.953 229.074 166.475 229.391 167.132L227.929 167.591C227.703 167.172 227.385 166.849 226.977 166.622C226.569 166.384 226.116 166.265 225.617 166.265C225.073 166.265 224.575 166.407 224.121 166.69C223.679 166.973 223.328 167.364 223.067 167.863C222.807 168.35 222.676 168.911 222.676 169.546C222.676 170.169 222.807 170.736 223.067 171.246C223.339 171.745 223.696 172.141 224.138 172.436C224.592 172.731 225.09 172.878 225.634 172.878C225.986 172.878 226.32 172.816 226.637 172.691C226.966 172.566 227.249 172.402 227.487 172.198C227.737 171.983 227.907 171.75 227.997 171.501L229.459 171.943C229.278 172.374 229 172.759 228.626 173.099C228.264 173.428 227.827 173.688 227.317 173.881C226.819 174.074 226.269 174.17 225.668 174.17ZM238.855 174H237.359V169.036C237.359 168.129 237.195 167.449 236.866 166.996C236.549 166.543 236.09 166.316 235.489 166.316C235.104 166.316 234.713 166.418 234.316 166.622C233.931 166.826 233.591 167.104 233.296 167.455C233.002 167.795 232.786 168.192 232.65 168.645V174H231.154V161.59H232.65V167.03C233.002 166.395 233.478 165.897 234.078 165.534C234.69 165.16 235.348 164.973 236.05 164.973C236.583 164.973 237.025 165.069 237.376 165.262C237.739 165.443 238.028 165.704 238.243 166.044C238.459 166.384 238.612 166.781 238.702 167.234C238.804 167.676 238.855 168.163 238.855 168.696V174ZM240.485 171.433C240.485 170.866 240.643 170.379 240.961 169.971C241.289 169.552 241.737 169.229 242.304 169.002C242.87 168.775 243.528 168.662 244.276 168.662C244.672 168.662 245.092 168.696 245.534 168.764C245.976 168.821 246.367 168.911 246.707 169.036V168.39C246.707 167.71 246.503 167.177 246.095 166.792C245.687 166.395 245.109 166.197 244.361 166.197C243.873 166.197 243.403 166.288 242.95 166.469C242.508 166.639 242.037 166.888 241.539 167.217L240.995 166.163C241.573 165.766 242.151 165.472 242.729 165.279C243.307 165.075 243.907 164.973 244.531 164.973C245.664 164.973 246.559 165.29 247.217 165.925C247.874 166.548 248.203 167.421 248.203 168.543V172.3C248.203 172.481 248.237 172.617 248.305 172.708C248.384 172.787 248.509 172.833 248.679 172.844V174C248.531 174.023 248.401 174.04 248.288 174.051C248.186 174.062 248.101 174.068 248.033 174.068C247.681 174.068 247.415 173.972 247.234 173.779C247.064 173.586 246.967 173.382 246.945 173.167L246.911 172.606C246.525 173.105 246.021 173.49 245.398 173.762C244.774 174.034 244.157 174.17 243.545 174.17C242.955 174.17 242.428 174.051 241.964 173.813C241.499 173.564 241.136 173.235 240.876 172.827C240.615 172.408 240.485 171.943 240.485 171.433ZM246.265 172.062C246.401 171.903 246.508 171.745 246.588 171.586C246.667 171.416 246.707 171.274 246.707 171.161V170.056C246.355 169.92 245.987 169.818 245.602 169.75C245.216 169.671 244.837 169.631 244.463 169.631C243.703 169.631 243.086 169.784 242.61 170.09C242.145 170.385 241.913 170.793 241.913 171.314C241.913 171.597 241.986 171.875 242.134 172.147C242.292 172.408 242.519 172.623 242.814 172.793C243.12 172.963 243.494 173.048 243.936 173.048C244.4 173.048 244.842 172.957 245.262 172.776C245.681 172.583 246.015 172.345 246.265 172.062ZM250.595 174V165.126H252.091V174H250.595ZM250.595 163.46V161.59H252.091V163.46H250.595ZM262.214 174H260.718V169.036C260.718 168.095 260.57 167.41 260.276 166.979C259.992 166.537 259.556 166.316 258.967 166.316C258.559 166.316 258.151 166.418 257.743 166.622C257.346 166.826 256.989 167.104 256.672 167.455C256.366 167.795 256.145 168.192 256.009 168.645V174H254.513V165.126H255.873V167.03C256.111 166.611 256.417 166.248 256.791 165.942C257.165 165.636 257.59 165.398 258.066 165.228C258.542 165.058 259.04 164.973 259.562 164.973C260.072 164.973 260.497 165.069 260.837 165.262C261.188 165.443 261.46 165.704 261.653 166.044C261.857 166.373 261.998 166.764 262.078 167.217C262.168 167.67 262.214 168.163 262.214 168.696V174Z" fill="#828282"/>
<path d="M40.103 171.548L39.2445 171.999C37.6697 172.827 35.6379 172.388 34.5232 170.978V170.978C33.2098 169.317 33.6925 167.006 35.5546 166.041L42.032 162.683C43.7685 161.782 46.0112 162.521 46.8558 164.271V164.271C47.5143 165.636 47.1093 167.211 45.8759 168.082L44.7023 168.911" stroke="#828282" stroke-linecap="round"/>
<path d="M48.8301 163.376L49.6727 162.915C51.2366 162.061 53.2799 162.468 54.4201 163.861V163.861C55.7629 165.502 55.3181 167.821 53.4695 168.817L47.0684 172.264C45.3442 173.193 43.0852 172.491 42.2092 170.753V170.753C41.5261 169.399 41.9048 167.816 43.1254 166.925L44.2789 166.082" stroke="#828282" stroke-linecap="round"/>
<path d="M123.002 225.88C123.002 225.143 123.127 224.424 123.376 223.721C123.637 223.007 124.011 222.361 124.498 221.783C124.997 221.194 125.603 220.729 126.317 220.389C127.031 220.038 127.841 219.862 128.748 219.862C129.825 219.862 130.748 220.111 131.519 220.61C132.29 221.097 132.862 221.726 133.236 222.497L132.029 223.279C131.791 222.769 131.485 222.367 131.111 222.072C130.748 221.766 130.352 221.551 129.921 221.426C129.502 221.301 129.088 221.239 128.68 221.239C128.011 221.239 127.416 221.375 126.895 221.647C126.385 221.919 125.954 222.282 125.603 222.735C125.252 223.188 124.985 223.698 124.804 224.265C124.634 224.82 124.549 225.381 124.549 225.948C124.549 226.571 124.651 227.172 124.855 227.75C125.07 228.328 125.365 228.838 125.739 229.28C126.113 229.722 126.555 230.073 127.065 230.334C127.575 230.595 128.13 230.725 128.731 230.725C129.15 230.725 129.581 230.651 130.023 230.504C130.465 230.357 130.879 230.13 131.264 229.824C131.649 229.507 131.955 229.099 132.182 228.6L133.457 229.297C133.208 229.898 132.822 230.408 132.301 230.827C131.78 231.246 131.196 231.564 130.55 231.779C129.915 231.994 129.286 232.102 128.663 232.102C127.836 232.102 127.076 231.926 126.385 231.575C125.694 231.212 125.093 230.736 124.583 230.147C124.084 229.546 123.693 228.878 123.41 228.141C123.138 227.393 123.002 226.639 123.002 225.88ZM139.01 232.17C138.341 232.17 137.735 232.051 137.191 231.813C136.647 231.564 136.176 231.229 135.78 230.81C135.383 230.379 135.077 229.886 134.862 229.331C134.646 228.776 134.539 228.192 134.539 227.58C134.539 226.957 134.646 226.367 134.862 225.812C135.077 225.257 135.383 224.769 135.78 224.35C136.176 223.919 136.647 223.585 137.191 223.347C137.746 223.098 138.352 222.973 139.01 222.973C139.678 222.973 140.285 223.098 140.829 223.347C141.373 223.585 141.843 223.919 142.24 224.35C142.648 224.769 142.959 225.257 143.175 225.812C143.39 226.367 143.498 226.957 143.498 227.58C143.498 228.192 143.39 228.776 143.175 229.331C142.959 229.886 142.653 230.379 142.257 230.81C141.86 231.229 141.384 231.564 140.829 231.813C140.285 232.051 139.678 232.17 139.01 232.17ZM136.069 227.597C136.069 228.209 136.199 228.764 136.46 229.263C136.732 229.762 137.089 230.158 137.531 230.453C137.973 230.736 138.466 230.878 139.01 230.878C139.554 230.878 140.047 230.731 140.489 230.436C140.942 230.141 141.299 229.745 141.56 229.246C141.832 228.736 141.968 228.175 141.968 227.563C141.968 226.951 141.832 226.396 141.56 225.897C141.299 225.398 140.942 225.002 140.489 224.707C140.047 224.412 139.554 224.265 139.01 224.265C138.466 224.265 137.973 224.418 137.531 224.724C137.089 225.019 136.732 225.415 136.46 225.914C136.199 226.413 136.069 226.974 136.069 227.597ZM158.69 232H157.194V227.036C157.194 226.107 157.041 225.421 156.735 224.979C156.44 224.537 155.998 224.316 155.409 224.316C154.808 224.316 154.264 224.537 153.777 224.979C153.289 225.41 152.944 225.971 152.74 226.662V232H151.244V227.036C151.244 226.095 151.096 225.41 150.802 224.979C150.507 224.537 150.065 224.316 149.476 224.316C148.886 224.316 148.342 224.531 147.844 224.962C147.356 225.381 147.011 225.942 146.807 226.645V232H145.311V223.126H146.671V225.03C147.033 224.373 147.504 223.868 148.082 223.517C148.66 223.154 149.311 222.973 150.037 222.973C150.773 222.973 151.363 223.177 151.805 223.585C152.247 223.982 152.519 224.497 152.621 225.132C153.017 224.429 153.499 223.897 154.066 223.534C154.632 223.16 155.278 222.973 156.004 222.973C156.514 222.973 156.939 223.069 157.279 223.262C157.63 223.443 157.908 223.704 158.112 224.044C158.316 224.373 158.463 224.764 158.554 225.217C158.644 225.67 158.69 226.163 158.69 226.696V232ZM165.793 232.17C165.067 232.17 164.421 231.989 163.855 231.626C163.288 231.263 162.84 230.804 162.512 230.249V235.621H161.016V223.126H162.342V224.792C162.693 224.248 163.152 223.812 163.719 223.483C164.285 223.143 164.903 222.973 165.572 222.973C166.184 222.973 166.745 223.098 167.255 223.347C167.765 223.596 168.207 223.936 168.581 224.367C168.955 224.798 169.244 225.291 169.448 225.846C169.663 226.39 169.771 226.962 169.771 227.563C169.771 228.402 169.601 229.172 169.261 229.875C168.932 230.578 168.467 231.139 167.867 231.558C167.266 231.966 166.575 232.17 165.793 232.17ZM165.334 230.878C165.776 230.878 166.172 230.787 166.524 230.606C166.886 230.413 167.192 230.164 167.442 229.858C167.702 229.541 167.901 229.184 168.037 228.787C168.173 228.39 168.241 227.982 168.241 227.563C168.241 227.121 168.161 226.702 168.003 226.305C167.855 225.908 167.64 225.557 167.357 225.251C167.085 224.945 166.762 224.707 166.388 224.537C166.025 224.356 165.628 224.265 165.198 224.265C164.926 224.265 164.642 224.316 164.348 224.418C164.064 224.52 163.792 224.667 163.532 224.86C163.271 225.041 163.05 225.251 162.869 225.489C162.687 225.727 162.568 225.982 162.512 226.254V228.787C162.682 229.172 162.908 229.524 163.192 229.841C163.475 230.158 163.804 230.413 164.178 230.606C164.552 230.787 164.937 230.878 165.334 230.878ZM171.641 219.59H173.137V229.705C173.137 230.192 173.205 230.493 173.341 230.606C173.477 230.719 173.642 230.776 173.834 230.776C174.072 230.776 174.299 230.753 174.514 230.708C174.73 230.651 174.911 230.595 175.058 230.538L175.296 231.762C175.047 231.864 174.752 231.949 174.412 232.017C174.072 232.085 173.772 232.119 173.511 232.119C172.933 232.119 172.474 231.955 172.134 231.626C171.806 231.297 171.641 230.838 171.641 230.249V219.59ZM180.399 232.17C179.73 232.17 179.118 232.051 178.563 231.813C178.019 231.564 177.543 231.229 177.135 230.81C176.738 230.379 176.426 229.886 176.2 229.331C175.984 228.776 175.877 228.186 175.877 227.563C175.877 226.724 176.069 225.959 176.455 225.268C176.84 224.577 177.373 224.021 178.053 223.602C178.744 223.183 179.532 222.973 180.416 222.973C181.311 222.973 182.087 223.188 182.745 223.619C183.413 224.038 183.929 224.594 184.292 225.285C184.666 225.965 184.853 226.702 184.853 227.495C184.853 227.608 184.847 227.722 184.836 227.835C184.836 227.937 184.83 228.016 184.819 228.073H177.458C177.503 228.651 177.662 229.167 177.934 229.62C178.217 230.062 178.58 230.413 179.022 230.674C179.464 230.923 179.94 231.048 180.45 231.048C180.994 231.048 181.504 230.912 181.98 230.64C182.467 230.368 182.801 230.011 182.983 229.569L184.275 229.926C184.082 230.357 183.793 230.742 183.408 231.082C183.034 231.422 182.586 231.688 182.065 231.881C181.555 232.074 180.999 232.17 180.399 232.17ZM177.407 227.036H183.459C183.413 226.458 183.249 225.948 182.966 225.506C182.682 225.064 182.32 224.718 181.878 224.469C181.436 224.22 180.948 224.095 180.416 224.095C179.894 224.095 179.413 224.22 178.971 224.469C178.529 224.718 178.166 225.064 177.883 225.506C177.611 225.948 177.452 226.458 177.407 227.036ZM191.023 231.558C190.898 231.615 190.728 231.688 190.513 231.779C190.297 231.87 190.048 231.949 189.765 232.017C189.481 232.085 189.181 232.119 188.864 232.119C188.501 232.119 188.167 232.057 187.861 231.932C187.555 231.796 187.311 231.592 187.13 231.32C186.948 231.037 186.858 230.685 186.858 230.266V224.299H185.651V223.126H186.858V220.168H188.354V223.126H190.343V224.299H188.354V229.807C188.376 230.124 188.484 230.362 188.677 230.521C188.869 230.668 189.096 230.742 189.357 230.742C189.651 230.742 189.923 230.691 190.173 230.589C190.422 230.487 190.586 230.413 190.666 230.368L191.023 231.558ZM196.22 232.17C195.551 232.17 194.939 232.051 194.384 231.813C193.84 231.564 193.364 231.229 192.956 230.81C192.559 230.379 192.248 229.886 192.021 229.331C191.806 228.776 191.698 228.186 191.698 227.563C191.698 226.724 191.891 225.959 192.276 225.268C192.661 224.577 193.194 224.021 193.874 223.602C194.565 223.183 195.353 222.973 196.237 222.973C197.132 222.973 197.909 223.188 198.566 223.619C199.235 224.038 199.75 224.594 200.113 225.285C200.487 225.965 200.674 226.702 200.674 227.495C200.674 227.608 200.668 227.722 200.657 227.835C200.657 227.937 200.651 228.016 200.64 228.073H193.279C193.324 228.651 193.483 229.167 193.755 229.62C194.038 230.062 194.401 230.413 194.843 230.674C195.285 230.923 195.761 231.048 196.271 231.048C196.815 231.048 197.325 230.912 197.801 230.64C198.288 230.368 198.623 230.011 198.804 229.569L200.096 229.926C199.903 230.357 199.614 230.742 199.229 231.082C198.855 231.422 198.407 231.688 197.886 231.881C197.376 232.074 196.821 232.17 196.22 232.17ZM193.228 227.036H199.28C199.235 226.458 199.07 225.948 198.787 225.506C198.504 225.064 198.141 224.718 197.699 224.469C197.257 224.22 196.77 224.095 196.237 224.095C195.716 224.095 195.234 224.22 194.792 224.469C194.35 224.718 193.987 225.064 193.704 225.506C193.432 225.948 193.273 226.458 193.228 227.036Z" fill="white"/>
<path d="M94.0001 226.469L99.0234 232.314C99.4588 232.821 100.259 232.766 100.622 232.205L111.091 216.01" stroke="#22E16E" stroke-linecap="round"/>
</svg>
