<svg width="609" height="371" viewBox="0 0 609 371" fill="none" xmlns="http://www.w3.org/2000/svg">
<rect width="609" height="371" rx="5" fill="white"/>
<path d="M281.11 312.075C279.904 312.075 278.789 311.879 277.764 311.488C276.755 311.081 275.874 310.516 275.12 309.793C274.382 309.054 273.802 308.195 273.38 307.216C272.958 306.237 272.747 305.159 272.747 303.984C272.747 302.809 272.958 301.731 273.38 300.752C273.802 299.773 274.389 298.921 275.143 298.198C275.896 297.46 276.778 296.895 277.787 296.503C278.812 296.096 279.927 295.893 281.132 295.893C282.353 295.893 283.475 296.104 284.5 296.526C285.539 296.932 286.421 297.543 287.144 298.356L285.675 299.78C285.072 299.147 284.394 298.68 283.641 298.379C282.887 298.062 282.081 297.904 281.223 297.904C280.334 297.904 279.505 298.055 278.736 298.356C277.983 298.658 277.328 299.08 276.77 299.622C276.213 300.164 275.776 300.812 275.459 301.566C275.158 302.304 275.007 303.11 275.007 303.984C275.007 304.858 275.158 305.672 275.459 306.425C275.776 307.163 276.213 307.804 276.77 308.346C277.328 308.889 277.983 309.31 278.736 309.612C279.505 309.913 280.334 310.064 281.223 310.064C282.081 310.064 282.887 309.913 283.641 309.612C284.394 309.295 285.072 308.813 285.675 308.165L287.144 309.589C286.421 310.403 285.539 311.021 284.5 311.443C283.475 311.864 282.345 312.075 281.11 312.075ZM294.675 312.03C293.469 312.03 292.4 311.766 291.465 311.239C290.531 310.712 289.793 309.988 289.25 309.069C288.708 308.135 288.437 307.08 288.437 305.905C288.437 304.715 288.708 303.66 289.25 302.741C289.793 301.822 290.531 301.106 291.465 300.594C292.4 300.066 293.469 299.803 294.675 299.803C295.865 299.803 296.927 300.066 297.862 300.594C298.811 301.106 299.549 301.822 300.077 302.741C300.619 303.645 300.89 304.7 300.89 305.905C300.89 307.095 300.619 308.15 300.077 309.069C299.549 309.988 298.811 310.712 297.862 311.239C296.927 311.766 295.865 312.03 294.675 312.03ZM294.675 310.132C295.443 310.132 296.129 309.958 296.732 309.612C297.349 309.265 297.831 308.776 298.178 308.143C298.525 307.495 298.698 306.749 298.698 305.905C298.698 305.046 298.525 304.308 298.178 303.69C297.831 303.057 297.349 302.568 296.732 302.221C296.129 301.875 295.443 301.701 294.675 301.701C293.906 301.701 293.221 301.875 292.618 302.221C292.015 302.568 291.533 303.057 291.172 303.69C290.81 304.308 290.629 305.046 290.629 305.905C290.629 306.749 290.81 307.495 291.172 308.143C291.533 308.776 292.015 309.265 292.618 309.612C293.221 309.958 293.906 310.132 294.675 310.132ZM318.876 299.803C319.84 299.803 320.691 299.991 321.43 300.368C322.168 300.744 322.74 301.317 323.147 302.086C323.569 302.854 323.78 303.826 323.78 305.001V311.895H321.61V305.25C321.61 304.09 321.339 303.216 320.797 302.628C320.254 302.04 319.493 301.746 318.514 301.746C317.791 301.746 317.158 301.897 316.615 302.199C316.073 302.5 315.651 302.944 315.35 303.532C315.063 304.12 314.92 304.85 314.92 305.724V311.895H312.751V305.25C312.751 304.09 312.479 303.216 311.937 302.628C311.41 302.04 310.649 301.746 309.654 301.746C308.946 301.746 308.321 301.897 307.778 302.199C307.236 302.5 306.814 302.944 306.513 303.532C306.211 304.12 306.061 304.85 306.061 305.724V311.895H303.891V299.916H305.97V303.103L305.631 302.289C306.008 301.505 306.588 300.895 307.371 300.458C308.155 300.021 309.067 299.803 310.106 299.803C311.251 299.803 312.238 300.089 313.067 300.662C313.896 301.219 314.438 302.07 314.694 303.216L313.813 302.854C314.175 301.935 314.807 301.197 315.711 300.639C316.615 300.082 317.67 299.803 318.876 299.803ZM334.123 312.03C333.129 312.03 332.217 311.804 331.389 311.352C330.575 310.885 329.92 310.199 329.422 309.295C328.94 308.391 328.699 307.261 328.699 305.905C328.699 304.549 328.933 303.419 329.4 302.515C329.882 301.611 330.53 300.933 331.343 300.481C332.172 300.029 333.099 299.803 334.123 299.803C335.299 299.803 336.338 300.059 337.242 300.571C338.146 301.084 338.862 301.799 339.39 302.718C339.917 303.622 340.181 304.685 340.181 305.905C340.181 307.126 339.917 308.195 339.39 309.115C338.862 310.034 338.146 310.749 337.242 311.262C336.338 311.774 335.299 312.03 334.123 312.03ZM327.772 316.279V299.916H329.852V303.148L329.716 305.928L329.942 308.708V316.279H327.772ZM333.943 310.132C334.711 310.132 335.397 309.958 335.999 309.612C336.617 309.265 337.099 308.776 337.446 308.143C337.807 307.495 337.988 306.749 337.988 305.905C337.988 305.046 337.807 304.308 337.446 303.69C337.099 303.057 336.617 302.568 335.999 302.221C335.397 301.875 334.711 301.701 333.943 301.701C333.189 301.701 332.504 301.875 331.886 302.221C331.283 302.568 330.801 303.057 330.439 303.69C330.093 304.308 329.92 305.046 329.92 305.905C329.92 306.749 330.093 307.495 330.439 308.143C330.801 308.776 331.283 309.265 331.886 309.612C332.504 309.958 333.189 310.132 333.943 310.132ZM343.178 311.895V295.124H345.348V311.895H343.178ZM354.825 312.03C353.544 312.03 352.414 311.766 351.435 311.239C350.47 310.712 349.717 309.988 349.175 309.069C348.647 308.15 348.384 307.095 348.384 305.905C348.384 304.715 348.64 303.66 349.152 302.741C349.679 301.822 350.395 301.106 351.299 300.594C352.218 300.066 353.25 299.803 354.396 299.803C355.556 299.803 356.58 300.059 357.469 300.571C358.358 301.084 359.051 301.807 359.549 302.741C360.061 303.66 360.317 304.737 360.317 305.973C360.317 306.063 360.31 306.169 360.294 306.289C360.294 306.41 360.287 306.523 360.272 306.628H350.079V305.069H359.142L358.26 305.611C358.275 304.843 358.117 304.157 357.786 303.555C357.454 302.952 356.995 302.485 356.407 302.153C355.834 301.807 355.164 301.633 354.396 301.633C353.642 301.633 352.972 301.807 352.384 302.153C351.796 302.485 351.337 302.959 351.005 303.577C350.674 304.18 350.508 304.873 350.508 305.657V306.018C350.508 306.817 350.689 307.532 351.05 308.165C351.427 308.783 351.947 309.265 352.61 309.612C353.273 309.958 354.034 310.132 354.893 310.132C355.601 310.132 356.241 310.011 356.814 309.77C357.401 309.529 357.914 309.167 358.351 308.685L359.549 310.086C359.006 310.719 358.328 311.201 357.515 311.533C356.716 311.864 355.819 312.03 354.825 312.03ZM367.443 312.03C366.238 312.03 365.304 311.706 364.641 311.058C363.978 310.41 363.646 309.484 363.646 308.278V297.294H365.816V308.188C365.816 308.836 365.974 309.333 366.291 309.68C366.622 310.026 367.089 310.199 367.692 310.199C368.37 310.199 368.935 310.011 369.387 309.634L370.065 311.194C369.734 311.48 369.334 311.691 368.867 311.827C368.415 311.962 367.941 312.03 367.443 312.03ZM361.612 301.701V299.916H369.252V301.701H361.612ZM377.625 312.03C376.344 312.03 375.214 311.766 374.235 311.239C373.27 310.712 372.517 309.988 371.975 309.069C371.447 308.15 371.184 307.095 371.184 305.905C371.184 304.715 371.44 303.66 371.952 302.741C372.479 301.822 373.195 301.106 374.099 300.594C375.018 300.066 376.05 299.803 377.196 299.803C378.356 299.803 379.38 300.059 380.269 300.571C381.158 301.084 381.851 301.807 382.349 302.741C382.861 303.66 383.117 304.737 383.117 305.973C383.117 306.063 383.11 306.169 383.095 306.289C383.095 306.41 383.087 306.523 383.072 306.628H372.879V305.069H381.942L381.06 305.611C381.075 304.843 380.917 304.157 380.586 303.555C380.254 302.952 379.795 302.485 379.207 302.153C378.635 301.807 377.964 301.633 377.196 301.633C376.442 301.633 375.772 301.807 375.184 302.153C374.596 302.485 374.137 302.959 373.805 303.577C373.474 304.18 373.308 304.873 373.308 305.657V306.018C373.308 306.817 373.489 307.532 373.851 308.165C374.227 308.783 374.747 309.265 375.41 309.612C376.073 309.958 376.834 310.132 377.693 310.132C378.401 310.132 379.041 310.011 379.614 309.77C380.202 309.529 380.714 309.167 381.151 308.685L382.349 310.086C381.806 310.719 381.128 311.201 380.315 311.533C379.516 311.864 378.619 312.03 377.625 312.03Z" fill="#121212"/>
<path d="M222.887 306.636L230.629 315.644C231.3 316.425 232.533 316.341 233.092 315.476L249.228 290.516" stroke="#83C29B" stroke-width="1.50938" stroke-linecap="round"/>
<path d="M186.753 232.834L193.917 217.013H196.155L203.342 232.834H200.969L194.573 218.279H195.477L189.081 232.834H186.753ZM189.804 228.879L190.414 227.071H199.319L199.975 228.879H189.804ZM211.737 232.97C210.742 232.97 209.831 232.744 209.002 232.292C208.188 231.824 207.533 231.139 207.036 230.235C206.554 229.331 206.313 228.201 206.313 226.845C206.313 225.489 206.546 224.358 207.013 223.454C207.495 222.55 208.143 221.872 208.957 221.42C209.786 220.968 210.712 220.742 211.737 220.742C212.912 220.742 213.952 220.998 214.856 221.511C215.76 222.023 216.476 222.739 217.003 223.658C217.53 224.562 217.794 225.624 217.794 226.845C217.794 228.065 217.53 229.135 217.003 230.054C216.476 230.973 215.76 231.689 214.856 232.201C213.952 232.713 212.912 232.97 211.737 232.97ZM205.386 237.219V220.855H207.465V224.087L207.33 226.867L207.556 229.647V237.219H205.386ZM211.556 231.071C212.325 231.071 213.01 230.898 213.613 230.551C214.231 230.205 214.713 229.715 215.059 229.082C215.421 228.434 215.602 227.688 215.602 226.845C215.602 225.986 215.421 225.247 215.059 224.63C214.713 223.997 214.231 223.507 213.613 223.161C213.01 222.814 212.325 222.641 211.556 222.641C210.803 222.641 210.117 222.814 209.499 223.161C208.897 223.507 208.414 223.997 208.053 224.63C207.706 225.247 207.533 225.986 207.533 226.845C207.533 227.688 207.706 228.434 208.053 229.082C208.414 229.715 208.897 230.205 209.499 230.551C210.117 230.898 210.803 231.071 211.556 231.071ZM227.143 232.97C226.148 232.97 225.237 232.744 224.408 232.292C223.595 231.824 222.939 231.139 222.442 230.235C221.96 229.331 221.719 228.201 221.719 226.845C221.719 225.489 221.952 224.358 222.419 223.454C222.901 222.55 223.549 221.872 224.363 221.42C225.192 220.968 226.118 220.742 227.143 220.742C228.318 220.742 229.358 220.998 230.262 221.511C231.166 222.023 231.882 222.739 232.409 223.658C232.936 224.562 233.2 225.624 233.2 226.845C233.2 228.065 232.936 229.135 232.409 230.054C231.882 230.973 231.166 231.689 230.262 232.201C229.358 232.713 228.318 232.97 227.143 232.97ZM220.792 237.219V220.855H222.871V224.087L222.736 226.867L222.962 229.647V237.219H220.792ZM226.962 231.071C227.731 231.071 228.416 230.898 229.019 230.551C229.637 230.205 230.119 229.715 230.465 229.082C230.827 228.434 231.008 227.688 231.008 226.845C231.008 225.986 230.827 225.247 230.465 224.63C230.119 223.997 229.637 223.507 229.019 223.161C228.416 222.814 227.731 222.641 226.962 222.641C226.209 222.641 225.523 222.814 224.905 223.161C224.303 223.507 223.821 223.997 223.459 224.63C223.112 225.247 222.939 225.986 222.939 226.845C222.939 227.688 223.112 228.434 223.459 229.082C223.821 229.715 224.303 230.205 224.905 230.551C225.523 230.898 226.209 231.071 226.962 231.071ZM236.198 232.834V220.855H238.277V224.11L238.074 223.296C238.405 222.467 238.963 221.835 239.746 221.398C240.53 220.961 241.494 220.742 242.639 220.742V222.844C242.549 222.829 242.459 222.822 242.368 222.822C242.293 222.822 242.218 222.822 242.142 222.822C240.982 222.822 240.063 223.168 239.385 223.861C238.707 224.554 238.368 225.556 238.368 226.867V232.834H236.198ZM250.334 232.97C249.128 232.97 248.059 232.706 247.124 232.179C246.19 231.651 245.452 230.928 244.909 230.009C244.367 229.075 244.096 228.02 244.096 226.845C244.096 225.654 244.367 224.6 244.909 223.68C245.452 222.761 246.19 222.046 247.124 221.533C248.059 221.006 249.128 220.742 250.334 220.742C251.524 220.742 252.586 221.006 253.521 221.533C254.47 222.046 255.208 222.761 255.736 223.68C256.278 224.584 256.549 225.639 256.549 226.845C256.549 228.035 256.278 229.09 255.736 230.009C255.208 230.928 254.47 231.651 253.521 232.179C252.586 232.706 251.524 232.97 250.334 232.97ZM250.334 231.071C251.102 231.071 251.788 230.898 252.391 230.551C253.008 230.205 253.49 229.715 253.837 229.082C254.184 228.434 254.357 227.688 254.357 226.845C254.357 225.986 254.184 225.247 253.837 224.63C253.49 223.997 253.008 223.507 252.391 223.161C251.788 222.814 251.102 222.641 250.334 222.641C249.565 222.641 248.88 222.814 248.277 223.161C247.674 223.507 247.192 223.997 246.831 224.63C246.469 225.247 246.288 225.986 246.288 226.845C246.288 227.688 246.469 228.434 246.831 229.082C247.192 229.715 247.674 230.205 248.277 230.551C248.88 230.898 249.565 231.071 250.334 231.071ZM262.36 232.834L257.117 220.855H259.377L264.033 231.704H262.948L267.694 220.855H269.819L264.575 232.834H262.36ZM271.844 232.834V220.855H274.014V232.834H271.844ZM272.929 218.55C272.507 218.55 272.153 218.414 271.866 218.143C271.595 217.872 271.46 217.54 271.46 217.149C271.46 216.742 271.595 216.403 271.866 216.132C272.153 215.86 272.507 215.725 272.929 215.725C273.351 215.725 273.697 215.86 273.968 216.132C274.255 216.388 274.398 216.712 274.398 217.103C274.398 217.51 274.262 217.857 273.991 218.143C273.72 218.414 273.366 218.55 272.929 218.55ZM284.553 220.742C285.532 220.742 286.391 220.931 287.129 221.307C287.882 221.684 288.47 222.257 288.892 223.025C289.314 223.793 289.525 224.765 289.525 225.941V232.834H287.355V226.189C287.355 225.029 287.069 224.155 286.496 223.567C285.939 222.98 285.148 222.686 284.123 222.686C283.355 222.686 282.684 222.837 282.112 223.138C281.539 223.439 281.094 223.884 280.778 224.471C280.477 225.059 280.326 225.79 280.326 226.664V232.834H278.156V220.855H280.236V224.087L279.897 223.228C280.288 222.445 280.891 221.835 281.705 221.398C282.518 220.961 283.468 220.742 284.553 220.742ZM298.784 237.354C297.684 237.354 296.614 237.196 295.574 236.88C294.55 236.578 293.714 236.141 293.066 235.569L294.105 233.896C294.663 234.378 295.348 234.755 296.162 235.026C296.976 235.313 297.827 235.456 298.716 235.456C300.132 235.456 301.172 235.124 301.835 234.461C302.498 233.798 302.829 232.789 302.829 231.433V228.901L303.055 226.528L302.942 224.132V220.855H304.999V231.207C304.999 233.316 304.472 234.868 303.417 235.863C302.362 236.857 300.818 237.354 298.784 237.354ZM298.513 232.337C297.352 232.337 296.313 232.096 295.394 231.614C294.49 231.116 293.766 230.431 293.224 229.557C292.696 228.683 292.433 227.673 292.433 226.528C292.433 225.368 292.696 224.358 293.224 223.5C293.766 222.626 294.49 221.948 295.394 221.465C296.313 220.983 297.352 220.742 298.513 220.742C299.537 220.742 300.471 220.953 301.315 221.375C302.159 221.782 302.829 222.415 303.327 223.274C303.839 224.132 304.095 225.217 304.095 226.528C304.095 227.824 303.839 228.901 303.327 229.76C302.829 230.619 302.159 231.267 301.315 231.704C300.471 232.126 299.537 232.337 298.513 232.337ZM298.761 230.438C299.56 230.438 300.268 230.272 300.886 229.941C301.504 229.61 301.986 229.15 302.332 228.562C302.694 227.975 302.875 227.297 302.875 226.528C302.875 225.76 302.694 225.082 302.332 224.494C301.986 223.906 301.504 223.454 300.886 223.138C300.268 222.806 299.56 222.641 298.761 222.641C297.963 222.641 297.247 222.806 296.614 223.138C295.996 223.454 295.507 223.906 295.145 224.494C294.798 225.082 294.625 225.76 294.625 226.528C294.625 227.297 294.798 227.975 295.145 228.562C295.507 229.15 295.996 229.61 296.614 229.941C297.247 230.272 297.963 230.438 298.761 230.438ZM315.531 232.834V217.013H317.791V232.834H315.531ZM328.608 220.742C329.587 220.742 330.446 220.931 331.184 221.307C331.938 221.684 332.525 222.257 332.947 223.025C333.369 223.793 333.58 224.765 333.58 225.941V232.834H331.41V226.189C331.41 225.029 331.124 224.155 330.551 223.567C329.994 222.98 329.203 222.686 328.178 222.686C327.41 222.686 326.739 222.837 326.167 223.138C325.594 223.439 325.15 223.884 324.833 224.471C324.532 225.059 324.381 225.79 324.381 226.664V232.834H322.211V220.855H324.291V224.087L323.952 223.228C324.343 222.445 324.946 221.835 325.76 221.398C326.573 220.961 327.523 220.742 328.608 220.742ZM343.982 232.834V217.013H351.078C352.902 217.013 354.303 217.382 355.282 218.12C356.262 218.844 356.751 219.838 356.751 221.104C356.751 221.963 356.555 222.686 356.164 223.274C355.787 223.861 355.275 224.313 354.627 224.63C353.979 224.946 353.278 225.104 352.525 225.104L352.932 224.426C353.836 224.426 354.634 224.584 355.327 224.901C356.021 225.217 356.571 225.684 356.977 226.302C357.384 226.905 357.588 227.658 357.588 228.562C357.588 229.918 357.075 230.973 356.051 231.727C355.041 232.465 353.534 232.834 351.53 232.834H343.982ZM346.242 231.003H351.44C352.691 231.003 353.647 230.792 354.31 230.37C354.973 229.949 355.305 229.286 355.305 228.382C355.305 227.462 354.973 226.792 354.31 226.37C353.647 225.948 352.691 225.737 351.44 225.737H346.038V223.906H350.875C352.02 223.906 352.909 223.695 353.542 223.274C354.175 222.852 354.491 222.219 354.491 221.375C354.491 220.531 354.175 219.898 353.542 219.477C352.909 219.055 352.02 218.844 350.875 218.844H346.242V231.003ZM360.771 232.834V216.064H362.94V232.834H360.771ZM372.214 232.97C371.008 232.97 369.939 232.706 369.004 232.179C368.07 231.651 367.332 230.928 366.789 230.009C366.247 229.075 365.976 228.02 365.976 226.845C365.976 225.654 366.247 224.6 366.789 223.68C367.332 222.761 368.07 222.046 369.004 221.533C369.939 221.006 371.008 220.742 372.214 220.742C373.404 220.742 374.466 221.006 375.401 221.533C376.35 222.046 377.088 222.761 377.615 223.68C378.158 224.584 378.429 225.639 378.429 226.845C378.429 228.035 378.158 229.09 377.615 230.009C377.088 230.928 376.35 231.651 375.401 232.179C374.466 232.706 373.404 232.97 372.214 232.97ZM372.214 231.071C372.982 231.071 373.668 230.898 374.27 230.551C374.888 230.205 375.37 229.715 375.717 229.082C376.063 228.434 376.237 227.688 376.237 226.845C376.237 225.986 376.063 225.247 375.717 224.63C375.37 223.997 374.888 223.507 374.27 223.161C373.668 222.814 372.982 222.641 372.214 222.641C371.445 222.641 370.76 222.814 370.157 223.161C369.554 223.507 369.072 223.997 368.71 224.63C368.349 225.247 368.168 225.986 368.168 226.845C368.168 227.688 368.349 228.434 368.71 229.082C369.072 229.715 369.554 230.205 370.157 230.551C370.76 230.898 371.445 231.071 372.214 231.071ZM386.651 232.97C385.43 232.97 384.338 232.706 383.374 232.179C382.424 231.651 381.678 230.928 381.136 230.009C380.594 229.09 380.322 228.035 380.322 226.845C380.322 225.654 380.594 224.6 381.136 223.68C381.678 222.761 382.424 222.046 383.374 221.533C384.338 221.006 385.43 220.742 386.651 220.742C387.736 220.742 388.7 220.961 389.544 221.398C390.403 221.82 391.066 222.452 391.533 223.296L389.883 224.358C389.491 223.771 389.009 223.341 388.436 223.07C387.879 222.784 387.276 222.641 386.628 222.641C385.845 222.641 385.144 222.814 384.526 223.161C383.908 223.507 383.419 223.997 383.057 224.63C382.695 225.247 382.515 225.986 382.515 226.845C382.515 227.703 382.695 228.449 383.057 229.082C383.419 229.715 383.908 230.205 384.526 230.551C385.144 230.898 385.845 231.071 386.628 231.071C387.276 231.071 387.879 230.935 388.436 230.664C389.009 230.378 389.491 229.941 389.883 229.353L391.533 230.393C391.066 231.222 390.403 231.862 389.544 232.314C388.7 232.751 387.736 232.97 386.651 232.97ZM395.95 229.941L395.995 227.161L402.889 220.855H405.511L400.222 226.054L399.047 227.048L395.95 229.941ZM394.187 232.834V216.064H396.357V232.834H394.187ZM403.341 232.834L398.64 227.003L400.041 225.263L406.008 232.834H403.341ZM412.85 232.97C411.629 232.97 410.537 232.706 409.573 232.179C408.623 231.651 407.878 230.928 407.335 230.009C406.793 229.09 406.521 228.035 406.521 226.845C406.521 225.654 406.793 224.6 407.335 223.68C407.878 222.761 408.623 222.046 409.573 221.533C410.537 221.006 411.629 220.742 412.85 220.742C413.935 220.742 414.899 220.961 415.743 221.398C416.602 221.82 417.265 222.452 417.732 223.296L416.082 224.358C415.69 223.771 415.208 223.341 414.635 223.07C414.078 222.784 413.475 222.641 412.827 222.641C412.044 222.641 411.343 222.814 410.725 223.161C410.108 223.507 409.618 223.997 409.256 224.63C408.895 225.247 408.714 225.986 408.714 226.845C408.714 227.703 408.895 228.449 409.256 229.082C409.618 229.715 410.108 230.205 410.725 230.551C411.343 230.898 412.044 231.071 412.827 231.071C413.475 231.071 414.078 230.935 414.635 230.664C415.208 230.378 415.69 229.941 416.082 229.353L417.732 230.393C417.265 231.222 416.602 231.862 415.743 232.314C414.899 232.751 413.935 232.97 412.85 232.97ZM426.783 220.742C427.762 220.742 428.621 220.931 429.359 221.307C430.112 221.684 430.7 222.257 431.122 223.025C431.544 223.793 431.755 224.765 431.755 225.941V232.834H429.585V226.189C429.585 225.029 429.299 224.155 428.726 223.567C428.169 222.98 427.378 222.686 426.353 222.686C425.585 222.686 424.914 222.837 424.342 223.138C423.769 223.439 423.325 223.884 423.008 224.471C422.707 225.059 422.556 225.79 422.556 226.664V232.834H420.386V216.064H422.556V224.087L422.127 223.228C422.518 222.445 423.121 221.835 423.935 221.398C424.748 220.961 425.698 220.742 426.783 220.742ZM443.206 232.834V230.303L443.093 229.828V225.511C443.093 224.592 442.822 223.884 442.28 223.387C441.752 222.874 440.954 222.618 439.884 222.618C439.176 222.618 438.482 222.739 437.804 222.98C437.126 223.206 436.554 223.515 436.087 223.906L435.183 222.279C435.8 221.782 436.539 221.405 437.398 221.149C438.272 220.878 439.183 220.742 440.132 220.742C441.775 220.742 443.04 221.142 443.929 221.94C444.818 222.739 445.263 223.959 445.263 225.602V232.834H443.206ZM439.274 232.97C438.385 232.97 437.601 232.819 436.923 232.518C436.26 232.216 435.748 231.802 435.386 231.274C435.024 230.732 434.844 230.122 434.844 229.444C434.844 228.796 434.994 228.208 435.296 227.681C435.612 227.153 436.117 226.732 436.81 226.415C437.518 226.099 438.467 225.941 439.658 225.941H443.455V227.5H439.748C438.663 227.5 437.933 227.681 437.556 228.042C437.179 228.404 436.991 228.841 436.991 229.353C436.991 229.941 437.224 230.416 437.691 230.777C438.159 231.124 438.806 231.297 439.635 231.297C440.449 231.297 441.157 231.116 441.76 230.755C442.377 230.393 442.822 229.866 443.093 229.173L443.523 230.664C443.236 231.372 442.732 231.937 442.008 232.359C441.285 232.766 440.373 232.97 439.274 232.97ZM449.278 232.834V220.855H451.448V232.834H449.278ZM450.363 218.55C449.941 218.55 449.587 218.414 449.301 218.143C449.03 217.872 448.894 217.54 448.894 217.149C448.894 216.742 449.03 216.403 449.301 216.132C449.587 215.86 449.941 215.725 450.363 215.725C450.785 215.725 451.132 215.86 451.403 216.132C451.689 216.388 451.832 216.712 451.832 217.103C451.832 217.51 451.697 217.857 451.425 218.143C451.154 218.414 450.8 218.55 450.363 218.55ZM461.987 220.742C462.966 220.742 463.825 220.931 464.563 221.307C465.317 221.684 465.905 222.257 466.326 223.025C466.748 223.793 466.959 224.765 466.959 225.941V232.834H464.79V226.189C464.79 225.029 464.503 224.155 463.931 223.567C463.373 222.98 462.582 222.686 461.558 222.686C460.789 222.686 460.119 222.837 459.546 223.138C458.973 223.439 458.529 223.884 458.212 224.471C457.911 225.059 457.76 225.79 457.76 226.664V232.834H455.591V220.855H457.67V224.087L457.331 223.228C457.723 222.445 458.325 221.835 459.139 221.398C459.953 220.961 460.902 220.742 461.987 220.742Z" fill="#C3C3C3"/>
<path d="M155.698 230.248L157.677 228.267C160.957 224.986 160.957 219.666 157.677 216.384C154.398 213.102 149.081 213.102 145.801 216.384L141.842 220.345C138.563 223.627 138.563 228.947 141.842 232.229C143.363 233.75 145.322 234.567 147.313 234.677" stroke="#C3C3C3" stroke-width="1.50938" stroke-linecap="round"/>
<path d="M153.509 219.734L151.53 221.715C148.25 224.997 148.25 230.317 151.53 233.599C154.809 236.88 160.127 236.88 163.406 233.599L167.365 229.637C170.644 226.356 170.644 221.035 167.365 217.754C165.844 216.232 163.885 215.416 161.894 215.306" stroke="#C3C3C3" stroke-width="1.50938" stroke-linecap="round"/>
<path d="M201.347 152.261V138.406H195.922V136.44H209.009V138.406H203.584V152.261H201.347ZM210.867 152.261V140.282H212.946V143.537L212.743 142.723C213.074 141.894 213.632 141.261 214.415 140.824C215.199 140.387 216.163 140.169 217.308 140.169V142.271C217.218 142.256 217.128 142.248 217.037 142.248C216.962 142.248 216.886 142.248 216.811 142.248C215.651 142.248 214.732 142.595 214.054 143.288C213.376 143.981 213.037 144.983 213.037 146.294V152.261H210.867ZM226.536 152.261V149.729L226.423 149.255V144.938C226.423 144.019 226.151 143.311 225.609 142.813C225.082 142.301 224.283 142.045 223.213 142.045C222.505 142.045 221.812 142.165 221.134 142.407C220.456 142.633 219.883 142.941 219.416 143.333L218.512 141.706C219.13 141.209 219.868 140.832 220.727 140.576C221.601 140.305 222.512 140.169 223.462 140.169C225.104 140.169 226.37 140.568 227.259 141.367C228.148 142.165 228.592 143.386 228.592 145.028V152.261H226.536ZM222.603 152.396C221.714 152.396 220.93 152.246 220.252 151.944C219.589 151.643 219.077 151.229 218.715 150.701C218.354 150.159 218.173 149.549 218.173 148.871C218.173 148.223 218.324 147.635 218.625 147.108C218.941 146.58 219.446 146.158 220.139 145.842C220.848 145.526 221.797 145.367 222.987 145.367H226.784V146.927H223.078C221.993 146.927 221.262 147.108 220.885 147.469C220.508 147.831 220.32 148.268 220.32 148.78C220.32 149.368 220.554 149.842 221.021 150.204C221.488 150.551 222.136 150.724 222.965 150.724C223.778 150.724 224.486 150.543 225.089 150.181C225.707 149.82 226.151 149.292 226.423 148.599L226.852 150.091C226.566 150.799 226.061 151.364 225.338 151.786C224.614 152.193 223.703 152.396 222.603 152.396ZM239.004 140.169C239.983 140.169 240.842 140.357 241.58 140.734C242.334 141.111 242.921 141.683 243.343 142.452C243.765 143.22 243.976 144.192 243.976 145.367V152.261H241.806V145.616C241.806 144.456 241.52 143.582 240.947 142.994C240.39 142.407 239.599 142.113 238.574 142.113C237.806 142.113 237.135 142.263 236.563 142.565C235.99 142.866 235.546 143.311 235.229 143.898C234.928 144.486 234.777 145.217 234.777 146.091V152.261H232.608V140.282H234.687V143.514L234.348 142.655C234.74 141.872 235.342 141.261 236.156 140.824C236.97 140.387 237.919 140.169 239.004 140.169ZM251.427 152.396C250.432 152.396 249.483 152.261 248.579 151.99C247.69 151.718 246.99 151.387 246.477 150.995L247.381 149.277C247.894 149.624 248.526 149.918 249.28 150.159C250.033 150.4 250.802 150.52 251.585 150.52C252.595 150.52 253.318 150.377 253.755 150.091C254.207 149.805 254.433 149.405 254.433 148.893C254.433 148.516 254.297 148.223 254.026 148.012C253.755 147.801 253.393 147.643 252.941 147.537C252.504 147.432 252.015 147.341 251.472 147.266C250.93 147.175 250.387 147.07 249.845 146.949C249.302 146.814 248.805 146.633 248.353 146.407C247.901 146.166 247.539 145.842 247.268 145.435C246.997 145.013 246.861 144.456 246.861 143.763C246.861 143.039 247.065 142.407 247.472 141.864C247.879 141.322 248.451 140.907 249.189 140.621C249.943 140.32 250.832 140.169 251.856 140.169C252.64 140.169 253.431 140.267 254.23 140.463C255.043 140.644 255.706 140.907 256.218 141.254L255.292 142.972C254.749 142.61 254.184 142.361 253.597 142.226C253.009 142.09 252.421 142.022 251.834 142.022C250.885 142.022 250.176 142.181 249.709 142.497C249.242 142.798 249.009 143.19 249.009 143.672C249.009 144.079 249.144 144.395 249.415 144.621C249.702 144.832 250.063 144.998 250.5 145.119C250.952 145.239 251.45 145.345 251.992 145.435C252.534 145.51 253.077 145.616 253.619 145.752C254.162 145.872 254.651 146.045 255.088 146.271C255.54 146.497 255.902 146.814 256.173 147.221C256.46 147.627 256.603 148.17 256.603 148.848C256.603 149.571 256.392 150.196 255.97 150.724C255.548 151.251 254.953 151.666 254.184 151.967C253.416 152.253 252.497 152.396 251.427 152.396ZM266.75 152.261V149.729L266.637 149.255V144.938C266.637 144.019 266.366 143.311 265.824 142.813C265.296 142.301 264.498 142.045 263.428 142.045C262.72 142.045 262.026 142.165 261.348 142.407C260.67 142.633 260.098 142.941 259.631 143.333L258.727 141.706C259.344 141.209 260.083 140.832 260.942 140.576C261.816 140.305 262.727 140.169 263.676 140.169C265.319 140.169 266.584 140.568 267.473 141.367C268.362 142.165 268.807 143.386 268.807 145.028V152.261H266.75ZM262.818 152.396C261.929 152.396 261.145 152.246 260.467 151.944C259.804 151.643 259.292 151.229 258.93 150.701C258.568 150.159 258.388 149.549 258.388 148.871C258.388 148.223 258.538 147.635 258.84 147.108C259.156 146.58 259.661 146.158 260.354 145.842C261.062 145.526 262.011 145.367 263.202 145.367H266.999V146.927H263.292C262.207 146.927 261.477 147.108 261.1 147.469C260.723 147.831 260.535 148.268 260.535 148.78C260.535 149.368 260.768 149.842 261.235 150.204C261.703 150.551 262.35 150.724 263.179 150.724C263.993 150.724 264.701 150.543 265.304 150.181C265.921 149.82 266.366 149.292 266.637 148.599L267.067 150.091C266.78 150.799 266.276 151.364 265.552 151.786C264.829 152.193 263.917 152.396 262.818 152.396ZM278.043 152.396C276.823 152.396 275.73 152.133 274.766 151.605C273.817 151.078 273.071 150.355 272.528 149.436C271.986 148.516 271.715 147.462 271.715 146.271C271.715 145.081 271.986 144.026 272.528 143.107C273.071 142.188 273.817 141.472 274.766 140.96C275.73 140.433 276.823 140.169 278.043 140.169C279.128 140.169 280.092 140.387 280.936 140.824C281.795 141.246 282.458 141.879 282.925 142.723L281.275 143.785C280.883 143.198 280.401 142.768 279.829 142.497C279.271 142.211 278.668 142.067 278.021 142.067C277.237 142.067 276.536 142.241 275.919 142.587C275.301 142.934 274.811 143.424 274.449 144.056C274.088 144.674 273.907 145.413 273.907 146.271C273.907 147.13 274.088 147.876 274.449 148.509C274.811 149.142 275.301 149.631 275.919 149.978C276.536 150.325 277.237 150.498 278.021 150.498C278.668 150.498 279.271 150.362 279.829 150.091C280.401 149.805 280.883 149.368 281.275 148.78L282.925 149.82C282.458 150.649 281.795 151.289 280.936 151.741C280.092 152.178 279.128 152.396 278.043 152.396ZM290.002 152.396C288.797 152.396 287.862 152.072 287.2 151.424C286.537 150.777 286.205 149.85 286.205 148.645V137.66H288.375V148.554C288.375 149.202 288.533 149.699 288.849 150.046C289.181 150.392 289.648 150.566 290.251 150.566C290.929 150.566 291.494 150.377 291.946 150.001L292.624 151.56C292.292 151.846 291.893 152.057 291.426 152.193C290.974 152.329 290.499 152.396 290.002 152.396ZM284.171 142.067V140.282H291.81V142.067H284.171ZM295.247 152.261V140.282H297.417V152.261H295.247ZM296.332 137.977C295.91 137.977 295.556 137.841 295.27 137.57C294.998 137.299 294.863 136.967 294.863 136.575C294.863 136.169 294.998 135.83 295.27 135.558C295.556 135.287 295.91 135.151 296.332 135.151C296.754 135.151 297.1 135.287 297.372 135.558C297.658 135.814 297.801 136.138 297.801 136.53C297.801 136.937 297.665 137.284 297.394 137.57C297.123 137.841 296.769 137.977 296.332 137.977ZM306.69 152.396C305.485 152.396 304.415 152.133 303.481 151.605C302.546 151.078 301.808 150.355 301.266 149.436C300.723 148.501 300.452 147.447 300.452 146.271C300.452 145.081 300.723 144.026 301.266 143.107C301.808 142.188 302.546 141.472 303.481 140.96C304.415 140.433 305.485 140.169 306.69 140.169C307.88 140.169 308.943 140.433 309.877 140.96C310.826 141.472 311.564 142.188 312.092 143.107C312.634 144.011 312.905 145.066 312.905 146.271C312.905 147.462 312.634 148.516 312.092 149.436C311.564 150.355 310.826 151.078 309.877 151.605C308.943 152.133 307.88 152.396 306.69 152.396ZM306.69 150.498C307.459 150.498 308.144 150.325 308.747 149.978C309.365 149.631 309.847 149.142 310.193 148.509C310.54 147.861 310.713 147.115 310.713 146.271C310.713 145.413 310.54 144.674 310.193 144.056C309.847 143.424 309.365 142.934 308.747 142.587C308.144 142.241 307.459 142.067 306.69 142.067C305.922 142.067 305.236 142.241 304.633 142.587C304.031 142.934 303.548 143.424 303.187 144.056C302.825 144.674 302.644 145.413 302.644 146.271C302.644 147.115 302.825 147.861 303.187 148.509C303.548 149.142 304.031 149.631 304.633 149.978C305.236 150.325 305.922 150.498 306.69 150.498ZM322.302 140.169C323.282 140.169 324.141 140.357 324.879 140.734C325.632 141.111 326.22 141.683 326.642 142.452C327.064 143.22 327.275 144.192 327.275 145.367V152.261H325.105V145.616C325.105 144.456 324.819 143.582 324.246 142.994C323.689 142.407 322.898 142.113 321.873 142.113C321.104 142.113 320.434 142.263 319.861 142.565C319.289 142.866 318.844 143.311 318.528 143.898C318.227 144.486 318.076 145.217 318.076 146.091V152.261H315.906V140.282H317.985V143.514L317.646 142.655C318.038 141.872 318.641 141.261 319.455 140.824C320.268 140.387 321.217 140.169 322.302 140.169ZM337.676 152.261V136.44H343.846C345.233 136.44 346.415 136.658 347.395 137.095C348.374 137.532 349.128 138.165 349.655 138.994C350.182 139.822 350.446 140.809 350.446 141.954C350.446 143.1 350.182 144.087 349.655 144.915C349.128 145.729 348.374 146.362 347.395 146.814C346.415 147.251 345.233 147.469 343.846 147.469H338.919L339.936 146.407V152.261H337.676ZM339.936 146.633L338.919 145.503H343.779C345.225 145.503 346.318 145.194 347.056 144.576C347.809 143.958 348.186 143.085 348.186 141.954C348.186 140.824 347.809 139.95 347.056 139.333C346.318 138.715 345.225 138.406 343.779 138.406H338.919L339.936 137.276V146.633ZM353.229 152.261V140.282H355.309V143.537L355.105 142.723C355.437 141.894 355.994 141.261 356.778 140.824C357.561 140.387 358.526 140.169 359.671 140.169V142.271C359.58 142.256 359.49 142.248 359.4 142.248C359.324 142.248 359.249 142.248 359.174 142.248C358.013 142.248 357.094 142.595 356.416 143.288C355.738 143.981 355.399 144.983 355.399 146.294V152.261H353.229ZM367.365 152.396C366.16 152.396 365.09 152.133 364.156 151.605C363.222 151.078 362.483 150.355 361.941 149.436C361.398 148.501 361.127 147.447 361.127 146.271C361.127 145.081 361.398 144.026 361.941 143.107C362.483 142.188 363.222 141.472 364.156 140.96C365.09 140.433 366.16 140.169 367.365 140.169C368.556 140.169 369.618 140.433 370.552 140.96C371.501 141.472 372.24 142.188 372.767 143.107C373.309 144.011 373.581 145.066 373.581 146.271C373.581 147.462 373.309 148.516 372.767 149.436C372.24 150.355 371.501 151.078 370.552 151.605C369.618 152.133 368.556 152.396 367.365 152.396ZM367.365 150.498C368.134 150.498 368.819 150.325 369.422 149.978C370.04 149.631 370.522 149.142 370.868 148.509C371.215 147.861 371.388 147.115 371.388 146.271C371.388 145.413 371.215 144.674 370.868 144.056C370.522 143.424 370.04 142.934 369.422 142.587C368.819 142.241 368.134 142.067 367.365 142.067C366.597 142.067 365.911 142.241 365.308 142.587C364.706 142.934 364.224 143.424 363.862 144.056C363.5 144.674 363.32 145.413 363.32 146.271C363.32 147.115 363.5 147.861 363.862 148.509C364.224 149.142 364.706 149.631 365.308 149.978C365.911 150.325 366.597 150.498 367.365 150.498ZM381.802 152.396C380.582 152.396 379.489 152.133 378.525 151.605C377.576 151.078 376.83 150.355 376.287 149.436C375.745 148.516 375.474 147.462 375.474 146.271C375.474 145.081 375.745 144.026 376.287 143.107C376.83 142.188 377.576 141.472 378.525 140.96C379.489 140.433 380.582 140.169 381.802 140.169C382.887 140.169 383.851 140.387 384.695 140.824C385.554 141.246 386.217 141.879 386.684 142.723L385.034 143.785C384.642 143.198 384.16 142.768 383.588 142.497C383.03 142.211 382.428 142.067 381.78 142.067C380.996 142.067 380.295 142.241 379.678 142.587C379.06 142.934 378.57 143.424 378.209 144.056C377.847 144.674 377.666 145.413 377.666 146.271C377.666 147.13 377.847 147.876 378.209 148.509C378.57 149.142 379.06 149.631 379.678 149.978C380.295 150.325 380.996 150.498 381.78 150.498C382.428 150.498 383.03 150.362 383.588 150.091C384.16 149.805 384.642 149.368 385.034 148.78L386.684 149.82C386.217 150.649 385.554 151.289 384.695 151.741C383.851 152.178 382.887 152.396 381.802 152.396ZM394.651 152.396C393.37 152.396 392.24 152.133 391.26 151.605C390.296 151.078 389.543 150.355 389 149.436C388.473 148.516 388.209 147.462 388.209 146.271C388.209 145.081 388.465 144.026 388.978 143.107C389.505 142.188 390.221 141.472 391.125 140.96C392.044 140.433 393.076 140.169 394.221 140.169C395.381 140.169 396.406 140.425 397.295 140.937C398.184 141.45 398.877 142.173 399.374 143.107C399.887 144.026 400.143 145.104 400.143 146.339C400.143 146.43 400.135 146.535 400.12 146.656C400.12 146.776 400.113 146.889 400.098 146.995H389.904V145.435H398.967L398.086 145.978C398.101 145.209 397.943 144.524 397.611 143.921C397.28 143.318 396.82 142.851 396.233 142.52C395.66 142.173 394.99 142 394.221 142C393.468 142 392.797 142.173 392.21 142.52C391.622 142.851 391.162 143.326 390.831 143.943C390.499 144.546 390.334 145.239 390.334 146.023V146.384C390.334 147.183 390.515 147.899 390.876 148.532C391.253 149.149 391.773 149.631 392.436 149.978C393.099 150.325 393.86 150.498 394.718 150.498C395.427 150.498 396.067 150.377 396.639 150.136C397.227 149.895 397.739 149.534 398.176 149.051L399.374 150.453C398.832 151.085 398.154 151.568 397.34 151.899C396.542 152.231 395.645 152.396 394.651 152.396ZM406.591 152.396C405.597 152.396 404.647 152.261 403.743 151.99C402.854 151.718 402.154 151.387 401.641 150.995L402.545 149.277C403.058 149.624 403.69 149.918 404.444 150.159C405.197 150.4 405.966 150.52 406.749 150.52C407.759 150.52 408.482 150.377 408.919 150.091C409.371 149.805 409.597 149.405 409.597 148.893C409.597 148.516 409.461 148.223 409.19 148.012C408.919 147.801 408.557 147.643 408.105 147.537C407.668 147.432 407.179 147.341 406.636 147.266C406.094 147.175 405.551 147.07 405.009 146.949C404.466 146.814 403.969 146.633 403.517 146.407C403.065 146.166 402.704 145.842 402.432 145.435C402.161 145.013 402.026 144.456 402.026 143.763C402.026 143.039 402.229 142.407 402.636 141.864C403.043 141.322 403.615 140.907 404.353 140.621C405.107 140.32 405.996 140.169 407.02 140.169C407.804 140.169 408.595 140.267 409.394 140.463C410.207 140.644 410.87 140.907 411.383 141.254L410.456 142.972C409.913 142.61 409.348 142.361 408.761 142.226C408.173 142.09 407.585 142.022 406.998 142.022C406.049 142.022 405.34 142.181 404.873 142.497C404.406 142.798 404.173 143.19 404.173 143.672C404.173 144.079 404.308 144.395 404.579 144.621C404.866 144.832 405.227 144.998 405.664 145.119C406.116 145.239 406.614 145.345 407.156 145.435C407.698 145.51 408.241 145.616 408.783 145.752C409.326 145.872 409.815 146.045 410.252 146.271C410.704 146.497 411.066 146.814 411.337 147.221C411.624 147.627 411.767 148.17 411.767 148.848C411.767 149.571 411.556 150.196 411.134 150.724C410.712 151.251 410.117 151.666 409.348 151.967C408.58 152.253 407.661 152.396 406.591 152.396ZM417.914 152.396C416.919 152.396 415.97 152.261 415.066 151.99C414.177 151.718 413.476 151.387 412.964 150.995L413.868 149.277C414.38 149.624 415.013 149.918 415.767 150.159C416.52 150.4 417.288 150.52 418.072 150.52C419.082 150.52 419.805 150.377 420.242 150.091C420.694 149.805 420.92 149.405 420.92 148.893C420.92 148.516 420.784 148.223 420.513 148.012C420.242 147.801 419.88 147.643 419.428 147.537C418.991 147.432 418.501 147.341 417.959 147.266C417.417 147.175 416.874 147.07 416.332 146.949C415.789 146.814 415.292 146.633 414.84 146.407C414.388 146.166 414.026 145.842 413.755 145.435C413.484 145.013 413.348 144.456 413.348 143.763C413.348 143.039 413.552 142.407 413.959 141.864C414.365 141.322 414.938 140.907 415.676 140.621C416.43 140.32 417.319 140.169 418.343 140.169C419.127 140.169 419.918 140.267 420.716 140.463C421.53 140.644 422.193 140.907 422.705 141.254L421.779 142.972C421.236 142.61 420.671 142.361 420.084 142.226C419.496 142.09 418.908 142.022 418.321 142.022C417.371 142.022 416.663 142.181 416.196 142.497C415.729 142.798 415.495 143.19 415.495 143.672C415.495 144.079 415.631 144.395 415.902 144.621C416.189 144.832 416.55 144.998 416.987 145.119C417.439 145.239 417.936 145.345 418.479 145.435C419.021 145.51 419.564 145.616 420.106 145.752C420.649 145.872 421.138 146.045 421.575 146.271C422.027 146.497 422.389 146.814 422.66 147.221C422.946 147.627 423.09 148.17 423.09 148.848C423.09 149.571 422.879 150.196 422.457 150.724C422.035 151.251 421.44 151.666 420.671 151.967C419.903 152.253 418.984 152.396 417.914 152.396ZM425.801 152.261V140.282H427.971V152.261H425.801ZM426.886 137.977C426.464 137.977 426.11 137.841 425.824 137.57C425.553 137.299 425.417 136.967 425.417 136.575C425.417 136.169 425.553 135.83 425.824 135.558C426.11 135.287 426.464 135.151 426.886 135.151C427.308 135.151 427.654 135.287 427.926 135.558C428.212 135.814 428.355 136.138 428.355 136.53C428.355 136.937 428.22 137.284 427.948 137.57C427.677 137.841 427.323 137.977 426.886 137.977ZM438.51 140.169C439.489 140.169 440.348 140.357 441.086 140.734C441.84 141.111 442.427 141.683 442.849 142.452C443.271 143.22 443.482 144.192 443.482 145.367V152.261H441.312V145.616C441.312 144.456 441.026 143.582 440.454 142.994C439.896 142.407 439.105 142.113 438.08 142.113C437.312 142.113 436.641 142.263 436.069 142.565C435.496 142.866 435.052 143.311 434.735 143.898C434.434 144.486 434.283 145.217 434.283 146.091V152.261H432.114V140.282H434.193V143.514L433.854 142.655C434.246 141.872 434.848 141.261 435.662 140.824C436.476 140.387 437.425 140.169 438.51 140.169ZM452.741 156.781C451.641 156.781 450.571 156.623 449.532 156.306C448.507 156.005 447.671 155.568 447.023 154.996L448.063 153.323C448.62 153.805 449.306 154.182 450.119 154.453C450.933 154.739 451.784 154.883 452.673 154.883C454.09 154.883 455.129 154.551 455.792 153.888C456.455 153.225 456.787 152.216 456.787 150.859V148.328L457.013 145.955L456.9 143.559V140.282H458.957V150.633C458.957 152.743 458.429 154.295 457.374 155.289C456.32 156.284 454.775 156.781 452.741 156.781ZM452.47 151.764C451.31 151.764 450.27 151.522 449.351 151.04C448.447 150.543 447.724 149.857 447.181 148.984C446.654 148.11 446.39 147.1 446.39 145.955C446.39 144.795 446.654 143.785 447.181 142.926C447.724 142.052 448.447 141.374 449.351 140.892C450.27 140.41 451.31 140.169 452.47 140.169C453.495 140.169 454.429 140.38 455.273 140.802C456.116 141.209 456.787 141.841 457.284 142.7C457.796 143.559 458.053 144.644 458.053 145.955C458.053 147.251 457.796 148.328 457.284 149.187C456.787 150.046 456.116 150.694 455.273 151.131C454.429 151.553 453.495 151.764 452.47 151.764ZM452.719 149.865C453.517 149.865 454.225 149.699 454.843 149.368C455.461 149.036 455.943 148.577 456.29 147.989C456.651 147.401 456.832 146.723 456.832 145.955C456.832 145.186 456.651 144.508 456.29 143.921C455.943 143.333 455.461 142.881 454.843 142.565C454.225 142.233 453.517 142.067 452.719 142.067C451.92 142.067 451.204 142.233 450.571 142.565C449.954 142.881 449.464 143.333 449.102 143.921C448.756 144.508 448.583 145.186 448.583 145.955C448.583 146.723 448.756 147.401 449.102 147.989C449.464 148.577 449.954 149.036 450.571 149.368C451.204 149.699 451.92 149.865 452.719 149.865Z" fill="#C3C3C3"/>
<path d="M163.658 138.885V144.419L167.117 147.878" stroke="#C3C3C3" stroke-width="1.50938" stroke-linecap="round" stroke-linejoin="round"/>
<path d="M154.808 135.57L154.275 135.036H154.275L154.808 135.57ZM153.056 137.322L152.301 137.326C152.303 137.74 152.638 138.075 153.052 138.077L153.056 137.322ZM156.574 138.094C156.991 138.097 157.331 137.76 157.333 137.344C157.335 136.927 156.999 136.587 156.582 136.585L156.574 138.094ZM153.793 133.796C153.791 133.379 153.451 133.043 153.035 133.045C152.618 133.047 152.282 133.387 152.284 133.804L153.793 133.796ZM152.068 142.7C152.125 142.287 151.836 141.906 151.423 141.849C151.01 141.793 150.63 142.082 150.573 142.495L152.068 142.7ZM172.952 135.125C167.775 129.948 159.413 129.898 154.275 135.036L155.342 136.104C159.881 131.565 167.287 131.594 171.885 136.192L172.952 135.125ZM154.363 153.714C159.54 158.891 167.902 158.94 173.04 153.802L171.973 152.735C167.434 157.274 160.028 157.244 155.43 152.646L154.363 153.714ZM173.04 153.802C178.179 148.664 178.129 140.302 172.952 135.125L171.885 136.192C176.482 140.79 176.512 148.196 171.973 152.735L173.04 153.802ZM154.275 135.036L152.522 136.788L153.59 137.856L155.342 136.104L154.275 135.036ZM153.052 138.077L156.574 138.094L156.582 136.585L153.06 136.567L153.052 138.077ZM153.811 137.318L153.793 133.796L152.284 133.804L152.301 137.326L153.811 137.318ZM150.573 142.495C150.029 146.462 151.296 150.646 154.363 153.714L155.43 152.646C152.708 149.924 151.586 146.216 152.068 142.7L150.573 142.495Z" fill="#C3C3C3"/>
<path d="M257.197 75.1808C255.991 75.1808 254.839 75 253.739 74.6384C252.639 74.2617 251.772 73.7795 251.14 73.1919L251.976 71.429C252.579 71.9563 253.347 72.3933 254.281 72.7399C255.215 73.0864 256.187 73.2597 257.197 73.2597C258.116 73.2597 258.862 73.1542 259.434 72.9433C260.007 72.7323 260.429 72.446 260.7 72.0844C260.971 71.7077 261.107 71.2858 261.107 70.8187C261.107 70.2763 260.926 69.8393 260.564 69.5079C260.218 69.1764 259.758 68.9127 259.186 68.7168C258.628 68.5059 258.01 68.325 257.332 68.1744C256.654 68.0237 255.969 67.8504 255.276 67.6545C254.598 67.4436 253.972 67.1799 253.4 66.8635C252.842 66.5471 252.39 66.1252 252.044 65.5978C251.697 65.0554 251.524 64.3623 251.524 63.5185C251.524 62.7048 251.735 61.959 252.157 61.2809C252.594 60.5878 253.257 60.0379 254.146 59.631C255.05 59.2091 256.195 58.9982 257.581 58.9982C258.5 58.9982 259.412 59.1187 260.316 59.3598C261.22 59.6009 262.003 59.9475 262.666 60.3995L261.92 62.2076C261.242 61.7556 260.527 61.4316 259.773 61.2357C259.02 61.0248 258.289 60.9193 257.581 60.9193C256.692 60.9193 255.961 61.0323 255.389 61.2583C254.816 61.4843 254.394 61.7857 254.123 62.1624C253.867 62.5391 253.739 62.961 253.739 63.4281C253.739 63.9856 253.912 64.4301 254.259 64.7616C254.62 65.093 255.08 65.3567 255.637 65.5526C256.21 65.7485 256.835 65.9293 257.513 66.095C258.191 66.2457 258.869 66.419 259.547 66.6149C260.24 66.8108 260.866 67.0669 261.423 67.3833C261.996 67.6997 262.455 68.1216 262.802 68.649C263.148 69.1764 263.322 69.8544 263.322 70.6831C263.322 71.4817 263.103 72.2276 262.666 72.9207C262.229 73.5987 261.551 74.1487 260.632 74.5706C259.728 74.9774 258.583 75.1808 257.197 75.1808ZM270.421 75.1356C269.215 75.1356 268.281 74.8117 267.618 74.1637C266.955 73.5158 266.624 72.5892 266.624 71.3838V60.3995H268.793V71.2934C268.793 71.9413 268.952 72.4385 269.268 72.7851C269.599 73.1316 270.067 73.3049 270.669 73.3049C271.347 73.3049 271.912 73.1165 272.364 72.7399L273.042 74.2994C272.711 74.5856 272.312 74.7966 271.845 74.9322C271.393 75.0678 270.918 75.1356 270.421 75.1356ZM264.59 64.8068V63.0212H272.229V64.8068H264.59ZM283.101 75V72.4686L282.988 71.994V67.6771C282.988 66.758 282.717 66.0498 282.175 65.5526C281.647 65.0403 280.849 64.7842 279.779 64.7842C279.071 64.7842 278.378 64.9047 277.7 65.1458C277.022 65.3718 276.449 65.6807 275.982 66.0724L275.078 64.4451C275.696 63.9479 276.434 63.5712 277.293 63.3151C278.167 63.0438 279.078 62.9082 280.028 62.9082C281.67 62.9082 282.936 63.3075 283.825 64.1061C284.714 64.9047 285.158 66.1252 285.158 67.7675V75H283.101ZM279.169 75.1356C278.28 75.1356 277.496 74.9849 276.818 74.6836C276.155 74.3822 275.643 73.9679 275.281 73.4405C274.92 72.8981 274.739 72.2878 274.739 71.6098C274.739 70.9619 274.89 70.3742 275.191 69.8469C275.507 69.3195 276.012 68.8976 276.705 68.5812C277.413 68.2648 278.363 68.1066 279.553 68.1066H283.35V69.6661H279.643C278.559 69.6661 277.828 69.8469 277.451 70.2085C277.074 70.5701 276.886 71.0071 276.886 71.5194C276.886 72.107 277.12 72.5816 277.587 72.9433C278.054 73.2898 278.702 73.4631 279.53 73.4631C280.344 73.4631 281.052 73.2823 281.655 72.9207C282.273 72.559 282.717 72.0317 282.988 71.3386L283.418 72.8303C283.132 73.5384 282.627 74.1035 281.904 74.5254C281.18 74.9322 280.269 75.1356 279.169 75.1356ZM289.174 75V63.0212H291.253V66.2759L291.049 65.4622C291.381 64.6335 291.938 64.0006 292.722 63.5637C293.505 63.1267 294.47 62.9082 295.615 62.9082V65.0102C295.525 64.9951 295.434 64.9876 295.344 64.9876C295.268 64.9876 295.193 64.9876 295.118 64.9876C293.957 64.9876 293.038 65.3341 292.36 66.0272C291.682 66.7203 291.343 67.7223 291.343 69.0332V75H289.174ZM302.888 75.1356C301.683 75.1356 300.749 74.8117 300.086 74.1637C299.423 73.5158 299.091 72.5892 299.091 71.3838V60.3995H301.261V71.2934C301.261 71.9413 301.419 72.4385 301.735 72.7851C302.067 73.1316 302.534 73.3049 303.137 73.3049C303.815 73.3049 304.38 73.1165 304.832 72.7399L305.51 74.2994C305.178 74.5856 304.779 74.7966 304.312 74.9322C303.86 75.0678 303.385 75.1356 302.888 75.1356ZM297.057 64.8068V63.0212H304.696V64.8068H297.057ZM308.133 75V63.0212H310.303V75H308.133ZM309.218 60.7159C308.796 60.7159 308.442 60.5803 308.156 60.3091C307.884 60.0379 307.749 59.7064 307.749 59.3146C307.749 58.9078 307.884 58.5688 308.156 58.2975C308.442 58.0263 308.796 57.8907 309.218 57.8907C309.64 57.8907 309.986 58.0263 310.258 58.2975C310.544 58.5537 310.687 58.8777 310.687 59.2694C310.687 59.6762 310.551 60.0228 310.28 60.3091C310.009 60.5803 309.655 60.7159 309.218 60.7159ZM320.842 62.9082C321.821 62.9082 322.68 63.0966 323.418 63.4733C324.172 63.85 324.759 64.4225 325.181 65.191C325.603 65.9594 325.814 66.9313 325.814 68.1066V75H323.644V68.3552C323.644 67.195 323.358 66.3211 322.786 65.7334C322.228 65.1458 321.437 64.852 320.412 64.852C319.644 64.852 318.973 65.0026 318.401 65.304C317.828 65.6053 317.384 66.0498 317.067 66.6375C316.766 67.2251 316.615 67.9559 316.615 68.8298V75H314.446V63.0212H316.525V66.2532L316.186 65.3944C316.578 64.6109 317.18 64.0006 317.994 63.5637C318.808 63.1267 319.757 62.9082 320.842 62.9082ZM335.073 79.5203C333.973 79.5203 332.903 79.3621 331.864 79.0457C330.839 78.7443 330.003 78.3073 329.355 77.7348L330.395 76.0623C330.952 76.5444 331.638 76.9211 332.451 77.1923C333.265 77.4786 334.116 77.6218 335.005 77.6218C336.422 77.6218 337.461 77.2903 338.124 76.6273C338.787 75.9643 339.119 74.9548 339.119 73.5987V71.0674L339.345 68.6942L339.232 66.2985V63.0212H341.289V73.3727C341.289 75.4822 340.761 77.0341 339.706 78.0286C338.652 79.0231 337.107 79.5203 335.073 79.5203ZM334.802 74.5028C333.642 74.5028 332.602 74.2617 331.683 73.7795C330.779 73.2823 330.056 72.5967 329.513 71.7228C328.986 70.8489 328.722 69.8393 328.722 68.6942C328.722 67.534 328.986 66.5245 329.513 65.6656C330.056 64.7917 330.779 64.1136 331.683 63.6315C332.602 63.1493 333.642 62.9082 334.802 62.9082C335.826 62.9082 336.761 63.1192 337.604 63.5411C338.448 63.9479 339.119 64.5807 339.616 65.4396C340.128 66.2985 340.384 67.3833 340.384 68.6942C340.384 69.99 340.128 71.0674 339.616 71.9262C339.119 72.7851 338.448 73.433 337.604 73.8699C336.761 74.2918 335.826 74.5028 334.802 74.5028ZM335.051 72.6042C335.849 72.6042 336.557 72.4385 337.175 72.107C337.793 71.7755 338.275 71.316 338.622 70.7283C338.983 70.1407 339.164 69.4627 339.164 68.6942C339.164 67.9258 338.983 67.2477 338.622 66.6601C338.275 66.0724 337.793 65.6204 337.175 65.304C336.557 64.9725 335.849 64.8068 335.051 64.8068C334.252 64.8068 333.536 64.9725 332.903 65.304C332.286 65.6204 331.796 66.0724 331.434 66.6601C331.088 67.2477 330.914 67.9258 330.914 68.6942C330.914 69.4627 331.088 70.1407 331.434 70.7283C331.796 71.316 332.286 71.7755 332.903 72.107C333.536 72.4385 334.252 72.6042 335.051 72.6042ZM356.431 75.1808C355.226 75.1808 354.073 75 352.973 74.6384C351.873 74.2617 351.007 73.7795 350.374 73.1919L351.21 71.429C351.813 71.9563 352.581 72.3933 353.516 72.7399C354.45 73.0864 355.422 73.2597 356.431 73.2597C357.35 73.2597 358.096 73.1542 358.669 72.9433C359.241 72.7323 359.663 72.446 359.934 72.0844C360.206 71.7077 360.341 71.2858 360.341 70.8187C360.341 70.2763 360.16 69.8393 359.799 69.5079C359.452 69.1764 358.993 68.9127 358.42 68.7168C357.863 68.5059 357.245 68.325 356.567 68.1744C355.889 68.0237 355.203 67.8504 354.51 67.6545C353.832 67.4436 353.207 67.1799 352.634 66.8635C352.077 66.5471 351.625 66.1252 351.278 65.5978C350.931 65.0554 350.758 64.3623 350.758 63.5185C350.758 62.7048 350.969 61.959 351.391 61.2809C351.828 60.5878 352.491 60.0379 353.38 59.631C354.284 59.2091 355.429 58.9982 356.815 58.9982C357.734 58.9982 358.646 59.1187 359.55 59.3598C360.454 59.6009 361.238 59.9475 361.901 60.3995L361.155 62.2076C360.477 61.7556 359.761 61.4316 359.008 61.2357C358.254 61.0248 357.524 60.9193 356.815 60.9193C355.926 60.9193 355.196 61.0323 354.623 61.2583C354.05 61.4843 353.629 61.7857 353.357 62.1624C353.101 62.5391 352.973 62.961 352.973 63.4281C352.973 63.9856 353.146 64.4301 353.493 64.7616C353.855 65.093 354.314 65.3567 354.872 65.5526C355.444 65.7485 356.069 65.9293 356.748 66.095C357.426 66.2457 358.104 66.419 358.782 66.6149C359.475 66.8108 360.1 67.0669 360.658 67.3833C361.23 67.6997 361.69 68.1216 362.036 68.649C362.383 69.1764 362.556 69.8544 362.556 70.6831C362.556 71.4817 362.338 72.2276 361.901 72.9207C361.464 73.5987 360.786 74.1487 359.867 74.5706C358.962 74.9774 357.817 75.1808 356.431 75.1808ZM367.852 75L363.4 63.0212H365.456L369.412 73.8699H368.44L372.553 63.0212H374.384L378.407 73.8699H377.458L381.504 63.0212H383.447L378.972 75H376.893L373.118 65.1006H373.751L369.932 75H367.852ZM392.71 75V72.4686L392.597 71.994V67.6771C392.597 66.758 392.325 66.0498 391.783 65.5526C391.256 65.0403 390.457 64.7842 389.387 64.7842C388.679 64.7842 387.986 64.9047 387.308 65.1458C386.63 65.3718 386.057 65.6807 385.59 66.0724L384.686 64.4451C385.304 63.9479 386.042 63.5712 386.901 63.3151C387.775 63.0438 388.687 62.9082 389.636 62.9082C391.278 62.9082 392.544 63.3075 393.433 64.1061C394.322 64.9047 394.766 66.1252 394.766 67.7675V75H392.71ZM388.777 75.1356C387.888 75.1356 387.104 74.9849 386.426 74.6836C385.763 74.3822 385.251 73.9679 384.889 73.4405C384.528 72.8981 384.347 72.2878 384.347 71.6098C384.347 70.9619 384.498 70.3742 384.799 69.8469C385.115 69.3195 385.62 68.8976 386.313 68.5812C387.022 68.2648 387.971 68.1066 389.161 68.1066H392.958V69.6661H389.252C388.167 69.6661 387.436 69.8469 387.059 70.2085C386.683 70.5701 386.494 71.0071 386.494 71.5194C386.494 72.107 386.728 72.5816 387.195 72.9433C387.662 73.2898 388.31 73.4631 389.139 73.4631C389.952 73.4631 390.66 73.2823 391.263 72.9207C391.881 72.559 392.325 72.0317 392.597 71.3386L393.026 72.8303C392.74 73.5384 392.235 74.1035 391.512 74.5254C390.788 74.9322 389.877 75.1356 388.777 75.1356ZM405.133 75.1356C404.138 75.1356 403.227 74.9096 402.398 74.4576C401.584 73.9905 400.929 73.3049 400.431 72.4008C399.949 71.4968 399.708 70.3667 399.708 69.0106C399.708 67.6545 399.942 66.5245 400.409 65.6204C400.891 64.7164 401.539 64.0383 402.353 63.5863C403.181 63.1343 404.108 62.9082 405.133 62.9082C406.308 62.9082 407.348 63.1644 408.252 63.6767C409.156 64.189 409.871 64.9047 410.399 65.8238C410.926 66.7279 411.19 67.7901 411.19 69.0106C411.19 70.2311 410.926 71.3009 410.399 72.22C409.871 73.1391 409.156 73.8549 408.252 74.3672C407.348 74.8795 406.308 75.1356 405.133 75.1356ZM398.782 79.3847V63.0212H400.861V66.2532L400.725 69.0332L400.951 71.8132V79.3847H398.782ZM404.952 73.2371C405.72 73.2371 406.406 73.0638 407.009 72.7173C407.626 72.3707 408.108 71.881 408.455 71.2482C408.817 70.6003 408.997 69.8544 408.997 69.0106C408.997 68.1518 408.817 67.4135 408.455 66.7957C408.108 66.1628 407.626 65.6731 407.009 65.3266C406.406 64.98 405.72 64.8068 404.952 64.8068C404.198 64.8068 403.513 64.98 402.895 65.3266C402.292 65.6731 401.81 66.1628 401.449 66.7957C401.102 67.4135 400.929 68.1518 400.929 69.0106C400.929 69.8544 401.102 70.6003 401.449 71.2482C401.81 71.881 402.292 72.3707 402.895 72.7173C403.513 73.0638 404.198 73.2371 404.952 73.2371Z" fill="#C3C3C3"/>
<path d="M229.572 60.2283C229.989 60.2283 230.327 59.8904 230.327 59.4736C230.327 59.0568 229.989 58.7189 229.572 58.7189V60.2283ZM195.833 58.94C195.538 59.2347 195.538 59.7126 195.833 60.0073L200.635 64.8101C200.93 65.1048 201.408 65.1048 201.703 64.8101C201.997 64.5154 201.997 64.0375 201.703 63.7428L197.434 59.4736L201.703 55.2045C201.997 54.9097 201.997 54.4319 201.703 54.1372C201.408 53.8424 200.93 53.8424 200.635 54.1372L195.833 58.94ZM229.572 58.7189H196.366V60.2283H229.572V58.7189Z" fill="#C3C3C3"/>
<path d="M196.365 73.3283C195.948 73.3283 195.611 73.6662 195.611 74.083C195.611 74.4998 195.948 74.8377 196.365 74.8377L196.365 73.3283ZM230.105 74.6167C230.4 74.3219 230.4 73.8441 230.105 73.5494L225.302 68.7465C225.007 68.4518 224.53 68.4518 224.235 68.7465C223.94 69.0413 223.94 69.5191 224.235 69.8138L228.504 74.083L224.235 78.3522C223.94 78.6469 223.94 79.1248 224.235 79.4195C224.53 79.7142 225.007 79.7142 225.302 79.4195L230.105 74.6167ZM196.365 74.8377L229.571 74.8377L229.571 73.3283L196.365 73.3283L196.365 74.8377Z" fill="#C3C3C3"/>
</svg>
