<svg width="297" height="276" viewBox="0 0 297 276" fill="none" xmlns="http://www.w3.org/2000/svg">
<rect width="296" height="276" rx="5" fill="#121212"/>
<rect width="297" height="276" rx="5" fill="#121212"/>
<path d="M132.013 221.418C131.179 221.418 130.408 221.283 129.699 221.011C129 220.73 128.39 220.339 127.869 219.839C127.358 219.328 126.957 218.734 126.665 218.056C126.373 217.378 126.227 216.633 126.227 215.82C126.227 215.007 126.373 214.261 126.665 213.584C126.957 212.906 127.364 212.317 127.885 211.817C128.406 211.306 129.016 210.915 129.714 210.644C130.423 210.362 131.195 210.222 132.029 210.222C132.873 210.222 133.65 210.367 134.359 210.659C135.078 210.941 135.688 211.363 136.188 211.926L135.172 212.911C134.755 212.473 134.286 212.15 133.764 211.942C133.243 211.723 132.685 211.613 132.091 211.613C131.476 211.613 130.903 211.718 130.371 211.926C129.85 212.135 129.396 212.426 129.011 212.802C128.625 213.177 128.323 213.625 128.104 214.147C127.895 214.657 127.791 215.215 127.791 215.82C127.791 216.424 127.895 216.987 128.104 217.509C128.323 218.019 128.625 218.463 129.011 218.838C129.396 219.213 129.85 219.505 130.371 219.714C130.903 219.922 131.476 220.026 132.091 220.026C132.685 220.026 133.243 219.922 133.764 219.714C134.286 219.495 134.755 219.161 135.172 218.713L136.188 219.698C135.688 220.261 135.078 220.688 134.359 220.98C133.65 221.272 132.868 221.418 132.013 221.418ZM141.399 221.387C140.565 221.387 139.825 221.204 139.178 220.839C138.532 220.475 138.021 219.974 137.646 219.338C137.27 218.692 137.083 217.962 137.083 217.149C137.083 216.325 137.27 215.596 137.646 214.96C138.021 214.324 138.532 213.829 139.178 213.474C139.825 213.109 140.565 212.927 141.399 212.927C142.222 212.927 142.957 213.109 143.604 213.474C144.26 213.829 144.771 214.324 145.136 214.96C145.511 215.585 145.699 216.315 145.699 217.149C145.699 217.973 145.511 218.702 145.136 219.338C144.771 219.974 144.26 220.475 143.604 220.839C142.957 221.204 142.222 221.387 141.399 221.387ZM141.399 220.073C141.93 220.073 142.405 219.953 142.822 219.714C143.249 219.474 143.583 219.135 143.823 218.697C144.062 218.249 144.182 217.733 144.182 217.149C144.182 216.555 144.062 216.044 143.823 215.617C143.583 215.179 143.249 214.84 142.822 214.6C142.405 214.36 141.93 214.24 141.399 214.24C140.867 214.24 140.393 214.36 139.976 214.6C139.559 214.84 139.225 215.179 138.975 215.617C138.725 216.044 138.6 216.555 138.6 217.149C138.6 217.733 138.725 218.249 138.975 218.697C139.225 219.135 139.559 219.474 139.976 219.714C140.393 219.953 140.867 220.073 141.399 220.073ZM158.143 212.927C158.81 212.927 159.399 213.057 159.91 213.318C160.421 213.578 160.817 213.975 161.098 214.506C161.39 215.038 161.536 215.71 161.536 216.523V221.293H160.035V216.696C160.035 215.893 159.847 215.288 159.472 214.882C159.097 214.475 158.57 214.272 157.893 214.272C157.392 214.272 156.954 214.376 156.579 214.584C156.204 214.793 155.912 215.1 155.703 215.507C155.505 215.914 155.406 216.419 155.406 217.024V221.293H153.905V216.696C153.905 215.893 153.717 215.288 153.342 214.882C152.977 214.475 152.451 214.272 151.763 214.272C151.273 214.272 150.84 214.376 150.465 214.584C150.09 214.793 149.798 215.1 149.589 215.507C149.381 215.914 149.276 216.419 149.276 217.024V221.293H147.775V213.005H149.214V215.21L148.979 214.647C149.24 214.105 149.641 213.683 150.183 213.38C150.725 213.078 151.356 212.927 152.076 212.927C152.868 212.927 153.551 213.125 154.124 213.521C154.697 213.907 155.073 214.496 155.25 215.288L154.64 215.038C154.89 214.402 155.328 213.891 155.954 213.505C156.579 213.12 157.309 212.927 158.143 212.927ZM168.693 221.387C168.005 221.387 167.374 221.23 166.801 220.918C166.238 220.594 165.784 220.12 165.44 219.495C165.106 218.869 164.94 218.087 164.94 217.149C164.94 216.211 165.101 215.429 165.424 214.803C165.758 214.178 166.206 213.709 166.769 213.396C167.343 213.083 167.984 212.927 168.693 212.927C169.506 212.927 170.225 213.104 170.851 213.459C171.476 213.813 171.971 214.308 172.336 214.944C172.701 215.57 172.884 216.305 172.884 217.149C172.884 217.993 172.701 218.734 172.336 219.37C171.971 220.005 171.476 220.501 170.851 220.855C170.225 221.21 169.506 221.387 168.693 221.387ZM164.298 224.327V213.005H165.737V215.241L165.643 217.165L165.8 219.088V224.327H164.298ZM168.568 220.073C169.099 220.073 169.574 219.953 169.991 219.714C170.418 219.474 170.752 219.135 170.991 218.697C171.242 218.249 171.367 217.733 171.367 217.149C171.367 216.555 171.242 216.044 170.991 215.617C170.752 215.179 170.418 214.84 169.991 214.6C169.574 214.36 169.099 214.24 168.568 214.24C168.046 214.24 167.572 214.36 167.145 214.6C166.728 214.84 166.394 215.179 166.144 215.617C165.904 216.044 165.784 216.555 165.784 217.149C165.784 217.733 165.904 218.249 166.144 218.697C166.394 219.135 166.728 219.474 167.145 219.714C167.572 219.953 168.046 220.073 168.568 220.073ZM174.958 221.293V209.69H176.459V221.293H174.958ZM183.016 221.387C182.13 221.387 181.348 221.204 180.67 220.839C180.003 220.475 179.482 219.974 179.106 219.338C178.741 218.702 178.559 217.973 178.559 217.149C178.559 216.325 178.736 215.596 179.091 214.96C179.456 214.324 179.951 213.829 180.576 213.474C181.212 213.109 181.926 212.927 182.719 212.927C183.521 212.927 184.23 213.104 184.845 213.459C185.46 213.813 185.94 214.313 186.284 214.96C186.638 215.596 186.816 216.341 186.816 217.196C186.816 217.258 186.81 217.331 186.8 217.415C186.8 217.498 186.795 217.576 186.784 217.649H179.732V216.57H186.003L185.393 216.946C185.403 216.414 185.294 215.94 185.064 215.523C184.835 215.106 184.517 214.783 184.11 214.553C183.714 214.313 183.25 214.193 182.719 214.193C182.197 214.193 181.733 214.313 181.327 214.553C180.92 214.783 180.602 215.111 180.373 215.538C180.144 215.955 180.029 216.435 180.029 216.977V217.227C180.029 217.78 180.154 218.275 180.404 218.713C180.665 219.14 181.025 219.474 181.483 219.714C181.942 219.953 182.468 220.073 183.063 220.073C183.553 220.073 183.996 219.99 184.392 219.823C184.798 219.656 185.153 219.406 185.455 219.072L186.284 220.042C185.909 220.48 185.44 220.813 184.877 221.043C184.324 221.272 183.704 221.387 183.016 221.387ZM191.746 221.387C190.912 221.387 190.266 221.163 189.807 220.714C189.349 220.266 189.119 219.625 189.119 218.791V211.191H190.62V218.728C190.62 219.177 190.73 219.521 190.949 219.76C191.178 220 191.501 220.12 191.918 220.12C192.387 220.12 192.778 219.99 193.091 219.729L193.56 220.808C193.331 221.006 193.055 221.152 192.731 221.246C192.419 221.34 192.09 221.387 191.746 221.387ZM187.712 214.24V213.005H192.997V214.24H187.712ZM198.791 221.387C197.905 221.387 197.123 221.204 196.445 220.839C195.778 220.475 195.257 219.974 194.881 219.338C194.516 218.702 194.334 217.973 194.334 217.149C194.334 216.325 194.511 215.596 194.866 214.96C195.231 214.324 195.726 213.829 196.351 213.474C196.987 213.109 197.701 212.927 198.494 212.927C199.296 212.927 200.005 213.104 200.62 213.459C201.235 213.813 201.715 214.313 202.059 214.96C202.413 215.596 202.591 216.341 202.591 217.196C202.591 217.258 202.585 217.331 202.575 217.415C202.575 217.498 202.57 217.576 202.559 217.649H195.507V216.57H201.778L201.168 216.946C201.178 216.414 201.069 215.94 200.839 215.523C200.61 215.106 200.292 214.783 199.885 214.553C199.489 214.313 199.025 214.193 198.494 214.193C197.972 214.193 197.508 214.313 197.102 214.553C196.695 214.783 196.377 215.111 196.148 215.538C195.919 215.955 195.804 216.435 195.804 216.977V217.227C195.804 217.78 195.929 218.275 196.179 218.713C196.44 219.14 196.8 219.474 197.258 219.714C197.717 219.953 198.243 220.073 198.838 220.073C199.328 220.073 199.771 219.99 200.167 219.823C200.573 219.656 200.928 219.406 201.23 219.072L202.059 220.042C201.684 220.48 201.215 220.813 200.652 221.043C200.099 221.272 199.479 221.387 198.791 221.387Z" fill="white"/>
<path d="M91.4175 217.876L96.7544 224.107C97.2178 224.648 98.0701 224.589 98.4565 223.989L109.581 206.723" stroke="#1B7F4E" stroke-width="1.04432" stroke-linecap="round"/>
<path d="M66.7353 169.362L71.6925 158.416H73.2406L78.2133 169.362H76.5714L72.1459 159.292H72.7715L68.346 169.362H66.7353ZM68.8464 166.626L69.2686 165.375H75.4298L75.8833 166.626H68.8464ZM84.0215 169.456C83.3334 169.456 82.7027 169.3 82.1293 168.987C81.5664 168.664 81.1129 168.189 80.7689 167.564C80.4353 166.938 80.2685 166.157 80.2685 165.218C80.2685 164.28 80.4301 163.498 80.7532 162.873C81.0868 162.247 81.5351 161.778 82.0981 161.465C82.6714 161.153 83.3126 160.996 84.0215 160.996C84.8346 160.996 85.554 161.173 86.1795 161.528C86.805 161.882 87.3002 162.378 87.665 163.013C88.0299 163.639 88.2124 164.374 88.2124 165.218C88.2124 166.063 88.0299 166.803 87.665 167.439C87.3002 168.075 86.805 168.57 86.1795 168.924C85.554 169.279 84.8346 169.456 84.0215 169.456ZM79.6273 172.396V161.074H81.066V163.311L80.9722 165.234L81.1285 167.157V172.396H79.6273ZM83.8964 168.143C84.4281 168.143 84.9024 168.023 85.3194 167.783C85.7468 167.543 86.0804 167.204 86.3202 166.766C86.5704 166.318 86.6955 165.802 86.6955 165.218C86.6955 164.624 86.5704 164.113 86.3202 163.686C86.0804 163.248 85.7468 162.909 85.3194 162.669C84.9024 162.43 84.4281 162.31 83.8964 162.31C83.3751 162.31 82.9008 162.43 82.4734 162.669C82.0564 162.909 81.7228 163.248 81.4726 163.686C81.2328 164.113 81.1129 164.624 81.1129 165.218C81.1129 165.802 81.2328 166.318 81.4726 166.766C81.7228 167.204 82.0564 167.543 82.4734 167.783C82.9008 168.023 83.3751 168.143 83.8964 168.143ZM94.6807 169.456C93.9927 169.456 93.3619 169.3 92.7886 168.987C92.2256 168.664 91.7721 168.189 91.4281 167.564C91.0945 166.938 90.9277 166.157 90.9277 165.218C90.9277 164.28 91.0893 163.498 91.4125 162.873C91.7461 162.247 92.1943 161.778 92.7573 161.465C93.3307 161.153 93.9718 160.996 94.6807 160.996C95.4939 160.996 96.2132 161.173 96.8387 161.528C97.4642 161.882 97.9594 162.378 98.3243 163.013C98.6892 163.639 98.8716 164.374 98.8716 165.218C98.8716 166.063 98.6892 166.803 98.3243 167.439C97.9594 168.075 97.4642 168.57 96.8387 168.924C96.2132 169.279 95.4939 169.456 94.6807 169.456ZM90.2865 172.396V161.074H91.7252V163.311L91.6314 165.234L91.7878 167.157V172.396H90.2865ZM94.5556 168.143C95.0873 168.143 95.5616 168.023 95.9786 167.783C96.4061 167.543 96.7397 167.204 96.9794 166.766C97.2296 166.318 97.3547 165.802 97.3547 165.218C97.3547 164.624 97.2296 164.113 96.9794 163.686C96.7397 163.248 96.4061 162.909 95.9786 162.669C95.5616 162.43 95.0873 162.31 94.5556 162.31C94.0344 162.31 93.56 162.43 93.1326 162.669C92.7156 162.909 92.382 163.248 92.1318 163.686C91.892 164.113 91.7721 164.624 91.7721 165.218C91.7721 165.802 91.892 166.318 92.1318 166.766C92.382 167.204 92.7156 167.543 93.1326 167.783C93.56 168.023 94.0344 168.143 94.5556 168.143ZM100.946 169.362V161.074H102.384V163.326L102.244 162.763C102.473 162.19 102.859 161.752 103.401 161.45C103.943 161.147 104.61 160.996 105.402 160.996V162.45C105.34 162.44 105.277 162.435 105.215 162.435C105.163 162.435 105.111 162.435 105.058 162.435C104.256 162.435 103.62 162.675 103.151 163.154C102.682 163.634 102.447 164.327 102.447 165.234V169.362H100.946ZM110.726 169.456C109.892 169.456 109.152 169.274 108.506 168.909C107.859 168.544 107.348 168.044 106.973 167.408C106.598 166.761 106.41 166.031 106.41 165.218C106.41 164.395 106.598 163.665 106.973 163.029C107.348 162.393 107.859 161.898 108.506 161.544C109.152 161.179 109.892 160.996 110.726 160.996C111.55 160.996 112.285 161.179 112.931 161.544C113.588 161.898 114.099 162.393 114.464 163.029C114.839 163.655 115.026 164.384 115.026 165.218C115.026 166.042 114.839 166.772 114.464 167.408C114.099 168.044 113.588 168.544 112.931 168.909C112.285 169.274 111.55 169.456 110.726 169.456ZM110.726 168.143C111.258 168.143 111.732 168.023 112.149 167.783C112.577 167.543 112.91 167.204 113.15 166.766C113.39 166.318 113.51 165.802 113.51 165.218C113.51 164.624 113.39 164.113 113.15 163.686C112.91 163.248 112.577 162.909 112.149 162.669C111.732 162.43 111.258 162.31 110.726 162.31C110.194 162.31 109.72 162.43 109.303 162.669C108.886 162.909 108.552 163.248 108.302 163.686C108.052 164.113 107.927 164.624 107.927 165.218C107.927 165.802 108.052 166.318 108.302 166.766C108.552 167.204 108.886 167.543 109.303 167.783C109.72 168.023 110.194 168.143 110.726 168.143ZM119.047 169.362L115.419 161.074H116.983L120.204 168.58H119.454L122.738 161.074H124.208L120.58 169.362H119.047ZM125.609 169.362V161.074H127.11V169.362H125.609ZM126.359 159.479C126.067 159.479 125.822 159.386 125.624 159.198C125.437 159.01 125.343 158.781 125.343 158.51C125.343 158.228 125.437 157.994 125.624 157.806C125.822 157.618 126.067 157.525 126.359 157.525C126.651 157.525 126.891 157.618 127.079 157.806C127.277 157.983 127.376 158.207 127.376 158.479C127.376 158.76 127.282 159 127.094 159.198C126.907 159.386 126.662 159.479 126.359 159.479ZM134.402 160.996C135.079 160.996 135.673 161.127 136.184 161.387C136.706 161.648 137.112 162.044 137.404 162.576C137.696 163.107 137.842 163.78 137.842 164.593V169.362H136.341V164.765C136.341 163.962 136.143 163.357 135.746 162.951C135.361 162.544 134.813 162.341 134.104 162.341C133.573 162.341 133.109 162.445 132.713 162.654C132.317 162.862 132.009 163.17 131.79 163.576C131.582 163.983 131.477 164.489 131.477 165.093V169.362H129.976V161.074H131.415V163.311L131.18 162.716C131.451 162.174 131.868 161.752 132.431 161.45C132.994 161.147 133.651 160.996 134.402 160.996ZM144.248 172.49C143.487 172.49 142.747 172.38 142.027 172.161C141.319 171.953 140.74 171.651 140.292 171.254L141.011 170.097C141.397 170.431 141.871 170.692 142.434 170.879C142.997 171.077 143.586 171.176 144.201 171.176C145.181 171.176 145.9 170.947 146.359 170.488C146.818 170.03 147.047 169.331 147.047 168.393V166.641L147.204 164.999L147.125 163.342V161.074H148.548V168.236C148.548 169.696 148.183 170.77 147.454 171.458C146.724 172.146 145.655 172.49 144.248 172.49ZM144.06 169.018C143.258 169.018 142.538 168.851 141.902 168.518C141.277 168.174 140.776 167.7 140.401 167.095C140.036 166.49 139.854 165.792 139.854 164.999C139.854 164.197 140.036 163.498 140.401 162.904C140.776 162.299 141.277 161.83 141.902 161.497C142.538 161.163 143.258 160.996 144.06 160.996C144.769 160.996 145.416 161.142 145.999 161.434C146.583 161.716 147.047 162.153 147.391 162.748C147.746 163.342 147.923 164.092 147.923 164.999C147.923 165.896 147.746 166.641 147.391 167.236C147.047 167.83 146.583 168.278 145.999 168.58C145.416 168.872 144.769 169.018 144.06 169.018ZM144.232 167.705C144.785 167.705 145.275 167.59 145.702 167.361C146.13 167.131 146.463 166.813 146.703 166.407C146.953 166 147.078 165.531 147.078 164.999C147.078 164.468 146.953 163.999 146.703 163.592C146.463 163.185 146.13 162.873 145.702 162.654C145.275 162.424 144.785 162.31 144.232 162.31C143.68 162.31 143.185 162.424 142.747 162.654C142.319 162.873 141.981 163.185 141.73 163.592C141.491 163.999 141.371 164.468 141.371 164.999C141.371 165.531 141.491 166 141.73 166.407C141.981 166.813 142.319 167.131 142.747 167.361C143.185 167.59 143.68 167.705 144.232 167.705ZM155.835 169.362V158.416H157.399V169.362H155.835ZM164.883 160.996C165.56 160.996 166.155 161.127 166.665 161.387C167.187 161.648 167.593 162.044 167.885 162.576C168.177 163.107 168.323 163.78 168.323 164.593V169.362H166.822V164.765C166.822 163.962 166.624 163.357 166.228 162.951C165.842 162.544 165.294 162.341 164.586 162.341C164.054 162.341 163.59 162.445 163.194 162.654C162.798 162.862 162.49 163.17 162.271 163.576C162.063 163.983 161.958 164.489 161.958 165.093V169.362H160.457V161.074H161.896V163.311L161.661 162.716C161.932 162.174 162.349 161.752 162.912 161.45C163.475 161.147 164.132 160.996 164.883 160.996ZM175.52 169.362V158.416H180.43C181.691 158.416 182.661 158.671 183.338 159.182C184.016 159.683 184.355 160.371 184.355 161.246C184.355 161.841 184.219 162.341 183.948 162.748C183.688 163.154 183.333 163.467 182.885 163.686C182.437 163.905 181.952 164.014 181.431 164.014L181.712 163.545C182.338 163.545 182.89 163.655 183.37 163.874C183.849 164.092 184.23 164.416 184.511 164.843C184.793 165.26 184.934 165.781 184.934 166.407C184.934 167.345 184.579 168.075 183.87 168.596C183.172 169.107 182.129 169.362 180.743 169.362H175.52ZM177.083 168.096H180.68C181.545 168.096 182.207 167.95 182.666 167.658C183.125 167.366 183.354 166.907 183.354 166.282C183.354 165.646 183.125 165.182 182.666 164.89C182.207 164.598 181.545 164.452 180.68 164.452H176.943V163.185H180.289C181.081 163.185 181.697 163.04 182.134 162.748C182.572 162.456 182.791 162.018 182.791 161.434C182.791 160.85 182.572 160.412 182.134 160.12C181.697 159.829 181.081 159.683 180.289 159.683H177.083V168.096ZM187.136 169.362V157.759H188.637V169.362H187.136ZM195.053 169.456C194.219 169.456 193.479 169.274 192.833 168.909C192.186 168.544 191.675 168.044 191.3 167.408C190.925 166.761 190.737 166.031 190.737 165.218C190.737 164.395 190.925 163.665 191.3 163.029C191.675 162.393 192.186 161.898 192.833 161.544C193.479 161.179 194.219 160.996 195.053 160.996C195.877 160.996 196.612 161.179 197.258 161.544C197.915 161.898 198.426 162.393 198.79 163.029C199.166 163.655 199.353 164.384 199.353 165.218C199.353 166.042 199.166 166.772 198.79 167.408C198.426 168.044 197.915 168.544 197.258 168.909C196.612 169.274 195.877 169.456 195.053 169.456ZM195.053 168.143C195.585 168.143 196.059 168.023 196.476 167.783C196.904 167.543 197.237 167.204 197.477 166.766C197.717 166.318 197.837 165.802 197.837 165.218C197.837 164.624 197.717 164.113 197.477 163.686C197.237 163.248 196.904 162.909 196.476 162.669C196.059 162.43 195.585 162.31 195.053 162.31C194.521 162.31 194.047 162.43 193.63 162.669C193.213 162.909 192.879 163.248 192.629 163.686C192.379 164.113 192.254 164.624 192.254 165.218C192.254 165.802 192.379 166.318 192.629 166.766C192.879 167.204 193.213 167.543 193.63 167.783C194.047 168.023 194.521 168.143 195.053 168.143ZM205.042 169.456C204.197 169.456 203.442 169.274 202.774 168.909C202.118 168.544 201.602 168.044 201.226 167.408C200.851 166.772 200.663 166.042 200.663 165.218C200.663 164.395 200.851 163.665 201.226 163.029C201.602 162.393 202.118 161.898 202.774 161.544C203.442 161.179 204.197 160.996 205.042 160.996C205.792 160.996 206.46 161.147 207.043 161.45C207.638 161.742 208.096 162.179 208.42 162.763L207.278 163.498C207.007 163.092 206.673 162.795 206.277 162.607C205.892 162.409 205.475 162.31 205.026 162.31C204.484 162.31 203.999 162.43 203.572 162.669C203.145 162.909 202.806 163.248 202.555 163.686C202.305 164.113 202.18 164.624 202.18 165.218C202.18 165.813 202.305 166.329 202.555 166.766C202.806 167.204 203.145 167.543 203.572 167.783C203.999 168.023 204.484 168.143 205.026 168.143C205.475 168.143 205.892 168.049 206.277 167.861C206.673 167.663 207.007 167.361 207.278 166.954L208.42 167.673C208.096 168.247 207.638 168.69 207.043 169.003C206.46 169.305 205.792 169.456 205.042 169.456ZM211.476 167.361L211.507 165.437L216.277 161.074H218.091L214.432 164.671L213.618 165.359L211.476 167.361ZM210.256 169.362V157.759H211.757V169.362H210.256ZM216.59 169.362L213.337 165.328L214.306 164.124L218.435 169.362H216.59ZM223.169 169.456C222.324 169.456 221.568 169.274 220.901 168.909C220.244 168.544 219.728 168.044 219.353 167.408C218.978 166.772 218.79 166.042 218.79 165.218C218.79 164.395 218.978 163.665 219.353 163.029C219.728 162.393 220.244 161.898 220.901 161.544C221.568 161.179 222.324 160.996 223.169 160.996C223.919 160.996 224.586 161.147 225.17 161.45C225.765 161.742 226.223 162.179 226.546 162.763L225.405 163.498C225.134 163.092 224.8 162.795 224.404 162.607C224.018 162.409 223.601 162.31 223.153 162.31C222.611 162.31 222.126 162.43 221.699 162.669C221.271 162.909 220.932 163.248 220.682 163.686C220.432 164.113 220.307 164.624 220.307 165.218C220.307 165.813 220.432 166.329 220.682 166.766C220.932 167.204 221.271 167.543 221.699 167.783C222.126 168.023 222.611 168.143 223.153 168.143C223.601 168.143 224.018 168.049 224.404 167.861C224.8 167.663 225.134 167.361 225.405 166.954L226.546 167.673C226.223 168.247 225.765 168.69 225.17 169.003C224.586 169.305 223.919 169.456 223.169 169.456ZM232.809 160.996C233.486 160.996 234.08 161.127 234.591 161.387C235.112 161.648 235.519 162.044 235.811 162.576C236.103 163.107 236.249 163.78 236.249 164.593V169.362H234.748V164.765C234.748 163.962 234.55 163.357 234.153 162.951C233.768 162.544 233.22 162.341 232.511 162.341C231.98 162.341 231.516 162.445 231.12 162.654C230.724 162.862 230.416 163.17 230.197 163.576C229.989 163.983 229.884 164.489 229.884 165.093V169.362H228.383V157.759H229.884V163.311L229.587 162.716C229.858 162.174 230.275 161.752 230.838 161.45C231.401 161.147 232.058 160.996 232.809 160.996ZM244.172 169.362V167.611L244.094 167.283V164.296C244.094 163.66 243.906 163.17 243.531 162.826C243.166 162.471 242.613 162.294 241.873 162.294C241.383 162.294 240.904 162.378 240.434 162.544C239.965 162.701 239.569 162.914 239.246 163.185L238.62 162.06C239.048 161.716 239.559 161.455 240.153 161.278C240.758 161.09 241.388 160.996 242.045 160.996C243.181 160.996 244.057 161.272 244.672 161.825C245.287 162.378 245.595 163.222 245.595 164.358V169.362H244.172ZM241.451 169.456C240.836 169.456 240.294 169.352 239.825 169.143C239.366 168.935 239.011 168.648 238.761 168.283C238.511 167.908 238.386 167.486 238.386 167.017C238.386 166.568 238.49 166.162 238.699 165.797C238.918 165.432 239.267 165.14 239.746 164.921C240.236 164.702 240.893 164.593 241.717 164.593H244.344V165.672H241.779C241.029 165.672 240.523 165.797 240.262 166.047C240.002 166.297 239.871 166.6 239.871 166.954C239.871 167.361 240.033 167.689 240.356 167.939C240.679 168.179 241.128 168.299 241.701 168.299C242.264 168.299 242.754 168.174 243.171 167.924C243.598 167.673 243.906 167.309 244.094 166.829L244.391 167.861C244.193 168.351 243.843 168.742 243.343 169.034C242.843 169.315 242.212 169.456 241.451 169.456ZM248.373 169.362V161.074H249.874V169.362H248.373ZM249.124 159.479C248.832 159.479 248.587 159.386 248.389 159.198C248.201 159.01 248.107 158.781 248.107 158.51C248.107 158.228 248.201 157.994 248.389 157.806C248.587 157.618 248.832 157.525 249.124 157.525C249.415 157.525 249.655 157.618 249.843 157.806C250.041 157.983 250.14 158.207 250.14 158.479C250.14 158.76 250.046 159 249.859 159.198C249.671 159.386 249.426 159.479 249.124 159.479ZM257.166 160.996C257.844 160.996 258.438 161.127 258.949 161.387C259.47 161.648 259.876 162.044 260.168 162.576C260.46 163.107 260.606 163.78 260.606 164.593V169.362H259.105V164.765C259.105 163.962 258.907 163.357 258.511 162.951C258.125 162.544 257.578 162.341 256.869 162.341C256.337 162.341 255.873 162.445 255.477 162.654C255.081 162.862 254.773 163.17 254.554 163.576C254.346 163.983 254.242 164.489 254.242 165.093V169.362H252.74V161.074H254.179V163.311L253.945 162.716C254.216 162.174 254.633 161.752 255.196 161.45C255.759 161.147 256.415 160.996 257.166 160.996Z" fill="#656565"/>
<g clip-path="url(#clip0_628_1106)">
<path d="M45.2462 167.794L46.6156 166.424C48.8847 164.153 48.8847 160.472 46.6156 158.202C44.3466 155.931 40.6678 155.931 38.3987 158.202L35.6598 160.943C33.3908 163.213 33.3908 166.894 35.6598 169.165C36.712 170.217 38.0675 170.782 39.4449 170.858" stroke="#656565" stroke-width="1.04432" stroke-linecap="round"/>
<path d="M43.7295 160.521L42.36 161.891C40.0909 164.162 40.0909 167.843 42.36 170.113C44.629 172.384 48.3078 172.384 50.5769 170.113L53.3158 167.372C55.5849 165.102 55.5849 161.421 53.3158 159.15C52.2636 158.098 50.9081 157.533 49.5307 157.457" stroke="#656565" stroke-width="1.04432" stroke-linecap="round"/>
</g>
<path d="M76.8283 116.384V106.798H73.0752V105.438H82.1294V106.798H78.3764V116.384H76.8283ZM83.4151 116.384V108.096H84.8538V110.348L84.713 109.785C84.9424 109.212 85.3281 108.774 85.8702 108.472C86.4123 108.169 87.0795 108.018 87.8718 108.018V109.472C87.8093 109.462 87.7467 109.457 87.6842 109.457C87.6321 109.457 87.5799 109.457 87.5278 109.457C86.7251 109.457 86.0892 109.697 85.62 110.176C85.1509 110.656 84.9163 111.349 84.9163 112.256V116.384H83.4151ZM94.256 116.384V114.633L94.1778 114.304V111.318C94.1778 110.682 93.9902 110.192 93.6149 109.848C93.25 109.493 92.6975 109.316 91.9573 109.316C91.4673 109.316 90.9878 109.399 90.5186 109.566C90.0495 109.723 89.6533 109.936 89.3302 110.207L88.7047 109.082C89.1321 108.737 89.6429 108.477 90.2371 108.3C90.8418 108.112 91.4725 108.018 92.1293 108.018C93.2656 108.018 94.1413 108.294 94.7564 108.847C95.3715 109.399 95.679 110.244 95.679 111.38V116.384H94.256ZM91.5351 116.478C90.92 116.478 90.3779 116.374 89.9088 116.165C89.4501 115.957 89.0956 115.67 88.8454 115.305C88.5952 114.93 88.4701 114.508 88.4701 114.039C88.4701 113.59 88.5743 113.184 88.7829 112.819C89.0018 112.454 89.351 112.162 89.8306 111.943C90.3205 111.724 90.9773 111.615 91.8009 111.615H94.428V112.694H91.8635C91.1129 112.694 90.6072 112.819 90.3466 113.069C90.086 113.319 89.9557 113.622 89.9557 113.976C89.9557 114.383 90.1173 114.711 90.4404 114.961C90.7636 115.201 91.2119 115.321 91.7853 115.321C92.3482 115.321 92.8382 115.196 93.2552 114.946C93.6826 114.695 93.9902 114.331 94.1778 113.851L94.4749 114.883C94.2769 115.373 93.9276 115.764 93.4272 116.056C92.9268 116.337 92.2961 116.478 91.5351 116.478ZM102.883 108.018C103.56 108.018 104.154 108.148 104.665 108.409C105.187 108.67 105.593 109.066 105.885 109.598C106.177 110.129 106.323 110.802 106.323 111.615V116.384H104.822V111.787C104.822 110.984 104.624 110.379 104.227 109.973C103.842 109.566 103.294 109.363 102.585 109.363C102.054 109.363 101.59 109.467 101.194 109.676C100.798 109.884 100.49 110.192 100.271 110.598C100.063 111.005 99.9584 111.511 99.9584 112.115V116.384H98.4572V108.096H99.8958V110.333L99.6612 109.738C99.9323 109.196 100.349 108.774 100.912 108.472C101.475 108.169 102.132 108.018 102.883 108.018ZM111.478 116.478C110.79 116.478 110.133 116.384 109.508 116.197C108.893 116.009 108.408 115.78 108.053 115.509L108.679 114.32C109.033 114.56 109.471 114.763 109.992 114.93C110.514 115.097 111.045 115.18 111.587 115.18C112.286 115.18 112.786 115.081 113.089 114.883C113.401 114.685 113.558 114.409 113.558 114.054C113.558 113.794 113.464 113.59 113.276 113.444C113.089 113.298 112.838 113.189 112.526 113.116C112.223 113.043 111.885 112.98 111.509 112.928C111.134 112.866 110.759 112.793 110.383 112.709C110.008 112.616 109.664 112.491 109.351 112.334C109.039 112.167 108.788 111.943 108.601 111.662C108.413 111.37 108.319 110.984 108.319 110.505C108.319 110.004 108.46 109.566 108.741 109.191C109.023 108.816 109.419 108.529 109.93 108.331C110.451 108.122 111.066 108.018 111.775 108.018C112.317 108.018 112.865 108.086 113.417 108.221C113.98 108.347 114.439 108.529 114.793 108.769L114.152 109.957C113.777 109.707 113.386 109.535 112.979 109.441C112.573 109.347 112.166 109.3 111.759 109.3C111.103 109.3 110.613 109.41 110.29 109.629C109.966 109.837 109.805 110.108 109.805 110.442C109.805 110.723 109.899 110.942 110.086 111.099C110.284 111.245 110.535 111.359 110.837 111.443C111.15 111.526 111.494 111.599 111.869 111.662C112.244 111.714 112.62 111.787 112.995 111.881C113.37 111.964 113.709 112.084 114.011 112.24C114.324 112.397 114.574 112.616 114.762 112.897C114.96 113.179 115.059 113.554 115.059 114.023C115.059 114.523 114.913 114.956 114.621 115.321C114.329 115.686 113.917 115.972 113.386 116.181C112.854 116.379 112.218 116.478 111.478 116.478ZM122.08 116.384V114.633L122.002 114.304V111.318C122.002 110.682 121.814 110.192 121.439 109.848C121.074 109.493 120.521 109.316 119.781 109.316C119.291 109.316 118.812 109.399 118.343 109.566C117.873 109.723 117.477 109.936 117.154 110.207L116.529 109.082C116.956 108.737 117.467 108.477 118.061 108.3C118.666 108.112 119.296 108.018 119.953 108.018C121.09 108.018 121.965 108.294 122.58 108.847C123.195 109.399 123.503 110.244 123.503 111.38V116.384H122.08ZM119.359 116.478C118.744 116.478 118.202 116.374 117.733 116.165C117.274 115.957 116.92 115.67 116.669 115.305C116.419 114.93 116.294 114.508 116.294 114.039C116.294 113.59 116.398 113.184 116.607 112.819C116.826 112.454 117.175 112.162 117.655 111.943C118.144 111.724 118.801 111.615 119.625 111.615H122.252V112.694H119.687C118.937 112.694 118.431 112.819 118.171 113.069C117.91 113.319 117.78 113.622 117.78 113.976C117.78 114.383 117.941 114.711 118.264 114.961C118.588 115.201 119.036 115.321 119.609 115.321C120.172 115.321 120.662 115.196 121.079 114.946C121.507 114.695 121.814 114.331 122.002 113.851L122.299 114.883C122.101 115.373 121.752 115.764 121.251 116.056C120.751 116.337 120.12 116.478 119.359 116.478ZM129.893 116.478C129.049 116.478 128.293 116.296 127.626 115.931C126.969 115.566 126.453 115.066 126.078 114.43C125.702 113.794 125.515 113.064 125.515 112.24C125.515 111.417 125.702 110.687 126.078 110.051C126.453 109.415 126.969 108.92 127.626 108.565C128.293 108.201 129.049 108.018 129.893 108.018C130.644 108.018 131.311 108.169 131.895 108.472C132.489 108.764 132.948 109.201 133.271 109.785L132.13 110.52C131.859 110.114 131.525 109.816 131.129 109.629C130.743 109.431 130.326 109.332 129.878 109.332C129.336 109.332 128.851 109.452 128.423 109.691C127.996 109.931 127.657 110.27 127.407 110.708C127.157 111.135 127.032 111.646 127.032 112.24C127.032 112.835 127.157 113.351 127.407 113.788C127.657 114.226 127.996 114.565 128.423 114.805C128.851 115.045 129.336 115.165 129.878 115.165C130.326 115.165 130.743 115.071 131.129 114.883C131.525 114.685 131.859 114.383 132.13 113.976L133.271 114.695C132.948 115.269 132.489 115.712 131.895 116.025C131.311 116.327 130.644 116.478 129.893 116.478ZM138.168 116.478C137.334 116.478 136.687 116.254 136.229 115.806C135.77 115.357 135.541 114.716 135.541 113.882V106.282H137.042V113.82C137.042 114.268 137.151 114.612 137.37 114.852C137.599 115.092 137.923 115.211 138.34 115.211C138.809 115.211 139.2 115.081 139.512 114.821L139.982 115.9C139.752 116.098 139.476 116.244 139.153 116.337C138.84 116.431 138.512 116.478 138.168 116.478ZM134.133 109.332V108.096H139.419V109.332H134.133ZM141.797 116.384V108.096H143.298V116.384H141.797ZM142.547 106.501C142.255 106.501 142.01 106.407 141.812 106.22C141.625 106.032 141.531 105.803 141.531 105.532C141.531 105.25 141.625 105.016 141.812 104.828C142.01 104.64 142.255 104.547 142.547 104.547C142.839 104.547 143.079 104.64 143.266 104.828C143.465 105.005 143.564 105.229 143.564 105.501C143.564 105.782 143.47 106.022 143.282 106.22C143.094 106.407 142.849 106.501 142.547 106.501ZM149.714 116.478C148.88 116.478 148.14 116.296 147.493 115.931C146.847 115.566 146.336 115.066 145.961 114.43C145.585 113.783 145.398 113.053 145.398 112.24C145.398 111.417 145.585 110.687 145.961 110.051C146.336 109.415 146.847 108.92 147.493 108.565C148.14 108.201 148.88 108.018 149.714 108.018C150.537 108.018 151.272 108.201 151.919 108.565C152.575 108.92 153.086 109.415 153.451 110.051C153.826 110.677 154.014 111.406 154.014 112.24C154.014 113.064 153.826 113.794 153.451 114.43C153.086 115.066 152.575 115.566 151.919 115.931C151.272 116.296 150.537 116.478 149.714 116.478ZM149.714 115.165C150.245 115.165 150.72 115.045 151.137 114.805C151.564 114.565 151.898 114.226 152.138 113.788C152.377 113.34 152.497 112.824 152.497 112.24C152.497 111.646 152.377 111.135 152.138 110.708C151.898 110.27 151.564 109.931 151.137 109.691C150.72 109.452 150.245 109.332 149.714 109.332C149.182 109.332 148.708 109.452 148.291 109.691C147.874 109.931 147.54 110.27 147.29 110.708C147.04 111.135 146.915 111.646 146.915 112.24C146.915 112.824 147.04 113.34 147.29 113.788C147.54 114.226 147.874 114.565 148.291 114.805C148.708 115.045 149.182 115.165 149.714 115.165ZM160.516 108.018C161.193 108.018 161.788 108.148 162.298 108.409C162.82 108.67 163.226 109.066 163.518 109.598C163.81 110.129 163.956 110.802 163.956 111.615V116.384H162.455V111.787C162.455 110.984 162.257 110.379 161.861 109.973C161.475 109.566 160.928 109.363 160.219 109.363C159.687 109.363 159.223 109.467 158.827 109.676C158.431 109.884 158.123 110.192 157.904 110.598C157.696 111.005 157.591 111.511 157.591 112.115V116.384H156.09V108.096H157.529V110.333L157.294 109.738C157.565 109.196 157.982 108.774 158.545 108.472C159.108 108.169 159.765 108.018 160.516 108.018ZM171.153 116.384V105.438H175.422C176.381 105.438 177.199 105.589 177.877 105.891C178.555 106.194 179.076 106.632 179.441 107.205C179.806 107.778 179.988 108.461 179.988 109.254C179.988 110.046 179.806 110.729 179.441 111.302C179.076 111.865 178.555 112.303 177.877 112.616C177.199 112.918 176.381 113.069 175.422 113.069H172.013L172.716 112.334V116.384H171.153ZM172.716 112.491L172.013 111.709H175.375C176.376 111.709 177.131 111.495 177.642 111.067C178.164 110.64 178.424 110.035 178.424 109.254C178.424 108.472 178.164 107.867 177.642 107.44C177.131 107.012 176.376 106.798 175.375 106.798H172.013L172.716 106.017V112.491ZM181.914 116.384V108.096H183.352V110.348L183.212 109.785C183.441 109.212 183.827 108.774 184.369 108.472C184.911 108.169 185.578 108.018 186.37 108.018V109.472C186.308 109.462 186.245 109.457 186.183 109.457C186.131 109.457 186.079 109.457 186.026 109.457C185.224 109.457 184.588 109.697 184.119 110.176C183.649 110.656 183.415 111.349 183.415 112.256V116.384H181.914ZM191.694 116.478C190.86 116.478 190.12 116.296 189.474 115.931C188.827 115.566 188.316 115.066 187.941 114.43C187.566 113.783 187.378 113.053 187.378 112.24C187.378 111.417 187.566 110.687 187.941 110.051C188.316 109.415 188.827 108.92 189.474 108.565C190.12 108.201 190.86 108.018 191.694 108.018C192.518 108.018 193.253 108.201 193.899 108.565C194.556 108.92 195.067 109.415 195.431 110.051C195.807 110.677 195.994 111.406 195.994 112.24C195.994 113.064 195.807 113.794 195.431 114.43C195.067 115.066 194.556 115.566 193.899 115.931C193.253 116.296 192.518 116.478 191.694 116.478ZM191.694 115.165C192.226 115.165 192.7 115.045 193.117 114.805C193.544 114.565 193.878 114.226 194.118 113.788C194.358 113.34 194.478 112.824 194.478 112.24C194.478 111.646 194.358 111.135 194.118 110.708C193.878 110.27 193.544 109.931 193.117 109.691C192.7 109.452 192.226 109.332 191.694 109.332C191.162 109.332 190.688 109.452 190.271 109.691C189.854 109.931 189.52 110.27 189.27 110.708C189.02 111.135 188.895 111.646 188.895 112.24C188.895 112.824 189.02 113.34 189.27 113.788C189.52 114.226 189.854 114.565 190.271 114.805C190.688 115.045 191.162 115.165 191.694 115.165ZM201.683 116.478C200.838 116.478 200.083 116.296 199.415 115.931C198.759 115.566 198.243 115.066 197.867 114.43C197.492 113.794 197.304 113.064 197.304 112.24C197.304 111.417 197.492 110.687 197.867 110.051C198.243 109.415 198.759 108.92 199.415 108.565C200.083 108.201 200.838 108.018 201.683 108.018C202.433 108.018 203.101 108.169 203.684 108.472C204.279 108.764 204.737 109.201 205.061 109.785L203.919 110.52C203.648 110.114 203.314 109.816 202.918 109.629C202.532 109.431 202.115 109.332 201.667 109.332C201.125 109.332 200.64 109.452 200.213 109.691C199.785 109.931 199.447 110.27 199.196 110.708C198.946 111.135 198.821 111.646 198.821 112.24C198.821 112.835 198.946 113.351 199.196 113.788C199.447 114.226 199.785 114.565 200.213 114.805C200.64 115.045 201.125 115.165 201.667 115.165C202.115 115.165 202.532 115.071 202.918 114.883C203.314 114.685 203.648 114.383 203.919 113.976L205.061 114.695C204.737 115.269 204.279 115.712 203.684 116.025C203.101 116.327 202.433 116.478 201.683 116.478ZM210.572 116.478C209.686 116.478 208.904 116.296 208.227 115.931C207.56 115.566 207.038 115.066 206.663 114.43C206.298 113.794 206.116 113.064 206.116 112.24C206.116 111.417 206.293 110.687 206.647 110.051C207.012 109.415 207.507 108.92 208.133 108.565C208.769 108.201 209.483 108.018 210.275 108.018C211.078 108.018 211.787 108.195 212.402 108.55C213.017 108.904 213.497 109.405 213.841 110.051C214.195 110.687 214.372 111.432 214.372 112.287C214.372 112.35 214.367 112.423 214.357 112.506C214.357 112.59 214.351 112.668 214.341 112.741H207.289V111.662H213.559L212.949 112.037C212.96 111.505 212.85 111.031 212.621 110.614C212.392 110.197 212.074 109.874 211.667 109.644C211.271 109.405 210.807 109.285 210.275 109.285C209.754 109.285 209.29 109.405 208.884 109.644C208.477 109.874 208.159 110.202 207.93 110.63C207.7 111.047 207.586 111.526 207.586 112.068V112.319C207.586 112.871 207.711 113.366 207.961 113.804C208.222 114.232 208.581 114.565 209.04 114.805C209.499 115.045 210.025 115.165 210.619 115.165C211.109 115.165 211.552 115.081 211.949 114.914C212.355 114.748 212.71 114.497 213.012 114.164L213.841 115.133C213.465 115.571 212.996 115.905 212.433 116.134C211.881 116.363 211.26 116.478 210.572 116.478ZM218.834 116.478C218.146 116.478 217.489 116.384 216.863 116.197C216.248 116.009 215.764 115.78 215.409 115.509L216.035 114.32C216.389 114.56 216.827 114.763 217.348 114.93C217.87 115.097 218.401 115.18 218.943 115.18C219.642 115.18 220.142 115.081 220.445 114.883C220.757 114.685 220.914 114.409 220.914 114.054C220.914 113.794 220.82 113.59 220.632 113.444C220.445 113.298 220.194 113.189 219.882 113.116C219.579 113.043 219.24 112.98 218.865 112.928C218.49 112.866 218.114 112.793 217.739 112.709C217.364 112.616 217.02 112.491 216.707 112.334C216.394 112.167 216.144 111.943 215.957 111.662C215.769 111.37 215.675 110.984 215.675 110.505C215.675 110.004 215.816 109.566 216.097 109.191C216.379 108.816 216.775 108.529 217.286 108.331C217.807 108.122 218.422 108.018 219.131 108.018C219.673 108.018 220.22 108.086 220.773 108.221C221.336 108.347 221.795 108.529 222.149 108.769L221.508 109.957C221.133 109.707 220.742 109.535 220.335 109.441C219.928 109.347 219.522 109.3 219.115 109.3C218.459 109.3 217.969 109.41 217.645 109.629C217.322 109.837 217.161 110.108 217.161 110.442C217.161 110.723 217.254 110.942 217.442 111.099C217.64 111.245 217.89 111.359 218.193 111.443C218.505 111.526 218.849 111.599 219.225 111.662C219.6 111.714 219.975 111.787 220.351 111.881C220.726 111.964 221.065 112.084 221.367 112.24C221.68 112.397 221.93 112.616 222.118 112.897C222.316 113.179 222.415 113.554 222.415 114.023C222.415 114.523 222.269 114.956 221.977 115.321C221.685 115.686 221.273 115.972 220.742 116.181C220.21 116.379 219.574 116.478 218.834 116.478ZM226.668 116.478C225.98 116.478 225.323 116.384 224.698 116.197C224.082 116.009 223.598 115.78 223.243 115.509L223.869 114.32C224.223 114.56 224.661 114.763 225.182 114.93C225.704 115.097 226.235 115.18 226.777 115.18C227.476 115.18 227.976 115.081 228.279 114.883C228.591 114.685 228.748 114.409 228.748 114.054C228.748 113.794 228.654 113.59 228.466 113.444C228.279 113.298 228.028 113.189 227.716 113.116C227.413 113.043 227.074 112.98 226.699 112.928C226.324 112.866 225.949 112.793 225.573 112.709C225.198 112.616 224.854 112.491 224.541 112.334C224.228 112.167 223.978 111.943 223.791 111.662C223.603 111.37 223.509 110.984 223.509 110.505C223.509 110.004 223.65 109.566 223.931 109.191C224.213 108.816 224.609 108.529 225.12 108.331C225.641 108.122 226.256 108.018 226.965 108.018C227.507 108.018 228.054 108.086 228.607 108.221C229.17 108.347 229.629 108.529 229.983 108.769L229.342 109.957C228.967 109.707 228.576 109.535 228.169 109.441C227.763 109.347 227.356 109.3 226.949 109.3C226.293 109.3 225.803 109.41 225.479 109.629C225.156 109.837 224.995 110.108 224.995 110.442C224.995 110.723 225.089 110.942 225.276 111.099C225.474 111.245 225.724 111.359 226.027 111.443C226.34 111.526 226.684 111.599 227.059 111.662C227.434 111.714 227.809 111.787 228.185 111.881C228.56 111.964 228.899 112.084 229.201 112.24C229.514 112.397 229.764 112.616 229.952 112.897C230.15 113.179 230.249 113.554 230.249 114.023C230.249 114.523 230.103 114.956 229.811 115.321C229.519 115.686 229.107 115.972 228.576 116.181C228.044 116.379 227.408 116.478 226.668 116.478ZM232.125 116.384V108.096H233.626V116.384H232.125ZM232.876 106.501C232.584 106.501 232.339 106.407 232.141 106.22C231.953 106.032 231.859 105.803 231.859 105.532C231.859 105.25 231.953 105.016 232.141 104.828C232.339 104.64 232.584 104.547 232.876 104.547C233.168 104.547 233.407 104.64 233.595 104.828C233.793 105.005 233.892 105.229 233.892 105.501C233.892 105.782 233.798 106.022 233.611 106.22C233.423 106.407 233.178 106.501 232.876 106.501ZM240.918 108.018C241.596 108.018 242.19 108.148 242.701 108.409C243.222 108.67 243.629 109.066 243.92 109.598C244.212 110.129 244.358 110.802 244.358 111.615V116.384H242.857V111.787C242.857 110.984 242.659 110.379 242.263 109.973C241.877 109.566 241.33 109.363 240.621 109.363C240.089 109.363 239.625 109.467 239.229 109.676C238.833 109.884 238.525 110.192 238.307 110.598C238.098 111.005 237.994 111.511 237.994 112.115V116.384H236.493V108.096H237.931V110.333L237.697 109.738C237.968 109.196 238.385 108.774 238.948 108.472C239.511 108.169 240.167 108.018 240.918 108.018ZM250.764 119.512C250.003 119.512 249.263 119.402 248.544 119.183C247.835 118.975 247.256 118.673 246.808 118.276L247.527 117.119C247.913 117.453 248.388 117.713 248.951 117.901C249.513 118.099 250.102 118.198 250.718 118.198C251.698 118.198 252.417 117.969 252.876 117.51C253.334 117.051 253.564 116.353 253.564 115.415V113.663L253.72 112.021L253.642 110.364V108.096H255.065V115.258C255.065 116.718 254.7 117.792 253.97 118.48C253.24 119.168 252.172 119.512 250.764 119.512ZM250.577 116.04C249.774 116.04 249.055 115.873 248.419 115.54C247.793 115.196 247.293 114.721 246.918 114.117C246.553 113.512 246.37 112.814 246.37 112.021C246.37 111.219 246.553 110.52 246.918 109.926C247.293 109.321 247.793 108.852 248.419 108.519C249.055 108.185 249.774 108.018 250.577 108.018C251.286 108.018 251.932 108.164 252.516 108.456C253.1 108.737 253.564 109.175 253.908 109.77C254.262 110.364 254.439 111.114 254.439 112.021C254.439 112.918 254.262 113.663 253.908 114.258C253.564 114.852 253.1 115.3 252.516 115.602C251.932 115.894 251.286 116.04 250.577 116.04ZM250.749 114.727C251.301 114.727 251.791 114.612 252.219 114.383C252.646 114.153 252.98 113.835 253.22 113.429C253.47 113.022 253.595 112.553 253.595 112.021C253.595 111.49 253.47 111.021 253.22 110.614C252.98 110.207 252.646 109.895 252.219 109.676C251.791 109.446 251.301 109.332 250.749 109.332C250.196 109.332 249.701 109.446 249.263 109.676C248.836 109.895 248.497 110.207 248.247 110.614C248.007 111.021 247.887 111.49 247.887 112.021C247.887 112.553 248.007 113.022 248.247 113.429C248.497 113.835 248.836 114.153 249.263 114.383C249.701 114.612 250.196 114.727 250.749 114.727Z" fill="#656565"/>
<path d="M50.7539 107.35V111.179L53.1471 113.572" stroke="#656565" stroke-width="1.04432" stroke-linecap="round" stroke-linejoin="round"/>
<path d="M44.6316 105.056L44.2624 104.687L44.6316 105.056ZM43.4193 106.269L42.8971 106.271C42.8986 106.558 43.1303 106.789 43.4167 106.791L43.4193 106.269ZM45.8535 106.803C46.1419 106.805 46.3768 106.572 46.3783 106.284C46.3797 105.995 46.1471 105.76 45.8588 105.759L45.8535 106.803ZM43.9292 103.829C43.9278 103.541 43.6928 103.308 43.4044 103.31C43.1161 103.311 42.8835 103.546 42.8849 103.834L43.9292 103.829ZM42.736 109.989C42.7751 109.704 42.5753 109.44 42.2896 109.401C42.0039 109.362 41.7405 109.562 41.7013 109.848L42.736 109.989ZM57.185 104.748C53.6031 101.167 47.8174 101.132 44.2624 104.687L45.0008 105.426C48.1411 102.285 53.2655 102.306 56.4466 105.487L57.185 104.748ZM44.3236 117.61C47.9055 121.192 53.6912 121.226 57.2462 117.671L56.5078 116.933C53.3675 120.073 48.2431 120.052 45.062 116.871L44.3236 117.61ZM57.2462 117.671C60.8013 114.116 60.7669 108.33 57.185 104.748L56.4466 105.487C59.6276 108.668 59.6481 113.792 56.5078 116.933L57.2462 117.671ZM44.2624 104.687L43.0501 105.899L43.7885 106.638L45.0008 105.426L44.2624 104.687ZM43.4167 106.791L45.8535 106.803L45.8588 105.759L43.4219 105.747L43.4167 106.791ZM43.9415 106.266L43.9292 103.829L42.8849 103.834L42.8971 106.271L43.9415 106.266ZM41.7013 109.848C41.3251 112.593 42.2012 115.487 44.3236 117.61L45.062 116.871C43.1787 114.988 42.4025 112.422 42.736 109.989L41.7013 109.848Z" fill="#656565"/>
<path d="M115.469 65.1251C114.635 65.1251 113.837 65 113.076 64.7498C112.315 64.4892 111.716 64.1556 111.278 63.749L111.856 62.5293C112.273 62.8941 112.805 63.1965 113.451 63.4362C114.098 63.676 114.77 63.7959 115.469 63.7959C116.105 63.7959 116.621 63.7229 117.017 63.577C117.413 63.431 117.705 63.233 117.893 62.9827C118.08 62.7221 118.174 62.4302 118.174 62.107C118.174 61.7317 118.049 61.4294 117.799 61.2001C117.559 60.9707 117.241 60.7883 116.845 60.6527C116.459 60.5068 116.032 60.3817 115.563 60.2774C115.093 60.1732 114.619 60.0533 114.14 59.9178C113.67 59.7718 113.238 59.5894 112.842 59.3705C112.456 59.1515 112.143 58.8596 111.903 58.4948C111.664 58.1195 111.544 57.6399 111.544 57.0561C111.544 56.4931 111.69 55.9771 111.982 55.508C112.284 55.0284 112.743 54.6479 113.358 54.3664C113.983 54.0745 114.775 53.9286 115.735 53.9286C116.371 53.9286 117.001 54.012 117.627 54.1788C118.252 54.3456 118.794 54.5854 119.253 54.8981L118.737 56.1491C118.268 55.8364 117.773 55.6122 117.251 55.4767C116.73 55.3307 116.225 55.2578 115.735 55.2578C115.119 55.2578 114.614 55.336 114.218 55.4923C113.822 55.6487 113.53 55.8572 113.342 56.1178C113.165 56.3785 113.076 56.6704 113.076 56.9935C113.076 57.3793 113.196 57.6868 113.436 57.9162C113.686 58.1455 114.004 58.328 114.39 58.4635C114.786 58.599 115.219 58.7241 115.688 58.8388C116.157 58.943 116.626 59.0629 117.095 59.1984C117.575 59.334 118.007 59.5112 118.393 59.7301C118.789 59.9491 119.107 60.241 119.347 60.6058C119.587 60.9707 119.707 61.4398 119.707 62.0132C119.707 62.5657 119.555 63.0818 119.253 63.5613C118.951 64.0305 118.482 64.411 117.846 64.7029C117.22 64.9844 116.428 65.1251 115.469 65.1251ZM124.618 65.0938C123.784 65.0938 123.138 64.8697 122.679 64.4214C122.22 63.9731 121.991 63.332 121.991 62.498V54.8981H123.492V62.4354C123.492 62.8837 123.602 63.2277 123.821 63.4675C124.05 63.7073 124.373 63.8272 124.79 63.8272C125.259 63.8272 125.65 63.6969 125.963 63.4362L126.432 64.5152C126.203 64.7133 125.927 64.8593 125.603 64.9531C125.291 65.0469 124.962 65.0938 124.618 65.0938ZM120.584 57.9474V56.7121H125.869V57.9474H120.584ZM133.392 65V63.2486L133.314 62.9202V59.9334C133.314 59.2975 133.126 58.8075 132.751 58.4635C132.386 58.109 131.833 57.9318 131.093 57.9318C130.603 57.9318 130.124 58.0152 129.654 58.182C129.185 58.3384 128.789 58.5521 128.466 58.8231L127.841 57.6972C128.268 57.3532 128.779 57.0926 129.373 56.9154C129.978 56.7277 130.608 56.6339 131.265 56.6339C132.401 56.6339 133.277 56.9101 133.892 57.4627C134.507 58.0152 134.815 58.8596 134.815 59.996V65H133.392ZM130.671 65.0938C130.056 65.0938 129.514 64.9896 129.045 64.7811C128.586 64.5726 128.231 64.2859 127.981 63.921C127.731 63.5457 127.606 63.1235 127.606 62.6544C127.606 62.2061 127.71 61.7995 127.919 61.4346C128.138 61.0697 128.487 60.7778 128.966 60.5589C129.456 60.34 130.113 60.2305 130.937 60.2305H133.564V61.3095H130.999C130.249 61.3095 129.743 61.4346 129.482 61.6848C129.222 61.935 129.092 62.2374 129.092 62.5918C129.092 62.9984 129.253 63.3268 129.576 63.577C129.899 63.8168 130.348 63.9366 130.921 63.9366C131.484 63.9366 131.974 63.8115 132.391 63.5613C132.818 63.3111 133.126 62.9463 133.314 62.4667L133.611 63.4988C133.413 63.9888 133.063 64.3797 132.563 64.6716C132.063 64.9531 131.432 65.0938 130.671 65.0938ZM137.593 65V56.7121H139.032V58.9639L138.891 58.4009C139.12 57.8276 139.506 57.3897 140.048 57.0874C140.59 56.785 141.257 56.6339 142.05 56.6339V58.0882C141.987 58.0778 141.925 58.0725 141.862 58.0725C141.81 58.0725 141.758 58.0725 141.706 58.0725C140.903 58.0725 140.267 58.3123 139.798 58.7919C139.329 59.2714 139.094 59.9647 139.094 60.8717V65H137.593ZM147.082 65.0938C146.248 65.0938 145.602 64.8697 145.143 64.4214C144.684 63.9731 144.455 63.332 144.455 62.498V54.8981H145.956V62.4354C145.956 62.8837 146.066 63.2277 146.284 63.4675C146.514 63.7073 146.837 63.8272 147.254 63.8272C147.723 63.8272 148.114 63.6969 148.427 63.4362L148.896 64.5152C148.667 64.7133 148.39 64.8593 148.067 64.9531C147.754 65.0469 147.426 65.0938 147.082 65.0938ZM143.047 57.9474V56.7121H148.333V57.9474H143.047ZM150.711 65V56.7121H152.212V65H150.711ZM151.461 55.117C151.17 55.117 150.925 55.0232 150.727 54.8356C150.539 54.6479 150.445 54.4186 150.445 54.1475C150.445 53.866 150.539 53.6315 150.727 53.4438C150.925 53.2562 151.17 53.1623 151.461 53.1623C151.753 53.1623 151.993 53.2562 152.181 53.4438C152.379 53.621 152.478 53.8452 152.478 54.1162C152.478 54.3977 152.384 54.6375 152.196 54.8356C152.009 55.0232 151.764 55.117 151.461 55.117ZM159.504 56.6339C160.181 56.6339 160.776 56.7642 161.287 57.0248C161.808 57.2854 162.214 57.6816 162.506 58.2133C162.798 58.745 162.944 59.4174 162.944 60.2305V65H161.443V60.4025C161.443 59.5998 161.245 58.9952 160.849 58.5886C160.463 58.182 159.916 57.9787 159.207 57.9787C158.675 57.9787 158.211 58.083 157.815 58.2915C157.419 58.5 157.111 58.8075 156.892 59.2141C156.684 59.6207 156.58 60.1263 156.58 60.7309V65H155.078V56.7121H156.517V58.9482L156.283 58.354C156.554 57.8119 156.971 57.3897 157.534 57.0874C158.096 56.785 158.753 56.6339 159.504 56.6339ZM169.35 68.1275C168.589 68.1275 167.849 68.0181 167.13 67.7991C166.421 67.5906 165.842 67.2883 165.394 66.8922L166.113 65.735C166.499 66.0686 166.973 66.3292 167.536 66.5168C168.099 66.7149 168.688 66.814 169.303 66.814C170.283 66.814 171.003 66.5846 171.461 66.1259C171.92 65.6672 172.149 64.9687 172.149 64.0305V62.2791L172.306 60.6371L172.228 58.9795V56.7121H173.651V63.8741C173.651 65.3336 173.286 66.4074 172.556 67.0954C171.826 67.7835 170.758 68.1275 169.35 68.1275ZM169.163 64.656C168.36 64.656 167.641 64.4892 167.005 64.1556C166.379 63.8115 165.879 63.3372 165.503 62.7325C165.139 62.1279 164.956 61.4294 164.956 60.6371C164.956 59.8344 165.139 59.1359 165.503 58.5417C165.879 57.937 166.379 57.4679 167.005 57.1343C167.641 56.8007 168.36 56.6339 169.163 56.6339C169.872 56.6339 170.518 56.7798 171.102 57.0717C171.686 57.3532 172.149 57.7911 172.493 58.3853C172.848 58.9795 173.025 59.7301 173.025 60.6371C173.025 61.5337 172.848 62.2791 172.493 62.8733C172.149 63.4675 171.686 63.9158 171.102 64.2181C170.518 64.51 169.872 64.656 169.163 64.656ZM169.335 63.3424C169.887 63.3424 170.377 63.2277 170.805 62.9984C171.232 62.769 171.566 62.4511 171.805 62.0445C172.056 61.6379 172.181 61.1688 172.181 60.6371C172.181 60.1054 172.056 59.6363 171.805 59.2297C171.566 58.8231 171.232 58.5104 170.805 58.2915C170.377 58.0621 169.887 57.9474 169.335 57.9474C168.782 57.9474 168.287 58.0621 167.849 58.2915C167.422 58.5104 167.083 58.8231 166.833 59.2297C166.593 59.6363 166.473 60.1054 166.473 60.6371C166.473 61.1688 166.593 61.6379 166.833 62.0445C167.083 62.4511 167.422 62.769 167.849 62.9984C168.287 63.2277 168.782 63.3424 169.335 63.3424ZM184.128 65.1251C183.294 65.1251 182.496 65 181.735 64.7498C180.974 64.4892 180.375 64.1556 179.937 63.749L180.515 62.5293C180.932 62.8941 181.464 63.1965 182.11 63.4362C182.757 63.676 183.429 63.7959 184.128 63.7959C184.764 63.7959 185.28 63.7229 185.676 63.577C186.072 63.431 186.364 63.233 186.551 62.9827C186.739 62.7221 186.833 62.4302 186.833 62.107C186.833 61.7317 186.708 61.4294 186.458 61.2001C186.218 60.9707 185.9 60.7883 185.504 60.6527C185.118 60.5068 184.691 60.3817 184.221 60.2774C183.752 60.1732 183.278 60.0533 182.798 59.9178C182.329 59.7718 181.897 59.5894 181.5 59.3705C181.115 59.1515 180.802 58.8596 180.562 58.4948C180.322 58.1195 180.203 57.6399 180.203 57.0561C180.203 56.4931 180.349 55.9771 180.64 55.508C180.943 55.0284 181.401 54.6479 182.017 54.3664C182.642 54.0745 183.434 53.9286 184.393 53.9286C185.029 53.9286 185.66 54.012 186.286 54.1788C186.911 54.3456 187.453 54.5854 187.912 54.8981L187.396 56.1491C186.927 55.8364 186.432 55.6122 185.91 55.4767C185.389 55.3307 184.883 55.2578 184.393 55.2578C183.778 55.2578 183.273 55.336 182.877 55.4923C182.48 55.6487 182.189 55.8572 182.001 56.1178C181.824 56.3785 181.735 56.6704 181.735 56.9935C181.735 57.3793 181.855 57.6868 182.095 57.9162C182.345 58.1455 182.663 58.328 183.049 58.4635C183.445 58.599 183.877 58.7241 184.347 58.8388C184.816 58.943 185.285 59.0629 185.754 59.1984C186.233 59.334 186.666 59.5112 187.052 59.7301C187.448 59.9491 187.766 60.241 188.006 60.6058C188.245 60.9707 188.365 61.4398 188.365 62.0132C188.365 62.5657 188.214 63.0818 187.912 63.5613C187.61 64.0305 187.14 64.411 186.505 64.7029C185.879 64.9844 185.087 65.1251 184.128 65.1251ZM192.03 65L188.949 56.7121H190.372L193.109 64.2181H192.436L195.282 56.7121H196.549L199.332 64.2181H198.676L201.475 56.7121H202.82L199.723 65H198.285L195.673 58.1507H196.111L193.468 65H192.03ZM209.228 65V63.2486L209.15 62.9202V59.9334C209.15 59.2975 208.962 58.8075 208.587 58.4635C208.222 58.109 207.67 57.9318 206.929 57.9318C206.439 57.9318 205.96 58.0152 205.491 58.182C205.022 58.3384 204.625 58.5521 204.302 58.8231L203.677 57.6972C204.104 57.3532 204.615 57.0926 205.209 56.9154C205.814 56.7277 206.445 56.6339 207.101 56.6339C208.238 56.6339 209.113 56.9101 209.729 57.4627C210.344 58.0152 210.651 58.8596 210.651 59.996V65H209.228ZM206.507 65.0938C205.892 65.0938 205.35 64.9896 204.881 64.7811C204.422 64.5726 204.068 64.2859 203.818 63.921C203.567 63.5457 203.442 63.1235 203.442 62.6544C203.442 62.2061 203.546 61.7995 203.755 61.4346C203.974 61.0697 204.323 60.7778 204.803 60.5589C205.293 60.34 205.949 60.2305 206.773 60.2305H209.4V61.3095H206.836C206.085 61.3095 205.579 61.4346 205.319 61.6848C205.058 61.935 204.928 62.2374 204.928 62.5918C204.928 62.9984 205.089 63.3268 205.413 63.577C205.736 63.8168 206.184 63.9366 206.757 63.9366C207.32 63.9366 207.81 63.8115 208.227 63.5613C208.655 63.3111 208.962 62.9463 209.15 62.4667L209.447 63.4988C209.249 63.9888 208.9 64.3797 208.399 64.6716C207.899 64.9531 207.268 65.0938 206.507 65.0938ZM217.823 65.0938C217.135 65.0938 216.505 64.9374 215.931 64.6247C215.368 64.3015 214.915 63.8272 214.571 63.2017C214.237 62.5762 214.07 61.7943 214.07 60.856C214.07 59.9178 214.232 59.1359 214.555 58.5104C214.889 57.8849 215.337 57.4158 215.9 57.103C216.473 56.7903 217.115 56.6339 217.823 56.6339C218.637 56.6339 219.356 56.8111 219.981 57.1656C220.607 57.52 221.102 58.0152 221.467 58.6511C221.832 59.2766 222.014 60.0116 222.014 60.856C222.014 61.7005 221.832 62.4406 221.467 63.0766C221.102 63.7125 220.607 64.2077 219.981 64.5621C219.356 64.9166 218.637 65.0938 217.823 65.0938ZM213.429 68.0337V56.7121H214.868V58.9482L214.774 60.8717L214.93 62.7951V68.0337H213.429ZM217.698 63.7803C218.23 63.7803 218.704 63.6604 219.121 63.4206C219.549 63.1808 219.882 62.842 220.122 62.4042C220.372 61.9559 220.497 61.4398 220.497 60.856C220.497 60.2618 220.372 59.751 220.122 59.3236C219.882 58.8857 219.549 58.5469 219.121 58.3071C218.704 58.0673 218.23 57.9474 217.698 57.9474C217.177 57.9474 216.703 58.0673 216.275 58.3071C215.858 58.5469 215.525 58.8857 215.275 59.3236C215.035 59.751 214.915 60.2618 214.915 60.856C214.915 61.4398 215.035 61.9559 215.275 62.4042C215.525 62.842 215.858 63.1808 216.275 63.4206C216.703 63.6604 217.177 63.7803 217.698 63.7803Z" fill="#656565"/>
<path d="M96.3535 55.0021C96.6419 55.0021 96.8757 54.7684 96.8757 54.48C96.8757 54.1916 96.6419 53.9578 96.3535 53.9578V55.0021ZM73.0097 54.1108C72.8058 54.3147 72.8058 54.6453 73.0097 54.8492L76.3327 58.1722C76.5366 58.3761 76.8672 58.3761 77.0711 58.1722C77.2751 57.9683 77.2751 57.6377 77.0711 57.4338L74.1174 54.48L77.0711 51.5262C77.2751 51.3223 77.2751 50.9917 77.0711 50.7878C76.8672 50.5838 76.5366 50.5838 76.3327 50.7878L73.0097 54.1108ZM96.3535 53.9578H73.3789V55.0021H96.3535V53.9578Z" fill="#656565"/>
<path d="M73.3789 64.0672C73.0905 64.0672 72.8567 64.301 72.8567 64.5894C72.8567 64.8777 73.0905 65.1115 73.3789 65.1115L73.3789 64.0672ZM96.7227 64.9586C96.9267 64.7547 96.9267 64.424 96.7227 64.2201L93.3997 60.8971C93.1958 60.6932 92.8652 60.6932 92.6613 60.8971C92.4574 61.101 92.4574 61.4317 92.6613 61.6356L95.6151 64.5894L92.6613 67.5431C92.4574 67.7471 92.4574 68.0777 92.6613 68.2816C92.8652 68.4855 93.1958 68.4855 93.3997 68.2816L96.7227 64.9586ZM73.3789 65.1115L96.3535 65.1115L96.3535 64.0672L73.3789 64.0672L73.3789 65.1115Z" fill="#656565"/>
<defs>
<clipPath id="clip0_628_1106">
<rect width="22.975" height="22.975" fill="white" transform="translate(33 152.67)"/>
</clipPath>
</defs>
</svg>
