<svg width="1001" height="371" viewBox="0 0 1001 371" fill="none" xmlns="http://www.w3.org/2000/svg">
<rect width="1001" height="371" fill="#121212"/>
<path d="M145.249 71.0858C145.018 70.8162 144.709 70.5562 144.324 70.3058C143.939 70.0554 143.506 69.8339 143.024 69.6413C142.543 69.4295 142.013 69.2658 141.435 69.1502C140.877 69.0154 140.289 68.948 139.673 68.948C138.094 68.948 136.928 69.2465 136.177 69.8436C135.426 70.4406 135.051 71.2592 135.051 72.2992C135.051 73.0311 135.243 73.6089 135.628 74.0326C136.014 74.4563 136.601 74.803 137.391 75.0726C138.2 75.3423 139.22 75.6216 140.453 75.9105C141.878 76.2186 143.111 76.5942 144.151 77.0372C145.191 77.4801 145.99 78.0772 146.549 78.8283C147.107 79.5602 147.387 80.5425 147.387 81.7751C147.387 82.7574 147.194 83.6144 146.809 84.3463C146.443 85.0589 145.923 85.656 145.249 86.1375C144.575 86.5997 143.785 86.9464 142.88 87.1775C141.975 87.3894 140.992 87.4953 139.933 87.4953C138.893 87.4953 137.872 87.3894 136.871 87.1775C135.888 86.9464 134.954 86.619 134.068 86.1953C133.182 85.7716 132.354 85.2419 131.584 84.6063L132.826 82.4107C133.134 82.7381 133.529 83.0655 134.011 83.3929C134.511 83.7011 135.07 83.99 135.686 84.2596C136.322 84.5293 137.005 84.7508 137.737 84.9241C138.469 85.0782 139.22 85.1552 139.991 85.1552C141.455 85.1552 142.591 84.8952 143.4 84.3752C144.209 83.8359 144.613 83.0559 144.613 82.0351C144.613 81.2647 144.382 80.6484 143.92 80.1862C143.477 79.7239 142.812 79.3387 141.926 79.0306C141.04 78.7224 139.962 78.4143 138.691 78.1061C137.304 77.7594 136.139 77.3838 135.195 76.9794C134.251 76.5557 133.539 76.0068 133.057 75.3327C132.595 74.6586 132.364 73.7822 132.364 72.7037C132.364 71.394 132.682 70.2866 133.317 69.3813C133.953 68.4761 134.829 67.7924 135.946 67.3301C137.063 66.8679 138.325 66.6368 139.731 66.6368C140.655 66.6368 141.512 66.7331 142.302 66.9257C143.111 67.1183 143.862 67.3879 144.555 67.7346C145.249 68.0813 145.884 68.4954 146.462 68.9769L145.249 71.0858ZM168.845 72.2125H171.3L164.887 87.2931H162.662L159.744 80.1862L156.855 87.2931H154.631L148.217 72.2125H150.644L155.844 84.7797L158.271 78.5972L155.729 72.2414H157.953L159.744 77.0372L161.535 72.2414H163.76L161.247 78.5972L163.673 84.7797L168.845 72.2125ZM172.126 82.9307C172.126 81.9677 172.396 81.1395 172.935 80.4462C173.494 79.7336 174.255 79.1846 175.218 78.7995C176.181 78.4143 177.298 78.2217 178.569 78.2217C179.243 78.2217 179.955 78.2794 180.707 78.395C181.458 78.4913 182.122 78.6454 182.7 78.8572V77.7594C182.7 76.6038 182.353 75.6986 181.66 75.0438C180.967 74.3697 179.984 74.0326 178.713 74.0326C177.885 74.0326 177.086 74.1867 176.315 74.4949C175.564 74.7837 174.765 75.2075 173.917 75.766L172.993 73.9748C173.975 73.3007 174.957 72.8 175.94 72.4726C176.922 72.1259 177.943 71.9525 179.002 71.9525C180.928 71.9525 182.45 72.4918 183.567 73.5704C184.684 74.6297 185.242 76.1127 185.242 78.0194V84.4041C185.242 84.7123 185.3 84.9434 185.416 85.0975C185.55 85.2323 185.762 85.3093 186.051 85.3286V87.2931C185.801 87.3316 185.579 87.3605 185.387 87.3798C185.213 87.399 185.069 87.4087 184.953 87.4087C184.356 87.4087 183.904 87.2449 183.596 86.9175C183.307 86.5901 183.143 86.2434 183.104 85.8775L183.047 84.9241C182.392 85.7716 181.535 86.4264 180.475 86.8886C179.416 87.3509 178.367 87.582 177.326 87.582C176.325 87.582 175.429 87.3798 174.64 86.9753C173.85 86.5516 173.234 85.993 172.791 85.2997C172.348 84.5871 172.126 83.7974 172.126 82.9307ZM181.949 83.9996C182.18 83.73 182.363 83.4604 182.498 83.1907C182.633 82.9018 182.7 82.6611 182.7 82.4685V80.5906C182.103 80.3595 181.477 80.1862 180.822 80.0706C180.167 79.9358 179.522 79.8684 178.887 79.8684C177.596 79.8684 176.546 80.1284 175.738 80.6484C174.948 81.1492 174.553 81.8425 174.553 82.7285C174.553 83.21 174.678 83.6818 174.929 84.1441C175.198 84.5871 175.583 84.953 176.084 85.2419C176.604 85.5308 177.24 85.6753 177.991 85.6753C178.781 85.6753 179.532 85.5212 180.244 85.213C180.957 84.8856 181.525 84.4811 181.949 83.9996ZM197.426 87.582C196.193 87.582 195.095 87.2738 194.132 86.6575C193.169 86.0412 192.408 85.2612 191.85 84.3174V93.4466H189.307V72.2125H191.561V75.0438C192.158 74.1193 192.938 73.3778 193.901 72.8192C194.864 72.2414 195.914 71.9525 197.05 71.9525C198.09 71.9525 199.043 72.1644 199.91 72.5881C200.777 73.0118 201.528 73.5896 202.163 74.3215C202.799 75.0534 203.29 75.8912 203.637 76.8349C204.003 77.7594 204.186 78.732 204.186 79.7528C204.186 81.1781 203.897 82.4877 203.319 83.6818C202.761 84.876 201.971 85.8293 200.95 86.542C199.929 87.2353 198.754 87.582 197.426 87.582ZM196.645 85.3864C197.397 85.3864 198.071 85.2323 198.668 84.9241C199.284 84.5967 199.804 84.173 200.228 83.653C200.671 83.1137 201.008 82.507 201.239 81.8329C201.47 81.1588 201.586 80.4654 201.586 79.7528C201.586 79.0017 201.451 78.2891 201.181 77.615C200.931 76.9409 200.565 76.3438 200.083 75.8238C199.621 75.3038 199.072 74.8993 198.437 74.6104C197.82 74.3023 197.146 74.1482 196.414 74.1482C195.952 74.1482 195.471 74.2348 194.97 74.4082C194.488 74.5815 194.026 74.8319 193.583 75.1593C193.14 75.4675 192.765 75.8238 192.456 76.2282C192.148 76.6327 191.946 77.0661 191.85 77.5283V81.8329C192.139 82.4877 192.524 83.0848 193.005 83.6241C193.487 84.1633 194.045 84.5967 194.681 84.9241C195.317 85.2323 195.971 85.3864 196.645 85.3864Z" fill="#828282"/>
<path d="M215.49 70.9231L222.231 82.4791L228.972 70.9231" stroke="#828282" stroke-width="1.926" stroke-linecap="round"/>
<path d="M288.228 86.701V66.1892H290.828V84.3899H302.268V86.701H288.228ZM304.695 86.701V71.6205H307.237V86.701H304.695ZM304.695 68.7893V65.6114H307.237V68.7893H304.695ZM334.089 86.701H331.547V78.2652C331.547 76.6859 331.287 75.5206 330.767 74.7695C330.266 74.0184 329.515 73.6428 328.514 73.6428C327.493 73.6428 326.568 74.0184 325.74 74.7695C324.912 75.5014 324.324 76.4548 323.978 77.6296V86.701H321.435V78.2652C321.435 76.6666 321.185 75.5014 320.684 74.7695C320.184 74.0184 319.432 73.6428 318.431 73.6428C317.429 73.6428 316.505 74.0087 315.657 74.7406C314.829 75.4532 314.242 76.4066 313.895 77.6007V86.701H311.353V71.6205H313.664V74.8562C314.28 73.7391 315.08 72.882 316.062 72.285C317.044 71.6687 318.152 71.3605 319.384 71.3605C320.636 71.3605 321.638 71.7072 322.389 72.4005C323.14 73.0746 323.602 73.951 323.776 75.0295C324.45 73.8354 325.268 72.9302 326.231 72.3139C327.194 71.6783 328.292 71.3605 329.525 71.3605C330.391 71.3605 331.114 71.5242 331.691 71.8516C332.288 72.1598 332.76 72.6028 333.107 73.1806C333.454 73.7391 333.704 74.4036 333.858 75.174C334.012 75.9444 334.089 76.7822 334.089 77.6874V86.701ZM338.042 86.701V71.6205H340.585V86.701H338.042ZM338.042 68.7893V65.6114H340.585V68.7893H338.042ZM352.501 85.9499C352.289 86.0462 352 86.1714 351.634 86.3255C351.268 86.4796 350.844 86.6144 350.363 86.7299C349.881 86.8455 349.371 86.9033 348.832 86.9033C348.215 86.9033 347.647 86.7973 347.127 86.5855C346.607 86.3544 346.193 86.0077 345.885 85.5455C345.577 85.064 345.423 84.4669 345.423 83.7543V73.6139H343.372V71.6205H345.423V66.5937H347.965V71.6205H351.345V73.6139H347.965V82.9742C348.004 83.5135 348.187 83.918 348.514 84.1876C348.841 84.438 349.227 84.5632 349.67 84.5632C350.17 84.5632 350.633 84.4765 351.056 84.3032C351.48 84.1298 351.759 84.0047 351.894 83.9276L352.501 85.9499Z" fill="#22E16E"/>
<path d="M434.858 68.5004H427.78V86.701H425.18V68.5004H418.101V66.1892H434.858V68.5004ZM443.039 73.845C441.768 73.8643 440.641 74.1917 439.659 74.8273C438.696 75.4436 438.013 76.3007 437.608 77.3985V86.701H435.066V71.6205H437.435V75.1162C437.955 74.0761 438.638 73.2383 439.486 72.6028C440.353 71.9479 441.258 71.582 442.202 71.5049C442.394 71.5049 442.558 71.5049 442.693 71.5049C442.828 71.5049 442.943 71.5146 443.039 71.5338V73.845ZM444.376 82.3387C444.376 81.3757 444.646 80.5475 445.185 79.8541C445.744 79.1415 446.505 78.5926 447.468 78.2074C448.431 77.8222 449.548 77.6296 450.819 77.6296C451.493 77.6296 452.206 77.6874 452.957 77.8029C453.708 77.8992 454.372 78.0533 454.95 78.2652V77.1674C454.95 76.0118 454.603 75.1066 453.91 74.4517C453.217 73.7776 452.234 73.4406 450.963 73.4406C450.135 73.4406 449.336 73.5946 448.565 73.9028C447.814 74.1917 447.015 74.6154 446.168 75.174L445.243 73.3828C446.225 72.7087 447.208 72.2079 448.19 71.8805C449.172 71.5338 450.193 71.3605 451.252 71.3605C453.178 71.3605 454.7 71.8998 455.817 72.9783C456.934 74.0376 457.492 75.5206 457.492 77.4274V83.8121C457.492 84.1202 457.55 84.3513 457.666 84.5054C457.801 84.6402 458.012 84.7173 458.301 84.7365V86.701C458.051 86.7396 457.83 86.7685 457.637 86.7877C457.464 86.807 457.319 86.8166 457.204 86.8166C456.606 86.8166 456.154 86.6529 455.846 86.3255C455.557 85.9981 455.393 85.6514 455.355 85.2854L455.297 84.3321C454.642 85.1795 453.785 85.8344 452.726 86.2966C451.666 86.7588 450.617 86.9899 449.577 86.9899C448.575 86.9899 447.68 86.7877 446.89 86.3833C446.1 85.9595 445.484 85.401 445.041 84.7076C444.598 83.995 444.376 83.2054 444.376 82.3387ZM454.199 83.4076C454.43 83.138 454.613 82.8683 454.748 82.5987C454.883 82.3098 454.95 82.069 454.95 81.8764V79.9986C454.353 79.7675 453.727 79.5941 453.072 79.4786C452.417 79.3437 451.772 79.2763 451.137 79.2763C449.846 79.2763 448.797 79.5363 447.988 80.0564C447.198 80.5571 446.803 81.2505 446.803 82.1364C446.803 82.6179 446.928 83.0898 447.179 83.552C447.448 83.995 447.834 84.361 448.334 84.6499C448.854 84.9388 449.49 85.0832 450.241 85.0832C451.031 85.0832 451.782 84.9291 452.494 84.621C453.207 84.2936 453.775 83.8891 454.199 83.4076ZM474.645 86.701H472.102V78.2652C472.102 76.6666 471.852 75.5014 471.351 74.7695C470.87 74.0184 470.128 73.6428 469.127 73.6428C468.433 73.6428 467.74 73.8161 467.047 74.1628C466.373 74.5095 465.766 74.9814 465.227 75.5784C464.707 76.1562 464.331 76.8303 464.1 77.6007V86.701H461.558V71.6205H463.869V74.8562C464.273 74.1436 464.793 73.5272 465.429 73.0072C466.064 72.4872 466.787 72.0827 467.596 71.7938C468.404 71.5049 469.252 71.3605 470.138 71.3605C471.005 71.3605 471.727 71.5242 472.305 71.8516C472.902 72.1598 473.364 72.6028 473.691 73.1806C474.038 73.7391 474.279 74.4036 474.414 75.174C474.568 75.9444 474.645 76.7822 474.645 77.6874V86.701ZM483.769 86.9899C482.518 86.9899 481.343 86.7877 480.245 86.3833C479.147 85.9595 478.203 85.3336 477.414 84.5054L478.396 82.7142C479.263 83.5232 480.129 84.101 480.996 84.4476C481.863 84.7943 482.749 84.9677 483.654 84.9677C484.694 84.9677 485.541 84.7751 486.196 84.3899C486.851 83.9854 487.178 83.398 487.178 82.6276C487.178 82.069 487.005 81.6549 486.658 81.3853C486.331 81.1157 485.859 80.8942 485.243 80.7208C484.626 80.5282 483.895 80.3164 483.047 80.0853C482.007 79.7771 481.131 79.4497 480.418 79.103C479.706 78.7563 479.166 78.323 478.8 77.8029C478.434 77.2829 478.251 76.6281 478.251 75.8384C478.251 74.8754 478.502 74.0665 479.003 73.4117C479.503 72.7376 480.187 72.2272 481.054 71.8805C481.94 71.5338 482.941 71.3605 484.058 71.3605C485.175 71.3605 486.187 71.5338 487.092 71.8805C487.997 72.2272 488.777 72.7376 489.432 73.4117L488.276 75.174C487.679 74.5576 487.024 74.105 486.312 73.8161C485.599 73.508 484.8 73.3539 483.914 73.3539C483.394 73.3539 482.883 73.4213 482.383 73.5561C481.882 73.6717 481.468 73.8932 481.14 74.2206C480.813 74.5288 480.649 74.9717 480.649 75.5495C480.649 76.031 480.775 76.4162 481.025 76.7051C481.295 76.9748 481.68 77.2059 482.18 77.3985C482.7 77.5911 483.326 77.803 484.058 78.0341C485.195 78.3615 486.177 78.6889 487.005 79.0163C487.853 79.3437 488.507 79.7675 488.97 80.2875C489.432 80.8075 489.663 81.5298 489.663 82.4542C489.663 83.8795 489.124 84.9965 488.045 85.8055C486.967 86.5951 485.541 86.9899 483.769 86.9899ZM493.513 86.701V73.6139H491.462V71.6205H493.513V71.3027C493.513 70.0701 493.696 69.0108 494.062 68.1248C494.448 67.2196 494.987 66.5262 495.68 66.0447C496.374 65.5632 497.192 65.3225 498.136 65.3225C498.733 65.3225 499.32 65.4092 499.898 65.5825C500.476 65.7366 500.996 65.9581 501.458 66.247L500.823 68.1248C500.553 67.9322 500.216 67.7781 499.811 67.6626C499.426 67.547 499.041 67.4892 498.656 67.4892C497.828 67.4892 497.182 67.8167 496.72 68.4715C496.277 69.1071 496.056 70.0219 496.056 71.216V71.6205H500.071V73.6139H496.056V86.701H493.513ZM508.914 86.9899C507.778 86.9899 506.738 86.7877 505.794 86.3833C504.869 85.9595 504.061 85.3914 503.367 84.6788C502.693 83.9469 502.163 83.1091 501.778 82.1653C501.412 81.2216 501.229 80.2201 501.229 79.1608C501.229 77.7355 501.557 76.4355 502.212 75.2606C502.866 74.0858 503.772 73.142 504.927 72.4294C506.102 71.7168 507.441 71.3605 508.943 71.3605C510.464 71.3605 511.784 71.7264 512.901 72.4583C514.037 73.1709 514.914 74.1147 515.53 75.2895C516.165 76.4451 516.483 77.697 516.483 79.0452C516.483 79.2378 516.474 79.4304 516.454 79.623C516.454 79.7964 516.445 79.9312 516.425 80.0275H503.916C503.993 81.0097 504.263 81.8861 504.725 82.6565C505.207 83.4076 505.823 84.0047 506.574 84.4476C507.325 84.8714 508.134 85.0832 509.001 85.0832C509.925 85.0832 510.792 84.8521 511.601 84.3899C512.429 83.9276 512.997 83.3209 513.305 82.5698L515.501 83.1765C515.174 83.9084 514.682 84.5632 514.028 85.141C513.392 85.7188 512.631 86.1714 511.745 86.4988C510.879 86.8262 509.935 86.9899 508.914 86.9899ZM503.829 78.2652H514.114C514.037 77.2829 513.758 76.4162 513.276 75.6651C512.795 74.914 512.179 74.3265 511.427 73.9028C510.676 73.4791 509.848 73.2672 508.943 73.2672C508.057 73.2672 507.238 73.4791 506.487 73.9028C505.736 74.3265 505.12 74.914 504.638 75.6651C504.176 76.4162 503.906 77.2829 503.829 78.2652ZM527.283 73.845C526.012 73.8643 524.885 74.1917 523.903 74.8273C522.94 75.4436 522.256 76.3007 521.852 77.3985V86.701H519.309V71.6205H521.678V75.1162C522.198 74.0761 522.882 73.2383 523.729 72.6028C524.596 71.9479 525.501 71.582 526.445 71.5049C526.638 71.5049 526.801 71.5049 526.936 71.5049C527.071 71.5049 527.187 71.5146 527.283 71.5338V73.845Z" fill="#828282"/>
<path d="M593.575 76.3007C593.575 75.0488 593.787 73.8258 594.211 72.6317C594.654 71.4183 595.289 70.3205 596.118 69.3382C596.965 68.3367 597.995 67.547 599.209 66.9692C600.422 66.3722 601.799 66.0736 603.34 66.0736C605.17 66.0736 606.739 66.4974 608.049 67.3448C609.359 68.173 610.331 69.2419 610.967 70.5516L608.916 71.8805C608.511 71.0138 607.991 70.3301 607.356 69.8293C606.739 69.3093 606.065 68.9434 605.333 68.7315C604.621 68.5197 603.918 68.4137 603.224 68.4137C602.088 68.4137 601.077 68.6448 600.191 69.1071C599.324 69.5693 598.592 70.1856 597.995 70.956C597.398 71.7264 596.946 72.5931 596.638 73.5561C596.349 74.4999 596.204 75.4532 596.204 76.4162C596.204 77.4755 596.378 78.4963 596.724 79.4786C597.09 80.4608 597.591 81.3275 598.226 82.0787C598.862 82.8298 599.613 83.4269 600.48 83.8698C601.347 84.3128 602.29 84.5343 603.311 84.5343C604.024 84.5343 604.756 84.4091 605.507 84.1587C606.258 83.9084 606.961 83.5232 607.616 83.0031C608.271 82.4639 608.791 81.7705 609.176 80.9231L611.343 82.1076C610.919 83.1283 610.264 83.995 609.378 84.7076C608.492 85.4203 607.5 85.9595 606.402 86.3255C605.324 86.6914 604.255 86.8744 603.196 86.8744C601.79 86.8744 600.499 86.5759 599.324 85.9788C598.149 85.3625 597.129 84.5536 596.262 83.552C595.415 82.5313 594.75 81.3949 594.269 80.143C593.806 78.8719 593.575 77.5911 593.575 76.3007ZM622.166 73.845C620.895 73.8643 619.768 74.1917 618.786 74.8273C617.823 75.4436 617.139 76.3007 616.735 77.3985V86.701H614.192V71.6205H616.561V75.1162C617.081 74.0761 617.765 73.2383 618.612 72.6028C619.479 71.9479 620.384 71.582 621.328 71.5049C621.521 71.5049 621.684 71.5049 621.819 71.5049C621.954 71.5049 622.07 71.5146 622.166 71.5338V73.845ZM630.908 86.9899C629.771 86.9899 628.741 86.7877 627.816 86.3833C626.892 85.9595 626.093 85.3914 625.418 84.6788C624.744 83.9469 624.224 83.1091 623.858 82.1653C623.492 81.2216 623.309 80.2297 623.309 79.1897C623.309 78.1304 623.492 77.1289 623.858 76.1851C624.224 75.2414 624.744 74.4132 625.418 73.7006C626.093 72.9687 626.892 72.4005 627.816 71.9961C628.76 71.5724 629.79 71.3605 630.908 71.3605C632.044 71.3605 633.074 71.5724 633.999 71.9961C634.923 72.4005 635.723 72.9687 636.397 73.7006C637.09 74.4132 637.62 75.2414 637.986 76.1851C638.352 77.1289 638.534 78.1304 638.534 79.1897C638.534 80.2297 638.352 81.2216 637.986 82.1653C637.62 83.1091 637.1 83.9469 636.426 84.6788C635.751 85.3914 634.942 85.9595 633.999 86.3833C633.074 86.7877 632.044 86.9899 630.908 86.9899ZM625.91 79.2186C625.91 80.2586 626.131 81.2023 626.574 82.0498C627.036 82.8972 627.643 83.5713 628.394 84.0721C629.145 84.5536 629.983 84.7943 630.908 84.7943C631.832 84.7943 632.67 84.5439 633.421 84.0432C634.191 83.5424 634.798 82.8683 635.241 82.0209C635.703 81.1542 635.934 80.2008 635.934 79.1608C635.934 78.1207 635.703 77.177 635.241 76.3296C634.798 75.4821 634.191 74.808 633.421 74.3073C632.67 73.8065 631.832 73.5561 630.908 73.5561C629.983 73.5561 629.145 73.8161 628.394 74.3362C627.643 74.8369 627.036 75.511 626.574 76.3585C626.131 77.2059 625.91 78.1593 625.91 79.2186ZM646.786 86.9899C645.534 86.9899 644.36 86.7877 643.262 86.3833C642.164 85.9595 641.22 85.3336 640.431 84.5054L641.413 82.7142C642.28 83.5232 643.146 84.101 644.013 84.4476C644.88 84.7943 645.766 84.9677 646.671 84.9677C647.711 84.9677 648.558 84.7751 649.213 84.3899C649.868 83.9854 650.195 83.398 650.195 82.6276C650.195 82.069 650.022 81.6549 649.675 81.3853C649.348 81.1157 648.876 80.8942 648.26 80.7208C647.643 80.5282 646.912 80.3164 646.064 80.0853C645.024 79.7771 644.148 79.4497 643.435 79.103C642.723 78.7563 642.183 78.323 641.817 77.8029C641.451 77.2829 641.268 76.6281 641.268 75.8384C641.268 74.8754 641.519 74.0665 642.02 73.4117C642.52 72.7376 643.204 72.2272 644.071 71.8805C644.957 71.5338 645.958 71.3605 647.075 71.3605C648.192 71.3605 649.204 71.5338 650.109 71.8805C651.014 72.2272 651.794 72.7376 652.449 73.4117L651.293 75.174C650.696 74.5576 650.041 74.105 649.329 73.8161C648.616 73.508 647.817 73.3539 646.931 73.3539C646.411 73.3539 645.9 73.4213 645.4 73.5561C644.899 73.6717 644.485 73.8932 644.157 74.2206C643.83 74.5288 643.666 74.9717 643.666 75.5495C643.666 76.031 643.791 76.4162 644.042 76.7051C644.311 76.9748 644.697 77.2059 645.197 77.3985C645.717 77.5911 646.343 77.803 647.075 78.0341C648.212 78.3615 649.194 78.6889 650.022 79.0163C650.869 79.3437 651.524 79.7675 651.987 80.2875C652.449 80.8075 652.68 81.5298 652.68 82.4542C652.68 83.8795 652.141 84.9965 651.062 85.8055C649.984 86.5951 648.558 86.9899 646.786 86.9899ZM660.893 86.9899C659.641 86.9899 658.466 86.7877 657.368 86.3833C656.27 85.9595 655.327 85.3336 654.537 84.5054L655.519 82.7142C656.386 83.5232 657.253 84.101 658.119 84.4476C658.986 84.7943 659.872 84.9677 660.777 84.9677C661.817 84.9677 662.665 84.7751 663.32 84.3899C663.974 83.9854 664.302 83.398 664.302 82.6276C664.302 82.069 664.128 81.6549 663.782 81.3853C663.454 81.1157 662.983 80.8942 662.366 80.7208C661.75 80.5282 661.018 80.3164 660.171 80.0853C659.131 79.7771 658.254 79.4497 657.542 79.103C656.829 78.7563 656.29 78.323 655.924 77.8029C655.558 77.2829 655.375 76.6281 655.375 75.8384C655.375 74.8754 655.625 74.0665 656.126 73.4117C656.627 72.7376 657.31 72.2272 658.177 71.8805C659.063 71.5338 660.065 71.3605 661.182 71.3605C662.299 71.3605 663.31 71.5338 664.215 71.8805C665.12 72.2272 665.9 72.7376 666.555 73.4117L665.4 75.174C664.803 74.5576 664.148 74.105 663.435 73.8161C662.722 73.508 661.923 73.3539 661.037 73.3539C660.517 73.3539 660.007 73.4213 659.506 73.5561C659.005 73.6717 658.591 73.8932 658.264 74.2206C657.936 74.5288 657.773 74.9717 657.773 75.5495C657.773 76.031 657.898 76.4162 658.148 76.7051C658.418 76.9748 658.803 77.2059 659.304 77.3985C659.824 77.5911 660.45 77.803 661.182 78.0341C662.318 78.3615 663.3 78.6889 664.128 79.0163C664.976 79.3437 665.631 79.7675 666.093 80.2875C666.555 80.8075 666.786 81.5298 666.786 82.4542C666.786 83.8795 666.247 84.9965 665.169 85.8055C664.09 86.5951 662.665 86.9899 660.893 86.9899ZM676.501 86.9899C675.365 86.9899 674.325 86.7877 673.381 86.3833C672.457 85.9595 671.648 85.3817 670.955 84.6499C670.281 83.918 669.751 83.0802 669.366 82.1364C669 81.1927 668.817 80.1912 668.817 79.1319C668.817 77.7067 669.135 76.4066 669.77 75.2317C670.406 74.0569 671.301 73.1228 672.457 72.4294C673.613 71.7168 674.951 71.3605 676.473 71.3605C677.956 71.3605 679.246 71.6975 680.344 72.3716C681.461 73.0265 682.289 73.9124 682.828 75.0295L680.344 75.8095C679.959 75.0969 679.419 74.548 678.726 74.1628C678.033 73.7584 677.262 73.5561 676.415 73.5561C675.49 73.5561 674.643 73.7969 673.873 74.2784C673.121 74.7599 672.524 75.4243 672.081 76.2718C671.638 77.1 671.417 78.0533 671.417 79.1319C671.417 80.1912 671.638 81.1542 672.081 82.0209C672.544 82.8683 673.15 83.5424 673.901 84.0432C674.672 84.5439 675.519 84.7943 676.444 84.7943C677.041 84.7943 677.609 84.6884 678.148 84.4765C678.707 84.2647 679.188 83.9854 679.593 83.6387C680.016 83.2728 680.305 82.8779 680.459 82.4542L682.944 83.2054C682.636 83.9372 682.164 84.5921 681.528 85.1699C680.912 85.7284 680.171 86.1714 679.304 86.4988C678.456 86.8262 677.522 86.9899 676.501 86.9899ZM698.912 86.701H696.369V78.2652C696.369 76.7244 696.09 75.5688 695.532 74.7984C694.992 74.028 694.212 73.6428 693.192 73.6428C692.537 73.6428 691.872 73.8161 691.198 74.1628C690.543 74.5095 689.965 74.9814 689.465 75.5784C688.964 76.1562 688.598 76.8303 688.367 77.6007V86.701H685.825V65.6114H688.367V74.8562C688.964 73.7776 689.773 72.9302 690.794 72.3139C691.834 71.6783 692.951 71.3605 694.145 71.3605C695.05 71.3605 695.801 71.5242 696.398 71.8516C697.015 72.1598 697.506 72.6028 697.872 73.1806C698.238 73.7584 698.498 74.4325 698.652 75.2029C698.825 75.954 698.912 76.7822 698.912 77.6874V86.701ZM701.681 82.3387C701.681 81.3757 701.95 80.5475 702.49 79.8541C703.048 79.1415 703.809 78.5926 704.772 78.2074C705.735 77.8222 706.852 77.6296 708.123 77.6296C708.797 77.6296 709.51 77.6874 710.261 77.8029C711.012 77.8992 711.677 78.0533 712.254 78.2652V77.1674C712.254 76.0118 711.908 75.1066 711.214 74.4517C710.521 73.7776 709.539 73.4406 708.268 73.4406C707.439 73.4406 706.64 73.5946 705.87 73.9028C705.119 74.1917 704.319 74.6154 703.472 75.174L702.547 73.3828C703.53 72.7087 704.512 72.2079 705.494 71.8805C706.476 71.5338 707.497 71.3605 708.556 71.3605C710.482 71.3605 712.004 71.8998 713.121 72.9783C714.238 74.0376 714.797 75.5206 714.797 77.4274V83.8121C714.797 84.1202 714.854 84.3513 714.97 84.5054C715.105 84.6402 715.317 84.7173 715.606 84.7365V86.701C715.355 86.7396 715.134 86.7685 714.941 86.7877C714.768 86.807 714.623 86.8166 714.508 86.8166C713.911 86.8166 713.458 86.6529 713.15 86.3255C712.861 85.9981 712.697 85.6514 712.659 85.2854L712.601 84.3321C711.946 85.1795 711.089 85.8344 710.03 86.2966C708.971 86.7588 707.921 86.9899 706.881 86.9899C705.879 86.9899 704.984 86.7877 704.194 86.3833C703.404 85.9595 702.788 85.401 702.345 84.7076C701.902 83.995 701.681 83.2054 701.681 82.3387ZM711.503 83.4076C711.734 83.138 711.917 82.8683 712.052 82.5987C712.187 82.3098 712.254 82.069 712.254 81.8764V79.9986C711.657 79.7675 711.031 79.5941 710.377 79.4786C709.722 79.3437 709.076 79.2763 708.441 79.2763C707.15 79.2763 706.101 79.5363 705.292 80.0564C704.502 80.5571 704.107 81.2505 704.107 82.1364C704.107 82.6179 704.233 83.0898 704.483 83.552C704.753 83.995 705.138 84.361 705.639 84.6499C706.159 84.9388 706.794 85.0832 707.545 85.0832C708.335 85.0832 709.086 84.9291 709.799 84.621C710.511 84.2936 711.08 83.8891 711.503 83.4076ZM718.862 86.701V71.6205H721.404V86.701H718.862ZM718.862 68.7893V65.6114H721.404V68.7893H718.862ZM738.607 86.701H736.065V78.2652C736.065 76.6666 735.814 75.5014 735.314 74.7695C734.832 74.0184 734.091 73.6428 733.089 73.6428C732.396 73.6428 731.702 73.8161 731.009 74.1628C730.335 74.5095 729.728 74.9814 729.189 75.5784C728.669 76.1562 728.293 76.8303 728.062 77.6007V86.701H725.52V71.6205H727.831V74.8562C728.236 74.1436 728.756 73.5272 729.391 73.0072C730.027 72.4872 730.749 72.0827 731.558 71.7938C732.367 71.5049 733.214 71.3605 734.1 71.3605C734.967 71.3605 735.689 71.5242 736.267 71.8516C736.864 72.1598 737.326 72.6028 737.654 73.1806C738 73.7391 738.241 74.4036 738.376 75.174C738.53 75.9444 738.607 76.7822 738.607 77.6874V86.701Z" fill="#828282"/>
<rect x="795.503" y="43.5146" width="73.7475" height="66.3728" rx="18.4369" fill="#22E16E"/>
<path d="M829.172 85.7547L829.89 87.3701C830.104 87.8512 830.452 88.2597 830.894 88.5466C831.335 88.8333 831.85 88.986 832.376 88.9858C832.902 88.986 833.417 88.8333 833.858 88.5466C834.299 88.2597 834.648 87.8512 834.862 87.3701L835.58 85.7547C835.836 85.1813 836.266 84.7034 836.809 84.3889C837.356 84.0736 837.988 83.9392 838.616 84.0052L840.373 84.1922C840.897 84.2477 841.425 84.15 841.893 83.9112C842.362 83.6724 842.752 83.3028 843.015 82.847C843.278 82.3916 843.403 81.8695 843.376 81.3442C843.348 80.819 843.169 80.3129 842.859 79.8876L841.818 78.4577C841.448 77.9448 841.25 77.3273 841.253 76.6946C841.253 76.0635 841.453 75.4487 841.824 74.9383L842.864 73.5084C843.174 73.0831 843.354 72.5771 843.381 72.0518C843.409 71.5265 843.283 71.0044 843.02 70.5489C842.757 70.0932 842.368 69.7236 841.899 69.4848C841.43 69.246 840.902 69.1484 840.379 69.2037L838.621 69.3908C837.994 69.4568 837.361 69.3224 836.814 69.0071C836.27 68.6908 835.84 68.2104 835.585 67.6346L834.862 66.0189C834.648 65.538 834.299 65.1294 833.858 64.8426C833.417 64.5558 832.902 64.4032 832.376 64.4033C831.85 64.4032 831.335 64.5558 830.894 64.8426C830.452 65.1294 830.104 65.538 829.89 66.0189L829.172 67.6346C828.918 68.2104 828.487 68.6908 827.943 69.0071C827.396 69.3224 826.764 69.4568 826.136 69.3908L824.373 69.2037C823.85 69.1484 823.322 69.246 822.853 69.4848C822.384 69.7236 821.995 70.0932 821.732 70.5489C821.468 71.0044 821.343 71.5265 821.371 72.0518C821.398 72.5771 821.578 73.0831 821.887 73.5084L822.928 74.9383C823.299 75.4487 823.499 76.0635 823.499 76.6946C823.499 77.3256 823.299 77.9405 822.928 78.4509L821.887 79.8807C821.578 80.3061 821.398 80.8121 821.371 81.3374C821.343 81.8627 821.468 82.3848 821.732 82.8402C821.995 83.2958 822.384 83.6651 822.853 83.9038C823.322 84.1426 823.85 84.2405 824.373 84.1854L826.131 83.9984C826.758 83.9324 827.391 84.0668 827.937 84.3821C828.484 84.6975 828.916 85.178 829.172 85.7547Z" stroke="black" stroke-width="2.76553" stroke-linecap="round" stroke-linejoin="round"/>
<rect x="131.443" y="165.434" width="30.2919" height="30.2919" rx="4.03892" fill="#22E16E" stroke="#22E16E" stroke-width="2.01946"/>
<path d="M193.367 174.158H187.43V189.425H185.249V174.158H179.312V172.219H193.367V174.158ZM192.028 185.765C192.028 184.958 192.254 184.263 192.706 183.681C193.175 183.084 193.813 182.623 194.621 182.3C195.428 181.977 196.365 181.815 197.432 181.815C197.997 181.815 198.595 181.864 199.225 181.961C199.855 182.042 200.412 182.171 200.897 182.349V181.428C200.897 180.458 200.606 179.699 200.025 179.15C199.443 178.584 198.619 178.302 197.553 178.302C196.858 178.302 196.188 178.431 195.542 178.689C194.911 178.932 194.241 179.287 193.53 179.756L192.755 178.253C193.579 177.688 194.403 177.268 195.226 176.993C196.05 176.702 196.907 176.557 197.795 176.557C199.411 176.557 200.687 177.009 201.624 177.914C202.561 178.802 203.03 180.046 203.03 181.646V187.001C203.03 187.26 203.078 187.454 203.175 187.583C203.288 187.696 203.466 187.761 203.708 187.777V189.425C203.498 189.457 203.312 189.481 203.151 189.497C203.005 189.514 202.884 189.522 202.787 189.522C202.286 189.522 201.907 189.384 201.648 189.11C201.406 188.835 201.269 188.544 201.236 188.237L201.188 187.438C200.639 188.148 199.92 188.698 199.031 189.085C198.143 189.473 197.262 189.667 196.39 189.667C195.55 189.667 194.798 189.497 194.136 189.158C193.474 188.803 192.957 188.334 192.585 187.753C192.213 187.155 192.028 186.492 192.028 185.765ZM200.267 186.662C200.461 186.436 200.614 186.21 200.727 185.984C200.841 185.741 200.897 185.539 200.897 185.378V183.803C200.396 183.609 199.871 183.463 199.322 183.366C198.773 183.253 198.231 183.197 197.698 183.197C196.616 183.197 195.735 183.415 195.057 183.851C194.394 184.271 194.063 184.853 194.063 185.596C194.063 186 194.168 186.395 194.378 186.783C194.604 187.155 194.928 187.462 195.348 187.704C195.784 187.946 196.317 188.068 196.947 188.068C197.609 188.068 198.239 187.938 198.837 187.68C199.435 187.405 199.912 187.066 200.267 186.662ZM215.357 189.425L210.971 183.269L208.572 185.523V189.425H206.44V171.734H208.572V183.294L215.115 176.799H217.417L212.377 182.033L217.66 189.425H215.357ZM224.438 189.667C223.485 189.667 222.613 189.497 221.821 189.158C221.046 188.803 220.367 188.326 219.785 187.728C219.22 187.114 218.776 186.412 218.453 185.62C218.146 184.828 217.992 183.988 217.992 183.1C217.992 181.904 218.267 180.814 218.816 179.828C219.365 178.843 220.125 178.051 221.094 177.453C222.08 176.856 223.202 176.557 224.462 176.557C225.739 176.557 226.845 176.864 227.782 177.478C228.736 178.075 229.471 178.867 229.988 179.852C230.521 180.822 230.787 181.872 230.787 183.003C230.787 183.164 230.779 183.326 230.763 183.487C230.763 183.633 230.755 183.746 230.739 183.827H220.246C220.31 184.651 220.537 185.386 220.924 186.032C221.328 186.662 221.845 187.163 222.475 187.534C223.105 187.89 223.784 188.068 224.511 188.068C225.286 188.068 226.013 187.874 226.692 187.486C227.387 187.098 227.863 186.589 228.122 185.959L229.963 186.468C229.689 187.082 229.277 187.631 228.728 188.116C228.194 188.601 227.556 188.98 226.813 189.255C226.086 189.53 225.294 189.667 224.438 189.667ZM220.173 182.349H228.8C228.736 181.525 228.501 180.798 228.098 180.167C227.694 179.537 227.177 179.045 226.547 178.689C225.916 178.334 225.222 178.156 224.462 178.156C223.719 178.156 223.033 178.334 222.403 178.689C221.773 179.045 221.256 179.537 220.852 180.167C220.464 180.798 220.238 181.525 220.173 182.349ZM239.627 189.425V172.219H246.8C247.559 172.219 248.254 172.38 248.884 172.704C249.514 173.011 250.063 173.431 250.532 173.964C251 174.481 251.364 175.07 251.622 175.733C251.881 176.379 252.01 177.041 252.01 177.72C252.01 178.657 251.8 179.554 251.38 180.41C250.96 181.25 250.37 181.937 249.611 182.47C248.851 182.987 247.963 183.245 246.945 183.245H241.808V189.425H239.627ZM241.808 181.306H246.824C247.422 181.306 247.939 181.145 248.375 180.822C248.827 180.499 249.175 180.062 249.417 179.513C249.675 178.964 249.805 178.366 249.805 177.72C249.805 177.041 249.659 176.436 249.368 175.902C249.078 175.353 248.698 174.925 248.229 174.618C247.761 174.311 247.244 174.158 246.679 174.158H241.808V181.306ZM261.074 178.641C260.008 178.657 259.063 178.932 258.239 179.465C257.431 179.982 256.858 180.701 256.518 181.621V189.425H254.386V176.775H256.373V179.707C256.809 178.835 257.383 178.132 258.094 177.599C258.821 177.049 259.58 176.742 260.372 176.678C260.533 176.678 260.67 176.678 260.784 176.678C260.897 176.678 260.994 176.686 261.074 176.702V178.641ZM268.407 189.667C267.454 189.667 266.59 189.497 265.814 189.158C265.039 188.803 264.368 188.326 263.803 187.728C263.237 187.114 262.801 186.412 262.494 185.62C262.187 184.828 262.034 183.996 262.034 183.124C262.034 182.235 262.187 181.395 262.494 180.604C262.801 179.812 263.237 179.117 263.803 178.52C264.368 177.906 265.039 177.429 265.814 177.09C266.606 176.734 267.47 176.557 268.407 176.557C269.36 176.557 270.225 176.734 271 177.09C271.776 177.429 272.446 177.906 273.011 178.52C273.593 179.117 274.037 179.812 274.344 180.604C274.651 181.395 274.805 182.235 274.805 183.124C274.805 183.996 274.651 184.828 274.344 185.62C274.037 186.412 273.601 187.114 273.036 187.728C272.47 188.326 271.792 188.803 271 189.158C270.225 189.497 269.36 189.667 268.407 189.667ZM264.215 183.148C264.215 184.021 264.4 184.812 264.772 185.523C265.16 186.234 265.669 186.799 266.299 187.219C266.929 187.623 267.632 187.825 268.407 187.825C269.183 187.825 269.885 187.615 270.515 187.195C271.162 186.775 271.671 186.21 272.042 185.499C272.43 184.772 272.624 183.972 272.624 183.1C272.624 182.227 272.43 181.436 272.042 180.725C271.671 180.014 271.162 179.449 270.515 179.029C269.885 178.608 269.183 178.398 268.407 178.398C267.632 178.398 266.929 178.617 266.299 179.053C265.669 179.473 265.16 180.038 264.772 180.749C264.4 181.46 264.215 182.26 264.215 183.148ZM277.854 178.447H276.134V176.775H277.854V176.508C277.854 175.878 277.951 175.272 278.145 174.691C278.339 174.093 278.63 173.552 279.018 173.067C279.405 172.582 279.89 172.203 280.472 171.928C281.053 171.637 281.74 171.492 282.531 171.492C283.129 171.492 283.678 171.557 284.179 171.686C284.68 171.815 285.124 171.977 285.512 172.17C285.916 172.364 286.247 172.558 286.506 172.752L285.585 174.327C285.278 174.053 284.858 173.818 284.325 173.624C283.808 173.431 283.25 173.334 282.653 173.334C282.039 173.334 281.53 173.487 281.126 173.794C280.738 174.101 280.447 174.497 280.253 174.982C280.076 175.45 279.987 175.935 279.987 176.436V176.775H286.457V189.425H284.325V178.447H279.987V189.425H277.854V178.447ZM296.451 188.795C296.273 188.875 296.031 188.98 295.724 189.11C295.417 189.239 295.062 189.352 294.658 189.449C294.254 189.546 293.826 189.594 293.373 189.594C292.856 189.594 292.38 189.505 291.944 189.328C291.507 189.134 291.16 188.843 290.901 188.455C290.643 188.051 290.514 187.551 290.514 186.953V178.447H288.793V176.775H290.514V172.558H292.646V176.775H295.482V178.447H292.646V186.299C292.679 186.751 292.832 187.09 293.107 187.316C293.381 187.526 293.704 187.631 294.076 187.631C294.496 187.631 294.884 187.559 295.239 187.413C295.595 187.268 295.829 187.163 295.942 187.098L296.451 188.795Z" fill="white"/>
<rect x="377.816" y="165.434" width="30.2919" height="30.2919" rx="4.03892" stroke="#22E16E" stroke-width="2.01946"/>
<path d="M437.439 175.83C437.245 175.604 436.987 175.385 436.664 175.175C436.34 174.965 435.977 174.78 435.573 174.618C435.169 174.44 434.725 174.303 434.24 174.206C433.772 174.093 433.279 174.036 432.762 174.036C431.437 174.036 430.46 174.287 429.83 174.788C429.2 175.288 428.885 175.975 428.885 176.847C428.885 177.461 429.046 177.946 429.369 178.302C429.692 178.657 430.185 178.948 430.848 179.174C431.526 179.4 432.382 179.634 433.416 179.877C434.612 180.135 435.646 180.45 436.518 180.822C437.391 181.193 438.061 181.694 438.53 182.324C438.998 182.938 439.232 183.762 439.232 184.796C439.232 185.62 439.071 186.339 438.748 186.953C438.441 187.551 438.004 188.051 437.439 188.455C436.874 188.843 436.211 189.134 435.452 189.328C434.693 189.505 433.869 189.594 432.98 189.594C432.108 189.594 431.251 189.505 430.411 189.328C429.587 189.134 428.804 188.859 428.061 188.504C427.317 188.148 426.623 187.704 425.977 187.171L427.019 185.329C427.277 185.604 427.608 185.879 428.012 186.153C428.432 186.412 428.901 186.654 429.418 186.88C429.951 187.106 430.524 187.292 431.138 187.438C431.752 187.567 432.382 187.631 433.029 187.631C434.256 187.631 435.21 187.413 435.888 186.977C436.567 186.525 436.906 185.87 436.906 185.014C436.906 184.368 436.712 183.851 436.324 183.463C435.953 183.076 435.395 182.752 434.652 182.494C433.909 182.235 433.004 181.977 431.938 181.718C430.775 181.428 429.797 181.113 429.006 180.773C428.214 180.418 427.616 179.957 427.212 179.392C426.825 178.827 426.631 178.091 426.631 177.187C426.631 176.088 426.897 175.159 427.431 174.4C427.964 173.641 428.699 173.067 429.636 172.679C430.573 172.292 431.631 172.098 432.81 172.098C433.586 172.098 434.305 172.179 434.967 172.34C435.646 172.502 436.276 172.728 436.857 173.019C437.439 173.309 437.972 173.657 438.457 174.061L437.439 175.83ZM448.068 188.795C447.89 188.875 447.648 188.98 447.341 189.11C447.034 189.239 446.679 189.352 446.275 189.449C445.871 189.546 445.443 189.594 444.99 189.594C444.473 189.594 443.997 189.505 443.561 189.328C443.124 189.134 442.777 188.843 442.519 188.455C442.26 188.051 442.131 187.551 442.131 186.953V178.447H440.41V176.775H442.131V172.558H444.263V176.775H447.099V178.447H444.263V186.299C444.296 186.751 444.449 187.09 444.724 187.316C444.998 187.526 445.322 187.631 445.693 187.631C446.113 187.631 446.501 187.559 446.856 187.413C447.212 187.268 447.446 187.163 447.559 187.098L448.068 188.795ZM455.404 189.667C454.451 189.667 453.587 189.497 452.811 189.158C452.036 188.803 451.365 188.326 450.8 187.728C450.234 187.114 449.798 186.412 449.491 185.62C449.184 184.828 449.031 183.996 449.031 183.124C449.031 182.235 449.184 181.395 449.491 180.604C449.798 179.812 450.234 179.117 450.8 178.52C451.365 177.906 452.036 177.429 452.811 177.09C453.603 176.734 454.467 176.557 455.404 176.557C456.357 176.557 457.222 176.734 457.997 177.09C458.773 177.429 459.443 177.906 460.009 178.52C460.59 179.117 461.034 179.812 461.341 180.604C461.648 181.395 461.802 182.235 461.802 183.124C461.802 183.996 461.648 184.828 461.341 185.62C461.034 186.412 460.598 187.114 460.033 187.728C459.467 188.326 458.789 188.803 457.997 189.158C457.222 189.497 456.357 189.667 455.404 189.667ZM451.212 183.148C451.212 184.021 451.398 184.812 451.769 185.523C452.157 186.234 452.666 186.799 453.296 187.219C453.926 187.623 454.629 187.825 455.404 187.825C456.18 187.825 456.882 187.615 457.513 187.195C458.159 186.775 458.668 186.21 459.039 185.499C459.427 184.772 459.621 183.972 459.621 183.1C459.621 182.227 459.427 181.436 459.039 180.725C458.668 180.014 458.159 179.449 457.513 179.029C456.882 178.608 456.18 178.398 455.404 178.398C454.629 178.398 453.926 178.617 453.296 179.053C452.666 179.473 452.157 180.038 451.769 180.749C451.398 181.46 451.212 182.26 451.212 183.148ZM471.196 189.667C470.162 189.667 469.241 189.409 468.433 188.892C467.625 188.375 466.987 187.72 466.518 186.929V194.586H464.386V176.775H466.276V179.15C466.777 178.374 467.431 177.752 468.239 177.284C469.047 176.799 469.927 176.557 470.88 176.557C471.753 176.557 472.553 176.734 473.28 177.09C474.007 177.445 474.637 177.93 475.17 178.544C475.703 179.158 476.115 179.861 476.406 180.652C476.713 181.428 476.866 182.243 476.866 183.1C476.866 184.295 476.624 185.394 476.139 186.395C475.671 187.397 475.008 188.197 474.152 188.795C473.296 189.376 472.31 189.667 471.196 189.667ZM470.541 187.825C471.171 187.825 471.737 187.696 472.238 187.438C472.755 187.163 473.191 186.807 473.546 186.371C473.918 185.919 474.2 185.41 474.394 184.845C474.588 184.279 474.685 183.697 474.685 183.1C474.685 182.47 474.572 181.872 474.346 181.306C474.136 180.741 473.829 180.24 473.425 179.804C473.037 179.368 472.577 179.029 472.044 178.786C471.527 178.528 470.961 178.398 470.347 178.398C469.96 178.398 469.556 178.471 469.136 178.617C468.732 178.762 468.344 178.972 467.972 179.247C467.601 179.505 467.286 179.804 467.027 180.143C466.769 180.483 466.599 180.846 466.518 181.234V184.845C466.761 185.394 467.084 185.895 467.488 186.347C467.892 186.799 468.36 187.163 468.893 187.438C469.426 187.696 469.976 187.825 470.541 187.825ZM485.953 189.425V172.219H488.134V187.486H497.731V189.425H485.953ZM505.102 189.667C504.149 189.667 503.284 189.497 502.509 189.158C501.733 188.803 501.063 188.326 500.497 187.728C499.932 187.114 499.496 186.412 499.189 185.62C498.882 184.828 498.728 183.996 498.728 183.124C498.728 182.235 498.882 181.395 499.189 180.604C499.496 179.812 499.932 179.117 500.497 178.52C501.063 177.906 501.733 177.429 502.509 177.09C503.3 176.734 504.165 176.557 505.102 176.557C506.055 176.557 506.919 176.734 507.695 177.09C508.47 177.429 509.141 177.906 509.706 178.52C510.288 179.117 510.732 179.812 511.039 180.604C511.346 181.395 511.499 182.235 511.499 183.124C511.499 183.996 511.346 184.828 511.039 185.62C510.732 186.412 510.296 187.114 509.73 187.728C509.165 188.326 508.486 188.803 507.695 189.158C506.919 189.497 506.055 189.667 505.102 189.667ZM500.909 183.148C500.909 184.021 501.095 184.812 501.467 185.523C501.854 186.234 502.363 186.799 502.993 187.219C503.624 187.623 504.326 187.825 505.102 187.825C505.877 187.825 506.58 187.615 507.21 187.195C507.856 186.775 508.365 186.21 508.737 185.499C509.125 184.772 509.318 183.972 509.318 183.1C509.318 182.227 509.125 181.436 508.737 180.725C508.365 180.014 507.856 179.449 507.21 179.029C506.58 178.608 505.877 178.398 505.102 178.398C504.326 178.398 503.624 178.617 502.993 179.053C502.363 179.473 501.854 180.038 501.467 180.749C501.095 181.46 500.909 182.26 500.909 183.148ZM518.421 189.667C517.371 189.667 516.386 189.497 515.465 189.158C514.544 188.803 513.752 188.278 513.09 187.583L513.914 186.08C514.641 186.759 515.368 187.244 516.095 187.534C516.822 187.825 517.565 187.971 518.324 187.971C519.197 187.971 519.908 187.809 520.457 187.486C521.006 187.147 521.281 186.654 521.281 186.008C521.281 185.539 521.135 185.192 520.845 184.966C520.57 184.74 520.174 184.554 519.657 184.408C519.14 184.247 518.526 184.069 517.815 183.875C516.943 183.617 516.208 183.342 515.61 183.051C515.012 182.76 514.56 182.397 514.253 181.961C513.946 181.525 513.793 180.975 513.793 180.313C513.793 179.505 514.003 178.827 514.423 178.277C514.843 177.712 515.416 177.284 516.143 176.993C516.887 176.702 517.727 176.557 518.664 176.557C519.601 176.557 520.449 176.702 521.208 176.993C521.967 177.284 522.622 177.712 523.171 178.277L522.202 179.756C521.701 179.239 521.152 178.859 520.554 178.617C519.956 178.358 519.286 178.229 518.542 178.229C518.106 178.229 517.678 178.285 517.258 178.398C516.838 178.495 516.491 178.681 516.216 178.956C515.941 179.214 515.804 179.586 515.804 180.071C515.804 180.474 515.909 180.798 516.119 181.04C516.345 181.266 516.668 181.46 517.088 181.621C517.525 181.783 518.05 181.961 518.664 182.155C519.617 182.429 520.441 182.704 521.135 182.979C521.846 183.253 522.396 183.609 522.783 184.045C523.171 184.481 523.365 185.087 523.365 185.862C523.365 187.058 522.913 187.995 522.008 188.673C521.103 189.336 519.908 189.667 518.421 189.667ZM530.254 189.667C529.204 189.667 528.218 189.497 527.298 189.158C526.377 188.803 525.585 188.278 524.923 187.583L525.747 186.08C526.474 186.759 527.201 187.244 527.928 187.534C528.655 187.825 529.398 187.971 530.157 187.971C531.03 187.971 531.74 187.809 532.29 187.486C532.839 187.147 533.114 186.654 533.114 186.008C533.114 185.539 532.968 185.192 532.677 184.966C532.403 184.74 532.007 184.554 531.49 184.408C530.973 184.247 530.359 184.069 529.648 183.875C528.776 183.617 528.041 183.342 527.443 183.051C526.845 182.76 526.393 182.397 526.086 181.961C525.779 181.525 525.625 180.975 525.625 180.313C525.625 179.505 525.836 178.827 526.256 178.277C526.676 177.712 527.249 177.284 527.976 176.993C528.719 176.702 529.559 176.557 530.496 176.557C531.433 176.557 532.282 176.702 533.041 176.993C533.8 177.284 534.455 177.712 535.004 178.277L534.035 179.756C533.534 179.239 532.984 178.859 532.387 178.617C531.789 178.358 531.118 178.229 530.375 178.229C529.939 178.229 529.511 178.285 529.091 178.398C528.671 178.495 528.323 178.681 528.049 178.956C527.774 179.214 527.637 179.586 527.637 180.071C527.637 180.474 527.742 180.798 527.952 181.04C528.178 181.266 528.501 181.46 528.921 181.621C529.357 181.783 529.883 181.961 530.496 182.155C531.45 182.429 532.274 182.704 532.968 182.979C533.679 183.253 534.228 183.609 534.616 184.045C535.004 184.481 535.198 185.087 535.198 185.862C535.198 187.058 534.745 187.995 533.841 188.673C532.936 189.336 531.74 189.667 530.254 189.667Z" fill="white"/>
<rect x="616.113" y="165.434" width="30.2919" height="30.2919" rx="4.03892" stroke="#22E16E" stroke-width="2.01946"/>
<path d="M672.73 189.546C671.357 189.546 670.202 189.312 669.265 188.843C668.328 188.358 667.576 187.712 667.011 186.904C666.446 186.08 666.034 185.152 665.775 184.118C665.517 183.084 665.387 182.017 665.387 180.919V172.219H667.568V180.919C667.568 181.759 667.649 182.583 667.811 183.391C667.988 184.182 668.271 184.893 668.659 185.523C669.047 186.153 669.572 186.654 670.234 187.026C670.896 187.397 671.72 187.583 672.706 187.583C673.708 187.583 674.54 187.397 675.202 187.026C675.864 186.638 676.389 186.129 676.777 185.499C677.165 184.853 677.439 184.134 677.601 183.342C677.779 182.55 677.868 181.743 677.868 180.919V172.219H680.049V180.919C680.049 182.082 679.911 183.189 679.637 184.239C679.378 185.273 678.958 186.185 678.376 186.977C677.795 187.769 677.036 188.399 676.099 188.867C675.178 189.32 674.055 189.546 672.73 189.546ZM687.614 189.667C686.564 189.667 685.578 189.497 684.658 189.158C683.737 188.803 682.945 188.278 682.283 187.583L683.107 186.08C683.834 186.759 684.561 187.244 685.288 187.534C686.015 187.825 686.758 187.971 687.517 187.971C688.389 187.971 689.1 187.809 689.65 187.486C690.199 187.147 690.474 186.654 690.474 186.008C690.474 185.539 690.328 185.192 690.037 184.966C689.763 184.74 689.367 184.554 688.85 184.408C688.333 184.247 687.719 184.069 687.008 183.875C686.136 183.617 685.401 183.342 684.803 183.051C684.205 182.76 683.753 182.397 683.446 181.961C683.139 181.525 682.985 180.975 682.985 180.313C682.985 179.505 683.195 178.827 683.615 178.277C684.036 177.712 684.609 177.284 685.336 176.993C686.079 176.702 686.919 176.557 687.856 176.557C688.793 176.557 689.642 176.702 690.401 176.993C691.16 177.284 691.814 177.712 692.364 178.277L691.394 179.756C690.894 179.239 690.344 178.859 689.747 178.617C689.149 178.358 688.478 178.229 687.735 178.229C687.299 178.229 686.871 178.285 686.451 178.398C686.031 178.495 685.683 178.681 685.409 178.956C685.134 179.214 684.997 179.586 684.997 180.071C684.997 180.474 685.102 180.798 685.312 181.04C685.538 181.266 685.861 181.46 686.281 181.621C686.717 181.783 687.242 181.961 687.856 182.155C688.81 182.429 689.633 182.704 690.328 182.979C691.039 183.253 691.588 183.609 691.976 184.045C692.364 184.481 692.558 185.087 692.558 185.862C692.558 187.058 692.105 187.995 691.201 188.673C690.296 189.336 689.1 189.667 687.614 189.667ZM700.707 189.667C699.754 189.667 698.881 189.497 698.09 189.158C697.314 188.803 696.636 188.326 696.054 187.728C695.489 187.114 695.044 186.412 694.721 185.62C694.414 184.828 694.261 183.988 694.261 183.1C694.261 181.904 694.535 180.814 695.085 179.828C695.634 178.843 696.393 178.051 697.363 177.453C698.348 176.856 699.471 176.557 700.731 176.557C702.007 176.557 703.114 176.864 704.051 177.478C705.004 178.075 705.739 178.867 706.256 179.852C706.79 180.822 707.056 181.872 707.056 183.003C707.056 183.164 707.048 183.326 707.032 183.487C707.032 183.633 707.024 183.746 707.008 183.827H696.515C696.579 184.651 696.805 185.386 697.193 186.032C697.597 186.662 698.114 187.163 698.744 187.534C699.374 187.89 700.053 188.068 700.78 188.068C701.555 188.068 702.282 187.874 702.961 187.486C703.655 187.098 704.132 186.589 704.39 185.959L706.232 186.468C705.957 187.082 705.546 187.631 704.996 188.116C704.463 188.601 703.825 188.98 703.082 189.255C702.355 189.53 701.563 189.667 700.707 189.667ZM696.442 182.349H705.069C705.004 181.525 704.77 180.798 704.366 180.167C703.962 179.537 703.445 179.045 702.815 178.689C702.185 178.334 701.49 178.156 700.731 178.156C699.988 178.156 699.301 178.334 698.671 178.689C698.041 179.045 697.524 179.537 697.12 180.167C696.733 180.798 696.506 181.525 696.442 182.349ZM730.775 189.425V176.29L725.104 186.395H723.771L718.076 176.29V189.425H715.895V172.219H718.197L724.425 183.391L730.678 172.219H732.956V189.425H730.775ZM735.625 185.765C735.625 184.958 735.851 184.263 736.303 183.681C736.772 183.084 737.41 182.623 738.218 182.3C739.025 181.977 739.963 181.815 741.029 181.815C741.594 181.815 742.192 181.864 742.822 181.961C743.452 182.042 744.01 182.171 744.494 182.349V181.428C744.494 180.458 744.203 179.699 743.622 179.15C743.04 178.584 742.216 178.302 741.15 178.302C740.455 178.302 739.785 178.431 739.139 178.689C738.509 178.932 737.838 179.287 737.127 179.756L736.352 178.253C737.176 177.688 738 177.268 738.824 176.993C739.647 176.702 740.504 176.557 741.392 176.557C743.008 176.557 744.284 177.009 745.221 177.914C746.158 178.802 746.627 180.046 746.627 181.646V187.001C746.627 187.26 746.675 187.454 746.772 187.583C746.885 187.696 747.063 187.761 747.305 187.777V189.425C747.095 189.457 746.909 189.481 746.748 189.497C746.603 189.514 746.481 189.522 746.384 189.522C745.884 189.522 745.504 189.384 745.245 189.11C745.003 188.835 744.866 188.544 744.833 188.237L744.785 187.438C744.236 188.148 743.517 188.698 742.628 189.085C741.74 189.473 740.859 189.667 739.987 189.667C739.147 189.667 738.395 189.497 737.733 189.158C737.071 188.803 736.554 188.334 736.182 187.753C735.811 187.155 735.625 186.492 735.625 185.765ZM743.864 186.662C744.058 186.436 744.211 186.21 744.325 185.984C744.438 185.741 744.494 185.539 744.494 185.378V183.803C743.993 183.609 743.468 183.463 742.919 183.366C742.37 183.253 741.829 183.197 741.295 183.197C740.213 183.197 739.332 183.415 738.654 183.851C737.992 184.271 737.66 184.853 737.66 185.596C737.66 186 737.765 186.395 737.975 186.783C738.202 187.155 738.525 187.462 738.945 187.704C739.381 187.946 739.914 188.068 740.544 188.068C741.207 188.068 741.837 187.938 742.434 187.68C743.032 187.405 743.509 187.066 743.864 186.662ZM756.725 178.641C755.659 178.657 754.714 178.932 753.89 179.465C753.082 179.982 752.508 180.701 752.169 181.621V189.425H750.037V176.775H752.024V179.707C752.46 178.835 753.034 178.132 753.744 177.599C754.471 177.049 755.231 176.742 756.022 176.678C756.184 176.678 756.321 176.678 756.434 176.678C756.547 176.678 756.644 176.686 756.725 176.702V178.641ZM767.758 189.425L763.372 183.269L760.973 185.523V189.425H758.84V171.734H760.973V183.294L767.516 176.799H769.818L764.777 182.033L770.06 189.425H767.758ZM776.839 189.667C775.886 189.667 775.013 189.497 774.222 189.158C773.446 188.803 772.768 188.326 772.186 187.728C771.621 187.114 771.176 186.412 770.853 185.62C770.546 184.828 770.393 183.988 770.393 183.1C770.393 181.904 770.667 180.814 771.217 179.828C771.766 178.843 772.525 178.051 773.495 177.453C774.48 176.856 775.603 176.557 776.863 176.557C778.139 176.557 779.246 176.864 780.183 177.478C781.136 178.075 781.871 178.867 782.388 179.852C782.922 180.822 783.188 181.872 783.188 183.003C783.188 183.164 783.18 183.326 783.164 183.487C783.164 183.633 783.156 183.746 783.14 183.827H772.647C772.711 184.651 772.937 185.386 773.325 186.032C773.729 186.662 774.246 187.163 774.876 187.534C775.506 187.89 776.185 188.068 776.912 188.068C777.687 188.068 778.414 187.874 779.093 187.486C779.787 187.098 780.264 186.589 780.522 185.959L782.364 186.468C782.089 187.082 781.678 187.631 781.128 188.116C780.595 188.601 779.957 188.98 779.214 189.255C778.487 189.53 777.695 189.667 776.839 189.667ZM772.574 182.349H781.201C781.136 181.525 780.902 180.798 780.498 180.167C780.094 179.537 779.577 179.045 778.947 178.689C778.317 178.334 777.622 178.156 776.863 178.156C776.12 178.156 775.433 178.334 774.803 178.689C774.173 179.045 773.656 179.537 773.252 180.167C772.865 180.798 772.638 181.525 772.574 182.349ZM791.983 188.795C791.806 188.875 791.563 188.98 791.256 189.11C790.949 189.239 790.594 189.352 790.19 189.449C789.786 189.546 789.358 189.594 788.906 189.594C788.389 189.594 787.912 189.505 787.476 189.328C787.04 189.134 786.692 188.843 786.434 188.455C786.175 188.051 786.046 187.551 786.046 186.953V178.447H784.326V176.775H786.046V172.558H788.179V176.775H791.014V178.447H788.179V186.299C788.211 186.751 788.364 187.09 788.639 187.316C788.914 187.526 789.237 187.631 789.608 187.631C790.028 187.631 790.416 187.559 790.772 187.413C791.127 187.268 791.361 187.163 791.474 187.098L791.983 188.795ZM800.429 189.425V172.219H807.602C808.361 172.219 809.056 172.38 809.686 172.704C810.316 173.011 810.865 173.431 811.334 173.964C811.802 174.481 812.166 175.07 812.424 175.733C812.683 176.379 812.812 177.041 812.812 177.72C812.812 178.657 812.602 179.554 812.182 180.41C811.762 181.25 811.172 181.937 810.413 182.47C809.653 182.987 808.765 183.245 807.747 183.245H802.61V189.425H800.429ZM802.61 181.306H807.626C808.224 181.306 808.741 181.145 809.177 180.822C809.629 180.499 809.977 180.062 810.219 179.513C810.477 178.964 810.607 178.366 810.607 177.72C810.607 177.041 810.461 176.436 810.17 175.902C809.88 175.353 809.5 174.925 809.031 174.618C808.563 174.311 808.046 174.158 807.48 174.158H802.61V181.306ZM821.876 178.641C820.81 178.657 819.865 178.932 819.041 179.465C818.233 179.982 817.66 180.701 817.32 181.621V189.425H815.188V176.775H817.175V179.707C817.611 178.835 818.185 178.132 818.896 177.599C819.623 177.049 820.382 176.742 821.174 176.678C821.335 176.678 821.472 176.678 821.585 176.678C821.699 176.678 821.796 176.686 821.876 176.702V178.641ZM823.991 189.425V176.775H826.124V189.425H823.991ZM823.991 174.4V171.734H826.124V174.4H823.991ZM835.174 189.667C834.221 189.667 833.349 189.497 832.557 189.158C831.782 188.803 831.103 188.318 830.522 187.704C829.956 187.09 829.512 186.387 829.189 185.596C828.882 184.804 828.728 183.964 828.728 183.076C828.728 181.88 828.995 180.789 829.528 179.804C830.061 178.818 830.812 178.035 831.782 177.453C832.751 176.856 833.874 176.557 835.15 176.557C836.394 176.557 837.477 176.839 838.397 177.405C839.335 177.954 840.029 178.697 840.482 179.634L838.397 180.289C838.074 179.691 837.622 179.23 837.04 178.907C836.459 178.568 835.813 178.398 835.102 178.398C834.326 178.398 833.615 178.6 832.969 179.004C832.339 179.408 831.838 179.966 831.467 180.676C831.095 181.371 830.909 182.171 830.909 183.076C830.909 183.964 831.095 184.772 831.467 185.499C831.854 186.21 832.363 186.775 832.993 187.195C833.64 187.615 834.35 187.825 835.126 187.825C835.627 187.825 836.103 187.736 836.556 187.559C837.024 187.381 837.428 187.147 837.767 186.856C838.123 186.549 838.365 186.218 838.494 185.862L840.578 186.492C840.32 187.106 839.924 187.656 839.391 188.14C838.874 188.609 838.252 188.98 837.525 189.255C836.814 189.53 836.031 189.667 835.174 189.667ZM848.474 189.667C847.521 189.667 846.649 189.497 845.857 189.158C845.082 188.803 844.403 188.326 843.822 187.728C843.256 187.114 842.812 186.412 842.489 185.62C842.182 184.828 842.028 183.988 842.028 183.1C842.028 181.904 842.303 180.814 842.852 179.828C843.402 178.843 844.161 178.051 845.13 177.453C846.116 176.856 847.239 176.557 848.499 176.557C849.775 176.557 850.882 176.864 851.819 177.478C852.772 178.075 853.507 178.867 854.024 179.852C854.557 180.822 854.824 181.872 854.824 183.003C854.824 183.164 854.816 183.326 854.799 183.487C854.799 183.633 854.791 183.746 854.775 183.827H844.282C844.347 184.651 844.573 185.386 844.961 186.032C845.364 186.662 845.881 187.163 846.512 187.534C847.142 187.89 847.82 188.068 848.547 188.068C849.323 188.068 850.05 187.874 850.728 187.486C851.423 187.098 851.899 186.589 852.158 185.959L854 186.468C853.725 187.082 853.313 187.631 852.764 188.116C852.231 188.601 851.593 188.98 850.849 189.255C850.122 189.53 849.331 189.667 848.474 189.667ZM844.209 182.349H852.836C852.772 181.525 852.538 180.798 852.134 180.167C851.73 179.537 851.213 179.045 850.583 178.689C849.953 178.334 849.258 178.156 848.499 178.156C847.756 178.156 847.069 178.334 846.439 178.689C845.809 179.045 845.292 179.537 844.888 180.167C844.5 180.798 844.274 181.525 844.209 182.349Z" fill="white"/>
<rect x="127.403" y="226.018" width="343.308" height="98.9535" rx="14.4555" stroke="#22E16E" stroke-width="2.01946"/>
<path d="M286.302 268.987C286.055 268.699 285.725 268.42 285.312 268.152C284.9 267.884 284.436 267.647 283.92 267.441C283.405 267.214 282.838 267.039 282.219 266.915C281.621 266.771 280.992 266.698 280.332 266.698C278.642 266.698 277.394 267.018 276.59 267.657C275.786 268.296 275.384 269.173 275.384 270.286C275.384 271.07 275.59 271.688 276.002 272.142C276.415 272.596 277.043 272.967 277.889 273.256C278.755 273.544 279.848 273.843 281.168 274.153C282.693 274.483 284.013 274.885 285.127 275.359C286.24 275.833 287.096 276.472 287.694 277.277C288.292 278.06 288.591 279.112 288.591 280.432C288.591 281.483 288.385 282.401 287.972 283.184C287.58 283.947 287.024 284.587 286.302 285.102C285.58 285.597 284.735 285.968 283.766 286.216C282.797 286.442 281.745 286.556 280.611 286.556C279.497 286.556 278.404 286.442 277.332 286.216C276.281 285.968 275.28 285.618 274.332 285.164C273.383 284.71 272.497 284.143 271.672 283.463L273.002 281.112C273.332 281.463 273.755 281.813 274.27 282.164C274.806 282.494 275.404 282.803 276.064 283.092C276.744 283.38 277.477 283.617 278.26 283.803C279.044 283.968 279.848 284.05 280.673 284.05C282.24 284.05 283.456 283.772 284.322 283.215C285.189 282.638 285.622 281.803 285.622 280.71C285.622 279.885 285.374 279.225 284.879 278.73C284.405 278.235 283.694 277.823 282.745 277.493C281.796 277.163 280.642 276.833 279.281 276.503C277.796 276.132 276.549 275.73 275.538 275.297C274.528 274.843 273.765 274.256 273.249 273.534C272.754 272.812 272.507 271.874 272.507 270.719C272.507 269.317 272.847 268.131 273.528 267.162C274.208 266.193 275.146 265.461 276.342 264.966C277.538 264.471 278.889 264.224 280.394 264.224C281.384 264.224 282.302 264.327 283.147 264.533C284.013 264.739 284.817 265.028 285.56 265.399C286.302 265.77 286.982 266.214 287.601 266.729L286.302 268.987ZM298.964 286.649C297.748 286.649 296.634 286.432 295.624 285.999C294.634 285.545 293.768 284.937 293.026 284.174C292.304 283.391 291.737 282.494 291.324 281.483C290.933 280.473 290.737 279.4 290.737 278.266C290.737 276.74 291.087 275.349 291.788 274.091C292.489 272.833 293.459 271.823 294.696 271.06C295.954 270.297 297.387 269.915 298.995 269.915C300.624 269.915 302.037 270.307 303.233 271.09C304.449 271.853 305.387 272.864 306.047 274.122C306.728 275.359 307.068 276.699 307.068 278.143C307.068 278.349 307.058 278.555 307.037 278.761C307.037 278.947 307.027 279.091 307.006 279.194H293.613C293.696 280.246 293.984 281.184 294.479 282.009C294.995 282.813 295.655 283.452 296.459 283.927C297.263 284.38 298.129 284.607 299.057 284.607C300.047 284.607 300.975 284.36 301.841 283.865C302.727 283.37 303.336 282.72 303.666 281.916L306.016 282.566C305.666 283.349 305.14 284.05 304.439 284.669C303.758 285.288 302.944 285.772 301.995 286.123C301.067 286.473 300.057 286.649 298.964 286.649ZM293.52 277.308H304.532C304.449 276.256 304.15 275.328 303.635 274.524C303.119 273.72 302.459 273.091 301.655 272.637C300.851 272.183 299.964 271.957 298.995 271.957C298.047 271.957 297.17 272.183 296.366 272.637C295.562 273.091 294.902 273.72 294.386 274.524C293.892 275.328 293.603 276.256 293.52 277.308ZM310.155 263.76H312.877V282.164C312.877 283.05 313.001 283.597 313.249 283.803C313.496 284.009 313.795 284.112 314.146 284.112C314.579 284.112 314.991 284.071 315.383 283.989C315.775 283.885 316.104 283.782 316.373 283.679L316.806 285.906C316.352 286.092 315.816 286.246 315.197 286.37C314.579 286.494 314.032 286.556 313.558 286.556C312.506 286.556 311.671 286.257 311.052 285.659C310.454 285.061 310.155 284.226 310.155 283.153V263.76ZM319.006 263.76H321.728V282.164C321.728 283.05 321.851 283.597 322.099 283.803C322.346 284.009 322.645 284.112 322.996 284.112C323.429 284.112 323.841 284.071 324.233 283.989C324.625 283.885 324.955 283.782 325.223 283.679L325.656 285.906C325.202 286.092 324.666 286.246 324.047 286.37C323.429 286.494 322.882 286.556 322.408 286.556C321.356 286.556 320.521 286.257 319.903 285.659C319.305 285.061 319.006 284.226 319.006 283.153V263.76Z" fill="white"/>
<rect x="529.275" y="226.018" width="343.308" height="98.9535" rx="14.4555" stroke="#22E16E" stroke-width="2.01946"/>
<path d="M681.036 281.145C681.036 282.279 680.747 283.269 680.17 284.114C679.593 284.96 678.809 285.62 677.819 286.094C676.85 286.568 675.778 286.805 674.602 286.805H664.179V264.845H675.097C676.128 264.845 677.015 265.123 677.757 265.68C678.52 266.216 679.098 266.917 679.489 267.783C679.902 268.628 680.108 269.515 680.108 270.443C680.108 271.515 679.83 272.526 679.273 273.474C678.737 274.402 677.964 275.093 676.953 275.546C678.211 275.918 679.201 276.608 679.922 277.619C680.665 278.609 681.036 279.784 681.036 281.145ZM678.221 280.65C678.221 279.97 678.067 279.341 677.757 278.763C677.469 278.186 677.067 277.722 676.551 277.371C676.056 277.021 675.479 276.846 674.819 276.846H666.963V284.393H674.602C675.283 284.393 675.891 284.217 676.427 283.867C676.984 283.516 677.417 283.063 677.726 282.506C678.056 281.928 678.221 281.31 678.221 280.65ZM666.963 267.257V274.588H673.953C674.613 274.588 675.19 274.423 675.685 274.093C676.2 273.763 676.603 273.319 676.891 272.763C677.201 272.206 677.355 271.598 677.355 270.938C677.355 270.237 677.211 269.618 676.922 269.082C676.654 268.525 676.273 268.082 675.778 267.752C675.304 267.422 674.757 267.257 674.138 267.257H666.963ZM684.342 280.341V270.659H687.064V279.815C687.064 281.465 687.353 282.702 687.93 283.527C688.508 284.351 689.363 284.764 690.498 284.764C691.24 284.764 691.951 284.609 692.632 284.3C693.333 283.97 693.962 283.506 694.519 282.908C695.075 282.31 695.508 281.599 695.818 280.774V270.659H698.539V283.712C698.539 284.042 698.601 284.289 698.725 284.454C698.869 284.599 699.096 284.681 699.406 284.702V286.805C699.096 286.846 698.849 286.867 698.663 286.867C698.498 286.888 698.333 286.898 698.168 286.898C697.653 286.898 697.209 286.743 696.838 286.434C696.467 286.104 696.271 285.702 696.251 285.228L696.189 283.341C695.488 284.537 694.539 285.465 693.343 286.125C692.168 286.785 690.879 287.114 689.477 287.114C687.786 287.114 686.508 286.547 685.641 285.413C684.775 284.259 684.342 282.568 684.342 280.341ZM703.816 291.197C704.084 291.218 704.352 291.239 704.62 291.259C704.888 291.3 705.094 291.321 705.239 291.321C705.569 291.321 705.857 291.208 706.105 290.981C706.352 290.754 706.62 290.311 706.909 289.651C707.218 289.012 707.61 288.063 708.084 286.805L701.249 270.659H704.125L709.569 284.052L714.487 270.659H717.178L709.321 291.043C709.136 291.517 708.857 291.96 708.486 292.373C708.136 292.806 707.682 293.146 707.125 293.393C706.569 293.641 705.898 293.765 705.115 293.765C704.929 293.765 704.733 293.754 704.527 293.734C704.342 293.713 704.104 293.672 703.816 293.61V291.197Z" fill="white"/>
</svg>
