<svg width="296" height="276" viewBox="0 0 296 276" fill="none" xmlns="http://www.w3.org/2000/svg">
<rect width="296" height="276" rx="5" fill="#121212"/>
<path d="M83.2855 34.2871V28.6403H84.0922V33.5853H87.1496V34.2871H83.2855ZM87.9623 34.2871V30.0116H88.7367V34.2871H87.9623ZM88.3495 29.1888C88.1989 29.1888 88.0726 29.1404 87.9704 29.0436C87.8736 28.9468 87.8252 28.8285 87.8252 28.6887C87.8252 28.5435 87.8736 28.4225 87.9704 28.3257C88.0726 28.2288 88.1989 28.1804 88.3495 28.1804C88.5001 28.1804 88.6238 28.2288 88.7206 28.3257C88.8228 28.4171 88.8739 28.5327 88.8739 28.6725C88.8739 28.8177 88.8255 28.9414 88.7287 29.0436C88.6319 29.1404 88.5055 29.1888 88.3495 29.1888ZM95.5637 29.9713C95.9079 29.9713 96.2118 30.0385 96.4753 30.173C96.7388 30.3074 96.9432 30.5118 97.0884 30.7861C97.239 31.0603 97.3143 31.4072 97.3143 31.8267V34.2871H96.5398V31.9154C96.5398 31.5013 96.443 31.1894 96.2494 30.9797C96.0558 30.7699 95.7842 30.6651 95.4347 30.6651C95.1765 30.6651 94.9507 30.7188 94.757 30.8264C94.5634 30.934 94.4129 31.0926 94.3053 31.3023C94.2031 31.5121 94.152 31.7729 94.152 32.0848V34.2871H93.3776V31.9154C93.3776 31.5013 93.2808 31.1894 93.0872 30.9797C92.899 30.7699 92.6274 30.6651 92.2724 30.6651C92.0197 30.6651 91.7965 30.7188 91.6029 30.8264C91.4093 30.934 91.2587 31.0926 91.1511 31.3023C91.0436 31.5121 90.9898 31.7729 90.9898 32.0848V34.2871H90.2154V30.0116H90.9575V31.1491L90.8365 30.8587C90.971 30.579 91.178 30.3612 91.4577 30.2052C91.7373 30.0493 92.0627 29.9713 92.4338 29.9713C92.8425 29.9713 93.1948 30.0735 93.4905 30.2778C93.7863 30.4768 93.9799 30.7807 94.0714 31.1894L93.7568 31.0603C93.8858 30.7323 94.1117 30.4688 94.4344 30.2698C94.757 30.0708 95.1335 29.9713 95.5637 29.9713ZM98.7392 34.2871V30.0116H99.5136V34.2871H98.7392ZM99.1264 29.1888C98.9758 29.1888 98.8495 29.1404 98.7473 29.0436C98.6505 28.9468 98.6021 28.8285 98.6021 28.6887C98.6021 28.5435 98.6505 28.4225 98.7473 28.3257C98.8495 28.2288 98.9758 28.1804 99.1264 28.1804C99.277 28.1804 99.4007 28.2288 99.4975 28.3257C99.5997 28.4171 99.6508 28.5327 99.6508 28.6725C99.6508 28.8177 99.6024 28.9414 99.5056 29.0436C99.4088 29.1404 99.2824 29.1888 99.1264 29.1888ZM102.46 34.3355C102.03 34.3355 101.697 34.2199 101.46 33.9886C101.224 33.7574 101.105 33.4266 101.105 32.9964V29.0759H101.88V32.9641C101.88 33.1954 101.936 33.3729 102.049 33.4966C102.167 33.6202 102.334 33.6821 102.549 33.6821C102.791 33.6821 102.993 33.6149 103.154 33.4804L103.396 34.037C103.278 34.1392 103.135 34.2145 102.969 34.2629C102.807 34.3113 102.638 34.3355 102.46 34.3355ZM100.379 30.6489V30.0116H103.106V30.6489H100.379Z" fill="#A9A9A9"/>
<path d="M118 34.2871V29.3421H116.064V28.6403H120.734V29.3421H118.798V34.2871H118ZM121.398 34.2871V30.0116H122.14V31.1733L122.067 30.8829C122.185 30.5871 122.384 30.3612 122.664 30.2052C122.944 30.0493 123.288 29.9713 123.697 29.9713V30.7215C123.664 30.7162 123.632 30.7135 123.6 30.7135C123.573 30.7135 123.546 30.7135 123.519 30.7135C123.105 30.7135 122.777 30.8372 122.535 31.0845C122.293 31.3319 122.172 31.6896 122.172 32.1574V34.2871H121.398ZM126.99 34.2871V33.3836L126.95 33.2142V31.6734C126.95 31.3454 126.853 31.0926 126.659 30.9151C126.471 30.7323 126.186 30.6409 125.804 30.6409C125.551 30.6409 125.304 30.6839 125.062 30.7699C124.82 30.8506 124.616 30.9608 124.449 31.1007L124.126 30.5199C124.347 30.3424 124.61 30.2079 124.917 30.1165C125.229 30.0197 125.554 29.9713 125.893 29.9713C126.479 29.9713 126.931 30.1138 127.248 30.3989C127.565 30.6839 127.724 31.1195 127.724 31.7057V34.2871H126.99ZM125.586 34.3355C125.269 34.3355 124.989 34.2817 124.747 34.1742C124.511 34.0666 124.328 33.9187 124.199 33.7305C124.07 33.5369 124.005 33.3191 124.005 33.0771C124.005 32.8458 124.059 32.6361 124.167 32.4479C124.279 32.2596 124.46 32.109 124.707 31.9961C124.96 31.8832 125.299 31.8267 125.723 31.8267H127.079V32.3833H125.756C125.369 32.3833 125.108 32.4479 124.973 32.5769C124.839 32.706 124.772 32.862 124.772 33.0448C124.772 33.2545 124.855 33.4239 125.022 33.553C125.188 33.6767 125.42 33.7386 125.715 33.7386C126.006 33.7386 126.259 33.674 126.474 33.545C126.694 33.4159 126.853 33.2277 126.95 32.9803L127.103 33.5127C127.001 33.7654 126.821 33.9671 126.562 34.1177C126.304 34.2629 125.979 34.3355 125.586 34.3355ZM131.44 29.9713C131.79 29.9713 132.096 30.0385 132.36 30.173C132.629 30.3074 132.838 30.5118 132.989 30.7861C133.14 31.0603 133.215 31.4072 133.215 31.8267V34.2871H132.44V31.9154C132.44 31.5013 132.338 31.1894 132.134 30.9797C131.935 30.7699 131.653 30.6651 131.287 30.6651C131.013 30.6651 130.773 30.7188 130.569 30.8264C130.365 30.934 130.206 31.0926 130.093 31.3023C129.985 31.5121 129.932 31.7729 129.932 32.0848V34.2871H129.157V30.0116H129.899V31.1652L129.778 30.8587C129.918 30.579 130.133 30.3612 130.424 30.2052C130.714 30.0493 131.053 29.9713 131.44 29.9713ZM135.874 34.3355C135.519 34.3355 135.18 34.2871 134.858 34.1903C134.541 34.0935 134.29 33.9752 134.108 33.8354L134.43 33.2223C134.613 33.346 134.839 33.4508 135.108 33.5369C135.377 33.6229 135.651 33.666 135.931 33.666C136.291 33.666 136.549 33.6149 136.705 33.5127C136.866 33.4105 136.947 33.268 136.947 33.0851C136.947 32.9507 136.899 32.8458 136.802 32.7705C136.705 32.6952 136.576 32.6388 136.415 32.6011C136.259 32.5635 136.084 32.5312 135.89 32.5043C135.697 32.4721 135.503 32.4344 135.31 32.3914C135.116 32.343 134.938 32.2784 134.777 32.1978C134.616 32.1117 134.487 31.9961 134.39 31.8509C134.293 31.7003 134.245 31.5013 134.245 31.2539C134.245 30.9958 134.317 30.7699 134.463 30.5763C134.608 30.3827 134.812 30.2348 135.076 30.1326C135.345 30.0251 135.662 29.9713 136.028 29.9713C136.307 29.9713 136.59 30.0063 136.875 30.0762C137.165 30.1407 137.402 30.2348 137.584 30.3585L137.254 30.9716C137.06 30.8425 136.858 30.7538 136.649 30.7054C136.439 30.657 136.229 30.6328 136.019 30.6328C135.681 30.6328 135.428 30.6893 135.261 30.8022C135.094 30.9098 135.011 31.0496 135.011 31.2217C135.011 31.3669 135.059 31.4798 135.156 31.5605C135.258 31.6358 135.388 31.6949 135.544 31.738C135.705 31.781 135.882 31.8186 136.076 31.8509C136.27 31.8778 136.463 31.9154 136.657 31.9638C136.85 32.0069 137.025 32.0687 137.181 32.1494C137.342 32.23 137.471 32.343 137.568 32.4882C137.67 32.6334 137.722 32.827 137.722 33.069C137.722 33.3271 137.646 33.5503 137.496 33.7386C137.345 33.9268 137.133 34.0747 136.858 34.1822C136.584 34.2844 136.256 34.3355 135.874 34.3355ZM138.802 34.2871V29.6325C138.802 29.213 138.923 28.8796 139.165 28.6322C139.413 28.3794 139.762 28.253 140.214 28.253C140.381 28.253 140.539 28.2746 140.69 28.3176C140.846 28.3552 140.978 28.4171 141.085 28.5031L140.851 29.092C140.771 29.0275 140.679 28.9791 140.577 28.9468C140.475 28.9092 140.367 28.8903 140.254 28.8903C140.029 28.8903 139.856 28.9549 139.738 29.0839C139.62 29.2076 139.561 29.3932 139.561 29.6406V30.2133L139.577 30.5683V34.2871H138.802ZM138.076 30.6489V30.0116H140.803V30.6489H138.076ZM143.374 34.3355C142.917 34.3355 142.514 34.2414 142.164 34.0532C141.82 33.8649 141.551 33.6068 141.357 33.2787C141.169 32.9507 141.075 32.5742 141.075 32.1494C141.075 31.7245 141.166 31.3481 141.349 31.02C141.538 30.6919 141.793 30.4365 142.116 30.2536C142.444 30.0654 142.812 29.9713 143.221 29.9713C143.635 29.9713 144.001 30.0627 144.318 30.2456C144.635 30.4284 144.883 30.6866 145.06 31.02C145.243 31.3481 145.334 31.7326 145.334 32.1736C145.334 32.2058 145.332 32.2435 145.326 32.2865C145.326 32.3295 145.324 32.3699 145.318 32.4075H141.68V31.8509H144.915L144.6 32.0445C144.606 31.7702 144.549 31.5255 144.431 31.3104C144.313 31.0953 144.149 30.9286 143.939 30.8103C143.734 30.6866 143.495 30.6247 143.221 30.6247C142.952 30.6247 142.713 30.6866 142.503 30.8103C142.293 30.9286 142.129 31.098 142.011 31.3185C141.892 31.5336 141.833 31.781 141.833 32.0606V32.1897C141.833 32.4747 141.898 32.7302 142.027 32.9561C142.161 33.1766 142.347 33.3487 142.584 33.4723C142.82 33.596 143.092 33.6579 143.398 33.6579C143.651 33.6579 143.88 33.6149 144.084 33.5288C144.294 33.4428 144.477 33.3137 144.633 33.1416L145.06 33.6418C144.866 33.8676 144.624 34.0397 144.334 34.158C144.049 34.2764 143.729 34.3355 143.374 34.3355ZM146.41 34.2871V30.0116H147.152V31.1733L147.079 30.8829C147.198 30.5871 147.397 30.3612 147.676 30.2052C147.956 30.0493 148.3 29.9713 148.709 29.9713V30.7215C148.677 30.7162 148.644 30.7135 148.612 30.7135C148.585 30.7135 148.558 30.7135 148.531 30.7135C148.117 30.7135 147.789 30.8372 147.547 31.0845C147.305 31.3319 147.184 31.6896 147.184 32.1574V34.2871H146.41Z" fill="#A9A9A9"/>
<path d="M161.631 34.5264V28.8795H164.164C164.815 28.8795 165.315 29.0113 165.665 29.2748C166.014 29.5329 166.189 29.8879 166.189 30.3396C166.189 30.6462 166.119 30.9043 165.979 31.1141C165.845 31.3238 165.662 31.4851 165.431 31.5981C165.199 31.711 164.949 31.7675 164.681 31.7675L164.826 31.5255C165.148 31.5255 165.433 31.5819 165.681 31.6949C165.928 31.8078 166.124 31.9745 166.27 32.195C166.415 32.4101 166.487 32.679 166.487 33.0017C166.487 33.4857 166.305 33.8622 165.939 34.1311C165.579 34.3946 165.041 34.5264 164.326 34.5264H161.631ZM162.438 33.8729H164.293C164.74 33.8729 165.081 33.7977 165.318 33.6471C165.554 33.4965 165.673 33.2599 165.673 32.9372C165.673 32.6091 165.554 32.3698 165.318 32.2192C165.081 32.0686 164.74 31.9934 164.293 31.9934H162.365V31.3399H164.092C164.5 31.3399 164.818 31.2646 165.044 31.1141C165.269 30.9635 165.382 30.7376 165.382 30.4364C165.382 30.1353 165.269 29.9094 165.044 29.7588C164.818 29.6082 164.5 29.5329 164.092 29.5329H162.438V33.8729ZM167.624 34.5264V30.2509H168.366V31.4125L168.293 31.1221C168.411 30.8263 168.61 30.6005 168.89 30.4445C169.17 30.2885 169.514 30.2106 169.923 30.2106V30.9608C169.89 30.9554 169.858 30.9527 169.826 30.9527C169.799 30.9527 169.772 30.9527 169.745 30.9527C169.331 30.9527 169.003 31.0764 168.761 31.3238C168.519 31.5712 168.398 31.9288 168.398 32.3967V34.5264H167.624ZM170.877 34.5264V30.2509H171.652V34.5264H170.877ZM171.264 29.4281C171.114 29.4281 170.987 29.3797 170.885 29.2829C170.788 29.1861 170.74 29.0677 170.74 28.9279C170.74 28.7827 170.788 28.6617 170.885 28.5649C170.987 28.4681 171.114 28.4197 171.264 28.4197C171.415 28.4197 171.539 28.4681 171.635 28.5649C171.738 28.6563 171.789 28.772 171.789 28.9118C171.789 29.057 171.74 29.1807 171.644 29.2829C171.547 29.3797 171.42 29.4281 171.264 29.4281ZM174.897 34.5748C174.483 34.5748 174.112 34.4833 173.784 34.3005C173.461 34.1176 173.206 33.8622 173.017 33.5341C172.829 33.2061 172.735 32.8242 172.735 32.3886C172.735 31.953 172.829 31.5739 173.017 31.2512C173.206 30.9231 173.461 30.6677 173.784 30.4848C174.112 30.302 174.483 30.2106 174.897 30.2106C175.257 30.2106 175.583 30.2912 175.873 30.4526C176.163 30.6139 176.395 30.8559 176.567 31.1786C176.744 31.5013 176.833 31.9046 176.833 32.3886C176.833 32.8726 176.747 33.276 176.575 33.5987C176.408 33.9213 176.18 34.166 175.889 34.3328C175.599 34.4941 175.268 34.5748 174.897 34.5748ZM174.961 33.8971C175.23 33.8971 175.472 33.8353 175.687 33.7116C175.908 33.5879 176.08 33.4131 176.204 33.1873C176.333 32.956 176.397 32.6898 176.397 32.3886C176.397 32.0821 176.333 31.8186 176.204 31.5981C176.08 31.3722 175.908 31.1974 175.687 31.0737C175.472 30.95 175.23 30.8882 174.961 30.8882C174.687 30.8882 174.442 30.95 174.227 31.0737C174.012 31.1974 173.84 31.3722 173.711 31.5981C173.582 31.8186 173.517 32.0821 173.517 32.3886C173.517 32.6898 173.582 32.956 173.711 33.1873C173.84 33.4131 174.012 33.5879 174.227 33.7116C174.442 33.8353 174.687 33.8971 174.961 33.8971ZM176.422 34.5264V33.3728L176.47 32.3806L176.389 31.3883V28.5407H177.164V34.5264H176.422ZM180.501 36.1398C180.108 36.1398 179.726 36.0833 179.355 35.9703C178.989 35.8628 178.691 35.7068 178.46 35.5025L178.831 34.9055C179.03 35.0776 179.274 35.2121 179.565 35.3089C179.855 35.411 180.159 35.4621 180.476 35.4621C180.982 35.4621 181.353 35.3438 181.59 35.1072C181.826 34.8706 181.944 34.5102 181.944 34.0262V33.1227L182.025 32.2757L181.985 31.4206V30.2509H182.719V33.9455C182.719 34.6985 182.531 35.2524 182.154 35.6073C181.778 35.9623 181.227 36.1398 180.501 36.1398ZM180.404 34.3489C179.99 34.3489 179.619 34.2628 179.29 34.0908C178.968 33.9133 178.71 33.6686 178.516 33.3567C178.328 33.0447 178.234 32.6844 178.234 32.2757C178.234 31.8616 178.328 31.5013 178.516 31.1947C178.71 30.8828 178.968 30.6408 179.29 30.4687C179.619 30.2966 179.99 30.2106 180.404 30.2106C180.769 30.2106 181.103 30.2859 181.404 30.4364C181.705 30.5816 181.944 30.8075 182.122 31.1141C182.305 31.4206 182.396 31.8078 182.396 32.2757C182.396 32.7382 182.305 33.1227 182.122 33.4293C181.944 33.7358 181.705 33.9671 181.404 34.123C181.103 34.2736 180.769 34.3489 180.404 34.3489ZM180.492 33.6713C180.777 33.6713 181.03 33.6121 181.251 33.4938C181.471 33.3755 181.643 33.2115 181.767 33.0017C181.896 32.792 181.961 32.55 181.961 32.2757C181.961 32.0014 181.896 31.7594 181.767 31.5497C181.643 31.3399 181.471 31.1786 181.251 31.0657C181.03 30.9473 180.777 30.8882 180.492 30.8882C180.207 30.8882 179.952 30.9473 179.726 31.0657C179.506 31.1786 179.331 31.3399 179.202 31.5497C179.078 31.7594 179.016 32.0014 179.016 32.2757C179.016 32.55 179.078 32.792 179.202 33.0017C179.331 33.2115 179.506 33.3755 179.726 33.4938C179.952 33.6121 180.207 33.6713 180.492 33.6713ZM186.102 34.5748C185.645 34.5748 185.242 34.4807 184.892 34.2924C184.548 34.1042 184.279 33.8461 184.086 33.518C183.897 33.1899 183.803 32.8135 183.803 32.3886C183.803 31.9638 183.895 31.5873 184.078 31.2593C184.266 30.9312 184.521 30.6758 184.844 30.4929C185.172 30.3047 185.54 30.2106 185.949 30.2106C186.363 30.2106 186.729 30.302 187.046 30.4848C187.364 30.6677 187.611 30.9258 187.788 31.2593C187.971 31.5873 188.063 31.9718 188.063 32.4128C188.063 32.4451 188.06 32.4827 188.055 32.5258C188.055 32.5688 188.052 32.6091 188.047 32.6468H184.408V32.0902H187.643L187.329 32.2838C187.334 32.0095 187.277 31.7648 187.159 31.5497C187.041 31.3346 186.877 31.1678 186.667 31.0495C186.463 30.9258 186.223 30.864 185.949 30.864C185.68 30.864 185.441 30.9258 185.231 31.0495C185.021 31.1678 184.857 31.3372 184.739 31.5577C184.621 31.7729 184.562 32.0202 184.562 32.2999V32.429C184.562 32.714 184.626 32.9695 184.755 33.1953C184.89 33.4158 185.075 33.5879 185.312 33.7116C185.548 33.8353 185.82 33.8971 186.127 33.8971C186.379 33.8971 186.608 33.8541 186.812 33.7681C187.022 33.682 187.205 33.553 187.361 33.3809L187.788 33.881C187.595 34.1069 187.353 34.279 187.062 34.3973C186.777 34.5156 186.457 34.5748 186.102 34.5748Z" fill="white"/>
<path d="M44.0845 34.3482C43.6542 34.3482 43.2428 34.2837 42.8502 34.1546C42.4576 34.0202 42.1484 33.8481 41.9225 33.6383L42.221 33.0091C42.4361 33.1973 42.7104 33.3533 43.0438 33.477C43.3773 33.6007 43.7242 33.6625 44.0845 33.6625C44.4125 33.6625 44.6787 33.6249 44.8831 33.5496C45.0875 33.4743 45.238 33.3721 45.3349 33.2431C45.4317 33.1086 45.4801 32.958 45.4801 32.7913C45.4801 32.5977 45.4155 32.4417 45.2864 32.3234C45.1628 32.2051 44.9987 32.111 44.7944 32.0411C44.5954 31.9658 44.3749 31.9013 44.1329 31.8475C43.8909 31.7937 43.6462 31.7319 43.3988 31.6619C43.1568 31.5866 42.9336 31.4925 42.7292 31.3796C42.5302 31.2667 42.3689 31.1161 42.2452 30.9279C42.1215 30.7342 42.0597 30.4869 42.0597 30.1857C42.0597 29.8953 42.135 29.6291 42.2856 29.3871C42.4415 29.1397 42.6781 28.9434 42.9954 28.7982C43.3181 28.6476 43.7268 28.5723 44.2216 28.5723C44.5497 28.5723 44.875 28.6153 45.1977 28.7014C45.5204 28.7874 45.8 28.9111 46.0367 29.0725L45.7705 29.7178C45.5285 29.5565 45.273 29.4408 45.0041 29.3709C44.7352 29.2956 44.4744 29.258 44.2216 29.258C43.9043 29.258 43.6435 29.2983 43.4391 29.379C43.2348 29.4597 43.0842 29.5672 42.9874 29.7017C42.8959 29.8361 42.8502 29.9867 42.8502 30.1534C42.8502 30.3524 42.9121 30.5111 43.0358 30.6294C43.1648 30.7477 43.3289 30.8418 43.5279 30.9117C43.7322 30.9816 43.9554 31.0462 44.1974 31.1053C44.4394 31.1591 44.6814 31.2209 44.9234 31.2909C45.1708 31.3608 45.394 31.4522 45.593 31.5651C45.7974 31.6781 45.9614 31.8287 46.0851 32.0169C46.2088 32.2051 46.2706 32.4471 46.2706 32.7429C46.2706 33.0279 46.1926 33.2941 46.0367 33.5415C45.8807 33.7835 45.6387 33.9798 45.3106 34.1304C44.988 34.2756 44.5792 34.3482 44.0845 34.3482ZM48.1609 34.2837L46.5717 30.0082H47.3058L48.7175 33.8803H48.3707L49.8388 30.0082H50.4923L51.9282 33.8803H51.5894L53.0333 30.0082H53.7271L52.1298 34.2837H51.3877L50.0405 30.7504H50.2664L48.9031 34.2837H48.1609ZM57.033 34.2837V33.3802L56.9927 33.2108V31.67C56.9927 31.342 56.8959 31.0892 56.7023 30.9117C56.5141 30.7289 56.229 30.6374 55.8472 30.6374C55.5944 30.6374 55.347 30.6805 55.105 30.7665C54.863 30.8472 54.6587 30.9574 54.4919 31.0973L54.1693 30.5164C54.3898 30.339 54.6533 30.2045 54.9598 30.1131C55.2717 30.0163 55.5971 29.9679 55.9359 29.9679C56.5221 29.9679 56.9739 30.1104 57.2912 30.3954C57.6085 30.6805 57.7671 31.1161 57.7671 31.7023V34.2837H57.033ZM55.6294 34.3321C55.3121 34.3321 55.0324 34.2783 54.7904 34.1708C54.5538 34.0632 54.3709 33.9153 54.2419 33.7271C54.1128 33.5335 54.0483 33.3157 54.0483 33.0737C54.0483 32.8424 54.102 32.6327 54.2096 32.4444C54.3225 32.2562 54.5027 32.1056 54.7501 31.9927C55.0028 31.8797 55.3417 31.8233 55.7665 31.8233H57.1218V32.3799H55.7988C55.4116 32.3799 55.1507 32.4444 55.0163 32.5735C54.8818 32.7026 54.8146 32.8585 54.8146 33.0414C54.8146 33.2511 54.898 33.4205 55.0647 33.5496C55.2314 33.6733 55.4627 33.7351 55.7585 33.7351C56.0489 33.7351 56.3016 33.6706 56.5167 33.5415C56.7372 33.4125 56.8959 33.2242 56.9927 32.9768L57.146 33.5093C57.0438 33.762 56.8636 33.9637 56.6055 34.1143C56.3473 34.2595 56.022 34.3321 55.6294 34.3321ZM61.4671 34.3321C61.1121 34.3321 60.7868 34.2514 60.491 34.0901C60.2006 33.9234 59.9666 33.6787 59.7891 33.356C59.617 33.0333 59.531 32.63 59.531 32.146C59.531 31.6619 59.6144 31.2586 59.7811 30.9359C59.9532 30.6132 60.1844 30.3712 60.4748 30.2099C60.7706 30.0486 61.1014 29.9679 61.4671 29.9679C61.8865 29.9679 62.2576 30.0593 62.5803 30.2422C62.903 30.425 63.1584 30.6805 63.3467 31.0085C63.5349 31.3312 63.629 31.7103 63.629 32.146C63.629 32.5816 63.5349 32.9634 63.3467 33.2915C63.1584 33.6195 62.903 33.875 62.5803 34.0578C62.2576 34.2407 61.8865 34.3321 61.4671 34.3321ZM59.2003 35.8487V30.0082H59.9424V31.1618L59.894 32.154L59.9747 33.1463V35.8487H59.2003ZM61.4025 33.6545C61.6768 33.6545 61.9215 33.5926 62.1366 33.4689C62.3571 33.3452 62.5292 33.1705 62.6529 32.9446C62.782 32.7133 62.8465 32.4471 62.8465 32.146C62.8465 31.8394 62.782 31.5759 62.6529 31.3554C62.5292 31.1295 62.3571 30.9547 62.1366 30.831C61.9215 30.7074 61.6768 30.6455 61.4025 30.6455C61.1336 30.6455 60.8889 30.7074 60.6684 30.831C60.4533 30.9547 60.2812 31.1295 60.1522 31.3554C60.0285 31.5759 59.9666 31.8394 59.9666 32.146C59.9666 32.4471 60.0285 32.7133 60.1522 32.9446C60.2812 33.1705 60.4533 33.3452 60.6684 33.4689C60.8889 33.5926 61.1336 33.6545 61.4025 33.6545Z" fill="#A9A9A9"/>
<g clip-path="url(#clip0_631_1885)">
<path fill-rule="evenodd" clip-rule="evenodd" d="M66.6366 31.3685C66.7875 31.2177 67.0321 31.2177 67.183 31.3685L68.4552 32.6407L69.7274 31.3685C69.8783 31.2177 70.1228 31.2177 70.2737 31.3685C70.4246 31.5194 70.4246 31.764 70.2737 31.9149L68.7283 33.4603C68.5775 33.6111 68.3329 33.6111 68.182 33.4603L66.6366 31.9149C66.4857 31.764 66.4857 31.5194 66.6366 31.3685Z" fill="#A9A9A9"/>
</g>
<rect x="235.308" y="22.5195" width="20.557" height="20.557" rx="5.02263" fill="#1B7F4E"/>
<g clip-path="url(#clip1_631_1885)">
<path d="M244.557 33.8807C245.249 33.8807 245.811 34.4419 245.811 35.1342C245.811 35.8265 245.249 36.3877 244.557 36.3877C243.865 36.3877 243.304 35.8265 243.304 35.1342C243.304 34.4419 243.865 33.8807 244.557 33.8807Z" stroke="white" stroke-width="0.626738"/>
<path d="M246.646 29.7025C245.954 29.7025 245.392 30.2637 245.392 30.956C245.392 31.6483 245.954 32.2095 246.646 32.2095C247.338 32.2095 247.899 31.6483 247.899 30.956C247.899 30.2637 247.338 29.7025 246.646 29.7025Z" stroke="white" stroke-width="0.626738"/>
<path d="M246.855 35.1167L249.78 35.1167" stroke="white" stroke-width="0.626738" stroke-linecap="round"/>
<path d="M244.349 30.939L241.424 30.939" stroke="white" stroke-width="0.626738" stroke-linecap="round"/>
<path d="M241.424 35.1167L242.259 35.1167" stroke="white" stroke-width="0.626738" stroke-linecap="round"/>
<path d="M249.78 30.939L248.945 30.939" stroke="white" stroke-width="0.626738" stroke-linecap="round"/>
</g>
<path d="M43.5453 61.8214C43.2093 61.8214 42.888 61.771 42.5814 61.6702C42.2748 61.5652 42.0333 61.4308 41.8569 61.267L42.09 60.7756C42.258 60.9226 42.4722 61.0444 42.7326 61.141C42.993 61.2376 43.2639 61.2859 43.5453 61.2859C43.8015 61.2859 44.0094 61.2565 44.169 61.1977C44.3286 61.1389 44.4462 61.0591 44.5218 60.9583C44.5974 60.8533 44.6352 60.7357 44.6352 60.6055C44.6352 60.4543 44.5848 60.3325 44.484 60.2401C44.3874 60.1477 44.2593 60.0742 44.0997 60.0196C43.9443 59.9608 43.7721 59.9104 43.5831 59.8684C43.3941 59.8264 43.203 59.7781 43.0098 59.7235C42.8208 59.6647 42.6465 59.5912 42.4869 59.503C42.3315 59.4148 42.2055 59.2972 42.1089 59.1502C42.0123 58.999 41.964 58.8058 41.964 58.5706C41.964 58.3438 42.0228 58.1359 42.1404 57.9469C42.2622 57.7537 42.447 57.6004 42.6948 57.487C42.9468 57.3694 43.266 57.3106 43.6524 57.3106C43.9086 57.3106 44.1627 57.3442 44.4147 57.4114C44.6667 57.4786 44.8851 57.5752 45.0699 57.7012L44.862 58.2052C44.673 58.0792 44.4735 57.9889 44.2635 57.9343C44.0535 57.8755 43.8498 57.8461 43.6524 57.8461C43.4046 57.8461 43.2009 57.8776 43.0413 57.9406C42.8817 58.0036 42.7641 58.0876 42.6885 58.1926C42.6171 58.2976 42.5814 58.4152 42.5814 58.5454C42.5814 58.7008 42.6297 58.8247 42.7263 58.9171C42.8271 59.0095 42.9552 59.083 43.1106 59.1376C43.2702 59.1922 43.4445 59.2426 43.6335 59.2888C43.8225 59.3308 44.0115 59.3791 44.2005 59.4337C44.3937 59.4883 44.568 59.5597 44.7234 59.6479C44.883 59.7361 45.0111 59.8537 45.1077 60.0007C45.2043 60.1477 45.2526 60.3367 45.2526 60.5677C45.2526 60.7903 45.1917 60.9982 45.0699 61.1914C44.9481 61.3804 44.7591 61.5337 44.5029 61.6513C44.2509 61.7647 43.9317 61.8214 43.5453 61.8214ZM47.5716 61.8088C47.2146 61.8088 46.8996 61.7353 46.6266 61.5883C46.3578 61.4413 46.1478 61.2397 45.9966 60.9835C45.8496 60.7273 45.7761 60.4333 45.7761 60.1015C45.7761 59.7697 45.8475 59.4757 45.9903 59.2195C46.1373 58.9633 46.3368 58.7638 46.5888 58.621C46.845 58.474 47.1327 58.4005 47.4519 58.4005C47.7753 58.4005 48.0609 58.4719 48.3087 58.6147C48.5565 58.7575 48.7497 58.9591 48.8883 59.2195C49.0311 59.4757 49.1025 59.776 49.1025 60.1204C49.1025 60.1456 49.1004 60.175 49.0962 60.2086C49.0962 60.2422 49.0941 60.2737 49.0899 60.3031H46.2486V59.8684H48.7749L48.5292 60.0196C48.5334 59.8054 48.4893 59.6143 48.3969 59.4463C48.3045 59.2783 48.1764 59.1481 48.0126 59.0557C47.853 58.9591 47.6661 58.9108 47.4519 58.9108C47.2419 58.9108 47.055 58.9591 46.8912 59.0557C46.7274 59.1481 46.5993 59.2804 46.5069 59.4526C46.4145 59.6206 46.3683 59.8138 46.3683 60.0322V60.133C46.3683 60.3556 46.4187 60.5551 46.5195 60.7315C46.6245 60.9037 46.7694 61.0381 46.9542 61.1347C47.139 61.2313 47.3511 61.2796 47.5905 61.2796C47.7879 61.2796 47.9664 61.246 48.126 61.1788C48.2898 61.1116 48.4326 61.0108 48.5544 60.8764L48.8883 61.267C48.7371 61.4434 48.5481 61.5778 48.3213 61.6702C48.0987 61.7626 47.8488 61.8088 47.5716 61.8088ZM49.9423 61.771V57.0964H50.5471V61.771H49.9423ZM51.7019 61.771V57.0964H52.3067V61.771H51.7019Z" fill="#828282"/>
<path d="M42.3018 144.335V139.648H44.4045C44.9447 139.648 45.3599 139.757 45.6501 139.976C45.9403 140.19 46.0854 140.485 46.0854 140.86C46.0854 141.114 46.0274 141.329 45.9113 141.503C45.7997 141.677 45.6479 141.811 45.4559 141.905C45.2639 141.998 45.0563 142.045 44.8331 142.045L44.9537 141.844C45.2215 141.844 45.4581 141.891 45.6635 141.985C45.8689 142.079 46.0318 142.217 46.1524 142.4C46.2729 142.579 46.3332 142.802 46.3332 143.07C46.3332 143.472 46.1814 143.784 45.8778 144.007C45.5787 144.226 45.1322 144.335 44.5385 144.335H42.3018ZM42.9714 143.793H44.5117C44.8822 143.793 45.1657 143.731 45.3622 143.606C45.5586 143.481 45.6568 143.284 45.6568 143.016C45.6568 142.744 45.5586 142.545 45.3622 142.42C45.1657 142.295 44.8822 142.233 44.5117 142.233H42.9112V141.69H44.3443C44.6836 141.69 44.947 141.628 45.1345 141.503C45.322 141.378 45.4157 141.19 45.4157 140.94C45.4157 140.69 45.322 140.503 45.1345 140.378C44.947 140.253 44.6836 140.19 44.3443 140.19H42.9714V143.793ZM48.7696 144.376C48.4661 144.376 48.1982 144.32 47.9661 144.208C47.7384 144.097 47.5598 143.927 47.4303 143.699C47.3053 143.467 47.2428 143.177 47.2428 142.829V140.786H47.8857V142.755C47.8857 143.103 47.9683 143.364 48.1335 143.539C48.3031 143.713 48.5397 143.8 48.8433 143.8C49.0665 143.8 49.2607 143.755 49.4259 143.666C49.5911 143.572 49.7183 143.438 49.8076 143.264C49.8969 143.085 49.9416 142.871 49.9416 142.621V140.786H50.5844V144.335H49.975V143.378L50.0755 143.632C49.9594 143.869 49.7853 144.052 49.5532 144.181C49.321 144.311 49.0598 144.376 48.7696 144.376ZM51.9623 145.675C51.7927 145.675 51.6275 145.646 51.4668 145.588C51.3061 145.534 51.1677 145.454 51.0516 145.347L51.3261 144.864C51.4154 144.949 51.5137 145.014 51.6208 145.059C51.7279 145.103 51.8418 145.126 51.9623 145.126C52.1186 145.126 52.2481 145.085 52.3507 145.005C52.4534 144.925 52.5494 144.782 52.6387 144.577L52.8597 144.088L52.9266 144.007L54.3196 140.786H54.949L53.228 144.69C53.1253 144.94 53.0092 145.137 52.8798 145.28C52.7548 145.423 52.6164 145.523 52.4646 145.581C52.3128 145.644 52.1454 145.675 51.9623 145.675ZM52.8061 144.449L51.1855 140.786H51.8552L53.2347 143.947L52.8061 144.449Z" fill="#828282"/>
<path d="M67.2941 142.223C66.7687 144.331 64.6335 145.619 62.5216 145.093C60.4135 144.566 59.1283 142.431 59.6537 140.323C60.1791 138.215 62.313 136.927 64.4198 137.453C66.533 137.972 67.8182 140.114 67.2941 142.223Z" fill="#213147"/>
<path d="M61.0308 140.155V142.47C61.0308 142.612 61.1133 142.754 61.232 142.824L63.24 143.982C63.3699 144.052 63.5238 144.052 63.6537 143.982L65.6617 142.824C65.7916 142.754 65.863 142.612 65.863 142.47V140.155C65.863 140.013 65.7804 139.871 65.6617 139.801L63.6528 138.643C63.5229 138.573 63.369 138.573 63.2391 138.643L61.2311 139.801C61.1012 139.871 61.0308 140.013 61.0308 140.155Z" fill="#213147"/>
<path d="M64.3614 140.439C64.3855 140.391 64.4439 140.391 64.456 140.439L65.4475 143.167L64.8808 143.499L64.0776 141.289C64.0655 141.266 64.0655 141.242 64.0776 141.219L64.3614 140.439Z" fill="#12AAFF"/>
<path d="M63.6055 142.541L63.8893 141.761C63.9125 141.714 63.9718 141.714 63.983 141.761L64.6684 143.628L64.1017 143.959L63.6055 142.612C63.5934 142.589 63.5934 142.565 63.6055 142.541Z" fill="#12AAFF"/>
<path d="M63.4404 138.726C63.4524 138.726 63.4636 138.726 63.4756 138.738L65.6487 139.99C65.6719 140.002 65.684 140.025 65.684 140.06V142.565C65.684 142.588 65.6719 142.624 65.6487 142.635L63.4756 143.887C63.4636 143.899 63.4524 143.899 63.4404 143.899C63.4283 143.899 63.4172 143.899 63.4051 143.887L61.232 142.635C61.2088 142.623 61.1968 142.6 61.1968 142.565V140.06C61.1968 140.037 61.2088 140.001 61.232 139.99L63.4051 138.738C63.4163 138.726 63.4283 138.726 63.4404 138.726ZM63.4404 138.359C63.3578 138.359 63.2864 138.383 63.2159 138.419L61.0428 139.671C60.9009 139.753 60.8184 139.895 60.8184 140.06V142.565C60.8184 142.719 60.9009 142.872 61.0428 142.954L63.2159 144.206C63.2864 144.242 63.3578 144.266 63.4404 144.266C63.5229 144.266 63.5943 144.242 63.6648 144.206L65.8379 142.954C65.9798 142.872 66.0624 142.73 66.0624 142.565V140.06C66.0624 139.906 65.9798 139.753 65.8379 139.671L63.676 138.419C63.6055 138.383 63.534 138.359 63.4515 138.359H63.4404Z" fill="#9DCCED"/>
<path d="M62.0111 143.498L62.2114 142.954L62.613 143.285L62.2356 143.64L62.0111 143.498Z" fill="#213147"/>
<path d="M63.6639 139.883H64.2195L64.2074 139.872C64.2426 139.872 64.2668 139.907 64.2547 139.943L62.7902 143.959L62.2235 143.628L63.5693 139.943C63.5814 139.906 63.6286 139.883 63.6639 139.883Z" fill="white"/>
<path d="M62.7076 139.883H63.2512C63.2864 139.883 63.3105 139.918 63.2984 139.954L61.999 143.51L61.4323 143.179L62.613 139.943C62.6251 139.906 62.6724 139.883 62.7076 139.883Z" fill="white"/>
<g clip-path="url(#clip2_631_1885)">
<g clip-path="url(#clip3_631_1885)">
<path d="M46.6272 195.11C45.8003 195.11 45.0961 194.885 44.5143 194.435C43.9326 193.982 43.4881 193.325 43.1808 192.465C42.8735 191.602 42.7198 190.559 42.7198 189.337C42.7198 188.122 42.8735 187.085 43.1808 186.225C43.4918 185.362 43.9381 184.703 44.5198 184.25C45.1052 183.792 45.8076 183.564 46.6272 183.564C47.4467 183.564 48.1473 183.792 48.729 184.25C49.3144 184.703 49.7607 185.362 50.0681 186.225C50.379 187.085 50.5345 188.122 50.5345 189.337C50.5345 190.559 50.3809 191.602 50.0735 192.465C49.7662 193.325 49.3217 193.982 48.74 194.435C48.1583 194.885 47.454 195.11 46.6272 195.11ZM46.6272 193.903C47.4467 193.903 48.0833 193.508 48.5369 192.717C48.9906 191.927 49.2174 190.8 49.2174 189.337C49.2174 188.364 49.1132 187.535 48.9046 186.851C48.6998 186.167 48.4034 185.645 48.0156 185.287C47.6314 184.928 47.1686 184.749 46.6272 184.749C45.815 184.749 45.1802 185.15 44.7229 185.951C44.2656 186.749 44.0369 187.877 44.0369 189.337C44.0369 190.31 44.1393 191.137 44.3442 191.817C44.5491 192.498 44.8436 193.016 45.2278 193.371C45.6156 193.725 46.082 193.903 46.6272 193.903ZM53.1934 195.044C52.9227 195.044 52.6903 194.947 52.4964 194.753C52.3025 194.56 52.2056 194.327 52.2056 194.057C52.2056 193.786 52.3025 193.553 52.4964 193.36C52.6903 193.166 52.9227 193.069 53.1934 193.069C53.4641 193.069 53.6964 193.166 53.8904 193.36C54.0843 193.553 54.1812 193.786 54.1812 194.057C54.1812 194.236 54.1355 194.4 54.044 194.55C53.9562 194.7 53.8373 194.821 53.6873 194.913C53.541 195 53.3763 195.044 53.1934 195.044ZM59.7569 195.11C58.93 195.11 58.2258 194.885 57.644 194.435C57.0623 193.982 56.6178 193.325 56.3105 192.465C56.0032 191.602 55.8495 190.559 55.8495 189.337C55.8495 188.122 56.0032 187.085 56.3105 186.225C56.6215 185.362 57.0678 184.703 57.6495 184.25C58.2349 183.792 58.9374 183.564 59.7569 183.564C60.5764 183.564 61.277 183.792 61.8587 184.25C62.4441 184.703 62.8904 185.362 63.1978 186.225C63.5087 187.085 63.6642 188.122 63.6642 189.337C63.6642 190.559 63.5106 191.602 63.2033 192.465C62.8959 193.325 62.4514 193.982 61.8697 194.435C61.288 194.885 60.5837 195.11 59.7569 195.11ZM59.7569 193.903C60.5764 193.903 61.213 193.508 61.6667 192.717C62.1203 191.927 62.3471 190.8 62.3471 189.337C62.3471 188.364 62.2429 187.535 62.0343 186.851C61.8295 186.167 61.5331 185.645 61.1453 185.287C60.7612 184.928 60.2983 184.749 59.7569 184.749C58.9447 184.749 58.3099 185.15 57.8526 185.951C57.3953 186.749 57.1666 187.877 57.1666 189.337C57.1666 190.31 57.269 191.137 57.4739 191.817C57.6788 192.498 57.9733 193.016 58.3575 193.371C58.7453 193.725 59.2117 193.903 59.7569 193.903Z" fill="#D9D9D9"/>
</g>
</g>
<path d="M196.52 194.474V189.426H198.698C199.261 189.426 199.696 189.539 200.004 189.765C200.316 189.991 200.472 190.311 200.472 190.724C200.472 190.998 200.408 191.229 200.278 191.416C200.153 191.604 199.98 191.746 199.758 191.842C199.542 191.938 199.304 191.986 199.045 191.986L199.167 191.813C199.489 191.813 199.766 191.863 199.996 191.964C200.232 192.061 200.415 192.207 200.545 192.404C200.674 192.597 200.739 192.837 200.739 193.126C200.739 193.553 200.581 193.885 200.263 194.121C199.951 194.356 199.477 194.474 198.843 194.474H196.52ZM197.054 194.034H198.835C199.278 194.034 199.617 193.96 199.852 193.811C200.088 193.657 200.206 193.414 200.206 193.082C200.206 192.755 200.088 192.517 199.852 192.368C199.617 192.214 199.278 192.138 198.835 192.138H196.996V191.698H198.662C199.066 191.698 199.379 191.621 199.6 191.467C199.826 191.313 199.939 191.085 199.939 190.782C199.939 190.474 199.826 190.246 199.6 190.097C199.379 189.943 199.066 189.866 198.662 189.866H197.054V194.034ZM204.222 194.474V193.638L204.2 193.501V192.101C204.2 191.779 204.109 191.532 203.926 191.359C203.748 191.186 203.481 191.099 203.126 191.099C202.88 191.099 202.647 191.14 202.426 191.222C202.205 191.303 202.017 191.412 201.864 191.546L201.633 191.164C201.825 191 202.056 190.875 202.325 190.789C202.594 190.698 202.878 190.652 203.176 190.652C203.667 190.652 204.044 190.774 204.308 191.02C204.578 191.26 204.712 191.628 204.712 192.123V194.474H204.222ZM202.917 194.51C202.633 194.51 202.385 194.465 202.174 194.373C201.967 194.277 201.808 194.147 201.698 193.984C201.587 193.815 201.532 193.623 201.532 193.407C201.532 193.21 201.578 193.032 201.669 192.873C201.765 192.71 201.919 192.58 202.13 192.484C202.347 192.383 202.635 192.332 202.996 192.332H204.301V192.714H203.01C202.645 192.714 202.39 192.779 202.246 192.909C202.106 193.039 202.037 193.2 202.037 193.392C202.037 193.609 202.121 193.782 202.289 193.912C202.457 194.041 202.693 194.106 202.996 194.106C203.284 194.106 203.532 194.041 203.739 193.912C203.95 193.777 204.104 193.585 204.2 193.335L204.316 193.688C204.219 193.938 204.051 194.138 203.811 194.287C203.575 194.436 203.277 194.51 202.917 194.51ZM206.103 194.474V189.123H206.615V194.474H206.103ZM210.412 194.474V193.638L210.391 193.501V192.101C210.391 191.779 210.299 191.532 210.117 191.359C209.939 191.186 209.672 191.099 209.316 191.099C209.071 191.099 208.838 191.14 208.617 191.222C208.396 191.303 208.208 191.412 208.054 191.546L207.823 191.164C208.016 191 208.247 190.875 208.516 190.789C208.785 190.698 209.069 190.652 209.367 190.652C209.857 190.652 210.235 190.774 210.499 191.02C210.768 191.26 210.903 191.628 210.903 192.123V194.474H210.412ZM209.107 194.51C208.823 194.51 208.576 194.465 208.364 194.373C208.158 194.277 207.999 194.147 207.888 193.984C207.778 193.815 207.722 193.623 207.722 193.407C207.722 193.21 207.768 193.032 207.859 192.873C207.956 192.71 208.11 192.58 208.321 192.484C208.537 192.383 208.826 192.332 209.186 192.332H210.492V192.714H209.201C208.835 192.714 208.581 192.779 208.436 192.909C208.297 193.039 208.227 193.2 208.227 193.392C208.227 193.609 208.311 193.782 208.48 193.912C208.648 194.041 208.884 194.106 209.186 194.106C209.475 194.106 209.723 194.041 209.929 193.912C210.141 193.777 210.295 193.585 210.391 193.335L210.506 193.688C210.41 193.938 210.242 194.138 210.001 194.287C209.766 194.436 209.468 194.51 209.107 194.51ZM214.226 190.652C214.534 190.652 214.803 190.712 215.034 190.832C215.27 190.948 215.452 191.125 215.582 191.366C215.717 191.606 215.784 191.909 215.784 192.275V194.474H215.272V192.325C215.272 191.926 215.171 191.625 214.969 191.424C214.772 191.217 214.493 191.113 214.133 191.113C213.863 191.113 213.628 191.169 213.426 191.279C213.229 191.385 213.075 191.541 212.964 191.748C212.859 191.95 212.806 192.195 212.806 192.484V194.474H212.294V190.688H212.784V191.726L212.705 191.532C212.825 191.258 213.017 191.044 213.282 190.89C213.546 190.731 213.861 190.652 214.226 190.652ZM218.739 194.51C218.364 194.51 218.028 194.428 217.73 194.265C217.436 194.097 217.206 193.868 217.037 193.58C216.869 193.287 216.785 192.952 216.785 192.577C216.785 192.198 216.869 191.863 217.037 191.575C217.206 191.287 217.436 191.061 217.73 190.897C218.028 190.734 218.364 190.652 218.739 190.652C219.061 190.652 219.352 190.714 219.612 190.839C219.872 190.964 220.076 191.152 220.225 191.402L219.843 191.662C219.713 191.469 219.552 191.327 219.36 191.236C219.167 191.145 218.958 191.099 218.732 191.099C218.463 191.099 218.22 191.162 218.004 191.287C217.787 191.407 217.617 191.577 217.492 191.799C217.367 192.02 217.304 192.279 217.304 192.577C217.304 192.876 217.367 193.135 217.492 193.356C217.617 193.577 217.787 193.751 218.004 193.876C218.22 193.996 218.463 194.056 218.732 194.056C218.958 194.056 219.167 194.01 219.36 193.919C219.552 193.827 219.713 193.688 219.843 193.501L220.225 193.76C220.076 194.005 219.872 194.193 219.612 194.323C219.352 194.448 219.061 194.51 218.739 194.51ZM222.776 194.51C222.381 194.51 222.035 194.428 221.737 194.265C221.439 194.097 221.206 193.868 221.038 193.58C220.869 193.287 220.785 192.952 220.785 192.577C220.785 192.202 220.865 191.871 221.023 191.582C221.187 191.294 221.408 191.068 221.687 190.904C221.97 190.736 222.288 190.652 222.639 190.652C222.994 190.652 223.309 190.734 223.583 190.897C223.862 191.056 224.081 191.282 224.24 191.575C224.398 191.863 224.478 192.198 224.478 192.577C224.478 192.601 224.475 192.628 224.47 192.657C224.47 192.681 224.47 192.707 224.47 192.736H221.175V192.354H224.196L223.995 192.505C223.995 192.231 223.934 191.988 223.814 191.777C223.699 191.561 223.54 191.392 223.338 191.272C223.136 191.152 222.903 191.092 222.639 191.092C222.379 191.092 222.146 191.152 221.939 191.272C221.732 191.392 221.571 191.561 221.456 191.777C221.341 191.993 221.283 192.241 221.283 192.52V192.599C221.283 192.888 221.345 193.142 221.47 193.364C221.6 193.58 221.778 193.751 222.004 193.876C222.235 193.996 222.497 194.056 222.79 194.056C223.021 194.056 223.235 194.015 223.432 193.933C223.634 193.852 223.807 193.726 223.951 193.558L224.24 193.89C224.071 194.092 223.86 194.246 223.605 194.352C223.355 194.457 223.079 194.51 222.776 194.51ZM225.57 191.438C225.465 191.438 225.373 191.399 225.296 191.323C225.224 191.246 225.188 191.152 225.188 191.041C225.188 190.926 225.224 190.832 225.296 190.76C225.373 190.688 225.465 190.652 225.57 190.652C225.676 190.652 225.765 190.688 225.837 190.76C225.914 190.832 225.953 190.926 225.953 191.041C225.953 191.152 225.914 191.246 225.837 191.323C225.765 191.399 225.676 191.438 225.57 191.438ZM225.57 194.51C225.465 194.51 225.373 194.472 225.296 194.395C225.224 194.318 225.188 194.224 225.188 194.114C225.188 193.998 225.224 193.904 225.296 193.832C225.373 193.76 225.465 193.724 225.57 193.724C225.676 193.724 225.765 193.76 225.837 193.832C225.914 193.904 225.953 193.998 225.953 194.114C225.953 194.224 225.914 194.318 225.837 194.395C225.765 194.472 225.676 194.51 225.57 194.51ZM230.609 194.517C230.219 194.517 229.873 194.416 229.57 194.214C229.267 194.008 229.029 193.714 228.856 193.335C228.683 192.95 228.597 192.488 228.597 191.95C228.597 191.412 228.683 190.952 228.856 190.573C229.029 190.188 229.267 189.895 229.57 189.693C229.873 189.486 230.219 189.383 230.609 189.383C230.998 189.383 231.344 189.486 231.647 189.693C231.95 189.895 232.188 190.188 232.361 190.573C232.539 190.952 232.628 191.412 232.628 191.95C232.628 192.488 232.539 192.95 232.361 193.335C232.188 193.714 231.95 194.008 231.647 194.214C231.344 194.416 230.998 194.517 230.609 194.517ZM230.609 194.041C230.907 194.041 231.166 193.962 231.388 193.803C231.609 193.64 231.782 193.404 231.907 193.097C232.032 192.784 232.094 192.402 232.094 191.95C232.094 191.498 232.032 191.118 231.907 190.811C231.782 190.498 231.609 190.262 231.388 190.104C231.166 189.94 230.907 189.859 230.609 189.859C230.32 189.859 230.063 189.94 229.837 190.104C229.611 190.262 229.436 190.498 229.311 190.811C229.186 191.118 229.123 191.498 229.123 191.95C229.123 192.402 229.186 192.784 229.311 193.097C229.436 193.404 229.611 193.64 229.837 193.803C230.063 193.962 230.32 194.041 230.609 194.041ZM233.684 194.51C233.578 194.51 233.487 194.472 233.41 194.395C233.337 194.318 233.301 194.224 233.301 194.114C233.301 193.998 233.337 193.904 233.41 193.832C233.487 193.76 233.578 193.724 233.684 193.724C233.789 193.724 233.878 193.76 233.95 193.832C234.027 193.904 234.066 193.998 234.066 194.114C234.066 194.224 234.027 194.318 233.95 194.395C233.878 194.472 233.789 194.51 233.684 194.51ZM236.416 194.517C236.056 194.517 235.712 194.46 235.385 194.344C235.058 194.224 234.798 194.065 234.606 193.868L234.859 193.457C235.017 193.626 235.234 193.765 235.508 193.876C235.786 193.986 236.087 194.041 236.409 194.041C236.837 194.041 237.162 193.948 237.383 193.76C237.609 193.568 237.722 193.318 237.722 193.01C237.722 192.794 237.669 192.609 237.563 192.455C237.462 192.296 237.289 192.174 237.044 192.087C236.799 192 236.462 191.957 236.034 191.957H234.96L235.219 189.426H237.981V189.887H235.428L235.695 189.635L235.472 191.755L235.205 191.496H236.149C236.659 191.496 237.068 191.558 237.375 191.683C237.683 191.808 237.904 191.984 238.039 192.21C238.178 192.431 238.248 192.69 238.248 192.988C238.248 193.272 238.181 193.532 238.046 193.767C237.912 193.998 237.71 194.181 237.44 194.315C237.171 194.45 236.83 194.517 236.416 194.517ZM238.778 194.474V194.106L240.877 192.051C241.069 191.863 241.213 191.7 241.31 191.561C241.406 191.416 241.471 191.282 241.504 191.157C241.538 191.032 241.555 190.914 241.555 190.803C241.555 190.51 241.454 190.279 241.252 190.111C241.055 189.943 240.762 189.859 240.372 189.859C240.074 189.859 239.81 189.904 239.579 189.996C239.353 190.087 239.158 190.229 238.995 190.421L238.627 190.104C238.824 189.873 239.076 189.695 239.384 189.57C239.692 189.445 240.036 189.383 240.415 189.383C240.757 189.383 241.052 189.438 241.302 189.548C241.552 189.654 241.745 189.811 241.879 190.017C242.019 190.224 242.089 190.467 242.089 190.746C242.089 190.909 242.064 191.07 242.016 191.229C241.973 191.387 241.891 191.556 241.771 191.734C241.656 191.907 241.485 192.104 241.259 192.325L239.334 194.214L239.189 194.013H242.319V194.474H238.778ZM244.543 189.383C244.99 189.383 245.368 189.484 245.675 189.685C245.983 189.883 246.216 190.169 246.375 190.544C246.534 190.919 246.613 191.373 246.613 191.907C246.613 192.474 246.514 192.952 246.317 193.342C246.125 193.731 245.856 194.025 245.509 194.222C245.163 194.419 244.762 194.517 244.305 194.517C244.079 194.517 243.863 194.496 243.656 194.452C243.454 194.409 243.271 194.34 243.108 194.243L243.317 193.825C243.447 193.912 243.596 193.974 243.764 194.013C243.937 194.046 244.115 194.063 244.298 194.063C244.841 194.063 245.274 193.89 245.596 193.544C245.923 193.198 246.086 192.681 246.086 191.993C246.086 191.883 246.079 191.75 246.065 191.597C246.055 191.443 246.029 191.289 245.985 191.135L246.166 191.272C246.118 191.522 246.014 191.736 245.856 191.914C245.702 192.087 245.509 192.219 245.279 192.311C245.053 192.402 244.8 192.448 244.521 192.448C244.19 192.448 243.894 192.385 243.634 192.26C243.38 192.135 243.18 191.96 243.036 191.734C242.892 191.508 242.82 191.241 242.82 190.933C242.82 190.616 242.894 190.342 243.043 190.111C243.192 189.88 243.396 189.702 243.656 189.577C243.92 189.448 244.216 189.383 244.543 189.383ZM244.565 189.823C244.324 189.823 244.11 189.868 243.923 189.96C243.74 190.046 243.596 190.171 243.49 190.335C243.384 190.498 243.332 190.693 243.332 190.919C243.332 191.25 243.445 191.515 243.67 191.712C243.901 191.909 244.211 192.008 244.601 192.008C244.86 192.008 245.086 191.96 245.279 191.863C245.476 191.767 245.627 191.635 245.733 191.467C245.844 191.299 245.899 191.111 245.899 190.904C245.899 190.717 245.848 190.541 245.747 190.378C245.647 190.214 245.497 190.082 245.3 189.981C245.103 189.875 244.858 189.823 244.565 189.823ZM248.938 189.383C249.385 189.383 249.762 189.484 250.07 189.685C250.378 189.883 250.611 190.169 250.77 190.544C250.928 190.919 251.008 191.373 251.008 191.907C251.008 192.474 250.909 192.952 250.712 193.342C250.52 193.731 250.25 194.025 249.904 194.222C249.558 194.419 249.157 194.517 248.7 194.517C248.474 194.517 248.257 194.496 248.051 194.452C247.849 194.409 247.666 194.34 247.503 194.243L247.712 193.825C247.842 193.912 247.991 193.974 248.159 194.013C248.332 194.046 248.51 194.063 248.693 194.063C249.236 194.063 249.669 193.89 249.991 193.544C250.318 193.198 250.481 192.681 250.481 191.993C250.481 191.883 250.474 191.75 250.459 191.597C250.45 191.443 250.423 191.289 250.38 191.135L250.56 191.272C250.512 191.522 250.409 191.736 250.25 191.914C250.096 192.087 249.904 192.219 249.673 192.311C249.447 192.402 249.195 192.448 248.916 192.448C248.584 192.448 248.289 192.385 248.029 192.26C247.774 192.135 247.575 191.96 247.431 191.734C247.286 191.508 247.214 191.241 247.214 190.933C247.214 190.616 247.289 190.342 247.438 190.111C247.587 189.88 247.791 189.702 248.051 189.577C248.315 189.448 248.611 189.383 248.938 189.383ZM248.959 189.823C248.719 189.823 248.505 189.868 248.318 189.96C248.135 190.046 247.991 190.171 247.885 190.335C247.779 190.498 247.726 190.693 247.726 190.919C247.726 191.25 247.839 191.515 248.065 191.712C248.296 191.909 248.606 192.008 248.995 192.008C249.255 192.008 249.481 191.96 249.673 191.863C249.871 191.767 250.022 191.635 250.128 191.467C250.238 191.299 250.294 191.111 250.294 190.904C250.294 190.717 250.243 190.541 250.142 190.378C250.041 190.214 249.892 190.082 249.695 189.981C249.498 189.875 249.253 189.823 248.959 189.823ZM253.332 189.383C253.78 189.383 254.157 189.484 254.465 189.685C254.772 189.883 255.006 190.169 255.164 190.544C255.323 190.919 255.402 191.373 255.402 191.907C255.402 192.474 255.304 192.952 255.107 193.342C254.914 193.731 254.645 194.025 254.299 194.222C253.953 194.419 253.551 194.517 253.094 194.517C252.869 194.517 252.652 194.496 252.445 194.452C252.243 194.409 252.061 194.34 251.897 194.243L252.106 193.825C252.236 193.912 252.385 193.974 252.554 194.013C252.727 194.046 252.905 194.063 253.087 194.063C253.631 194.063 254.063 193.89 254.385 193.544C254.712 193.198 254.876 192.681 254.876 191.993C254.876 191.883 254.869 191.75 254.854 191.597C254.845 191.443 254.818 191.289 254.775 191.135L254.955 191.272C254.907 191.522 254.804 191.736 254.645 191.914C254.491 192.087 254.299 192.219 254.068 192.311C253.842 192.402 253.59 192.448 253.311 192.448C252.979 192.448 252.683 192.385 252.424 192.26C252.169 192.135 251.969 191.96 251.825 191.734C251.681 191.508 251.609 191.241 251.609 190.933C251.609 190.616 251.683 190.342 251.832 190.111C251.981 189.88 252.186 189.702 252.445 189.577C252.71 189.448 253.006 189.383 253.332 189.383ZM253.354 189.823C253.114 189.823 252.9 189.868 252.712 189.96C252.53 190.046 252.385 190.171 252.28 190.335C252.174 190.498 252.121 190.693 252.121 190.919C252.121 191.25 252.234 191.515 252.46 191.712C252.691 191.909 253.001 192.008 253.39 192.008C253.65 192.008 253.876 191.96 254.068 191.863C254.265 191.767 254.417 191.635 254.522 191.467C254.633 191.299 254.688 191.111 254.688 190.904C254.688 190.717 254.638 190.541 254.537 190.378C254.436 190.214 254.287 190.082 254.09 189.981C253.893 189.875 253.647 189.823 253.354 189.823Z" fill="#D9D9D9"/>
<g clip-path="url(#clip4_631_1885)">
<g clip-path="url(#clip5_631_1885)">
<path d="M46.1262 113.383C45.2994 113.383 44.5951 113.158 44.0134 112.708C43.4317 112.254 42.9871 111.598 42.6798 110.738C42.3725 109.875 42.2188 108.832 42.2188 107.61C42.2188 106.395 42.3725 105.358 42.6798 104.498C42.9908 103.635 43.4371 102.976 44.0189 102.523C44.6042 102.065 45.3067 101.837 46.1262 101.837C46.9457 101.837 47.6463 102.065 48.228 102.523C48.8134 102.976 49.2598 103.635 49.5671 104.498C49.8781 105.358 50.0335 106.395 50.0335 107.61C50.0335 108.832 49.8799 109.875 49.5726 110.738C49.2652 111.598 48.8207 112.254 48.239 112.708C47.6573 113.158 46.953 113.383 46.1262 113.383ZM46.1262 112.176C46.9457 112.176 47.5823 111.781 48.036 110.99C48.4896 110.2 48.7165 109.073 48.7165 107.61C48.7165 106.637 48.6122 105.808 48.4037 105.124C48.1988 104.44 47.9024 103.918 47.5146 103.56C47.1305 103.201 46.6677 103.022 46.1262 103.022C45.314 103.022 44.6792 103.423 44.2219 104.224C43.7646 105.021 43.5359 106.15 43.5359 107.61C43.5359 108.583 43.6384 109.41 43.8432 110.09C44.0481 110.771 44.3426 111.289 44.7268 111.644C45.1146 111.998 45.5811 112.176 46.1262 112.176ZM52.6924 113.317C52.4217 113.317 52.1894 113.22 51.9955 113.026C51.8016 112.833 51.7046 112.6 51.7046 112.329C51.7046 112.059 51.8016 111.826 51.9955 111.633C52.1894 111.439 52.4217 111.342 52.6924 111.342C52.9632 111.342 53.1955 111.439 53.3894 111.633C53.5833 111.826 53.6802 112.059 53.6802 112.329C53.6802 112.509 53.6345 112.673 53.543 112.823C53.4552 112.973 53.3363 113.094 53.1863 113.186C53.04 113.273 52.8753 113.317 52.6924 113.317ZM59.2559 113.383C58.4291 113.383 57.7248 113.158 57.1431 112.708C56.5614 112.254 56.1168 111.598 55.8095 110.738C55.5022 109.875 55.3485 108.832 55.3485 107.61C55.3485 106.395 55.5022 105.358 55.8095 104.498C56.1205 103.635 56.5668 102.976 57.1486 102.523C57.7339 102.065 58.4364 101.837 59.2559 101.837C60.0754 101.837 60.776 102.065 61.3577 102.523C61.9431 102.976 62.3895 103.635 62.6968 104.498C63.0078 105.358 63.1633 106.395 63.1633 107.61C63.1633 108.832 63.0096 109.875 62.7023 110.738C62.395 111.598 61.9504 112.254 61.3687 112.708C60.787 113.158 60.0827 113.383 59.2559 113.383ZM59.2559 112.176C60.0754 112.176 60.712 111.781 61.1657 110.99C61.6193 110.2 61.8462 109.073 61.8462 107.61C61.8462 106.637 61.7419 105.808 61.5334 105.124C61.3285 104.44 61.0321 103.918 60.6443 103.56C60.2602 103.201 59.7974 103.022 59.2559 103.022C58.4437 103.022 57.8089 103.423 57.3516 104.224C56.8943 105.021 56.6656 106.15 56.6656 107.61C56.6656 108.583 56.7681 109.41 56.9729 110.09C57.1778 110.771 57.4723 111.289 57.8565 111.644C58.2443 111.998 58.7108 112.176 59.2559 112.176Z" fill="#D9D9D9"/>
</g>
</g>
<path d="M197.021 112.748V107.7H199.199C199.762 107.7 200.197 107.813 200.505 108.039C200.817 108.265 200.973 108.584 200.973 108.998C200.973 109.272 200.909 109.503 200.779 109.69C200.654 109.878 200.481 110.02 200.259 110.116C200.043 110.212 199.805 110.26 199.545 110.26L199.668 110.087C199.99 110.087 200.267 110.137 200.497 110.238C200.733 110.335 200.916 110.481 201.046 110.678C201.175 110.871 201.24 111.111 201.24 111.399C201.24 111.827 201.082 112.159 200.764 112.395C200.452 112.63 199.978 112.748 199.344 112.748H197.021ZM197.555 112.308H199.336C199.779 112.308 200.118 112.234 200.353 112.085C200.589 111.931 200.707 111.688 200.707 111.356C200.707 111.029 200.589 110.791 200.353 110.642C200.118 110.488 199.779 110.411 199.336 110.411H197.497V109.972H199.163C199.567 109.972 199.88 109.895 200.101 109.741C200.327 109.587 200.44 109.359 200.44 109.056C200.44 108.748 200.327 108.52 200.101 108.37C199.88 108.217 199.567 108.14 199.163 108.14H197.555V112.308ZM204.723 112.748V111.911L204.701 111.774V110.375C204.701 110.053 204.61 109.806 204.427 109.633C204.249 109.459 203.982 109.373 203.627 109.373C203.381 109.373 203.148 109.414 202.927 109.496C202.706 109.577 202.518 109.685 202.365 109.82L202.134 109.438C202.326 109.274 202.557 109.149 202.826 109.063C203.095 108.971 203.379 108.926 203.677 108.926C204.168 108.926 204.545 109.048 204.809 109.294C205.079 109.534 205.213 109.902 205.213 110.397V112.748H204.723ZM203.418 112.784C203.134 112.784 202.886 112.738 202.675 112.647C202.468 112.551 202.309 112.421 202.199 112.258C202.088 112.089 202.033 111.897 202.033 111.681C202.033 111.484 202.079 111.306 202.17 111.147C202.266 110.984 202.42 110.854 202.631 110.758C202.848 110.657 203.136 110.606 203.497 110.606H204.802V110.988H203.511C203.146 110.988 202.891 111.053 202.747 111.183C202.607 111.313 202.538 111.474 202.538 111.666C202.538 111.883 202.622 112.056 202.79 112.186C202.958 112.315 203.194 112.38 203.497 112.38C203.785 112.38 204.033 112.315 204.24 112.186C204.451 112.051 204.605 111.859 204.701 111.609L204.817 111.962C204.72 112.212 204.552 112.411 204.312 112.561C204.076 112.71 203.778 112.784 203.418 112.784ZM206.604 112.748V107.397H207.116V112.748H206.604ZM210.913 112.748V111.911L210.892 111.774V110.375C210.892 110.053 210.8 109.806 210.618 109.633C210.44 109.459 210.173 109.373 209.817 109.373C209.572 109.373 209.339 109.414 209.118 109.496C208.897 109.577 208.709 109.685 208.555 109.82L208.324 109.438C208.517 109.274 208.748 109.149 209.017 109.063C209.286 108.971 209.57 108.926 209.868 108.926C210.358 108.926 210.736 109.048 211 109.294C211.269 109.534 211.404 109.902 211.404 110.397V112.748H210.913ZM209.608 112.784C209.324 112.784 209.077 112.738 208.865 112.647C208.659 112.551 208.5 112.421 208.389 112.258C208.279 112.089 208.223 111.897 208.223 111.681C208.223 111.484 208.269 111.306 208.36 111.147C208.457 110.984 208.61 110.854 208.822 110.758C209.038 110.657 209.327 110.606 209.687 110.606H210.993V110.988H209.702C209.336 110.988 209.082 111.053 208.937 111.183C208.798 111.313 208.728 111.474 208.728 111.666C208.728 111.883 208.812 112.056 208.981 112.186C209.149 112.315 209.385 112.38 209.687 112.38C209.976 112.38 210.224 112.315 210.43 112.186C210.642 112.051 210.796 111.859 210.892 111.609L211.007 111.962C210.911 112.212 210.743 112.411 210.502 112.561C210.267 112.71 209.969 112.784 209.608 112.784ZM214.727 108.926C215.035 108.926 215.304 108.986 215.535 109.106C215.771 109.221 215.953 109.399 216.083 109.64C216.218 109.88 216.285 110.183 216.285 110.548V112.748H215.773V110.599C215.773 110.2 215.672 109.899 215.47 109.697C215.273 109.491 214.994 109.387 214.634 109.387C214.364 109.387 214.129 109.443 213.927 109.553C213.73 109.659 213.576 109.815 213.465 110.022C213.36 110.224 213.307 110.469 213.307 110.758V112.748H212.795V108.962H213.285V110L213.206 109.806C213.326 109.532 213.518 109.318 213.783 109.164C214.047 109.005 214.362 108.926 214.727 108.926ZM219.24 112.784C218.865 112.784 218.529 112.702 218.231 112.539C217.937 112.371 217.707 112.142 217.538 111.854C217.37 111.561 217.286 111.226 217.286 110.851C217.286 110.472 217.37 110.137 217.538 109.849C217.707 109.56 217.937 109.334 218.231 109.171C218.529 109.008 218.865 108.926 219.24 108.926C219.562 108.926 219.853 108.988 220.113 109.113C220.373 109.238 220.577 109.426 220.726 109.676L220.344 109.935C220.214 109.743 220.053 109.601 219.861 109.51C219.668 109.419 219.459 109.373 219.233 109.373C218.964 109.373 218.721 109.435 218.505 109.56C218.288 109.681 218.118 109.851 217.993 110.072C217.868 110.294 217.805 110.553 217.805 110.851C217.805 111.149 217.868 111.409 217.993 111.63C218.118 111.851 218.288 112.024 218.505 112.149C218.721 112.27 218.964 112.33 219.233 112.33C219.459 112.33 219.668 112.284 219.861 112.193C220.053 112.101 220.214 111.962 220.344 111.774L220.726 112.034C220.577 112.279 220.373 112.467 220.113 112.597C219.853 112.722 219.562 112.784 219.24 112.784ZM223.277 112.784C222.882 112.784 222.536 112.702 222.238 112.539C221.94 112.371 221.707 112.142 221.539 111.854C221.37 111.561 221.286 111.226 221.286 110.851C221.286 110.476 221.366 110.145 221.524 109.856C221.688 109.568 221.909 109.342 222.188 109.178C222.471 109.01 222.789 108.926 223.14 108.926C223.495 108.926 223.81 109.008 224.084 109.171C224.363 109.33 224.582 109.556 224.741 109.849C224.899 110.137 224.979 110.472 224.979 110.851C224.979 110.875 224.976 110.902 224.971 110.931C224.971 110.955 224.971 110.981 224.971 111.01H221.676V110.628H224.697L224.495 110.779C224.495 110.505 224.435 110.262 224.315 110.051C224.2 109.834 224.041 109.666 223.839 109.546C223.637 109.426 223.404 109.366 223.14 109.366C222.88 109.366 222.647 109.426 222.44 109.546C222.233 109.666 222.072 109.834 221.957 110.051C221.842 110.267 221.784 110.515 221.784 110.794V110.873C221.784 111.161 221.846 111.416 221.971 111.637C222.101 111.854 222.279 112.024 222.505 112.149C222.736 112.27 222.998 112.33 223.291 112.33C223.522 112.33 223.736 112.289 223.933 112.207C224.135 112.125 224.308 112 224.452 111.832L224.741 112.164C224.572 112.366 224.361 112.52 224.106 112.625C223.856 112.731 223.58 112.784 223.277 112.784ZM226.071 109.712C225.966 109.712 225.874 109.673 225.797 109.596C225.725 109.52 225.689 109.426 225.689 109.315C225.689 109.2 225.725 109.106 225.797 109.034C225.874 108.962 225.966 108.926 226.071 108.926C226.177 108.926 226.266 108.962 226.338 109.034C226.415 109.106 226.454 109.2 226.454 109.315C226.454 109.426 226.415 109.52 226.338 109.596C226.266 109.673 226.177 109.712 226.071 109.712ZM226.071 112.784C225.966 112.784 225.874 112.746 225.797 112.669C225.725 112.592 225.689 112.498 225.689 112.387C225.689 112.272 225.725 112.178 225.797 112.106C225.874 112.034 225.966 111.998 226.071 111.998C226.177 111.998 226.266 112.034 226.338 112.106C226.415 112.178 226.454 112.272 226.454 112.387C226.454 112.498 226.415 112.592 226.338 112.669C226.266 112.746 226.177 112.784 226.071 112.784ZM231.11 112.791C230.72 112.791 230.374 112.69 230.071 112.488C229.768 112.282 229.53 111.988 229.357 111.609C229.184 111.224 229.098 110.762 229.098 110.224C229.098 109.685 229.184 109.226 229.357 108.846C229.53 108.462 229.768 108.169 230.071 107.967C230.374 107.76 230.72 107.657 231.11 107.657C231.499 107.657 231.845 107.76 232.148 107.967C232.451 108.169 232.689 108.462 232.862 108.846C233.04 109.226 233.129 109.685 233.129 110.224C233.129 110.762 233.04 111.224 232.862 111.609C232.689 111.988 232.451 112.282 232.148 112.488C231.845 112.69 231.499 112.791 231.11 112.791ZM231.11 112.315C231.408 112.315 231.667 112.236 231.889 112.077C232.11 111.914 232.283 111.678 232.408 111.371C232.533 111.058 232.595 110.676 232.595 110.224C232.595 109.772 232.533 109.392 232.408 109.084C232.283 108.772 232.11 108.536 231.889 108.378C231.667 108.214 231.408 108.133 231.11 108.133C230.821 108.133 230.564 108.214 230.338 108.378C230.112 108.536 229.937 108.772 229.812 109.084C229.687 109.392 229.624 109.772 229.624 110.224C229.624 110.676 229.687 111.058 229.812 111.371C229.937 111.678 230.112 111.914 230.338 112.077C230.564 112.236 230.821 112.315 231.11 112.315ZM234.185 112.784C234.079 112.784 233.987 112.746 233.911 112.669C233.838 112.592 233.802 112.498 233.802 112.387C233.802 112.272 233.838 112.178 233.911 112.106C233.987 112.034 234.079 111.998 234.185 111.998C234.29 111.998 234.379 112.034 234.451 112.106C234.528 112.178 234.567 112.272 234.567 112.387C234.567 112.498 234.528 112.592 234.451 112.669C234.379 112.746 234.29 112.784 234.185 112.784ZM236.917 112.791C236.557 112.791 236.213 112.734 235.886 112.618C235.559 112.498 235.299 112.339 235.107 112.142L235.36 111.731C235.518 111.899 235.735 112.039 236.009 112.149C236.287 112.26 236.588 112.315 236.91 112.315C237.338 112.315 237.662 112.222 237.884 112.034C238.11 111.842 238.223 111.592 238.223 111.284C238.223 111.068 238.17 110.883 238.064 110.729C237.963 110.57 237.79 110.447 237.545 110.361C237.299 110.274 236.963 110.231 236.535 110.231H235.46L235.72 107.7H238.482V108.161H235.929L236.196 107.909L235.973 110.029L235.706 109.77H236.65C237.16 109.77 237.569 109.832 237.876 109.957C238.184 110.082 238.405 110.258 238.54 110.484C238.679 110.705 238.749 110.964 238.749 111.262C238.749 111.546 238.682 111.806 238.547 112.041C238.413 112.272 238.211 112.455 237.941 112.589C237.672 112.724 237.331 112.791 236.917 112.791ZM239.279 112.748V112.38L241.378 110.325C241.57 110.137 241.714 109.974 241.811 109.834C241.907 109.69 241.972 109.556 242.005 109.431C242.039 109.306 242.056 109.188 242.056 109.077C242.056 108.784 241.955 108.553 241.753 108.385C241.556 108.217 241.263 108.133 240.873 108.133C240.575 108.133 240.311 108.178 240.08 108.27C239.854 108.361 239.659 108.503 239.496 108.695L239.128 108.378C239.325 108.147 239.577 107.969 239.885 107.844C240.193 107.719 240.537 107.657 240.916 107.657C241.258 107.657 241.553 107.712 241.803 107.822C242.053 107.928 242.246 108.084 242.38 108.291C242.52 108.498 242.589 108.741 242.589 109.02C242.589 109.183 242.565 109.344 242.517 109.503C242.474 109.661 242.392 109.83 242.272 110.008C242.157 110.181 241.986 110.378 241.76 110.599L239.835 112.488L239.69 112.286H242.82V112.748H239.279ZM244.979 112.791C244.614 112.791 244.268 112.734 243.941 112.618C243.619 112.498 243.359 112.339 243.162 112.142L243.414 111.731C243.578 111.899 243.796 112.039 244.071 112.149C244.349 112.26 244.652 112.315 244.979 112.315C245.397 112.315 245.717 112.224 245.938 112.041C246.164 111.859 246.277 111.613 246.277 111.306C246.277 110.998 246.167 110.753 245.946 110.57C245.729 110.387 245.385 110.296 244.914 110.296H244.554V109.914L246.111 107.959L246.184 108.161H243.371V107.7H246.616V108.068L245.059 110.022L244.806 109.856H245.001C245.607 109.856 246.059 109.991 246.357 110.26C246.66 110.529 246.811 110.875 246.811 111.298C246.811 111.582 246.744 111.837 246.609 112.063C246.474 112.289 246.27 112.467 245.996 112.597C245.727 112.726 245.388 112.791 244.979 112.791ZM248.338 112.748L250.516 107.931L250.675 108.161H247.552L247.819 107.909V109.106H247.307V107.7H251.014V108.068L248.901 112.748H248.338ZM253.627 112.791C253.18 112.791 252.802 112.693 252.495 112.496C252.187 112.294 251.954 112.005 251.795 111.63C251.636 111.25 251.557 110.796 251.557 110.267C251.557 109.695 251.653 109.217 251.845 108.832C252.043 108.443 252.314 108.149 252.66 107.952C253.007 107.755 253.408 107.657 253.865 107.657C254.091 107.657 254.307 107.678 254.514 107.721C254.721 107.765 254.903 107.834 255.062 107.931L254.853 108.349C254.723 108.262 254.574 108.202 254.406 108.169C254.237 108.13 254.059 108.111 253.872 108.111C253.329 108.111 252.894 108.284 252.567 108.63C252.245 108.976 252.083 109.493 252.083 110.181C252.083 110.286 252.088 110.419 252.098 110.577C252.112 110.731 252.141 110.885 252.184 111.039L252.004 110.902C252.057 110.652 252.16 110.44 252.314 110.267C252.468 110.089 252.66 109.955 252.891 109.863C253.122 109.772 253.374 109.726 253.648 109.726C253.985 109.726 254.281 109.789 254.535 109.914C254.79 110.039 254.99 110.214 255.134 110.44C255.278 110.666 255.35 110.933 255.35 111.241C255.35 111.553 255.276 111.827 255.127 112.063C254.978 112.294 254.771 112.474 254.507 112.604C254.247 112.729 253.954 112.791 253.627 112.791ZM253.605 112.351C253.846 112.351 254.057 112.308 254.24 112.222C254.427 112.13 254.574 112.003 254.68 111.839C254.785 111.671 254.838 111.476 254.838 111.255C254.838 110.923 254.723 110.659 254.492 110.462C254.266 110.265 253.959 110.166 253.569 110.166C253.309 110.166 253.083 110.214 252.891 110.31C252.699 110.407 252.547 110.539 252.437 110.707C252.326 110.871 252.271 111.058 252.271 111.27C252.271 111.452 252.321 111.628 252.422 111.796C252.523 111.96 252.672 112.094 252.87 112.2C253.071 112.301 253.317 112.351 253.605 112.351Z" fill="#D9D9D9"/>
<g filter="url(#filter0_dii_631_1885)">
<rect x="39.5322" y="150.37" width="55.6544" height="20.0556" rx="10.0278" fill="#1B7F4E"/>
<path d="M55.3076 161.603C54.6413 164.276 51.9338 165.909 49.2556 165.242C46.5823 164.574 44.9525 161.866 45.6188 159.193C46.2851 156.52 48.991 154.887 51.6627 155.554C54.3425 156.212 55.9722 158.928 55.3076 161.603Z" fill="#ECEFF0"/>
<path d="M50.5204 161.608C50.501 161.615 50.4899 161.598 50.4767 161.59C49.8301 161.209 49.1841 160.827 48.5389 160.444C48.5327 160.441 48.5262 160.439 48.5195 160.437V160.428L48.531 160.421C48.5472 160.417 48.5632 160.412 48.5789 160.406L50.1027 159.713C50.2385 159.651 50.3743 159.59 50.5101 159.528H50.5198C50.5198 159.548 50.5198 159.565 50.5198 159.584C50.5203 160.258 50.5205 160.933 50.5204 161.608Z" fill="#343535"/>
<path d="M50.5213 159.529H50.5116C50.5116 159.51 50.5136 159.49 50.5136 159.47C50.5136 158.712 50.5136 157.953 50.5136 157.195C50.5113 157.176 50.5127 157.156 50.5175 157.137H50.5215C50.6013 157.255 50.6707 157.379 50.744 157.501C51.325 158.464 51.9056 159.428 52.4859 160.391C52.4915 160.401 52.496 160.41 52.501 160.421C52.4846 160.417 52.4684 160.413 52.4527 160.407C52.3462 160.359 52.2393 160.31 52.1338 160.261C51.9685 160.185 51.8032 160.109 51.6378 160.034L50.8408 159.673C50.7347 159.624 50.628 159.577 50.5213 159.529Z" fill="#2F3030"/>
<path d="M50.5181 157.136C50.5133 157.155 50.512 157.175 50.5142 157.194C50.5142 157.952 50.5142 158.71 50.5142 159.469C50.5142 159.488 50.513 159.508 50.5123 159.528C50.3765 159.589 50.2407 159.65 50.1049 159.712L48.5811 160.405C48.5654 160.411 48.5494 160.417 48.5332 160.421C48.5772 160.329 48.6344 160.246 48.6866 160.159C49.2912 159.154 49.8963 158.149 50.5018 157.144C50.5058 157.139 50.5101 157.133 50.5148 157.128L50.5181 157.136Z" fill="#828384"/>
<path d="M50.5213 159.529C50.628 159.577 50.7348 159.624 50.8413 159.672L51.6382 160.033C51.8037 160.109 51.9691 160.184 52.1342 160.26C52.2405 160.309 52.3476 160.358 52.4531 160.406C52.4689 160.412 52.485 160.417 52.5014 160.42C52.5208 160.444 52.4921 160.445 52.4834 160.451C52.3179 160.55 52.1517 160.647 51.9858 160.745C51.5098 161.027 51.0338 161.309 50.558 161.59C50.546 161.597 50.533 161.602 50.5204 161.608C50.5204 160.934 50.5204 160.259 50.5204 159.584C50.5206 159.566 50.5211 159.547 50.5213 159.529Z" fill="#131313"/>
<path d="M50.5136 161.991L51.76 161.257C51.9979 161.116 52.2358 160.976 52.4735 160.835L52.495 160.823C52.4971 160.843 52.4837 160.853 52.4756 160.864C51.9324 161.63 51.3892 162.395 50.8461 163.161C50.7432 163.306 50.6406 163.452 50.5368 163.596C50.5314 163.603 50.5231 163.639 50.5064 163.601C50.5196 163.59 50.5137 163.575 50.5137 163.562C50.5139 163.038 50.5138 162.515 50.5136 161.991Z" fill="#2F3030"/>
<path d="M50.5134 161.992C50.5134 162.515 50.5134 163.038 50.5134 163.561C50.5134 163.575 50.5193 163.59 50.5061 163.6C50.4783 163.583 50.4663 163.554 50.4479 163.529C49.818 162.642 49.1885 161.754 48.5594 160.867C48.5514 160.856 48.544 160.844 48.5359 160.831C48.5522 160.822 48.5609 160.835 48.5704 160.84C49.2074 161.217 49.8442 161.593 50.4809 161.97C50.4927 161.977 50.5028 161.985 50.5134 161.992Z" fill="#828384"/>
<path d="M50.5182 157.136L50.5136 157.129C50.5221 157.123 50.521 157.131 50.5223 157.135L50.5182 157.136Z" fill="#393939"/>
<path d="M62.2858 160.445H64.868V161.055H62.2858V160.445ZM62.3503 162.676H65.2768V163.3H61.633V158.279H65.1764V158.903H62.3503V162.676ZM67.4353 163.3V158.903H65.7138V158.279H69.8668V158.903H68.1454V163.3H67.4353ZM74.2488 158.279H74.9661V163.3H74.2488V158.279ZM71.3653 163.3H70.6481V158.279H71.3653V163.3ZM74.3134 161.062H71.2936V160.438H74.3134V161.062Z" fill="white"/>
<g clip-path="url(#clip6_631_1885)">
<path fill-rule="evenodd" clip-rule="evenodd" d="M81.2444 159.614C81.3944 159.464 81.6377 159.464 81.7878 159.614L83.0531 160.88L84.3185 159.614C84.4685 159.464 84.7118 159.464 84.8618 159.614C85.0119 159.765 85.0119 160.008 84.8618 160.158L83.3248 161.695C83.1748 161.845 82.9315 161.845 82.7814 161.695L81.2444 160.158C81.0943 160.008 81.0943 159.765 81.2444 159.614Z" fill="white"/>
</g>
</g>
<g filter="url(#filter1_dii_631_1885)">
<rect x="39.5322" y="69.6465" width="60.6683" height="20.0556" rx="10.0278" fill="#1A1A1A"/>
<g clip-path="url(#clip7_631_1885)">
<path d="M55.4198 81.0186C54.6764 84.0012 51.6555 85.8225 48.6673 85.0787C45.6847 84.333 43.8663 81.3121 44.6097 78.3295C45.3531 75.3468 48.3722 73.5255 51.353 74.2694C54.343 75.0041 56.1613 78.0341 55.4198 81.0186Z" fill="#009393"/>
<path fill-rule="evenodd" clip-rule="evenodd" d="M47.9659 77.335H52.1374C52.237 77.335 52.3289 77.3865 52.3786 77.4702L53.5939 79.5189C53.6569 79.6251 53.6382 79.7592 53.5483 79.8454L50.2031 83.0513C50.0947 83.1551 49.9204 83.1551 49.812 83.0513L46.4713 79.8497C46.3794 79.7615 46.3621 79.6235 46.4298 79.5166L47.7289 77.4636C47.7795 77.3837 47.8692 77.335 47.9659 77.335ZM51.5988 78.2496V78.8244H50.4105V79.223C51.2451 79.2656 51.8713 79.4405 51.8759 79.6502L51.8759 80.0872C51.8712 80.2969 51.2451 80.4718 50.4105 80.5144V81.4925H49.6215V80.5144C48.7869 80.4718 48.1608 80.2969 48.1561 80.0872L48.1562 79.6502C48.1608 79.4405 48.7869 79.2656 49.6215 79.223V78.8244H48.4332V78.2496H51.5988ZM50.016 80.2141C50.9067 80.2141 51.6511 80.0662 51.8333 79.8687C51.6788 79.7012 51.12 79.5694 50.4105 79.5332V79.9504C50.2834 79.9569 50.1514 79.9604 50.016 79.9604C49.8806 79.9604 49.7487 79.9569 49.6215 79.9504V79.5332C48.9121 79.5694 48.3533 79.7012 48.1988 79.8687C48.381 80.0662 49.1254 80.2141 50.016 80.2141Z" fill="white"/>
</g>
<path d="M63.2102 82.6331C62.5503 82.6331 62.0315 82.4442 61.6537 82.0664C61.2759 81.6886 61.0871 81.1363 61.0871 80.4095V77.5547H61.8043V80.3808C61.8043 80.9403 61.9263 81.3491 62.1702 81.6074C62.4188 81.8656 62.7679 81.9947 63.2174 81.9947C63.6717 81.9947 64.0207 81.8656 64.2646 81.6074C64.5133 81.3491 64.6376 80.9403 64.6376 80.3808V77.5547H65.3334V80.4095C65.3334 81.1363 65.1445 81.6886 64.7667 82.0664C64.3937 82.4442 63.8749 82.6331 63.2102 82.6331ZM68.2671 82.6331C67.8846 82.6331 67.5188 82.5757 67.1697 82.4609C66.8206 82.3414 66.5457 82.1884 66.3448 82.0019L66.6102 81.4424C66.8015 81.6097 67.0454 81.7484 67.3419 81.8584C67.6383 81.9684 67.9468 82.0234 68.2671 82.0234C68.5588 82.0234 68.7955 81.9899 68.9772 81.923C69.159 81.856 69.2929 81.7652 69.3789 81.6504C69.465 81.5308 69.508 81.397 69.508 81.2487C69.508 81.0766 69.4507 80.9379 69.3359 80.8327C69.2259 80.7275 69.0801 80.6438 68.8983 80.5816C68.7214 80.5147 68.5254 80.4573 68.3102 80.4095C68.095 80.3617 67.8774 80.3067 67.6575 80.2445C67.4423 80.1776 67.2438 80.0939 67.0621 79.9935C66.8852 79.8931 66.7417 79.7592 66.6317 79.5918C66.5218 79.4197 66.4668 79.1997 66.4668 78.9319C66.4668 78.6737 66.5337 78.437 66.6676 78.2218C66.8063 78.0018 67.0167 77.8273 67.2988 77.6982C67.5857 77.5643 67.9491 77.4973 68.3891 77.4973C68.6808 77.4973 68.9701 77.5356 69.257 77.6121C69.5439 77.6886 69.7926 77.7986 70.003 77.9421L69.7663 78.5159C69.5511 78.3724 69.3239 78.2696 69.0848 78.2075C68.8457 78.1405 68.6138 78.107 68.3891 78.107C68.1069 78.107 67.875 78.1429 67.6933 78.2146C67.5116 78.2864 67.3777 78.382 67.2916 78.5015C67.2103 78.6211 67.1697 78.755 67.1697 78.9032C67.1697 79.0801 67.2247 79.2212 67.3347 79.3264C67.4494 79.4316 67.5953 79.5153 67.7722 79.5775C67.9539 79.6396 68.1524 79.697 68.3676 79.7496C68.5827 79.7974 68.7979 79.8524 69.0131 79.9146C69.2331 79.9767 69.4315 80.058 69.6085 80.1585C69.7902 80.2589 69.936 80.3928 70.046 80.5601C70.156 80.7275 70.211 80.9427 70.211 81.2057C70.211 81.4591 70.1416 81.6958 70.003 81.9158C69.8643 82.131 69.6491 82.3055 69.3574 82.4394C69.0705 82.5685 68.7071 82.6331 68.2671 82.6331ZM71.2589 82.5757V77.5547H73.3748C73.9104 77.5547 74.3814 77.6599 74.7879 77.8703C75.1991 78.0807 75.5171 78.3748 75.7419 78.7526C75.9714 79.1303 76.0862 79.5679 76.0862 80.0652C76.0862 80.5625 75.9714 81.0001 75.7419 81.3778C75.5171 81.7556 75.1991 82.0497 74.7879 82.2601C74.3814 82.4705 73.9104 82.5757 73.3748 82.5757H71.2589ZM71.9762 81.9517H73.3318C73.7478 81.9517 74.1065 81.8727 74.4077 81.7149C74.7138 81.5571 74.9505 81.3372 75.1178 81.0551C75.2852 80.7681 75.3689 80.4382 75.3689 80.0652C75.3689 79.6874 75.2852 79.3575 75.1178 79.0754C74.9505 78.7932 74.7138 78.5733 74.4077 78.4155C74.1065 78.2577 73.7478 78.1788 73.3318 78.1788H71.9762V81.9517ZM78.1118 82.5757V78.1788H76.3903V77.5547H80.5434V78.1788H78.8219V82.5757H78.1118Z" fill="white"/>
<g clip-path="url(#clip8_631_1885)">
<path fill-rule="evenodd" clip-rule="evenodd" d="M86.7405 78.8899C86.8905 78.7398 87.1338 78.7398 87.2839 78.8899L88.5492 80.1552C88.5492 80.1552 89.6645 79.0399 89.8145 78.8899C89.9646 78.7398 90.2079 78.7398 90.3579 78.8899C90.508 79.0399 90.508 79.2833 90.3579 79.4333L88.8209 80.9703C88.6709 81.1204 88.4276 81.1204 88.2775 80.9703L86.7405 79.4333C86.5904 79.2833 86.5904 79.0399 86.7405 78.8899Z" fill="white"/>
</g>
</g>
<g filter="url(#filter2_d_631_1885)">
<rect x="41.7715" y="224.135" width="214.094" height="29.5821" rx="5.02263" fill="#121212" shape-rendering="crispEdges"/>
<rect x="42.0222" y="224.386" width="213.592" height="29.0807" rx="4.77193" stroke="white" stroke-width="0.501391" shape-rendering="crispEdges"/>
<path d="M139.014 241.728C138.586 241.728 138.177 241.664 137.787 241.535C137.396 241.402 137.089 241.23 136.864 241.022L137.161 240.396C137.375 240.583 137.648 240.738 137.979 240.861C138.311 240.984 138.656 241.046 139.014 241.046C139.34 241.046 139.605 241.008 139.808 240.934C140.011 240.859 140.161 240.757 140.257 240.629C140.354 240.495 140.402 240.345 140.402 240.179C140.402 239.987 140.338 239.832 140.209 239.714C140.086 239.597 139.923 239.503 139.72 239.433C139.522 239.359 139.303 239.294 139.062 239.241C138.821 239.187 138.578 239.126 138.332 239.056C138.091 238.981 137.87 238.888 137.666 238.776C137.468 238.663 137.308 238.514 137.185 238.326C137.062 238.134 137 237.888 137 237.588C137 237.299 137.075 237.035 137.225 236.794C137.38 236.548 137.615 236.353 137.931 236.208C138.252 236.059 138.658 235.984 139.15 235.984C139.477 235.984 139.8 236.027 140.121 236.112C140.442 236.198 140.72 236.321 140.955 236.481L140.691 237.123C140.45 236.963 140.196 236.848 139.929 236.778C139.661 236.703 139.402 236.666 139.15 236.666C138.835 236.666 138.575 236.706 138.372 236.786C138.169 236.866 138.019 236.973 137.923 237.107C137.832 237.241 137.787 237.39 137.787 237.556C137.787 237.754 137.848 237.912 137.971 238.029C138.099 238.147 138.263 238.241 138.46 238.31C138.664 238.38 138.886 238.444 139.126 238.503C139.367 238.556 139.608 238.618 139.848 238.687C140.094 238.757 140.316 238.848 140.514 238.96C140.717 239.072 140.881 239.222 141.004 239.409C141.127 239.597 141.188 239.837 141.188 240.131C141.188 240.415 141.111 240.68 140.955 240.926C140.8 241.166 140.56 241.361 140.233 241.511C139.913 241.656 139.506 241.728 139.014 241.728ZM143.068 241.664L141.488 237.412H142.218L143.621 241.262H143.276L144.737 237.412H145.386L146.814 241.262H146.477L147.913 237.412H148.603L147.015 241.664H146.277L144.937 238.15H145.162L143.806 241.664H143.068ZM151.891 241.664V240.765L151.851 240.597V239.064C151.851 238.738 151.754 238.487 151.562 238.31C151.375 238.128 151.091 238.038 150.712 238.038C150.46 238.038 150.214 238.08 149.974 238.166C149.733 238.246 149.53 238.356 149.364 238.495L149.043 237.917C149.262 237.741 149.524 237.607 149.829 237.516C150.139 237.42 150.463 237.372 150.8 237.372C151.383 237.372 151.832 237.513 152.148 237.797C152.463 238.08 152.621 238.514 152.621 239.096V241.664H151.891ZM150.495 241.712C150.179 241.712 149.901 241.658 149.661 241.551C149.425 241.444 149.244 241.297 149.115 241.11C148.987 240.918 148.923 240.701 148.923 240.46C148.923 240.23 148.976 240.022 149.083 239.835C149.195 239.647 149.375 239.498 149.621 239.385C149.872 239.273 150.209 239.217 150.631 239.217H151.979V239.77H150.663C150.278 239.77 150.019 239.835 149.885 239.963C149.752 240.091 149.685 240.246 149.685 240.428C149.685 240.637 149.768 240.805 149.933 240.934C150.099 241.057 150.329 241.118 150.623 241.118C150.912 241.118 151.164 241.054 151.377 240.926C151.597 240.797 151.754 240.61 151.851 240.364L152.003 240.893C151.902 241.145 151.722 241.345 151.466 241.495C151.209 241.64 150.885 241.712 150.495 241.712ZM156.3 241.712C155.947 241.712 155.624 241.631 155.33 241.471C155.041 241.305 154.808 241.062 154.632 240.741C154.461 240.42 154.375 240.019 154.375 239.538C154.375 239.056 154.458 238.655 154.624 238.334C154.795 238.013 155.025 237.773 155.314 237.612C155.608 237.452 155.937 237.372 156.3 237.372C156.718 237.372 157.087 237.463 157.407 237.644C157.728 237.826 157.982 238.08 158.17 238.407C158.357 238.727 158.45 239.104 158.45 239.538C158.45 239.971 158.357 240.351 158.17 240.677C157.982 241.003 157.728 241.257 157.407 241.439C157.087 241.621 156.718 241.712 156.3 241.712ZM154.046 243.22V237.412H154.784V238.559L154.736 239.546L154.816 240.532V243.22H154.046ZM156.236 241.038C156.509 241.038 156.752 240.976 156.966 240.853C157.185 240.73 157.357 240.557 157.48 240.332C157.608 240.102 157.672 239.837 157.672 239.538C157.672 239.233 157.608 238.971 157.48 238.751C157.357 238.527 157.185 238.353 156.966 238.23C156.752 238.107 156.509 238.046 156.236 238.046C155.969 238.046 155.725 238.107 155.506 238.23C155.292 238.353 155.121 238.527 154.993 238.751C154.87 238.971 154.808 239.233 154.808 239.538C154.808 239.837 154.87 240.102 154.993 240.332C155.121 240.557 155.292 240.73 155.506 240.853C155.725 240.976 155.969 241.038 156.236 241.038Z" fill="white"/>
</g>
<rect width="214.094" height="0.501391" transform="translate(41.5371 129.312)" fill="#31353C"/>
<rect width="15.7857" height="16.4841" transform="translate(140.875 120.934)" fill="#121212"/>
<rect x="141.126" y="121.185" width="15.9827" height="15.9827" rx="1.98158" stroke="white" stroke-width="0.501391"/>
<path d="M147.142 132.116C147.142 131.631 147.142 126.298 147.142 126.298M147.142 126.298L144.96 128.48M147.142 126.298L149.323 128.48" stroke="white" stroke-width="0.752086" stroke-linecap="round" stroke-linejoin="round"/>
<path d="M151.447 126.299C151.447 126.784 151.447 132.117 151.447 132.117M151.447 132.117L153.629 129.935M151.447 132.117L149.266 129.935" stroke="white" stroke-width="0.752086" stroke-linecap="round" stroke-linejoin="round"/>
<g filter="url(#filter3_dii_631_1885)">
<rect x="236.562" y="150.371" width="20.0556" height="20.0556" rx="2.3198" fill="#1A1A1A"/>
<g clip-path="url(#clip9_631_1885)">
<path d="M246.942 162.097L247.582 161.457C248.641 160.397 248.641 158.678 247.582 157.618C246.522 156.558 244.805 156.558 243.745 157.618L242.466 158.898C241.407 159.958 241.407 161.676 242.466 162.736C242.958 163.228 243.591 163.492 244.234 163.527" stroke="#656565" stroke-width="0.670464" stroke-linecap="round"/>
<path d="M246.235 158.7L245.595 159.34C244.536 160.4 244.536 162.119 245.595 163.179C246.655 164.239 248.373 164.239 249.432 163.179L250.711 161.899C251.77 160.839 251.77 159.121 250.711 158.06C250.22 157.569 249.587 157.305 248.944 157.27" stroke="#656565" stroke-width="0.670464" stroke-linecap="round"/>
</g>
</g>
<g filter="url(#filter4_dii_631_1885)">
<rect x="236.417" y="69.6465" width="20.0518" height="20.0518" rx="2.70971" fill="#1A1A1A"/>
<g clip-path="url(#clip10_631_1885)">
<path d="M246.795 81.3706L247.434 80.7309C248.494 79.6709 248.494 77.9525 247.434 76.8926C246.375 75.8327 244.658 75.8327 243.598 76.8926L242.32 78.172C241.261 79.2319 241.261 80.9504 242.32 82.0103C242.811 82.5018 243.444 82.7654 244.087 82.801" stroke="#656565" stroke-width="0.670337" stroke-linecap="round"/>
<path d="M246.088 77.9749L245.449 78.6146C244.389 79.6745 244.389 81.393 245.449 82.4529C246.508 83.5128 248.225 83.5128 249.285 82.4529L250.563 81.1735C251.622 80.1135 251.622 78.3951 250.563 77.3352C250.072 76.8437 249.439 76.5801 248.796 76.5444" stroke="#656565" stroke-width="0.670337" stroke-linecap="round"/>
</g>
</g>
<g filter="url(#filter5_dii_631_1885)">
<rect x="213.655" y="69.6465" width="20.0518" height="20.0518" rx="2.70971" fill="#1A1A1A"/>
<path d="M217.781 82.3311V78.414H218.38L220.092 81.2734H219.779L221.463 78.414H222.062L222.067 82.3311H221.379L221.373 79.494H221.519L220.086 81.8834H219.762L218.307 79.494H218.475V82.3311H217.781ZM222.571 82.3311L224.334 78.414H225.05L226.819 82.3311H226.058L224.541 78.8001H224.832L223.321 82.3311H222.571ZM223.383 81.4245L223.579 80.8537H225.694L225.89 81.4245H223.383ZM226.644 82.3311L228.295 80.0591V80.6075L226.723 78.414H227.545L228.715 80.0368L228.379 80.0423L229.537 78.414H230.327L228.765 80.5684V80.0423L230.427 82.3311H229.588L228.357 80.6075H228.687L227.473 82.3311H226.644Z" fill="#656565"/>
</g>
<g filter="url(#filter6_dii_631_1885)">
<rect x="164.88" y="69.6465" width="46.065" height="20.0518" rx="2.70971" fill="#1A1A1A"/>
<path d="M178.397 82.387C178.087 82.387 177.807 82.3087 177.557 82.152C177.311 81.9953 177.117 81.7677 176.975 81.4693C176.834 81.1671 176.763 80.8015 176.763 80.3725C176.763 79.9435 176.834 79.5798 176.975 79.2813C177.117 78.9791 177.311 78.7497 177.557 78.593C177.807 78.4363 178.087 78.358 178.397 78.358C178.71 78.358 178.99 78.4363 179.236 78.593C179.482 78.7497 179.676 78.9791 179.818 79.2813C179.964 79.5798 180.036 79.9435 180.036 80.3725C180.036 80.8015 179.964 81.1671 179.818 81.4693C179.676 81.7677 179.482 81.9953 179.236 82.152C178.99 82.3087 178.71 82.387 178.397 82.387ZM178.397 81.7547C178.58 81.7547 178.738 81.7062 178.872 81.6092C179.007 81.5085 179.111 81.3555 179.186 81.1503C179.264 80.9451 179.303 80.6859 179.303 80.3725C179.303 80.0554 179.264 79.7961 179.186 79.5947C179.111 79.3895 179.007 79.2384 178.872 79.1414C178.738 79.0407 178.58 78.9903 178.397 78.9903C178.221 78.9903 178.065 79.0407 177.927 79.1414C177.792 79.2384 177.686 79.3895 177.608 79.5947C177.533 79.7961 177.496 80.0554 177.496 80.3725C177.496 80.6859 177.533 80.9451 177.608 81.1503C177.686 81.3555 177.792 81.5085 177.927 81.6092C178.065 81.7062 178.221 81.7547 178.397 81.7547ZM180.617 81.0664V80.4844H182.156V81.0664H180.617ZM183.226 82.3311V78.6937L183.545 79.0239H182.398V78.414H183.953V82.3311H183.226ZM186.364 82.387C186.055 82.387 185.775 82.3087 185.525 82.152C185.279 81.9953 185.085 81.7677 184.943 81.4693C184.801 81.1671 184.73 80.8015 184.73 80.3725C184.73 79.9435 184.801 79.5798 184.943 79.2813C185.085 78.9791 185.279 78.7497 185.525 78.593C185.775 78.4363 186.055 78.358 186.364 78.358C186.678 78.358 186.958 78.4363 187.204 78.593C187.45 78.7497 187.644 78.9791 187.786 79.2813C187.931 79.5798 188.004 79.9435 188.004 80.3725C188.004 80.8015 187.931 81.1671 187.786 81.4693C187.644 81.7677 187.45 81.9953 187.204 82.152C186.958 82.3087 186.678 82.387 186.364 82.387ZM186.364 81.7547C186.547 81.7547 186.706 81.7062 186.84 81.6092C186.974 81.5085 187.079 81.3555 187.153 81.1503C187.232 80.9451 187.271 80.6859 187.271 80.3725C187.271 80.0554 187.232 79.7961 187.153 79.5947C187.079 79.3895 186.974 79.2384 186.84 79.1414C186.706 79.0407 186.547 78.9903 186.364 78.9903C186.189 78.9903 186.032 79.0407 185.894 79.1414C185.76 79.2384 185.654 79.3895 185.575 79.5947C185.501 79.7961 185.463 80.0554 185.463 80.3725C185.463 80.6859 185.501 80.9451 185.575 81.1503C185.654 81.3555 185.76 81.5085 185.894 81.6092C186.032 81.7062 186.189 81.7547 186.364 81.7547ZM190.13 82.387C189.82 82.387 189.54 82.3087 189.29 82.152C189.044 81.9953 188.85 81.7677 188.708 81.4693C188.566 81.1671 188.496 80.8015 188.496 80.3725C188.496 79.9435 188.566 79.5798 188.708 79.2813C188.85 78.9791 189.044 78.7497 189.29 78.593C189.54 78.4363 189.82 78.358 190.13 78.358C190.443 78.358 190.723 78.4363 190.969 78.593C191.215 78.7497 191.409 78.9791 191.551 79.2813C191.696 79.5798 191.769 79.9435 191.769 80.3725C191.769 80.8015 191.696 81.1671 191.551 81.4693C191.409 81.7677 191.215 81.9953 190.969 82.152C190.723 82.3087 190.443 82.387 190.13 82.387ZM190.13 81.7547C190.312 81.7547 190.471 81.7062 190.605 81.6092C190.739 81.5085 190.844 81.3555 190.919 81.1503C190.997 80.9451 191.036 80.6859 191.036 80.3725C191.036 80.0554 190.997 79.7961 190.919 79.5947C190.844 79.3895 190.739 79.2384 190.605 79.1414C190.471 79.0407 190.312 78.9903 190.13 78.9903C189.954 78.9903 189.798 79.0407 189.659 79.1414C189.525 79.2384 189.419 79.3895 189.341 79.5947C189.266 79.7961 189.229 80.0554 189.229 80.3725C189.229 80.6859 189.266 80.9451 189.341 81.1503C189.419 81.3555 189.525 81.5085 189.659 81.6092C189.798 81.7062 189.954 81.7547 190.13 81.7547ZM194.356 82.3311L197.03 78.414H197.579L194.904 82.3311H194.356ZM194.68 80.5236C194.497 80.5236 194.335 80.4788 194.193 80.3893C194.052 80.2998 193.942 80.1748 193.863 80.0144C193.785 79.854 193.746 79.6656 193.746 79.4492C193.746 79.2328 193.785 79.0444 193.863 78.884C193.942 78.7236 194.052 78.5986 194.193 78.5091C194.335 78.4195 194.497 78.3748 194.68 78.3748C194.87 78.3748 195.035 78.4195 195.173 78.5091C195.314 78.5986 195.424 78.7236 195.503 78.884C195.581 79.0444 195.62 79.2328 195.62 79.4492C195.62 79.6656 195.581 79.854 195.503 80.0144C195.424 80.1748 195.314 80.2998 195.173 80.3893C195.035 80.4788 194.87 80.5236 194.68 80.5236ZM194.686 80.1319C194.835 80.1319 194.951 80.0741 195.033 79.9584C195.119 79.839 195.161 79.6693 195.161 79.4492C195.161 79.2291 195.119 79.0612 195.033 78.9456C194.951 78.8262 194.835 78.7665 194.686 78.7665C194.537 78.7665 194.417 78.8262 194.328 78.9456C194.242 79.0649 194.199 79.2328 194.199 79.4492C194.199 79.6656 194.242 79.8334 194.328 79.9528C194.417 80.0722 194.537 80.1319 194.686 80.1319ZM197.249 82.3702C197.066 82.3702 196.904 82.3255 196.762 82.2359C196.62 82.1464 196.51 82.0214 196.432 81.861C196.353 81.7006 196.314 81.5122 196.314 81.2958C196.314 81.0794 196.353 80.8911 196.432 80.7306C196.51 80.5702 196.62 80.4452 196.762 80.3557C196.904 80.2662 197.066 80.2214 197.249 80.2214C197.439 80.2214 197.603 80.2662 197.741 80.3557C197.883 80.4452 197.993 80.5702 198.071 80.7306C198.15 80.8911 198.189 81.0794 198.189 81.2958C198.189 81.5122 198.15 81.7006 198.071 81.861C197.993 82.0214 197.883 82.1464 197.741 82.2359C197.603 82.3255 197.439 82.3702 197.249 82.3702ZM197.249 81.9785C197.398 81.9785 197.515 81.9188 197.601 81.7994C197.687 81.6801 197.73 81.5122 197.73 81.2958C197.73 81.0794 197.687 80.9116 197.601 80.7922C197.515 80.6728 197.398 80.6131 197.249 80.6131C197.103 80.6131 196.986 80.6728 196.896 80.7922C196.81 80.9078 196.767 81.0757 196.767 81.2958C196.767 81.5159 196.81 81.6857 196.896 81.805C196.986 81.9207 197.103 81.9785 197.249 81.9785Z" fill="#656565"/>
</g>
<path d="M64.6339 60.7213C64.1085 62.8294 61.9734 64.1167 59.8614 63.5909C57.7533 63.0639 56.4681 60.9288 56.9935 58.8207C57.519 56.7126 59.6528 55.4253 61.7596 55.9511C63.8728 56.4703 65.158 58.6119 64.6339 60.7213Z" fill="#ECEFF0"/>
<path d="M60.8581 60.7262C60.8428 60.7314 60.8341 60.7181 60.8237 60.712C60.3137 60.411 59.8044 60.1099 59.2956 59.8085C59.2906 59.806 59.2855 59.8039 59.2803 59.8022V59.7955L59.2893 59.7903C59.3021 59.7869 59.3147 59.7828 59.3271 59.7781L60.5287 59.2313C60.6358 59.1825 60.7429 59.1345 60.85 59.0861H60.8576C60.8576 59.1014 60.8576 59.1151 60.8576 59.1296C60.858 59.6618 60.8582 60.1941 60.8581 60.7262Z" fill="#343535"/>
<path d="M60.8589 59.0865H60.8512C60.8512 59.0712 60.8527 59.0559 60.8527 59.0399C60.8527 58.442 60.8527 57.8441 60.8527 57.2462C60.851 57.2308 60.852 57.2153 60.8558 57.2003H60.859C60.9219 57.2931 60.9766 57.3911 61.0345 57.487C61.4926 58.2469 61.9505 59.0067 62.4081 59.7663C62.4125 59.7738 62.416 59.7816 62.42 59.7899C62.407 59.7871 62.3943 59.7834 62.3819 59.7787C62.2979 59.7408 62.2136 59.7022 62.1304 59.6635C62.0001 59.6039 61.8697 59.5443 61.7392 59.4849L61.1108 59.2002C61.0271 59.1616 60.943 59.1241 60.8589 59.0865Z" fill="#2F3030"/>
<path d="M60.8563 57.1995C60.8525 57.2145 60.8515 57.23 60.8532 57.2454C60.8532 57.8432 60.8532 58.4411 60.8532 59.0391C60.8532 59.0544 60.8523 59.0697 60.8517 59.0857C60.7446 59.1341 60.6375 59.1821 60.5305 59.2309L59.3288 59.7776C59.3165 59.7824 59.3038 59.7865 59.291 59.7899C59.3257 59.7177 59.3709 59.6522 59.412 59.5831C59.8888 58.7905 60.366 57.9981 60.8434 57.2059C60.8466 57.2015 60.85 57.1973 60.8537 57.1934L60.8563 57.1995Z" fill="#828384"/>
<path d="M60.8589 59.0865C60.943 59.1241 61.0272 59.1616 61.1111 59.1996L61.7396 59.4843C61.8701 59.5436 62.0005 59.6032 62.1307 59.6629C62.2146 59.7013 62.299 59.7402 62.3822 59.7781C62.3946 59.7828 62.4074 59.7865 62.4203 59.7893C62.4356 59.8084 62.413 59.8092 62.4061 59.8133C62.2756 59.8913 62.1445 59.9683 62.0137 60.0457C61.6383 60.2678 61.263 60.4899 60.8878 60.7119C60.8783 60.7174 60.868 60.7215 60.8581 60.7262C60.8581 60.1942 60.8581 59.6621 60.8581 59.13C60.8583 59.1154 60.8587 59.101 60.8589 59.0865Z" fill="#131313"/>
<path d="M60.8527 61.0285L61.8356 60.4491C62.0233 60.3384 62.2108 60.2275 62.3983 60.1166L62.4152 60.1072C62.4169 60.1225 62.4064 60.1306 62.3999 60.1395C61.9716 60.7434 61.5433 61.347 61.1149 61.9505C61.0338 62.0649 60.9529 62.1799 60.8711 62.2934C60.8668 62.2994 60.8602 62.3274 60.8471 62.2977C60.8575 62.2888 60.8529 62.2769 60.8529 62.2671C60.853 61.8541 60.8529 61.4412 60.8527 61.0285Z" fill="#2F3030"/>
<path d="M60.8526 61.0285C60.8526 61.4413 60.8526 61.8539 60.8526 62.2664C60.8526 62.277 60.8572 62.2889 60.8468 62.297C60.8249 62.2839 60.8155 62.2603 60.8009 62.2409C60.3043 61.5413 59.8078 60.8415 59.3117 60.1417C59.3054 60.1328 59.2996 60.1234 59.2932 60.1136C59.306 60.1061 59.3129 60.1163 59.3204 60.1208C59.8227 60.4173 60.3249 60.7142 60.8269 61.0112C60.8363 61.0171 60.8442 61.023 60.8526 61.0285Z" fill="#828384"/>
<path d="M60.8564 57.1995L60.8527 57.1938C60.8595 57.1895 60.8586 57.1958 60.8596 57.199L60.8564 57.1995Z" fill="#393939"/>
<defs>
<filter id="filter0_dii_631_1885" x="37.8615" y="149.256" width="58.9957" height="23.397" filterUnits="userSpaceOnUse" color-interpolation-filters="sRGB">
<feFlood flood-opacity="0" result="BackgroundImageFix"/>
<feColorMatrix in="SourceAlpha" type="matrix" values="0 0 0 0 0 0 0 0 0 0 0 0 0 0 0 0 0 0 127 0" result="hardAlpha"/>
<feOffset dy="0.556894"/>
<feGaussianBlur stdDeviation="0.835341"/>
<feComposite in2="hardAlpha" operator="out"/>
<feColorMatrix type="matrix" values="0 0 0 0 0 0 0 0 0 0 0 0 0 0 0 0 0 0 0.04 0"/>
<feBlend mode="normal" in2="BackgroundImageFix" result="effect1_dropShadow_631_1885"/>
<feBlend mode="normal" in="SourceGraphic" in2="effect1_dropShadow_631_1885" result="shape"/>
<feColorMatrix in="SourceAlpha" type="matrix" values="0 0 0 0 0 0 0 0 0 0 0 0 0 0 0 0 0 0 127 0" result="hardAlpha"/>
<feOffset dy="-0.556894"/>
<feComposite in2="hardAlpha" operator="arithmetic" k2="-1" k3="1"/>
<feColorMatrix type="matrix" values="0 0 0 0 0 0 0 0 0 0 0 0 0 0 0 0 0 0 0.06 0"/>
<feBlend mode="normal" in2="shape" result="effect2_innerShadow_631_1885"/>
<feColorMatrix in="SourceAlpha" type="matrix" values="0 0 0 0 0 0 0 0 0 0 0 0 0 0 0 0 0 0 127 0" result="hardAlpha"/>
<feMorphology radius="0.556894" operator="erode" in="SourceAlpha" result="effect3_innerShadow_631_1885"/>
<feOffset/>
<feComposite in2="hardAlpha" operator="arithmetic" k2="-1" k3="1"/>
<feColorMatrix type="matrix" values="0 0 0 0 0 0 0 0 0 0 0 0 0 0 0 0 0 0 0.06 0"/>
<feBlend mode="normal" in2="effect2_innerShadow_631_1885" result="effect3_innerShadow_631_1885"/>
</filter>
<filter id="filter1_dii_631_1885" x="37.8615" y="68.5327" width="64.0093" height="23.397" filterUnits="userSpaceOnUse" color-interpolation-filters="sRGB">
<feFlood flood-opacity="0" result="BackgroundImageFix"/>
<feColorMatrix in="SourceAlpha" type="matrix" values="0 0 0 0 0 0 0 0 0 0 0 0 0 0 0 0 0 0 127 0" result="hardAlpha"/>
<feOffset dy="0.556894"/>
<feGaussianBlur stdDeviation="0.835341"/>
<feComposite in2="hardAlpha" operator="out"/>
<feColorMatrix type="matrix" values="0 0 0 0 0.00877279 0 0 0 0 0.00877279 0 0 0 0 0.00877279 0 0 0 0.04 0"/>
<feBlend mode="normal" in2="BackgroundImageFix" result="effect1_dropShadow_631_1885"/>
<feBlend mode="normal" in="SourceGraphic" in2="effect1_dropShadow_631_1885" result="shape"/>
<feColorMatrix in="SourceAlpha" type="matrix" values="0 0 0 0 0 0 0 0 0 0 0 0 0 0 0 0 0 0 127 0" result="hardAlpha"/>
<feOffset dy="-0.556894"/>
<feComposite in2="hardAlpha" operator="arithmetic" k2="-1" k3="1"/>
<feColorMatrix type="matrix" values="0 0 0 0 0 0 0 0 0 0 0 0 0 0 0 0 0 0 0.06 0"/>
<feBlend mode="normal" in2="shape" result="effect2_innerShadow_631_1885"/>
<feColorMatrix in="SourceAlpha" type="matrix" values="0 0 0 0 0 0 0 0 0 0 0 0 0 0 0 0 0 0 127 0" result="hardAlpha"/>
<feMorphology radius="0.556894" operator="erode" in="SourceAlpha" result="effect3_innerShadow_631_1885"/>
<feOffset/>
<feComposite in2="hardAlpha" operator="arithmetic" k2="-1" k3="1"/>
<feColorMatrix type="matrix" values="0 0 0 0 0 0 0 0 0 0 0 0 0 0 0 0 0 0 0.06 0"/>
<feBlend mode="normal" in2="effect2_innerShadow_631_1885" result="effect3_innerShadow_631_1885"/>
</filter>
<filter id="filter2_d_631_1885" x="40.7412" y="223.62" width="216.154" height="31.6425" filterUnits="userSpaceOnUse" color-interpolation-filters="sRGB">
<feFlood flood-opacity="0" result="BackgroundImageFix"/>
<feColorMatrix in="SourceAlpha" type="matrix" values="0 0 0 0 0 0 0 0 0 0 0 0 0 0 0 0 0 0 127 0" result="hardAlpha"/>
<feOffset dy="0.515127"/>
<feGaussianBlur stdDeviation="0.515127"/>
<feComposite in2="hardAlpha" operator="out"/>
<feColorMatrix type="matrix" values="0 0 0 0 0 0 0 0 0 0 0 0 0 0 0 0 0 0 0.2 0"/>
<feBlend mode="normal" in2="BackgroundImageFix" result="effect1_dropShadow_631_1885"/>
<feBlend mode="normal" in="SourceGraphic" in2="effect1_dropShadow_631_1885" result="shape"/>
</filter>
<filter id="filter3_dii_631_1885" x="234.897" y="149.26" width="23.3867" height="23.3867" filterUnits="userSpaceOnUse" color-interpolation-filters="sRGB">
<feFlood flood-opacity="0" result="BackgroundImageFix"/>
<feColorMatrix in="SourceAlpha" type="matrix" values="0 0 0 0 0 0 0 0 0 0 0 0 0 0 0 0 0 0 127 0" result="hardAlpha"/>
<feOffset dy="0.555167"/>
<feGaussianBlur stdDeviation="0.83275"/>
<feComposite in2="hardAlpha" operator="out"/>
<feColorMatrix type="matrix" values="0 0 0 0 0 0 0 0 0 0 0 0 0 0 0 0 0 0 0.04 0"/>
<feBlend mode="normal" in2="BackgroundImageFix" result="effect1_dropShadow_631_1885"/>
<feBlend mode="normal" in="SourceGraphic" in2="effect1_dropShadow_631_1885" result="shape"/>
<feColorMatrix in="SourceAlpha" type="matrix" values="0 0 0 0 0 0 0 0 0 0 0 0 0 0 0 0 0 0 127 0" result="hardAlpha"/>
<feOffset dy="-0.555167"/>
<feComposite in2="hardAlpha" operator="arithmetic" k2="-1" k3="1"/>
<feColorMatrix type="matrix" values="0 0 0 0 0 0 0 0 0 0 0 0 0 0 0 0 0 0 0.06 0"/>
<feBlend mode="normal" in2="shape" result="effect2_innerShadow_631_1885"/>
<feColorMatrix in="SourceAlpha" type="matrix" values="0 0 0 0 0 0 0 0 0 0 0 0 0 0 0 0 0 0 127 0" result="hardAlpha"/>
<feMorphology radius="0.555167" operator="erode" in="SourceAlpha" result="effect3_innerShadow_631_1885"/>
<feOffset/>
<feComposite in2="hardAlpha" operator="arithmetic" k2="-1" k3="1"/>
<feColorMatrix type="matrix" values="0 0 0 0 0 0 0 0 0 0 0 0 0 0 0 0 0 0 0.06 0"/>
<feBlend mode="normal" in2="effect2_innerShadow_631_1885" result="effect3_innerShadow_631_1885"/>
</filter>
<filter id="filter4_dii_631_1885" x="234.752" y="68.5364" width="23.3821" height="23.3821" filterUnits="userSpaceOnUse" color-interpolation-filters="sRGB">
<feFlood flood-opacity="0" result="BackgroundImageFix"/>
<feColorMatrix in="SourceAlpha" type="matrix" values="0 0 0 0 0 0 0 0 0 0 0 0 0 0 0 0 0 0 127 0" result="hardAlpha"/>
<feOffset dy="0.555062"/>
<feGaussianBlur stdDeviation="0.832593"/>
<feComposite in2="hardAlpha" operator="out"/>
<feColorMatrix type="matrix" values="0 0 0 0 0 0 0 0 0 0 0 0 0 0 0 0 0 0 0.04 0"/>
<feBlend mode="normal" in2="BackgroundImageFix" result="effect1_dropShadow_631_1885"/>
<feBlend mode="normal" in="SourceGraphic" in2="effect1_dropShadow_631_1885" result="shape"/>
<feColorMatrix in="SourceAlpha" type="matrix" values="0 0 0 0 0 0 0 0 0 0 0 0 0 0 0 0 0 0 127 0" result="hardAlpha"/>
<feOffset dy="-0.555062"/>
<feComposite in2="hardAlpha" operator="arithmetic" k2="-1" k3="1"/>
<feColorMatrix type="matrix" values="0 0 0 0 0 0 0 0 0 0 0 0 0 0 0 0 0 0 0.06 0"/>
<feBlend mode="normal" in2="shape" result="effect2_innerShadow_631_1885"/>
<feColorMatrix in="SourceAlpha" type="matrix" values="0 0 0 0 0 0 0 0 0 0 0 0 0 0 0 0 0 0 127 0" result="hardAlpha"/>
<feMorphology radius="0.555062" operator="erode" in="SourceAlpha" result="effect3_innerShadow_631_1885"/>
<feOffset/>
<feComposite in2="hardAlpha" operator="arithmetic" k2="-1" k3="1"/>
<feColorMatrix type="matrix" values="0 0 0 0 0 0 0 0 0 0 0 0 0 0 0 0 0 0 0.06 0"/>
<feBlend mode="normal" in2="effect2_innerShadow_631_1885" result="effect3_innerShadow_631_1885"/>
</filter>
<filter id="filter5_dii_631_1885" x="211.99" y="68.5364" width="23.3821" height="23.3821" filterUnits="userSpaceOnUse" color-interpolation-filters="sRGB">
<feFlood flood-opacity="0" result="BackgroundImageFix"/>
<feColorMatrix in="SourceAlpha" type="matrix" values="0 0 0 0 0 0 0 0 0 0 0 0 0 0 0 0 0 0 127 0" result="hardAlpha"/>
<feOffset dy="0.555062"/>
<feGaussianBlur stdDeviation="0.832593"/>
<feComposite in2="hardAlpha" operator="out"/>
<feColorMatrix type="matrix" values="0 0 0 0 0 0 0 0 0 0 0 0 0 0 0 0 0 0 0.04 0"/>
<feBlend mode="normal" in2="BackgroundImageFix" result="effect1_dropShadow_631_1885"/>
<feBlend mode="normal" in="SourceGraphic" in2="effect1_dropShadow_631_1885" result="shape"/>
<feColorMatrix in="SourceAlpha" type="matrix" values="0 0 0 0 0 0 0 0 0 0 0 0 0 0 0 0 0 0 127 0" result="hardAlpha"/>
<feOffset dy="-0.555062"/>
<feComposite in2="hardAlpha" operator="arithmetic" k2="-1" k3="1"/>
<feColorMatrix type="matrix" values="0 0 0 0 0 0 0 0 0 0 0 0 0 0 0 0 0 0 0.06 0"/>
<feBlend mode="normal" in2="shape" result="effect2_innerShadow_631_1885"/>
<feColorMatrix in="SourceAlpha" type="matrix" values="0 0 0 0 0 0 0 0 0 0 0 0 0 0 0 0 0 0 127 0" result="hardAlpha"/>
<feMorphology radius="0.555062" operator="erode" in="SourceAlpha" result="effect3_innerShadow_631_1885"/>
<feOffset/>
<feComposite in2="hardAlpha" operator="arithmetic" k2="-1" k3="1"/>
<feColorMatrix type="matrix" values="0 0 0 0 0 0 0 0 0 0 0 0 0 0 0 0 0 0 0.06 0"/>
<feBlend mode="normal" in2="effect2_innerShadow_631_1885" result="effect3_innerShadow_631_1885"/>
</filter>
<filter id="filter6_dii_631_1885" x="163.215" y="68.5364" width="49.3958" height="23.3821" filterUnits="userSpaceOnUse" color-interpolation-filters="sRGB">
<feFlood flood-opacity="0" result="BackgroundImageFix"/>
<feColorMatrix in="SourceAlpha" type="matrix" values="0 0 0 0 0 0 0 0 0 0 0 0 0 0 0 0 0 0 127 0" result="hardAlpha"/>
<feOffset dy="0.555062"/>
<feGaussianBlur stdDeviation="0.832593"/>
<feComposite in2="hardAlpha" operator="out"/>
<feColorMatrix type="matrix" values="0 0 0 0 0 0 0 0 0 0 0 0 0 0 0 0 0 0 0.04 0"/>
<feBlend mode="normal" in2="BackgroundImageFix" result="effect1_dropShadow_631_1885"/>
<feBlend mode="normal" in="SourceGraphic" in2="effect1_dropShadow_631_1885" result="shape"/>
<feColorMatrix in="SourceAlpha" type="matrix" values="0 0 0 0 0 0 0 0 0 0 0 0 0 0 0 0 0 0 127 0" result="hardAlpha"/>
<feOffset dy="-0.555062"/>
<feComposite in2="hardAlpha" operator="arithmetic" k2="-1" k3="1"/>
<feColorMatrix type="matrix" values="0 0 0 0 0 0 0 0 0 0 0 0 0 0 0 0 0 0 0.06 0"/>
<feBlend mode="normal" in2="shape" result="effect2_innerShadow_631_1885"/>
<feColorMatrix in="SourceAlpha" type="matrix" values="0 0 0 0 0 0 0 0 0 0 0 0 0 0 0 0 0 0 127 0" result="hardAlpha"/>
<feMorphology radius="0.555062" operator="erode" in="SourceAlpha" result="effect3_innerShadow_631_1885"/>
<feOffset/>
<feComposite in2="hardAlpha" operator="arithmetic" k2="-1" k3="1"/>
<feColorMatrix type="matrix" values="0 0 0 0 0 0 0 0 0 0 0 0 0 0 0 0 0 0 0.06 0"/>
<feBlend mode="normal" in2="effect2_innerShadow_631_1885" result="effect3_innerShadow_631_1885"/>
</filter>
<clipPath id="clip0_631_1885">
<rect width="8.24203" height="8.24203" fill="white" transform="translate(64.335 28.0361)"/>
</clipPath>
<clipPath id="clip1_631_1885">
<rect x="240.588" y="28.0312" width="10.0278" height="10.0278" rx="2.08913" fill="white"/>
</clipPath>
<clipPath id="clip2_631_1885">
<rect x="40.7676" y="179.957" width="146.588" height="18.5446" rx="2.1525" fill="white"/>
</clipPath>
<clipPath id="clip3_631_1885">
<rect width="137.316" height="19" fill="white" transform="translate(41.7979 179.957)"/>
</clipPath>
<clipPath id="clip4_631_1885">
<rect x="40.2666" y="98.2295" width="146.588" height="18.5446" rx="2.1525" fill="white"/>
</clipPath>
<clipPath id="clip5_631_1885">
<rect width="137.316" height="19" fill="white" transform="translate(41.2969 98.2295)"/>
</clipPath>
<clipPath id="clip6_631_1885">
<rect width="8.19748" height="8.19748" fill="white" transform="translate(78.9541 156.3)"/>
</clipPath>
<clipPath id="clip7_631_1885">
<rect width="12.5348" height="12.5348" fill="white" transform="translate(43.7432 73.4067)"/>
</clipPath>
<clipPath id="clip8_631_1885">
<rect width="8.19748" height="8.19748" fill="white" transform="translate(84.4512 75.5757)"/>
</clipPath>
<clipPath id="clip9_631_1885">
<rect width="10.7274" height="10.7274" fill="white" transform="translate(241.225 155.035)"/>
</clipPath>
<clipPath id="clip10_631_1885">
<rect width="10.7254" height="10.7254" fill="white" transform="translate(241.079 74.3101)"/>
</clipPath>
</defs>
</svg>
