<svg width="296" height="276" viewBox="0 0 296 276" fill="none" xmlns="http://www.w3.org/2000/svg">
<rect width="296" height="276" rx="5" fill="#FCFCFC"/>
<path d="M82.7224 33.7642V28.1212H83.5286V33.0628H86.5838V33.7642H82.7224ZM87.396 33.7642V29.4916H88.1699V33.7642H87.396ZM87.783 28.6693C87.6325 28.6693 87.5062 28.621 87.4041 28.5242C87.3074 28.4275 87.259 28.3093 87.259 28.1695C87.259 28.0244 87.3074 27.9035 87.4041 27.8068C87.5062 27.71 87.6325 27.6617 87.783 27.6617C87.9335 27.6617 88.0571 27.71 88.1538 27.8068C88.2559 27.8981 88.307 28.0137 88.307 28.1534C88.307 28.2985 88.2586 28.4221 88.1619 28.5242C88.0651 28.621 87.9388 28.6693 87.783 28.6693ZM94.9923 29.4513C95.3362 29.4513 95.6399 29.5185 95.9032 29.6528C96.1666 29.7872 96.3708 29.9914 96.5159 30.2655C96.6664 30.5396 96.7416 30.8862 96.7416 31.3054V33.7642H95.9677V31.3941C95.9677 30.9803 95.871 30.6686 95.6775 30.459C95.484 30.2494 95.2126 30.1446 94.8633 30.1446C94.6053 30.1446 94.3796 30.1983 94.1861 30.3058C93.9927 30.4133 93.8422 30.5718 93.7347 30.7814C93.6326 30.991 93.5815 31.2517 93.5815 31.5634V33.7642H92.8076V31.3941C92.8076 30.9803 92.7109 30.6686 92.5174 30.459C92.3293 30.2494 92.0579 30.1446 91.7032 30.1446C91.4506 30.1446 91.2276 30.1983 91.0341 30.3058C90.8406 30.4133 90.6902 30.5718 90.5827 30.7814C90.4752 30.991 90.4215 31.2517 90.4215 31.5634V33.7642H89.6476V29.4916H90.3892V30.6283L90.2683 30.3381C90.4026 30.0586 90.6096 29.8409 90.889 29.6851C91.1685 29.5292 91.4936 29.4513 91.8644 29.4513C92.2729 29.4513 92.6249 29.5534 92.9205 29.7576C93.2161 29.9565 93.4096 30.2601 93.5009 30.6686L93.1865 30.5396C93.3155 30.2118 93.5412 29.9484 93.8637 29.7496C94.1861 29.5507 94.5623 29.4513 94.9923 29.4513ZM98.1656 33.7642V29.4916H98.9395V33.7642H98.1656ZM98.5525 28.6693C98.402 28.6693 98.2758 28.621 98.1736 28.5242C98.0769 28.4275 98.0285 28.3093 98.0285 28.1695C98.0285 28.0244 98.0769 27.9035 98.1736 27.8068C98.2758 27.71 98.402 27.6617 98.5525 27.6617C98.703 27.6617 98.8266 27.71 98.9234 27.8068C99.0255 27.8981 99.0765 28.0137 99.0765 28.1534C99.0765 28.2985 99.0282 28.4221 98.9314 28.5242C98.8347 28.621 98.7084 28.6693 98.5525 28.6693ZM101.884 33.8125C101.454 33.8125 101.121 33.697 100.885 33.4659C100.648 33.2348 100.53 32.9043 100.53 32.4743V28.5565H101.304V32.4421C101.304 32.6732 101.36 32.8505 101.473 32.9741C101.591 33.0977 101.758 33.1596 101.973 33.1596C102.215 33.1596 102.416 33.0924 102.578 32.958L102.819 33.5143C102.701 33.6164 102.559 33.6916 102.392 33.74C102.231 33.7883 102.062 33.8125 101.884 33.8125ZM99.8044 30.1285V29.4916H102.529V30.1285H99.8044Z" fill="#A9A9A9"/>
<path d="M117.413 33.7642V28.8225H115.479V28.1212H120.146V28.8225H118.211V33.7642H117.413ZM120.809 33.7642V29.4916H121.551V30.6525L121.478 30.3622C121.596 30.0667 121.795 29.8409 122.075 29.6851C122.354 29.5292 122.698 29.4513 123.106 29.4513V30.201C123.074 30.1956 123.042 30.193 123.01 30.193C122.983 30.193 122.956 30.193 122.929 30.193C122.515 30.193 122.187 30.3166 121.946 30.5638C121.704 30.811 121.583 31.1684 121.583 31.6359V33.7642H120.809ZM126.398 33.7642V32.8613L126.357 32.692V31.1523C126.357 30.8244 126.26 30.5718 126.067 30.3945C125.879 30.2118 125.594 30.1204 125.213 30.1204C124.96 30.1204 124.713 30.1634 124.471 30.2494C124.229 30.33 124.025 30.4402 123.858 30.5799L123.536 29.9995C123.756 29.8221 124.019 29.6878 124.326 29.5964C124.637 29.4997 124.963 29.4513 125.301 29.4513C125.887 29.4513 126.338 29.5937 126.655 29.8786C126.973 30.1634 127.131 30.5987 127.131 31.1845V33.7642H126.398ZM124.995 33.8125C124.678 33.8125 124.398 33.7588 124.156 33.6513C123.92 33.5438 123.737 33.396 123.608 33.2079C123.479 33.0144 123.415 32.7968 123.415 32.5549C123.415 32.3239 123.469 32.1143 123.576 31.9262C123.689 31.7381 123.869 31.5876 124.116 31.4747C124.369 31.3619 124.707 31.3054 125.132 31.3054H126.486V31.8617H125.164C124.777 31.8617 124.517 31.9262 124.382 32.0551C124.248 32.1841 124.181 32.34 124.181 32.5227C124.181 32.7323 124.264 32.9016 124.431 33.0306C124.597 33.1542 124.828 33.216 125.124 33.216C125.414 33.216 125.667 33.1515 125.882 33.0225C126.102 32.8935 126.26 32.7054 126.357 32.4582L126.51 32.9903C126.408 33.2429 126.228 33.4444 125.97 33.5949C125.712 33.74 125.387 33.8125 124.995 33.8125ZM130.845 29.4513C131.194 29.4513 131.5 29.5185 131.764 29.6528C132.032 29.7872 132.242 29.9914 132.392 30.2655C132.543 30.5396 132.618 30.8862 132.618 31.3054V33.7642H131.844V31.3941C131.844 30.9803 131.742 30.6686 131.538 30.459C131.339 30.2494 131.057 30.1446 130.691 30.1446C130.417 30.1446 130.178 30.1983 129.974 30.3058C129.77 30.4133 129.611 30.5718 129.498 30.7814C129.391 30.991 129.337 31.2517 129.337 31.5634V33.7642H128.563V29.4916H129.305V30.6444L129.184 30.3381C129.324 30.0586 129.539 29.8409 129.829 29.6851C130.119 29.5292 130.458 29.4513 130.845 29.4513ZM135.276 33.8125C134.921 33.8125 134.582 33.7642 134.26 33.6674C133.943 33.5707 133.693 33.4525 133.51 33.3127L133.833 32.7001C134.015 32.8237 134.241 32.9285 134.51 33.0144C134.779 33.1004 135.053 33.1434 135.332 33.1434C135.692 33.1434 135.95 33.0924 136.106 32.9903C136.267 32.8882 136.348 32.7457 136.348 32.563C136.348 32.4287 136.3 32.3239 136.203 32.2486C136.106 32.1734 135.977 32.1169 135.816 32.0793C135.66 32.0417 135.485 32.0095 135.292 31.9826C135.098 31.9503 134.905 31.9127 134.711 31.8697C134.518 31.8214 134.341 31.7569 134.179 31.6763C134.018 31.5903 133.889 31.4747 133.792 31.3296C133.696 31.1791 133.647 30.9803 133.647 30.7331C133.647 30.4751 133.72 30.2494 133.865 30.0559C134.01 29.8624 134.214 29.7146 134.478 29.6125C134.746 29.505 135.063 29.4513 135.429 29.4513C135.708 29.4513 135.991 29.4862 136.275 29.5561C136.566 29.6206 136.802 29.7146 136.985 29.8383L136.654 30.4509C136.461 30.3219 136.259 30.2333 136.05 30.1849C135.84 30.1365 135.63 30.1123 135.421 30.1123C135.082 30.1123 134.83 30.1688 134.663 30.2816C134.496 30.3891 134.413 30.5288 134.413 30.7008C134.413 30.8459 134.462 30.9588 134.558 31.0394C134.66 31.1146 134.789 31.1738 134.945 31.2168C135.106 31.2597 135.284 31.2974 135.477 31.3296C135.671 31.3565 135.864 31.3941 136.058 31.4425C136.251 31.4855 136.426 31.5473 136.582 31.6279C136.743 31.7085 136.872 31.8214 136.969 31.9665C137.071 32.1116 137.122 32.305 137.122 32.5469C137.122 32.8049 137.047 33.0279 136.896 33.216C136.746 33.4041 136.533 33.5519 136.259 33.6594C135.985 33.7615 135.657 33.8125 135.276 33.8125ZM138.202 33.7642V29.1127C138.202 28.6935 138.323 28.3603 138.565 28.1131C138.812 27.8605 139.161 27.7342 139.613 27.7342C139.779 27.7342 139.938 27.7557 140.088 27.7987C140.244 27.8363 140.376 27.8981 140.483 27.9841L140.249 28.5726C140.169 28.5081 140.077 28.4597 139.975 28.4275C139.873 28.3899 139.766 28.3711 139.653 28.3711C139.427 28.3711 139.255 28.4356 139.137 28.5645C139.019 28.6882 138.96 28.8736 138.96 29.1208V29.6931L138.976 30.0478V33.7642H138.202ZM137.476 30.1285V29.4916H140.201V30.1285H137.476ZM142.77 33.8125C142.314 33.8125 141.911 33.7185 141.561 33.5304C141.217 33.3423 140.949 33.0843 140.755 32.7565C140.567 32.4287 140.473 32.0525 140.473 31.6279C140.473 31.2033 140.564 30.8271 140.747 30.4993C140.935 30.1715 141.19 29.9162 141.513 29.7335C141.841 29.5454 142.209 29.4513 142.617 29.4513C143.031 29.4513 143.397 29.5427 143.714 29.7254C144.031 29.9081 144.278 30.1661 144.455 30.4993C144.638 30.8271 144.729 31.2114 144.729 31.6521C144.729 31.6843 144.727 31.7219 144.721 31.7649C144.721 31.8079 144.719 31.8482 144.713 31.8859H141.078V31.3296H144.31L143.996 31.5231C144.001 31.249 143.945 31.0045 143.827 30.7895C143.708 30.5745 143.544 30.4079 143.335 30.2897C143.131 30.1661 142.891 30.1043 142.617 30.1043C142.349 30.1043 142.109 30.1661 141.9 30.2897C141.69 30.4079 141.526 30.5772 141.408 30.7976C141.29 31.0125 141.231 31.2597 141.231 31.5392V31.6682C141.231 31.953 141.295 32.2083 141.424 32.434C141.559 32.6544 141.744 32.8263 141.98 32.95C142.217 33.0736 142.488 33.1354 142.795 33.1354C143.047 33.1354 143.276 33.0924 143.48 33.0064C143.689 32.9204 143.872 32.7914 144.028 32.6194L144.455 33.1192C144.262 33.345 144.02 33.5169 143.73 33.6352C143.445 33.7534 143.125 33.8125 142.77 33.8125ZM145.804 33.7642V29.4916H146.546V30.6525L146.473 30.3622C146.591 30.0667 146.79 29.8409 147.07 29.6851C147.349 29.5292 147.693 29.4513 148.102 29.4513V30.201C148.069 30.1956 148.037 30.193 148.005 30.193C147.978 30.193 147.951 30.193 147.924 30.193C147.51 30.193 147.183 30.3166 146.941 30.5638C146.699 30.811 146.578 31.1684 146.578 31.6359V33.7642H145.804Z" fill="#A9A9A9"/>
<path d="M161.541 34.0195V28.3765H164.072C164.722 28.3765 165.222 28.5082 165.571 28.7715C165.921 29.0295 166.095 29.3842 166.095 29.8357C166.095 30.142 166.026 30.4 165.886 30.6096C165.752 30.8191 165.569 30.9804 165.338 31.0932C165.107 31.2061 164.857 31.2625 164.588 31.2625L164.733 31.0207C165.056 31.0207 165.34 31.0771 165.588 31.19C165.835 31.3028 166.031 31.4694 166.176 31.6898C166.321 31.9048 166.394 32.1735 166.394 32.4959C166.394 32.9796 166.211 33.3558 165.846 33.6245C165.486 33.8879 164.948 34.0195 164.233 34.0195H161.541ZM162.347 33.3666H164.201C164.647 33.3666 164.988 33.2913 165.225 33.1408C165.461 32.9904 165.58 32.7539 165.58 32.4314C165.58 32.1036 165.461 31.8644 165.225 31.714C164.988 31.5635 164.647 31.4882 164.201 31.4882H162.274V30.8353H164C164.408 30.8353 164.725 30.76 164.951 30.6096C165.176 30.4591 165.289 30.2334 165.289 29.9324C165.289 29.6314 165.176 29.4057 164.951 29.2552C164.725 29.1048 164.408 29.0295 164 29.0295H162.347V33.3666ZM167.529 34.0195V29.747H168.271V30.9078L168.198 30.6176C168.316 30.322 168.515 30.0963 168.795 29.9405C169.074 29.7846 169.418 29.7067 169.827 29.7067V30.4564C169.794 30.451 169.762 30.4483 169.73 30.4483C169.703 30.4483 169.676 30.4483 169.649 30.4483C169.235 30.4483 168.908 30.5719 168.666 30.8191C168.424 31.0664 168.303 31.4238 168.303 31.8913V34.0195H167.529ZM170.78 34.0195V29.747H171.554V34.0195H170.78ZM171.167 28.9247C171.017 28.9247 170.891 28.8763 170.788 28.7796C170.692 28.6829 170.643 28.5646 170.643 28.4249C170.643 28.2798 170.692 28.1589 170.788 28.0621C170.891 27.9654 171.017 27.917 171.167 27.917C171.318 27.917 171.441 27.9654 171.538 28.0621C171.64 28.1535 171.691 28.2691 171.691 28.4088C171.691 28.5539 171.643 28.6775 171.546 28.7796C171.45 28.8763 171.323 28.9247 171.167 28.9247ZM174.797 34.0679C174.384 34.0679 174.013 33.9765 173.685 33.7938C173.362 33.6111 173.107 33.3558 172.919 33.028C172.731 32.7001 172.637 32.3186 172.637 31.8833C172.637 31.4479 172.731 31.0691 172.919 30.7466C173.107 30.4188 173.362 30.1635 173.685 29.9808C174.013 29.798 174.384 29.7067 174.797 29.7067C175.157 29.7067 175.483 29.7873 175.773 29.9485C176.063 30.1097 176.294 30.3516 176.466 30.674C176.643 30.9965 176.732 31.3996 176.732 31.8833C176.732 32.3669 176.646 32.77 176.474 33.0925C176.308 33.4149 176.079 33.6595 175.789 33.8261C175.499 33.9873 175.168 34.0679 174.797 34.0679ZM174.862 33.3907C175.131 33.3907 175.372 33.3289 175.587 33.2053C175.808 33.0817 175.98 32.9071 176.103 32.6813C176.232 32.4502 176.297 32.1842 176.297 31.8833C176.297 31.5769 176.232 31.3136 176.103 31.0932C175.98 30.8675 175.808 30.6929 175.587 30.5692C175.372 30.4456 175.131 30.3838 174.862 30.3838C174.588 30.3838 174.343 30.4456 174.128 30.5692C173.913 30.6929 173.741 30.8675 173.612 31.0932C173.483 31.3136 173.419 31.5769 173.419 31.8833C173.419 32.1842 173.483 32.4502 173.612 32.6813C173.741 32.9071 173.913 33.0817 174.128 33.2053C174.343 33.3289 174.588 33.3907 174.862 33.3907ZM176.321 34.0195V32.8667L176.369 31.8752L176.289 30.8836V28.038H177.063V34.0195H176.321ZM180.397 35.6318C180.005 35.6318 179.623 35.5754 179.252 35.4625C178.887 35.355 178.589 35.1992 178.358 34.995L178.728 34.3984C178.927 34.5704 179.172 34.7048 179.462 34.8015C179.752 34.9036 180.056 34.9547 180.373 34.9547C180.878 34.9547 181.249 34.8364 181.485 34.6C181.722 34.3635 181.84 34.0034 181.84 33.5197V32.6168L181.921 31.7704L181.88 30.9159V29.747H182.614V33.4391C182.614 34.1915 182.426 34.7451 182.05 35.0998C181.674 35.4545 181.123 35.6318 180.397 35.6318ZM180.3 33.8422C179.887 33.8422 179.516 33.7562 179.188 33.5842C178.866 33.4069 178.608 33.1623 178.414 32.8506C178.226 32.5389 178.132 32.1788 178.132 31.7704C178.132 31.3566 178.226 30.9965 178.414 30.6902C178.608 30.3785 178.866 30.1366 179.188 29.9646C179.516 29.7927 179.887 29.7067 180.3 29.7067C180.666 29.7067 180.999 29.7819 181.3 29.9324C181.601 30.0775 181.84 30.3032 182.018 30.6096C182.2 30.9159 182.292 31.3028 182.292 31.7704C182.292 32.2326 182.2 32.6168 182.018 32.9232C181.84 33.2295 181.601 33.4606 181.3 33.6165C180.999 33.7669 180.666 33.8422 180.3 33.8422ZM180.389 33.165C180.674 33.165 180.927 33.1059 181.147 32.9877C181.367 32.8694 181.539 32.7055 181.663 32.4959C181.792 32.2863 181.856 32.0445 181.856 31.7704C181.856 31.4963 181.792 31.2545 181.663 31.0449C181.539 30.8353 181.367 30.674 181.147 30.5612C180.927 30.4429 180.674 30.3838 180.389 30.3838C180.104 30.3838 179.849 30.4429 179.623 30.5612C179.403 30.674 179.228 30.8353 179.099 31.0449C178.976 31.2545 178.914 31.4963 178.914 31.7704C178.914 32.0445 178.976 32.2863 179.099 32.4959C179.228 32.7055 179.403 32.8694 179.623 32.9877C179.849 33.1059 180.104 33.165 180.389 33.165ZM185.995 34.0679C185.538 34.0679 185.135 33.9738 184.786 33.7858C184.442 33.5977 184.173 33.3397 183.98 33.0119C183.792 32.684 183.698 32.3078 183.698 31.8833C183.698 31.4587 183.789 31.0825 183.972 30.7547C184.16 30.4268 184.415 30.1715 184.738 29.9888C185.066 29.8007 185.434 29.7067 185.842 29.7067C186.256 29.7067 186.621 29.798 186.938 29.9808C187.256 30.1635 187.503 30.4215 187.68 30.7547C187.863 31.0825 187.954 31.4667 187.954 31.9074C187.954 31.9397 187.952 31.9773 187.946 32.0203C187.946 32.0633 187.943 32.1036 187.938 32.1412H184.302V31.585H187.535L187.221 31.7785C187.226 31.5044 187.17 31.2598 187.051 31.0449C186.933 30.8299 186.769 30.6633 186.56 30.5451C186.355 30.4215 186.116 30.3596 185.842 30.3596C185.573 30.3596 185.334 30.4215 185.125 30.5451C184.915 30.6633 184.751 30.8326 184.633 31.0529C184.515 31.2679 184.456 31.5151 184.456 31.7946V31.9236C184.456 32.2084 184.52 32.4637 184.649 32.6894C184.783 32.9097 184.969 33.0817 185.205 33.2053C185.442 33.3289 185.713 33.3907 186.019 33.3907C186.272 33.3907 186.5 33.3477 186.705 33.2618C186.914 33.1758 187.097 33.0468 187.253 32.8748L187.68 33.3746C187.487 33.6003 187.245 33.7723 186.955 33.8905C186.67 34.0088 186.35 34.0679 185.995 34.0679Z" fill="#121212"/>
<path d="M43.5486 33.8247C43.1187 33.8247 42.7075 33.7603 42.3152 33.6313C41.9229 33.4969 41.6139 33.3249 41.3881 33.1153L41.6864 32.4866C41.9014 32.6746 42.1755 32.8305 42.5087 32.9541C42.8419 33.0777 43.1885 33.1395 43.5486 33.1395C43.8764 33.1395 44.1425 33.1019 44.3467 33.0267C44.5509 32.9514 44.7014 32.8493 44.7981 32.7203C44.8949 32.586 44.9432 32.4355 44.9432 32.2689C44.9432 32.0754 44.8787 31.9196 44.7497 31.8013C44.6261 31.6831 44.4622 31.589 44.258 31.5192C44.0592 31.4439 43.8388 31.3794 43.597 31.3257C43.3551 31.272 43.1106 31.2102 42.8634 31.1403C42.6215 31.0651 42.3985 30.971 42.1943 30.8581C41.9954 30.7453 41.8342 30.5948 41.7106 30.4067C41.587 30.2132 41.5252 29.966 41.5252 29.6651C41.5252 29.3748 41.6004 29.1088 41.7509 28.867C41.9068 28.6198 42.1432 28.4236 42.4603 28.2785C42.7828 28.128 43.1912 28.0528 43.6856 28.0528C44.0135 28.0528 44.3386 28.0958 44.6611 28.1818C44.9835 28.2677 45.263 28.3914 45.4995 28.5526L45.2334 29.1975C44.9916 29.0363 44.7363 28.9207 44.4676 28.8509C44.1989 28.7756 43.9382 28.738 43.6856 28.738C43.3686 28.738 43.1079 28.7783 42.9037 28.8589C42.6995 28.9395 42.549 29.047 42.4522 29.1814C42.3609 29.3157 42.3152 29.4662 42.3152 29.6328C42.3152 29.8317 42.377 29.9902 42.5006 30.1084C42.6296 30.2267 42.7935 30.3207 42.9924 30.3906C43.1966 30.4604 43.4196 30.5249 43.6615 30.5841C43.9033 30.6378 44.1451 30.6996 44.387 30.7695C44.6342 30.8393 44.8572 30.9307 45.0561 31.0436C45.2603 31.1564 45.4242 31.3069 45.5478 31.495C45.6714 31.6831 45.7332 31.9249 45.7332 32.2205C45.7332 32.5054 45.6553 32.7714 45.4995 33.0186C45.3436 33.2604 45.1018 33.4566 44.7739 33.6071C44.4515 33.7522 44.043 33.8247 43.5486 33.8247ZM47.6223 33.7603L46.0342 29.4877H46.7677L48.1785 33.3572H47.8319L49.299 29.4877H49.952L51.3869 33.3572H51.0484L52.4914 29.4877H53.1846L51.5885 33.7603H50.8468L49.5006 30.2294H49.7263L48.3639 33.7603H47.6223ZM56.4883 33.7603V32.8574L56.448 32.6881V31.1484C56.448 30.8205 56.3513 30.5679 56.1578 30.3906C55.9697 30.2079 55.6848 30.1165 55.3033 30.1165C55.0507 30.1165 54.8035 30.1595 54.5616 30.2455C54.3198 30.3261 54.1156 30.4363 53.949 30.576L53.6265 29.9956C53.8468 29.8182 54.1102 29.6839 54.4165 29.5925C54.7282 29.4958 55.0534 29.4474 55.3919 29.4474C55.9777 29.4474 56.4292 29.5898 56.7463 29.8747C57.0633 30.1595 57.2219 30.5948 57.2219 31.1806V33.7603H56.4883ZM55.0856 33.8086C54.7685 33.8086 54.4891 33.7549 54.2472 33.6474C54.0108 33.5399 53.828 33.3921 53.6991 33.204C53.5701 33.0105 53.5056 32.7929 53.5056 32.551C53.5056 32.3199 53.5593 32.1104 53.6668 31.9223C53.7797 31.7342 53.9597 31.5837 54.2069 31.4708C54.4595 31.358 54.7981 31.3015 55.2227 31.3015H56.577V31.8578H55.2549C54.868 31.8578 54.6073 31.9223 54.4729 32.0512C54.3386 32.1802 54.2714 32.3361 54.2714 32.5188C54.2714 32.7284 54.3547 32.8977 54.5213 33.0267C54.6879 33.1503 54.919 33.2121 55.2146 33.2121C55.5048 33.2121 55.7574 33.1476 55.9724 33.0186C56.1927 32.8896 56.3513 32.7015 56.448 32.4543L56.6012 32.9864C56.499 33.2389 56.319 33.4405 56.061 33.591C55.8031 33.7361 55.4779 33.8086 55.0856 33.8086ZM60.9193 33.8086C60.5646 33.8086 60.2395 33.728 59.9439 33.5668C59.6537 33.4002 59.4199 33.1556 59.2425 32.8332C59.0706 32.5107 58.9846 32.1077 58.9846 31.624C58.9846 31.1403 59.0679 30.7372 59.2345 30.4148C59.4064 30.0923 59.6375 29.8505 59.9278 29.6892C60.2233 29.528 60.5539 29.4474 60.9193 29.4474C61.3385 29.4474 61.7093 29.5388 62.0318 29.7215C62.3542 29.9042 62.6095 30.1595 62.7976 30.4873C62.9857 30.8098 63.0798 31.1887 63.0798 31.624C63.0798 32.0593 62.9857 32.4409 62.7976 32.7687C62.6095 33.0965 62.3542 33.3518 62.0318 33.5345C61.7093 33.7173 61.3385 33.8086 60.9193 33.8086ZM58.6541 35.3242V29.4877H59.3957V30.6405L59.3473 31.632L59.4279 32.6236V35.3242H58.6541ZM60.8548 33.1315C61.1289 33.1315 61.3734 33.0697 61.5884 32.9461C61.8088 32.8224 61.9807 32.6478 62.1043 32.4221C62.2333 32.191 62.2978 31.9249 62.2978 31.624C62.2978 31.3176 62.2333 31.0543 62.1043 30.834C61.9807 30.6082 61.8088 30.4336 61.5884 30.31C61.3734 30.1864 61.1289 30.1246 60.8548 30.1246C60.5861 30.1246 60.3416 30.1864 60.1212 30.31C59.9063 30.4336 59.7343 30.6082 59.6053 30.834C59.4817 31.0543 59.4199 31.3176 59.4199 31.624C59.4199 31.9249 59.4817 32.191 59.6053 32.4221C59.7343 32.6478 59.9063 32.8224 60.1212 32.9461C60.3416 33.0697 60.5861 33.1315 60.8548 33.1315Z" fill="#A9A9A9"/>
<g clip-path="url(#clip0_641_660)">
<path fill-rule="evenodd" clip-rule="evenodd" d="M66.0857 30.8455C66.2365 30.6947 66.481 30.6947 66.6317 30.8455L67.9031 32.1168L69.1744 30.8455C69.3252 30.6947 69.5696 30.6947 69.7204 30.8455C69.8712 30.9963 69.8712 31.2407 69.7204 31.3915L68.1761 32.9358C68.0253 33.0866 67.7808 33.0866 67.6301 32.9358L66.0857 31.3915C65.935 31.2407 65.935 30.9963 66.0857 30.8455Z" fill="#A9A9A9"/>
</g>
<rect x="234.772" y="22.0039" width="20.5567" height="20.543" rx="5.0192" fill="#83C29B"/>
<g clip-path="url(#clip1_641_660)">
<path d="M243.395 32.7067C244.087 32.7067 244.648 33.2675 244.648 33.9593C244.648 34.6511 244.087 35.2119 243.395 35.2119C242.703 35.2119 242.143 34.6511 242.143 33.9593C242.143 33.2675 242.703 32.7067 243.395 32.7067Z" stroke="#F9F9F9" stroke-width="0.62631"/>
<path d="M245.483 28.5314C244.791 28.5314 244.23 29.0922 244.23 29.784C244.23 30.4758 244.791 31.0366 245.483 31.0366C246.175 31.0366 246.735 30.4758 246.735 29.784C246.735 29.0922 246.175 28.5314 245.483 28.5314Z" stroke="#F9F9F9" stroke-width="0.62631"/>
<path d="M245.691 33.9419L248.614 33.9419" stroke="#F9F9F9" stroke-width="0.62631" stroke-linecap="round"/>
<path d="M243.187 29.7666L240.264 29.7666" stroke="#F9F9F9" stroke-width="0.62631" stroke-linecap="round"/>
<path d="M240.264 33.9419L241.099 33.9419" stroke="#F9F9F9" stroke-width="0.62631" stroke-linecap="round"/>
<path d="M248.614 29.7666L247.779 29.7666" stroke="#F9F9F9" stroke-width="0.62631" stroke-linecap="round"/>
</g>
<path d="M43.1333 62.286C42.7764 62.286 42.4351 62.2324 42.1094 62.1253C41.7837 62.0138 41.5272 61.871 41.3398 61.6971L41.5874 61.1751C41.7659 61.3312 41.9934 61.4606 42.27 61.5632C42.5466 61.6658 42.8344 61.7171 43.1333 61.7171C43.4054 61.7171 43.6263 61.6859 43.7958 61.6234C43.9653 61.561 44.0902 61.4762 44.1706 61.3691C44.2509 61.2576 44.291 61.1327 44.291 60.9944C44.291 60.8338 44.2375 60.7044 44.1304 60.6062C44.0278 60.5081 43.8917 60.43 43.7222 60.372C43.5571 60.3096 43.3742 60.256 43.1734 60.2114C42.9727 60.1668 42.7697 60.1155 42.5645 60.0575C42.3637 59.995 42.1785 59.917 42.009 59.8233C41.8439 59.7296 41.7101 59.6047 41.6075 59.4485C41.5049 59.2879 41.4536 59.0827 41.4536 58.8328C41.4536 58.5919 41.516 58.3711 41.6409 58.1703C41.7703 57.9651 41.9666 57.8023 42.2299 57.6818C42.4975 57.5569 42.8366 57.4944 43.247 57.4944C43.5192 57.4944 43.7891 57.5301 44.0568 57.6015C44.3245 57.6729 44.5565 57.7755 44.7528 57.9093L44.5319 58.4447C44.3312 58.3109 44.1192 58.2149 43.8962 58.1569C43.6731 58.0945 43.4567 58.0633 43.247 58.0633C42.9838 58.0633 42.7674 58.0967 42.5979 58.1636C42.4284 58.2306 42.3035 58.3198 42.2232 58.4313C42.1473 58.5429 42.1094 58.6678 42.1094 58.8061C42.1094 58.9711 42.1607 59.1028 42.2633 59.2009C42.3704 59.2991 42.5065 59.3771 42.6715 59.4351C42.8411 59.4931 43.0262 59.5467 43.227 59.5957C43.4277 59.6404 43.6285 59.6917 43.8293 59.7497C44.0345 59.8077 44.2196 59.8835 44.3847 59.9772C44.5542 60.0709 44.6903 60.1958 44.7929 60.3519C44.8955 60.5081 44.9468 60.7089 44.9468 60.9542C44.9468 61.1907 44.8821 61.4115 44.7528 61.6168C44.6234 61.8175 44.4226 61.9804 44.1505 62.1053C43.8828 62.2257 43.5437 62.286 43.1333 62.286ZM47.4101 62.2726C47.0309 62.2726 46.6963 62.1945 46.4063 62.0384C46.1208 61.8822 45.8977 61.6681 45.7371 61.3959C45.581 61.1238 45.5029 60.8115 45.5029 60.459C45.5029 60.1066 45.5787 59.7943 45.7304 59.5221C45.8866 59.25 46.0985 59.0381 46.3662 58.8864C46.6383 58.7302 46.9439 58.6522 47.283 58.6522C47.6265 58.6522 47.9299 58.728 48.1931 58.8797C48.4563 59.0314 48.6616 59.2455 48.8088 59.5221C48.9605 59.7943 49.0363 60.1133 49.0363 60.4791C49.0363 60.5059 49.0341 60.5371 49.0296 60.5728C49.0296 60.6085 49.0274 60.6419 49.0229 60.6732H46.0048V60.2114H48.6883L48.4273 60.372C48.4318 60.1445 48.385 59.9415 48.2868 59.763C48.1887 59.5846 48.0526 59.4463 47.8786 59.3481C47.7091 59.2455 47.5105 59.1942 47.283 59.1942C47.0599 59.1942 46.8614 59.2455 46.6874 59.3481C46.5134 59.4463 46.3773 59.5868 46.2792 59.7697C46.181 59.9482 46.132 60.1534 46.132 60.3854V60.4925C46.132 60.7289 46.1855 60.9409 46.2926 61.1282C46.4041 61.3111 46.558 61.4539 46.7543 61.5565C46.9506 61.6591 47.1759 61.7104 47.4302 61.7104C47.6399 61.7104 47.8295 61.6747 47.9991 61.6034C48.173 61.532 48.3247 61.4249 48.4541 61.2821L48.8088 61.6971C48.6482 61.8844 48.4474 62.0272 48.2065 62.1253C47.9701 62.2235 47.7046 62.2726 47.4101 62.2726ZM49.9284 62.2324V57.2669H50.5708V62.2324H49.9284ZM51.7975 62.2324V57.2669H52.4399V62.2324H51.7975Z" fill="#A9A9A9"/>
<path d="M64.8234 60.1202C64.298 62.2283 62.1628 63.5156 60.0509 62.9899C57.9428 62.4628 56.6576 60.3277 57.183 58.2196C57.7084 56.1115 59.8423 54.8242 61.9491 55.35C64.0623 55.8693 65.3475 58.0109 64.8234 60.1202Z" fill="#ECEFF0"/>
<path d="M61.0475 60.1251C61.0322 60.1303 61.0235 60.117 61.0131 60.1109C60.5032 59.81 59.9938 59.5088 59.485 59.2074C59.4801 59.2049 59.475 59.2028 59.4697 59.2012V59.1944L59.4788 59.1892C59.4916 59.1859 59.5042 59.1818 59.5165 59.177L60.7182 58.6302C60.8253 58.5814 60.9324 58.5334 61.0394 58.4851H61.0471C61.0471 58.5004 61.0471 58.514 61.0471 58.5285C61.0475 59.0608 61.0476 59.593 61.0475 60.1251Z" fill="#343535"/>
<path d="M61.0483 58.4854H61.0407C61.0407 58.4701 61.0422 58.4548 61.0422 58.4388C61.0422 57.8409 61.0422 57.2431 61.0422 56.6451C61.0404 56.6298 61.0415 56.6142 61.0452 56.5992H61.0485C61.1113 56.6921 61.1661 56.79 61.2239 56.8859C61.682 57.6458 62.1399 58.4056 62.5975 59.1653C62.602 59.1728 62.6055 59.1806 62.6095 59.1888C62.5965 59.1861 62.5838 59.1823 62.5714 59.1777C62.4874 59.1397 62.4031 59.1012 62.3199 59.0625C62.1895 59.0028 62.0591 58.9433 61.9287 58.8838L61.3003 58.5991C61.2166 58.5606 61.1324 58.5231 61.0483 58.4854Z" fill="#2F3030"/>
<path d="M61.0458 56.5984C61.042 56.6134 61.0409 56.629 61.0427 56.6443C61.0427 57.2422 61.0427 57.84 61.0427 58.438C61.0427 58.4533 61.0418 58.4686 61.0412 58.4846C60.9341 58.533 60.827 58.581 60.7199 58.6298L59.5183 59.1766C59.5059 59.1814 59.4933 59.1854 59.4805 59.1888C59.5152 59.1166 59.5603 59.0511 59.6015 58.982C60.0783 58.1895 60.5554 57.3971 61.0329 56.6049C61.0361 56.6005 61.0395 56.5963 61.0432 56.5923L61.0458 56.5984Z" fill="#828384"/>
<path d="M61.0483 58.4854C61.1324 58.5231 61.2166 58.5606 61.3006 58.5985L61.929 58.8832C62.0596 58.9426 62.19 59.0021 62.3202 59.0619C62.404 59.1003 62.4885 59.1391 62.5717 59.1771C62.5841 59.1817 62.5968 59.1855 62.6098 59.1882C62.6251 59.2074 62.6024 59.2081 62.5956 59.2123C62.4651 59.2903 62.334 59.3672 62.2032 59.4446C61.8278 59.6667 61.4525 59.8888 61.0772 60.1108C61.0678 60.1164 61.0575 60.1204 61.0475 60.1251C61.0475 59.5931 61.0476 59.0611 61.0476 58.5289C61.0477 58.5144 61.0482 58.5 61.0483 58.4854Z" fill="#131313"/>
<path d="M61.0422 60.4274L62.0251 59.8481C62.2127 59.7373 62.4003 59.6264 62.5877 59.5155L62.6047 59.5061C62.6064 59.5214 62.5958 59.5296 62.5894 59.5384C62.1611 60.1423 61.7327 60.7459 61.3044 61.3494C61.2233 61.4638 61.1424 61.5788 61.0605 61.6924C61.0562 61.6983 61.0497 61.7263 61.0365 61.6966C61.0469 61.6878 61.0423 61.6758 61.0423 61.666C61.0424 61.253 61.0424 60.8401 61.0422 60.4274Z" fill="#2F3030"/>
<path d="M61.0421 60.4275C61.0421 60.8402 61.0421 61.2528 61.0421 61.6654C61.0421 61.6759 61.0467 61.6878 61.0363 61.696C61.0144 61.6828 61.0049 61.6592 60.9904 61.6398C60.4937 60.9402 59.9973 60.2405 59.5011 59.5406C59.4949 59.5318 59.489 59.5223 59.4826 59.5125C59.4955 59.505 59.5024 59.5153 59.5099 59.5197C60.0121 59.8163 60.5143 60.1131 61.0164 60.4102C61.0257 60.416 61.0337 60.422 61.0421 60.4275Z" fill="#828384"/>
<path d="M61.0459 56.5984L61.0422 56.5928C61.0489 56.5885 61.048 56.5947 61.0491 56.598L61.0459 56.5984Z" fill="#393939"/>
<path d="M41.7681 143.741V139.056H43.8694C44.4092 139.056 44.8241 139.166 45.1141 139.384C45.4041 139.598 45.5491 139.893 45.5491 140.268C45.5491 140.522 45.4911 140.736 45.3751 140.91C45.2636 141.084 45.1119 141.218 44.9201 141.311C44.7282 141.405 44.5208 141.452 44.2977 141.452L44.4182 141.251C44.6858 141.251 44.9223 141.298 45.1275 141.392C45.3327 141.485 45.4956 141.624 45.616 141.807C45.7365 141.985 45.7967 142.208 45.7967 142.476C45.7967 142.877 45.645 143.19 45.3417 143.413C45.0428 143.631 44.5966 143.741 44.0033 143.741H41.7681ZM42.4373 143.199H43.9765C44.3468 143.199 44.6301 143.136 44.8264 143.011C45.0227 142.886 45.1208 142.69 45.1208 142.422C45.1208 142.15 45.0227 141.952 44.8264 141.827C44.6301 141.702 44.3468 141.639 43.9765 141.639H42.3771V141.097H43.8092C44.1482 141.097 44.4115 141.035 44.5988 140.91C44.7862 140.785 44.8799 140.598 44.8799 140.348C44.8799 140.098 44.7862 139.911 44.5988 139.786C44.4115 139.661 44.1482 139.598 43.8092 139.598H42.4373V143.199ZM48.2315 143.781C47.9282 143.781 47.6605 143.725 47.4285 143.614C47.201 143.502 47.0225 143.333 46.8931 143.105C46.7682 142.873 46.7058 142.583 46.7058 142.235V140.194H47.3482V142.161C47.3482 142.509 47.4307 142.77 47.5958 142.944C47.7653 143.118 48.0018 143.205 48.3052 143.205C48.5282 143.205 48.7223 143.161 48.8874 143.072C49.0524 142.978 49.1796 142.844 49.2688 142.67C49.358 142.492 49.4027 142.277 49.4027 142.028V140.194H50.0451V143.741H49.4361V142.784L49.5365 143.038C49.4205 143.275 49.2465 143.457 49.0145 143.587C48.7825 143.716 48.5215 143.781 48.2315 143.781ZM51.422 145.079C51.2525 145.079 51.0874 145.05 50.9268 144.992C50.7662 144.939 50.6279 144.858 50.5119 144.751L50.7863 144.269C50.8755 144.354 50.9737 144.419 51.0808 144.463C51.1878 144.508 51.3016 144.53 51.422 144.53C51.5782 144.53 51.7076 144.49 51.8102 144.41C51.9128 144.33 52.0087 144.187 52.0979 143.982L52.3188 143.493L52.3857 143.413L53.7777 140.194H54.4067L52.6869 144.095C52.5842 144.345 52.4682 144.542 52.3389 144.684C52.2139 144.827 52.0756 144.927 51.924 144.985C51.7723 145.048 51.605 145.079 51.422 145.079ZM52.2652 143.854L50.6458 140.194H51.315L52.6935 143.353L52.2652 143.854Z" fill="#A9A9A9"/>
<path d="M65.7579 141.888C65.2325 143.996 63.0974 145.283 60.9854 144.757C58.8774 144.23 57.5921 142.095 58.1176 139.987C58.643 137.879 60.7768 136.592 62.8836 137.118C64.9969 137.637 66.2821 139.778 65.7579 141.888Z" fill="#213147"/>
<path d="M59.4946 139.82V142.135C59.4946 142.276 59.5772 142.418 59.6959 142.489L61.7039 143.646C61.8338 143.717 61.9877 143.717 62.1176 143.646L64.1256 142.489C64.2554 142.418 64.3268 142.276 64.3268 142.135V139.82C64.3268 139.678 64.2443 139.536 64.1256 139.465L62.1166 138.308C61.9868 138.237 61.8328 138.237 61.703 138.308L59.695 139.465C59.5651 139.536 59.4946 139.678 59.4946 139.82Z" fill="#213147"/>
<path d="M62.8252 140.103C62.8494 140.056 62.9078 140.056 62.9198 140.103L63.9113 142.832L63.3446 143.163L62.5414 140.954C62.5294 140.931 62.5294 140.907 62.5414 140.883L62.8252 140.103Z" fill="#12AAFF"/>
<path d="M62.0693 142.206L62.3531 141.426C62.3763 141.379 62.4357 141.379 62.4468 141.426L63.1322 143.292L62.5655 143.623L62.0693 142.276C62.0573 142.253 62.0573 142.229 62.0693 142.206Z" fill="#12AAFF"/>
<path d="M61.9042 138.39C61.9163 138.39 61.9274 138.39 61.9395 138.402L64.1126 139.654C64.1358 139.667 64.1478 139.69 64.1478 139.725V142.229C64.1478 142.252 64.1358 142.289 64.1126 142.3L61.9395 143.552C61.9274 143.564 61.9163 143.564 61.9042 143.564C61.8922 143.564 61.881 143.564 61.869 143.552L59.6959 142.3C59.6727 142.288 59.6606 142.264 59.6606 142.229V139.725C59.6606 139.702 59.6727 139.666 59.6959 139.654L61.869 138.402C61.8801 138.39 61.8922 138.39 61.9042 138.39ZM61.9042 138.024C61.8217 138.024 61.7503 138.047 61.6798 138.083L59.5067 139.335C59.3648 139.418 59.2822 139.56 59.2822 139.725V142.229C59.2822 142.383 59.3648 142.536 59.5067 142.619L61.6798 143.871C61.7503 143.906 61.8217 143.93 61.9042 143.93C61.9868 143.93 62.0582 143.907 62.1287 143.871L64.3018 142.619C64.4437 142.536 64.5262 142.394 64.5262 142.229V139.725C64.5262 139.571 64.4437 139.418 64.3018 139.335L62.1398 138.083C62.0693 138.048 61.9979 138.024 61.9154 138.024H61.9042Z" fill="#9DCCED"/>
<path d="M60.475 143.162L60.6753 142.619L61.0769 142.95L60.6994 143.304L60.475 143.162Z" fill="#213147"/>
<path d="M62.1278 139.548H62.6833L62.6713 139.537C62.7065 139.537 62.7306 139.572 62.7186 139.607L61.2541 143.623L60.6874 143.292L62.0332 139.607C62.0452 139.571 62.0925 139.548 62.1278 139.548Z" fill="white"/>
<path d="M61.1715 139.548H61.715C61.7503 139.548 61.7744 139.583 61.7623 139.618L60.4629 143.174L59.8962 142.843L61.0769 139.607C61.089 139.571 61.1363 139.548 61.1715 139.548Z" fill="white"/>
<g clip-path="url(#clip2_641_660)">
<g clip-path="url(#clip3_641_660)">
<path d="M46.0897 194.486C45.2634 194.486 44.5596 194.261 43.9783 193.812C43.397 193.358 42.9528 192.702 42.6457 191.843C42.3386 190.98 42.185 189.938 42.185 188.717C42.185 187.503 42.3386 186.466 42.6457 185.607C42.9564 184.744 43.4025 184.086 43.9838 183.633C44.5688 183.176 45.2707 182.948 46.0897 182.948C46.9087 182.948 47.6088 183.176 48.1901 183.633C48.7751 184.086 49.2211 184.744 49.5282 185.607C49.839 186.466 49.9944 187.503 49.9944 188.717C49.9944 189.938 49.8408 190.98 49.5337 191.843C49.2266 192.702 48.7824 193.358 48.2011 193.812C47.6198 194.261 46.916 194.486 46.0897 194.486ZM46.0897 193.28C46.9087 193.28 47.5448 192.885 47.9982 192.095C48.4515 191.305 48.6782 190.179 48.6782 188.717C48.6782 187.744 48.574 186.916 48.3656 186.232C48.1609 185.549 47.8647 185.028 47.4772 184.67C47.0933 184.311 46.6308 184.132 46.0897 184.132C45.278 184.132 44.6437 184.532 44.1867 185.333C43.7297 186.13 43.5012 187.258 43.5012 188.717C43.5012 189.689 43.6036 190.516 43.8083 191.196C44.013 191.876 44.3074 192.393 44.6912 192.748C45.0788 193.102 45.5449 193.28 46.0897 193.28ZM52.6514 194.42C52.3809 194.42 52.1487 194.323 51.9549 194.13C51.7612 193.936 51.6643 193.704 51.6643 193.433C51.6643 193.163 51.7612 192.93 51.9549 192.737C52.1487 192.543 52.3809 192.446 52.6514 192.446C52.922 192.446 53.1541 192.543 53.3479 192.737C53.5417 192.93 53.6386 193.163 53.6386 193.433C53.6386 193.612 53.5929 193.777 53.5015 193.927C53.4137 194.077 53.2949 194.197 53.145 194.289C52.9988 194.376 52.8342 194.42 52.6514 194.42ZM59.2104 194.486C58.3842 194.486 57.6804 194.261 57.099 193.812C56.5177 193.358 56.0735 192.702 55.7664 191.843C55.4593 190.98 55.3057 189.938 55.3057 188.717C55.3057 187.503 55.4593 186.466 55.7664 185.607C56.0772 184.744 56.5232 184.086 57.1045 183.633C57.6895 183.176 58.3915 182.948 59.2104 182.948C60.0294 182.948 60.7295 183.176 61.3108 183.633C61.8958 184.086 62.3419 184.744 62.649 185.607C62.9597 186.466 63.1151 187.503 63.1151 188.717C63.1151 189.938 62.9616 190.98 62.6544 191.843C62.3473 192.702 61.9031 193.358 61.3218 193.812C60.7405 194.261 60.0367 194.486 59.2104 194.486ZM59.2104 193.28C60.0294 193.28 60.6655 192.885 61.1189 192.095C61.5723 191.305 61.7989 190.179 61.7989 188.717C61.7989 187.744 61.6947 186.916 61.4863 186.232C61.2816 185.549 60.9855 185.028 60.5979 184.67C60.214 184.311 59.7515 184.132 59.2104 184.132C58.3988 184.132 57.7644 184.532 57.3074 185.333C56.8504 186.13 56.6219 187.258 56.6219 188.717C56.6219 189.689 56.7243 190.516 56.929 191.196C57.1338 191.876 57.4281 192.393 57.812 192.748C58.1995 193.102 58.6657 193.28 59.2104 193.28Z" fill="#121212"/>
</g>
</g>
<path d="M195.879 193.847V188.802H198.056C198.618 188.802 199.053 188.915 199.36 189.141C199.672 189.366 199.829 189.686 199.829 190.099C199.829 190.373 199.764 190.604 199.634 190.791C199.509 190.978 199.336 191.12 199.115 191.216C198.899 191.312 198.661 191.36 198.402 191.36L198.524 191.187C198.846 191.187 199.122 191.238 199.353 191.339C199.588 191.435 199.771 191.581 199.901 191.778C200.03 191.97 200.095 192.211 200.095 192.499C200.095 192.927 199.937 193.258 199.62 193.494C199.307 193.729 198.834 193.847 198.2 193.847H195.879ZM196.413 193.407H198.193C198.635 193.407 198.973 193.333 199.209 193.184C199.444 193.03 199.562 192.787 199.562 192.456C199.562 192.129 199.444 191.891 199.209 191.742C198.973 191.589 198.635 191.512 198.193 191.512H196.355V191.072H198.02C198.423 191.072 198.736 190.995 198.957 190.841C199.182 190.688 199.295 190.459 199.295 190.157C199.295 189.849 199.182 189.621 198.957 189.472C198.736 189.318 198.423 189.242 198.02 189.242H196.413V193.407ZM203.575 193.847V193.011L203.554 192.874V191.476C203.554 191.154 203.463 190.906 203.28 190.733C203.102 190.56 202.836 190.474 202.48 190.474C202.235 190.474 202.002 190.515 201.781 190.596C201.56 190.678 201.373 190.786 201.219 190.921L200.988 190.539C201.18 190.375 201.411 190.25 201.68 190.164C201.949 190.073 202.233 190.027 202.53 190.027C203.021 190.027 203.398 190.15 203.662 190.395C203.931 190.635 204.066 191.002 204.066 191.497V193.847H203.575ZM202.271 193.883C201.988 193.883 201.74 193.837 201.529 193.746C201.322 193.65 201.164 193.52 201.053 193.357C200.943 193.188 200.887 192.996 200.887 192.78C200.887 192.583 200.933 192.405 201.024 192.247C201.12 192.083 201.274 191.954 201.485 191.858C201.702 191.757 201.99 191.706 202.35 191.706H203.655V192.088H202.365C202 192.088 201.745 192.153 201.601 192.283C201.461 192.413 201.392 192.573 201.392 192.766C201.392 192.982 201.476 193.155 201.644 193.285C201.812 193.414 202.048 193.479 202.35 193.479C202.639 193.479 202.886 193.414 203.093 193.285C203.304 193.15 203.458 192.958 203.554 192.708L203.669 193.061C203.573 193.311 203.405 193.51 203.165 193.659C202.929 193.808 202.631 193.883 202.271 193.883ZM205.455 193.847V188.499H205.967V193.847H205.455ZM209.762 193.847V193.011L209.74 192.874V191.476C209.74 191.154 209.649 190.906 209.466 190.733C209.289 190.56 209.022 190.474 208.666 190.474C208.421 190.474 208.188 190.515 207.967 190.596C207.746 190.678 207.559 190.786 207.405 190.921L207.175 190.539C207.367 190.375 207.597 190.25 207.866 190.164C208.135 190.073 208.419 190.027 208.717 190.027C209.207 190.027 209.584 190.15 209.848 190.395C210.117 190.635 210.252 191.002 210.252 191.497V193.847H209.762ZM208.457 193.883C208.174 193.883 207.926 193.837 207.715 193.746C207.508 193.65 207.35 193.52 207.239 193.357C207.129 193.188 207.074 192.996 207.074 192.78C207.074 192.583 207.119 192.405 207.211 192.247C207.307 192.083 207.46 191.954 207.672 191.858C207.888 191.757 208.176 191.706 208.537 191.706H209.841V192.088H208.551C208.186 192.088 207.931 192.153 207.787 192.283C207.648 192.413 207.578 192.573 207.578 192.766C207.578 192.982 207.662 193.155 207.83 193.285C207.999 193.414 208.234 193.479 208.537 193.479C208.825 193.479 209.072 193.414 209.279 193.285C209.49 193.15 209.644 192.958 209.74 192.708L209.855 193.061C209.759 193.311 209.591 193.51 209.351 193.659C209.116 193.808 208.818 193.883 208.457 193.883ZM213.573 190.027C213.881 190.027 214.15 190.087 214.38 190.207C214.616 190.323 214.798 190.5 214.928 190.741C215.063 190.981 215.13 191.283 215.13 191.649V193.847H214.618V191.699C214.618 191.3 214.517 191 214.315 190.798C214.118 190.592 213.84 190.488 213.479 190.488C213.21 190.488 212.975 190.544 212.773 190.654C212.576 190.76 212.422 190.916 212.312 191.122C212.206 191.324 212.153 191.569 212.153 191.858V193.847H211.642V190.063H212.132V191.101L212.052 190.906C212.173 190.632 212.365 190.419 212.629 190.265C212.893 190.106 213.208 190.027 213.573 190.027ZM218.083 193.883C217.708 193.883 217.372 193.801 217.074 193.638C216.781 193.47 216.55 193.241 216.382 192.953C216.214 192.66 216.13 192.326 216.13 191.951C216.13 191.572 216.214 191.238 216.382 190.95C216.55 190.661 216.781 190.435 217.074 190.272C217.372 190.109 217.708 190.027 218.083 190.027C218.405 190.027 218.696 190.09 218.955 190.214C219.214 190.339 219.419 190.527 219.568 190.777L219.186 191.036C219.056 190.844 218.895 190.702 218.703 190.611C218.511 190.52 218.302 190.474 218.076 190.474C217.807 190.474 217.564 190.536 217.348 190.661C217.132 190.781 216.961 190.952 216.836 191.173C216.711 191.394 216.649 191.653 216.649 191.951C216.649 192.249 216.711 192.509 216.836 192.73C216.961 192.951 217.132 193.124 217.348 193.249C217.564 193.369 217.807 193.429 218.076 193.429C218.302 193.429 218.511 193.383 218.703 193.292C218.895 193.2 219.056 193.061 219.186 192.874L219.568 193.133C219.419 193.378 219.214 193.566 218.955 193.695C218.696 193.82 218.405 193.883 218.083 193.883ZM222.117 193.883C221.723 193.883 221.377 193.801 221.079 193.638C220.781 193.47 220.548 193.241 220.38 192.953C220.212 192.66 220.127 192.326 220.127 191.951C220.127 191.577 220.207 191.245 220.365 190.957C220.529 190.668 220.75 190.443 221.028 190.279C221.312 190.111 221.629 190.027 221.98 190.027C222.335 190.027 222.65 190.109 222.924 190.272C223.202 190.431 223.421 190.656 223.58 190.95C223.738 191.238 223.817 191.572 223.817 191.951C223.817 191.975 223.815 192.002 223.81 192.031C223.81 192.055 223.81 192.081 223.81 192.11H220.517V191.728H223.536L223.335 191.879C223.335 191.605 223.274 191.363 223.154 191.151C223.039 190.935 222.881 190.767 222.679 190.647C222.477 190.527 222.244 190.467 221.98 190.467C221.72 190.467 221.487 190.527 221.281 190.647C221.074 190.767 220.913 190.935 220.798 191.151C220.682 191.368 220.625 191.615 220.625 191.894V191.973C220.625 192.261 220.687 192.516 220.812 192.737C220.942 192.953 221.12 193.124 221.345 193.249C221.576 193.369 221.838 193.429 222.131 193.429C222.362 193.429 222.575 193.388 222.772 193.306C222.974 193.224 223.147 193.1 223.291 192.931L223.58 193.263C223.411 193.465 223.2 193.618 222.945 193.724C222.696 193.83 222.419 193.883 222.117 193.883ZM224.909 190.813C224.804 190.813 224.712 190.774 224.635 190.697C224.563 190.62 224.527 190.527 224.527 190.416C224.527 190.301 224.563 190.207 224.635 190.135C224.712 190.063 224.804 190.027 224.909 190.027C225.015 190.027 225.104 190.063 225.176 190.135C225.253 190.207 225.291 190.301 225.291 190.416C225.291 190.527 225.253 190.62 225.176 190.697C225.104 190.774 225.015 190.813 224.909 190.813ZM224.909 193.883C224.804 193.883 224.712 193.844 224.635 193.767C224.563 193.691 224.527 193.597 224.527 193.486C224.527 193.371 224.563 193.277 224.635 193.205C224.712 193.133 224.804 193.097 224.909 193.097C225.015 193.097 225.104 193.133 225.176 193.205C225.253 193.277 225.291 193.371 225.291 193.486C225.291 193.597 225.253 193.691 225.176 193.767C225.104 193.844 225.015 193.883 224.909 193.883ZM229.944 193.89C229.555 193.89 229.209 193.789 228.907 193.587C228.604 193.381 228.366 193.088 228.193 192.708C228.02 192.324 227.934 191.862 227.934 191.324C227.934 190.786 228.02 190.327 228.193 189.948C228.366 189.563 228.604 189.27 228.907 189.069C229.209 188.862 229.555 188.759 229.944 188.759C230.333 188.759 230.679 188.862 230.982 189.069C231.285 189.27 231.523 189.563 231.696 189.948C231.873 190.327 231.962 190.786 231.962 191.324C231.962 191.862 231.873 192.324 231.696 192.708C231.523 193.088 231.285 193.381 230.982 193.587C230.679 193.789 230.333 193.89 229.944 193.89ZM229.944 193.414C230.242 193.414 230.502 193.335 230.723 193.176C230.944 193.013 231.117 192.778 231.242 192.47C231.366 192.158 231.429 191.776 231.429 191.324C231.429 190.873 231.366 190.493 231.242 190.186C231.117 189.873 230.944 189.638 230.723 189.479C230.502 189.316 230.242 189.234 229.944 189.234C229.656 189.234 229.399 189.316 229.173 189.479C228.947 189.638 228.772 189.873 228.647 190.186C228.522 190.493 228.46 190.873 228.46 191.324C228.46 191.776 228.522 192.158 228.647 192.47C228.772 192.778 228.947 193.013 229.173 193.176C229.399 193.335 229.656 193.414 229.944 193.414ZM233.017 193.883C232.911 193.883 232.82 193.844 232.743 193.767C232.671 193.691 232.635 193.597 232.635 193.486C232.635 193.371 232.671 193.277 232.743 193.205C232.82 193.133 232.911 193.097 233.017 193.097C233.123 193.097 233.212 193.133 233.284 193.205C233.361 193.277 233.399 193.371 233.399 193.486C233.399 193.597 233.361 193.691 233.284 193.767C233.212 193.844 233.123 193.883 233.017 193.883ZM235.748 193.89C235.388 193.89 235.044 193.832 234.717 193.717C234.391 193.597 234.131 193.438 233.939 193.241L234.191 192.831C234.35 192.999 234.566 193.138 234.84 193.249C235.118 193.359 235.419 193.414 235.741 193.414C236.168 193.414 236.493 193.321 236.714 193.133C236.939 192.941 237.052 192.691 237.052 192.384C237.052 192.167 236.999 191.983 236.894 191.829C236.793 191.67 236.62 191.548 236.375 191.461C236.13 191.375 235.793 191.331 235.366 191.331H234.292L234.552 188.802H237.312V189.263H234.761L235.027 189.011L234.804 191.13L234.537 190.87H235.481C235.99 190.87 236.399 190.933 236.706 191.058C237.014 191.183 237.235 191.358 237.369 191.584C237.509 191.805 237.578 192.064 237.578 192.362C237.578 192.646 237.511 192.905 237.377 193.14C237.242 193.371 237.04 193.554 236.771 193.688C236.502 193.823 236.161 193.89 235.748 193.89ZM238.108 193.847V193.479L240.205 191.425C240.398 191.238 240.542 191.074 240.638 190.935C240.734 190.791 240.799 190.656 240.832 190.532C240.866 190.407 240.883 190.289 240.883 190.178C240.883 189.885 240.782 189.655 240.58 189.487C240.383 189.318 240.09 189.234 239.701 189.234C239.403 189.234 239.139 189.28 238.908 189.371C238.682 189.463 238.488 189.604 238.324 189.796L237.957 189.479C238.154 189.249 238.406 189.071 238.714 188.946C239.021 188.821 239.365 188.759 239.744 188.759C240.085 188.759 240.381 188.814 240.631 188.924C240.88 189.03 241.073 189.186 241.207 189.393C241.347 189.599 241.416 189.842 241.416 190.121C241.416 190.284 241.392 190.445 241.344 190.604C241.301 190.762 241.219 190.93 241.099 191.108C240.984 191.281 240.813 191.478 240.587 191.699L238.663 193.587L238.519 193.385H241.647V193.847H238.108ZM243.869 188.759C244.316 188.759 244.693 188.86 245.001 189.061C245.308 189.258 245.541 189.544 245.7 189.919C245.858 190.294 245.937 190.748 245.937 191.281C245.937 191.848 245.839 192.326 245.642 192.715C245.45 193.104 245.181 193.397 244.835 193.594C244.489 193.791 244.088 193.89 243.631 193.89C243.405 193.89 243.189 193.868 242.983 193.825C242.781 193.782 242.598 193.712 242.435 193.616L242.644 193.198C242.774 193.285 242.923 193.347 243.091 193.385C243.264 193.419 243.442 193.436 243.624 193.436C244.167 193.436 244.599 193.263 244.921 192.917C245.248 192.571 245.411 192.055 245.411 191.368C245.411 191.257 245.404 191.125 245.39 190.971C245.38 190.817 245.354 190.664 245.31 190.51L245.491 190.647C245.443 190.897 245.339 191.11 245.181 191.288C245.027 191.461 244.835 191.593 244.604 191.685C244.378 191.776 244.126 191.822 243.848 191.822C243.516 191.822 243.221 191.759 242.961 191.634C242.706 191.509 242.507 191.334 242.363 191.108C242.219 190.882 242.147 190.616 242.147 190.308C242.147 189.991 242.221 189.717 242.37 189.487C242.519 189.256 242.723 189.078 242.983 188.953C243.247 188.824 243.542 188.759 243.869 188.759ZM243.891 189.198C243.651 189.198 243.437 189.244 243.249 189.335C243.067 189.422 242.923 189.547 242.817 189.71C242.711 189.873 242.658 190.068 242.658 190.294C242.658 190.625 242.771 190.889 242.997 191.086C243.228 191.283 243.538 191.382 243.927 191.382C244.186 191.382 244.412 191.334 244.604 191.238C244.801 191.142 244.953 191.01 245.058 190.841C245.169 190.673 245.224 190.486 245.224 190.279C245.224 190.092 245.174 189.917 245.073 189.753C244.972 189.59 244.823 189.458 244.626 189.357C244.429 189.251 244.184 189.198 243.891 189.198ZM248.261 188.759C248.708 188.759 249.085 188.86 249.392 189.061C249.7 189.258 249.933 189.544 250.091 189.919C250.25 190.294 250.329 190.748 250.329 191.281C250.329 191.848 250.231 192.326 250.034 192.715C249.842 193.104 249.572 193.397 249.227 193.594C248.881 193.791 248.479 193.89 248.023 193.89C247.797 193.89 247.581 193.868 247.374 193.825C247.173 193.782 246.99 193.712 246.827 193.616L247.036 193.198C247.165 193.285 247.314 193.347 247.482 193.385C247.655 193.419 247.833 193.436 248.016 193.436C248.559 193.436 248.991 193.263 249.313 192.917C249.64 192.571 249.803 192.055 249.803 191.368C249.803 191.257 249.796 191.125 249.781 190.971C249.772 190.817 249.745 190.664 249.702 190.51L249.882 190.647C249.834 190.897 249.731 191.11 249.572 191.288C249.419 191.461 249.227 191.593 248.996 191.685C248.77 191.776 248.518 191.822 248.239 191.822C247.908 191.822 247.612 191.759 247.353 191.634C247.098 191.509 246.899 191.334 246.755 191.108C246.61 190.882 246.538 190.616 246.538 190.308C246.538 189.991 246.613 189.717 246.762 189.487C246.911 189.256 247.115 189.078 247.374 188.953C247.639 188.824 247.934 188.759 248.261 188.759ZM248.282 189.198C248.042 189.198 247.828 189.244 247.641 189.335C247.458 189.422 247.314 189.547 247.209 189.71C247.103 189.873 247.05 190.068 247.05 190.294C247.05 190.625 247.163 190.889 247.389 191.086C247.619 191.283 247.929 191.382 248.318 191.382C248.578 191.382 248.804 191.334 248.996 191.238C249.193 191.142 249.344 191.01 249.45 190.841C249.56 190.673 249.616 190.486 249.616 190.279C249.616 190.092 249.565 189.917 249.464 189.753C249.363 189.59 249.215 189.458 249.018 189.357C248.821 189.251 248.575 189.198 248.282 189.198ZM252.652 188.759C253.099 188.759 253.476 188.86 253.784 189.061C254.091 189.258 254.324 189.544 254.483 189.919C254.642 190.294 254.721 190.748 254.721 191.281C254.721 191.848 254.622 192.326 254.425 192.715C254.233 193.104 253.964 193.397 253.618 193.594C253.272 193.791 252.871 193.89 252.415 193.89C252.189 193.89 251.973 193.868 251.766 193.825C251.564 193.782 251.382 193.712 251.218 193.616L251.427 193.198C251.557 193.285 251.706 193.347 251.874 193.385C252.047 193.419 252.225 193.436 252.407 193.436C252.95 193.436 253.383 193.263 253.705 192.917C254.031 192.571 254.195 192.055 254.195 191.368C254.195 191.257 254.188 191.125 254.173 190.971C254.164 190.817 254.137 190.664 254.094 190.51L254.274 190.647C254.226 190.897 254.123 191.11 253.964 191.288C253.81 191.461 253.618 191.593 253.388 191.685C253.162 191.776 252.91 191.822 252.631 191.822C252.299 191.822 252.004 191.759 251.744 191.634C251.49 191.509 251.29 191.334 251.146 191.108C251.002 190.882 250.93 190.616 250.93 190.308C250.93 189.991 251.005 189.717 251.153 189.487C251.302 189.256 251.507 189.078 251.766 188.953C252.03 188.824 252.326 188.759 252.652 188.759ZM252.674 189.198C252.434 189.198 252.22 189.244 252.033 189.335C251.85 189.422 251.706 189.547 251.6 189.71C251.495 189.873 251.442 190.068 251.442 190.294C251.442 190.625 251.555 190.889 251.78 191.086C252.011 191.283 252.321 191.382 252.71 191.382C252.97 191.382 253.195 191.334 253.388 191.238C253.585 191.142 253.736 191.01 253.842 190.841C253.952 190.673 254.007 190.486 254.007 190.279C254.007 190.092 253.957 189.917 253.856 189.753C253.755 189.59 253.606 189.458 253.409 189.357C253.212 189.251 252.967 189.198 252.674 189.198Z" fill="#121212"/>
<g clip-path="url(#clip4_641_660)">
<g clip-path="url(#clip5_641_660)">
<path d="M45.5897 112.815C44.7634 112.815 44.0596 112.59 43.4783 112.141C42.897 111.687 42.4528 111.031 42.1457 110.172C41.8386 109.309 41.685 108.267 41.685 107.046C41.685 105.832 41.8386 104.796 42.1457 103.936C42.4564 103.074 42.9025 102.415 43.4838 101.962C44.0688 101.505 44.7707 101.277 45.5897 101.277C46.4087 101.277 47.1088 101.505 47.6901 101.962C48.2751 102.415 48.7211 103.074 49.0282 103.936C49.339 104.796 49.4944 105.832 49.4944 107.046C49.4944 108.267 49.3408 109.309 49.0337 110.172C48.7266 111.031 48.2824 111.687 47.7011 112.141C47.1198 112.59 46.416 112.815 45.5897 112.815ZM45.5897 111.609C46.4087 111.609 47.0448 111.214 47.4982 110.424C47.9515 109.634 48.1782 108.508 48.1782 107.046C48.1782 106.073 48.074 105.245 47.8656 104.562C47.6609 103.878 47.3647 103.357 46.9772 102.999C46.5933 102.64 46.1308 102.461 45.5897 102.461C44.778 102.461 44.1437 102.862 43.6867 103.662C43.2297 104.459 43.0012 105.587 43.0012 107.046C43.0012 108.018 43.1036 108.845 43.3083 109.525C43.513 110.205 43.8074 110.722 44.1912 111.077C44.5788 111.431 45.0449 111.609 45.5897 111.609ZM52.1514 112.749C51.8809 112.749 51.6487 112.652 51.4549 112.459C51.2612 112.265 51.1643 112.033 51.1643 111.762C51.1643 111.492 51.2612 111.26 51.4549 111.066C51.6487 110.872 51.8809 110.775 52.1514 110.775C52.422 110.775 52.6541 110.872 52.8479 111.066C53.0417 111.26 53.1386 111.492 53.1386 111.762C53.1386 111.941 53.0929 112.106 53.0015 112.256C52.9137 112.406 52.7949 112.526 52.645 112.618C52.4988 112.705 52.3342 112.749 52.1514 112.749ZM58.7104 112.815C57.8842 112.815 57.1804 112.59 56.599 112.141C56.0177 111.687 55.5735 111.031 55.2664 110.172C54.9593 109.309 54.8057 108.267 54.8057 107.046C54.8057 105.832 54.9593 104.796 55.2664 103.936C55.5772 103.074 56.0232 102.415 56.6045 101.962C57.1895 101.505 57.8915 101.277 58.7104 101.277C59.5294 101.277 60.2295 101.505 60.8108 101.962C61.3958 102.415 61.8419 103.074 62.149 103.936C62.4597 104.796 62.6151 105.832 62.6151 107.046C62.6151 108.267 62.4616 109.309 62.1544 110.172C61.8473 111.031 61.4031 111.687 60.8218 112.141C60.2405 112.59 59.5367 112.815 58.7104 112.815ZM58.7104 111.609C59.5294 111.609 60.1655 111.214 60.6189 110.424C61.0723 109.634 61.2989 108.508 61.2989 107.046C61.2989 106.073 61.1947 105.245 60.9863 104.562C60.7816 103.878 60.4855 103.357 60.0979 102.999C59.714 102.64 59.2515 102.461 58.7104 102.461C57.8988 102.461 57.2644 102.862 56.8074 103.662C56.3504 104.459 56.1219 105.587 56.1219 107.046C56.1219 108.018 56.2243 108.845 56.429 109.525C56.6338 110.205 56.9281 110.722 57.312 111.077C57.6995 111.431 58.1657 111.609 58.7104 111.609Z" fill="#121212"/>
</g>
</g>
<path d="M196.38 112.175V107.13H198.557C199.119 107.13 199.554 107.243 199.861 107.469C200.173 107.695 200.33 108.015 200.33 108.428C200.33 108.702 200.265 108.932 200.135 109.12C200.01 109.307 199.837 109.449 199.616 109.545C199.4 109.641 199.162 109.689 198.903 109.689L199.025 109.516C199.347 109.516 199.623 109.566 199.854 109.667C200.089 109.763 200.272 109.91 200.402 110.107C200.531 110.299 200.596 110.539 200.596 110.828C200.596 111.255 200.438 111.587 200.121 111.822C199.808 112.058 199.335 112.175 198.701 112.175H196.38ZM196.913 111.736H198.694C199.136 111.736 199.474 111.661 199.71 111.512C199.945 111.359 200.063 111.116 200.063 110.784C200.063 110.458 199.945 110.22 199.71 110.071C199.474 109.917 199.136 109.84 198.694 109.84H196.856V109.401H198.521C198.924 109.401 199.236 109.324 199.458 109.17C199.683 109.016 199.796 108.788 199.796 108.485C199.796 108.178 199.683 107.95 199.458 107.801C199.236 107.647 198.924 107.57 198.521 107.57H196.913V111.736ZM204.076 112.175V111.339L204.055 111.202V109.804C204.055 109.482 203.964 109.235 203.781 109.062C203.603 108.889 203.337 108.802 202.981 108.802C202.736 108.802 202.503 108.843 202.282 108.925C202.061 109.007 201.874 109.115 201.72 109.249L201.489 108.867C201.681 108.704 201.912 108.579 202.181 108.493C202.45 108.401 202.734 108.356 203.031 108.356C203.521 108.356 203.899 108.478 204.163 108.723C204.432 108.963 204.566 109.331 204.566 109.826V112.175H204.076ZM202.772 112.211C202.489 112.211 202.241 112.166 202.03 112.074C201.823 111.978 201.665 111.849 201.554 111.685C201.444 111.517 201.388 111.325 201.388 111.109C201.388 110.912 201.434 110.734 201.525 110.575C201.621 110.412 201.775 110.282 201.986 110.186C202.203 110.085 202.491 110.035 202.851 110.035H204.156V110.417H202.866C202.501 110.417 202.246 110.482 202.102 110.611C201.962 110.741 201.893 110.902 201.893 111.094C201.893 111.31 201.977 111.483 202.145 111.613C202.313 111.743 202.549 111.808 202.851 111.808C203.14 111.808 203.387 111.743 203.594 111.613C203.805 111.479 203.959 111.286 204.055 111.037L204.17 111.39C204.074 111.64 203.906 111.839 203.666 111.988C203.43 112.137 203.132 112.211 202.772 112.211ZM205.956 112.175V106.828H206.468V112.175H205.956ZM210.263 112.175V111.339L210.241 111.202V109.804C210.241 109.482 210.15 109.235 209.967 109.062C209.79 108.889 209.523 108.802 209.167 108.802C208.922 108.802 208.689 108.843 208.468 108.925C208.247 109.007 208.06 109.115 207.906 109.249L207.676 108.867C207.868 108.704 208.098 108.579 208.367 108.493C208.636 108.401 208.92 108.356 209.218 108.356C209.708 108.356 210.085 108.478 210.349 108.723C210.618 108.963 210.753 109.331 210.753 109.826V112.175H210.263ZM208.958 112.211C208.675 112.211 208.427 112.166 208.216 112.074C208.009 111.978 207.851 111.849 207.74 111.685C207.63 111.517 207.575 111.325 207.575 111.109C207.575 110.912 207.62 110.734 207.712 110.575C207.808 110.412 207.961 110.282 208.173 110.186C208.389 110.085 208.677 110.035 209.038 110.035H210.342V110.417H209.052C208.687 110.417 208.432 110.482 208.288 110.611C208.149 110.741 208.079 110.902 208.079 111.094C208.079 111.31 208.163 111.483 208.331 111.613C208.499 111.743 208.735 111.808 209.038 111.808C209.326 111.808 209.573 111.743 209.78 111.613C209.991 111.479 210.145 111.286 210.241 111.037L210.356 111.39C210.26 111.64 210.092 111.839 209.852 111.988C209.617 112.137 209.319 112.211 208.958 112.211ZM214.074 108.356C214.382 108.356 214.651 108.416 214.881 108.536C215.117 108.651 215.299 108.829 215.429 109.069C215.563 109.309 215.631 109.612 215.631 109.977V112.175H215.119V110.028C215.119 109.629 215.018 109.329 214.816 109.127C214.619 108.92 214.341 108.817 213.98 108.817C213.711 108.817 213.476 108.872 213.274 108.983C213.077 109.088 212.923 109.245 212.813 109.451C212.707 109.653 212.654 109.898 212.654 110.186V112.175H212.143V108.392H212.633V109.429L212.553 109.235C212.674 108.961 212.866 108.747 213.13 108.593C213.394 108.435 213.709 108.356 214.074 108.356ZM218.584 112.211C218.209 112.211 217.873 112.13 217.575 111.966C217.282 111.798 217.051 111.57 216.883 111.282C216.715 110.989 216.631 110.655 216.631 110.28C216.631 109.9 216.715 109.566 216.883 109.278C217.051 108.99 217.282 108.764 217.575 108.601C217.873 108.437 218.209 108.356 218.584 108.356C218.906 108.356 219.197 108.418 219.456 108.543C219.715 108.668 219.92 108.855 220.069 109.105L219.687 109.365C219.557 109.172 219.396 109.031 219.204 108.939C219.012 108.848 218.803 108.802 218.577 108.802C218.308 108.802 218.065 108.865 217.849 108.99C217.633 109.11 217.462 109.281 217.337 109.502C217.212 109.723 217.15 109.982 217.15 110.28C217.15 110.578 217.212 110.837 217.337 111.058C217.462 111.279 217.633 111.452 217.849 111.577C218.065 111.697 218.308 111.757 218.577 111.757C218.803 111.757 219.012 111.712 219.204 111.62C219.396 111.529 219.557 111.39 219.687 111.202L220.069 111.462C219.92 111.707 219.715 111.894 219.456 112.024C219.197 112.149 218.906 112.211 218.584 112.211ZM222.618 112.211C222.224 112.211 221.878 112.13 221.58 111.966C221.282 111.798 221.049 111.57 220.881 111.282C220.713 110.989 220.628 110.655 220.628 110.28C220.628 109.905 220.708 109.574 220.866 109.285C221.03 108.997 221.251 108.771 221.529 108.608C221.813 108.44 222.13 108.356 222.481 108.356C222.836 108.356 223.151 108.437 223.425 108.601C223.703 108.759 223.922 108.985 224.081 109.278C224.239 109.566 224.318 109.9 224.318 110.28C224.318 110.304 224.316 110.33 224.311 110.359C224.311 110.383 224.311 110.41 224.311 110.438H221.018V110.056H224.037L223.836 110.208C223.836 109.934 223.775 109.691 223.655 109.48C223.54 109.264 223.381 109.096 223.18 108.975C222.978 108.855 222.745 108.795 222.481 108.795C222.221 108.795 221.988 108.855 221.782 108.975C221.575 109.096 221.414 109.264 221.299 109.48C221.183 109.696 221.126 109.944 221.126 110.222V110.302C221.126 110.59 221.188 110.844 221.313 111.065C221.443 111.282 221.621 111.452 221.846 111.577C222.077 111.697 222.339 111.757 222.632 111.757C222.863 111.757 223.076 111.716 223.273 111.635C223.475 111.553 223.648 111.428 223.792 111.26L224.081 111.592C223.912 111.793 223.701 111.947 223.446 112.053C223.197 112.158 222.92 112.211 222.618 112.211ZM225.41 109.141C225.305 109.141 225.213 109.103 225.136 109.026C225.064 108.949 225.028 108.855 225.028 108.745C225.028 108.63 225.064 108.536 225.136 108.464C225.213 108.392 225.305 108.356 225.41 108.356C225.516 108.356 225.605 108.392 225.677 108.464C225.754 108.536 225.792 108.63 225.792 108.745C225.792 108.855 225.754 108.949 225.677 109.026C225.605 109.103 225.516 109.141 225.41 109.141ZM225.41 112.211C225.305 112.211 225.213 112.173 225.136 112.096C225.064 112.019 225.028 111.925 225.028 111.815C225.028 111.7 225.064 111.606 225.136 111.534C225.213 111.462 225.305 111.426 225.41 111.426C225.516 111.426 225.605 111.462 225.677 111.534C225.754 111.606 225.792 111.7 225.792 111.815C225.792 111.925 225.754 112.019 225.677 112.096C225.605 112.173 225.516 112.211 225.41 112.211ZM230.445 112.219C230.056 112.219 229.71 112.118 229.407 111.916C229.105 111.709 228.867 111.416 228.694 111.037C228.521 110.652 228.435 110.191 228.435 109.653C228.435 109.115 228.521 108.656 228.694 108.276C228.867 107.892 229.105 107.599 229.407 107.397C229.71 107.191 230.056 107.087 230.445 107.087C230.834 107.087 231.18 107.191 231.483 107.397C231.786 107.599 232.024 107.892 232.197 108.276C232.374 108.656 232.463 109.115 232.463 109.653C232.463 110.191 232.374 110.652 232.197 111.037C232.024 111.416 231.786 111.709 231.483 111.916C231.18 112.118 230.834 112.219 230.445 112.219ZM230.445 111.743C230.743 111.743 231.003 111.664 231.224 111.505C231.445 111.342 231.618 111.106 231.743 110.799C231.867 110.486 231.93 110.105 231.93 109.653C231.93 109.201 231.867 108.822 231.743 108.514C231.618 108.202 231.445 107.966 231.224 107.808C231.003 107.645 230.743 107.563 230.445 107.563C230.157 107.563 229.9 107.645 229.674 107.808C229.448 107.966 229.273 108.202 229.148 108.514C229.023 108.822 228.961 109.201 228.961 109.653C228.961 110.105 229.023 110.486 229.148 110.799C229.273 111.106 229.448 111.342 229.674 111.505C229.9 111.664 230.157 111.743 230.445 111.743ZM233.518 112.211C233.412 112.211 233.321 112.173 233.244 112.096C233.172 112.019 233.136 111.925 233.136 111.815C233.136 111.7 233.172 111.606 233.244 111.534C233.321 111.462 233.412 111.426 233.518 111.426C233.624 111.426 233.713 111.462 233.785 111.534C233.862 111.606 233.9 111.7 233.9 111.815C233.9 111.925 233.862 112.019 233.785 112.096C233.713 112.173 233.624 112.211 233.518 112.211ZM236.249 112.219C235.888 112.219 235.545 112.161 235.218 112.046C234.892 111.925 234.632 111.767 234.44 111.57L234.692 111.159C234.851 111.327 235.067 111.467 235.341 111.577C235.619 111.688 235.92 111.743 236.242 111.743C236.669 111.743 236.994 111.649 237.215 111.462C237.44 111.27 237.553 111.02 237.553 110.712C237.553 110.496 237.5 110.311 237.395 110.157C237.294 109.999 237.121 109.876 236.876 109.79C236.631 109.703 236.294 109.66 235.867 109.66H234.793L235.052 107.13H237.813V107.592H235.261L235.528 107.339L235.305 109.458L235.038 109.199H235.982C236.491 109.199 236.9 109.261 237.207 109.386C237.515 109.511 237.736 109.687 237.87 109.912C238.01 110.133 238.079 110.393 238.079 110.691C238.079 110.974 238.012 111.234 237.878 111.469C237.743 111.7 237.541 111.882 237.272 112.017C237.003 112.151 236.662 112.219 236.249 112.219ZM238.609 112.175V111.808L240.706 109.754C240.899 109.566 241.043 109.403 241.139 109.264C241.235 109.12 241.3 108.985 241.333 108.86C241.367 108.735 241.384 108.618 241.384 108.507C241.384 108.214 241.283 107.983 241.081 107.815C240.884 107.647 240.591 107.563 240.202 107.563C239.904 107.563 239.64 107.609 239.409 107.7C239.183 107.791 238.989 107.933 238.825 108.125L238.458 107.808C238.655 107.577 238.907 107.4 239.215 107.275C239.522 107.15 239.866 107.087 240.245 107.087C240.586 107.087 240.882 107.143 241.132 107.253C241.381 107.359 241.574 107.515 241.708 107.721C241.848 107.928 241.917 108.171 241.917 108.449C241.917 108.613 241.893 108.774 241.845 108.932C241.802 109.091 241.72 109.259 241.6 109.437C241.485 109.61 241.314 109.807 241.088 110.028L239.164 111.916L239.02 111.714H242.148V112.175H238.609ZM244.305 112.219C243.94 112.219 243.594 112.161 243.267 112.046C242.946 111.925 242.686 111.767 242.489 111.57L242.741 111.159C242.905 111.327 243.123 111.467 243.397 111.577C243.676 111.688 243.979 111.743 244.305 111.743C244.723 111.743 245.043 111.652 245.264 111.469C245.49 111.286 245.602 111.041 245.602 110.734C245.602 110.426 245.492 110.181 245.271 109.999C245.055 109.816 244.711 109.725 244.24 109.725H243.88V109.343L245.437 107.39L245.509 107.592H242.698V107.13H245.941V107.498L244.385 109.451L244.132 109.285H244.327C244.932 109.285 245.384 109.42 245.682 109.689C245.984 109.958 246.136 110.304 246.136 110.727C246.136 111.01 246.069 111.265 245.934 111.491C245.799 111.716 245.595 111.894 245.321 112.024C245.052 112.154 244.714 112.219 244.305 112.219ZM247.662 112.175L249.838 107.361L249.997 107.592H246.876L247.143 107.339V108.536H246.631V107.13H250.336V107.498L248.224 112.175H247.662ZM252.947 112.219C252.5 112.219 252.123 112.12 251.815 111.923C251.508 111.721 251.275 111.433 251.116 111.058C250.958 110.679 250.879 110.225 250.879 109.696C250.879 109.124 250.975 108.646 251.167 108.262C251.364 107.873 251.635 107.58 251.981 107.383C252.327 107.186 252.728 107.087 253.185 107.087C253.411 107.087 253.627 107.109 253.833 107.152C254.04 107.195 254.223 107.265 254.381 107.361L254.172 107.779C254.042 107.693 253.893 107.633 253.725 107.599C253.557 107.561 253.379 107.541 253.192 107.541C252.649 107.541 252.214 107.714 251.888 108.06C251.566 108.406 251.405 108.923 251.405 109.61C251.405 109.715 251.409 109.847 251.419 110.006C251.433 110.16 251.462 110.314 251.506 110.467L251.325 110.33C251.378 110.081 251.482 109.869 251.635 109.696C251.789 109.518 251.981 109.384 252.212 109.293C252.442 109.201 252.695 109.156 252.969 109.156C253.305 109.156 253.6 109.218 253.855 109.343C254.11 109.468 254.309 109.643 254.453 109.869C254.597 110.095 254.669 110.362 254.669 110.669C254.669 110.981 254.595 111.255 254.446 111.491C254.297 111.721 254.09 111.901 253.826 112.031C253.567 112.156 253.274 112.219 252.947 112.219ZM252.925 111.779C253.166 111.779 253.377 111.736 253.56 111.649C253.747 111.558 253.893 111.431 253.999 111.267C254.105 111.099 254.158 110.904 254.158 110.683C254.158 110.352 254.042 110.088 253.812 109.891C253.586 109.694 253.278 109.595 252.889 109.595C252.63 109.595 252.404 109.643 252.212 109.739C252.02 109.835 251.868 109.968 251.758 110.136C251.647 110.299 251.592 110.486 251.592 110.698C251.592 110.88 251.642 111.056 251.743 111.224C251.844 111.387 251.993 111.522 252.19 111.628C252.392 111.728 252.637 111.779 252.925 111.779Z" fill="#121212"/>
<g filter="url(#filter0_dii_641_660)">
<rect x="38.999" y="149.767" width="55.6164" height="20.0419" rx="10.021" fill="#83C29B"/>
<g clip-path="url(#clip6_641_660)">
<path d="M54.7628 160.992C54.097 163.663 51.3913 165.295 48.7149 164.628C46.0435 163.96 44.4148 161.255 45.0806 158.583C45.7464 155.912 48.4505 154.281 51.1204 154.947C53.7983 155.605 55.427 158.319 54.7628 160.992Z" fill="#ECEFF0"/>
<path d="M49.979 160.998C49.9596 161.004 49.9485 160.987 49.9353 160.98C49.2891 160.598 48.6437 160.217 47.9989 159.835C47.9926 159.832 47.9862 159.829 47.9795 159.827V159.818L47.9909 159.812C48.0072 159.807 48.0232 159.802 48.0388 159.796L49.5616 159.103C49.6973 159.042 49.833 158.981 49.9687 158.919H49.9784C49.9784 158.939 49.9784 158.956 49.9784 158.974C49.9789 159.649 49.9791 160.323 49.979 160.998Z" fill="#343535"/>
<path d="M49.9799 158.92H49.9702C49.9702 158.9 49.9722 158.881 49.9722 158.861C49.9722 158.103 49.9722 157.345 49.9722 156.588C49.9699 156.568 49.9713 156.549 49.9761 156.53H49.9801C50.0598 156.647 50.1292 156.771 50.2025 156.893C50.783 157.856 51.3632 158.819 51.9431 159.781C51.9488 159.791 51.9532 159.801 51.9583 159.811C51.9418 159.808 51.9257 159.803 51.91 159.797C51.8036 159.749 51.6968 159.7 51.5913 159.651C51.4261 159.575 51.2609 159.5 51.0956 159.425L50.2992 159.064C50.1932 159.015 50.0865 158.968 49.9799 158.92Z" fill="#2F3030"/>
<path d="M49.9767 156.529C49.9719 156.548 49.9706 156.567 49.9728 156.587C49.9728 157.344 49.9728 158.102 49.9728 158.86C49.9728 158.879 49.9716 158.898 49.9709 158.919C49.8352 158.98 49.6995 159.041 49.5638 159.103L48.041 159.796C48.0253 159.802 48.0094 159.807 47.9931 159.811C48.0371 159.72 48.0943 159.637 48.1465 159.549C48.7507 158.545 49.3553 157.541 49.9604 156.537C49.9644 156.531 49.9687 156.526 49.9734 156.521L49.9767 156.529Z" fill="#828384"/>
<path d="M49.9799 158.92C50.0865 158.968 50.1932 159.015 50.2996 159.063L51.096 159.424C51.2614 159.499 51.4267 159.575 51.5917 159.65C51.6979 159.699 51.805 159.748 51.9104 159.796C51.9261 159.802 51.9423 159.807 51.9587 159.81C51.9781 159.835 51.9494 159.836 51.9407 159.841C51.7753 159.94 51.6092 160.037 51.4434 160.135C50.9677 160.417 50.4921 160.698 50.0166 160.98C50.0046 160.987 49.9916 160.992 49.979 160.998C49.979 160.324 49.979 159.649 49.979 158.975C49.9792 158.956 49.9797 158.938 49.9799 158.92Z" fill="#121212"/>
<path d="M49.9722 161.381L51.2177 160.647C51.4555 160.506 51.6932 160.366 51.9307 160.225L51.9522 160.213C51.9544 160.233 51.941 160.243 51.9329 160.254C51.39 161.019 50.8472 161.784 50.3044 162.549C50.2017 162.694 50.0991 162.84 49.9954 162.984C49.99 162.991 49.9817 163.027 49.965 162.989C49.9782 162.978 49.9723 162.963 49.9723 162.95C49.9725 162.427 49.9724 161.904 49.9722 161.381Z" fill="#2F3030"/>
<path d="M49.972 161.381C49.972 161.904 49.972 162.427 49.972 162.95C49.972 162.963 49.9779 162.978 49.9647 162.988C49.937 162.972 49.9249 162.942 49.9065 162.917C49.2771 162.031 48.648 161.144 48.0193 160.257C48.0113 160.246 48.004 160.234 47.9958 160.221C48.0121 160.212 48.0208 160.225 48.0303 160.23C48.6669 160.606 49.3032 160.982 49.9395 161.359C49.9513 161.366 49.9614 161.374 49.972 161.381Z" fill="#828384"/>
<path d="M49.9768 156.529L49.9722 156.521C49.9807 156.516 49.9795 156.524 49.9809 156.528L49.9768 156.529Z" fill="#393939"/>
</g>
<path d="M61.7291 159.84H64.3096V160.449H61.7291V159.84ZM61.7936 162.069H64.7181V162.693H61.0768V157.675H64.6178V158.299H61.7936V162.069ZM66.8751 162.693V158.299H65.1548V157.675H69.305V158.299H67.5847V162.693H66.8751ZM73.684 157.675H74.4008V162.693H73.684V157.675ZM70.8025 162.693H70.0857V157.675H70.8025V162.693ZM73.7485 160.456H70.7308V159.833H73.7485V160.456Z" fill="#F9F9F9"/>
<g clip-path="url(#clip7_641_660)">
<path fill-rule="evenodd" clip-rule="evenodd" d="M80.6847 159.006C80.8347 158.856 81.0778 158.856 81.2278 159.006L82.4922 160.27L83.7567 159.006C83.9067 158.856 84.1498 158.856 84.2997 159.006C84.4497 159.155 84.4497 159.399 84.2997 159.549L82.7638 161.085C82.6138 161.235 82.3707 161.235 82.2207 161.085L80.6847 159.549C80.5348 159.399 80.5348 159.155 80.6847 159.006Z" fill="#F9F9F9"/>
</g>
</g>
<g filter="url(#filter1_dii_641_660)">
<rect x="39" y="69.0986" width="60.6674" height="20.0419" rx="10.021" fill="#F3F3F3"/>
<g clip-path="url(#clip8_641_660)">
<path d="M54.8888 80.4631C54.146 83.4437 51.1271 85.2638 48.141 84.5204C45.1604 83.7753 43.3433 80.7564 44.0861 77.7758C44.829 74.7952 47.8461 72.9751 50.8249 73.7185C53.8128 74.4527 55.6299 77.4807 54.8888 80.4631Z" fill="#009393"/>
<path fill-rule="evenodd" clip-rule="evenodd" d="M47.4405 76.7817H51.6091C51.7086 76.7817 51.8005 76.8333 51.8501 76.9169L53.0646 78.9642C53.1275 79.0703 53.1089 79.2043 53.019 79.2904L49.6761 82.4941C49.5678 82.5979 49.3936 82.5979 49.2853 82.4941L45.9469 79.2948C45.8549 79.2067 45.8377 79.0687 45.9053 78.9619L47.2035 76.9103C47.2541 76.8304 47.3438 76.7817 47.4405 76.7817ZM51.0709 77.6958V78.2702H49.8834V78.6685C50.7174 78.711 51.3431 78.8858 51.3477 79.0954L51.3477 79.5321C51.3431 79.7417 50.7174 79.9165 49.8834 79.959V80.9364H49.0949V79.959C48.2609 79.9165 47.6351 79.7417 47.6305 79.5321L47.6305 79.0954C47.6352 78.8858 48.2609 78.711 49.0949 78.6685V78.2702H47.9074V77.6958H51.0709ZM49.4891 79.659C50.3792 79.659 51.1231 79.5111 51.3051 79.3137C51.1507 79.1464 50.5923 79.0146 49.8834 78.9784V79.3954C49.7563 79.4019 49.6244 79.4053 49.4891 79.4053C49.3538 79.4053 49.2219 79.4019 49.0949 79.3954V78.9784C48.3859 79.0146 47.8275 79.1464 47.6731 79.3137C47.8552 79.5111 48.5991 79.659 49.4891 79.659Z" fill="#F9F9F9"/>
</g>
<path d="M62.6741 82.0808C62.0146 82.0808 61.4962 81.892 61.1187 81.5145C60.7411 81.137 60.5524 80.5851 60.5524 79.8587V77.0059H61.2692V79.8301C61.2692 80.3892 61.391 80.7977 61.6347 81.0558C61.8832 81.3138 62.2321 81.4428 62.6813 81.4428C63.1352 81.4428 63.4841 81.3138 63.7278 81.0558C63.9763 80.7977 64.1005 80.3892 64.1005 79.8301V77.0059H64.7958V79.8587C64.7958 80.5851 64.607 81.137 64.2295 81.5145C63.8568 81.892 63.3383 82.0808 62.6741 82.0808ZM67.7276 82.0808C67.3453 82.0808 66.9797 82.0234 66.6309 81.9088C66.282 81.7893 66.0073 81.6364 65.8066 81.45L66.0718 80.8909C66.2629 81.0582 66.5066 81.1967 66.8029 81.3066C67.0992 81.4166 67.4074 81.4715 67.7276 81.4715C68.0191 81.4715 68.2556 81.4381 68.4372 81.3712C68.6188 81.3043 68.7526 81.2135 68.8386 81.0988C68.9246 80.9793 68.9676 80.8455 68.9676 80.6974C68.9676 80.5253 68.9103 80.3868 68.7956 80.2816C68.6857 80.1765 68.5399 80.0929 68.3583 80.0308C68.1815 79.9639 67.9856 79.9065 67.7706 79.8587C67.5555 79.8109 67.3381 79.756 67.1183 79.6939C66.9033 79.627 66.705 79.5433 66.5234 79.443C66.3466 79.3426 66.2032 79.2088 66.0933 79.0416C65.9834 78.8696 65.9284 78.6497 65.9284 78.3821C65.9284 78.1241 65.9953 77.8876 66.1291 77.6725C66.2677 77.4527 66.478 77.2783 66.7599 77.1493C67.0466 77.0155 67.4098 76.9486 67.8494 76.9486C68.1409 76.9486 68.43 76.9868 68.7167 77.0633C69.0035 77.1397 69.2519 77.2496 69.4622 77.393L69.2257 77.9664C69.0106 77.823 68.7836 77.7203 68.5447 77.6582C68.3058 77.5913 68.074 77.5578 67.8494 77.5578C67.5675 77.5578 67.3357 77.5937 67.1541 77.6654C66.9726 77.737 66.8388 77.8326 66.7527 77.9521C66.6715 78.0715 66.6309 78.2053 66.6309 78.3535C66.6309 78.5303 66.6858 78.6713 66.7957 78.7764C66.9104 78.8815 67.0562 78.9651 67.233 79.0273C67.4146 79.0894 67.6129 79.1467 67.8279 79.1993C68.043 79.2471 68.258 79.302 68.473 79.3641C68.6928 79.4263 68.8912 79.5075 69.068 79.6079C69.2496 79.7082 69.3953 79.842 69.5052 80.0093C69.6151 80.1765 69.6701 80.3915 69.6701 80.6544C69.6701 80.9076 69.6008 81.1442 69.4622 81.364C69.3236 81.579 69.1086 81.7534 68.8171 81.8872C68.5304 82.0163 68.1672 82.0808 67.7276 82.0808ZM70.7173 82.0234V77.0059H72.8318C73.367 77.0059 73.8377 77.111 74.2439 77.3213C74.6548 77.5316 74.9726 77.8254 75.1972 78.2029C75.4266 78.5805 75.5413 79.0177 75.5413 79.5147C75.5413 80.0116 75.4266 80.4489 75.1972 80.8264C74.9726 81.2039 74.6548 81.4978 74.2439 81.7081C73.8377 81.9183 73.367 82.0234 72.8318 82.0234H70.7173ZM71.434 81.3998H72.7888C73.2045 81.3998 73.5629 81.321 73.864 81.1633C74.1698 81.0056 74.4063 80.7858 74.5736 80.5038C74.7408 80.2171 74.8245 79.8874 74.8245 79.5147C74.8245 79.1372 74.7408 78.8074 74.5736 78.5255C74.4063 78.2436 74.1698 78.0238 73.864 77.8661C73.5629 77.7084 73.2045 77.6295 72.7888 77.6295H71.434V81.3998ZM77.5655 82.0234V77.6295H75.8452V77.0059H79.9954V77.6295H78.2751V82.0234H77.5655Z" fill="#121212"/>
<g clip-path="url(#clip9_641_660)">
<path fill-rule="evenodd" clip-rule="evenodd" d="M86.2033 78.3356C86.3532 78.1857 86.5964 78.1857 86.7463 78.3356L88.0108 79.6001L89.2753 78.3356C89.4252 78.1857 89.6683 78.1857 89.8183 78.3356C89.9682 78.4856 89.9682 78.7287 89.8183 78.8787L88.2823 80.4146C88.1324 80.5646 87.8892 80.5646 87.7393 80.4146L86.2033 78.8787C86.0533 78.7287 86.0533 78.4856 86.2033 78.3356Z" fill="#121212"/>
</g>
</g>
<g filter="url(#filter2_d_641_660)">
<rect x="41.4888" y="223.732" width="213.59" height="29.0608" rx="4.76867" stroke="#121212" stroke-width="0.501048" shape-rendering="crispEdges"/>
<path d="M138.414 241.068C137.986 241.068 137.577 241.004 137.187 240.876C136.797 240.742 136.49 240.571 136.265 240.363L136.562 239.737C136.776 239.924 137.048 240.079 137.38 240.202C137.711 240.325 138.056 240.387 138.414 240.387C138.74 240.387 139.004 240.349 139.207 240.274C139.41 240.2 139.56 240.098 139.656 239.97C139.753 239.836 139.801 239.686 139.801 239.521C139.801 239.328 139.736 239.173 139.608 239.056C139.485 238.938 139.322 238.845 139.119 238.775C138.921 238.7 138.702 238.636 138.462 238.583C138.221 238.529 137.978 238.468 137.732 238.398C137.492 238.324 137.27 238.23 137.067 238.118C136.869 238.006 136.709 237.856 136.586 237.669C136.463 237.477 136.401 237.231 136.401 236.931C136.401 236.643 136.476 236.378 136.626 236.138C136.781 235.892 137.016 235.697 137.331 235.553C137.652 235.403 138.058 235.328 138.55 235.328C138.876 235.328 139.199 235.371 139.52 235.456C139.841 235.542 140.119 235.665 140.354 235.825L140.089 236.466C139.849 236.306 139.595 236.191 139.328 236.122C139.06 236.047 138.801 236.009 138.55 236.009C138.235 236.009 137.975 236.05 137.772 236.13C137.569 236.21 137.42 236.317 137.323 236.45C137.233 236.584 137.187 236.734 137.187 236.899C137.187 237.097 137.249 237.255 137.372 237.372C137.5 237.49 137.663 237.583 137.861 237.653C138.064 237.722 138.285 237.787 138.526 237.845C138.766 237.899 139.007 237.96 139.247 238.03C139.493 238.099 139.715 238.19 139.913 238.302C140.116 238.414 140.279 238.564 140.402 238.751C140.525 238.938 140.586 239.179 140.586 239.473C140.586 239.756 140.509 240.021 140.354 240.266C140.199 240.507 139.958 240.702 139.632 240.852C139.312 240.996 138.905 241.068 138.414 241.068ZM142.465 241.004L140.886 236.755H141.615L143.018 240.603H142.673L144.132 236.755H144.782L146.209 240.603H145.872L147.307 236.755H147.996L146.409 241.004H145.672L144.333 237.493H144.557L143.202 241.004H142.465ZM151.282 241.004V240.106L151.242 239.938V238.406C151.242 238.08 151.145 237.829 150.953 237.653C150.766 237.471 150.483 237.38 150.103 237.38C149.852 237.38 149.606 237.423 149.366 237.509C149.125 237.589 148.922 237.698 148.756 237.837L148.436 237.26C148.655 237.084 148.917 236.95 149.221 236.859C149.531 236.763 149.855 236.715 150.191 236.715C150.774 236.715 151.223 236.857 151.538 237.14C151.854 237.423 152.011 237.856 152.011 238.439V241.004H151.282ZM149.887 241.052C149.572 241.052 149.294 240.999 149.053 240.892C148.818 240.785 148.636 240.638 148.508 240.451C148.38 240.258 148.316 240.042 148.316 239.801C148.316 239.572 148.369 239.363 148.476 239.176C148.588 238.989 148.767 238.839 149.013 238.727C149.264 238.615 149.601 238.559 150.023 238.559H151.37V239.112H150.055C149.67 239.112 149.411 239.176 149.278 239.304C149.144 239.433 149.077 239.588 149.077 239.769C149.077 239.978 149.16 240.146 149.326 240.274C149.491 240.397 149.721 240.459 150.015 240.459C150.304 240.459 150.555 240.395 150.769 240.266C150.988 240.138 151.145 239.951 151.242 239.705L151.394 240.234C151.292 240.485 151.113 240.686 150.857 240.836C150.6 240.98 150.277 241.052 149.887 241.052ZM155.688 241.052C155.335 241.052 155.012 240.972 154.718 240.812C154.43 240.646 154.197 240.403 154.021 240.082C153.85 239.761 153.764 239.36 153.764 238.879C153.764 238.398 153.847 237.998 154.013 237.677C154.184 237.356 154.414 237.116 154.702 236.955C154.996 236.795 155.325 236.715 155.688 236.715C156.105 236.715 156.474 236.806 156.795 236.988C157.115 237.169 157.369 237.423 157.556 237.749C157.743 238.07 157.837 238.447 157.837 238.879C157.837 239.312 157.743 239.692 157.556 240.018C157.369 240.344 157.115 240.598 156.795 240.779C156.474 240.961 156.105 241.052 155.688 241.052ZM153.436 242.559V236.755H154.173V237.901L154.125 238.887L154.205 239.874V242.559H153.436ZM155.624 240.379C155.897 240.379 156.14 240.317 156.354 240.194C156.573 240.071 156.744 239.898 156.867 239.673C156.995 239.443 157.059 239.179 157.059 238.879C157.059 238.575 156.995 238.313 156.867 238.094C156.744 237.869 156.573 237.696 156.354 237.573C156.14 237.45 155.897 237.388 155.624 237.388C155.357 237.388 155.114 237.45 154.895 237.573C154.681 237.696 154.51 237.869 154.381 238.094C154.259 238.313 154.197 238.575 154.197 238.879C154.197 239.179 154.259 239.443 154.381 239.673C154.51 239.898 154.681 240.071 154.895 240.194C155.114 240.317 155.357 240.379 155.624 240.379Z" fill="#121212"/>
</g>
<rect width="214.091" height="0.501048" transform="translate(41.0049 128.723)" fill="#121212"/>
<rect width="15.7855" height="16.4728" transform="translate(140.157 120.487)" fill="#F9F9F9"/>
<rect x="140.408" y="120.738" width="15.9718" height="15.9718" rx="1.98023" fill="#F9F9F9"/>
<rect x="140.408" y="120.738" width="15.9718" height="15.9718" rx="1.98023" stroke="#121212" stroke-width="0.501048"/>
<path d="M146.419 131.662C146.419 131.178 146.419 125.848 146.419 125.848M146.419 125.848L144.239 128.028M146.419 125.848L148.6 128.028" stroke="#121212" stroke-width="0.751572" stroke-linecap="round" stroke-linejoin="round"/>
<path d="M150.72 125.848C150.72 126.333 150.72 131.662 150.72 131.662M150.72 131.662L152.9 129.482M150.72 131.662L148.54 129.482" stroke="#121212" stroke-width="0.751572" stroke-linecap="round" stroke-linejoin="round"/>
<g opacity="0.65" filter="url(#filter3_dii_641_660)">
<rect x="236.025" y="149.768" width="20.0553" height="20.0419" rx="2.31822" fill="#F3F3F3"/>
<g clip-path="url(#clip10_641_660)">
<path d="M245.848 160.935L246.487 160.295C247.546 159.236 247.546 157.518 246.487 156.459C245.428 155.4 243.712 155.4 242.653 156.459L241.375 157.738C240.316 158.797 240.316 160.515 241.375 161.574C241.866 162.066 242.499 162.329 243.141 162.365" stroke="#121212" stroke-width="0.670006" stroke-linecap="round"/>
<path d="M245.141 157.541L244.502 158.18C243.443 159.24 243.443 160.957 244.502 162.017C245.561 163.076 247.277 163.076 248.336 162.017L249.614 160.738C250.673 159.679 250.673 157.961 249.614 156.902C249.123 156.41 248.491 156.147 247.848 156.111" stroke="#121212" stroke-width="0.670006" stroke-linecap="round"/>
</g>
</g>
<g filter="url(#filter4_dii_641_660)">
<rect x="235.881" y="69.0986" width="20.0516" height="20.0381" rx="2.70786" fill="#F3F3F3"/>
<g clip-path="url(#clip11_641_660)">
<path d="M245.704 80.2649L246.342 79.6256C247.401 78.5665 247.401 76.8492 246.342 75.79C245.284 74.7308 243.568 74.7308 242.509 75.79L241.231 77.0685C240.173 78.1277 240.173 79.845 241.231 80.9042C241.722 81.3954 242.355 81.6588 242.997 81.6944" stroke="#656565" stroke-width="0.66988" stroke-linecap="round"/>
<path d="M244.997 76.8714L244.358 77.5107C243.3 78.5698 243.3 80.2871 244.358 81.3463C245.417 82.4055 247.133 82.4055 248.192 81.3463L249.469 80.0678C250.528 79.0086 250.528 77.2913 249.469 76.2321C248.978 75.7409 248.346 75.4775 247.704 75.4419" stroke="#656565" stroke-width="0.66988" stroke-linecap="round"/>
</g>
</g>
<g filter="url(#filter5_dii_641_660)">
<rect x="213.12" y="69.0986" width="20.0516" height="20.0381" rx="2.70786" fill="#F3F3F3"/>
<path d="M217.244 81.7783V77.8639H217.843L219.554 80.7214H219.241L220.924 77.8639H221.522L221.528 81.7783H220.84L220.834 78.9432H220.98L219.548 81.331H219.224L217.77 78.9432H217.938V81.7783H217.244ZM222.032 81.7783L223.793 77.8639H224.509L226.276 81.7783H225.515L224 78.2497H224.291L222.781 81.7783H222.032ZM222.842 80.8724L223.038 80.302H225.152L225.348 80.8724H222.842ZM226.102 81.7783L227.752 79.508V80.056L226.18 77.8639H227.002L228.171 79.4856L227.835 79.4912L228.993 77.8639H229.781L228.221 80.0168V79.4912L229.882 81.7783H229.043L227.813 80.056H228.143L226.93 81.7783H226.102Z" fill="#656565"/>
</g>
<g filter="url(#filter6_dii_641_660)">
<rect x="164.346" y="69.0986" width="46.0644" height="20.0381" rx="2.70786" fill="#F3F3F3"/>
<path d="M177.853 81.8342C177.543 81.8342 177.264 81.756 177.014 81.5994C176.768 81.4428 176.574 81.2154 176.432 80.9171C176.291 80.6152 176.22 80.2498 176.22 79.8211C176.22 79.3924 176.291 79.0289 176.432 78.7307C176.574 78.4287 176.768 78.1994 177.014 78.0428C177.264 77.8863 177.543 77.808 177.853 77.808C178.166 77.808 178.445 77.8863 178.691 78.0428C178.937 78.1994 179.131 78.4287 179.273 78.7307C179.418 79.0289 179.491 79.3924 179.491 79.8211C179.491 80.2498 179.418 80.6152 179.273 80.9171C179.131 81.2154 178.937 81.4428 178.691 81.5994C178.445 81.756 178.166 81.8342 177.853 81.8342ZM177.853 81.2023C178.035 81.2023 178.194 81.1539 178.328 81.0569C178.462 80.9563 178.566 80.8034 178.641 80.5984C178.719 80.3934 178.758 80.1343 178.758 79.8211C178.758 79.5042 178.719 79.2451 178.641 79.0438C178.566 78.8388 178.462 78.6878 178.328 78.5909C178.194 78.4902 178.035 78.4399 177.853 78.4399C177.677 78.4399 177.521 78.4902 177.383 78.5909C177.249 78.6878 177.142 78.8388 177.064 79.0438C176.99 79.2451 176.952 79.5042 176.952 79.8211C176.952 80.1343 176.99 80.3934 177.064 80.5984C177.142 80.8034 177.249 80.9563 177.383 81.0569C177.521 81.1539 177.677 81.2023 177.853 81.2023ZM180.071 80.5145V79.9329H181.609V80.5145H180.071ZM182.678 81.7783V78.1435L182.997 78.4734H181.851V77.8639H183.405V81.7783H182.678ZM185.815 81.8342C185.505 81.8342 185.226 81.756 184.976 81.5994C184.73 81.4428 184.536 81.2154 184.394 80.9171C184.253 80.6152 184.182 80.2498 184.182 79.8211C184.182 79.3924 184.253 79.0289 184.394 78.7307C184.536 78.4287 184.73 78.1994 184.976 78.0428C185.226 77.8863 185.505 77.808 185.815 77.808C186.128 77.808 186.407 77.8863 186.653 78.0428C186.9 78.1994 187.093 78.4287 187.235 78.7307C187.38 79.0289 187.453 79.3924 187.453 79.8211C187.453 80.2498 187.38 80.6152 187.235 80.9171C187.093 81.2154 186.9 81.4428 186.653 81.5994C186.407 81.756 186.128 81.8342 185.815 81.8342ZM185.815 81.2023C185.997 81.2023 186.156 81.1539 186.29 81.0569C186.424 80.9563 186.529 80.8034 186.603 80.5984C186.681 80.3934 186.721 80.1343 186.721 79.8211C186.721 79.5042 186.681 79.2451 186.603 79.0438C186.529 78.8388 186.424 78.6878 186.29 78.5909C186.156 78.4902 185.997 78.4399 185.815 78.4399C185.639 78.4399 185.483 78.4902 185.345 78.5909C185.211 78.6878 185.104 78.8388 185.026 79.0438C184.952 79.2451 184.914 79.5042 184.914 79.8211C184.914 80.1343 184.952 80.3934 185.026 80.5984C185.104 80.8034 185.211 80.9563 185.345 81.0569C185.483 81.1539 185.639 81.2023 185.815 81.2023ZM189.577 81.8342C189.268 81.8342 188.988 81.756 188.738 81.5994C188.492 81.4428 188.299 81.2154 188.157 80.9171C188.015 80.6152 187.944 80.2498 187.944 79.8211C187.944 79.3924 188.015 79.0289 188.157 78.7307C188.299 78.4287 188.492 78.1994 188.738 78.0428C188.988 77.8863 189.268 77.808 189.577 77.808C189.89 77.808 190.17 77.8863 190.416 78.0428C190.662 78.1994 190.856 78.4287 190.998 78.7307C191.143 79.0289 191.216 79.3924 191.216 79.8211C191.216 80.2498 191.143 80.6152 190.998 80.9171C190.856 81.2154 190.662 81.4428 190.416 81.5994C190.17 81.756 189.89 81.8342 189.577 81.8342ZM189.577 81.2023C189.76 81.2023 189.918 81.1539 190.053 81.0569C190.187 80.9563 190.291 80.8034 190.366 80.5984C190.444 80.3934 190.483 80.1343 190.483 79.8211C190.483 79.5042 190.444 79.2451 190.366 79.0438C190.291 78.8388 190.187 78.6878 190.053 78.5909C189.918 78.4902 189.76 78.4399 189.577 78.4399C189.402 78.4399 189.245 78.4902 189.108 78.5909C188.973 78.6878 188.867 78.8388 188.789 79.0438C188.714 79.2451 188.677 79.5042 188.677 79.8211C188.677 80.1343 188.714 80.3934 188.789 80.5984C188.867 80.8034 188.973 80.9563 189.108 81.0569C189.245 81.1539 189.402 81.2023 189.577 81.2023ZM193.8 81.7783L196.473 77.8639H197.021L194.349 81.7783H193.8ZM194.125 79.9721C193.942 79.9721 193.78 79.9274 193.638 79.8379C193.497 79.7484 193.387 79.6235 193.308 79.4632C193.23 79.3029 193.191 79.1146 193.191 78.8984C193.191 78.6822 193.23 78.4939 193.308 78.3336C193.387 78.1733 193.497 78.0484 193.638 77.959C193.78 77.8695 193.942 77.8247 194.125 77.8247C194.315 77.8247 194.479 77.8695 194.617 77.959C194.759 78.0484 194.869 78.1733 194.947 78.3336C195.025 78.4939 195.064 78.6822 195.064 78.8984C195.064 79.1146 195.025 79.3029 194.947 79.4632C194.869 79.6235 194.759 79.7484 194.617 79.8379C194.479 79.9274 194.315 79.9721 194.125 79.9721ZM194.13 79.5806C194.28 79.5806 194.395 79.5229 194.477 79.4073C194.563 79.288 194.606 79.1184 194.606 78.8984C194.606 78.6785 194.563 78.5107 194.477 78.3951C194.395 78.2758 194.28 78.2162 194.13 78.2162C193.981 78.2162 193.862 78.2758 193.773 78.3951C193.687 78.5144 193.644 78.6822 193.644 78.8984C193.644 79.1146 193.687 79.2824 193.773 79.4017C193.862 79.521 193.981 79.5806 194.13 79.5806ZM196.692 81.8175C196.509 81.8175 196.347 81.7727 196.205 81.6833C196.063 81.5938 195.953 81.4689 195.875 81.3086C195.797 81.1483 195.758 80.96 195.758 80.7438C195.758 80.5276 195.797 80.3393 195.875 80.179C195.953 80.0187 196.063 79.8938 196.205 79.8043C196.347 79.7149 196.509 79.6701 196.692 79.6701C196.882 79.6701 197.046 79.7149 197.184 79.8043C197.325 79.8938 197.435 80.0187 197.514 80.179C197.592 80.3393 197.631 80.5276 197.631 80.7438C197.631 80.96 197.592 81.1483 197.514 81.3086C197.435 81.4689 197.325 81.5938 197.184 81.6833C197.046 81.7727 196.882 81.8175 196.692 81.8175ZM196.692 81.426C196.841 81.426 196.958 81.3664 197.044 81.2471C197.13 81.1278 197.172 80.96 197.172 80.7438C197.172 80.5276 197.13 80.3598 197.044 80.2405C196.958 80.1212 196.841 80.0616 196.692 80.0616C196.546 80.0616 196.429 80.1212 196.339 80.2405C196.254 80.3561 196.211 80.5238 196.211 80.7438C196.211 80.9637 196.254 81.1334 196.339 81.2527C196.429 81.3682 196.546 81.426 196.692 81.426Z" fill="#656565"/>
</g>
<defs>
<filter id="filter0_dii_641_660" x="37.3295" y="148.654" width="58.9553" height="23.3811" filterUnits="userSpaceOnUse" color-interpolation-filters="sRGB">
<feFlood flood-opacity="0" result="BackgroundImageFix"/>
<feColorMatrix in="SourceAlpha" type="matrix" values="0 0 0 0 0 0 0 0 0 0 0 0 0 0 0 0 0 0 127 0" result="hardAlpha"/>
<feOffset dy="0.556514"/>
<feGaussianBlur stdDeviation="0.834771"/>
<feComposite in2="hardAlpha" operator="out"/>
<feColorMatrix type="matrix" values="0 0 0 0 1 0 0 0 0 1 0 0 0 0 1 0 0 0 0.04 0"/>
<feBlend mode="normal" in2="BackgroundImageFix" result="effect1_dropShadow_641_660"/>
<feBlend mode="normal" in="SourceGraphic" in2="effect1_dropShadow_641_660" result="shape"/>
<feColorMatrix in="SourceAlpha" type="matrix" values="0 0 0 0 0 0 0 0 0 0 0 0 0 0 0 0 0 0 127 0" result="hardAlpha"/>
<feOffset dy="-0.556514"/>
<feComposite in2="hardAlpha" operator="arithmetic" k2="-1" k3="1"/>
<feColorMatrix type="matrix" values="0 0 0 0 0.396078 0 0 0 0 0.396078 0 0 0 0 0.396078 0 0 0 0.09 0"/>
<feBlend mode="normal" in2="shape" result="effect2_innerShadow_641_660"/>
<feColorMatrix in="SourceAlpha" type="matrix" values="0 0 0 0 0 0 0 0 0 0 0 0 0 0 0 0 0 0 127 0" result="hardAlpha"/>
<feMorphology radius="0.556514" operator="erode" in="SourceAlpha" result="effect3_innerShadow_641_660"/>
<feOffset/>
<feComposite in2="hardAlpha" operator="arithmetic" k2="-1" k3="1"/>
<feColorMatrix type="matrix" values="0 0 0 0 1 0 0 0 0 1 0 0 0 0 1 0 0 0 0.06 0"/>
<feBlend mode="normal" in2="effect2_innerShadow_641_660" result="effect3_innerShadow_641_660"/>
</filter>
<filter id="filter1_dii_641_660" x="37.3305" y="67.9856" width="64.0061" height="23.3811" filterUnits="userSpaceOnUse" color-interpolation-filters="sRGB">
<feFlood flood-opacity="0" result="BackgroundImageFix"/>
<feColorMatrix in="SourceAlpha" type="matrix" values="0 0 0 0 0 0 0 0 0 0 0 0 0 0 0 0 0 0 127 0" result="hardAlpha"/>
<feOffset dy="0.556514"/>
<feGaussianBlur stdDeviation="0.834771"/>
<feComposite in2="hardAlpha" operator="out"/>
<feColorMatrix type="matrix" values="0 0 0 0 1 0 0 0 0 1 0 0 0 0 1 0 0 0 0.04 0"/>
<feBlend mode="normal" in2="BackgroundImageFix" result="effect1_dropShadow_641_660"/>
<feBlend mode="normal" in="SourceGraphic" in2="effect1_dropShadow_641_660" result="shape"/>
<feColorMatrix in="SourceAlpha" type="matrix" values="0 0 0 0 0 0 0 0 0 0 0 0 0 0 0 0 0 0 127 0" result="hardAlpha"/>
<feOffset dy="-0.556514"/>
<feComposite in2="hardAlpha" operator="arithmetic" k2="-1" k3="1"/>
<feColorMatrix type="matrix" values="0 0 0 0 0.396078 0 0 0 0 0.396078 0 0 0 0 0.396078 0 0 0 0.09 0"/>
<feBlend mode="normal" in2="shape" result="effect2_innerShadow_641_660"/>
<feColorMatrix in="SourceAlpha" type="matrix" values="0 0 0 0 0 0 0 0 0 0 0 0 0 0 0 0 0 0 127 0" result="hardAlpha"/>
<feMorphology radius="0.556514" operator="erode" in="SourceAlpha" result="effect3_innerShadow_641_660"/>
<feOffset/>
<feComposite in2="hardAlpha" operator="arithmetic" k2="-1" k3="1"/>
<feColorMatrix type="matrix" values="0 0 0 0 1 0 0 0 0 1 0 0 0 0 1 0 0 0 0.06 0"/>
<feBlend mode="normal" in2="effect2_innerShadow_641_660" result="effect3_innerShadow_641_660"/>
</filter>
<filter id="filter2_d_641_660" x="40.2087" y="222.967" width="216.15" height="31.6211" filterUnits="userSpaceOnUse" color-interpolation-filters="sRGB">
<feFlood flood-opacity="0" result="BackgroundImageFix"/>
<feColorMatrix in="SourceAlpha" type="matrix" values="0 0 0 0 0 0 0 0 0 0 0 0 0 0 0 0 0 0 127 0" result="hardAlpha"/>
<feOffset dy="0.514775"/>
<feGaussianBlur stdDeviation="0.514775"/>
<feComposite in2="hardAlpha" operator="out"/>
<feColorMatrix type="matrix" values="0 0 0 0 0.396078 0 0 0 0 0.396078 0 0 0 0 0.396078 0 0 0 0.2 0"/>
<feBlend mode="normal" in2="BackgroundImageFix" result="effect1_dropShadow_641_660"/>
<feBlend mode="normal" in="SourceGraphic" in2="effect1_dropShadow_641_660" result="shape"/>
</filter>
<filter id="filter3_dii_641_660" x="234.361" y="148.658" width="23.3844" height="23.3707" filterUnits="userSpaceOnUse" color-interpolation-filters="sRGB">
<feFlood flood-opacity="0" result="BackgroundImageFix"/>
<feColorMatrix in="SourceAlpha" type="matrix" values="0 0 0 0 0 0 0 0 0 0 0 0 0 0 0 0 0 0 127 0" result="hardAlpha"/>
<feOffset dy="0.554788"/>
<feGaussianBlur stdDeviation="0.832181"/>
<feComposite in2="hardAlpha" operator="out"/>
<feColorMatrix type="matrix" values="0 0 0 0 1 0 0 0 0 1 0 0 0 0 1 0 0 0 0.04 0"/>
<feBlend mode="normal" in2="BackgroundImageFix" result="effect1_dropShadow_641_660"/>
<feBlend mode="normal" in="SourceGraphic" in2="effect1_dropShadow_641_660" result="shape"/>
<feColorMatrix in="SourceAlpha" type="matrix" values="0 0 0 0 0 0 0 0 0 0 0 0 0 0 0 0 0 0 127 0" result="hardAlpha"/>
<feOffset dy="-0.554788"/>
<feComposite in2="hardAlpha" operator="arithmetic" k2="-1" k3="1"/>
<feColorMatrix type="matrix" values="0 0 0 0 0.396078 0 0 0 0 0.396078 0 0 0 0 0.396078 0 0 0 0.09 0"/>
<feBlend mode="normal" in2="shape" result="effect2_innerShadow_641_660"/>
<feColorMatrix in="SourceAlpha" type="matrix" values="0 0 0 0 0 0 0 0 0 0 0 0 0 0 0 0 0 0 127 0" result="hardAlpha"/>
<feMorphology radius="0.554788" operator="erode" in="SourceAlpha" result="effect3_innerShadow_641_660"/>
<feOffset/>
<feComposite in2="hardAlpha" operator="arithmetic" k2="-1" k3="1"/>
<feColorMatrix type="matrix" values="0 0 0 0 1 0 0 0 0 1 0 0 0 0 1 0 0 0 0.06 0"/>
<feBlend mode="normal" in2="effect2_innerShadow_641_660" result="effect3_innerShadow_641_660"/>
</filter>
<filter id="filter4_dii_641_660" x="234.217" y="67.9893" width="23.3799" height="23.3662" filterUnits="userSpaceOnUse" color-interpolation-filters="sRGB">
<feFlood flood-opacity="0" result="BackgroundImageFix"/>
<feColorMatrix in="SourceAlpha" type="matrix" values="0 0 0 0 0 0 0 0 0 0 0 0 0 0 0 0 0 0 127 0" result="hardAlpha"/>
<feOffset dy="0.554683"/>
<feGaussianBlur stdDeviation="0.832024"/>
<feComposite in2="hardAlpha" operator="out"/>
<feColorMatrix type="matrix" values="0 0 0 0 1 0 0 0 0 1 0 0 0 0 1 0 0 0 0.04 0"/>
<feBlend mode="normal" in2="BackgroundImageFix" result="effect1_dropShadow_641_660"/>
<feBlend mode="normal" in="SourceGraphic" in2="effect1_dropShadow_641_660" result="shape"/>
<feColorMatrix in="SourceAlpha" type="matrix" values="0 0 0 0 0 0 0 0 0 0 0 0 0 0 0 0 0 0 127 0" result="hardAlpha"/>
<feOffset dy="-0.554683"/>
<feComposite in2="hardAlpha" operator="arithmetic" k2="-1" k3="1"/>
<feColorMatrix type="matrix" values="0 0 0 0 0.396078 0 0 0 0 0.396078 0 0 0 0 0.396078 0 0 0 0.09 0"/>
<feBlend mode="normal" in2="shape" result="effect2_innerShadow_641_660"/>
<feColorMatrix in="SourceAlpha" type="matrix" values="0 0 0 0 0 0 0 0 0 0 0 0 0 0 0 0 0 0 127 0" result="hardAlpha"/>
<feMorphology radius="0.554683" operator="erode" in="SourceAlpha" result="effect3_innerShadow_641_660"/>
<feOffset/>
<feComposite in2="hardAlpha" operator="arithmetic" k2="-1" k3="1"/>
<feColorMatrix type="matrix" values="0 0 0 0 1 0 0 0 0 1 0 0 0 0 1 0 0 0 0.06 0"/>
<feBlend mode="normal" in2="effect2_innerShadow_641_660" result="effect3_innerShadow_641_660"/>
</filter>
<filter id="filter5_dii_641_660" x="211.456" y="67.9893" width="23.3799" height="23.3662" filterUnits="userSpaceOnUse" color-interpolation-filters="sRGB">
<feFlood flood-opacity="0" result="BackgroundImageFix"/>
<feColorMatrix in="SourceAlpha" type="matrix" values="0 0 0 0 0 0 0 0 0 0 0 0 0 0 0 0 0 0 127 0" result="hardAlpha"/>
<feOffset dy="0.554683"/>
<feGaussianBlur stdDeviation="0.832024"/>
<feComposite in2="hardAlpha" operator="out"/>
<feColorMatrix type="matrix" values="0 0 0 0 1 0 0 0 0 1 0 0 0 0 1 0 0 0 0.04 0"/>
<feBlend mode="normal" in2="BackgroundImageFix" result="effect1_dropShadow_641_660"/>
<feBlend mode="normal" in="SourceGraphic" in2="effect1_dropShadow_641_660" result="shape"/>
<feColorMatrix in="SourceAlpha" type="matrix" values="0 0 0 0 0 0 0 0 0 0 0 0 0 0 0 0 0 0 127 0" result="hardAlpha"/>
<feOffset dy="-0.554683"/>
<feComposite in2="hardAlpha" operator="arithmetic" k2="-1" k3="1"/>
<feColorMatrix type="matrix" values="0 0 0 0 0.396078 0 0 0 0 0.396078 0 0 0 0 0.396078 0 0 0 0.09 0"/>
<feBlend mode="normal" in2="shape" result="effect2_innerShadow_641_660"/>
<feColorMatrix in="SourceAlpha" type="matrix" values="0 0 0 0 0 0 0 0 0 0 0 0 0 0 0 0 0 0 127 0" result="hardAlpha"/>
<feMorphology radius="0.554683" operator="erode" in="SourceAlpha" result="effect3_innerShadow_641_660"/>
<feOffset/>
<feComposite in2="hardAlpha" operator="arithmetic" k2="-1" k3="1"/>
<feColorMatrix type="matrix" values="0 0 0 0 1 0 0 0 0 1 0 0 0 0 1 0 0 0 0.06 0"/>
<feBlend mode="normal" in2="effect2_innerShadow_641_660" result="effect3_innerShadow_641_660"/>
</filter>
<filter id="filter6_dii_641_660" x="162.682" y="67.9893" width="49.3926" height="23.3662" filterUnits="userSpaceOnUse" color-interpolation-filters="sRGB">
<feFlood flood-opacity="0" result="BackgroundImageFix"/>
<feColorMatrix in="SourceAlpha" type="matrix" values="0 0 0 0 0 0 0 0 0 0 0 0 0 0 0 0 0 0 127 0" result="hardAlpha"/>
<feOffset dy="0.554683"/>
<feGaussianBlur stdDeviation="0.832024"/>
<feComposite in2="hardAlpha" operator="out"/>
<feColorMatrix type="matrix" values="0 0 0 0 1 0 0 0 0 1 0 0 0 0 1 0 0 0 0.04 0"/>
<feBlend mode="normal" in2="BackgroundImageFix" result="effect1_dropShadow_641_660"/>
<feBlend mode="normal" in="SourceGraphic" in2="effect1_dropShadow_641_660" result="shape"/>
<feColorMatrix in="SourceAlpha" type="matrix" values="0 0 0 0 0 0 0 0 0 0 0 0 0 0 0 0 0 0 127 0" result="hardAlpha"/>
<feOffset dy="-0.554683"/>
<feComposite in2="hardAlpha" operator="arithmetic" k2="-1" k3="1"/>
<feColorMatrix type="matrix" values="0 0 0 0 0.396078 0 0 0 0 0.396078 0 0 0 0 0.396078 0 0 0 0.09 0"/>
<feBlend mode="normal" in2="shape" result="effect2_innerShadow_641_660"/>
<feColorMatrix in="SourceAlpha" type="matrix" values="0 0 0 0 0 0 0 0 0 0 0 0 0 0 0 0 0 0 127 0" result="hardAlpha"/>
<feMorphology radius="0.554683" operator="erode" in="SourceAlpha" result="effect3_innerShadow_641_660"/>
<feOffset/>
<feComposite in2="hardAlpha" operator="arithmetic" k2="-1" k3="1"/>
<feColorMatrix type="matrix" values="0 0 0 0 1 0 0 0 0 1 0 0 0 0 1 0 0 0 0.06 0"/>
<feBlend mode="normal" in2="effect2_innerShadow_641_660" result="effect3_innerShadow_641_660"/>
</filter>
<clipPath id="clip0_641_660">
<rect width="8.2364" height="8.2364" fill="white" transform="translate(63.7852 27.5151)"/>
</clipPath>
<clipPath id="clip1_641_660">
<rect x="239.429" y="26.8613" width="10.021" height="10.021" rx="2.0877" fill="white"/>
</clipPath>
<clipPath id="clip2_641_660">
<rect x="40.2344" y="179.333" width="146.488" height="18.5319" rx="2.15103" fill="white"/>
</clipPath>
<clipPath id="clip3_641_660">
<rect width="137.222" height="19" fill="white" transform="translate(41.2637 179.333)"/>
</clipPath>
<clipPath id="clip4_641_660">
<rect x="39.7334" y="97.6616" width="146.488" height="18.5319" rx="2.15103" fill="white"/>
</clipPath>
<clipPath id="clip5_641_660">
<rect width="137.222" height="19" fill="white" transform="translate(40.7637 97.6616)"/>
</clipPath>
<clipPath id="clip6_641_660">
<rect width="11.2269" height="11.2269" fill="white" transform="translate(44.3027 154.175)"/>
</clipPath>
<clipPath id="clip7_641_660">
<rect width="8.19188" height="8.19188" fill="white" transform="translate(78.3965 155.693)"/>
</clipPath>
<clipPath id="clip8_641_660">
<rect width="12.5262" height="12.5262" fill="white" transform="translate(43.2207 72.8564)"/>
</clipPath>
<clipPath id="clip9_641_660">
<rect width="8.19188" height="8.19188" fill="white" transform="translate(83.915 75.0234)"/>
</clipPath>
<clipPath id="clip10_641_660">
<rect width="10.7201" height="10.7201" fill="white" transform="translate(240.135 153.878)"/>
</clipPath>
<clipPath id="clip11_641_660">
<rect width="10.7181" height="10.7181" fill="white" transform="translate(239.991 73.209)"/>
</clipPath>
</defs>
</svg>
