<svg width="1038" height="371" viewBox="0 0 1038 371" fill="none" xmlns="http://www.w3.org/2000/svg">
<rect width="1038" height="371" fill="#121212"/>
<path d="M171.938 75.796C171.705 75.5242 171.394 75.262 171.006 75.0096C170.617 74.7572 170.18 74.5339 169.695 74.3397C169.21 74.1261 168.676 73.961 168.093 73.8445C167.53 73.7086 166.938 73.6406 166.316 73.6406C164.724 73.6406 163.549 73.9416 162.792 74.5436C162.035 75.1455 161.656 75.9708 161.656 77.0194C161.656 77.7573 161.85 78.3398 162.238 78.767C162.627 79.1942 163.219 79.5438 164.015 79.8156C164.831 80.0875 165.86 80.369 167.103 80.6603C168.54 80.971 169.782 81.3497 170.831 81.7963C171.88 82.2429 172.685 82.8449 173.249 83.6022C173.812 84.3401 174.093 85.3304 174.093 86.5732C174.093 87.5635 173.899 88.4276 173.511 89.1655C173.142 89.884 172.617 90.4859 171.938 90.9714C171.258 91.4374 170.462 91.7869 169.549 92.02C168.637 92.2336 167.646 92.3404 166.578 92.3404C165.53 92.3404 164.501 92.2336 163.491 92.02C162.501 91.7869 161.559 91.4568 160.666 91.0296C159.772 90.6024 158.937 90.0684 158.161 89.4276L159.413 87.214C159.724 87.5441 160.122 87.8742 160.607 88.2043C161.112 88.515 161.675 88.8063 162.297 89.0781C162.937 89.35 163.627 89.5733 164.365 89.748C165.103 89.9034 165.86 89.9811 166.637 89.9811C168.112 89.9811 169.258 89.7189 170.074 89.1946C170.889 88.6509 171.297 87.8645 171.297 86.8353C171.297 86.0586 171.064 85.4372 170.598 84.9712C170.151 84.5051 169.481 84.1168 168.588 83.8061C167.695 83.4954 166.608 83.1847 165.326 82.874C163.928 82.5245 162.753 82.1458 161.802 81.738C160.85 81.3108 160.132 80.7574 159.646 80.0778C159.18 79.3981 158.947 78.5146 158.947 77.4272C158.947 76.1067 159.267 74.9902 159.908 74.0775C160.549 73.1649 161.433 72.4755 162.559 72.0095C163.685 71.5435 164.957 71.3104 166.375 71.3104C167.307 71.3104 168.171 71.4075 168.967 71.6017C169.782 71.7959 170.54 72.0678 171.239 72.4173C171.938 72.7668 172.579 73.1843 173.161 73.6698L171.938 75.796ZM195.728 76.932H198.203L191.737 92.1365H189.494L186.552 84.9712L183.64 92.1365H181.397L174.931 76.932H177.377L182.62 89.6024L185.067 83.3692L182.504 76.9611H184.747L186.552 81.7963L188.358 76.9611H190.601L188.067 83.3692L190.514 89.6024L195.728 76.932ZM199.036 87.7382C199.036 86.7673 199.308 85.9324 199.852 85.2333C200.415 84.5148 201.182 83.9614 202.153 83.573C203.124 83.1847 204.25 82.9905 205.532 82.9905C206.211 82.9905 206.93 83.0488 207.687 83.1653C208.444 83.2624 209.114 83.4177 209.697 83.6313V82.5245C209.697 81.3594 209.347 80.4467 208.648 79.7865C207.949 79.1069 206.959 78.767 205.677 78.767C204.842 78.767 204.036 78.9224 203.26 79.2331C202.502 79.5243 201.697 79.9515 200.842 80.5147L199.91 78.7088C200.9 78.0291 201.891 77.5243 202.881 77.1942C203.871 76.8446 204.901 76.6699 205.969 76.6699C207.91 76.6699 209.444 77.2136 210.571 78.301C211.697 79.369 212.26 80.8642 212.26 82.7866V89.2237C212.26 89.5344 212.318 89.7675 212.435 89.9228C212.571 90.0587 212.784 90.1364 213.076 90.1558V92.1365C212.823 92.1753 212.6 92.2044 212.406 92.2239C212.231 92.2433 212.085 92.253 211.969 92.253C211.367 92.253 210.91 92.0879 210.6 91.7578C210.309 91.4277 210.143 91.0782 210.105 90.7092L210.046 89.748C209.386 90.6024 208.522 91.2627 207.454 91.7287C206.386 92.1947 205.328 92.4277 204.279 92.4277C203.269 92.4277 202.366 92.2239 201.57 91.8161C200.774 91.3889 200.153 90.8257 199.706 90.1267C199.26 89.4082 199.036 88.6121 199.036 87.7382ZM208.94 88.816C209.173 88.5441 209.357 88.2723 209.493 88.0004C209.629 87.7091 209.697 87.4664 209.697 87.2722V85.3789C209.095 85.1459 208.464 84.9712 207.804 84.8546C207.143 84.7187 206.493 84.6508 205.852 84.6508C204.551 84.6508 203.493 84.9129 202.677 85.4372C201.881 85.9421 201.483 86.6411 201.483 87.5344C201.483 88.0198 201.609 88.4956 201.862 88.9616C202.133 89.4082 202.522 89.7772 203.027 90.0684C203.551 90.3597 204.192 90.5053 204.949 90.5053C205.745 90.5053 206.503 90.35 207.221 90.0393C207.94 89.7092 208.512 89.3014 208.94 88.816ZM224.543 92.4277C223.301 92.4277 222.194 92.1171 221.223 91.4957C220.252 90.8743 219.485 90.0879 218.922 89.1364V98.3406H216.359V76.932H218.631V79.7865C219.232 78.8544 220.019 78.1068 220.99 77.5437C221.961 76.9611 223.019 76.6699 224.165 76.6699C225.213 76.6699 226.174 76.8835 227.048 77.3107C227.922 77.7379 228.679 78.3204 229.32 79.0583C229.961 79.7962 230.456 80.6409 230.806 81.5924C231.175 82.5245 231.359 83.5051 231.359 84.5342C231.359 85.9712 231.068 87.2916 230.485 88.4956C229.922 89.6995 229.126 90.6607 228.097 91.3792C227.068 92.0782 225.883 92.4277 224.543 92.4277ZM223.757 90.2141C224.514 90.2141 225.194 90.0587 225.796 89.748C226.417 89.4179 226.942 88.9907 227.369 88.4664C227.815 87.9227 228.155 87.311 228.388 86.6314C228.621 85.9518 228.738 85.2527 228.738 84.5342C228.738 83.7769 228.602 83.0585 228.33 82.3788C228.077 81.6992 227.709 81.0972 227.223 80.5729C226.757 80.0486 226.204 79.6409 225.563 79.3496C224.941 79.0389 224.262 78.8835 223.524 78.8835C223.058 78.8835 222.572 78.9709 222.068 79.1457C221.582 79.3205 221.116 79.5729 220.669 79.903C220.223 80.2137 219.844 80.5729 219.533 80.9807C219.223 81.3885 219.019 81.8254 218.922 82.2914V86.6314C219.213 87.2916 219.601 87.8936 220.087 88.4373C220.572 88.981 221.135 89.4179 221.776 89.748C222.417 90.0587 223.077 90.2141 223.757 90.2141Z" fill="#828282"/>
<path d="M242.756 75.8456L249.552 87.4965L256.349 75.8456" stroke="#828282" stroke-width="1.94182" stroke-linecap="round"/>
<path d="M316.092 91.671V70.9906H318.713V89.3408H330.248V91.671H316.092ZM332.694 91.671V76.4666H335.257V91.671H332.694ZM332.694 73.6121V70.4081H335.257V73.6121H332.694ZM362.33 91.671H359.767V83.1658C359.767 81.5735 359.505 80.3987 358.98 79.6414C358.476 78.8841 357.718 78.5055 356.708 78.5055C355.679 78.5055 354.747 78.8841 353.912 79.6414C353.077 80.3793 352.485 81.3405 352.135 82.525V91.671H349.572V83.1658C349.572 81.5541 349.32 80.3793 348.815 79.6414C348.31 78.8841 347.553 78.5055 346.543 78.5055C345.533 78.5055 344.601 78.8744 343.747 79.6123C342.912 80.3308 342.32 81.292 341.97 82.4959V91.671H339.407V76.4666H341.737V79.7288C342.358 78.6026 343.164 77.7385 344.155 77.1365C345.145 76.5151 346.261 76.2044 347.504 76.2044C348.766 76.2044 349.776 76.5539 350.533 77.253C351.291 77.9326 351.757 78.8162 351.932 79.9036C352.611 78.6997 353.437 77.787 354.407 77.1656C355.378 76.5248 356.485 76.2044 357.728 76.2044C358.602 76.2044 359.33 76.3695 359.912 76.6996C360.514 77.0103 360.99 77.4569 361.34 78.0394C361.689 78.6026 361.942 79.2725 362.097 80.0492C362.252 80.8259 362.33 81.6706 362.33 82.5833V91.671ZM366.315 91.671V76.4666H368.879V91.671H366.315ZM366.315 73.6121V70.4081H368.879V73.6121H366.315ZM380.893 90.9137C380.679 91.0108 380.388 91.137 380.019 91.2924C379.65 91.4477 379.223 91.5836 378.737 91.7001C378.252 91.8167 377.737 91.8749 377.194 91.8749C376.572 91.8749 375.999 91.7681 375.475 91.5545C374.951 91.3215 374.533 90.972 374.223 90.5059C373.912 90.0205 373.757 89.4185 373.757 88.7V78.4763H371.689V76.4666H373.757V71.3984H376.32V76.4666H379.728V78.4763H376.32V87.9136C376.359 88.4573 376.543 88.8651 376.873 89.1369C377.203 89.3894 377.592 89.5156 378.038 89.5156C378.543 89.5156 379.009 89.4282 379.436 89.2535C379.864 89.0787 380.145 88.9525 380.281 88.8748L380.893 90.9137Z" fill="#22E16E"/>
<path d="M463.368 73.3208H456.232V91.671H453.61V73.3208H446.474V70.9906H463.368V73.3208ZM471.617 78.7094C470.335 78.7288 469.199 79.0589 468.209 79.6997C467.238 80.3211 466.549 81.1852 466.141 82.292V91.671H463.578V76.4666H465.966V79.991C466.49 78.9424 467.18 78.0977 468.034 77.4569C468.908 76.7967 469.821 76.4277 470.772 76.35C470.966 76.35 471.131 76.35 471.267 76.35C471.403 76.35 471.52 76.3598 471.617 76.3792V78.7094ZM472.965 87.2728C472.965 86.3019 473.237 85.4669 473.78 84.7678C474.343 84.0494 475.11 83.496 476.081 83.1076C477.052 82.7192 478.179 82.525 479.46 82.525C480.14 82.525 480.858 82.5833 481.616 82.6998C482.373 82.7969 483.043 82.9522 483.625 83.1658V82.059C483.625 80.8939 483.276 79.9813 482.577 79.321C481.878 78.6414 480.887 78.3016 479.606 78.3016C478.771 78.3016 477.965 78.4569 477.188 78.7676C476.431 79.0589 475.625 79.4861 474.771 80.0492L473.839 78.2433C474.829 77.5637 475.819 77.0588 476.81 76.7287C477.8 76.3792 478.829 76.2044 479.897 76.2044C481.839 76.2044 483.373 76.7481 484.499 77.8355C485.625 78.9035 486.189 80.3987 486.189 82.3212V88.7583C486.189 89.069 486.247 89.302 486.363 89.4573C486.499 89.5933 486.713 89.6709 487.004 89.6904V91.671C486.752 91.7099 486.528 91.739 486.334 91.7584C486.159 91.7778 486.014 91.7875 485.897 91.7875C485.295 91.7875 484.839 91.6225 484.528 91.2924C484.237 90.9623 484.072 90.6127 484.033 90.2438L483.975 89.2826C483.315 90.137 482.451 90.7972 481.383 91.2632C480.315 91.7293 479.256 91.9623 478.208 91.9623C477.198 91.9623 476.295 91.7584 475.499 91.3506C474.703 90.9234 474.081 90.3603 473.635 89.6612C473.188 88.9428 472.965 88.1466 472.965 87.2728ZM482.868 88.3505C483.101 88.0787 483.286 87.8068 483.421 87.5349C483.557 87.2437 483.625 87.0009 483.625 86.8068V84.9135C483.023 84.6805 482.392 84.5057 481.732 84.3892C481.072 84.2533 480.421 84.1853 479.781 84.1853C478.48 84.1853 477.421 84.4474 476.606 84.9717C475.81 85.4766 475.411 86.1757 475.411 87.0689C475.411 87.5544 475.538 88.0301 475.79 88.4961C476.062 88.9428 476.45 89.3117 476.955 89.603C477.48 89.8943 478.12 90.0399 478.878 90.0399C479.674 90.0399 480.431 89.8845 481.15 89.5739C481.868 89.2437 482.441 88.836 482.868 88.3505ZM503.482 91.671H500.919V83.1658C500.919 81.5541 500.666 80.3793 500.161 79.6414C499.676 78.8841 498.928 78.5055 497.918 78.5055C497.219 78.5055 496.52 78.6802 495.821 79.0298C495.142 79.3793 494.53 79.855 493.986 80.457C493.462 81.0395 493.083 81.7192 492.85 82.4959V91.671H490.287V76.4666H492.617V79.7288C493.025 79.0103 493.549 78.389 494.19 77.8647C494.831 77.3404 495.559 76.9326 496.375 76.6413C497.19 76.35 498.045 76.2044 498.938 76.2044C499.812 76.2044 500.54 76.3695 501.122 76.6996C501.724 77.0103 502.19 77.4569 502.521 78.0394C502.87 78.6026 503.113 79.2725 503.249 80.0492C503.404 80.8259 503.482 81.6706 503.482 82.5833V91.671ZM512.681 91.9623C511.419 91.9623 510.235 91.7584 509.128 91.3506C508.021 90.9234 507.07 90.2923 506.273 89.4573L507.264 87.6514C508.138 88.467 509.011 89.0496 509.885 89.3991C510.759 89.7486 511.652 89.9234 512.565 89.9234C513.614 89.9234 514.468 89.7292 515.128 89.3408C515.788 88.9331 516.118 88.3408 516.118 87.5641C516.118 87.0009 515.944 86.5834 515.594 86.3116C515.264 86.0397 514.788 85.8164 514.167 85.6417C513.546 85.4475 512.808 85.2339 511.953 85.0009C510.905 84.6902 510.021 84.3601 509.303 84.0105C508.584 83.661 508.041 83.2241 507.672 82.6998C507.303 82.1755 507.118 81.5153 507.118 80.7191C507.118 79.7482 507.371 78.9327 507.875 78.2725C508.38 77.5928 509.07 77.0782 509.943 76.7287C510.837 76.3792 511.846 76.2044 512.973 76.2044C514.099 76.2044 515.118 76.3792 516.031 76.7287C516.944 77.0782 517.73 77.5928 518.39 78.2725L517.225 80.0492C516.623 79.4278 515.963 78.9715 515.245 78.6802C514.526 78.3695 513.72 78.2142 512.827 78.2142C512.303 78.2142 511.788 78.2822 511.283 78.4181C510.778 78.5346 510.361 78.7579 510.031 79.088C509.701 79.3987 509.536 79.8453 509.536 80.4279C509.536 80.9133 509.662 81.3017 509.914 81.593C510.186 81.8648 510.575 82.0978 511.079 82.292C511.604 82.4862 512.235 82.6998 512.973 82.9328C514.118 83.2629 515.109 83.593 515.944 83.9232C516.798 84.2533 517.458 84.6805 517.924 85.2048C518.39 85.729 518.623 86.4572 518.623 87.3893C518.623 88.8263 518.08 89.9525 516.992 90.7681C515.905 91.5642 514.468 91.9623 512.681 91.9623ZM522.506 91.671V78.4763H520.438V76.4666H522.506V76.1462C522.506 74.9034 522.69 73.8354 523.059 72.9422C523.447 72.0295 523.991 71.3304 524.69 70.845C525.389 70.3595 526.214 70.1168 527.166 70.1168C527.768 70.1168 528.36 70.2042 528.943 70.3789C529.525 70.5343 530.05 70.7576 530.516 71.0489L529.875 72.9422C529.603 72.748 529.263 72.5926 528.855 72.4761C528.467 72.3596 528.079 72.3014 527.69 72.3014C526.855 72.3014 526.205 72.6315 525.739 73.2917C525.292 73.9325 525.069 74.8548 525.069 76.0588V76.4666H529.117V78.4763H525.069V91.671H522.506ZM538.033 91.9623C536.887 91.9623 535.838 91.7584 534.887 91.3506C533.955 90.9234 533.139 90.3506 532.44 89.6321C531.761 88.8942 531.227 88.0495 530.838 87.098C530.469 86.1465 530.285 85.1368 530.285 84.0688C530.285 82.6318 530.615 81.3211 531.275 80.1366C531.935 78.9521 532.848 78.0006 534.013 77.2821C535.198 76.5636 536.547 76.2044 538.062 76.2044C539.596 76.2044 540.926 76.5734 542.052 77.3113C543.198 78.0297 544.081 78.9812 544.703 80.1657C545.344 81.3308 545.664 82.593 545.664 83.9523C545.664 84.1465 545.654 84.3406 545.635 84.5348C545.635 84.7096 545.625 84.8455 545.606 84.9426H532.994C533.071 85.9329 533.343 86.8165 533.809 87.5932C534.295 88.3505 534.916 88.9525 535.673 89.3991C536.431 89.8263 537.246 90.0399 538.12 90.0399C539.052 90.0399 539.926 89.8069 540.742 89.3408C541.577 88.8748 542.149 88.2631 542.46 87.5058L544.674 88.1175C544.344 88.8554 543.848 89.5156 543.188 90.0981C542.547 90.6807 541.78 91.137 540.887 91.4671C540.013 91.7972 539.062 91.9623 538.033 91.9623ZM532.906 83.1658H543.276C543.198 82.1755 542.916 81.3017 542.431 80.5444C541.945 79.7871 541.324 79.1948 540.567 78.7676C539.809 78.3404 538.974 78.1268 538.062 78.1268C537.169 78.1268 536.343 78.3404 535.586 78.7676C534.829 79.1948 534.207 79.7871 533.722 80.5444C533.256 81.3017 532.984 82.1755 532.906 83.1658ZM556.552 78.7094C555.271 78.7288 554.135 79.0589 553.145 79.6997C552.174 80.3211 551.484 81.1852 551.077 82.292V91.671H548.513V76.4666H550.902V79.991C551.426 78.9424 552.115 78.0977 552.97 77.4569C553.844 76.7967 554.756 76.4277 555.708 76.35C555.902 76.35 556.067 76.35 556.203 76.35C556.339 76.35 556.455 76.3598 556.552 76.3792V78.7094Z" fill="#828282"/>
<path d="M623.477 81.1852C623.477 79.923 623.691 78.6899 624.118 77.486C624.565 76.2627 625.205 75.1558 626.04 74.1655C626.895 73.1558 627.934 72.3596 629.157 71.7771C630.38 71.1751 631.769 70.8741 633.322 70.8741C635.167 70.8741 636.75 71.3013 638.07 72.1557C639.391 72.9907 640.371 74.0684 641.012 75.3888L638.944 76.7287C638.536 75.8549 638.012 75.1655 637.371 74.6607C636.75 74.1364 636.07 73.7674 635.332 73.5538C634.614 73.3402 633.905 73.2334 633.206 73.2334C632.06 73.2334 631.041 73.4664 630.147 73.9325C629.274 74.3985 628.536 75.0199 627.934 75.7966C627.332 76.5734 626.875 77.4472 626.565 78.4181C626.273 79.3696 626.128 80.3308 626.128 81.3017C626.128 82.3697 626.303 83.3989 626.652 84.3892C627.021 85.3795 627.526 86.2533 628.167 87.0106C628.808 87.768 629.565 88.3699 630.439 88.8165C631.313 89.2632 632.264 89.4865 633.293 89.4865C634.012 89.4865 634.75 89.3603 635.507 89.1078C636.264 88.8554 636.973 88.467 637.633 87.9427C638.293 87.399 638.818 86.7 639.206 85.8456L641.391 87.0398C640.963 88.0689 640.303 88.9428 639.41 89.6612C638.517 90.3797 637.517 90.9234 636.41 91.2924C635.322 91.6613 634.245 91.8458 633.177 91.8458C631.759 91.8458 630.458 91.5448 629.274 90.9428C628.089 90.3215 627.06 89.5059 626.186 88.4961C625.332 87.467 624.662 86.3213 624.176 85.0591C623.71 83.7775 623.477 82.4862 623.477 81.1852ZM652.303 78.7094C651.021 78.7288 649.885 79.0589 648.895 79.6997C647.924 80.3211 647.235 81.1852 646.827 82.292V91.671H644.264V76.4666H646.652V79.991C647.176 78.9424 647.866 78.0977 648.72 77.4569C649.594 76.7967 650.507 76.4277 651.458 76.35C651.652 76.35 651.817 76.35 651.953 76.35C652.089 76.35 652.206 76.3598 652.303 76.3792V78.7094ZM661.116 91.9623C659.971 91.9623 658.932 91.7584 658 91.3506C657.068 90.9234 656.262 90.3506 655.582 89.6321C654.903 88.8942 654.378 88.0495 654.009 87.098C653.64 86.1465 653.456 85.1465 653.456 84.0979C653.456 83.0299 653.64 82.0202 654.009 81.0687C654.378 80.1172 654.903 79.2822 655.582 78.5637C656.262 77.8258 657.068 77.253 658 76.8452C658.951 76.418 659.99 76.2044 661.116 76.2044C662.262 76.2044 663.301 76.418 664.233 76.8452C665.165 77.253 665.971 77.8258 666.651 78.5637C667.35 79.2822 667.884 80.1172 668.253 81.0687C668.622 82.0202 668.806 83.0299 668.806 84.0979C668.806 85.1465 668.622 86.1465 668.253 87.098C667.884 88.0495 667.359 88.8942 666.68 89.6321C666 90.3506 665.184 90.9234 664.233 91.3506C663.301 91.7584 662.262 91.9623 661.116 91.9623ZM656.077 84.127C656.077 85.1756 656.301 86.1271 656.747 86.9815C657.213 87.8359 657.825 88.5156 658.582 89.0204C659.34 89.5059 660.184 89.7486 661.116 89.7486C662.048 89.7486 662.893 89.4962 663.65 88.9913C664.427 88.4864 665.039 87.8068 665.485 86.9524C665.952 86.0786 666.185 85.1174 666.185 84.0688C666.185 83.0202 665.952 82.0687 665.485 81.2143C665.039 80.3599 664.427 79.6803 663.65 79.1754C662.893 78.6705 662.048 78.4181 661.116 78.4181C660.184 78.4181 659.34 78.6802 658.582 79.2045C657.825 79.7094 657.213 80.389 656.747 81.2434C656.301 82.0978 656.077 83.059 656.077 84.127ZM677.126 91.9623C675.864 91.9623 674.679 91.7584 673.572 91.3506C672.465 90.9234 671.514 90.2923 670.718 89.4573L671.708 87.6514C672.582 88.467 673.456 89.0496 674.329 89.3991C675.203 89.7486 676.097 89.9234 677.009 89.9234C678.058 89.9234 678.912 89.7292 679.572 89.3408C680.233 88.9331 680.563 88.3408 680.563 87.5641C680.563 87.0009 680.388 86.5834 680.038 86.3116C679.708 86.0397 679.233 85.8164 678.611 85.6417C677.99 85.4475 677.252 85.2339 676.398 85.0009C675.349 84.6902 674.465 84.3601 673.747 84.0105C673.028 83.661 672.485 83.2241 672.116 82.6998C671.747 82.1755 671.562 81.5153 671.562 80.7191C671.562 79.7482 671.815 78.9327 672.32 78.2725C672.825 77.5928 673.514 77.0782 674.388 76.7287C675.281 76.3792 676.291 76.2044 677.417 76.2044C678.543 76.2044 679.563 76.3792 680.475 76.7287C681.388 77.0782 682.174 77.5928 682.835 78.2725L681.67 80.0492C681.068 79.4278 680.407 78.9715 679.689 78.6802C678.97 78.3695 678.165 78.2142 677.271 78.2142C676.747 78.2142 676.232 78.2822 675.728 78.4181C675.223 78.5346 674.805 78.7579 674.475 79.088C674.145 79.3987 673.98 79.8453 673.98 80.4279C673.98 80.9133 674.106 81.3017 674.359 81.593C674.63 81.8648 675.019 82.0978 675.524 82.292C676.048 82.4862 676.679 82.6998 677.417 82.9328C678.563 83.2629 679.553 83.593 680.388 83.9232C681.242 84.2533 681.903 84.6805 682.369 85.2048C682.835 85.729 683.068 86.4572 683.068 87.3893C683.068 88.8263 682.524 89.9525 681.437 90.7681C680.349 91.5642 678.912 91.9623 677.126 91.9623ZM691.348 91.9623C690.086 91.9623 688.901 91.7584 687.794 91.3506C686.688 90.9234 685.736 90.2923 684.94 89.4573L685.93 87.6514C686.804 88.467 687.678 89.0496 688.552 89.3991C689.426 89.7486 690.319 89.9234 691.232 89.9234C692.28 89.9234 693.135 89.7292 693.795 89.3408C694.455 88.9331 694.785 88.3408 694.785 87.5641C694.785 87.0009 694.61 86.5834 694.261 86.3116C693.931 86.0397 693.455 85.8164 692.834 85.6417C692.212 85.4475 691.474 85.2339 690.62 85.0009C689.571 84.6902 688.688 84.3601 687.969 84.0105C687.251 83.661 686.707 83.2241 686.338 82.6998C685.969 82.1755 685.785 81.5153 685.785 80.7191C685.785 79.7482 686.037 78.9327 686.542 78.2725C687.047 77.5928 687.736 77.0782 688.61 76.7287C689.503 76.3792 690.513 76.2044 691.639 76.2044C692.766 76.2044 693.785 76.3792 694.698 76.7287C695.61 77.0782 696.397 77.5928 697.057 78.2725L695.892 80.0492C695.29 79.4278 694.63 78.9715 693.911 78.6802C693.193 78.3695 692.387 78.2142 691.494 78.2142C690.969 78.2142 690.455 78.2822 689.95 78.4181C689.445 78.5346 689.028 78.7579 688.697 79.088C688.367 79.3987 688.202 79.8453 688.202 80.4279C688.202 80.9133 688.328 81.3017 688.581 81.593C688.853 81.8648 689.241 82.0978 689.746 82.292C690.27 82.4862 690.901 82.6998 691.639 82.9328C692.785 83.2629 693.775 83.593 694.61 83.9232C695.465 84.2533 696.125 84.6805 696.591 85.2048C697.057 85.729 697.29 86.4572 697.29 87.3893C697.29 88.8263 696.746 89.9525 695.659 90.7681C694.571 91.5642 693.135 91.9623 691.348 91.9623ZM707.085 91.9623C705.939 91.9623 704.891 91.7584 703.939 91.3506C703.007 90.9234 702.192 90.3409 701.493 89.603C700.813 88.8651 700.279 88.0204 699.891 87.0689C699.522 86.1174 699.337 85.1077 699.337 84.0397C699.337 82.6027 699.658 81.292 700.298 80.1075C700.939 78.923 701.842 77.9812 703.007 77.2821C704.172 76.5636 705.522 76.2044 707.056 76.2044C708.551 76.2044 709.852 76.5442 710.959 77.2239C712.085 77.8841 712.92 78.7773 713.464 79.9036L710.959 80.69C710.571 79.9715 710.027 79.4181 709.328 79.0298C708.629 78.622 707.852 78.4181 706.998 78.4181C706.066 78.4181 705.211 78.6608 704.434 79.1463C703.677 79.6317 703.075 80.3017 702.628 81.1561C702.182 81.991 701.959 82.9522 701.959 84.0397C701.959 85.1077 702.182 86.0786 702.628 86.9524C703.095 87.8068 703.706 88.4864 704.464 88.9913C705.24 89.4962 706.095 89.7486 707.027 89.7486C707.629 89.7486 708.202 89.6418 708.745 89.4282C709.308 89.2146 709.794 88.9331 710.202 88.5835C710.629 88.2146 710.92 87.8165 711.075 87.3893L713.58 88.1466C713.27 88.8845 712.794 89.5447 712.153 90.1273C711.532 90.6904 710.784 91.137 709.91 91.4671C709.056 91.7972 708.114 91.9623 707.085 91.9623ZM729.679 91.671H727.116V83.1658C727.116 81.6124 726.835 80.4473 726.271 79.6706C725.728 78.8938 724.941 78.5055 723.912 78.5055C723.252 78.5055 722.582 78.6802 721.902 79.0298C721.242 79.3793 720.66 79.855 720.155 80.457C719.65 81.0395 719.281 81.7192 719.048 82.4959V91.671H716.485V70.4081H719.048V79.7288C719.65 78.6414 720.465 77.787 721.495 77.1656C722.543 76.5248 723.669 76.2044 724.873 76.2044C725.786 76.2044 726.543 76.3695 727.145 76.6996C727.767 77.0103 728.262 77.4569 728.631 78.0394C729 78.622 729.262 79.3016 729.417 80.0783C729.592 80.8357 729.679 81.6706 729.679 82.5833V91.671ZM732.471 87.2728C732.471 86.3019 732.743 85.4669 733.287 84.7678C733.85 84.0494 734.617 83.496 735.588 83.1076C736.559 82.7192 737.685 82.525 738.966 82.525C739.646 82.525 740.365 82.5833 741.122 82.6998C741.879 82.7969 742.549 82.9522 743.132 83.1658V82.059C743.132 80.8939 742.782 79.9813 742.083 79.321C741.384 78.6414 740.394 78.3016 739.112 78.3016C738.277 78.3016 737.471 78.4569 736.694 78.7676C735.937 79.0589 735.131 79.4861 734.277 80.0492L733.345 78.2433C734.335 77.5637 735.326 77.0588 736.316 76.7287C737.306 76.3792 738.335 76.2044 739.403 76.2044C741.345 76.2044 742.879 76.7481 744.005 77.8355C745.132 78.9035 745.695 80.3987 745.695 82.3212V88.7583C745.695 89.069 745.753 89.302 745.87 89.4573C746.006 89.5933 746.219 89.6709 746.51 89.6904V91.671C746.258 91.7099 746.035 91.739 745.84 91.7584C745.666 91.7778 745.52 91.7875 745.404 91.7875C744.802 91.7875 744.345 91.6225 744.035 91.2924C743.743 90.9623 743.578 90.6127 743.539 90.2438L743.481 89.2826C742.821 90.137 741.957 90.7972 740.889 91.2632C739.821 91.7293 738.763 91.9623 737.714 91.9623C736.704 91.9623 735.801 91.7584 735.005 91.3506C734.209 90.9234 733.588 90.3603 733.141 89.6612C732.694 88.9428 732.471 88.1466 732.471 87.2728ZM742.374 88.3505C742.607 88.0787 742.792 87.8068 742.928 87.5349C743.064 87.2437 743.132 87.0009 743.132 86.8068V84.9135C742.53 84.6805 741.899 84.5057 741.238 84.3892C740.578 84.2533 739.928 84.1853 739.287 84.1853C737.986 84.1853 736.928 84.4474 736.112 84.9717C735.316 85.4766 734.918 86.1757 734.918 87.0689C734.918 87.5544 735.044 88.0301 735.296 88.4961C735.568 88.9428 735.957 89.3117 736.461 89.603C736.986 89.8943 737.627 90.0399 738.384 90.0399C739.18 90.0399 739.937 89.8845 740.656 89.5739C741.374 89.2437 741.947 88.836 742.374 88.3505ZM749.793 91.671V76.4666H752.357V91.671H749.793ZM749.793 73.6121V70.4081H752.357V73.6121H749.793ZM769.701 91.671H767.138V83.1658C767.138 81.5541 766.885 80.3793 766.38 79.6414C765.895 78.8841 765.147 78.5055 764.138 78.5055C763.439 78.5055 762.74 78.6802 762.04 79.0298C761.361 79.3793 760.749 79.855 760.205 80.457C759.681 81.0395 759.303 81.7192 759.07 82.4959V91.671H756.506V76.4666H758.836V79.7288C759.244 79.0103 759.769 78.389 760.409 77.8647C761.05 77.3404 761.778 76.9326 762.594 76.6413C763.409 76.35 764.264 76.2044 765.157 76.2044C766.031 76.2044 766.759 76.3695 767.342 76.6996C767.944 77.0103 768.41 77.4569 768.74 78.0394C769.089 78.6026 769.332 79.2725 769.468 80.0492C769.623 80.8259 769.701 81.6706 769.701 82.5833V91.671Z" fill="#828282"/>
<rect x="827.535" y="48.2119" width="74.3534" height="66.9182" rx="18.5884" fill="#22E16E"/>
<path d="M861.481 90.799L862.205 92.4278C862.421 92.9127 862.772 93.3247 863.217 93.6139C863.662 93.9029 864.181 94.0568 864.711 94.0567C865.242 94.0568 865.761 93.9029 866.206 93.6139C866.651 93.3247 867.002 92.9127 867.217 92.4278L867.942 90.799C868.199 90.2209 868.633 89.7391 869.181 89.422C869.732 89.1042 870.37 88.9686 871.002 89.0352L872.775 89.2237C873.302 89.2796 873.834 89.1811 874.307 88.9404C874.78 88.6997 875.172 88.327 875.437 87.8675C875.703 87.4083 875.829 86.8819 875.801 86.3523C875.774 85.8227 875.593 85.3125 875.28 84.8837L874.231 83.4421C873.858 82.9249 873.658 82.3024 873.661 81.6645C873.661 81.0282 873.863 80.4083 874.237 79.8938L875.286 78.4521C875.598 78.0233 875.779 77.5132 875.807 76.9835C875.835 76.4539 875.708 75.9275 875.443 75.4683C875.178 75.0089 874.785 74.6362 874.313 74.3955C873.84 74.1547 873.307 74.0563 872.78 74.1121L871.008 74.3007C870.375 74.3672 869.737 74.2317 869.186 73.9138C868.637 73.5949 868.204 73.1105 867.947 72.53L867.217 70.9011C867.002 70.4162 866.651 70.0042 866.206 69.7151C865.761 69.426 865.242 69.2721 864.711 69.2722C864.181 69.2721 863.662 69.426 863.217 69.7151C862.772 70.0042 862.421 70.4162 862.205 70.9011L861.481 72.53C861.224 73.1105 860.791 73.5949 860.242 73.9138C859.691 74.2317 859.053 74.3672 858.42 74.3007L856.643 74.1121C856.115 74.0563 855.583 74.1547 855.11 74.3955C854.637 74.6362 854.245 75.0089 853.98 75.4683C853.714 75.9275 853.588 76.4539 853.616 76.9835C853.643 77.5132 853.824 78.0233 854.137 78.4521L855.186 79.8938C855.56 80.4083 855.761 81.0282 855.761 81.6645C855.761 82.3007 855.56 82.9206 855.186 83.4352L854.137 84.8768C853.824 85.3056 853.643 85.8159 853.616 86.3455C853.588 86.875 853.714 87.4015 853.98 87.8606C854.245 88.3199 854.638 88.6922 855.11 88.933C855.583 89.1737 856.115 89.2724 856.643 89.2168L858.415 89.0283C859.047 88.9618 859.685 89.0973 860.236 89.4151C860.787 89.7332 861.223 90.2176 861.481 90.799Z" stroke="black" stroke-width="2.78826" stroke-linecap="round" stroke-linejoin="round"/>
<rect x="140.018" y="171.134" width="30.5408" height="30.5408" rx="4.0721" fill="#22E16E" stroke="#22E16E" stroke-width="2.03605"/>
<path d="M202.452 178.723H196.466V194.115H194.267V178.723H188.281V176.768H202.452V178.723ZM201.101 190.426C201.101 189.612 201.329 188.911 201.785 188.325C202.257 187.722 202.901 187.258 203.715 186.932C204.53 186.607 205.474 186.444 206.549 186.444C207.119 186.444 207.722 186.492 208.357 186.59C208.993 186.672 209.555 186.802 210.043 186.981V186.053C210.043 185.075 209.75 184.31 209.164 183.756C208.577 183.186 207.747 182.901 206.671 182.901C205.971 182.901 205.295 183.031 204.644 183.292C204.008 183.536 203.332 183.894 202.616 184.367L201.834 182.852C202.665 182.282 203.495 181.858 204.326 181.582C205.157 181.288 206.02 181.142 206.916 181.142C208.545 181.142 209.831 181.598 210.776 182.51C211.721 183.406 212.193 184.66 212.193 186.273V191.672C212.193 191.933 212.242 192.128 212.34 192.259C212.454 192.373 212.633 192.438 212.877 192.454V194.115C212.666 194.148 212.478 194.172 212.315 194.189C212.169 194.205 212.047 194.213 211.949 194.213C211.444 194.213 211.061 194.075 210.801 193.798C210.556 193.521 210.418 193.228 210.385 192.918L210.336 192.112C209.783 192.829 209.058 193.382 208.162 193.773C207.266 194.164 206.378 194.36 205.499 194.36C204.652 194.36 203.894 194.189 203.226 193.847C202.559 193.488 202.037 193.016 201.663 192.43C201.288 191.827 201.101 191.159 201.101 190.426ZM209.408 191.33C209.603 191.102 209.758 190.874 209.872 190.646C209.986 190.402 210.043 190.198 210.043 190.035V188.447C209.538 188.252 209.009 188.105 208.455 188.007C207.901 187.893 207.356 187.836 206.818 187.836C205.727 187.836 204.839 188.056 204.155 188.496C203.487 188.919 203.153 189.506 203.153 190.255C203.153 190.662 203.259 191.061 203.471 191.452C203.699 191.827 204.025 192.136 204.448 192.381C204.888 192.625 205.425 192.747 206.061 192.747C206.728 192.747 207.364 192.617 207.966 192.356C208.569 192.079 209.05 191.737 209.408 191.33ZM224.622 194.115L220.2 187.91L217.781 190.182V194.115H215.631V176.28H217.781V187.934L224.378 181.386H226.699L221.617 186.664L226.944 194.115H224.622ZM233.778 194.36C232.817 194.36 231.937 194.189 231.139 193.847C230.357 193.488 229.673 193.008 229.087 192.405C228.517 191.786 228.069 191.078 227.743 190.28C227.433 189.481 227.279 188.634 227.279 187.739C227.279 186.533 227.556 185.434 228.109 184.44C228.663 183.447 229.429 182.648 230.406 182.046C231.4 181.443 232.532 181.142 233.802 181.142C235.089 181.142 236.205 181.451 237.149 182.07C238.11 182.673 238.852 183.471 239.373 184.465C239.91 185.442 240.179 186.501 240.179 187.641C240.179 187.804 240.171 187.967 240.155 188.129C240.155 188.276 240.147 188.39 240.13 188.472H229.551C229.616 189.302 229.844 190.043 230.235 190.695C230.642 191.33 231.163 191.835 231.799 192.21C232.434 192.568 233.118 192.747 233.851 192.747C234.633 192.747 235.366 192.552 236.05 192.161C236.75 191.77 237.231 191.257 237.492 190.622L239.348 191.135C239.072 191.754 238.656 192.307 238.102 192.796C237.565 193.285 236.921 193.668 236.172 193.944C235.439 194.221 234.641 194.36 233.778 194.36ZM229.478 186.981H238.176C238.11 186.15 237.874 185.417 237.467 184.782C237.06 184.147 236.539 183.65 235.903 183.292C235.268 182.933 234.568 182.754 233.802 182.754C233.053 182.754 232.361 182.933 231.725 183.292C231.09 183.65 230.569 184.147 230.162 184.782C229.771 185.417 229.543 186.15 229.478 186.981ZM249.091 194.115V176.768H256.323C257.089 176.768 257.789 176.931 258.424 177.257C259.059 177.566 259.613 177.99 260.086 178.527C260.558 179.049 260.924 179.643 261.185 180.311C261.446 180.963 261.576 181.63 261.576 182.315C261.576 183.259 261.364 184.163 260.941 185.027C260.517 185.874 259.923 186.566 259.157 187.103C258.392 187.625 257.496 187.885 256.47 187.885H251.29V194.115H249.091ZM251.29 185.931H256.347C256.95 185.931 257.471 185.768 257.911 185.442C258.367 185.116 258.717 184.676 258.962 184.123C259.222 183.569 259.353 182.966 259.353 182.315C259.353 181.63 259.206 181.02 258.913 180.482C258.62 179.928 258.237 179.497 257.764 179.187C257.292 178.878 256.771 178.723 256.201 178.723H251.29V185.931ZM270.715 183.243C269.64 183.259 268.687 183.536 267.856 184.074C267.042 184.595 266.464 185.32 266.122 186.248V194.115H263.972V181.362H265.975V184.318C266.415 183.438 266.993 182.73 267.71 182.192C268.443 181.639 269.208 181.329 270.006 181.264C270.169 181.264 270.308 181.264 270.422 181.264C270.536 181.264 270.633 181.272 270.715 181.288V183.243ZM278.108 194.36C277.147 194.36 276.275 194.189 275.494 193.847C274.712 193.488 274.036 193.008 273.466 192.405C272.896 191.786 272.456 191.078 272.146 190.28C271.837 189.481 271.682 188.643 271.682 187.763C271.682 186.867 271.837 186.02 272.146 185.222C272.456 184.424 272.896 183.723 273.466 183.121C274.036 182.502 274.712 182.021 275.494 181.679C276.292 181.321 277.163 181.142 278.108 181.142C279.069 181.142 279.94 181.321 280.722 181.679C281.504 182.021 282.18 182.502 282.75 183.121C283.336 183.723 283.784 184.424 284.094 185.222C284.403 186.02 284.558 186.867 284.558 187.763C284.558 188.643 284.403 189.481 284.094 190.28C283.784 191.078 283.345 191.786 282.775 192.405C282.204 193.008 281.52 193.488 280.722 193.847C279.94 194.189 279.069 194.36 278.108 194.36ZM273.881 187.787C273.881 188.667 274.068 189.465 274.443 190.182C274.834 190.899 275.347 191.469 275.982 191.892C276.618 192.299 277.326 192.503 278.108 192.503C278.89 192.503 279.598 192.291 280.234 191.868C280.885 191.444 281.398 190.874 281.773 190.157C282.164 189.424 282.359 188.618 282.359 187.739C282.359 186.859 282.164 186.061 281.773 185.344C281.398 184.627 280.885 184.057 280.234 183.634C279.598 183.21 278.89 182.999 278.108 182.999C277.326 182.999 276.618 183.219 275.982 183.658C275.347 184.082 274.834 184.652 274.443 185.369C274.068 186.085 273.881 186.892 273.881 187.787ZM287.633 183.047H285.898V181.362H287.633V181.093C287.633 180.458 287.731 179.847 287.926 179.26C288.121 178.658 288.415 178.112 288.806 177.623C289.196 177.135 289.685 176.752 290.272 176.475C290.858 176.182 291.55 176.035 292.348 176.035C292.951 176.035 293.505 176.1 294.01 176.231C294.515 176.361 294.963 176.524 295.354 176.719C295.761 176.915 296.095 177.11 296.355 177.306L295.427 178.894C295.117 178.617 294.694 178.381 294.156 178.185C293.635 177.99 293.073 177.892 292.47 177.892C291.852 177.892 291.338 178.047 290.931 178.356C290.54 178.666 290.247 179.065 290.052 179.554C289.872 180.026 289.783 180.515 289.783 181.02V181.362H296.306V194.115H294.156V183.047H289.783V194.115H287.633V183.047ZM306.382 193.48C306.203 193.562 305.959 193.668 305.649 193.798C305.34 193.928 304.981 194.042 304.574 194.14C304.167 194.238 303.735 194.287 303.279 194.287C302.758 194.287 302.277 194.197 301.838 194.018C301.398 193.822 301.048 193.529 300.787 193.138C300.526 192.731 300.396 192.226 300.396 191.623V183.047H298.661V181.362H300.396V177.11H302.546V181.362H305.405V183.047H302.546V190.964C302.579 191.42 302.734 191.762 303.01 191.99C303.287 192.202 303.613 192.307 303.988 192.307C304.411 192.307 304.802 192.234 305.161 192.088C305.519 191.941 305.755 191.835 305.869 191.77L306.382 193.48Z" fill="white"/>
<rect x="388.416" y="171.134" width="30.5408" height="30.5408" rx="4.0721" stroke="#22E16E" stroke-width="2.03605"/>
<path d="M448.529 180.409C448.333 180.181 448.073 179.961 447.747 179.749C447.421 179.537 447.055 179.35 446.648 179.187C446.24 179.008 445.792 178.87 445.304 178.772C444.831 178.658 444.335 178.601 443.813 178.601C442.478 178.601 441.492 178.853 440.857 179.358C440.222 179.863 439.904 180.555 439.904 181.435C439.904 182.054 440.067 182.543 440.393 182.901C440.719 183.259 441.215 183.552 441.883 183.78C442.567 184.009 443.431 184.245 444.473 184.489C445.678 184.75 446.721 185.067 447.6 185.442C448.48 185.817 449.156 186.321 449.628 186.957C450.101 187.576 450.337 188.406 450.337 189.449C450.337 190.28 450.174 191.004 449.848 191.623C449.539 192.226 449.099 192.731 448.529 193.138C447.959 193.529 447.291 193.822 446.525 194.018C445.76 194.197 444.929 194.287 444.033 194.287C443.154 194.287 442.29 194.197 441.443 194.018C440.613 193.822 439.823 193.545 439.073 193.187C438.324 192.829 437.624 192.381 436.972 191.843L438.023 189.986C438.283 190.263 438.617 190.54 439.025 190.817C439.448 191.078 439.92 191.322 440.442 191.55C440.979 191.778 441.557 191.965 442.176 192.112C442.795 192.242 443.431 192.307 444.082 192.307C445.32 192.307 446.281 192.088 446.965 191.648C447.649 191.192 447.991 190.532 447.991 189.669C447.991 189.017 447.796 188.496 447.405 188.105C447.03 187.714 446.468 187.388 445.719 187.128C444.97 186.867 444.058 186.607 442.983 186.346C441.81 186.053 440.824 185.735 440.026 185.393C439.228 185.035 438.625 184.57 438.218 184C437.827 183.43 437.632 182.689 437.632 181.777C437.632 180.669 437.901 179.733 438.438 178.967C438.976 178.202 439.717 177.623 440.662 177.233C441.606 176.842 442.673 176.646 443.862 176.646C444.644 176.646 445.369 176.728 446.037 176.89C446.721 177.053 447.356 177.281 447.942 177.575C448.529 177.868 449.066 178.218 449.555 178.625L448.529 180.409ZM459.245 193.48C459.066 193.562 458.822 193.668 458.512 193.798C458.203 193.928 457.844 194.042 457.437 194.14C457.03 194.238 456.598 194.287 456.142 194.287C455.621 194.287 455.141 194.197 454.701 194.018C454.261 193.822 453.911 193.529 453.65 193.138C453.39 192.731 453.259 192.226 453.259 191.623V183.047H451.525V181.362H453.259V177.11H455.409V181.362H458.268V183.047H455.409V190.964C455.442 191.42 455.597 191.762 455.874 191.99C456.15 192.202 456.476 192.307 456.851 192.307C457.274 192.307 457.665 192.234 458.024 192.088C458.382 191.941 458.618 191.835 458.732 191.77L459.245 193.48ZM466.642 194.36C465.681 194.36 464.809 194.189 464.027 193.847C463.245 193.488 462.57 193.008 461.999 192.405C461.429 191.786 460.99 191.078 460.68 190.28C460.371 189.481 460.216 188.643 460.216 187.763C460.216 186.867 460.371 186.02 460.68 185.222C460.99 184.424 461.429 183.723 461.999 183.121C462.57 182.502 463.245 182.021 464.027 181.679C464.825 181.321 465.697 181.142 466.642 181.142C467.603 181.142 468.474 181.321 469.256 181.679C470.038 182.021 470.714 182.502 471.284 183.121C471.87 183.723 472.318 184.424 472.628 185.222C472.937 186.02 473.092 186.867 473.092 187.763C473.092 188.643 472.937 189.481 472.628 190.28C472.318 191.078 471.878 191.786 471.308 192.405C470.738 193.008 470.054 193.488 469.256 193.847C468.474 194.189 467.603 194.36 466.642 194.36ZM462.415 187.787C462.415 188.667 462.602 189.465 462.977 190.182C463.368 190.899 463.881 191.469 464.516 191.892C465.151 192.299 465.86 192.503 466.642 192.503C467.423 192.503 468.132 192.291 468.767 191.868C469.419 191.444 469.932 190.874 470.307 190.157C470.697 189.424 470.893 188.618 470.893 187.739C470.893 186.859 470.697 186.061 470.307 185.344C469.932 184.627 469.419 184.057 468.767 183.634C468.132 183.21 467.423 182.999 466.642 182.999C465.86 182.999 465.151 183.219 464.516 183.658C463.881 184.082 463.368 184.652 462.977 185.369C462.602 186.085 462.415 186.892 462.415 187.787ZM482.563 194.36C481.52 194.36 480.592 194.099 479.777 193.578C478.963 193.057 478.32 192.397 477.847 191.599V199.32H475.697V181.362H477.603V183.756C478.108 182.974 478.768 182.347 479.582 181.875C480.396 181.386 481.284 181.142 482.245 181.142C483.125 181.142 483.931 181.321 484.664 181.679C485.397 182.038 486.032 182.526 486.57 183.145C487.107 183.764 487.523 184.473 487.816 185.271C488.125 186.053 488.28 186.875 488.28 187.739C488.28 188.944 488.036 190.052 487.547 191.061C487.075 192.071 486.407 192.878 485.544 193.48C484.68 194.067 483.687 194.36 482.563 194.36ZM481.903 192.503C482.538 192.503 483.108 192.373 483.613 192.112C484.135 191.835 484.574 191.477 484.933 191.037C485.307 190.581 485.592 190.068 485.788 189.498C485.983 188.928 486.081 188.341 486.081 187.739C486.081 187.103 485.967 186.501 485.739 185.931C485.527 185.36 485.218 184.856 484.811 184.416C484.42 183.976 483.955 183.634 483.418 183.39C482.897 183.129 482.327 182.999 481.708 182.999C481.317 182.999 480.909 183.072 480.486 183.219C480.079 183.365 479.688 183.577 479.313 183.854C478.939 184.114 478.621 184.416 478.36 184.758C478.1 185.1 477.929 185.466 477.847 185.857V189.498C478.092 190.052 478.417 190.556 478.825 191.013C479.232 191.469 479.704 191.835 480.242 192.112C480.779 192.373 481.333 192.503 481.903 192.503ZM497.442 194.115V176.768H499.641V192.161H509.316V194.115H497.442ZM516.748 194.36C515.787 194.36 514.915 194.189 514.133 193.847C513.351 193.488 512.676 193.008 512.105 192.405C511.535 191.786 511.096 191.078 510.786 190.28C510.477 189.481 510.322 188.643 510.322 187.763C510.322 186.867 510.477 186.02 510.786 185.222C511.096 184.424 511.535 183.723 512.105 183.121C512.676 182.502 513.351 182.021 514.133 181.679C514.931 181.321 515.803 181.142 516.748 181.142C517.709 181.142 518.58 181.321 519.362 181.679C520.144 182.021 520.82 182.502 521.39 183.121C521.976 183.723 522.424 184.424 522.734 185.222C523.043 186.02 523.198 186.867 523.198 187.763C523.198 188.643 523.043 189.481 522.734 190.28C522.424 191.078 521.984 191.786 521.414 192.405C520.844 193.008 520.16 193.488 519.362 193.847C518.58 194.189 517.709 194.36 516.748 194.36ZM512.521 187.787C512.521 188.667 512.708 189.465 513.083 190.182C513.474 190.899 513.987 191.469 514.622 191.892C515.257 192.299 515.966 192.503 516.748 192.503C517.529 192.503 518.238 192.291 518.873 191.868C519.525 191.444 520.038 190.874 520.413 190.157C520.803 189.424 520.999 188.618 520.999 187.739C520.999 186.859 520.803 186.061 520.413 185.344C520.038 184.627 519.525 184.057 518.873 183.634C518.238 183.21 517.529 182.999 516.748 182.999C515.966 182.999 515.257 183.219 514.622 183.658C513.987 184.082 513.474 184.652 513.083 185.369C512.708 186.085 512.521 186.892 512.521 187.787ZM530.177 194.36C529.118 194.36 528.124 194.189 527.196 193.847C526.267 193.488 525.469 192.959 524.801 192.259L525.632 190.744C526.365 191.428 527.098 191.917 527.831 192.21C528.564 192.503 529.313 192.65 530.079 192.65C530.958 192.65 531.675 192.487 532.229 192.161C532.783 191.819 533.06 191.322 533.06 190.67C533.06 190.198 532.913 189.848 532.62 189.62C532.343 189.392 531.944 189.205 531.423 189.058C530.901 188.895 530.282 188.716 529.566 188.52C528.686 188.26 527.945 187.983 527.342 187.69C526.74 187.397 526.284 187.03 525.974 186.59C525.665 186.15 525.51 185.597 525.51 184.929C525.51 184.114 525.722 183.43 526.145 182.876C526.569 182.306 527.147 181.875 527.88 181.582C528.629 181.288 529.476 181.142 530.421 181.142C531.366 181.142 532.221 181.288 532.986 181.582C533.752 181.875 534.412 182.306 534.965 182.876L533.988 184.367C533.483 183.846 532.929 183.463 532.327 183.219C531.724 182.958 531.048 182.828 530.299 182.828C529.859 182.828 529.427 182.885 529.004 182.999C528.58 183.096 528.23 183.284 527.953 183.561C527.676 183.821 527.538 184.196 527.538 184.684C527.538 185.092 527.644 185.417 527.855 185.662C528.084 185.89 528.409 186.085 528.833 186.248C529.273 186.411 529.802 186.59 530.421 186.786C531.382 187.063 532.213 187.339 532.913 187.616C533.63 187.893 534.184 188.252 534.574 188.691C534.965 189.131 535.161 189.742 535.161 190.524C535.161 191.729 534.705 192.674 533.793 193.358C532.88 194.026 531.675 194.36 530.177 194.36ZM542.107 194.36C541.048 194.36 540.054 194.189 539.126 193.847C538.197 193.488 537.399 192.959 536.731 192.259L537.562 190.744C538.295 191.428 539.028 191.917 539.761 192.21C540.494 192.503 541.243 192.65 542.009 192.65C542.888 192.65 543.605 192.487 544.159 192.161C544.713 191.819 544.99 191.322 544.99 190.67C544.99 190.198 544.843 189.848 544.55 189.62C544.273 189.392 543.874 189.205 543.353 189.058C542.831 188.895 542.212 188.716 541.496 188.52C540.616 188.26 539.875 187.983 539.272 187.69C538.67 187.397 538.214 187.03 537.904 186.59C537.595 186.15 537.44 185.597 537.44 184.929C537.44 184.114 537.652 183.43 538.075 182.876C538.499 182.306 539.077 181.875 539.81 181.582C540.559 181.288 541.406 181.142 542.351 181.142C543.296 181.142 544.151 181.288 544.916 181.582C545.682 181.875 546.342 182.306 546.895 182.876L545.918 184.367C545.413 183.846 544.859 183.463 544.257 183.219C543.654 182.958 542.978 182.828 542.229 182.828C541.789 182.828 541.357 182.885 540.934 182.999C540.51 183.096 540.16 183.284 539.883 183.561C539.606 183.821 539.468 184.196 539.468 184.684C539.468 185.092 539.574 185.417 539.785 185.662C540.014 185.89 540.339 186.085 540.763 186.248C541.203 186.411 541.732 186.59 542.351 186.786C543.312 187.063 544.143 187.339 544.843 187.616C545.56 187.893 546.114 188.252 546.504 188.691C546.895 189.131 547.091 189.742 547.091 190.524C547.091 191.729 546.635 192.674 545.723 193.358C544.81 194.026 543.605 194.36 542.107 194.36Z" fill="white"/>
<rect x="628.671" y="171.134" width="30.5408" height="30.5408" rx="4.0721" stroke="#22E16E" stroke-width="2.03605"/>
<path d="M685.753 194.238C684.369 194.238 683.204 194.001 682.259 193.529C681.315 193.04 680.557 192.389 679.987 191.574C679.417 190.744 679.002 189.807 678.741 188.765C678.481 187.722 678.35 186.647 678.35 185.54V176.768H680.549V185.54C680.549 186.387 680.631 187.217 680.794 188.032C680.973 188.83 681.258 189.547 681.649 190.182C682.04 190.817 682.569 191.322 683.237 191.697C683.905 192.071 684.735 192.259 685.729 192.259C686.739 192.259 687.578 192.071 688.245 191.697C688.913 191.306 689.443 190.793 689.834 190.157C690.225 189.506 690.501 188.781 690.664 187.983C690.843 187.185 690.933 186.37 690.933 185.54V176.768H693.132V185.54C693.132 186.712 692.994 187.828 692.717 188.887C692.456 189.929 692.033 190.85 691.446 191.648C690.86 192.446 690.094 193.081 689.149 193.554C688.221 194.01 687.089 194.238 685.753 194.238ZM700.76 194.36C699.701 194.36 698.707 194.189 697.779 193.847C696.85 193.488 696.052 192.959 695.384 192.259L696.215 190.744C696.948 191.428 697.681 191.917 698.414 192.21C699.147 192.503 699.896 192.65 700.662 192.65C701.541 192.65 702.258 192.487 702.812 192.161C703.366 191.819 703.643 191.322 703.643 190.67C703.643 190.198 703.496 189.848 703.203 189.62C702.926 189.392 702.527 189.205 702.006 189.058C701.484 188.895 700.865 188.716 700.149 188.52C699.269 188.26 698.528 187.983 697.925 187.69C697.323 187.397 696.867 187.03 696.557 186.59C696.248 186.15 696.093 185.597 696.093 184.929C696.093 184.114 696.305 183.43 696.728 182.876C697.152 182.306 697.73 181.875 698.463 181.582C699.212 181.288 700.059 181.142 701.004 181.142C701.949 181.142 702.804 181.288 703.569 181.582C704.335 181.875 704.995 182.306 705.548 182.876L704.571 184.367C704.066 183.846 703.512 183.463 702.91 183.219C702.307 182.958 701.631 182.828 700.882 182.828C700.442 182.828 700.01 182.885 699.587 182.999C699.163 183.096 698.813 183.284 698.536 183.561C698.259 183.821 698.121 184.196 698.121 184.684C698.121 185.092 698.227 185.417 698.438 185.662C698.667 185.89 698.992 186.085 699.416 186.248C699.856 186.411 700.385 186.59 701.004 186.786C701.965 187.063 702.796 187.339 703.496 187.616C704.213 187.893 704.767 188.252 705.157 188.691C705.548 189.131 705.744 189.742 705.744 190.524C705.744 191.729 705.288 192.674 704.376 193.358C703.463 194.026 702.258 194.36 700.76 194.36ZM713.96 194.36C712.999 194.36 712.119 194.189 711.321 193.847C710.539 193.488 709.855 193.008 709.269 192.405C708.699 191.786 708.251 191.078 707.925 190.28C707.616 189.481 707.461 188.634 707.461 187.739C707.461 186.533 707.738 185.434 708.292 184.44C708.845 183.447 709.611 182.648 710.588 182.046C711.582 181.443 712.714 181.142 713.984 181.142C715.271 181.142 716.387 181.451 717.332 182.07C718.293 182.673 719.034 183.471 719.555 184.465C720.093 185.442 720.361 186.501 720.361 187.641C720.361 187.804 720.353 187.967 720.337 188.129C720.337 188.276 720.329 188.39 720.313 188.472H709.733C709.798 189.302 710.026 190.043 710.417 190.695C710.825 191.33 711.346 191.835 711.981 192.21C712.616 192.568 713.3 192.747 714.033 192.747C714.815 192.747 715.548 192.552 716.232 192.161C716.933 191.77 717.413 191.257 717.674 190.622L719.531 191.135C719.254 191.754 718.838 192.307 718.285 192.796C717.747 193.285 717.104 193.668 716.354 193.944C715.621 194.221 714.823 194.36 713.96 194.36ZM709.66 186.981H718.358C718.293 186.15 718.057 185.417 717.649 184.782C717.242 184.147 716.721 183.65 716.086 183.292C715.45 182.933 714.75 182.754 713.984 182.754C713.235 182.754 712.543 182.933 711.908 183.292C711.272 183.65 710.751 184.147 710.344 184.782C709.953 185.417 709.725 186.15 709.66 186.981ZM744.275 194.115V180.873L738.558 191.061H737.214L731.472 180.873V194.115H729.273V176.768H731.594L737.873 188.032L744.177 176.768H746.474V194.115H744.275ZM749.165 190.426C749.165 189.612 749.393 188.911 749.849 188.325C750.321 187.722 750.965 187.258 751.779 186.932C752.594 186.607 753.538 186.444 754.613 186.444C755.183 186.444 755.786 186.492 756.421 186.59C757.057 186.672 757.618 186.802 758.107 186.981V186.053C758.107 185.075 757.814 184.31 757.228 183.756C756.641 183.186 755.81 182.901 754.735 182.901C754.035 182.901 753.359 183.031 752.708 183.292C752.072 183.536 751.396 183.894 750.68 184.367L749.898 182.852C750.728 182.282 751.559 181.858 752.39 181.582C753.221 181.288 754.084 181.142 754.98 181.142C756.609 181.142 757.895 181.598 758.84 182.51C759.785 183.406 760.257 184.66 760.257 186.273V191.672C760.257 191.933 760.306 192.128 760.404 192.259C760.518 192.373 760.697 192.438 760.941 192.454V194.115C760.73 194.148 760.542 194.172 760.379 194.189C760.233 194.205 760.111 194.213 760.013 194.213C759.508 194.213 759.125 194.075 758.865 193.798C758.62 193.521 758.482 193.228 758.449 192.918L758.4 192.112C757.847 192.829 757.122 193.382 756.226 193.773C755.33 194.164 754.442 194.36 753.563 194.36C752.716 194.36 751.958 194.189 751.29 193.847C750.623 193.488 750.101 193.016 749.727 192.43C749.352 191.827 749.165 191.159 749.165 190.426ZM757.472 191.33C757.667 191.102 757.822 190.874 757.936 190.646C758.05 190.402 758.107 190.198 758.107 190.035V188.447C757.602 188.252 757.073 188.105 756.519 188.007C755.965 187.893 755.42 187.836 754.882 187.836C753.791 187.836 752.903 188.056 752.219 188.496C751.551 188.919 751.217 189.506 751.217 190.255C751.217 190.662 751.323 191.061 751.535 191.452C751.763 191.827 752.089 192.136 752.512 192.381C752.952 192.625 753.489 192.747 754.125 192.747C754.792 192.747 755.428 192.617 756.03 192.356C756.633 192.079 757.114 191.737 757.472 191.33ZM770.439 183.243C769.364 183.259 768.411 183.536 767.58 184.074C766.766 184.595 766.187 185.32 765.845 186.248V194.115H763.695V181.362H765.699V184.318C766.138 183.438 766.717 182.73 767.433 182.192C768.166 181.639 768.932 181.329 769.73 181.264C769.893 181.264 770.031 181.264 770.145 181.264C770.259 181.264 770.357 181.272 770.439 181.288V183.243ZM781.562 194.115L777.14 187.91L774.721 190.182V194.115H772.571V176.28H774.721V187.934L781.318 181.386H783.639L778.557 186.664L783.883 194.115H781.562ZM790.718 194.36C789.757 194.36 788.877 194.189 788.079 193.847C787.297 193.488 786.613 193.008 786.027 192.405C785.456 191.786 785.009 191.078 784.683 190.28C784.373 189.481 784.219 188.634 784.219 187.739C784.219 186.533 784.495 185.434 785.049 184.44C785.603 183.447 786.369 182.648 787.346 182.046C788.34 181.443 789.472 181.142 790.742 181.142C792.029 181.142 793.145 181.451 794.089 182.07C795.05 182.673 795.791 183.471 796.313 184.465C796.85 185.442 797.119 186.501 797.119 187.641C797.119 187.804 797.111 187.967 797.095 188.129C797.095 188.276 797.086 188.39 797.07 188.472H786.491C786.556 189.302 786.784 190.043 787.175 190.695C787.582 191.33 788.103 191.835 788.739 192.21C789.374 192.568 790.058 192.747 790.791 192.747C791.573 192.747 792.306 192.552 792.99 192.161C793.69 191.77 794.171 191.257 794.431 190.622L796.288 191.135C796.011 191.754 795.596 192.307 795.042 192.796C794.505 193.285 793.861 193.668 793.112 193.944C792.379 194.221 791.581 194.36 790.718 194.36ZM786.417 186.981H795.116C795.05 186.15 794.814 185.417 794.407 184.782C794 184.147 793.479 183.65 792.843 183.292C792.208 182.933 791.508 182.754 790.742 182.754C789.993 182.754 789.301 182.933 788.665 183.292C788.03 183.65 787.509 184.147 787.102 184.782C786.711 185.417 786.483 186.15 786.417 186.981ZM805.987 193.48C805.807 193.562 805.563 193.668 805.254 193.798C804.944 193.928 804.586 194.042 804.178 194.14C803.771 194.238 803.34 194.287 802.884 194.287C802.362 194.287 801.882 194.197 801.442 194.018C801.002 193.822 800.652 193.529 800.391 193.138C800.131 192.731 800.001 192.226 800.001 191.623V183.047H798.266V181.362H800.001V177.11H802.151V181.362H805.009V183.047H802.151V190.964C802.183 191.42 802.338 191.762 802.615 191.99C802.892 192.202 803.217 192.307 803.592 192.307C804.016 192.307 804.407 192.234 804.765 192.088C805.123 191.941 805.359 191.835 805.473 191.77L805.987 193.48ZM814.501 194.115V176.768H821.733C822.499 176.768 823.199 176.931 823.834 177.257C824.47 177.566 825.023 177.99 825.496 178.527C825.968 179.049 826.335 179.643 826.595 180.311C826.856 180.963 826.986 181.63 826.986 182.315C826.986 183.259 826.774 184.163 826.351 185.027C825.927 185.874 825.333 186.566 824.567 187.103C823.802 187.625 822.906 187.885 821.88 187.885H816.7V194.115H814.501ZM816.7 185.931H821.758C822.36 185.931 822.881 185.768 823.321 185.442C823.777 185.116 824.128 184.676 824.372 184.123C824.632 183.569 824.763 182.966 824.763 182.315C824.763 181.63 824.616 181.02 824.323 180.482C824.03 179.928 823.647 179.497 823.175 179.187C822.702 178.878 822.181 178.723 821.611 178.723H816.7V185.931ZM836.125 183.243C835.05 183.259 834.097 183.536 833.266 184.074C832.452 184.595 831.874 185.32 831.532 186.248V194.115H829.382V181.362H831.385V184.318C831.825 183.438 832.403 182.73 833.12 182.192C833.853 181.639 834.618 181.329 835.417 181.264C835.579 181.264 835.718 181.264 835.832 181.264C835.946 181.264 836.044 181.272 836.125 181.288V183.243ZM838.258 194.115V181.362H840.408V194.115H838.258ZM838.258 178.967V176.28H840.408V178.967H838.258ZM849.533 194.36C848.571 194.36 847.692 194.189 846.894 193.847C846.112 193.488 845.428 193 844.841 192.381C844.271 191.762 843.823 191.053 843.498 190.255C843.188 189.457 843.033 188.61 843.033 187.714C843.033 186.509 843.302 185.409 843.84 184.416C844.377 183.422 845.135 182.632 846.112 182.046C847.089 181.443 848.221 181.142 849.508 181.142C850.762 181.142 851.854 181.427 852.782 181.997C853.727 182.551 854.427 183.3 854.883 184.245L852.782 184.904C852.456 184.302 852 183.837 851.414 183.512C850.827 183.17 850.176 182.999 849.459 182.999C848.677 182.999 847.961 183.202 847.309 183.609C846.674 184.017 846.169 184.579 845.794 185.295C845.42 185.996 845.232 186.802 845.232 187.714C845.232 188.61 845.42 189.424 845.794 190.157C846.185 190.874 846.698 191.444 847.334 191.868C847.985 192.291 848.702 192.503 849.484 192.503C849.989 192.503 850.469 192.413 850.925 192.234C851.398 192.055 851.805 191.819 852.147 191.526C852.505 191.216 852.749 190.882 852.88 190.524L854.981 191.159C854.72 191.778 854.321 192.332 853.784 192.821C853.263 193.293 852.635 193.668 851.902 193.944C851.186 194.221 850.396 194.36 849.533 194.36ZM862.942 194.36C861.981 194.36 861.101 194.189 860.303 193.847C859.521 193.488 858.837 193.008 858.251 192.405C857.681 191.786 857.233 191.078 856.907 190.28C856.597 189.481 856.443 188.634 856.443 187.739C856.443 186.533 856.72 185.434 857.273 184.44C857.827 183.447 858.593 182.648 859.57 182.046C860.564 181.443 861.696 181.142 862.966 181.142C864.253 181.142 865.369 181.451 866.314 182.07C867.275 182.673 868.016 183.471 868.537 184.465C869.074 185.442 869.343 186.501 869.343 187.641C869.343 187.804 869.335 187.967 869.319 188.129C869.319 188.276 869.311 188.39 869.294 188.472H858.715C858.78 189.302 859.008 190.043 859.399 190.695C859.806 191.33 860.328 191.835 860.963 192.21C861.598 192.568 862.282 192.747 863.015 192.747C863.797 192.747 864.53 192.552 865.214 192.161C865.914 191.77 866.395 191.257 866.656 190.622L868.512 191.135C868.236 191.754 867.82 192.307 867.266 192.796C866.729 193.285 866.085 193.668 865.336 193.944C864.603 194.221 863.805 194.36 862.942 194.36ZM858.642 186.981H867.34C867.275 186.15 867.038 185.417 866.631 184.782C866.224 184.147 865.703 183.65 865.067 183.292C864.432 182.933 863.732 182.754 862.966 182.754C862.217 182.754 861.525 182.933 860.889 183.292C860.254 183.65 859.733 184.147 859.326 184.782C858.935 185.417 858.707 186.15 858.642 186.981Z" fill="white"/>
<rect x="135.945" y="232.215" width="346.129" height="99.7666" rx="14.5743" stroke="#22E16E" stroke-width="2.03605"/>
<path d="M296.15 275.315C295.9 275.024 295.568 274.744 295.152 274.473C294.736 274.203 294.268 273.964 293.749 273.756C293.229 273.527 292.657 273.351 292.033 273.226C291.431 273.08 290.796 273.008 290.131 273.008C288.426 273.008 287.169 273.33 286.358 273.974C285.547 274.619 285.142 275.502 285.142 276.625C285.142 277.415 285.35 278.039 285.765 278.496C286.181 278.954 286.815 279.328 287.668 279.619C288.541 279.91 289.643 280.211 290.973 280.523C292.512 280.856 293.842 281.261 294.965 281.739C296.087 282.218 296.95 282.862 297.553 283.673C298.156 284.463 298.457 285.523 298.457 286.854C298.457 287.914 298.25 288.839 297.834 289.629C297.439 290.398 296.877 291.043 296.15 291.563C295.422 292.062 294.57 292.436 293.593 292.685C292.616 292.914 291.555 293.028 290.412 293.028C289.289 293.028 288.187 292.914 287.106 292.685C286.046 292.436 285.038 292.082 284.081 291.625C283.125 291.168 282.231 290.596 281.399 289.91L282.74 287.54C283.073 287.893 283.499 288.247 284.019 288.6C284.56 288.933 285.162 289.244 285.828 289.536C286.514 289.827 287.252 290.066 288.042 290.253C288.832 290.419 289.643 290.502 290.474 290.502C292.054 290.502 293.281 290.222 294.154 289.66C295.027 289.078 295.464 288.236 295.464 287.134C295.464 286.303 295.214 285.637 294.715 285.139C294.237 284.64 293.52 284.224 292.564 283.891C291.607 283.558 290.443 283.226 289.071 282.893C287.574 282.519 286.316 282.114 285.298 281.677C284.279 281.22 283.51 280.627 282.99 279.899C282.491 279.172 282.241 278.226 282.241 277.062C282.241 275.648 282.584 274.453 283.271 273.475C283.957 272.498 284.903 271.76 286.108 271.261C287.314 270.762 288.676 270.513 290.194 270.513C291.191 270.513 292.117 270.617 292.969 270.825C293.842 271.033 294.653 271.324 295.401 271.698C296.15 272.072 296.836 272.519 297.46 273.039L296.15 275.315ZM308.916 293.122C307.689 293.122 306.567 292.903 305.548 292.467C304.55 292.01 303.677 291.396 302.929 290.627C302.201 289.837 301.629 288.933 301.213 287.914C300.818 286.895 300.621 285.814 300.621 284.671C300.621 283.132 300.974 281.729 301.681 280.461C302.388 279.193 303.365 278.174 304.613 277.405C305.881 276.635 307.326 276.251 308.947 276.251C310.59 276.251 312.014 276.646 313.22 277.436C314.446 278.205 315.392 279.224 316.057 280.492C316.743 281.739 317.086 283.091 317.086 284.546C317.086 284.754 317.076 284.962 317.055 285.17C317.055 285.357 317.045 285.502 317.024 285.606H303.521C303.604 286.667 303.895 287.612 304.394 288.444C304.914 289.255 305.579 289.899 306.39 290.378C307.201 290.835 308.074 291.064 309.01 291.064C310.008 291.064 310.943 290.814 311.816 290.315C312.71 289.816 313.323 289.161 313.656 288.351L316.026 289.005C315.673 289.795 315.143 290.502 314.436 291.126C313.75 291.75 312.928 292.238 311.972 292.592C311.037 292.945 310.018 293.122 308.916 293.122ZM303.428 283.704H314.529C314.446 282.644 314.145 281.708 313.625 280.897C313.105 280.087 312.44 279.453 311.629 278.995C310.818 278.538 309.924 278.309 308.947 278.309C307.991 278.309 307.107 278.538 306.297 278.995C305.486 279.453 304.82 280.087 304.301 280.897C303.802 281.708 303.511 282.644 303.428 283.704ZM320.199 270.045H322.944V288.6C322.944 289.494 323.068 290.045 323.318 290.253C323.567 290.461 323.869 290.565 324.222 290.565C324.659 290.565 325.074 290.523 325.469 290.44C325.864 290.336 326.197 290.232 326.467 290.128L326.904 292.373C326.447 292.56 325.906 292.716 325.282 292.841C324.659 292.966 324.108 293.028 323.63 293.028C322.569 293.028 321.727 292.727 321.104 292.124C320.501 291.521 320.199 290.679 320.199 289.598V270.045ZM329.122 270.045H331.866V288.6C331.866 289.494 331.991 290.045 332.241 290.253C332.49 290.461 332.792 290.565 333.145 290.565C333.582 290.565 333.997 290.523 334.392 290.44C334.787 290.336 335.12 290.232 335.39 290.128L335.827 292.373C335.37 292.56 334.829 292.716 334.205 292.841C333.582 292.966 333.031 293.028 332.553 293.028C331.492 293.028 330.65 292.727 330.027 292.124C329.424 291.521 329.122 290.679 329.122 289.598V270.045Z" fill="white"/>
<rect x="541.12" y="232.215" width="346.129" height="99.7666" rx="14.5743" stroke="#22E16E" stroke-width="2.03605"/>
<path d="M694.127 287.573C694.127 288.716 693.836 289.714 693.254 290.567C692.672 291.419 691.882 292.084 690.884 292.562C689.907 293.041 688.826 293.28 687.641 293.28H677.132V271.139H688.14C689.179 271.139 690.073 271.419 690.822 271.981C691.591 272.521 692.173 273.228 692.568 274.101C692.984 274.953 693.192 275.847 693.192 276.783C693.192 277.864 692.911 278.883 692.35 279.839C691.809 280.775 691.03 281.471 690.011 281.928C691.279 282.303 692.277 282.999 693.005 284.018C693.753 285.016 694.127 286.201 694.127 287.573ZM691.289 287.074C691.289 286.388 691.134 285.754 690.822 285.172C690.531 284.59 690.125 284.122 689.606 283.768C689.107 283.415 688.524 283.238 687.859 283.238H679.938V290.847H687.641C688.327 290.847 688.94 290.671 689.481 290.317C690.042 289.964 690.479 289.506 690.791 288.945C691.123 288.363 691.289 287.739 691.289 287.074ZM679.938 273.571V280.962H686.986C687.651 280.962 688.233 280.795 688.732 280.463C689.252 280.13 689.657 279.683 689.949 279.122C690.26 278.561 690.416 277.947 690.416 277.282C690.416 276.575 690.271 275.951 689.98 275.411C689.709 274.85 689.325 274.403 688.826 274.07C688.348 273.737 687.797 273.571 687.173 273.571H679.938ZM697.461 286.762V277.001H700.205V286.232C700.205 287.895 700.496 289.142 701.078 289.974C701.66 290.806 702.523 291.221 703.667 291.221C704.415 291.221 705.132 291.066 705.818 290.754C706.525 290.421 707.159 289.953 707.721 289.35C708.282 288.747 708.719 288.03 709.03 287.199V277.001H711.775V290.161C711.775 290.494 711.837 290.743 711.962 290.91C712.107 291.055 712.336 291.138 712.648 291.159V293.28C712.336 293.321 712.086 293.342 711.899 293.342C711.733 293.363 711.567 293.373 711.4 293.373C710.881 293.373 710.434 293.217 710.059 292.905C709.685 292.573 709.488 292.167 709.467 291.689L709.405 289.787C708.698 290.993 707.741 291.928 706.536 292.594C705.351 293.259 704.051 293.592 702.638 293.592C700.933 293.592 699.644 293.02 698.771 291.876C697.897 290.712 697.461 289.007 697.461 286.762ZM717.094 297.708C717.365 297.729 717.635 297.749 717.905 297.77C718.175 297.812 718.383 297.833 718.529 297.833C718.861 297.833 719.152 297.718 719.402 297.49C719.651 297.261 719.922 296.814 720.213 296.149C720.525 295.504 720.92 294.548 721.398 293.28L714.506 277.001H717.406L722.895 290.504L727.853 277.001H730.566L722.645 297.552C722.458 298.03 722.177 298.477 721.803 298.893C721.45 299.329 720.992 299.673 720.431 299.922C719.87 300.171 719.194 300.296 718.404 300.296C718.217 300.296 718.019 300.286 717.812 300.265C717.624 300.244 717.385 300.203 717.094 300.14V297.708Z" fill="white"/>
</svg>
