<svg width="936" height="371" viewBox="0 0 936 371" fill="none" xmlns="http://www.w3.org/2000/svg">
<rect width="935.443" height="371" fill="#121212"/>
<path d="M132.984 75.4324C132.767 75.1783 132.476 74.9333 132.113 74.6974C131.75 74.4615 131.342 74.2528 130.888 74.0714C130.435 73.8718 129.936 73.7175 129.391 73.6086C128.865 73.4816 128.312 73.4181 127.731 73.4181C126.243 73.4181 125.145 73.6994 124.437 74.2619C123.73 74.8245 123.376 75.5957 123.376 76.5756C123.376 77.2652 123.557 77.8096 123.92 78.2088C124.283 78.608 124.836 78.9346 125.581 79.1887C126.343 79.4427 127.304 79.7059 128.466 79.9781C129.809 80.2684 130.97 80.6223 131.95 81.0396C132.93 81.457 133.683 82.0195 134.209 82.7273C134.735 83.4168 134.999 84.3423 134.999 85.5037C134.999 86.4291 134.817 87.2367 134.454 87.9262C134.109 88.5976 133.619 89.1602 132.984 89.6138C132.349 90.0494 131.605 90.376 130.752 90.5938C129.899 90.7934 128.974 90.8932 127.976 90.8932C126.996 90.8932 126.034 90.7934 125.091 90.5938C124.165 90.376 123.285 90.0675 122.45 89.6683C121.615 89.2691 120.835 88.77 120.109 88.1712L121.28 86.1025C121.57 86.411 121.942 86.7195 122.396 87.028C122.868 87.3183 123.394 87.5905 123.975 87.8446C124.573 88.0986 125.218 88.3073 125.907 88.4706C126.597 88.6158 127.304 88.6884 128.03 88.6884C129.409 88.6884 130.48 88.4434 131.242 87.9534C132.004 87.4453 132.385 86.7104 132.385 85.7486C132.385 85.0228 132.168 84.4421 131.732 84.0066C131.315 83.5711 130.689 83.2081 129.854 82.9178C129.019 82.6274 128.003 82.3371 126.805 82.0468C125.499 81.7201 124.401 81.3663 123.512 80.9852C122.623 80.586 121.951 80.0688 121.498 79.4337C121.062 78.7985 120.844 77.9729 120.844 76.9567C120.844 75.7227 121.144 74.6793 121.743 73.8264C122.341 72.9735 123.167 72.3293 124.22 71.8938C125.272 71.4583 126.461 71.2405 127.785 71.2405C128.656 71.2405 129.464 71.3313 130.208 71.5127C130.97 71.6942 131.678 71.9482 132.331 72.2749C132.984 72.6015 133.583 72.9917 134.127 73.4453L132.984 75.4324ZM155.216 76.4939H157.53L151.487 90.7026H149.391L146.642 84.0066L143.92 90.7026H141.824L135.781 76.4939H138.068L142.967 88.3345L145.254 82.5095L142.858 76.5212H144.954L146.642 81.0396L148.329 76.5212H150.425L148.057 82.5095L150.344 88.3345L155.216 76.4939ZM158.308 86.5925C158.308 85.6851 158.562 84.9048 159.07 84.2516C159.596 83.5801 160.313 83.063 161.22 82.7C162.128 82.3371 163.18 82.1556 164.378 82.1556C165.013 82.1556 165.685 82.2101 166.392 82.319C167.1 82.4097 167.726 82.5549 168.27 82.7545V81.7201C168.27 80.6313 167.944 79.7784 167.29 79.1615C166.637 78.5263 165.712 78.2088 164.514 78.2088C163.734 78.2088 162.981 78.3539 162.255 78.6443C161.547 78.9165 160.794 79.3157 159.996 79.842L159.125 78.1543C160.05 77.5192 160.976 77.0474 161.901 76.7389C162.826 76.4123 163.788 76.249 164.786 76.249C166.601 76.249 168.034 76.7571 169.087 77.7733C170.139 78.7713 170.666 80.1686 170.666 81.9651V87.9807C170.666 88.271 170.72 88.4888 170.829 88.6339C170.956 88.761 171.156 88.8335 171.428 88.8517V90.7026C171.192 90.7389 170.983 90.7661 170.802 90.7843C170.639 90.8024 170.502 90.8115 170.394 90.8115C169.831 90.8115 169.405 90.6573 169.114 90.3488C168.842 90.0403 168.688 89.7137 168.651 89.3689L168.597 88.4706C167.98 89.2691 167.173 89.886 166.174 90.3216C165.176 90.7571 164.187 90.9748 163.208 90.9748C162.264 90.9748 161.42 90.7843 160.676 90.4032C159.932 90.004 159.351 89.4777 158.934 88.8245C158.517 88.1531 158.308 87.409 158.308 86.5925ZM167.563 87.5996C167.78 87.3455 167.953 87.0915 168.08 86.8374C168.207 86.5652 168.27 86.3384 168.27 86.1569V84.3877C167.708 84.1699 167.118 84.0066 166.501 83.8977C165.884 83.7707 165.276 83.7072 164.677 83.7072C163.462 83.7072 162.473 83.9521 161.71 84.4421C160.966 84.9139 160.594 85.5672 160.594 86.4019C160.594 86.8556 160.712 87.3002 160.948 87.7357C161.202 88.1531 161.565 88.4978 162.037 88.77C162.527 89.0422 163.126 89.1783 163.834 89.1783C164.578 89.1783 165.285 89.0332 165.957 88.7428C166.628 88.4343 167.163 88.0532 167.563 87.5996ZM182.145 90.9748C180.983 90.9748 179.949 90.6845 179.042 90.1038C178.134 89.5231 177.417 88.7882 176.891 87.899V96.5004H174.496V76.4939H176.619V79.1615C177.182 78.2904 177.916 77.5918 178.824 77.0655C179.731 76.5212 180.72 76.249 181.791 76.249C182.771 76.249 183.669 76.4486 184.486 76.8478C185.302 77.247 186.01 77.7914 186.609 78.481C187.207 79.1705 187.67 79.9599 187.997 80.8491C188.342 81.7201 188.514 82.6365 188.514 83.5983C188.514 84.9411 188.242 86.1751 187.697 87.3002C187.171 88.4253 186.427 89.3235 185.465 89.9949C184.504 90.6482 183.397 90.9748 182.145 90.9748ZM181.41 88.9061C182.117 88.9061 182.753 88.761 183.315 88.4706C183.896 88.1621 184.386 87.7629 184.785 87.2729C185.202 86.7648 185.52 86.1932 185.738 85.5581C185.955 84.923 186.064 84.2697 186.064 83.5983C186.064 82.8906 185.937 82.2192 185.683 81.584C185.447 80.9489 185.102 80.3864 184.649 79.8964C184.213 79.4064 183.696 79.0254 183.097 78.7532C182.517 78.4628 181.881 78.3177 181.192 78.3177C180.756 78.3177 180.303 78.3993 179.831 78.5626C179.377 78.726 178.942 78.9619 178.524 79.2703C178.107 79.5607 177.753 79.8964 177.463 80.2775C177.172 80.6586 176.982 81.0668 176.891 81.5024V85.5581C177.163 86.1751 177.526 86.7376 177.98 87.2457C178.434 87.7538 178.96 88.1621 179.559 88.4706C180.158 88.761 180.775 88.9061 181.41 88.9061Z" fill="#828282"/>
<path d="M199.165 75.7759L205.516 86.6638L211.867 75.7759" stroke="#828282" stroke-width="1.81465" stroke-linecap="round"/>
<path d="M267.697 91.2197V71.8937H270.147V89.0421H280.926V91.2197H267.697ZM283.212 91.2197V77.011H285.608V91.2197H283.212ZM283.212 74.3435V71.3493H285.608V74.3435H283.212ZM310.908 91.2197H308.512V83.2716C308.512 81.7836 308.267 80.6857 307.777 79.978C307.305 79.2703 306.598 78.9164 305.654 78.9164C304.692 78.9164 303.821 79.2703 303.041 79.978C302.261 80.6675 301.707 81.5658 301.381 82.6727V91.2197H298.985V83.2716C298.985 81.7654 298.749 80.6675 298.278 79.978C297.806 79.2703 297.098 78.9164 296.154 78.9164C295.211 78.9164 294.34 79.2612 293.541 79.9508C292.761 80.6222 292.208 81.5204 291.881 82.6455V91.2197H289.486V77.011H291.663V80.0596C292.244 79.0071 292.997 78.1996 293.922 77.6371C294.848 77.0564 295.891 76.766 297.053 76.766C298.232 76.766 299.176 77.0927 299.884 77.746C300.591 78.3811 301.027 79.2067 301.19 80.223C301.825 79.0979 302.596 78.245 303.504 77.6643C304.411 77.0655 305.445 76.766 306.607 76.766C307.423 76.766 308.104 76.9203 308.648 77.2288C309.211 77.5191 309.655 77.9365 309.982 78.4809C310.309 79.0071 310.545 79.6332 310.69 80.3591C310.835 81.0849 310.908 81.8743 310.908 82.7272V91.2197ZM314.632 91.2197V77.011H317.027V91.2197H314.632ZM314.632 74.3435V71.3493H317.027V74.3435H314.632ZM328.255 90.512C328.055 90.6027 327.783 90.7207 327.438 90.8659C327.093 91.011 326.694 91.1381 326.24 91.2469C325.787 91.3558 325.306 91.4103 324.798 91.4103C324.217 91.4103 323.682 91.3105 323.192 91.1108C322.702 90.8931 322.312 90.5665 322.021 90.1309C321.731 89.6773 321.586 89.1147 321.586 88.4433V78.8892H319.653V77.011H321.586V72.2748H323.981V77.011H327.166V78.8892H323.981V87.7084C324.017 88.2165 324.19 88.5976 324.498 88.8516C324.807 89.0875 325.17 89.2055 325.587 89.2055C326.059 89.2055 326.494 89.1238 326.894 88.9605C327.293 88.7972 327.556 88.6792 327.683 88.6066L328.255 90.512Z" fill="#22E16E"/>
<path d="M405.781 74.0713H399.113V91.2197H396.663V74.0713H389.994V71.8937H405.781V74.0713ZM413.49 79.1069C412.293 79.1251 411.231 79.4336 410.305 80.0324C409.398 80.6131 408.754 81.4206 408.373 82.455V91.2197H405.978V77.011H408.21V80.3046C408.7 79.3247 409.344 78.5353 410.142 77.9365C410.959 77.3195 411.812 76.9747 412.701 76.9021C412.882 76.9021 413.037 76.9021 413.164 76.9021C413.291 76.9021 413.399 76.9112 413.49 76.9294V79.1069ZM414.75 87.1095C414.75 86.2022 415.004 85.4219 415.512 84.7686C416.038 84.0972 416.755 83.5801 417.662 83.2171C418.57 82.8542 419.622 82.6727 420.82 82.6727C421.455 82.6727 422.126 82.7272 422.834 82.836C423.542 82.9268 424.168 83.072 424.712 83.2716V82.2372C424.712 81.1484 424.386 80.2955 423.732 79.6786C423.079 79.0434 422.154 78.7259 420.956 78.7259C420.176 78.7259 419.423 78.871 418.697 79.1614C417.989 79.4336 417.236 79.8328 416.438 80.3591L415.567 78.6714C416.492 78.0363 417.417 77.5645 418.343 77.256C419.268 76.9294 420.23 76.766 421.228 76.766C423.043 76.766 424.476 77.2741 425.529 78.2904C426.581 79.2884 427.108 80.6857 427.108 82.4822V88.4978C427.108 88.7881 427.162 89.0059 427.271 89.151C427.398 89.2781 427.598 89.3506 427.87 89.3688V91.2197C427.634 91.256 427.425 91.2832 427.244 91.3014C427.08 91.3195 426.944 91.3286 426.836 91.3286C426.273 91.3286 425.847 91.1744 425.556 90.8659C425.284 90.5574 425.13 90.2307 425.093 89.886L425.039 88.9877C424.422 89.7862 423.615 90.4031 422.616 90.8387C421.618 91.2742 420.629 91.4919 419.649 91.4919C418.706 91.4919 417.862 91.3014 417.118 90.9203C416.374 90.5211 415.793 89.9948 415.376 89.3416C414.959 88.6701 414.75 87.9261 414.75 87.1095ZM424.005 88.1167C424.222 87.8626 424.395 87.6086 424.522 87.3545C424.649 87.0823 424.712 86.8555 424.712 86.674V84.9047C424.15 84.687 423.56 84.5237 422.943 84.4148C422.326 84.2878 421.718 84.2243 421.119 84.2243C419.904 84.2243 418.915 84.4692 418.152 84.9592C417.408 85.431 417.036 86.0843 417.036 86.919C417.036 87.3727 417.154 87.8173 417.39 88.2528C417.644 88.6701 418.007 89.0149 418.479 89.2871C418.969 89.5593 419.568 89.6954 420.276 89.6954C421.02 89.6954 421.727 89.5502 422.399 89.2599C423.07 88.9514 423.605 88.5703 424.005 88.1167ZM443.268 91.2197H440.873V83.2716C440.873 81.7654 440.637 80.6675 440.165 79.978C439.712 79.2703 439.013 78.9164 438.069 78.9164C437.416 78.9164 436.763 79.0797 436.11 79.4064C435.474 79.733 434.903 80.1776 434.395 80.7401C433.905 81.2845 433.551 81.9196 433.333 82.6455V91.2197H430.938V77.011H433.115V80.0596C433.496 79.3882 433.986 78.8075 434.585 78.3176C435.184 77.8276 435.865 77.4465 436.627 77.1743C437.389 76.9021 438.187 76.766 439.022 76.766C439.839 76.766 440.519 76.9203 441.064 77.2288C441.626 77.5191 442.062 77.9365 442.37 78.4809C442.697 79.0071 442.924 79.6332 443.051 80.3591C443.196 81.0849 443.268 81.8743 443.268 82.7272V91.2197ZM451.866 91.4919C450.686 91.4919 449.579 91.3014 448.545 90.9203C447.51 90.5211 446.621 89.9313 445.877 89.151L446.803 87.4634C447.619 88.2256 448.436 88.77 449.252 89.0966C450.069 89.4232 450.904 89.5865 451.757 89.5865C452.737 89.5865 453.535 89.4051 454.152 89.0421C454.769 88.6611 455.077 88.1076 455.077 87.3817C455.077 86.8555 454.914 86.4653 454.588 86.2113C454.279 85.9572 453.834 85.7486 453.254 85.5852C452.673 85.4038 451.983 85.2042 451.185 84.9864C450.205 84.6961 449.379 84.3876 448.708 84.0609C448.037 83.7343 447.529 83.326 447.184 82.836C446.839 82.3461 446.667 81.7291 446.667 80.9851C446.667 80.0778 446.902 79.3156 447.374 78.6986C447.846 78.0635 448.49 77.5826 449.307 77.256C450.142 76.9294 451.085 76.766 452.138 76.766C453.19 76.766 454.143 76.9294 454.996 77.256C455.849 77.5826 456.584 78.0635 457.201 78.6986L456.112 80.3591C455.549 79.7784 454.932 79.3519 454.261 79.0797C453.589 78.7894 452.836 78.6442 452.002 78.6442C451.512 78.6442 451.031 78.7077 450.559 78.8347C450.087 78.9436 449.697 79.1523 449.389 79.4608C449.08 79.7511 448.926 80.1685 448.926 80.7129C448.926 81.1666 449.044 81.5295 449.28 81.8017C449.534 82.0557 449.897 82.2735 450.368 82.455C450.858 82.6364 451.448 82.836 452.138 83.0538C453.208 83.3623 454.134 83.6708 454.914 83.9793C455.713 84.2878 456.33 84.687 456.765 85.1769C457.201 85.6669 457.418 86.3474 457.418 87.2184C457.418 88.5613 456.91 89.6138 455.894 90.3759C454.878 91.1199 453.535 91.4919 451.866 91.4919ZM461.046 91.2197V78.8892H459.114V77.011H461.046V76.7116C461.046 75.5502 461.219 74.5522 461.563 73.7174C461.926 72.8645 462.434 72.2113 463.088 71.7576C463.741 71.304 464.512 71.0771 465.401 71.0771C465.964 71.0771 466.517 71.1588 467.062 71.3221C467.606 71.4673 468.096 71.676 468.532 71.9482L467.933 73.7174C467.679 73.536 467.361 73.3908 466.98 73.2819C466.617 73.173 466.254 73.1186 465.891 73.1186C465.111 73.1186 464.503 73.4271 464.068 74.0441C463.65 74.6429 463.442 75.5049 463.442 76.6299V77.011H467.225V78.8892H463.442V91.2197H461.046ZM475.556 91.4919C474.486 91.4919 473.506 91.3014 472.617 90.9203C471.746 90.5211 470.984 89.9858 470.33 89.3143C469.695 88.6248 469.196 87.8354 468.833 86.9462C468.488 86.057 468.316 85.1134 468.316 84.1154C468.316 82.7725 468.625 81.5476 469.242 80.4407C469.858 79.3338 470.711 78.4446 471.8 77.7732C472.907 77.1018 474.168 76.766 475.584 76.766C477.017 76.766 478.26 77.1108 479.313 77.8004C480.383 78.4718 481.209 79.361 481.79 80.4679C482.389 81.5567 482.688 82.7362 482.688 84.0065C482.688 84.188 482.679 84.3694 482.661 84.5509C482.661 84.7142 482.652 84.8412 482.634 84.932H470.847C470.92 85.8574 471.174 86.6831 471.61 87.409C472.063 88.1167 472.644 88.6792 473.352 89.0966C474.059 89.4958 474.822 89.6954 475.638 89.6954C476.509 89.6954 477.326 89.4777 478.088 89.0421C478.868 88.6066 479.404 88.035 479.694 87.3273L481.763 87.8989C481.454 88.5885 480.991 89.2055 480.374 89.7499C479.776 90.2943 479.059 90.7207 478.224 91.0292C477.407 91.3377 476.518 91.4919 475.556 91.4919ZM470.766 83.2716H480.456C480.383 82.3461 480.12 81.5295 479.667 80.8218C479.213 80.1141 478.632 79.5606 477.925 79.1614C477.217 78.7622 476.437 78.5625 475.584 78.5625C474.749 78.5625 473.978 78.7622 473.27 79.1614C472.562 79.5606 471.982 80.1141 471.528 80.8218C471.092 81.5295 470.838 82.3461 470.766 83.2716ZM492.863 79.1069C491.666 79.1251 490.604 79.4336 489.679 80.0324C488.771 80.6131 488.127 81.4206 487.746 82.455V91.2197H485.351V77.011H487.583V80.3046C488.073 79.3247 488.717 78.5353 489.515 77.9365C490.332 77.3195 491.185 76.9747 492.074 76.9021C492.255 76.9021 492.41 76.9021 492.537 76.9021C492.664 76.9021 492.773 76.9112 492.863 76.9294V79.1069Z" fill="#828282"/>
<path d="M554.74 81.4206C554.74 80.2411 554.94 79.0888 555.339 77.9637C555.757 76.8205 556.355 75.7861 557.136 74.8607C557.934 73.917 558.905 73.173 560.048 72.6286C561.191 72.0661 562.489 71.7848 563.941 71.7848C565.665 71.7848 567.143 72.1841 568.377 72.9825C569.611 73.7628 570.528 74.7699 571.127 76.0039L569.194 77.256C568.813 76.4394 568.323 75.7952 567.724 75.3234C567.143 74.8334 566.508 74.4887 565.819 74.289C565.147 74.0894 564.485 73.9896 563.832 73.9896C562.761 73.9896 561.808 74.2074 560.974 74.6429C560.157 75.0784 559.468 75.6591 558.905 76.385C558.342 77.1108 557.916 77.9274 557.626 78.8347C557.353 79.7239 557.217 80.6222 557.217 81.5295C557.217 82.5276 557.381 83.4893 557.707 84.4148C558.052 85.3403 558.524 86.1569 559.123 86.8646C559.722 87.5723 560.429 88.1348 561.246 88.5522C562.062 88.9696 562.952 89.1782 563.913 89.1782C564.585 89.1782 565.274 89.0603 565.982 88.8244C566.69 88.5885 567.352 88.2256 567.969 87.7356C568.586 87.2275 569.076 86.5742 569.439 85.7758L571.48 86.8918C571.081 87.8536 570.464 88.6701 569.63 89.3416C568.795 90.013 567.86 90.5211 566.826 90.8659C565.81 91.2107 564.803 91.383 563.805 91.383C562.48 91.383 561.264 91.1018 560.157 90.5392C559.05 89.9585 558.088 89.1964 557.272 88.2528C556.473 87.291 555.847 86.2204 555.394 85.0408C554.958 83.8432 554.74 82.6364 554.74 81.4206ZM581.678 79.1069C580.48 79.1251 579.419 79.4336 578.493 80.0324C577.586 80.6131 576.942 81.4206 576.561 82.455V91.2197H574.165V77.011H576.397V80.3046C576.887 79.3247 577.532 78.5353 578.33 77.9365C579.147 77.3195 580 76.9747 580.889 76.9021C581.07 76.9021 581.224 76.9021 581.351 76.9021C581.478 76.9021 581.587 76.9112 581.678 76.9294V79.1069ZM589.914 91.4919C588.844 91.4919 587.873 91.3014 587.002 90.9203C586.131 90.5211 585.378 89.9858 584.743 89.3143C584.108 88.6248 583.618 87.8354 583.273 86.9462C582.928 86.057 582.756 85.1225 582.756 84.1426C582.756 83.1445 582.928 82.2009 583.273 81.3117C583.618 80.4226 584.108 79.6423 584.743 78.9708C585.378 78.2813 586.131 77.746 587.002 77.3649C587.891 76.9657 588.862 76.766 589.914 76.766C590.985 76.766 591.956 76.9657 592.827 77.3649C593.698 77.746 594.451 78.2813 595.086 78.9708C595.739 79.6423 596.238 80.4226 596.583 81.3117C596.928 82.2009 597.1 83.1445 597.1 84.1426C597.1 85.1225 596.928 86.057 596.583 86.9462C596.238 87.8354 595.749 88.6248 595.113 89.3143C594.478 89.9858 593.716 90.5211 592.827 90.9203C591.956 91.3014 590.985 91.4919 589.914 91.4919ZM585.205 84.1698C585.205 85.1497 585.414 86.0389 585.831 86.8373C586.267 87.6358 586.839 88.2709 587.546 88.7427C588.254 89.1964 589.043 89.4232 589.914 89.4232C590.785 89.4232 591.575 89.1873 592.283 88.7155C593.008 88.2437 593.58 87.6086 593.997 86.8101C594.433 85.9935 594.651 85.0953 594.651 84.1154C594.651 83.1355 594.433 82.2463 593.997 81.4478C593.58 80.6494 593.008 80.0143 592.283 79.5425C591.575 79.0706 590.785 78.8347 589.914 78.8347C589.043 78.8347 588.254 79.0797 587.546 79.5697C586.839 80.0415 586.267 80.6766 585.831 81.4751C585.414 82.2735 585.205 83.1718 585.205 84.1698ZM604.875 91.4919C603.696 91.4919 602.589 91.3014 601.554 90.9203C600.52 90.5211 599.631 89.9313 598.887 89.151L599.812 87.4634C600.629 88.2256 601.446 88.77 602.262 89.0966C603.079 89.4232 603.914 89.5865 604.766 89.5865C605.746 89.5865 606.545 89.4051 607.162 89.0421C607.779 88.6611 608.087 88.1076 608.087 87.3817C608.087 86.8555 607.924 86.4653 607.597 86.2113C607.289 85.9572 606.844 85.7486 606.263 85.5852C605.683 85.4038 604.993 85.2042 604.195 84.9864C603.215 84.6961 602.389 84.3876 601.718 84.0609C601.046 83.7343 600.538 83.326 600.193 82.836C599.849 82.3461 599.676 81.7291 599.676 80.9851C599.676 80.0778 599.912 79.3156 600.384 78.6986C600.856 78.0635 601.5 77.5826 602.317 77.256C603.151 76.9294 604.095 76.766 605.147 76.766C606.2 76.766 607.153 76.9294 608.006 77.256C608.858 77.5826 609.593 78.0635 610.21 78.6986L609.122 80.3591C608.559 79.7784 607.942 79.3519 607.271 79.0797C606.599 78.7894 605.846 78.6442 605.011 78.6442C604.521 78.6442 604.041 78.7077 603.569 78.8347C603.097 78.9436 602.707 79.1523 602.398 79.4608C602.09 79.7511 601.936 80.1685 601.936 80.7129C601.936 81.1666 602.053 81.5295 602.289 81.8017C602.543 82.0557 602.906 82.2735 603.378 82.455C603.868 82.6364 604.458 82.836 605.147 83.0538C606.218 83.3623 607.144 83.6708 607.924 83.9793C608.722 84.2878 609.339 84.687 609.775 85.1769C610.21 85.6669 610.428 86.3474 610.428 87.2184C610.428 88.5613 609.92 89.6138 608.904 90.3759C607.888 91.1199 606.545 91.4919 604.875 91.4919ZM618.166 91.4919C616.987 91.4919 615.88 91.3014 614.845 90.9203C613.811 90.5211 612.922 89.9313 612.178 89.151L613.103 87.4634C613.92 88.2256 614.736 88.77 615.553 89.0966C616.37 89.4232 617.204 89.5865 618.057 89.5865C619.037 89.5865 619.836 89.4051 620.453 89.0421C621.07 88.6611 621.378 88.1076 621.378 87.3817C621.378 86.8555 621.215 86.4653 620.888 86.2113C620.58 85.9572 620.135 85.7486 619.554 85.5852C618.974 85.4038 618.284 85.2042 617.486 84.9864C616.506 84.6961 615.68 84.3876 615.009 84.0609C614.337 83.7343 613.829 83.326 613.484 82.836C613.14 82.3461 612.967 81.7291 612.967 80.9851C612.967 80.0778 613.203 79.3156 613.675 78.6986C614.147 78.0635 614.791 77.5826 615.608 77.256C616.442 76.9294 617.386 76.766 618.438 76.766C619.491 76.766 620.444 76.9294 621.296 77.256C622.149 77.5826 622.884 78.0635 623.501 78.6986L622.412 80.3591C621.85 79.7784 621.233 79.3519 620.561 79.0797C619.89 78.7894 619.137 78.6442 618.302 78.6442C617.812 78.6442 617.331 78.7077 616.86 78.8347C616.388 78.9436 615.998 79.1523 615.689 79.4608C615.381 79.7511 615.226 80.1685 615.226 80.7129C615.226 81.1666 615.344 81.5295 615.58 81.8017C615.834 82.0557 616.197 82.2735 616.669 82.455C617.159 82.6364 617.749 82.836 618.438 83.0538C619.509 83.3623 620.434 83.6708 621.215 83.9793C622.013 84.2878 622.63 84.687 623.066 85.1769C623.501 85.6669 623.719 86.3474 623.719 87.2184C623.719 88.5613 623.211 89.6138 622.195 90.3759C621.178 91.1199 619.836 91.4919 618.166 91.4919ZM632.872 91.4919C631.802 91.4919 630.822 91.3014 629.933 90.9203C629.062 90.5211 628.3 89.9767 627.646 89.2871C627.011 88.5976 626.512 87.8082 626.149 86.919C625.804 86.0298 625.632 85.0862 625.632 84.0882C625.632 82.7453 625.931 81.5204 626.53 80.4135C627.129 79.3066 627.973 78.4264 629.062 77.7732C630.151 77.1018 631.412 76.766 632.845 76.766C634.243 76.766 635.458 77.0836 636.493 77.7187C637.545 78.3357 638.325 79.1705 638.834 80.223L636.493 80.9579C636.13 80.2865 635.622 79.7693 634.968 79.4064C634.315 79.0253 633.589 78.8347 632.791 78.8347C631.92 78.8347 631.121 79.0616 630.395 79.5152C629.688 79.9689 629.125 80.595 628.708 81.3934C628.29 82.1737 628.082 83.072 628.082 84.0882C628.082 85.0862 628.29 85.9935 628.708 86.8101C629.143 87.6086 629.715 88.2437 630.423 88.7155C631.149 89.1873 631.947 89.4232 632.818 89.4232C633.381 89.4232 633.916 89.3234 634.424 89.1238C634.95 88.9242 635.404 88.6611 635.785 88.3344C636.184 87.9897 636.456 87.6176 636.602 87.2184L638.942 87.9261C638.652 88.6157 638.208 89.2327 637.609 89.7771C637.028 90.3033 636.329 90.7207 635.513 91.0292C634.714 91.3377 633.834 91.4919 632.872 91.4919ZM653.987 91.2197H651.592V83.2716C651.592 81.8198 651.329 80.7311 650.802 80.0052C650.294 79.2793 649.559 78.9164 648.598 78.9164C647.981 78.9164 647.355 79.0797 646.719 79.4064C646.102 79.733 645.558 80.1776 645.086 80.7401C644.614 81.2845 644.27 81.9196 644.052 82.6455V91.2197H641.657V71.3493H644.052V80.0596C644.614 79.0434 645.377 78.245 646.338 77.6643C647.318 77.0655 648.371 76.766 649.496 76.766C650.349 76.766 651.056 76.9203 651.619 77.2288C652.2 77.5191 652.662 77.9365 653.007 78.4809C653.352 79.0253 653.597 79.6604 653.742 80.3863C653.905 81.094 653.987 81.8743 653.987 82.7272V91.2197ZM656.596 87.1095C656.596 86.2022 656.85 85.4219 657.358 84.7686C657.884 84.0972 658.601 83.5801 659.508 83.2171C660.416 82.8542 661.468 82.6727 662.666 82.6727C663.301 82.6727 663.973 82.7272 664.68 82.836C665.388 82.9268 666.014 83.072 666.558 83.2716V82.2372C666.558 81.1484 666.232 80.2955 665.578 79.6786C664.925 79.0434 664 78.7259 662.802 78.7259C662.022 78.7259 661.269 78.871 660.543 79.1614C659.835 79.4336 659.082 79.8328 658.284 80.3591L657.413 78.6714C658.338 78.0363 659.263 77.5645 660.189 77.256C661.114 76.9294 662.076 76.766 663.074 76.766C664.889 76.766 666.322 77.2741 667.375 78.2904C668.427 79.2884 668.954 80.6857 668.954 82.4822V88.4978C668.954 88.7881 669.008 89.0059 669.117 89.151C669.244 89.2781 669.444 89.3506 669.716 89.3688V91.2197C669.48 91.256 669.271 91.2832 669.09 91.3014C668.927 91.3195 668.79 91.3286 668.682 91.3286C668.119 91.3286 667.693 91.1744 667.402 90.8659C667.13 90.5574 666.976 90.2307 666.939 89.886L666.885 88.9877C666.268 89.7862 665.461 90.4031 664.462 90.8387C663.464 91.2742 662.475 91.4919 661.496 91.4919C660.552 91.4919 659.708 91.3014 658.964 90.9203C658.22 90.5211 657.639 89.9948 657.222 89.3416C656.805 88.6701 656.596 87.9261 656.596 87.1095ZM665.851 88.1167C666.068 87.8626 666.241 87.6086 666.368 87.3545C666.495 87.0823 666.558 86.8555 666.558 86.674V84.9047C665.996 84.687 665.406 84.5237 664.789 84.4148C664.172 84.2878 663.564 84.2243 662.965 84.2243C661.75 84.2243 660.761 84.4692 659.998 84.9592C659.254 85.431 658.882 86.0843 658.882 86.919C658.882 87.3727 659 87.8173 659.236 88.2528C659.49 88.6701 659.853 89.0149 660.325 89.2871C660.815 89.5593 661.414 89.6954 662.122 89.6954C662.866 89.6954 663.573 89.5502 664.245 89.2599C664.916 88.9514 665.451 88.5703 665.851 88.1167ZM672.784 91.2197V77.011H675.179V91.2197H672.784ZM672.784 74.3435V71.3493H675.179V74.3435H672.784ZM691.388 91.2197H688.992V83.2716C688.992 81.7654 688.756 80.6675 688.285 79.978C687.831 79.2703 687.132 78.9164 686.189 78.9164C685.535 78.9164 684.882 79.0797 684.229 79.4064C683.594 79.733 683.022 80.1776 682.514 80.7401C682.024 81.2845 681.67 81.9196 681.452 82.6455V91.2197H679.057V77.011H681.235V80.0596C681.616 79.3882 682.106 78.8075 682.705 78.3176C683.303 77.8276 683.984 77.4465 684.746 77.1743C685.508 76.9021 686.307 76.766 687.141 76.766C687.958 76.766 688.638 76.9203 689.183 77.2288C689.745 77.5191 690.181 77.9365 690.489 78.4809C690.816 79.0071 691.043 79.6332 691.17 80.3591C691.315 81.0849 691.388 81.8743 691.388 82.7272V91.2197Z" fill="#828282"/>
<rect x="745.646" y="49.9519" width="69.484" height="62.5357" rx="17.371" fill="#22E16E"/>
<path d="M777.368 89.7501L778.045 91.2721C778.247 91.7253 778.575 92.1103 778.991 92.3806C779.406 92.6507 779.891 92.7945 780.387 92.7943C780.883 92.7945 781.368 92.6507 781.784 92.3806C782.2 92.1103 782.528 91.7253 782.729 91.2721L783.406 89.7501C783.647 89.2098 784.052 88.7596 784.564 88.4632C785.079 88.1662 785.675 88.0395 786.266 88.1017L787.922 88.2779C788.415 88.3302 788.913 88.2381 789.354 88.0131C789.796 87.7882 790.163 87.4399 790.411 87.0105C790.659 86.5814 790.777 86.0895 790.751 85.5946C790.725 85.0997 790.556 84.6229 790.264 84.2221L789.284 82.8749C788.935 82.3916 788.748 81.8099 788.751 81.2137C788.751 80.6192 788.939 80.0399 789.289 79.559L790.269 78.2118C790.561 77.811 790.73 77.3343 790.756 76.8393C790.782 76.3444 790.664 75.8525 790.416 75.4234C790.168 74.994 789.801 74.6457 789.36 74.4208C788.918 74.1958 788.42 74.1038 787.928 74.1559L786.271 74.3322C785.68 74.3943 785.084 74.2678 784.569 73.9707C784.056 73.6727 783.651 73.22 783.411 72.6775L782.729 71.1553C782.528 70.7022 782.2 70.3171 781.784 70.0469C781.368 69.7767 780.883 69.633 780.387 69.6331C779.891 69.633 779.406 69.7767 778.991 70.0469C778.575 70.3171 778.247 70.7022 778.045 71.1553L777.368 72.6775C777.129 73.22 776.723 73.6727 776.21 73.9707C775.695 74.2678 775.099 74.3943 774.508 74.3322L772.847 74.1559C772.354 74.1038 771.856 74.1958 771.415 74.4208C770.973 74.6457 770.606 74.994 770.358 75.4234C770.11 75.8525 769.992 76.3444 770.018 76.8393C770.044 77.3343 770.213 77.811 770.505 78.2118L771.486 79.559C771.835 80.0399 772.023 80.6192 772.023 81.2137C772.023 81.8083 771.835 82.3876 771.486 82.8685L770.505 84.2157C770.213 84.6164 770.044 85.0932 770.018 85.5881C769.992 86.083 770.11 86.575 770.358 87.0041C770.606 87.4333 770.973 87.7812 771.415 88.0062C771.857 88.2311 772.354 88.3234 772.847 88.2714L774.503 88.0953C775.094 88.0331 775.69 88.1598 776.205 88.4568C776.72 88.754 777.127 89.2067 777.368 89.7501Z" stroke="black" stroke-width="2.60565" stroke-linecap="round" stroke-linejoin="round"/>
<rect x="119.976" y="164.823" width="28.5406" height="28.5406" rx="3.80542" fill="#22E16E" stroke="#22E16E" stroke-width="1.90271"/>
<path d="M178.321 172.487H172.727V186.872H170.672V172.487H165.078V170.661H178.321V172.487ZM177.059 183.424C177.059 182.663 177.272 182.009 177.698 181.461C178.139 180.897 178.741 180.464 179.502 180.159C180.263 179.855 181.146 179.702 182.15 179.702C182.683 179.702 183.246 179.748 183.84 179.839C184.434 179.916 184.959 180.037 185.415 180.205V179.337C185.415 178.424 185.141 177.708 184.593 177.191C184.045 176.658 183.269 176.392 182.265 176.392C181.61 176.392 180.978 176.513 180.369 176.757C179.776 176.985 179.144 177.32 178.474 177.762L177.744 176.346C178.52 175.813 179.296 175.418 180.073 175.159C180.849 174.885 181.656 174.748 182.493 174.748C184.015 174.748 185.218 175.174 186.1 176.026C186.983 176.864 187.425 178.036 187.425 179.543V184.589C187.425 184.832 187.47 185.015 187.562 185.137C187.668 185.243 187.836 185.304 188.064 185.319V186.872C187.866 186.902 187.691 186.925 187.539 186.94C187.402 186.956 187.288 186.963 187.196 186.963C186.724 186.963 186.367 186.834 186.123 186.575C185.895 186.316 185.766 186.042 185.735 185.753L185.689 185C185.172 185.669 184.495 186.187 183.657 186.552C182.82 186.917 181.991 187.1 181.169 187.1C180.377 187.1 179.669 186.94 179.045 186.621C178.421 186.286 177.934 185.844 177.584 185.296C177.234 184.733 177.059 184.109 177.059 183.424ZM184.822 184.269C185.004 184.056 185.149 183.843 185.256 183.63C185.362 183.401 185.415 183.211 185.415 183.059V181.575C184.944 181.392 184.449 181.255 183.931 181.164C183.414 181.057 182.904 181.004 182.402 181.004C181.382 181.004 180.552 181.209 179.913 181.62C179.289 182.016 178.977 182.564 178.977 183.264C178.977 183.645 179.076 184.018 179.273 184.383C179.487 184.733 179.791 185.022 180.187 185.251C180.598 185.479 181.1 185.593 181.694 185.593C182.318 185.593 182.911 185.471 183.475 185.228C184.038 184.969 184.487 184.649 184.822 184.269ZM199.04 186.872L194.907 181.072L192.647 183.196V186.872H190.637V170.204H192.647V181.095L198.812 174.976H200.981L196.231 179.908L201.209 186.872H199.04ZM207.596 187.1C206.698 187.1 205.876 186.94 205.13 186.621C204.399 186.286 203.76 185.837 203.212 185.274C202.679 184.695 202.26 184.033 201.956 183.287C201.667 182.541 201.522 181.75 201.522 180.913C201.522 179.786 201.781 178.759 202.298 177.83C202.816 176.902 203.531 176.156 204.445 175.593C205.373 175.029 206.431 174.748 207.618 174.748C208.821 174.748 209.864 175.037 210.746 175.615C211.645 176.179 212.337 176.924 212.824 177.853C213.327 178.766 213.578 179.756 213.578 180.821C213.578 180.973 213.57 181.126 213.555 181.278C213.555 181.415 213.547 181.521 213.532 181.598H203.646C203.706 182.374 203.92 183.066 204.285 183.675C204.665 184.269 205.153 184.741 205.746 185.091C206.34 185.426 206.979 185.593 207.664 185.593C208.395 185.593 209.08 185.411 209.719 185.045C210.374 184.68 210.823 184.2 211.066 183.607L212.801 184.086C212.543 184.665 212.154 185.182 211.637 185.639C211.135 186.096 210.533 186.453 209.833 186.712C209.148 186.971 208.402 187.1 207.596 187.1ZM203.577 180.205H211.705C211.645 179.428 211.424 178.743 211.043 178.15C210.663 177.556 210.176 177.092 209.582 176.757C208.988 176.422 208.334 176.255 207.618 176.255C206.918 176.255 206.271 176.422 205.678 176.757C205.084 177.092 204.597 177.556 204.216 178.15C203.851 178.743 203.638 179.428 203.577 180.205ZM221.906 186.872V170.661H228.664C229.38 170.661 230.034 170.813 230.628 171.117C231.222 171.407 231.739 171.802 232.181 172.305C232.622 172.792 232.964 173.347 233.208 173.971C233.452 174.58 233.573 175.204 233.573 175.844C233.573 176.727 233.375 177.571 232.98 178.378C232.584 179.17 232.028 179.817 231.313 180.319C230.597 180.806 229.76 181.05 228.801 181.05H223.961V186.872H221.906ZM223.961 179.223H228.687C229.25 179.223 229.737 179.071 230.148 178.766C230.575 178.462 230.902 178.051 231.13 177.533C231.374 177.016 231.496 176.453 231.496 175.844C231.496 175.204 231.359 174.634 231.085 174.131C230.811 173.614 230.453 173.21 230.011 172.921C229.57 172.632 229.083 172.487 228.55 172.487H223.961V179.223ZM242.114 176.711C241.109 176.727 240.219 176.985 239.442 177.488C238.681 177.975 238.141 178.652 237.821 179.52V186.872H235.812V174.953H237.684V177.716C238.095 176.894 238.636 176.232 239.305 175.73C239.99 175.212 240.706 174.923 241.452 174.862C241.604 174.862 241.733 174.862 241.84 174.862C241.946 174.862 242.038 174.87 242.114 174.885V176.711ZM249.023 187.1C248.124 187.1 247.31 186.94 246.579 186.621C245.849 186.286 245.217 185.837 244.684 185.274C244.152 184.695 243.741 184.033 243.451 183.287C243.162 182.541 243.018 181.757 243.018 180.935C243.018 180.098 243.162 179.307 243.451 178.561C243.741 177.815 244.152 177.16 244.684 176.597C245.217 176.019 245.849 175.57 246.579 175.25C247.325 174.915 248.14 174.748 249.023 174.748C249.921 174.748 250.735 174.915 251.466 175.25C252.196 175.57 252.828 176.019 253.361 176.597C253.909 177.16 254.327 177.815 254.616 178.561C254.906 179.307 255.05 180.098 255.05 180.935C255.05 181.757 254.906 182.541 254.616 183.287C254.327 184.033 253.916 184.695 253.384 185.274C252.851 185.837 252.211 186.286 251.466 186.621C250.735 186.94 249.921 187.1 249.023 187.1ZM245.072 180.958C245.072 181.78 245.248 182.526 245.598 183.196C245.963 183.866 246.442 184.398 247.036 184.794C247.63 185.175 248.292 185.365 249.023 185.365C249.753 185.365 250.415 185.167 251.009 184.771C251.618 184.375 252.097 183.843 252.447 183.173C252.813 182.488 252.995 181.735 252.995 180.913C252.995 180.091 252.813 179.345 252.447 178.675C252.097 178.005 251.618 177.472 251.009 177.077C250.415 176.681 249.753 176.483 249.023 176.483C248.292 176.483 247.63 176.689 247.036 177.1C246.442 177.495 245.963 178.028 245.598 178.698C245.248 179.368 245.072 180.121 245.072 180.958ZM257.924 176.529H256.303V174.953H257.924V174.702C257.924 174.108 258.015 173.538 258.198 172.99C258.38 172.426 258.654 171.917 259.02 171.46C259.385 171.003 259.842 170.646 260.39 170.387C260.938 170.113 261.584 169.976 262.33 169.976C262.893 169.976 263.411 170.037 263.883 170.158C264.355 170.28 264.773 170.432 265.139 170.615C265.519 170.798 265.831 170.98 266.075 171.163L265.207 172.647C264.918 172.388 264.522 172.168 264.02 171.985C263.533 171.802 263.008 171.711 262.444 171.711C261.866 171.711 261.387 171.856 261.006 172.145C260.641 172.434 260.367 172.807 260.184 173.264C260.017 173.705 259.933 174.162 259.933 174.634V174.953H266.029V186.872H264.02V176.529H259.933V186.872H257.924V176.529ZM275.445 186.278C275.278 186.354 275.049 186.453 274.76 186.575C274.471 186.697 274.136 186.803 273.755 186.895C273.375 186.986 272.972 187.032 272.545 187.032C272.058 187.032 271.609 186.948 271.198 186.78C270.787 186.598 270.46 186.324 270.216 185.959C269.973 185.578 269.851 185.106 269.851 184.543V176.529H268.23V174.953H269.851V170.98H271.86V174.953H274.532V176.529H271.86V183.926C271.891 184.353 272.035 184.672 272.294 184.885C272.553 185.083 272.857 185.182 273.207 185.182C273.603 185.182 273.969 185.114 274.303 184.977C274.638 184.84 274.859 184.741 274.966 184.68L275.445 186.278Z" fill="white"/>
<rect x="352.107" y="164.823" width="28.5406" height="28.5406" rx="3.80542" stroke="#22E16E" stroke-width="1.90271"/>
<path d="M408.282 174.063C408.1 173.85 407.856 173.644 407.552 173.446C407.247 173.248 406.905 173.073 406.524 172.921C406.144 172.754 405.725 172.624 405.268 172.533C404.827 172.426 404.363 172.373 403.876 172.373C402.627 172.373 401.707 172.609 401.113 173.081C400.519 173.553 400.222 174.2 400.222 175.022C400.222 175.6 400.375 176.057 400.679 176.392C400.984 176.727 401.448 177.001 402.072 177.214C402.711 177.427 403.518 177.647 404.492 177.876C405.619 178.119 406.593 178.416 407.415 178.766C408.237 179.116 408.868 179.588 409.31 180.182C409.751 180.76 409.972 181.537 409.972 182.511C409.972 183.287 409.82 183.964 409.515 184.543C409.226 185.106 408.815 185.578 408.282 185.959C407.75 186.324 407.125 186.598 406.41 186.78C405.695 186.948 404.918 187.032 404.081 187.032C403.259 187.032 402.452 186.948 401.661 186.78C400.885 186.598 400.146 186.339 399.446 186.004C398.746 185.669 398.091 185.251 397.483 184.748L398.464 183.013C398.708 183.272 399.02 183.531 399.4 183.789C399.796 184.033 400.238 184.261 400.725 184.474C401.227 184.688 401.767 184.863 402.346 185C402.924 185.121 403.518 185.182 404.127 185.182C405.284 185.182 406.182 184.977 406.821 184.566C407.46 184.14 407.78 183.523 407.78 182.716C407.78 182.107 407.597 181.62 407.232 181.255C406.882 180.89 406.357 180.585 405.657 180.342C404.956 180.098 404.104 179.855 403.099 179.611C402.003 179.337 401.082 179.04 400.337 178.721C399.591 178.386 399.028 177.952 398.647 177.419C398.282 176.886 398.099 176.194 398.099 175.341C398.099 174.306 398.35 173.431 398.852 172.716C399.355 172 400.047 171.46 400.93 171.095C401.813 170.729 402.81 170.547 403.921 170.547C404.652 170.547 405.329 170.623 405.953 170.775C406.593 170.927 407.186 171.14 407.734 171.414C408.282 171.688 408.785 172.015 409.241 172.396L408.282 174.063ZM418.297 186.278C418.129 186.354 417.901 186.453 417.612 186.575C417.323 186.697 416.988 186.803 416.607 186.895C416.227 186.986 415.823 187.032 415.397 187.032C414.91 187.032 414.461 186.948 414.05 186.78C413.639 186.598 413.312 186.324 413.068 185.959C412.825 185.578 412.703 185.106 412.703 184.543V176.529H411.082V174.953H412.703V170.98H414.712V174.953H417.384V176.529H414.712V183.926C414.743 184.353 414.887 184.672 415.146 184.885C415.405 185.083 415.709 185.182 416.059 185.182C416.455 185.182 416.82 185.114 417.155 184.977C417.49 184.84 417.711 184.741 417.817 184.68L418.297 186.278ZM425.209 187.1C424.311 187.1 423.496 186.94 422.766 186.621C422.035 186.286 421.403 185.837 420.871 185.274C420.338 184.695 419.927 184.033 419.638 183.287C419.349 182.541 419.204 181.757 419.204 180.935C419.204 180.098 419.349 179.307 419.638 178.561C419.927 177.815 420.338 177.16 420.871 176.597C421.403 176.019 422.035 175.57 422.766 175.25C423.512 174.915 424.326 174.748 425.209 174.748C426.107 174.748 426.921 174.915 427.652 175.25C428.383 175.57 429.014 176.019 429.547 176.597C430.095 177.16 430.514 177.815 430.803 178.561C431.092 179.307 431.237 180.098 431.237 180.935C431.237 181.757 431.092 182.541 430.803 183.287C430.514 184.033 430.103 184.695 429.57 185.274C429.037 185.837 428.398 186.286 427.652 186.621C426.921 186.94 426.107 187.1 425.209 187.1ZM421.259 180.958C421.259 181.78 421.434 182.526 421.784 183.196C422.149 183.866 422.629 184.398 423.222 184.794C423.816 185.175 424.478 185.365 425.209 185.365C425.94 185.365 426.602 185.167 427.195 184.771C427.804 184.375 428.284 183.843 428.634 183.173C428.999 182.488 429.182 181.735 429.182 180.913C429.182 180.091 428.999 179.345 428.634 178.675C428.284 178.005 427.804 177.472 427.195 177.077C426.602 176.681 425.94 176.483 425.209 176.483C424.478 176.483 423.816 176.689 423.222 177.1C422.629 177.495 422.149 178.028 421.784 178.698C421.434 179.368 421.259 180.121 421.259 180.958ZM440.087 187.1C439.113 187.1 438.245 186.857 437.484 186.37C436.723 185.882 436.122 185.266 435.681 184.52V191.735H433.671V174.953H435.452V177.191C435.924 176.46 436.541 175.874 437.302 175.433C438.063 174.976 438.892 174.748 439.79 174.748C440.612 174.748 441.366 174.915 442.051 175.25C442.736 175.585 443.33 176.042 443.832 176.62C444.334 177.198 444.722 177.861 444.996 178.606C445.285 179.337 445.43 180.106 445.43 180.913C445.43 182.039 445.202 183.074 444.745 184.018C444.304 184.962 443.68 185.715 442.873 186.278C442.066 186.826 441.138 187.1 440.087 187.1ZM439.471 185.365C440.064 185.365 440.597 185.243 441.069 185C441.556 184.741 441.967 184.406 442.302 183.995C442.652 183.569 442.919 183.089 443.101 182.556C443.284 182.024 443.375 181.476 443.375 180.913C443.375 180.319 443.269 179.756 443.056 179.223C442.858 178.69 442.568 178.218 442.188 177.807C441.823 177.396 441.389 177.077 440.886 176.848C440.399 176.605 439.867 176.483 439.288 176.483C438.923 176.483 438.542 176.552 438.147 176.689C437.766 176.826 437.401 177.023 437.051 177.282C436.7 177.526 436.404 177.807 436.16 178.127C435.917 178.447 435.757 178.789 435.681 179.154V182.556C435.909 183.074 436.213 183.546 436.594 183.972C436.974 184.398 437.416 184.741 437.918 185C438.421 185.243 438.938 185.365 439.471 185.365ZM453.992 186.872V170.661H456.047V185.045H465.088V186.872H453.992ZM472.033 187.1C471.135 187.1 470.321 186.94 469.59 186.621C468.86 186.286 468.228 185.837 467.695 185.274C467.162 184.695 466.751 184.033 466.462 183.287C466.173 182.541 466.028 181.757 466.028 180.935C466.028 180.098 466.173 179.307 466.462 178.561C466.751 177.815 467.162 177.16 467.695 176.597C468.228 176.019 468.86 175.57 469.59 175.25C470.336 174.915 471.15 174.748 472.033 174.748C472.931 174.748 473.746 174.915 474.476 175.25C475.207 175.57 475.839 176.019 476.372 176.597C476.92 177.16 477.338 177.815 477.627 178.561C477.917 179.307 478.061 180.098 478.061 180.935C478.061 181.757 477.917 182.541 477.627 183.287C477.338 184.033 476.927 184.695 476.394 185.274C475.862 185.837 475.222 186.286 474.476 186.621C473.746 186.94 472.931 187.1 472.033 187.1ZM468.083 180.958C468.083 181.78 468.258 182.526 468.608 183.196C468.974 183.866 469.453 184.398 470.047 184.794C470.641 185.175 471.303 185.365 472.033 185.365C472.764 185.365 473.426 185.167 474.02 184.771C474.629 184.375 475.108 183.843 475.458 183.173C475.824 182.488 476.006 181.735 476.006 180.913C476.006 180.091 475.824 179.345 475.458 178.675C475.108 178.005 474.629 177.472 474.02 177.077C473.426 176.681 472.764 176.483 472.033 176.483C471.303 176.483 470.641 176.689 470.047 177.1C469.453 177.495 468.974 178.028 468.608 178.698C468.258 179.368 468.083 180.121 468.083 180.958ZM484.583 187.1C483.593 187.1 482.665 186.94 481.797 186.621C480.93 186.286 480.184 185.791 479.56 185.137L480.336 183.721C481.021 184.36 481.706 184.817 482.391 185.091C483.076 185.365 483.776 185.502 484.492 185.502C485.313 185.502 485.983 185.35 486.501 185.045C487.018 184.726 487.277 184.261 487.277 183.652C487.277 183.211 487.14 182.884 486.866 182.671C486.607 182.458 486.234 182.282 485.747 182.145C485.26 181.993 484.682 181.826 484.012 181.643C483.19 181.4 482.497 181.141 481.934 180.867C481.371 180.593 480.945 180.25 480.656 179.839C480.366 179.428 480.222 178.911 480.222 178.287C480.222 177.526 480.42 176.886 480.815 176.369C481.211 175.836 481.752 175.433 482.437 175.159C483.137 174.885 483.928 174.748 484.811 174.748C485.694 174.748 486.493 174.885 487.209 175.159C487.924 175.433 488.54 175.836 489.058 176.369L488.145 177.762C487.673 177.275 487.155 176.917 486.592 176.689C486.029 176.445 485.397 176.323 484.697 176.323C484.286 176.323 483.883 176.376 483.487 176.483C483.091 176.574 482.764 176.749 482.505 177.008C482.246 177.252 482.117 177.602 482.117 178.058C482.117 178.439 482.216 178.743 482.414 178.972C482.627 179.185 482.931 179.368 483.327 179.52C483.738 179.672 484.233 179.839 484.811 180.022C485.709 180.281 486.486 180.54 487.14 180.798C487.81 181.057 488.327 181.392 488.693 181.803C489.058 182.214 489.241 182.785 489.241 183.515C489.241 184.642 488.814 185.525 487.962 186.164C487.11 186.788 485.983 187.1 484.583 187.1ZM495.732 187.1C494.742 187.1 493.814 186.94 492.946 186.621C492.078 186.286 491.332 185.791 490.708 185.137L491.485 183.721C492.17 184.36 492.855 184.817 493.54 185.091C494.225 185.365 494.925 185.502 495.64 185.502C496.462 185.502 497.132 185.35 497.649 185.045C498.167 184.726 498.426 184.261 498.426 183.652C498.426 183.211 498.289 182.884 498.015 182.671C497.756 182.458 497.383 182.282 496.896 182.145C496.409 181.993 495.83 181.826 495.161 181.643C494.339 181.4 493.646 181.141 493.083 180.867C492.52 180.593 492.094 180.25 491.804 179.839C491.515 179.428 491.371 178.911 491.371 178.287C491.371 177.526 491.568 176.886 491.964 176.369C492.36 175.836 492.9 175.433 493.585 175.159C494.285 174.885 495.077 174.748 495.96 174.748C496.843 174.748 497.642 174.885 498.357 175.159C499.073 175.433 499.689 175.836 500.207 176.369L499.293 177.762C498.822 177.275 498.304 176.917 497.741 176.689C497.178 176.445 496.546 176.323 495.846 176.323C495.435 176.323 495.031 176.376 494.636 176.483C494.24 176.574 493.913 176.749 493.654 177.008C493.395 177.252 493.266 177.602 493.266 178.058C493.266 178.439 493.365 178.743 493.562 178.972C493.776 179.185 494.08 179.368 494.476 179.52C494.887 179.672 495.381 179.839 495.96 180.022C496.858 180.281 497.634 180.54 498.289 180.798C498.959 181.057 499.476 181.392 499.841 181.803C500.207 182.214 500.389 182.785 500.389 183.515C500.389 184.642 499.963 185.525 499.111 186.164C498.258 186.788 497.132 187.1 495.732 187.1Z" fill="white"/>
<rect x="576.626" y="164.823" width="28.5406" height="28.5406" rx="3.80542" stroke="#22E16E" stroke-width="1.90271"/>
<path d="M629.971 186.986C628.677 186.986 627.589 186.765 626.706 186.324C625.823 185.867 625.115 185.258 624.582 184.497C624.05 183.721 623.661 182.846 623.418 181.872C623.174 180.897 623.053 179.893 623.053 178.858V170.661H625.107V178.858C625.107 179.649 625.184 180.425 625.336 181.187C625.503 181.932 625.77 182.602 626.135 183.196C626.5 183.789 626.995 184.261 627.619 184.611C628.243 184.962 629.019 185.137 629.948 185.137C630.892 185.137 631.676 184.962 632.3 184.611C632.924 184.246 633.418 183.767 633.784 183.173C634.149 182.564 634.408 181.887 634.56 181.141C634.728 180.395 634.811 179.634 634.811 178.858V170.661H636.866V178.858C636.866 179.954 636.737 180.996 636.478 181.986C636.234 182.96 635.839 183.82 635.291 184.566C634.743 185.312 634.027 185.905 633.144 186.347C632.277 186.773 631.219 186.986 629.971 186.986ZM643.994 187.1C643.005 187.1 642.076 186.94 641.209 186.621C640.341 186.286 639.595 185.791 638.971 185.137L639.747 183.721C640.432 184.36 641.117 184.817 641.802 185.091C642.487 185.365 643.187 185.502 643.903 185.502C644.725 185.502 645.395 185.35 645.912 185.045C646.43 184.726 646.688 184.261 646.688 183.652C646.688 183.211 646.551 182.884 646.277 182.671C646.019 182.458 645.646 182.282 645.159 182.145C644.672 181.993 644.093 181.826 643.423 181.643C642.601 181.4 641.909 181.141 641.346 180.867C640.782 180.593 640.356 180.25 640.067 179.839C639.778 179.428 639.633 178.911 639.633 178.287C639.633 177.526 639.831 176.886 640.227 176.369C640.623 175.836 641.163 175.433 641.848 175.159C642.548 174.885 643.34 174.748 644.223 174.748C645.105 174.748 645.905 174.885 646.62 175.159C647.335 175.433 647.952 175.836 648.469 176.369L647.556 177.762C647.084 177.275 646.567 176.917 646.003 176.689C645.44 176.445 644.809 176.323 644.108 176.323C643.697 176.323 643.294 176.376 642.898 176.483C642.502 176.574 642.175 176.749 641.916 177.008C641.658 177.252 641.528 177.602 641.528 178.058C641.528 178.439 641.627 178.743 641.825 178.972C642.038 179.185 642.343 179.368 642.738 179.52C643.149 179.672 643.644 179.839 644.223 180.022C645.121 180.281 645.897 180.54 646.551 180.798C647.221 181.057 647.739 181.392 648.104 181.803C648.469 182.214 648.652 182.785 648.652 183.515C648.652 184.642 648.226 185.525 647.373 186.164C646.521 186.788 645.395 187.1 643.994 187.1ZM656.33 187.1C655.432 187.1 654.61 186.94 653.864 186.621C653.134 186.286 652.494 185.837 651.946 185.274C651.414 184.695 650.995 184.033 650.691 183.287C650.401 182.541 650.257 181.75 650.257 180.913C650.257 179.786 650.516 178.759 651.033 177.83C651.551 176.902 652.266 176.156 653.179 175.593C654.108 175.029 655.166 174.748 656.353 174.748C657.556 174.748 658.598 175.037 659.481 175.615C660.379 176.179 661.072 176.924 661.559 177.853C662.061 178.766 662.312 179.756 662.312 180.821C662.312 180.973 662.305 181.126 662.289 181.278C662.289 181.415 662.282 181.521 662.267 181.598H652.38C652.441 182.374 652.654 183.066 653.019 183.675C653.4 184.269 653.887 184.741 654.481 185.091C655.074 185.426 655.714 185.593 656.399 185.593C657.129 185.593 657.814 185.411 658.454 185.045C659.108 184.68 659.557 184.2 659.801 183.607L661.536 184.086C661.277 184.665 660.889 185.182 660.372 185.639C659.869 186.096 659.268 186.453 658.568 186.712C657.883 186.971 657.137 187.1 656.33 187.1ZM652.312 180.205H660.44C660.379 179.428 660.158 178.743 659.778 178.15C659.397 177.556 658.91 177.092 658.317 176.757C657.723 176.422 657.068 176.255 656.353 176.255C655.653 176.255 655.006 176.422 654.412 176.757C653.819 177.092 653.332 177.556 652.951 178.15C652.586 178.743 652.373 179.428 652.312 180.205ZM684.66 186.872V174.497L679.317 184.018H678.061L672.695 174.497V186.872H670.64V170.661H672.81L678.678 181.187L684.568 170.661H686.715V186.872H684.66ZM689.229 183.424C689.229 182.663 689.442 182.009 689.869 181.461C690.31 180.897 690.911 180.464 691.672 180.159C692.433 179.855 693.316 179.702 694.321 179.702C694.854 179.702 695.417 179.748 696.011 179.839C696.604 179.916 697.129 180.037 697.586 180.205V179.337C697.586 178.424 697.312 177.708 696.764 177.191C696.216 176.658 695.44 176.392 694.435 176.392C693.781 176.392 693.149 176.513 692.54 176.757C691.946 176.985 691.315 177.32 690.645 177.762L689.914 176.346C690.691 175.813 691.467 175.418 692.243 175.159C693.02 174.885 693.826 174.748 694.663 174.748C696.186 174.748 697.388 175.174 698.271 176.026C699.154 176.864 699.595 178.036 699.595 179.543V184.589C699.595 184.832 699.641 185.015 699.732 185.137C699.839 185.243 700.006 185.304 700.235 185.319V186.872C700.037 186.902 699.862 186.925 699.709 186.94C699.572 186.956 699.458 186.963 699.367 186.963C698.895 186.963 698.537 186.834 698.294 186.575C698.066 186.316 697.936 186.042 697.906 185.753L697.86 185C697.342 185.669 696.665 186.187 695.828 186.552C694.991 186.917 694.161 187.1 693.339 187.1C692.548 187.1 691.84 186.94 691.216 186.621C690.592 186.286 690.105 185.844 689.754 185.296C689.404 184.733 689.229 184.109 689.229 183.424ZM696.992 184.269C697.175 184.056 697.32 183.843 697.426 183.63C697.533 183.401 697.586 183.211 697.586 183.059V181.575C697.114 181.392 696.619 181.255 696.102 181.164C695.584 181.057 695.074 181.004 694.572 181.004C693.552 181.004 692.723 181.209 692.083 181.62C691.459 182.016 691.147 182.564 691.147 183.264C691.147 183.645 691.246 184.018 691.444 184.383C691.657 184.733 691.962 185.022 692.357 185.251C692.768 185.479 693.271 185.593 693.864 185.593C694.488 185.593 695.082 185.471 695.645 185.228C696.208 184.969 696.658 184.649 696.992 184.269ZM709.11 176.711C708.105 176.727 707.215 176.985 706.438 177.488C705.677 177.975 705.137 178.652 704.817 179.52V186.872H702.808V174.953H704.68V177.716C705.091 176.894 705.632 176.232 706.301 175.73C706.986 175.212 707.702 174.923 708.448 174.862C708.6 174.862 708.729 174.862 708.836 174.862C708.942 174.862 709.034 174.87 709.11 174.885V176.711ZM719.505 186.872L715.372 181.072L713.112 183.196V186.872H711.103V170.204H713.112V181.095L719.277 174.976H721.446L716.697 179.908L721.674 186.872H719.505ZM728.061 187.1C727.163 187.1 726.341 186.94 725.595 186.621C724.864 186.286 724.225 185.837 723.677 185.274C723.144 184.695 722.726 184.033 722.421 183.287C722.132 182.541 721.987 181.75 721.987 180.913C721.987 179.786 722.246 178.759 722.764 177.83C723.281 176.902 723.997 176.156 724.91 175.593C725.838 175.029 726.896 174.748 728.084 174.748C729.286 174.748 730.329 175.037 731.212 175.615C732.11 176.179 732.802 176.924 733.289 177.853C733.792 178.766 734.043 179.756 734.043 180.821C734.043 180.973 734.035 181.126 734.02 181.278C734.02 181.415 734.012 181.521 733.997 181.598H724.111C724.172 182.374 724.385 183.066 724.75 183.675C725.131 184.269 725.618 184.741 726.211 185.091C726.805 185.426 727.444 185.593 728.129 185.593C728.86 185.593 729.545 185.411 730.184 185.045C730.839 184.68 731.288 184.2 731.531 183.607L733.267 184.086C733.008 184.665 732.62 185.182 732.102 185.639C731.6 186.096 730.999 186.453 730.298 186.712C729.613 186.971 728.868 187.1 728.061 187.1ZM724.042 180.205H732.171C732.11 179.428 731.889 178.743 731.509 178.15C731.128 177.556 730.641 177.092 730.047 176.757C729.454 176.422 728.799 176.255 728.084 176.255C727.383 176.255 726.737 176.422 726.143 176.757C725.549 177.092 725.062 177.556 724.682 178.15C724.316 178.743 724.103 179.428 724.042 180.205ZM742.33 186.278C742.162 186.354 741.934 186.453 741.645 186.575C741.356 186.697 741.021 186.803 740.64 186.895C740.26 186.986 739.856 187.032 739.43 187.032C738.943 187.032 738.494 186.948 738.083 186.78C737.672 186.598 737.345 186.324 737.101 185.959C736.858 185.578 736.736 185.106 736.736 184.543V176.529H735.115V174.953H736.736V170.98H738.745V174.953H741.416V176.529H738.745V183.926C738.775 184.353 738.92 184.672 739.179 184.885C739.438 185.083 739.742 185.182 740.092 185.182C740.488 185.182 740.853 185.114 741.188 184.977C741.523 184.84 741.744 184.741 741.85 184.68L742.33 186.278ZM750.287 186.872V170.661H757.045C757.76 170.661 758.415 170.813 759.009 171.117C759.602 171.407 760.12 171.802 760.561 172.305C761.003 172.792 761.345 173.347 761.589 173.971C761.832 174.58 761.954 175.204 761.954 175.844C761.954 176.727 761.756 177.571 761.36 178.378C760.965 179.17 760.409 179.817 759.694 180.319C758.978 180.806 758.141 181.05 757.182 181.05H752.342V186.872H750.287ZM752.342 179.223H757.068C757.631 179.223 758.118 179.071 758.529 178.766C758.955 178.462 759.283 178.051 759.511 177.533C759.755 177.016 759.876 176.453 759.876 175.844C759.876 175.204 759.739 174.634 759.465 174.131C759.191 173.614 758.834 173.21 758.392 172.921C757.951 172.632 757.464 172.487 756.931 172.487H752.342V179.223ZM770.494 176.711C769.49 176.727 768.599 176.985 767.823 177.488C767.062 177.975 766.522 178.652 766.202 179.52V186.872H764.193V174.953H766.065V177.716C766.476 176.894 767.016 176.232 767.686 175.73C768.371 175.212 769.086 174.923 769.832 174.862C769.985 174.862 770.114 174.862 770.22 174.862C770.327 174.862 770.418 174.87 770.494 174.885V176.711ZM772.487 186.872V174.953H774.497V186.872H772.487ZM772.487 172.716V170.204H774.497V172.716H772.487ZM783.024 187.1C782.126 187.1 781.304 186.94 780.558 186.621C779.827 186.286 779.188 185.829 778.64 185.251C778.107 184.672 777.689 184.01 777.384 183.264C777.095 182.518 776.95 181.727 776.95 180.89C776.95 179.763 777.202 178.736 777.704 177.807C778.206 176.879 778.914 176.141 779.827 175.593C780.741 175.029 781.798 174.748 783.001 174.748C784.173 174.748 785.193 175.014 786.061 175.547C786.943 176.064 787.598 176.765 788.024 177.647L786.061 178.264C785.756 177.701 785.33 177.267 784.782 176.963C784.234 176.643 783.625 176.483 782.955 176.483C782.225 176.483 781.555 176.673 780.946 177.054C780.352 177.434 779.881 177.96 779.53 178.629C779.18 179.284 779.005 180.037 779.005 180.89C779.005 181.727 779.18 182.488 779.53 183.173C779.896 183.843 780.375 184.375 780.969 184.771C781.578 185.167 782.248 185.365 782.978 185.365C783.45 185.365 783.899 185.281 784.325 185.114C784.767 184.946 785.147 184.726 785.467 184.452C785.802 184.162 786.03 183.85 786.152 183.515L788.115 184.109C787.872 184.688 787.499 185.205 786.997 185.662C786.51 186.103 785.924 186.453 785.239 186.712C784.569 186.971 783.831 187.1 783.024 187.1ZM795.555 187.1C794.657 187.1 793.835 186.94 793.089 186.621C792.358 186.286 791.719 185.837 791.171 185.274C790.638 184.695 790.22 184.033 789.915 183.287C789.626 182.541 789.482 181.75 789.482 180.913C789.482 179.786 789.74 178.759 790.258 177.83C790.775 176.902 791.491 176.156 792.404 175.593C793.333 175.029 794.39 174.748 795.578 174.748C796.78 174.748 797.823 175.037 798.706 175.615C799.604 176.179 800.296 176.924 800.784 177.853C801.286 178.766 801.537 179.756 801.537 180.821C801.537 180.973 801.529 181.126 801.514 181.278C801.514 181.415 801.507 181.521 801.491 181.598H791.605C791.666 182.374 791.879 183.066 792.244 183.675C792.625 184.269 793.112 184.741 793.706 185.091C794.299 185.426 794.938 185.593 795.623 185.593C796.354 185.593 797.039 185.411 797.678 185.045C798.333 184.68 798.782 184.2 799.025 183.607L800.761 184.086C800.502 184.665 800.114 185.182 799.596 185.639C799.094 186.096 798.493 186.453 797.793 186.712C797.108 186.971 796.362 187.1 795.555 187.1ZM791.536 180.205H799.665C799.604 179.428 799.383 178.743 799.003 178.15C798.622 177.556 798.135 177.092 797.541 176.757C796.948 176.422 796.293 176.255 795.578 176.255C794.878 176.255 794.231 176.422 793.637 176.757C793.043 177.092 792.556 177.556 792.176 178.15C791.81 178.743 791.597 179.428 791.536 180.205Z" fill="white"/>
<rect x="116.17" y="221.904" width="323.46" height="93.2327" rx="13.6198" stroke="#22E16E" stroke-width="1.90271"/>
<path d="M265.883 261.95C265.65 261.678 265.339 261.416 264.95 261.163C264.562 260.911 264.125 260.687 263.639 260.493C263.153 260.279 262.619 260.114 262.036 259.998C261.473 259.862 260.88 259.794 260.258 259.794C258.665 259.794 257.49 260.095 256.732 260.697C255.975 261.299 255.596 262.125 255.596 263.174C255.596 263.912 255.79 264.495 256.179 264.923C256.567 265.35 257.16 265.7 257.956 265.972C258.772 266.244 259.802 266.526 261.045 266.817C262.483 267.128 263.726 267.507 264.776 267.954C265.825 268.4 266.631 269.003 267.194 269.76C267.758 270.499 268.039 271.489 268.039 272.733C268.039 273.724 267.845 274.588 267.457 275.327C267.087 276.045 266.563 276.648 265.883 277.133C265.203 277.6 264.406 277.949 263.493 278.183C262.58 278.396 261.589 278.503 260.521 278.503C259.472 278.503 258.442 278.396 257.432 278.183C256.441 277.949 255.499 277.619 254.605 277.192C253.711 276.764 252.876 276.23 252.099 275.589L253.352 273.374C253.663 273.704 254.061 274.035 254.547 274.365C255.052 274.676 255.615 274.967 256.237 275.239C256.878 275.511 257.568 275.735 258.306 275.909C259.044 276.065 259.802 276.143 260.579 276.143C262.056 276.143 263.202 275.88 264.018 275.356C264.834 274.812 265.242 274.025 265.242 272.995C265.242 272.218 265.009 271.596 264.542 271.13C264.096 270.664 263.425 270.275 262.532 269.964C261.638 269.654 260.55 269.343 259.268 269.032C257.869 268.682 256.693 268.303 255.741 267.895C254.789 267.468 254.071 266.914 253.585 266.234C253.119 265.554 252.885 264.67 252.885 263.582C252.885 262.261 253.206 261.144 253.847 260.231C254.488 259.318 255.372 258.628 256.499 258.162C257.626 257.695 258.898 257.462 260.317 257.462C261.249 257.462 262.114 257.559 262.91 257.754C263.726 257.948 264.484 258.22 265.184 258.57C265.883 258.919 266.524 259.337 267.107 259.823L265.883 261.95ZM277.813 278.59C276.667 278.59 275.618 278.386 274.666 277.979C273.733 277.551 272.917 276.978 272.218 276.259C271.538 275.521 271.003 274.676 270.615 273.724C270.246 272.772 270.061 271.761 270.061 270.693C270.061 269.255 270.391 267.944 271.052 266.759C271.713 265.574 272.626 264.622 273.791 263.903C274.977 263.184 276.327 262.824 277.842 262.824C279.377 262.824 280.708 263.194 281.835 263.932C282.981 264.651 283.865 265.603 284.487 266.788C285.128 267.954 285.448 269.216 285.448 270.576C285.448 270.771 285.439 270.965 285.419 271.159C285.419 271.334 285.41 271.47 285.39 271.567H272.771C272.849 272.558 273.121 273.442 273.587 274.219C274.073 274.977 274.695 275.579 275.453 276.026C276.21 276.453 277.026 276.667 277.901 276.667C278.833 276.667 279.707 276.434 280.523 275.968C281.359 275.501 281.932 274.889 282.243 274.132L284.458 274.744C284.127 275.482 283.632 276.143 282.971 276.725C282.33 277.308 281.563 277.765 280.669 278.095C279.795 278.425 278.843 278.59 277.813 278.59ZM272.684 269.79H283.059C282.981 268.799 282.699 267.924 282.214 267.167C281.728 266.409 281.106 265.816 280.348 265.389C279.591 264.962 278.755 264.748 277.842 264.748C276.949 264.748 276.123 264.962 275.365 265.389C274.607 265.816 273.986 266.409 273.5 267.167C273.034 267.924 272.762 268.799 272.684 269.79ZM288.357 257.025H290.922V274.365C290.922 275.2 291.038 275.715 291.272 275.909C291.505 276.104 291.786 276.201 292.117 276.201C292.525 276.201 292.913 276.162 293.282 276.084C293.652 275.987 293.962 275.89 294.215 275.793L294.623 277.891C294.196 278.066 293.69 278.212 293.108 278.328C292.525 278.445 292.01 278.503 291.563 278.503C290.572 278.503 289.785 278.221 289.202 277.658C288.639 277.095 288.357 276.308 288.357 275.297V257.025ZM296.696 257.025H299.26V274.365C299.26 275.2 299.377 275.715 299.61 275.909C299.843 276.104 300.125 276.201 300.455 276.201C300.863 276.201 301.252 276.162 301.621 276.084C301.99 275.987 302.301 275.89 302.554 275.793L302.962 277.891C302.534 278.066 302.029 278.212 301.446 278.328C300.863 278.445 300.348 278.503 299.902 278.503C298.911 278.503 298.124 278.221 297.541 277.658C296.978 277.095 296.696 276.308 296.696 275.297V257.025Z" fill="white"/>
<rect x="494.809" y="221.904" width="323.46" height="93.2327" rx="13.6198" stroke="#22E16E" stroke-width="1.90271"/>
<path d="M637.796 273.405C637.796 274.474 637.524 275.406 636.98 276.203C636.436 276.999 635.698 277.621 634.766 278.068C633.853 278.515 632.842 278.738 631.735 278.738H621.914V258.047H632.201C633.173 258.047 634.008 258.309 634.707 258.834C635.426 259.339 635.97 260 636.339 260.815C636.728 261.612 636.922 262.447 636.922 263.322C636.922 264.332 636.66 265.284 636.135 266.178C635.63 267.052 634.902 267.703 633.95 268.13C635.135 268.48 636.067 269.131 636.747 270.083C637.447 271.015 637.796 272.123 637.796 273.405ZM635.144 272.939C635.144 272.298 634.999 271.705 634.707 271.161C634.435 270.617 634.057 270.18 633.571 269.85C633.105 269.519 632.561 269.354 631.939 269.354H624.537V276.465H631.735C632.376 276.465 632.949 276.3 633.454 275.97C633.979 275.639 634.387 275.212 634.678 274.687C634.989 274.143 635.144 273.56 635.144 272.939ZM624.537 260.32V267.227H631.123C631.745 267.227 632.289 267.071 632.755 266.761C633.241 266.45 633.619 266.032 633.891 265.507C634.183 264.983 634.329 264.41 634.329 263.788C634.329 263.127 634.193 262.545 633.921 262.039C633.668 261.515 633.309 261.097 632.842 260.786C632.395 260.476 631.881 260.32 631.298 260.32H624.537ZM640.912 272.647V263.526H643.476V272.152C643.476 273.706 643.748 274.872 644.292 275.649C644.836 276.426 645.642 276.815 646.711 276.815C647.41 276.815 648.081 276.669 648.722 276.378C649.382 276.067 649.975 275.63 650.5 275.066C651.024 274.503 651.432 273.832 651.724 273.055V263.526H654.288V275.824C654.288 276.135 654.346 276.368 654.463 276.523C654.599 276.659 654.813 276.737 655.104 276.756V278.738C654.813 278.777 654.579 278.796 654.405 278.796C654.249 278.816 654.094 278.825 653.938 278.825C653.453 278.825 653.035 278.68 652.685 278.388C652.336 278.077 652.151 277.699 652.132 277.252L652.073 275.474C651.413 276.601 650.519 277.475 649.392 278.097C648.285 278.719 647.07 279.029 645.749 279.029C644.156 279.029 642.952 278.495 642.136 277.427C641.32 276.339 640.912 274.746 640.912 272.647ZM659.259 282.876C659.512 282.896 659.764 282.915 660.017 282.935C660.27 282.973 660.464 282.993 660.6 282.993C660.911 282.993 661.183 282.886 661.416 282.672C661.649 282.459 661.902 282.041 662.174 281.419C662.465 280.817 662.834 279.923 663.281 278.738L656.841 263.526H659.551L664.68 276.144L669.313 263.526H671.849L664.447 282.731C664.272 283.177 664.01 283.595 663.66 283.984C663.33 284.392 662.902 284.712 662.378 284.945C661.853 285.178 661.222 285.295 660.483 285.295C660.308 285.295 660.124 285.285 659.93 285.266C659.755 285.246 659.531 285.208 659.259 285.149V282.876Z" fill="white"/>
</svg>
