<svg width="609" height="371" viewBox="0 0 609 371" fill="none" xmlns="http://www.w3.org/2000/svg">
<rect width="609" height="371" rx="5" fill="#FCFCFC"/>
<path d="M90.888 70.2042C89.5265 70.2042 88.2246 70 86.9823 69.5916C85.74 69.1661 84.7614 68.6215 84.0466 67.9578L84.9911 65.9667C85.6719 66.5623 86.5398 67.0558 87.595 67.4472C88.6501 67.8387 89.7478 68.0344 90.888 68.0344C91.9261 68.0344 92.7685 67.9153 93.4152 67.677C94.0619 67.4387 94.5384 67.1154 94.8448 66.7069C95.1511 66.2815 95.3043 65.805 95.3043 65.2774C95.3043 64.6647 95.1 64.1712 94.6916 63.7968C94.3002 63.4224 93.7811 63.1246 93.1344 62.9033C92.5047 62.6651 91.807 62.4609 91.0412 62.2907C90.2753 62.1205 89.501 61.9248 88.7182 61.7036C87.9523 61.4653 87.2461 61.1675 86.5994 60.8101C85.9697 60.4527 85.4592 59.9762 85.0677 59.3806C84.6763 58.7679 84.4806 57.985 84.4806 57.032C84.4806 56.113 84.7189 55.2706 85.1954 54.5048C85.6889 53.7219 86.4377 53.1008 87.4418 52.6413C88.4629 52.1648 89.7563 51.9265 91.322 51.9265C92.3601 51.9265 93.3897 52.0627 94.4108 52.335C95.4319 52.6072 96.3169 52.9987 97.0657 53.5092L96.2233 55.5514C95.4574 55.0409 94.6491 54.675 93.7981 54.4537C92.9472 54.2155 92.1218 54.0964 91.322 54.0964C90.3179 54.0964 89.4925 54.224 88.8458 54.4793C88.1991 54.7345 87.7226 55.0749 87.4163 55.5004C87.1269 55.9258 86.9823 56.4023 86.9823 56.9299C86.9823 57.5596 87.178 58.0616 87.5694 58.436C87.9779 58.8104 88.4969 59.1083 89.1266 59.3295C89.7733 59.5507 90.4796 59.755 91.2454 59.9422C92.0112 60.1123 92.777 60.3081 93.5429 60.5293C94.3257 60.7505 95.032 61.0398 95.6617 61.3972C96.3083 61.7546 96.8274 62.2311 97.2188 62.8268C97.6103 63.4224 97.806 64.1882 97.806 65.1242C97.806 66.0262 97.5592 66.8686 97.0657 67.6515C96.5721 68.4173 95.8063 69.0385 94.7682 69.515C93.7471 69.9745 92.4537 70.2042 90.888 70.2042ZM107.202 70.1532C105.756 70.1532 104.48 69.8553 103.373 69.2597C102.284 68.6641 101.433 67.8472 100.821 66.8091C100.225 65.7709 99.9271 64.5797 99.9271 63.2352C99.9271 61.8908 100.216 60.6995 100.795 59.6614C101.391 58.6232 102.199 57.8149 103.22 57.2362C104.258 56.6406 105.424 56.3428 106.717 56.3428C108.028 56.3428 109.185 56.6321 110.189 57.2107C111.193 57.7893 111.976 58.6062 112.538 59.6614C113.116 60.6995 113.406 61.9163 113.406 63.3118C113.406 63.4139 113.397 63.533 113.38 63.6692C113.38 63.8053 113.372 63.933 113.355 64.0521H101.842V62.2907H112.078L111.083 62.9033C111.1 62.0354 110.921 61.2611 110.547 60.5803C110.172 59.8996 109.653 59.372 108.989 58.9976C108.343 58.6062 107.585 58.4105 106.717 58.4105C105.867 58.4105 105.109 58.6062 104.446 58.9976C103.782 59.372 103.263 59.9081 102.888 60.6059C102.514 61.2866 102.327 62.0694 102.327 62.9544V63.3628C102.327 64.2648 102.531 65.0732 102.939 65.788C103.365 66.4857 103.952 67.0303 104.701 67.4217C105.45 67.8131 106.309 68.0089 107.279 68.0089C108.079 68.0089 108.802 67.8727 109.449 67.6004C110.113 67.3281 110.691 66.9197 111.185 66.3751L112.538 67.9578C111.925 68.6726 111.159 69.2172 110.24 69.5916C109.338 69.966 108.326 70.1532 107.202 70.1532ZM121.455 70.1532C120.093 70.1532 119.038 69.7873 118.289 69.0555C117.54 68.3237 117.166 67.2771 117.166 65.9156V53.5092H119.617V65.8135C119.617 66.5453 119.795 67.1069 120.153 67.4983C120.527 67.8897 121.055 68.0854 121.735 68.0854C122.501 68.0854 123.139 67.8727 123.65 67.4472L124.416 69.2086C124.041 69.532 123.59 69.7703 123.063 69.9234C122.552 70.0766 122.016 70.1532 121.455 70.1532ZM114.869 58.4871V56.4704H123.497V58.4871H114.869ZM131.701 70.1532C130.339 70.1532 129.284 69.7873 128.535 69.0555C127.786 68.3237 127.412 67.2771 127.412 65.9156V53.5092H129.863V65.8135C129.863 66.5453 130.041 67.1069 130.399 67.4983C130.773 67.8897 131.301 68.0854 131.981 68.0854C132.747 68.0854 133.385 67.8727 133.896 67.4472L134.662 69.2086C134.287 69.532 133.836 69.7703 133.309 69.9234C132.798 70.0766 132.262 70.1532 131.701 70.1532ZM125.114 58.4871V56.4704H133.743V58.4871H125.114ZM137.625 70V56.4704H140.075V70H137.625ZM138.85 53.8666C138.373 53.8666 137.973 53.7134 137.65 53.4071C137.344 53.1008 137.191 52.7264 137.191 52.2839C137.191 51.8244 137.344 51.4415 137.65 51.1352C137.973 50.8288 138.373 50.6757 138.85 50.6757C139.326 50.6757 139.718 50.8288 140.024 51.1352C140.347 51.4245 140.509 51.7904 140.509 52.2328C140.509 52.6923 140.356 53.0838 140.05 53.4071C139.743 53.7134 139.343 53.8666 138.85 53.8666ZM151.979 56.3428C153.085 56.3428 154.055 56.5555 154.889 56.981C155.74 57.4064 156.403 58.0531 156.88 58.9211C157.356 59.789 157.595 60.8867 157.595 62.2141V70H155.144V62.4949C155.144 61.1845 154.821 60.1974 154.174 59.5337C153.544 58.87 152.651 58.5381 151.494 58.5381C150.626 58.5381 149.868 58.7083 149.222 59.0487C148.575 59.3891 148.073 59.8911 147.715 60.5548C147.375 61.2185 147.205 62.0439 147.205 63.031V70H144.754V56.4704H147.103V60.1208L146.72 59.1508C147.162 58.2658 147.843 57.5766 148.762 57.0831C149.681 56.5895 150.753 56.3428 151.979 56.3428ZM168.052 75.1055C166.81 75.1055 165.602 74.9268 164.427 74.5694C163.27 74.2291 162.326 73.7355 161.594 73.0888L162.768 71.1998C163.398 71.7444 164.172 72.1698 165.091 72.4762C166.01 72.7995 166.972 72.9612 167.976 72.9612C169.575 72.9612 170.75 72.5868 171.499 71.838C172.247 71.0892 172.622 69.9489 172.622 68.4173V65.5582L172.877 62.8778L172.749 60.1719V56.4704H175.072V68.162C175.072 70.5446 174.477 72.2975 173.285 73.4207C172.094 74.5439 170.35 75.1055 168.052 75.1055ZM167.746 69.4384C166.436 69.4384 165.261 69.1661 164.223 68.6215C163.202 68.0599 162.385 67.2856 161.773 66.2985C161.177 65.3114 160.879 64.1712 160.879 62.8778C160.879 61.5674 161.177 60.4272 161.773 59.4571C162.385 58.4701 163.202 57.7042 164.223 57.1597C165.261 56.6151 166.436 56.3428 167.746 56.3428C168.903 56.3428 169.958 56.581 170.911 57.0575C171.864 57.517 172.622 58.2318 173.183 59.2019C173.762 60.1719 174.051 61.3972 174.051 62.8778C174.051 64.3414 173.762 65.5582 173.183 66.5283C172.622 67.4983 171.864 68.2301 170.911 68.7236C169.958 69.2001 168.903 69.4384 167.746 69.4384ZM168.027 67.2941C168.929 67.2941 169.729 67.1069 170.426 66.7325C171.124 66.3581 171.669 65.839 172.06 65.1753C172.469 64.5116 172.673 63.7458 172.673 62.8778C172.673 62.0099 172.469 61.2441 172.06 60.5803C171.669 59.9166 171.124 59.4061 170.426 59.0487C169.729 58.6743 168.929 58.4871 168.027 58.4871C167.125 58.4871 166.316 58.6743 165.602 59.0487C164.904 59.4061 164.351 59.9166 163.942 60.5803C163.551 61.2441 163.355 62.0099 163.355 62.8778C163.355 63.7458 163.551 64.5116 163.942 65.1753C164.351 65.839 164.904 66.3581 165.602 66.7325C166.316 67.1069 167.125 67.2941 168.027 67.2941ZM183.635 70.1532C182.512 70.1532 181.44 70 180.419 69.6937C179.415 69.3873 178.623 69.0129 178.045 68.5705L179.066 66.6304C179.644 67.0218 180.359 67.3536 181.21 67.6259C182.061 67.8982 182.929 68.0344 183.814 68.0344C184.954 68.0344 185.771 67.8727 186.264 67.5494C186.775 67.226 187.03 66.775 187.03 66.1964C187.03 65.7709 186.877 65.4391 186.571 65.2008C186.264 64.9626 185.856 64.7839 185.345 64.6647C184.852 64.5456 184.299 64.4435 183.686 64.3584C183.073 64.2563 182.461 64.1372 181.848 64.001C181.235 63.8479 180.674 63.6436 180.163 63.3884C179.653 63.1161 179.244 62.7502 178.938 62.2907C178.632 61.8142 178.479 61.1845 178.479 60.4017C178.479 59.5848 178.708 58.87 179.168 58.2573C179.627 57.6447 180.274 57.1767 181.108 56.8533C181.959 56.513 182.963 56.3428 184.12 56.3428C185.005 56.3428 185.899 56.4534 186.8 56.6746C187.719 56.8789 188.468 57.1767 189.047 57.5681L188 59.5082C187.388 59.0997 186.749 58.8189 186.086 58.6658C185.422 58.5126 184.758 58.436 184.095 58.436C183.022 58.436 182.223 58.6147 181.695 58.9721C181.167 59.3125 180.904 59.755 180.904 60.2995C180.904 60.759 181.057 61.1164 181.363 61.3717C181.686 61.61 182.095 61.7972 182.588 61.9333C183.099 62.0694 183.661 62.1886 184.273 62.2907C184.886 62.3758 185.499 62.4949 186.111 62.6481C186.724 62.7842 187.277 62.9799 187.771 63.2352C188.281 63.4905 188.69 63.8479 188.996 64.3074C189.319 64.7669 189.481 65.3795 189.481 66.1453C189.481 66.9622 189.243 67.6685 188.766 68.2641C188.29 68.8598 187.617 69.3278 186.749 69.6681C185.881 69.9915 184.843 70.1532 183.635 70.1532Z" fill="black"/>
<path d="M508.967 53L523.326 67.3592" stroke="black" stroke-width="2.02272" stroke-linecap="round"/>
<path d="M508.967 67.3594L523.326 53.0001" stroke="black" stroke-width="2.02272" stroke-linecap="round"/>
<path d="M487.276 128.142L492.345 116.948H493.928L499.013 128.142H497.334L492.809 117.843H493.449L488.923 128.142H487.276ZM489.435 125.343L489.867 124.064H496.167L496.631 125.343H489.435ZM503.869 128.238C503.144 128.238 502.505 128.104 501.95 127.838C501.407 127.571 500.98 127.166 500.671 126.622C500.372 126.068 500.223 125.375 500.223 124.544V119.666H501.758V124.368C501.758 125.199 501.956 125.823 502.35 126.239C502.755 126.654 503.32 126.862 504.045 126.862C504.578 126.862 505.042 126.756 505.436 126.543C505.831 126.319 506.135 125.999 506.348 125.583C506.561 125.157 506.668 124.645 506.668 124.048V119.666H508.203V128.142H506.748V125.855L506.987 126.463C506.71 127.028 506.294 127.465 505.74 127.774C505.186 128.083 504.562 128.238 503.869 128.238ZM514.036 128.238C513.183 128.238 512.522 128.008 512.053 127.55C511.584 127.092 511.349 126.436 511.349 125.583V117.811H512.884V125.519C512.884 125.977 512.996 126.329 513.22 126.574C513.455 126.82 513.785 126.942 514.211 126.942C514.691 126.942 515.091 126.809 515.411 126.543L515.891 127.646C515.656 127.848 515.373 127.998 515.043 128.094C514.723 128.19 514.387 128.238 514.036 128.238ZM509.91 120.93V119.666H515.315V120.93H509.91ZM521.095 128.238C520.242 128.238 519.486 128.051 518.825 127.678C518.164 127.305 517.641 126.793 517.257 126.143C516.874 125.482 516.682 124.736 516.682 123.904C516.682 123.062 516.874 122.316 517.257 121.665C517.641 121.015 518.164 120.509 518.825 120.146C519.486 119.773 520.242 119.586 521.095 119.586C521.938 119.586 522.689 119.773 523.35 120.146C524.022 120.509 524.544 121.015 524.917 121.665C525.301 122.305 525.493 123.051 525.493 123.904C525.493 124.746 525.301 125.492 524.917 126.143C524.544 126.793 524.022 127.305 523.35 127.678C522.689 128.051 521.938 128.238 521.095 128.238ZM521.095 126.894C521.639 126.894 522.124 126.772 522.551 126.527C522.988 126.281 523.329 125.935 523.574 125.487C523.819 125.029 523.942 124.501 523.942 123.904C523.942 123.296 523.819 122.774 523.574 122.337C523.329 121.889 522.988 121.543 522.551 121.297C522.124 121.052 521.639 120.93 521.095 120.93C520.552 120.93 520.067 121.052 519.64 121.297C519.214 121.543 518.873 121.889 518.617 122.337C518.361 122.774 518.233 123.296 518.233 123.904C518.233 124.501 518.361 125.029 518.617 125.487C518.873 125.935 519.214 126.281 519.64 126.527C520.067 126.772 520.552 126.894 521.095 126.894Z" fill="black"/>
<path d="M84.6027 130.142V116.762H86.2987V128.634H93.7609V130.142H84.6027ZM95.3435 130.142V120.305H97.0017V130.142H95.3435ZM95.3435 118.458V116.386H97.0017V118.458H95.3435ZM103.455 130.33C102.802 130.33 102.205 130.192 101.665 129.915C101.125 129.639 100.66 129.268 100.271 128.804C99.8811 128.326 99.5796 127.78 99.3661 127.164C99.1525 126.549 99.0457 125.902 99.0457 125.223C99.0457 124.532 99.1651 123.879 99.4038 123.264C99.6425 122.648 99.9691 122.108 100.384 121.643C100.811 121.178 101.307 120.814 101.872 120.55C102.438 120.274 103.047 120.135 103.7 120.135C104.467 120.135 105.164 120.33 105.792 120.72C106.42 121.096 106.916 121.58 107.281 122.171V120.305H108.75V134.155H107.092V128.201C106.188 129.62 104.975 130.33 103.455 130.33ZM104.021 128.898C104.485 128.898 104.906 128.804 105.283 128.615C105.673 128.427 106.018 128.176 106.319 127.861C106.621 127.535 106.879 127.177 107.092 126.787V123.961C107.042 123.634 106.916 123.333 106.715 123.056C106.514 122.767 106.269 122.51 105.98 122.284C105.691 122.058 105.377 121.882 105.038 121.756C104.711 121.63 104.385 121.568 104.058 121.568C103.568 121.568 103.122 121.674 102.72 121.888C102.318 122.089 101.967 122.365 101.665 122.717C101.376 123.069 101.15 123.465 100.987 123.904C100.823 124.344 100.742 124.796 100.742 125.261C100.742 125.914 100.88 126.517 101.156 127.07C101.445 127.623 101.835 128.069 102.325 128.408C102.815 128.735 103.38 128.898 104.021 128.898ZM111.333 126.203V120.305H112.991V125.883C112.991 126.888 113.167 127.642 113.519 128.144C113.871 128.647 114.392 128.898 115.083 128.898C115.535 128.898 115.968 128.804 116.383 128.615C116.81 128.414 117.193 128.132 117.533 127.767C117.872 127.403 118.136 126.97 118.324 126.467V120.305H119.982V128.257C119.982 128.458 120.02 128.609 120.095 128.709C120.183 128.797 120.321 128.848 120.51 128.86V130.142C120.321 130.167 120.171 130.179 120.058 130.179C119.957 130.192 119.857 130.198 119.756 130.198C119.442 130.198 119.172 130.104 118.946 129.915C118.72 129.714 118.6 129.47 118.588 129.181L118.55 128.031C118.123 128.76 117.545 129.325 116.816 129.727C116.1 130.129 115.315 130.33 114.461 130.33C113.431 130.33 112.652 129.985 112.124 129.294C111.597 128.59 111.333 127.56 111.333 126.203ZM122.745 130.142V120.305H124.403V130.142H122.745ZM122.745 118.458V116.386H124.403V118.458H122.745ZM126.447 125.242C126.447 124.313 126.635 123.465 127.012 122.698C127.402 121.919 127.929 121.298 128.595 120.833C129.273 120.368 130.046 120.135 130.913 120.135C131.704 120.135 132.414 120.343 133.042 120.757C133.67 121.172 134.16 121.674 134.512 122.265V116.386H136.17V128.257C136.17 128.458 136.208 128.609 136.283 128.709C136.371 128.797 136.509 128.848 136.698 128.86V130.142C136.384 130.192 136.139 130.217 135.963 130.217C135.636 130.217 135.347 130.104 135.096 129.878C134.857 129.652 134.738 129.4 134.738 129.124V128.295C134.349 128.923 133.827 129.419 133.174 129.784C132.521 130.148 131.842 130.33 131.139 130.33C130.461 130.33 129.832 130.198 129.255 129.934C128.689 129.658 128.193 129.281 127.766 128.804C127.351 128.326 127.025 127.786 126.786 127.183C126.56 126.568 126.447 125.921 126.447 125.242ZM134.512 126.693V123.867C134.361 123.439 134.116 123.056 133.777 122.717C133.438 122.365 133.055 122.089 132.628 121.888C132.213 121.674 131.798 121.568 131.384 121.568C130.894 121.568 130.448 121.674 130.046 121.888C129.657 122.089 129.317 122.365 129.028 122.717C128.752 123.056 128.538 123.446 128.388 123.885C128.237 124.325 128.162 124.784 128.162 125.261C128.162 125.751 128.243 126.216 128.407 126.655C128.582 127.095 128.821 127.485 129.123 127.824C129.437 128.163 129.795 128.427 130.197 128.615C130.611 128.804 131.057 128.898 131.535 128.898C131.836 128.898 132.144 128.841 132.458 128.728C132.785 128.615 133.092 128.458 133.381 128.257C133.67 128.056 133.915 127.824 134.116 127.56C134.317 127.284 134.449 126.995 134.512 126.693ZM138.939 130.142V120.305H140.597V130.142H138.939ZM138.939 118.458V116.386H140.597V118.458H138.939ZM148.369 129.652C148.231 129.714 148.043 129.796 147.804 129.897C147.565 129.997 147.289 130.085 146.975 130.16C146.661 130.236 146.328 130.274 145.976 130.274C145.574 130.274 145.204 130.204 144.864 130.066C144.525 129.915 144.255 129.689 144.054 129.388C143.853 129.074 143.753 128.684 143.753 128.22V121.605H142.415V120.305H143.753V117.026H145.411V120.305H147.616V121.605H145.411V127.711C145.436 128.062 145.555 128.326 145.769 128.502C145.982 128.665 146.234 128.747 146.523 128.747C146.849 128.747 147.151 128.691 147.427 128.578C147.704 128.464 147.886 128.383 147.974 128.333L148.369 129.652ZM150.359 132.817C150.522 132.83 150.685 132.843 150.849 132.855C151.012 132.88 151.137 132.893 151.225 132.893C151.426 132.893 151.602 132.824 151.753 132.686C151.904 132.547 152.067 132.277 152.243 131.875C152.431 131.486 152.67 130.908 152.959 130.142L148.795 120.305H150.547L153.864 128.464L156.86 120.305H158.499L153.713 132.723C153.6 133.012 153.43 133.282 153.204 133.534C152.99 133.797 152.714 134.005 152.375 134.155C152.036 134.306 151.627 134.381 151.15 134.381C151.037 134.381 150.918 134.375 150.792 134.363C150.679 134.35 150.534 134.325 150.359 134.287V132.817ZM167.799 130.33C166.982 130.33 166.216 130.198 165.5 129.934C164.784 129.658 164.168 129.25 163.653 128.709L164.294 127.541C164.859 128.069 165.424 128.446 165.99 128.672C166.555 128.898 167.133 129.011 167.723 129.011C168.402 129.011 168.955 128.885 169.382 128.634C169.809 128.37 170.022 127.987 170.022 127.485C170.022 127.12 169.909 126.85 169.683 126.674C169.47 126.498 169.162 126.354 168.76 126.241C168.358 126.115 167.88 125.977 167.328 125.826C166.649 125.625 166.078 125.412 165.613 125.186C165.148 124.96 164.796 124.677 164.558 124.338C164.319 123.998 164.2 123.571 164.2 123.056C164.2 122.428 164.363 121.901 164.69 121.473C165.016 121.034 165.462 120.701 166.027 120.475C166.605 120.249 167.259 120.135 167.987 120.135C168.716 120.135 169.375 120.249 169.966 120.475C170.556 120.701 171.065 121.034 171.492 121.473L170.738 122.623C170.349 122.221 169.922 121.926 169.457 121.737C168.992 121.536 168.471 121.436 167.893 121.436C167.554 121.436 167.221 121.48 166.894 121.568C166.568 121.643 166.298 121.787 166.084 122.001C165.87 122.202 165.764 122.491 165.764 122.868C165.764 123.182 165.845 123.433 166.009 123.622C166.185 123.797 166.436 123.948 166.762 124.074C167.102 124.199 167.51 124.338 167.987 124.488C168.728 124.702 169.369 124.916 169.909 125.129C170.462 125.343 170.889 125.619 171.191 125.958C171.492 126.297 171.643 126.769 171.643 127.372C171.643 128.301 171.291 129.03 170.588 129.557C169.884 130.073 168.955 130.33 167.799 130.33ZM177.923 130.33C177.182 130.33 176.51 130.198 175.907 129.934C175.304 129.658 174.783 129.287 174.343 128.823C173.903 128.345 173.564 127.799 173.325 127.183C173.087 126.568 172.967 125.921 172.967 125.242C172.967 124.551 173.087 123.898 173.325 123.282C173.564 122.667 173.903 122.127 174.343 121.662C174.783 121.184 175.304 120.814 175.907 120.55C176.523 120.274 177.195 120.135 177.923 120.135C178.665 120.135 179.337 120.274 179.94 120.55C180.543 120.814 181.064 121.184 181.504 121.662C181.956 122.127 182.301 122.667 182.54 123.282C182.779 123.898 182.898 124.551 182.898 125.242C182.898 125.921 182.779 126.568 182.54 127.183C182.301 127.799 181.962 128.345 181.523 128.823C181.083 129.287 180.555 129.658 179.94 129.934C179.337 130.198 178.665 130.33 177.923 130.33ZM174.663 125.261C174.663 125.939 174.808 126.555 175.097 127.108C175.398 127.66 175.794 128.1 176.284 128.427C176.774 128.741 177.32 128.898 177.923 128.898C178.526 128.898 179.073 128.735 179.563 128.408C180.065 128.081 180.461 127.642 180.75 127.089C181.051 126.524 181.202 125.902 181.202 125.223C181.202 124.545 181.051 123.929 180.75 123.377C180.461 122.824 180.065 122.384 179.563 122.058C179.073 121.731 178.526 121.568 177.923 121.568C177.32 121.568 176.774 121.737 176.284 122.076C175.794 122.403 175.398 122.843 175.097 123.395C174.808 123.948 174.663 124.57 174.663 125.261ZM184.813 126.203V120.305H186.472V125.883C186.472 126.888 186.647 127.642 186.999 128.144C187.351 128.647 187.872 128.898 188.563 128.898C189.015 128.898 189.449 128.804 189.863 128.615C190.291 128.414 190.674 128.132 191.013 127.767C191.352 127.403 191.616 126.97 191.804 126.467V120.305H193.463V128.257C193.463 128.458 193.5 128.609 193.576 128.709C193.664 128.797 193.802 128.848 193.99 128.86V130.142C193.802 130.167 193.651 130.179 193.538 130.179C193.438 130.192 193.337 130.198 193.237 130.198C192.922 130.198 192.652 130.104 192.426 129.915C192.2 129.714 192.081 129.47 192.068 129.181L192.031 128.031C191.603 128.76 191.026 129.325 190.297 129.727C189.581 130.129 188.796 130.33 187.941 130.33C186.911 130.33 186.132 129.985 185.605 129.294C185.077 128.59 184.813 127.56 184.813 126.203ZM201.426 121.756C200.597 121.769 199.862 121.982 199.221 122.397C198.593 122.799 198.147 123.358 197.883 124.074V130.142H196.225V120.305H197.77V122.585C198.109 121.907 198.555 121.36 199.108 120.946C199.673 120.519 200.264 120.28 200.879 120.23C201.005 120.23 201.112 120.23 201.2 120.23C201.288 120.23 201.363 120.236 201.426 120.249V121.756ZM207.184 130.33C206.443 130.33 205.765 130.198 205.149 129.934C204.546 129.658 204.019 129.281 203.566 128.804C203.127 128.326 202.781 127.78 202.53 127.164C202.291 126.549 202.172 125.895 202.172 125.204C202.172 124.275 202.379 123.427 202.794 122.661C203.208 121.894 203.792 121.285 204.546 120.833C205.3 120.368 206.173 120.135 207.165 120.135C208.133 120.135 208.974 120.355 209.691 120.795C210.419 121.222 210.959 121.8 211.311 122.529L209.691 123.037C209.439 122.573 209.088 122.215 208.635 121.963C208.183 121.7 207.681 121.568 207.128 121.568C206.525 121.568 205.972 121.725 205.469 122.039C204.98 122.353 204.59 122.786 204.301 123.339C204.012 123.879 203.868 124.501 203.868 125.204C203.868 125.895 204.012 126.524 204.301 127.089C204.603 127.642 204.998 128.081 205.488 128.408C205.991 128.735 206.544 128.898 207.147 128.898C207.536 128.898 207.907 128.829 208.258 128.691C208.623 128.552 208.937 128.37 209.201 128.144C209.477 127.905 209.665 127.648 209.766 127.372L211.387 127.861C211.186 128.339 210.878 128.766 210.463 129.143C210.061 129.507 209.577 129.796 209.012 130.01C208.459 130.223 207.85 130.33 207.184 130.33ZM217.526 130.33C216.785 130.33 216.107 130.198 215.491 129.934C214.888 129.658 214.361 129.287 213.908 128.823C213.469 128.345 213.123 127.799 212.872 127.183C212.633 126.568 212.514 125.914 212.514 125.223C212.514 124.294 212.727 123.446 213.155 122.679C213.582 121.913 214.172 121.298 214.926 120.833C215.692 120.368 216.565 120.135 217.545 120.135C218.538 120.135 219.398 120.374 220.127 120.852C220.868 121.316 221.44 121.932 221.842 122.698C222.256 123.452 222.464 124.269 222.464 125.148C222.464 125.274 222.457 125.399 222.445 125.525C222.445 125.638 222.438 125.726 222.426 125.789H214.266C214.317 126.429 214.493 127.001 214.794 127.503C215.108 127.993 215.51 128.383 216 128.672C216.49 128.948 217.018 129.086 217.583 129.086C218.186 129.086 218.751 128.936 219.279 128.634C219.819 128.333 220.19 127.937 220.391 127.447L221.823 127.843C221.609 128.32 221.289 128.747 220.862 129.124C220.447 129.501 219.951 129.796 219.373 130.01C218.808 130.223 218.192 130.33 217.526 130.33ZM214.21 124.639H220.918C220.868 123.998 220.686 123.433 220.372 122.943C220.058 122.453 219.656 122.07 219.166 121.794C218.676 121.517 218.136 121.379 217.545 121.379C216.967 121.379 216.433 121.517 215.944 121.794C215.454 122.07 215.052 122.453 214.737 122.943C214.436 123.433 214.26 123.998 214.21 124.639ZM227.68 130.33C226.863 130.33 226.097 130.198 225.381 129.934C224.665 129.658 224.049 129.25 223.534 128.709L224.175 127.541C224.74 128.069 225.306 128.446 225.871 128.672C226.436 128.898 227.014 129.011 227.605 129.011C228.283 129.011 228.836 128.885 229.263 128.634C229.69 128.37 229.903 127.987 229.903 127.485C229.903 127.12 229.79 126.85 229.564 126.674C229.351 126.498 229.043 126.354 228.641 126.241C228.239 126.115 227.762 125.977 227.209 125.826C226.53 125.625 225.959 125.412 225.494 125.186C225.029 124.96 224.677 124.677 224.439 124.338C224.2 123.998 224.081 123.571 224.081 123.056C224.081 122.428 224.244 121.901 224.571 121.473C224.897 121.034 225.343 120.701 225.909 120.475C226.486 120.249 227.14 120.135 227.868 120.135C228.597 120.135 229.257 120.249 229.847 120.475C230.437 120.701 230.946 121.034 231.373 121.473L230.62 122.623C230.23 122.221 229.803 121.926 229.338 121.737C228.873 121.536 228.352 121.436 227.774 121.436C227.435 121.436 227.102 121.48 226.775 121.568C226.449 121.643 226.179 121.787 225.965 122.001C225.752 122.202 225.645 122.491 225.645 122.868C225.645 123.182 225.726 123.433 225.89 123.622C226.066 123.797 226.317 123.948 226.643 124.074C226.983 124.199 227.391 124.338 227.868 124.488C228.61 124.702 229.25 124.916 229.79 125.129C230.343 125.343 230.77 125.619 231.072 125.958C231.373 126.297 231.524 126.769 231.524 127.372C231.524 128.301 231.172 129.03 230.469 129.557C229.765 130.073 228.836 130.33 227.68 130.33Z" fill="black"/>
<g clip-path="url(#clip0_629_1724)">
<path d="M248.584 121.182C248.36 121.182 248.142 121.116 247.956 120.992C247.77 120.867 247.625 120.691 247.539 120.484C247.454 120.278 247.431 120.05 247.475 119.831C247.518 119.612 247.626 119.41 247.784 119.252C247.942 119.094 248.144 118.986 248.363 118.943C248.583 118.899 248.81 118.921 249.016 119.007C249.223 119.093 249.4 119.237 249.524 119.423C249.648 119.609 249.714 119.828 249.714 120.052C249.714 120.351 249.595 120.639 249.383 120.851C249.171 121.063 248.884 121.182 248.584 121.182Z" fill="#83C29B"/>
<path d="M248.583 130.791C247.129 130.791 245.708 130.36 244.5 129.553C243.291 128.745 242.349 127.597 241.793 126.254C241.237 124.911 241.091 123.434 241.375 122.008C241.658 120.583 242.358 119.273 243.386 118.245C244.414 117.217 245.723 116.518 247.149 116.234C248.574 115.95 250.052 116.096 251.395 116.652C252.738 117.208 253.886 118.15 254.693 119.359C255.501 120.568 255.932 121.988 255.932 123.442C255.932 125.391 255.157 127.26 253.779 128.639C252.401 130.017 250.532 130.791 248.583 130.791ZM248.583 117.223C247.353 117.223 246.15 117.588 245.128 118.271C244.105 118.955 243.308 119.926 242.837 121.062C242.367 122.198 242.244 123.449 242.484 124.655C242.723 125.861 243.316 126.969 244.185 127.839C245.055 128.709 246.163 129.301 247.369 129.541C248.576 129.781 249.826 129.658 250.962 129.187C252.099 128.716 253.07 127.919 253.753 126.897C254.436 125.874 254.801 124.672 254.801 123.442C254.801 121.793 254.146 120.211 252.98 119.045C251.813 117.879 250.232 117.223 248.583 117.223Z" fill="#83C29B"/>
<path d="M248.584 127.966C248.284 127.966 247.996 127.847 247.784 127.635C247.572 127.422 247.453 127.135 247.453 126.835V123.443C247.453 123.143 247.572 122.856 247.784 122.644C247.996 122.432 248.284 122.312 248.584 122.312C248.884 122.312 249.171 122.432 249.383 122.644C249.595 122.856 249.714 123.143 249.714 123.443V126.835C249.714 127.135 249.595 127.422 249.383 127.635C249.171 127.847 248.884 127.966 248.584 127.966Z" fill="#83C29B"/>
</g>
<path d="M492.765 178.1H493.98L498.618 189.454H497.082L495.739 186.128H490.974L489.647 189.454H488.111L492.765 178.1ZM495.419 185.009L493.372 179.764L491.262 185.009H495.419ZM499.657 186.112V181.107H501.064V185.84C501.064 186.693 501.214 187.333 501.512 187.759C501.811 188.185 502.253 188.399 502.839 188.399C503.223 188.399 503.591 188.319 503.943 188.159C504.305 187.988 504.63 187.748 504.918 187.439C505.206 187.13 505.43 186.762 505.59 186.336V181.107H506.997V187.855C506.997 188.026 507.029 188.154 507.093 188.239C507.168 188.313 507.285 188.356 507.445 188.367V189.454C507.285 189.475 507.157 189.486 507.061 189.486C506.976 189.497 506.89 189.502 506.805 189.502C506.539 189.502 506.309 189.422 506.118 189.262C505.926 189.092 505.824 188.884 505.814 188.639L505.782 187.663C505.419 188.281 504.929 188.761 504.311 189.102C503.703 189.443 503.037 189.614 502.312 189.614C501.438 189.614 500.777 189.321 500.329 188.735C499.881 188.138 499.657 187.263 499.657 186.112ZM513.659 189.038C513.541 189.092 513.382 189.161 513.179 189.246C512.976 189.332 512.742 189.406 512.475 189.47C512.209 189.534 511.926 189.566 511.628 189.566C511.287 189.566 510.972 189.507 510.684 189.39C510.397 189.262 510.167 189.07 509.997 188.814C509.826 188.548 509.741 188.217 509.741 187.823V182.21H508.606V181.107H509.741V178.324H511.148V181.107H513.019V182.21H511.148V187.391C511.169 187.69 511.271 187.914 511.452 188.063C511.633 188.201 511.846 188.271 512.092 188.271C512.369 188.271 512.625 188.223 512.859 188.127C513.094 188.031 513.248 187.962 513.323 187.919L513.659 189.038ZM518.5 189.614C517.871 189.614 517.3 189.502 516.789 189.278C516.277 189.044 515.834 188.729 515.461 188.335C515.088 187.93 514.8 187.466 514.598 186.944C514.395 186.421 514.294 185.872 514.294 185.296C514.294 184.71 514.395 184.156 514.598 183.633C514.8 183.111 515.088 182.653 515.461 182.258C515.834 181.853 516.277 181.539 516.789 181.315C517.311 181.08 517.881 180.963 518.5 180.963C519.129 180.963 519.699 181.08 520.211 181.315C520.722 181.539 521.165 181.853 521.538 182.258C521.922 182.653 522.215 183.111 522.417 183.633C522.62 184.156 522.721 184.71 522.721 185.296C522.721 185.872 522.62 186.421 522.417 186.944C522.215 187.466 521.927 187.93 521.554 188.335C521.181 188.729 520.733 189.044 520.211 189.278C519.699 189.502 519.129 189.614 518.5 189.614ZM515.733 185.312C515.733 185.888 515.856 186.41 516.101 186.88C516.357 187.349 516.693 187.722 517.108 187.999C517.524 188.265 517.988 188.399 518.5 188.399C519.011 188.399 519.475 188.26 519.891 187.983C520.317 187.706 520.653 187.333 520.898 186.864C521.154 186.384 521.282 185.856 521.282 185.28C521.282 184.705 521.154 184.182 520.898 183.713C520.653 183.244 520.317 182.871 519.891 182.594C519.475 182.317 519.011 182.178 518.5 182.178C517.988 182.178 517.524 182.322 517.108 182.61C516.693 182.887 516.357 183.26 516.101 183.729C515.856 184.198 515.733 184.726 515.733 185.312Z" fill="black"/>
<path d="M96.1719 192.396V182.183L91.7624 190.041H90.726L86.2977 182.183V192.396H84.6017V179.017H86.3919L91.2348 187.704L96.0966 179.017H97.8679V192.396H96.1719ZM99.9434 189.551C99.9434 188.923 100.119 188.383 100.471 187.93C100.835 187.466 101.332 187.108 101.96 186.856C102.588 186.605 103.316 186.479 104.146 186.479C104.585 186.479 105.05 186.517 105.54 186.593C106.03 186.655 106.463 186.756 106.84 186.894V186.178C106.84 185.424 106.614 184.834 106.162 184.407C105.71 183.967 105.069 183.747 104.24 183.747C103.7 183.747 103.178 183.848 102.676 184.049C102.186 184.237 101.664 184.513 101.112 184.878L100.509 183.709C101.149 183.27 101.79 182.943 102.431 182.73C103.071 182.503 103.737 182.39 104.428 182.39C105.684 182.39 106.677 182.742 107.406 183.446C108.134 184.137 108.499 185.104 108.499 186.348V190.512C108.499 190.713 108.536 190.864 108.612 190.964C108.7 191.052 108.838 191.103 109.026 191.115V192.396C108.863 192.422 108.718 192.44 108.593 192.453C108.48 192.466 108.385 192.472 108.31 192.472C107.921 192.472 107.625 192.365 107.424 192.152C107.236 191.938 107.129 191.712 107.104 191.473L107.066 190.851C106.639 191.404 106.08 191.831 105.389 192.133C104.698 192.434 104.014 192.585 103.335 192.585C102.682 192.585 102.098 192.453 101.583 192.189C101.068 191.913 100.666 191.549 100.377 191.096C100.088 190.631 99.9434 190.116 99.9434 189.551ZM106.35 190.248C106.501 190.072 106.62 189.897 106.708 189.721C106.796 189.532 106.84 189.375 106.84 189.25V188.025C106.451 187.874 106.043 187.761 105.615 187.685C105.188 187.598 104.767 187.554 104.353 187.554C103.511 187.554 102.826 187.723 102.299 188.062C101.784 188.389 101.526 188.841 101.526 189.419C101.526 189.733 101.608 190.041 101.771 190.342C101.947 190.631 102.198 190.87 102.525 191.059C102.864 191.247 103.279 191.341 103.769 191.341C104.284 191.341 104.774 191.241 105.239 191.04C105.703 190.826 106.074 190.562 106.35 190.248ZM111.885 182.56L114.485 186.178L114.636 186.479L114.806 186.178L117.387 182.56H119.234L115.597 187.497L119.253 192.396H117.406L114.806 188.797L114.636 188.515L114.485 188.797L111.885 192.396H110.038L113.694 187.497L110.057 182.56H111.885ZM120.679 192.396V190.286H122.074V192.396H120.679ZM132.76 192.585C131.943 192.585 131.177 192.453 130.461 192.189C129.745 191.913 129.129 191.505 128.614 190.964L129.255 189.796C129.82 190.324 130.385 190.701 130.951 190.927C131.516 191.153 132.094 191.266 132.684 191.266C133.363 191.266 133.916 191.14 134.343 190.889C134.77 190.625 134.983 190.242 134.983 189.739C134.983 189.375 134.87 189.105 134.644 188.929C134.431 188.753 134.123 188.609 133.721 188.496C133.319 188.37 132.841 188.232 132.289 188.081C131.61 187.88 131.039 187.667 130.574 187.441C130.109 187.214 129.757 186.932 129.519 186.593C129.28 186.253 129.161 185.826 129.161 185.311C129.161 184.683 129.324 184.155 129.651 183.728C129.977 183.289 130.423 182.956 130.989 182.73C131.566 182.503 132.22 182.39 132.948 182.39C133.677 182.39 134.336 182.503 134.927 182.73C135.517 182.956 136.026 183.289 136.453 183.728L135.699 184.878C135.31 184.476 134.883 184.181 134.418 183.992C133.953 183.791 133.432 183.691 132.854 183.691C132.515 183.691 132.182 183.735 131.855 183.822C131.529 183.898 131.259 184.042 131.045 184.256C130.831 184.457 130.725 184.746 130.725 185.123C130.725 185.437 130.806 185.688 130.97 185.876C131.146 186.052 131.397 186.203 131.723 186.329C132.063 186.454 132.471 186.593 132.948 186.743C133.689 186.957 134.33 187.17 134.87 187.384C135.423 187.598 135.85 187.874 136.152 188.213C136.453 188.552 136.604 189.023 136.604 189.626C136.604 190.556 136.252 191.285 135.549 191.812C134.845 192.327 133.916 192.585 132.76 192.585ZM138.626 178.64H140.284V189.853C140.284 190.393 140.359 190.726 140.51 190.851C140.661 190.977 140.843 191.04 141.056 191.04C141.32 191.04 141.572 191.015 141.81 190.964C142.049 190.902 142.25 190.839 142.413 190.776L142.677 192.133C142.401 192.246 142.074 192.34 141.697 192.415C141.32 192.491 140.987 192.528 140.698 192.528C140.058 192.528 139.549 192.346 139.172 191.982C138.808 191.618 138.626 191.109 138.626 190.456V178.64ZM143.98 192.396V182.56H145.638V192.396H143.98ZM143.98 180.713V178.64H145.638V180.713H143.98ZM153.618 192.585C152.814 192.585 152.098 192.384 151.47 191.982C150.842 191.58 150.345 191.071 149.981 190.456V196.41H148.323V182.56H149.793V184.407C150.182 183.804 150.691 183.32 151.319 182.956C151.947 182.579 152.632 182.39 153.373 182.39C154.051 182.39 154.673 182.529 155.238 182.805C155.804 183.081 156.294 183.458 156.708 183.936C157.123 184.413 157.443 184.959 157.669 185.575C157.908 186.178 158.027 186.812 158.027 187.478C158.027 188.408 157.839 189.262 157.462 190.041C157.098 190.82 156.583 191.442 155.917 191.907C155.251 192.359 154.485 192.585 153.618 192.585ZM153.109 191.153C153.599 191.153 154.039 191.052 154.428 190.851C154.83 190.638 155.169 190.361 155.446 190.022C155.735 189.67 155.955 189.275 156.105 188.835C156.256 188.395 156.331 187.943 156.331 187.478C156.331 186.988 156.243 186.523 156.068 186.084C155.904 185.644 155.666 185.255 155.352 184.915C155.05 184.576 154.692 184.312 154.277 184.124C153.875 183.923 153.436 183.822 152.958 183.822C152.657 183.822 152.343 183.879 152.016 183.992C151.702 184.105 151.401 184.268 151.112 184.482C150.823 184.683 150.578 184.915 150.377 185.179C150.176 185.443 150.044 185.726 149.981 186.027V188.835C150.169 189.262 150.421 189.652 150.735 190.003C151.049 190.355 151.413 190.638 151.828 190.851C152.242 191.052 152.669 191.153 153.109 191.153ZM165.359 192.585C164.555 192.585 163.838 192.384 163.21 191.982C162.582 191.58 162.086 191.071 161.722 190.456V196.41H160.063V182.56H161.533V184.407C161.923 183.804 162.431 183.32 163.06 182.956C163.688 182.579 164.372 182.39 165.114 182.39C165.792 182.39 166.414 182.529 166.979 182.805C167.544 183.081 168.034 183.458 168.449 183.936C168.864 184.413 169.184 184.959 169.41 185.575C169.649 186.178 169.768 186.812 169.768 187.478C169.768 188.408 169.58 189.262 169.203 190.041C168.838 190.82 168.323 191.442 167.658 191.907C166.992 192.359 166.225 192.585 165.359 192.585ZM164.85 191.153C165.34 191.153 165.779 191.052 166.169 190.851C166.571 190.638 166.91 190.361 167.186 190.022C167.475 189.67 167.695 189.275 167.846 188.835C167.997 188.395 168.072 187.943 168.072 187.478C168.072 186.988 167.984 186.523 167.808 186.084C167.645 185.644 167.406 185.255 167.092 184.915C166.791 184.576 166.433 184.312 166.018 184.124C165.616 183.923 165.176 183.822 164.699 183.822C164.398 183.822 164.083 183.879 163.757 183.992C163.443 184.105 163.141 184.268 162.852 184.482C162.563 184.683 162.318 184.915 162.117 185.179C161.916 185.443 161.784 185.726 161.722 186.027V188.835C161.91 189.262 162.161 189.652 162.475 190.003C162.79 190.355 163.154 190.638 163.568 190.851C163.983 191.052 164.41 191.153 164.85 191.153ZM171.031 189.551C171.031 188.923 171.207 188.383 171.559 187.93C171.923 187.466 172.42 187.108 173.048 186.856C173.676 186.605 174.405 186.479 175.234 186.479C175.673 186.479 176.138 186.517 176.628 186.593C177.118 186.655 177.551 186.756 177.928 186.894V186.178C177.928 185.424 177.702 184.834 177.25 184.407C176.798 183.967 176.157 183.747 175.328 183.747C174.788 183.747 174.266 183.848 173.764 184.049C173.274 184.237 172.753 184.513 172.2 184.878L171.597 183.709C172.237 183.27 172.878 182.943 173.519 182.73C174.16 182.503 174.825 182.39 175.516 182.39C176.773 182.39 177.765 182.742 178.494 183.446C179.222 184.137 179.587 185.104 179.587 186.348V190.512C179.587 190.713 179.624 190.864 179.7 190.964C179.788 191.052 179.926 191.103 180.114 191.115V192.396C179.951 192.422 179.806 192.44 179.681 192.453C179.568 192.466 179.474 192.472 179.398 192.472C179.009 192.472 178.714 192.365 178.513 192.152C178.324 191.938 178.217 191.712 178.192 191.473L178.155 190.851C177.727 191.404 177.168 191.831 176.477 192.133C175.786 192.434 175.102 192.585 174.423 192.585C173.77 192.585 173.186 192.453 172.671 192.189C172.156 191.913 171.754 191.549 171.465 191.096C171.176 190.631 171.031 190.116 171.031 189.551ZM177.438 190.248C177.589 190.072 177.709 189.897 177.796 189.721C177.884 189.532 177.928 189.375 177.928 189.25V188.025C177.539 187.874 177.131 187.761 176.704 187.685C176.276 187.598 175.856 187.554 175.441 187.554C174.599 187.554 173.915 187.723 173.387 188.062C172.872 188.389 172.614 188.841 172.614 189.419C172.614 189.733 172.696 190.041 172.859 190.342C173.035 190.631 173.286 190.87 173.613 191.059C173.952 191.247 174.367 191.341 174.857 191.341C175.372 191.341 175.862 191.241 176.327 191.04C176.791 190.826 177.162 190.562 177.438 190.248ZM186.158 192.51C185.492 192.51 184.876 192.378 184.311 192.114C183.758 191.837 183.281 191.467 182.879 191.002C182.477 190.525 182.163 189.984 181.937 189.381C181.723 188.778 181.616 188.15 181.616 187.497C181.616 186.806 181.723 186.153 181.937 185.537C182.163 184.922 182.477 184.382 182.879 183.917C183.293 183.439 183.777 183.069 184.33 182.805C184.883 182.529 185.498 182.39 186.177 182.39C186.993 182.39 187.703 182.591 188.306 182.993C188.922 183.395 189.437 183.904 189.851 184.52V182.56H191.321V192.283C191.321 193.213 191.095 193.998 190.643 194.639C190.203 195.28 189.6 195.763 188.834 196.09C188.08 196.429 187.238 196.599 186.308 196.599C185.203 196.599 184.298 196.404 183.595 196.015C182.891 195.625 182.307 195.097 181.842 194.432L182.804 193.584C183.193 194.162 183.695 194.595 184.311 194.884C184.939 195.173 185.605 195.317 186.308 195.317C186.911 195.317 187.464 195.204 187.967 194.978C188.482 194.765 188.89 194.432 189.192 193.979C189.506 193.527 189.663 192.962 189.663 192.283V190.55C189.298 191.153 188.796 191.63 188.155 191.982C187.527 192.334 186.861 192.51 186.158 192.51ZM186.667 191.153C187.018 191.153 187.357 191.09 187.684 190.964C188.011 190.839 188.312 190.675 188.589 190.474C188.865 190.261 189.097 190.022 189.286 189.758C189.474 189.495 189.6 189.224 189.663 188.948V186.121C189.487 185.669 189.236 185.273 188.909 184.934C188.582 184.583 188.212 184.312 187.797 184.124C187.383 183.923 186.955 183.822 186.516 183.822C186.013 183.822 185.561 183.929 185.159 184.143C184.77 184.356 184.437 184.645 184.16 185.01C183.884 185.361 183.67 185.757 183.52 186.197C183.369 186.637 183.293 187.082 183.293 187.535C183.293 188.025 183.381 188.49 183.557 188.929C183.733 189.356 183.972 189.739 184.273 190.079C184.575 190.418 184.933 190.682 185.347 190.87C185.762 191.059 186.202 191.153 186.667 191.153ZM198.35 192.585C197.609 192.585 196.931 192.453 196.315 192.189C195.712 191.913 195.184 191.542 194.732 191.077C194.292 190.6 193.947 190.054 193.696 189.438C193.457 188.822 193.338 188.169 193.338 187.478C193.338 186.549 193.551 185.701 193.978 184.934C194.406 184.168 194.996 183.552 195.75 183.088C196.516 182.623 197.389 182.39 198.369 182.39C199.362 182.39 200.222 182.629 200.951 183.106C201.692 183.571 202.263 184.187 202.665 184.953C203.08 185.707 203.287 186.523 203.287 187.403C203.287 187.528 203.281 187.654 203.268 187.78C203.268 187.893 203.262 187.981 203.25 188.044H195.09C195.14 188.684 195.316 189.256 195.618 189.758C195.932 190.248 196.334 190.638 196.824 190.927C197.314 191.203 197.841 191.341 198.407 191.341C199.01 191.341 199.575 191.19 200.103 190.889C200.643 190.587 201.013 190.192 201.214 189.702L202.647 190.098C202.433 190.575 202.113 191.002 201.686 191.379C201.271 191.756 200.775 192.051 200.197 192.265C199.632 192.478 199.016 192.585 198.35 192.585ZM195.034 186.894H201.742C201.692 186.253 201.51 185.688 201.196 185.198C200.882 184.708 200.48 184.325 199.99 184.049C199.5 183.772 198.96 183.634 198.369 183.634C197.791 183.634 197.257 183.772 196.767 184.049C196.277 184.325 195.875 184.708 195.561 185.198C195.26 185.688 195.084 186.253 195.034 186.894Z" fill="black"/>
<g clip-path="url(#clip1_629_1724)">
<path d="M221.028 184.436C220.804 184.436 220.586 184.37 220.4 184.246C220.214 184.121 220.069 183.945 219.984 183.738C219.898 183.532 219.876 183.304 219.919 183.085C219.963 182.866 220.07 182.664 220.229 182.506C220.387 182.348 220.588 182.24 220.808 182.197C221.027 182.153 221.254 182.175 221.461 182.261C221.667 182.346 221.844 182.491 221.968 182.677C222.092 182.863 222.159 183.082 222.159 183.305C222.159 183.605 222.04 183.893 221.828 184.105C221.616 184.317 221.328 184.436 221.028 184.436Z" fill="#83C29B"/>
<path d="M221.027 194.045C219.573 194.045 218.152 193.614 216.944 192.806C215.735 191.999 214.793 190.851 214.237 189.508C213.681 188.165 213.535 186.688 213.819 185.262C214.103 183.836 214.802 182.527 215.83 181.499C216.858 180.471 218.168 179.771 219.593 179.488C221.019 179.204 222.496 179.35 223.839 179.906C225.182 180.462 226.33 181.404 227.137 182.613C227.945 183.821 228.376 185.242 228.376 186.696C228.376 188.645 227.602 190.514 226.224 191.892C224.845 193.271 222.976 194.045 221.027 194.045ZM221.027 180.477C219.797 180.477 218.595 180.842 217.572 181.525C216.549 182.209 215.752 183.18 215.282 184.316C214.811 185.452 214.688 186.703 214.928 187.909C215.168 189.115 215.76 190.223 216.63 191.093C217.499 191.963 218.607 192.555 219.814 192.795C221.02 193.035 222.27 192.912 223.407 192.441C224.543 191.97 225.514 191.173 226.197 190.151C226.881 189.128 227.245 187.926 227.245 186.696C227.245 185.047 226.59 183.465 225.424 182.299C224.258 181.132 222.676 180.477 221.027 180.477Z" fill="#83C29B"/>
<path d="M221.028 191.22C220.728 191.22 220.441 191.1 220.229 190.888C220.017 190.676 219.897 190.389 219.897 190.089V186.697C219.897 186.397 220.017 186.11 220.229 185.898C220.441 185.686 220.728 185.566 221.028 185.566C221.328 185.566 221.616 185.686 221.828 185.898C222.04 186.11 222.159 186.397 222.159 186.697V190.089C222.159 190.389 222.04 190.676 221.828 190.888C221.616 191.1 221.328 191.22 221.028 191.22Z" fill="#83C29B"/>
</g>
<path d="M492.104 241.301H493.32L497.957 252.654H496.422L495.079 249.328H490.313L488.986 252.654H487.451L492.104 241.301ZM494.759 248.209L492.712 242.964L490.601 248.209H494.759ZM498.997 249.312V244.307H500.404V249.04C500.404 249.893 500.553 250.533 500.852 250.959C501.15 251.386 501.593 251.599 502.179 251.599C502.563 251.599 502.93 251.519 503.282 251.359C503.645 251.188 503.97 250.949 504.258 250.639C504.546 250.33 504.769 249.962 504.929 249.536V244.307H506.337V251.055C506.337 251.226 506.369 251.354 506.432 251.439C506.507 251.514 506.624 251.556 506.784 251.567V252.654C506.624 252.676 506.496 252.686 506.401 252.686C506.315 252.697 506.23 252.702 506.145 252.702C505.878 252.702 505.649 252.622 505.457 252.462C505.265 252.292 505.164 252.084 505.153 251.839L505.121 250.863C504.759 251.482 504.268 251.961 503.65 252.302C503.042 252.644 502.376 252.814 501.651 252.814C500.777 252.814 500.116 252.521 499.668 251.935C499.221 251.338 498.997 250.464 498.997 249.312ZM512.998 252.239C512.881 252.292 512.721 252.361 512.518 252.446C512.316 252.532 512.081 252.606 511.815 252.67C511.548 252.734 511.266 252.766 510.967 252.766C510.626 252.766 510.312 252.708 510.024 252.59C509.736 252.462 509.507 252.271 509.336 252.015C509.166 251.748 509.08 251.418 509.08 251.023V245.41H507.945V244.307H509.08V241.525H510.488V244.307H512.359V245.41H510.488V250.591C510.509 250.89 510.61 251.114 510.791 251.263C510.973 251.402 511.186 251.471 511.431 251.471C511.708 251.471 511.964 251.423 512.199 251.327C512.433 251.231 512.588 251.162 512.662 251.119L512.998 252.239ZM517.839 252.814C517.21 252.814 516.64 252.702 516.128 252.478C515.616 252.244 515.174 251.929 514.801 251.535C514.428 251.13 514.14 250.666 513.937 250.144C513.735 249.621 513.633 249.072 513.633 248.497C513.633 247.91 513.735 247.356 513.937 246.834C514.14 246.311 514.428 245.853 514.801 245.458C515.174 245.053 515.616 244.739 516.128 244.515C516.65 244.28 517.221 244.163 517.839 244.163C518.468 244.163 519.038 244.28 519.55 244.515C520.062 244.739 520.504 245.053 520.877 245.458C521.261 245.853 521.554 246.311 521.757 246.834C521.959 247.356 522.061 247.91 522.061 248.497C522.061 249.072 521.959 249.621 521.757 250.144C521.554 250.666 521.266 251.13 520.893 251.535C520.52 251.929 520.072 252.244 519.55 252.478C519.038 252.702 518.468 252.814 517.839 252.814ZM515.073 248.513C515.073 249.088 515.195 249.611 515.44 250.08C515.696 250.549 516.032 250.922 516.448 251.199C516.864 251.466 517.327 251.599 517.839 251.599C518.351 251.599 518.815 251.46 519.23 251.183C519.657 250.906 519.993 250.533 520.238 250.064C520.494 249.584 520.621 249.056 520.621 248.481C520.621 247.905 520.494 247.383 520.238 246.914C519.993 246.444 519.657 246.071 519.23 245.794C518.815 245.517 518.351 245.378 517.839 245.378C517.327 245.378 516.864 245.522 516.448 245.81C516.032 246.087 515.696 246.46 515.44 246.93C515.195 247.399 515.073 247.926 515.073 248.513Z" fill="black"/>
<path d="M92.4597 244.083C92.3089 243.907 92.1079 243.737 91.8567 243.574C91.6054 243.411 91.3228 243.266 91.0087 243.141C90.6946 243.002 90.3491 242.896 89.9723 242.82C89.6079 242.732 89.2248 242.688 88.8228 242.688C87.7926 242.688 87.0326 242.883 86.5427 243.273C86.0527 243.662 85.8078 244.196 85.8078 244.874C85.8078 245.352 85.9334 245.729 86.1846 246.005C86.4359 246.281 86.819 246.507 87.3341 246.683C87.8617 246.859 88.5276 247.041 89.3316 247.23C90.2612 247.431 91.0652 247.676 91.7436 247.965C92.422 248.254 92.9433 248.643 93.3076 249.133C93.672 249.61 93.8541 250.251 93.8541 251.055C93.8541 251.696 93.7285 252.255 93.4772 252.732C93.2386 253.197 92.8994 253.586 92.4597 253.901C92.02 254.202 91.5049 254.428 90.9145 254.579C90.324 254.717 89.6833 254.786 88.9924 254.786C88.314 254.786 87.6482 254.717 86.9949 254.579C86.3542 254.428 85.7449 254.215 85.1671 253.938C84.5892 253.662 84.049 253.316 83.5465 252.902L84.3568 251.47C84.5578 251.683 84.8153 251.897 85.1294 252.11C85.456 252.311 85.8203 252.5 86.2223 252.676C86.6369 252.852 87.0829 252.996 87.5602 253.109C88.0376 253.21 88.5276 253.26 89.0301 253.26C89.9848 253.26 90.726 253.09 91.2537 252.751C91.7813 252.399 92.0451 251.891 92.0451 251.225C92.0451 250.722 91.8944 250.32 91.5928 250.019C91.3039 249.717 90.8705 249.466 90.2926 249.265C89.7147 249.064 89.0112 248.863 88.1821 248.662C87.2776 248.436 86.5175 248.191 85.902 247.927C85.2864 247.651 84.8216 247.293 84.5075 246.853C84.206 246.413 84.0553 245.842 84.0553 245.138C84.0553 244.284 84.2625 243.561 84.6771 242.971C85.0917 242.381 85.6633 241.935 86.3919 241.633C87.1205 241.332 87.9434 241.181 88.8605 241.181C89.4635 241.181 90.0225 241.244 90.5376 241.369C91.0652 241.495 91.5552 241.671 92.0074 241.897C92.4597 242.123 92.8742 242.393 93.2511 242.707L92.4597 244.083ZM110.651 254.654H108.993V249.152C108.993 248.122 108.823 247.362 108.484 246.872C108.157 246.382 107.668 246.137 107.014 246.137C106.348 246.137 105.745 246.382 105.205 246.872C104.665 247.349 104.282 247.971 104.056 248.737V254.654H102.398V249.152C102.398 248.109 102.234 247.349 101.908 246.872C101.581 246.382 101.091 246.137 100.438 246.137C99.7845 246.137 99.1815 246.376 98.6287 246.853C98.0885 247.318 97.7054 247.94 97.4792 248.718V254.654H95.821V244.818H97.3285V246.928C97.7305 246.2 98.2518 245.641 98.8925 245.251C99.5332 244.849 100.256 244.648 101.06 244.648C101.876 244.648 102.529 244.874 103.019 245.327C103.509 245.766 103.811 246.338 103.924 247.041C104.364 246.262 104.897 245.672 105.526 245.27C106.154 244.855 106.87 244.648 107.674 244.648C108.239 244.648 108.71 244.755 109.087 244.969C109.477 245.17 109.784 245.458 110.01 245.835C110.237 246.2 110.4 246.633 110.5 247.136C110.601 247.638 110.651 248.185 110.651 248.775V254.654ZM112.457 251.809C112.457 251.181 112.633 250.641 112.985 250.188C113.349 249.723 113.845 249.365 114.473 249.114C115.101 248.863 115.83 248.737 116.659 248.737C117.099 248.737 117.564 248.775 118.054 248.85C118.544 248.913 118.977 249.014 119.354 249.152V248.436C119.354 247.682 119.128 247.092 118.675 246.664C118.223 246.225 117.582 246.005 116.753 246.005C116.213 246.005 115.692 246.105 115.189 246.306C114.699 246.495 114.178 246.771 113.625 247.136L113.022 245.967C113.663 245.528 114.304 245.201 114.944 244.987C115.585 244.761 116.251 244.648 116.942 244.648C118.198 244.648 119.191 245 119.919 245.703C120.648 246.394 121.012 247.362 121.012 248.605V252.77C121.012 252.971 121.05 253.122 121.125 253.222C121.213 253.31 121.351 253.36 121.54 253.373V254.654C121.376 254.679 121.232 254.698 121.106 254.711C120.993 254.723 120.899 254.73 120.824 254.73C120.434 254.73 120.139 254.623 119.938 254.409C119.75 254.196 119.643 253.97 119.618 253.731L119.58 253.109C119.153 253.662 118.594 254.089 117.903 254.39C117.212 254.692 116.527 254.843 115.849 254.843C115.196 254.843 114.611 254.711 114.096 254.447C113.581 254.171 113.179 253.806 112.89 253.354C112.601 252.889 112.457 252.374 112.457 251.809ZM118.864 252.506C119.015 252.33 119.134 252.154 119.222 251.978C119.31 251.79 119.354 251.633 119.354 251.507V250.282C118.964 250.132 118.556 250.019 118.129 249.943C117.702 249.855 117.281 249.811 116.866 249.811C116.025 249.811 115.34 249.981 114.812 250.32C114.297 250.647 114.04 251.099 114.04 251.677C114.04 251.991 114.121 252.299 114.285 252.6C114.461 252.889 114.712 253.128 115.039 253.316C115.378 253.505 115.792 253.599 116.282 253.599C116.797 253.599 117.287 253.499 117.752 253.298C118.217 253.084 118.588 252.82 118.864 252.506ZM128.865 246.269C128.035 246.281 127.301 246.495 126.66 246.909C126.032 247.311 125.586 247.87 125.322 248.587V254.654H123.664V244.818H125.209V247.098C125.548 246.419 125.994 245.873 126.547 245.458C127.112 245.031 127.703 244.793 128.318 244.742C128.444 244.742 128.551 244.742 128.638 244.742C128.726 244.742 128.802 244.749 128.865 244.761V246.269ZM135.597 254.164C135.459 254.227 135.271 254.309 135.032 254.409C134.793 254.51 134.517 254.598 134.203 254.673C133.889 254.749 133.556 254.786 133.204 254.786C132.802 254.786 132.431 254.717 132.092 254.579C131.753 254.428 131.483 254.202 131.282 253.901C131.081 253.586 130.98 253.197 130.98 252.732V246.118H129.642V244.818H130.98V241.539H132.639V244.818H134.843V246.118H132.639V252.223C132.664 252.575 132.783 252.839 132.997 253.015C133.21 253.178 133.462 253.26 133.75 253.26C134.077 253.26 134.379 253.203 134.655 253.09C134.931 252.977 135.114 252.896 135.201 252.845L135.597 254.164ZM147.101 246.269C146.272 246.281 145.537 246.495 144.897 246.909C144.268 247.311 143.822 247.87 143.559 248.587V254.654H141.9V244.818H143.446V247.098C143.785 246.419 144.231 245.873 144.783 245.458C145.349 245.031 145.939 244.793 146.555 244.742C146.68 244.742 146.787 244.742 146.875 244.742C146.963 244.742 147.038 244.749 147.101 244.761V246.269ZM152.803 254.843C152.062 254.843 151.39 254.711 150.787 254.447C150.184 254.171 149.663 253.8 149.223 253.335C148.783 252.858 148.444 252.311 148.205 251.696C147.967 251.08 147.847 250.433 147.847 249.755C147.847 249.064 147.967 248.411 148.205 247.795C148.444 247.18 148.783 246.639 149.223 246.175C149.663 245.697 150.184 245.327 150.787 245.063C151.402 244.786 152.075 244.648 152.803 244.648C153.544 244.648 154.216 244.786 154.819 245.063C155.423 245.327 155.944 245.697 156.384 246.175C156.836 246.639 157.181 247.18 157.42 247.795C157.659 248.411 157.778 249.064 157.778 249.755C157.778 250.433 157.659 251.08 157.42 251.696C157.181 252.311 156.842 252.858 156.402 253.335C155.963 253.8 155.435 254.171 154.819 254.447C154.216 254.711 153.544 254.843 152.803 254.843ZM149.543 249.774C149.543 250.452 149.688 251.068 149.977 251.62C150.278 252.173 150.674 252.613 151.164 252.939C151.654 253.254 152.2 253.411 152.803 253.411C153.406 253.411 153.953 253.247 154.443 252.921C154.945 252.594 155.341 252.154 155.63 251.602C155.931 251.036 156.082 250.414 156.082 249.736C156.082 249.058 155.931 248.442 155.63 247.889C155.341 247.337 154.945 246.897 154.443 246.57C153.953 246.244 153.406 246.08 152.803 246.08C152.2 246.08 151.654 246.25 151.164 246.589C150.674 246.916 150.278 247.355 149.977 247.908C149.688 248.461 149.543 249.083 149.543 249.774ZM159.693 250.716V244.818H161.351V250.396C161.351 251.401 161.527 252.154 161.879 252.657C162.231 253.159 162.752 253.411 163.443 253.411C163.895 253.411 164.329 253.316 164.743 253.128C165.17 252.927 165.554 252.644 165.893 252.28C166.232 251.916 166.496 251.482 166.684 250.98V244.818H168.343V252.77C168.343 252.971 168.38 253.122 168.456 253.222C168.544 253.31 168.682 253.36 168.87 253.373V254.654C168.682 254.679 168.531 254.692 168.418 254.692C168.317 254.705 168.217 254.711 168.116 254.711C167.802 254.711 167.532 254.617 167.306 254.428C167.08 254.227 166.961 253.982 166.948 253.693L166.91 252.544C166.483 253.272 165.905 253.838 165.177 254.24C164.461 254.642 163.676 254.843 162.821 254.843C161.791 254.843 161.012 254.497 160.485 253.806C159.957 253.103 159.693 252.073 159.693 250.716ZM176.193 254.164C176.054 254.227 175.866 254.309 175.627 254.409C175.389 254.51 175.112 254.598 174.798 254.673C174.484 254.749 174.151 254.786 173.799 254.786C173.397 254.786 173.027 254.717 172.688 254.579C172.348 254.428 172.078 254.202 171.877 253.901C171.676 253.586 171.576 253.197 171.576 252.732V246.118H170.238V244.818H171.576V241.539H173.234V244.818H175.439V246.118H173.234V252.223C173.259 252.575 173.379 252.839 173.592 253.015C173.806 253.178 174.057 253.26 174.346 253.26C174.673 253.26 174.974 253.203 175.25 253.09C175.527 252.977 175.709 252.896 175.797 252.845L176.193 254.164ZM177.73 254.654V244.818H179.388V254.654H177.73ZM177.73 242.971V240.898H179.388V242.971H177.73ZM190.609 254.654H188.951V249.152C188.951 248.109 188.787 247.349 188.461 246.872C188.147 246.382 187.663 246.137 187.01 246.137C186.557 246.137 186.105 246.25 185.653 246.476C185.213 246.702 184.818 247.01 184.466 247.399C184.127 247.776 183.882 248.216 183.731 248.718V254.654H182.073V244.818H183.58V246.928C183.844 246.463 184.183 246.061 184.598 245.722C185.012 245.383 185.483 245.119 186.011 244.931C186.539 244.742 187.091 244.648 187.669 244.648C188.235 244.648 188.706 244.755 189.083 244.969C189.472 245.17 189.773 245.458 189.987 245.835C190.213 246.2 190.37 246.633 190.458 247.136C190.559 247.638 190.609 248.185 190.609 248.775V254.654ZM197.107 254.767C196.441 254.767 195.826 254.635 195.26 254.372C194.708 254.095 194.23 253.725 193.828 253.26C193.426 252.782 193.112 252.242 192.886 251.639C192.672 251.036 192.566 250.408 192.566 249.755C192.566 249.064 192.672 248.411 192.886 247.795C193.112 247.18 193.426 246.639 193.828 246.175C194.243 245.697 194.726 245.327 195.279 245.063C195.832 244.786 196.448 244.648 197.126 244.648C197.943 244.648 198.652 244.849 199.255 245.251C199.871 245.653 200.386 246.162 200.801 246.778V244.818H202.27V254.541C202.27 255.471 202.044 256.256 201.592 256.897C201.152 257.537 200.549 258.021 199.783 258.348C199.029 258.687 198.187 258.857 197.258 258.857C196.152 258.857 195.248 258.662 194.544 258.272C193.841 257.883 193.257 257.355 192.792 256.689L193.753 255.841C194.142 256.419 194.645 256.853 195.26 257.142C195.889 257.431 196.554 257.575 197.258 257.575C197.861 257.575 198.414 257.462 198.916 257.236C199.431 257.022 199.839 256.689 200.141 256.237C200.455 255.785 200.612 255.22 200.612 254.541V252.808C200.248 253.411 199.745 253.888 199.105 254.24C198.476 254.591 197.811 254.767 197.107 254.767ZM197.616 253.411C197.968 253.411 198.307 253.348 198.633 253.222C198.96 253.097 199.262 252.933 199.538 252.732C199.814 252.519 200.047 252.28 200.235 252.016C200.424 251.752 200.549 251.482 200.612 251.206V248.379C200.436 247.927 200.185 247.531 199.858 247.192C199.532 246.84 199.161 246.57 198.747 246.382C198.332 246.181 197.905 246.08 197.465 246.08C196.963 246.08 196.51 246.187 196.108 246.401C195.719 246.614 195.386 246.903 195.11 247.267C194.833 247.619 194.62 248.015 194.469 248.455C194.318 248.894 194.243 249.34 194.243 249.793C194.243 250.282 194.331 250.747 194.507 251.187C194.683 251.614 194.921 251.997 195.223 252.336C195.524 252.676 195.882 252.939 196.297 253.128C196.711 253.316 197.151 253.411 197.616 253.411Z" fill="black"/>
<g clip-path="url(#clip2_629_1724)">
<path d="M220.077 246.697C219.853 246.697 219.635 246.631 219.449 246.506C219.263 246.382 219.118 246.205 219.032 245.999C218.947 245.792 218.924 245.565 218.968 245.346C219.012 245.126 219.119 244.925 219.277 244.767C219.436 244.609 219.637 244.501 219.856 244.457C220.076 244.414 220.303 244.436 220.51 244.522C220.716 244.607 220.893 244.752 221.017 244.938C221.141 245.124 221.208 245.343 221.208 245.566C221.208 245.866 221.088 246.154 220.876 246.366C220.664 246.578 220.377 246.697 220.077 246.697Z" fill="#83C29B"/>
<path d="M220.078 256.306C218.624 256.306 217.203 255.875 215.995 255.067C214.786 254.26 213.844 253.112 213.288 251.769C212.732 250.426 212.586 248.948 212.87 247.523C213.153 246.097 213.853 244.788 214.881 243.76C215.909 242.732 217.218 242.032 218.644 241.749C220.07 241.465 221.547 241.611 222.89 242.167C224.233 242.723 225.381 243.665 226.188 244.874C226.996 246.082 227.427 247.503 227.427 248.957C227.427 250.906 226.653 252.775 225.274 254.153C223.896 255.531 222.027 256.306 220.078 256.306ZM220.078 242.738C218.848 242.738 217.645 243.103 216.623 243.786C215.6 244.469 214.803 245.441 214.333 246.577C213.862 247.713 213.739 248.963 213.979 250.17C214.219 251.376 214.811 252.484 215.681 253.354C216.55 254.223 217.658 254.816 218.864 255.056C220.071 255.296 221.321 255.172 222.457 254.702C223.594 254.231 224.565 253.434 225.248 252.411C225.931 251.389 226.296 250.186 226.296 248.957C226.296 247.307 225.641 245.726 224.475 244.559C223.309 243.393 221.727 242.738 220.078 242.738Z" fill="#83C29B"/>
<path d="M220.077 253.48C219.777 253.48 219.489 253.361 219.277 253.149C219.065 252.937 218.946 252.65 218.946 252.35V248.958C218.946 248.658 219.065 248.37 219.277 248.158C219.489 247.946 219.777 247.827 220.077 247.827C220.377 247.827 220.664 247.946 220.876 248.158C221.088 248.37 221.208 248.658 221.208 248.958V252.35C221.208 252.65 221.088 252.937 220.876 253.149C220.664 253.361 220.377 253.48 220.077 253.48Z" fill="#83C29B"/>
</g>
<path d="M490.536 316.794V305.438H498.037V306.718H491.976V310.508H497.078V311.708H491.976V316.794H490.536ZM503.442 309.677C502.738 309.687 502.115 309.869 501.571 310.22C501.038 310.562 500.659 311.036 500.435 311.644V316.794H499.028V308.445H500.339V310.38C500.627 309.805 501.006 309.341 501.475 308.989C501.955 308.626 502.456 308.424 502.978 308.381C503.085 308.381 503.175 308.381 503.25 308.381C503.325 308.381 503.389 308.387 503.442 308.397V309.677ZM508.33 316.954C507.7 316.954 507.125 316.842 506.602 316.618C506.09 316.383 505.643 316.069 505.259 315.674C504.886 315.269 504.592 314.805 504.379 314.283C504.176 313.76 504.075 313.206 504.075 312.62C504.075 311.831 504.256 311.111 504.619 310.46C504.981 309.81 505.483 309.288 506.122 308.893C506.773 308.498 507.514 308.301 508.346 308.301C509.188 308.301 509.918 308.504 510.537 308.909C511.166 309.303 511.651 309.826 511.992 310.476C512.344 311.116 512.52 311.809 512.52 312.556C512.52 312.662 512.515 312.769 512.504 312.875C512.504 312.971 512.499 313.046 512.488 313.099H505.563C505.605 313.643 505.755 314.128 506.01 314.555C506.277 314.971 506.618 315.301 507.034 315.546C507.45 315.781 507.898 315.898 508.377 315.898C508.889 315.898 509.369 315.77 509.817 315.514C510.275 315.259 510.59 314.923 510.761 314.507L511.976 314.843C511.795 315.248 511.523 315.61 511.16 315.93C510.809 316.25 510.387 316.501 509.897 316.682C509.417 316.863 508.895 316.954 508.33 316.954ZM505.515 312.124H511.208C511.166 311.58 511.011 311.1 510.745 310.684C510.478 310.268 510.137 309.943 509.721 309.709C509.305 309.474 508.847 309.357 508.346 309.357C507.855 309.357 507.402 309.474 506.986 309.709C506.57 309.943 506.229 310.268 505.962 310.684C505.707 311.1 505.557 311.58 505.515 312.124ZM517.779 316.954C517.15 316.954 516.574 316.842 516.052 316.618C515.54 316.383 515.092 316.069 514.708 315.674C514.335 315.269 514.042 314.805 513.829 314.283C513.626 313.76 513.525 313.206 513.525 312.62C513.525 311.831 513.706 311.111 514.068 310.46C514.431 309.81 514.932 309.288 515.572 308.893C516.222 308.498 516.963 308.301 517.795 308.301C518.637 308.301 519.368 308.504 519.986 308.909C520.615 309.303 521.1 309.826 521.442 310.476C521.793 311.116 521.969 311.809 521.969 312.556C521.969 312.662 521.964 312.769 521.953 312.875C521.953 312.971 521.948 313.046 521.937 313.099H515.012C515.055 313.643 515.204 314.128 515.46 314.555C515.726 314.971 516.068 315.301 516.483 315.546C516.899 315.781 517.347 315.898 517.827 315.898C518.339 315.898 518.819 315.77 519.266 315.514C519.725 315.259 520.039 314.923 520.21 314.507L521.426 314.843C521.244 315.248 520.972 315.61 520.61 315.93C520.258 316.25 519.837 316.501 519.346 316.682C518.867 316.863 518.344 316.954 517.779 316.954ZM514.964 312.124H520.658C520.615 311.58 520.461 311.1 520.194 310.684C519.928 310.268 519.586 309.943 519.17 309.709C518.755 309.474 518.296 309.357 517.795 309.357C517.305 309.357 516.851 309.474 516.436 309.709C516.02 309.943 515.678 310.268 515.412 310.684C515.156 311.1 515.007 311.58 514.964 312.124Z" fill="black"/>
<path d="M86.2987 305.658V315.909H84.6027V302.53H86.0349L94.2131 312.988V302.549H95.9091V315.909H94.3639L86.2987 305.658ZM103.027 316.098C102.286 316.098 101.608 315.966 100.992 315.702C100.389 315.426 99.8615 315.055 99.4092 314.59C98.9695 314.113 98.624 313.566 98.3728 312.951C98.1341 312.335 98.0148 311.682 98.0148 310.991C98.0148 310.061 98.2283 309.213 98.6555 308.447C99.0826 307.681 99.673 307.065 100.427 306.6C101.193 306.135 102.066 305.903 103.046 305.903C104.039 305.903 104.899 306.142 105.628 306.619C106.369 307.084 106.941 307.699 107.343 308.466C107.757 309.22 107.964 310.036 107.964 310.916C107.964 311.041 107.958 311.167 107.946 311.292C107.946 311.405 107.939 311.493 107.927 311.556H99.7672C99.8175 312.197 99.9934 312.769 100.295 313.271C100.609 313.761 101.011 314.15 101.501 314.439C101.991 314.716 102.518 314.854 103.084 314.854C103.687 314.854 104.252 314.703 104.78 314.402C105.32 314.1 105.691 313.704 105.892 313.214L107.324 313.61C107.11 314.088 106.79 314.515 106.363 314.892C105.948 315.268 105.452 315.564 104.874 315.777C104.309 315.991 103.693 316.098 103.027 316.098ZM99.7107 310.407H106.419C106.369 309.766 106.187 309.201 105.873 308.711C105.559 308.221 105.157 307.838 104.667 307.561C104.177 307.285 103.637 307.147 103.046 307.147C102.468 307.147 101.934 307.285 101.444 307.561C100.954 307.838 100.552 308.221 100.238 308.711C99.9368 309.201 99.761 309.766 99.7107 310.407ZM114.804 315.419C114.665 315.482 114.477 315.564 114.238 315.664C114 315.765 113.723 315.853 113.409 315.928C113.095 316.003 112.762 316.041 112.41 316.041C112.008 316.041 111.638 315.972 111.299 315.834C110.959 315.683 110.689 315.457 110.488 315.155C110.287 314.841 110.187 314.452 110.187 313.987V307.373H108.849V306.073H110.187V302.794H111.845V306.073H114.05V307.373H111.845V313.478C111.87 313.83 111.99 314.094 112.203 314.27C112.417 314.433 112.668 314.515 112.957 314.515C113.283 314.515 113.585 314.458 113.861 314.345C114.138 314.232 114.32 314.15 114.408 314.1L114.804 315.419ZM128.664 306.073H130.266L126.083 315.909H124.632L122.729 311.274L120.844 315.909H119.393L115.21 306.073H116.793L120.185 314.27L121.768 310.237L120.109 306.091H121.56L122.729 309.22L123.897 306.091H125.348L123.708 310.237L125.291 314.27L128.664 306.073ZM135.782 316.098C135.041 316.098 134.369 315.966 133.766 315.702C133.163 315.426 132.641 315.055 132.202 314.59C131.762 314.113 131.423 313.566 131.184 312.951C130.945 312.335 130.826 311.688 130.826 311.01C130.826 310.319 130.945 309.666 131.184 309.05C131.423 308.434 131.762 307.894 132.202 307.429C132.641 306.952 133.163 306.581 133.766 306.318C134.381 306.041 135.053 305.903 135.782 305.903C136.523 305.903 137.195 306.041 137.798 306.318C138.401 306.581 138.923 306.952 139.362 307.429C139.815 307.894 140.16 308.434 140.399 309.05C140.637 309.666 140.757 310.319 140.757 311.01C140.757 311.688 140.637 312.335 140.399 312.951C140.16 313.566 139.821 314.113 139.381 314.59C138.942 315.055 138.414 315.426 137.798 315.702C137.195 315.966 136.523 316.098 135.782 316.098ZM132.522 311.029C132.522 311.707 132.666 312.323 132.955 312.875C133.257 313.428 133.653 313.868 134.143 314.194C134.633 314.508 135.179 314.665 135.782 314.665C136.385 314.665 136.932 314.502 137.421 314.176C137.924 313.849 138.32 313.409 138.609 312.856C138.91 312.291 139.061 311.669 139.061 310.991C139.061 310.313 138.91 309.697 138.609 309.144C138.32 308.591 137.924 308.152 137.421 307.825C136.932 307.498 136.385 307.335 135.782 307.335C135.179 307.335 134.633 307.505 134.143 307.844C133.653 308.171 133.257 308.61 132.955 309.163C132.666 309.716 132.522 310.338 132.522 311.029ZM147.967 307.524C147.138 307.536 146.403 307.75 145.762 308.164C145.134 308.566 144.688 309.125 144.424 309.841V315.909H142.766V306.073H144.311V308.353C144.651 307.674 145.097 307.128 145.649 306.713C146.215 306.286 146.805 306.048 147.421 305.997C147.546 305.997 147.653 305.997 147.741 305.997C147.829 305.997 147.904 306.004 147.967 306.016V307.524ZM156.546 315.909L153.136 311.123L151.27 312.875V315.909H149.612V302.153H151.27V311.142L156.358 306.091H158.148L154.229 310.162L158.337 315.909H156.546ZM168.889 316.098C168.148 316.098 167.47 315.966 166.854 315.702C166.251 315.426 165.723 315.049 165.271 314.571C164.831 314.094 164.486 313.547 164.235 312.932C163.996 312.316 163.877 311.663 163.877 310.972C163.877 310.042 164.084 309.194 164.498 308.428C164.913 307.662 165.497 307.053 166.251 306.6C167.005 306.135 167.878 305.903 168.87 305.903C169.838 305.903 170.679 306.123 171.395 306.563C172.124 306.99 172.664 307.568 173.016 308.296L171.395 308.805C171.144 308.34 170.792 307.982 170.34 307.731C169.888 307.467 169.385 307.335 168.833 307.335C168.23 307.335 167.677 307.492 167.174 307.806C166.684 308.12 166.295 308.554 166.006 309.107C165.717 309.647 165.573 310.269 165.573 310.972C165.573 311.663 165.717 312.291 166.006 312.856C166.307 313.409 166.703 313.849 167.193 314.176C167.696 314.502 168.248 314.665 168.851 314.665C169.241 314.665 169.611 314.596 169.963 314.458C170.328 314.32 170.642 314.138 170.905 313.912C171.182 313.673 171.37 313.415 171.471 313.139L173.091 313.629C172.89 314.106 172.583 314.534 172.168 314.91C171.766 315.275 171.282 315.564 170.717 315.777C170.164 315.991 169.555 316.098 168.889 316.098ZM179.175 316.098C178.433 316.098 177.761 315.966 177.158 315.702C176.555 315.426 176.034 315.055 175.594 314.59C175.155 314.113 174.815 313.566 174.577 312.951C174.338 312.335 174.219 311.688 174.219 311.01C174.219 310.319 174.338 309.666 174.577 309.05C174.815 308.434 175.155 307.894 175.594 307.429C176.034 306.952 176.555 306.581 177.158 306.318C177.774 306.041 178.446 305.903 179.175 305.903C179.916 305.903 180.588 306.041 181.191 306.318C181.794 306.581 182.315 306.952 182.755 307.429C183.207 307.894 183.553 308.434 183.791 309.05C184.03 309.666 184.149 310.319 184.149 311.01C184.149 311.688 184.03 312.335 183.791 312.951C183.553 313.566 183.214 314.113 182.774 314.59C182.334 315.055 181.807 315.426 181.191 315.702C180.588 315.966 179.916 316.098 179.175 316.098ZM175.915 311.029C175.915 311.707 176.059 312.323 176.348 312.875C176.65 313.428 177.045 313.868 177.535 314.194C178.025 314.508 178.572 314.665 179.175 314.665C179.778 314.665 180.324 314.502 180.814 314.176C181.317 313.849 181.712 313.409 182.001 312.856C182.303 312.291 182.454 311.669 182.454 310.991C182.454 310.313 182.303 309.697 182.001 309.144C181.712 308.591 181.317 308.152 180.814 307.825C180.324 307.498 179.778 307.335 179.175 307.335C178.572 307.335 178.025 307.505 177.535 307.844C177.045 308.171 176.65 308.61 176.348 309.163C176.059 309.716 175.915 310.338 175.915 311.029ZM189.532 316.098C188.715 316.098 187.949 315.966 187.233 315.702C186.517 315.426 185.901 315.017 185.386 314.477L186.027 313.309C186.592 313.836 187.158 314.213 187.723 314.439C188.288 314.665 188.866 314.779 189.457 314.779C190.135 314.779 190.688 314.653 191.115 314.402C191.542 314.138 191.756 313.755 191.756 313.252C191.756 312.888 191.642 312.618 191.416 312.442C191.203 312.266 190.895 312.122 190.493 312.008C190.091 311.883 189.614 311.745 189.061 311.594C188.382 311.393 187.811 311.179 187.346 310.953C186.881 310.727 186.529 310.444 186.291 310.105C186.052 309.766 185.933 309.339 185.933 308.824C185.933 308.196 186.096 307.668 186.423 307.241C186.749 306.801 187.195 306.468 187.761 306.242C188.338 306.016 188.992 305.903 189.72 305.903C190.449 305.903 191.109 306.016 191.699 306.242C192.289 306.468 192.798 306.801 193.225 307.241L192.472 308.39C192.082 307.988 191.655 307.693 191.19 307.505C190.725 307.304 190.204 307.203 189.626 307.203C189.287 307.203 188.954 307.247 188.627 307.335C188.301 307.411 188.031 307.555 187.817 307.769C187.604 307.97 187.497 308.259 187.497 308.635C187.497 308.949 187.578 309.201 187.742 309.389C187.918 309.565 188.169 309.716 188.496 309.841C188.835 309.967 189.243 310.105 189.72 310.256C190.462 310.47 191.102 310.683 191.642 310.897C192.195 311.11 192.622 311.387 192.924 311.726C193.225 312.065 193.376 312.536 193.376 313.139C193.376 314.069 193.024 314.797 192.321 315.325C191.617 315.84 190.688 316.098 189.532 316.098ZM200.448 315.419C200.31 315.482 200.121 315.564 199.883 315.664C199.644 315.765 199.367 315.853 199.053 315.928C198.739 316.003 198.406 316.041 198.055 316.041C197.653 316.041 197.282 315.972 196.943 315.834C196.604 315.683 196.334 315.457 196.133 315.155C195.932 314.841 195.831 314.452 195.831 313.987V307.373H194.493V306.073H195.831V302.794H197.489V306.073H199.694V307.373H197.489V313.478C197.515 313.83 197.634 314.094 197.847 314.27C198.061 314.433 198.312 314.515 198.601 314.515C198.928 314.515 199.229 314.458 199.506 314.345C199.782 314.232 199.964 314.15 200.052 314.1L200.448 315.419Z" fill="black"/>
<g clip-path="url(#clip3_629_1724)">
<path d="M219.13 307.949C218.906 307.949 218.687 307.882 218.502 307.758C218.316 307.634 218.171 307.457 218.085 307.251C218 307.044 217.977 306.817 218.021 306.598C218.064 306.378 218.172 306.177 218.33 306.019C218.488 305.861 218.69 305.753 218.909 305.709C219.128 305.666 219.356 305.688 219.562 305.774C219.769 305.859 219.946 306.004 220.07 306.19C220.194 306.376 220.26 306.595 220.26 306.818C220.26 307.118 220.141 307.406 219.929 307.618C219.717 307.83 219.43 307.949 219.13 307.949Z" fill="#83C29B"/>
<path d="M219.128 317.558C217.675 317.558 216.254 317.127 215.045 316.319C213.837 315.512 212.895 314.364 212.339 313.021C211.782 311.678 211.637 310.2 211.921 308.775C212.204 307.349 212.904 306.04 213.932 305.012C214.96 303.984 216.269 303.284 217.695 303.001C219.12 302.717 220.598 302.863 221.941 303.419C223.284 303.975 224.432 304.917 225.239 306.126C226.047 307.334 226.478 308.755 226.478 310.209C226.478 312.158 225.703 314.027 224.325 315.405C222.947 316.783 221.078 317.558 219.128 317.558ZM219.128 303.99C217.899 303.99 216.696 304.355 215.674 305.038C214.651 305.721 213.854 306.693 213.383 307.829C212.913 308.965 212.789 310.215 213.029 311.422C213.269 312.628 213.862 313.736 214.731 314.606C215.601 315.475 216.709 316.068 217.915 316.308C219.122 316.547 220.372 316.424 221.508 315.954C222.644 315.483 223.616 314.686 224.299 313.663C224.982 312.641 225.347 311.438 225.347 310.209C225.347 308.559 224.692 306.978 223.526 305.811C222.359 304.645 220.778 303.99 219.128 303.99Z" fill="#83C29B"/>
<path d="M219.13 314.732C218.83 314.732 218.542 314.613 218.33 314.401C218.118 314.189 217.999 313.902 217.999 313.602V310.21C217.999 309.91 218.118 309.622 218.33 309.41C218.542 309.198 218.83 309.079 219.13 309.079C219.43 309.079 219.717 309.198 219.929 309.41C220.141 309.622 220.26 309.91 220.26 310.21V313.602C220.26 313.902 220.141 314.189 219.929 314.401C219.717 314.613 219.43 314.732 219.13 314.732Z" fill="#83C29B"/>
</g>
<defs>
<clipPath id="clip0_629_1724">
<rect width="18.0902" height="18.0902" fill="white" transform="translate(239.783 114.142)"/>
</clipPath>
<clipPath id="clip1_629_1724">
<rect width="18.0902" height="18.0902" fill="white" transform="translate(212.228 177.396)"/>
</clipPath>
<clipPath id="clip2_629_1724">
<rect width="18.0902" height="18.0902" fill="white" transform="translate(211.279 239.654)"/>
</clipPath>
<clipPath id="clip3_629_1724">
<rect width="18.0902" height="18.0902" fill="white" transform="translate(210.327 300.909)"/>
</clipPath>
</defs>
</svg>
