<svg width="296" height="276" viewBox="0 0 296 276" fill="none" xmlns="http://www.w3.org/2000/svg">
<rect width="296" height="276" rx="5" fill="#121212"/>
<path d="M250.449 36.9588H251.32L254.643 45.0947H253.543L252.581 42.7112H249.166L248.215 45.0947H247.115L250.449 36.9588ZM252.351 41.9091L250.885 38.1505L249.372 41.9091H252.351ZM255.388 42.6998V39.1131H256.397V42.505C256.397 43.1161 256.504 43.5745 256.717 43.8801C256.931 44.1856 257.248 44.3384 257.669 44.3384C257.944 44.3384 258.207 44.2811 258.459 44.1665C258.719 44.0443 258.952 43.8724 259.158 43.6509C259.365 43.4293 259.525 43.1658 259.64 42.8602V39.1131H260.648V43.9488C260.648 44.071 260.671 44.1627 260.717 44.2238C260.77 44.2773 260.854 44.3079 260.969 44.3155V45.0947C260.854 45.11 260.763 45.1176 260.694 45.1176C260.633 45.1253 260.572 45.1291 260.51 45.1291C260.319 45.1291 260.155 45.0718 260.018 44.9572C259.88 44.835 259.808 44.686 259.8 44.5103L259.777 43.8113C259.517 44.2544 259.166 44.5982 258.723 44.8426C258.287 45.0871 257.81 45.2093 257.29 45.2093C256.664 45.2093 256.19 44.9992 255.87 44.5791C255.549 44.1513 255.388 43.5248 255.388 42.6998ZM265.422 44.7968C265.338 44.835 265.223 44.8846 265.078 44.9458C264.933 45.0069 264.765 45.0603 264.574 45.1062C264.383 45.152 264.18 45.1749 263.966 45.1749C263.722 45.1749 263.497 45.1329 263.29 45.0489C263.084 44.9572 262.92 44.8197 262.798 44.6364C262.675 44.4454 262.614 44.2086 262.614 43.9259V39.9038H261.801V39.1131H262.614V37.1192H263.623V39.1131H264.963V39.9038H263.623V43.6165C263.638 43.8304 263.71 43.9908 263.84 44.0978C263.97 44.1971 264.123 44.2468 264.299 44.2468C264.497 44.2468 264.681 44.2124 264.849 44.1436C265.017 44.0749 265.128 44.0252 265.181 43.9947L265.422 44.7968ZM268.891 45.2093C268.44 45.2093 268.031 45.1291 267.664 44.9687C267.298 44.8006 266.981 44.5752 266.713 44.2926C266.446 44.0023 266.24 43.67 266.095 43.2957C265.949 42.9213 265.877 42.5279 265.877 42.1154C265.877 41.6952 265.949 41.2979 266.095 40.9236C266.24 40.5493 266.446 40.2208 266.713 39.9381C266.981 39.6478 267.298 39.4225 267.664 39.2621C268.039 39.094 268.448 39.01 268.891 39.01C269.341 39.01 269.75 39.094 270.117 39.2621C270.483 39.4225 270.8 39.6478 271.068 39.9381C271.343 40.2208 271.553 40.5493 271.698 40.9236C271.843 41.2979 271.916 41.6952 271.916 42.1154C271.916 42.5279 271.843 42.9213 271.698 43.2957C271.553 43.67 271.347 44.0023 271.079 44.2926C270.812 44.5752 270.491 44.8006 270.117 44.9687C269.75 45.1291 269.341 45.2093 268.891 45.2093ZM266.908 42.1268C266.908 42.5394 266.996 42.9137 267.172 43.2498C267.355 43.5859 267.596 43.8533 267.894 44.0519C268.192 44.2429 268.524 44.3384 268.891 44.3384C269.257 44.3384 269.59 44.2391 269.888 44.0405C270.193 43.8419 270.434 43.5745 270.609 43.2384C270.793 42.8946 270.884 42.5164 270.884 42.1039C270.884 41.6914 270.793 41.317 270.609 40.9809C270.434 40.6448 270.193 40.3774 269.888 40.1788C269.59 39.9802 269.257 39.8808 268.891 39.8808C268.524 39.8808 268.192 39.984 267.894 40.1902C267.596 40.3889 267.355 40.6562 267.172 40.9924C266.996 41.3285 266.908 41.7067 266.908 42.1268Z" fill="#BDBDBD"/>
<path d="M214.449 85.0855H215.32L218.643 93.2214H217.543L216.581 90.8379H213.166L212.215 93.2214H211.115L214.449 85.0855ZM216.351 90.0358L214.885 86.2772L213.372 90.0358H216.351ZM219.388 90.8265V87.2398H220.397V90.6317C220.397 91.2428 220.504 91.7012 220.717 92.0068C220.931 92.3123 221.248 92.4651 221.669 92.4651C221.944 92.4651 222.207 92.4078 222.459 92.2932C222.719 92.171 222.952 91.9991 223.158 91.7776C223.365 91.556 223.525 91.2925 223.64 90.9869V87.2398H224.648V92.0755C224.648 92.1978 224.671 92.2894 224.717 92.3505C224.77 92.404 224.854 92.4346 224.969 92.4422V93.2214C224.854 93.2367 224.763 93.2444 224.694 93.2444C224.633 93.252 224.572 93.2558 224.51 93.2558C224.319 93.2558 224.155 93.1985 224.018 93.0839C223.88 92.9617 223.808 92.8127 223.8 92.637L223.777 91.938C223.517 92.3811 223.166 92.7249 222.723 92.9693C222.287 93.2138 221.81 93.336 221.29 93.336C220.664 93.336 220.19 93.1259 219.87 92.7058C219.549 92.278 219.388 91.6515 219.388 90.8265ZM229.422 92.9235C229.338 92.9617 229.223 93.0114 229.078 93.0725C228.933 93.1336 228.765 93.1871 228.574 93.2329C228.383 93.2787 228.18 93.3016 227.966 93.3016C227.722 93.3016 227.497 93.2596 227.29 93.1756C227.084 93.0839 226.92 92.9464 226.798 92.7631C226.675 92.5721 226.614 92.3353 226.614 92.0526V88.0305H225.801V87.2398H226.614V85.2459H227.623V87.2398H228.963V88.0305H227.623V91.7432C227.638 91.9571 227.71 92.1175 227.84 92.2245C227.97 92.3238 228.123 92.3735 228.299 92.3735C228.497 92.3735 228.681 92.3391 228.849 92.2703C229.017 92.2016 229.128 92.1519 229.181 92.1214L229.422 92.9235ZM232.891 93.336C232.44 93.336 232.031 93.2558 231.664 93.0954C231.298 92.9273 230.981 92.702 230.713 92.4193C230.446 92.129 230.24 91.7967 230.095 91.4224C229.949 91.048 229.877 90.6546 229.877 90.2421C229.877 89.8219 229.949 89.4247 230.095 89.0503C230.24 88.676 230.446 88.3475 230.713 88.0648C230.981 87.7746 231.298 87.5492 231.664 87.3888C232.039 87.2207 232.448 87.1367 232.891 87.1367C233.341 87.1367 233.75 87.2207 234.117 87.3888C234.483 87.5492 234.8 87.7746 235.068 88.0648C235.343 88.3475 235.553 88.676 235.698 89.0503C235.843 89.4247 235.916 89.8219 235.916 90.2421C235.916 90.6546 235.843 91.048 235.698 91.4224C235.553 91.7967 235.347 92.129 235.079 92.4193C234.812 92.702 234.491 92.9273 234.117 93.0954C233.75 93.2558 233.341 93.336 232.891 93.336ZM230.908 90.2535C230.908 90.6661 230.996 91.0404 231.172 91.3765C231.355 91.7127 231.596 91.98 231.894 92.1787C232.192 92.3696 232.524 92.4651 232.891 92.4651C233.257 92.4651 233.59 92.3658 233.888 92.1672C234.193 91.9686 234.434 91.7012 234.609 91.3651C234.793 91.0213 234.884 90.6431 234.884 90.2306C234.884 89.8181 234.793 89.4438 234.609 89.1076C234.434 88.7715 234.193 88.5041 233.888 88.3055C233.59 88.1069 233.257 88.0076 232.891 88.0076C232.524 88.0076 232.192 88.1107 231.894 88.3169C231.596 88.5156 231.355 88.783 231.172 89.1191C230.996 89.4552 230.908 89.8334 230.908 90.2535ZM239.956 90.5515V89.6347H243.336V90.5515H239.956ZM250.547 93.3354C249.934 93.3354 249.412 93.1685 248.981 92.8349C248.549 92.4985 248.22 92.0115 247.992 91.374C247.764 90.7338 247.65 89.9606 247.65 89.0545C247.65 88.1538 247.764 87.3847 247.992 86.7472C248.222 86.107 248.553 85.6187 248.985 85.2823C249.419 84.9432 249.94 84.7736 250.547 84.7736C251.155 84.7736 251.674 84.9432 252.106 85.2823C252.54 85.6187 252.871 86.107 253.099 86.7472C253.329 87.3847 253.445 88.1538 253.445 89.0545C253.445 89.9606 253.331 90.7338 253.103 91.374C252.875 92.0115 252.545 92.4985 252.114 92.8349C251.683 93.1685 251.16 93.3354 250.547 93.3354ZM250.547 92.4401C251.155 92.4401 251.627 92.1471 251.963 91.5612C252.3 90.9752 252.468 90.1396 252.468 89.0545C252.468 88.3329 252.391 87.7184 252.236 87.2111C252.084 86.7038 251.864 86.3172 251.577 86.0514C251.292 85.7855 250.949 85.6526 250.547 85.6526C249.945 85.6526 249.474 85.9496 249.135 86.5438C248.796 87.1352 248.627 87.9721 248.627 89.0545C248.627 89.7761 248.703 90.3892 248.854 90.8938C249.006 91.3984 249.225 91.7823 249.51 92.0454C249.797 92.3086 250.143 92.4401 250.547 92.4401ZM255.416 93.2865C255.215 93.2865 255.043 93.2147 254.899 93.0709C254.756 92.9271 254.684 92.7548 254.684 92.5541C254.684 92.3533 254.756 92.1811 254.899 92.0373C255.043 91.8935 255.215 91.8216 255.416 91.8216C255.617 91.8216 255.789 91.8935 255.933 92.0373C256.077 92.1811 256.149 92.3533 256.149 92.5541C256.149 92.687 256.115 92.8091 256.047 92.9203C255.982 93.0315 255.894 93.1211 255.782 93.1889C255.674 93.254 255.552 93.2865 255.416 93.2865ZM260.292 93.3354C259.815 93.3354 259.385 93.2404 259.002 93.0505C258.62 92.8606 258.313 92.6002 258.083 92.2692C257.852 91.9383 257.726 91.5612 257.704 91.138H258.681C258.719 91.5151 258.89 91.827 259.193 92.0739C259.5 92.3181 259.866 92.4401 260.292 92.4401C260.634 92.4401 260.938 92.3601 261.204 92.2C261.472 92.04 261.683 91.8202 261.834 91.5408C261.989 91.2587 262.066 90.9399 262.066 90.5845C262.066 90.221 261.986 89.8968 261.826 89.612C261.669 89.3244 261.452 89.0979 261.175 88.9324C260.898 88.7669 260.582 88.6828 260.227 88.6801C259.972 88.6774 259.71 88.7167 259.442 88.7981C259.173 88.8768 258.952 88.9785 258.778 89.1033L257.834 88.9894L258.339 84.8876H262.669V85.7828H259.185L258.892 88.2406H258.941C259.112 88.105 259.326 87.9924 259.584 87.9029C259.842 87.8134 260.11 87.7686 260.39 87.7686C260.9 87.7686 261.354 87.8907 261.753 88.1348C262.155 88.3763 262.469 88.7073 262.697 89.1277C262.928 89.5482 263.043 90.0284 263.043 90.5683C263.043 91.1 262.924 91.5747 262.685 91.9925C262.449 92.4076 262.123 92.7358 261.708 92.9773C261.293 93.216 260.821 93.3354 260.292 93.3354ZM265.986 88.3169C265.665 88.3169 265.371 88.2444 265.103 88.0992C264.836 87.9464 264.622 87.744 264.461 87.4919C264.301 87.2322 264.221 86.9495 264.221 86.6439C264.221 86.3307 264.301 86.048 264.461 85.7959C264.622 85.5438 264.836 85.3452 265.103 85.2001C265.371 85.0473 265.665 84.9709 265.986 84.9709C266.314 84.9709 266.612 85.0473 266.879 85.2001C267.147 85.3452 267.357 85.5438 267.51 85.7959C267.67 86.048 267.75 86.3269 267.75 86.6325C267.75 86.9457 267.67 87.2322 267.51 87.4919C267.357 87.744 267.147 87.9464 266.879 88.0992C266.612 88.2444 266.314 88.3169 265.986 88.3169ZM265.986 87.7669C266.177 87.7669 266.348 87.7173 266.501 87.6179C266.662 87.511 266.788 87.3735 266.879 87.2054C266.971 87.0297 267.017 86.8425 267.017 86.6439C267.017 86.4377 266.967 86.2505 266.868 86.0824C266.776 85.9067 266.65 85.7692 266.49 85.6699C266.337 85.5706 266.169 85.5209 265.986 85.5209C265.795 85.5209 265.619 85.5744 265.458 85.6814C265.306 85.7807 265.183 85.9182 265.092 86.0939C265 86.262 264.954 86.4453 264.954 86.6439C264.954 86.8502 265 87.0373 265.092 87.2054C265.191 87.3735 265.317 87.511 265.47 87.6179C265.63 87.7173 265.802 87.7669 265.986 87.7669ZM270.008 93.336C269.679 93.336 269.381 93.2635 269.114 93.1183C268.854 92.9655 268.644 92.7631 268.484 92.511C268.323 92.2512 268.243 91.9686 268.243 91.663C268.243 91.3498 268.323 91.0671 268.484 90.815C268.644 90.5629 268.854 90.3643 269.114 90.2192C269.381 90.0664 269.679 89.99 270.008 89.99C270.336 89.99 270.634 90.0664 270.901 90.2192C271.169 90.3643 271.379 90.5629 271.532 90.815C271.692 91.0671 271.772 91.346 271.772 91.6515C271.772 91.9648 271.692 92.2512 271.532 92.511C271.379 92.7631 271.169 92.9655 270.901 93.1183C270.634 93.2635 270.336 93.336 270.008 93.336ZM270.008 92.786C270.199 92.786 270.371 92.7363 270.523 92.637C270.684 92.5301 270.81 92.3926 270.901 92.2245C270.993 92.0488 271.039 91.8616 271.039 91.663C271.039 91.4567 270.989 91.2696 270.89 91.1015C270.798 90.9258 270.672 90.7883 270.512 90.689C270.359 90.5897 270.191 90.54 270.008 90.54C269.817 90.54 269.641 90.5935 269.481 90.7004C269.328 90.7997 269.206 90.9373 269.114 91.113C269.022 91.281 268.976 91.4644 268.976 91.663C268.976 91.8693 269.022 92.0564 269.114 92.2245C269.213 92.3926 269.339 92.5301 269.492 92.637C269.652 92.7363 269.824 92.786 270.008 92.786ZM264.61 92.8433L267.819 88.9816L270.89 85.0282L271.383 85.4522L268.209 89.291L265.092 93.2787L264.61 92.8433Z" fill="#BDBDBD"/>
<path d="M250.449 131.212H251.32L254.643 139.348H253.543L252.581 136.965H249.166L248.215 139.348H247.115L250.449 131.212ZM252.351 136.163L250.885 132.404L249.372 136.163H252.351ZM255.388 136.953V133.367H256.397V136.759C256.397 137.37 256.504 137.828 256.717 138.134C256.931 138.439 257.248 138.592 257.669 138.592C257.944 138.592 258.207 138.535 258.459 138.42C258.719 138.298 258.952 138.126 259.158 137.905C259.365 137.683 259.525 137.419 259.64 137.114V133.367H260.648V138.202C260.648 138.325 260.671 138.416 260.717 138.477C260.77 138.531 260.854 138.562 260.969 138.569V139.348C260.854 139.364 260.763 139.371 260.694 139.371C260.633 139.379 260.572 139.383 260.51 139.383C260.319 139.383 260.155 139.325 260.018 139.211C259.88 139.089 259.808 138.94 259.8 138.764L259.777 138.065C259.517 138.508 259.166 138.852 258.723 139.096C258.287 139.341 257.81 139.463 257.29 139.463C256.664 139.463 256.19 139.253 255.87 138.833C255.549 138.405 255.388 137.778 255.388 136.953ZM265.422 139.05C265.338 139.089 265.223 139.138 265.078 139.199C264.933 139.261 264.765 139.314 264.574 139.36C264.383 139.406 264.18 139.429 263.966 139.429C263.722 139.429 263.497 139.387 263.29 139.303C263.084 139.211 262.92 139.073 262.798 138.89C262.675 138.699 262.614 138.462 262.614 138.18V134.157H261.801V133.367H262.614V131.373H263.623V133.367H264.963V134.157H263.623V137.87C263.638 138.084 263.71 138.244 263.84 138.351C263.97 138.451 264.123 138.5 264.299 138.5C264.497 138.5 264.681 138.466 264.849 138.397C265.017 138.329 265.128 138.279 265.181 138.248L265.422 139.05ZM268.891 139.463C268.44 139.463 268.031 139.383 267.664 139.222C267.298 139.054 266.981 138.829 266.713 138.546C266.446 138.256 266.24 137.924 266.095 137.549C265.949 137.175 265.877 136.782 265.877 136.369C265.877 135.949 265.949 135.552 266.095 135.177C266.24 134.803 266.446 134.474 266.713 134.192C266.981 133.902 267.298 133.676 267.664 133.516C268.039 133.348 268.448 133.264 268.891 133.264C269.341 133.264 269.75 133.348 270.117 133.516C270.483 133.676 270.8 133.902 271.068 134.192C271.343 134.474 271.553 134.803 271.698 135.177C271.843 135.552 271.916 135.949 271.916 136.369C271.916 136.782 271.843 137.175 271.698 137.549C271.553 137.924 271.347 138.256 271.079 138.546C270.812 138.829 270.491 139.054 270.117 139.222C269.75 139.383 269.341 139.463 268.891 139.463ZM266.908 136.38C266.908 136.793 266.996 137.167 267.172 137.503C267.355 137.84 267.596 138.107 267.894 138.306C268.192 138.497 268.524 138.592 268.891 138.592C269.257 138.592 269.59 138.493 269.888 138.294C270.193 138.096 270.434 137.828 270.609 137.492C270.793 137.148 270.884 136.77 270.884 136.358C270.884 135.945 270.793 135.571 270.609 135.235C270.434 134.898 270.193 134.631 269.888 134.432C269.59 134.234 269.257 134.135 268.891 134.135C268.524 134.135 268.192 134.238 267.894 134.444C267.596 134.643 267.355 134.91 267.172 135.246C266.996 135.582 266.908 135.96 266.908 136.38Z" fill="#BDBDBD"/>
<path d="M249.974 186.475V178.339H255.348V179.256H251.005V181.972H254.661V182.831H251.005V186.475H249.974ZM259.221 181.376C258.716 181.383 258.27 181.513 257.88 181.765C257.498 182.01 257.227 182.35 257.066 182.785V186.475H256.058V180.493H256.998V181.88C257.204 181.467 257.475 181.135 257.811 180.883C258.155 180.623 258.514 180.478 258.888 180.448C258.965 180.448 259.03 180.448 259.083 180.448C259.137 180.448 259.182 180.451 259.221 180.459V181.376ZM262.722 186.59C262.272 186.59 261.859 186.509 261.485 186.349C261.118 186.181 260.797 185.956 260.522 185.673C260.255 185.383 260.045 185.05 259.892 184.676C259.747 184.302 259.674 183.904 259.674 183.484C259.674 182.919 259.804 182.403 260.064 181.937C260.324 181.471 260.683 181.097 261.141 180.814C261.607 180.532 262.138 180.39 262.734 180.39C263.337 180.39 263.861 180.535 264.304 180.826C264.754 181.108 265.102 181.483 265.346 181.949C265.599 182.407 265.725 182.904 265.725 183.438C265.725 183.515 265.721 183.591 265.713 183.668C265.713 183.736 265.709 183.79 265.702 183.828H260.74C260.77 184.218 260.877 184.565 261.061 184.871C261.252 185.169 261.496 185.406 261.794 185.581C262.092 185.749 262.413 185.833 262.757 185.833C263.123 185.833 263.467 185.742 263.788 185.558C264.117 185.375 264.342 185.134 264.464 184.836L265.335 185.077C265.205 185.367 265.01 185.627 264.751 185.856C264.499 186.085 264.197 186.265 263.845 186.395C263.502 186.525 263.127 186.59 262.722 186.59ZM260.706 183.129H264.785C264.754 182.739 264.644 182.396 264.453 182.098C264.262 181.8 264.017 181.567 263.719 181.399C263.421 181.231 263.093 181.147 262.734 181.147C262.382 181.147 262.058 181.231 261.76 181.399C261.462 181.567 261.217 181.8 261.026 182.098C260.843 182.396 260.736 182.739 260.706 183.129ZM269.493 186.59C269.042 186.59 268.629 186.509 268.255 186.349C267.888 186.181 267.567 185.956 267.292 185.673C267.025 185.383 266.815 185.05 266.662 184.676C266.517 184.302 266.444 183.904 266.444 183.484C266.444 182.919 266.574 182.403 266.834 181.937C267.094 181.471 267.453 181.097 267.911 180.814C268.377 180.532 268.908 180.39 269.504 180.39C270.108 180.39 270.631 180.535 271.074 180.826C271.525 181.108 271.872 181.483 272.117 181.949C272.369 182.407 272.495 182.904 272.495 183.438C272.495 183.515 272.491 183.591 272.483 183.668C272.483 183.736 272.48 183.79 272.472 183.828H267.51C267.541 184.218 267.648 184.565 267.831 184.871C268.022 185.169 268.266 185.406 268.564 185.581C268.862 185.749 269.183 185.833 269.527 185.833C269.894 185.833 270.237 185.742 270.558 185.558C270.887 185.375 271.112 185.134 271.234 184.836L272.105 185.077C271.975 185.367 271.781 185.627 271.521 185.856C271.269 186.085 270.967 186.265 270.616 186.395C270.272 186.525 269.897 186.59 269.493 186.59ZM267.476 183.129H271.555C271.525 182.739 271.414 182.396 271.223 182.098C271.032 181.8 270.787 181.567 270.49 181.399C270.192 181.231 269.863 181.147 269.504 181.147C269.153 181.147 268.828 181.231 268.53 181.399C268.232 181.567 267.988 181.8 267.797 182.098C267.613 182.396 267.506 182.739 267.476 183.129Z" fill="#BDBDBD"/>
<path d="M250.581 234.716C249.968 234.716 249.446 234.549 249.014 234.215C248.583 233.879 248.253 233.392 248.025 232.755C247.798 232.114 247.684 231.341 247.684 230.435C247.684 229.534 247.798 228.765 248.025 228.128C248.256 227.488 248.587 226.999 249.018 226.663C249.452 226.324 249.973 226.154 250.581 226.154C251.189 226.154 251.708 226.324 252.139 226.663C252.574 226.999 252.905 227.488 253.132 228.128C253.363 228.765 253.478 229.534 253.478 230.435C253.478 231.341 253.364 232.114 253.136 232.755C252.909 233.392 252.579 233.879 252.148 234.215C251.716 234.549 251.194 234.716 250.581 234.716ZM250.581 233.821C251.189 233.821 251.661 233.528 251.997 232.942C252.333 232.356 252.502 231.52 252.502 230.435C252.502 229.713 252.424 229.099 252.27 228.592C252.118 228.084 251.898 227.698 251.61 227.432C251.326 227.166 250.982 227.033 250.581 227.033C249.979 227.033 249.508 227.33 249.169 227.924C248.83 228.516 248.66 229.353 248.66 230.435C248.66 231.157 248.736 231.77 248.888 232.274C249.04 232.779 249.258 233.163 249.543 233.426C249.831 233.689 250.177 233.821 250.581 233.821ZM255.45 234.667C255.249 234.667 255.077 234.595 254.933 234.451C254.789 234.308 254.717 234.135 254.717 233.935C254.717 233.734 254.789 233.562 254.933 233.418C255.077 233.274 255.249 233.202 255.45 233.202C255.651 233.202 255.823 233.274 255.967 233.418C256.11 233.562 256.182 233.734 256.182 233.935C256.182 234.068 256.148 234.19 256.081 234.301C256.015 234.412 255.927 234.502 255.816 234.569C255.708 234.635 255.585 234.667 255.45 234.667ZM260.326 234.716C259.848 234.716 259.418 234.621 259.036 234.431C258.653 234.241 258.347 233.981 258.116 233.65C257.886 233.319 257.76 232.942 257.738 232.519H258.714C258.752 232.896 258.923 233.208 259.227 233.455C259.534 233.699 259.9 233.821 260.326 233.821C260.668 233.821 260.972 233.741 261.237 233.581C261.506 233.421 261.716 233.201 261.868 232.921C262.023 232.639 262.1 232.321 262.1 231.965C262.1 231.602 262.02 231.277 261.86 230.993C261.703 230.705 261.486 230.479 261.209 230.313C260.932 230.148 260.616 230.063 260.261 230.061C260.006 230.058 259.744 230.097 259.475 230.179C259.207 230.257 258.986 230.359 258.812 230.484L257.868 230.37L258.373 226.268H262.702V227.163H259.219L258.926 229.621H258.975C259.146 229.486 259.36 229.373 259.618 229.284C259.876 229.194 260.144 229.149 260.424 229.149C260.934 229.149 261.388 229.271 261.787 229.515C262.188 229.757 262.503 230.088 262.731 230.508C262.961 230.929 263.077 231.409 263.077 231.949C263.077 232.481 262.957 232.955 262.719 233.373C262.483 233.788 262.157 234.116 261.742 234.358C261.327 234.597 260.855 234.716 260.326 234.716ZM266.019 229.698C265.698 229.698 265.404 229.625 265.137 229.48C264.869 229.327 264.656 229.125 264.495 228.873C264.335 228.613 264.255 228.33 264.255 228.025C264.255 227.711 264.335 227.429 264.495 227.177C264.656 226.924 264.869 226.726 265.137 226.581C265.404 226.428 265.698 226.352 266.019 226.352C266.348 226.352 266.646 226.428 266.913 226.581C267.18 226.726 267.39 226.924 267.543 227.177C267.704 227.429 267.784 227.708 267.784 228.013C267.784 228.326 267.704 228.613 267.543 228.873C267.39 229.125 267.18 229.327 266.913 229.48C266.646 229.625 266.348 229.698 266.019 229.698ZM266.019 229.148C266.21 229.148 266.382 229.098 266.535 228.999C266.695 228.892 266.821 228.754 266.913 228.586C267.005 228.41 267.051 228.223 267.051 228.025C267.051 227.818 267.001 227.631 266.902 227.463C266.81 227.287 266.684 227.15 266.523 227.051C266.371 226.951 266.203 226.902 266.019 226.902C265.828 226.902 265.653 226.955 265.492 227.062C265.339 227.161 265.217 227.299 265.125 227.475C265.034 227.643 264.988 227.826 264.988 228.025C264.988 228.231 265.034 228.418 265.125 228.586C265.225 228.754 265.351 228.892 265.504 228.999C265.664 229.098 265.836 229.148 266.019 229.148ZM270.041 234.717C269.713 234.717 269.415 234.644 269.148 234.499C268.888 234.346 268.678 234.144 268.517 233.892C268.357 233.632 268.277 233.349 268.277 233.044C268.277 232.73 268.357 232.448 268.517 232.196C268.678 231.944 268.888 231.745 269.148 231.6C269.415 231.447 269.713 231.371 270.041 231.371C270.37 231.371 270.668 231.447 270.935 231.6C271.203 231.745 271.413 231.944 271.565 232.196C271.726 232.448 271.806 232.727 271.806 233.032C271.806 233.345 271.726 233.632 271.565 233.892C271.413 234.144 271.203 234.346 270.935 234.499C270.668 234.644 270.37 234.717 270.041 234.717ZM270.041 234.167C270.232 234.167 270.404 234.117 270.557 234.018C270.717 233.911 270.843 233.773 270.935 233.605C271.027 233.429 271.073 233.242 271.073 233.044C271.073 232.837 271.023 232.65 270.924 232.482C270.832 232.306 270.706 232.169 270.546 232.07C270.393 231.97 270.225 231.921 270.041 231.921C269.85 231.921 269.675 231.974 269.514 232.081C269.361 232.18 269.239 232.318 269.148 232.494C269.056 232.662 269.01 232.845 269.01 233.044C269.01 233.25 269.056 233.437 269.148 233.605C269.247 233.773 269.373 233.911 269.526 234.018C269.686 234.117 269.858 234.167 270.041 234.167ZM264.644 234.224L267.853 230.362L270.924 226.409L271.416 226.833L268.242 230.672L265.125 234.659L264.644 234.224Z" fill="#BDBDBD"/>
<path d="M24.2175 47V36.8301H25.5067V45.8541H31.1789V47H24.2175ZM32.3819 47V39.5229H33.6424V47H32.3819ZM32.3819 38.1192V36.5436H33.6424V38.1192H32.3819ZM38.5479 47.1432C38.0513 47.1432 37.5977 47.0382 37.1871 46.8281C36.7765 46.618 36.4232 46.3363 36.1271 45.983C35.8311 45.6201 35.6019 45.2047 35.4396 44.7368C35.2773 44.2689 35.1961 43.7771 35.1961 43.2615C35.1961 42.7363 35.2868 42.2397 35.4682 41.7718C35.6497 41.3039 35.898 40.8933 36.2131 40.5399C36.5378 40.1866 36.915 39.9097 37.3447 39.7092C37.7744 39.4991 38.2375 39.394 38.7341 39.394C39.3166 39.394 39.8466 39.542 40.324 39.8381C40.8015 40.1245 41.1787 40.4922 41.4556 40.941V39.5229H42.5729V50.051H41.3124V45.5246C40.6248 46.6037 39.7033 47.1432 38.5479 47.1432ZM38.9776 46.0546C39.3309 46.0546 39.6508 45.983 39.9373 45.8398C40.2333 45.6965 40.4959 45.5055 40.7251 45.2668C40.9543 45.0185 41.15 44.7464 41.3124 44.4504V42.3018C41.2742 42.0535 41.1787 41.8243 41.0259 41.6142C40.8731 41.3946 40.6869 41.1988 40.4673 41.027C40.2476 40.8551 40.0089 40.7214 39.7511 40.6259C39.5028 40.5304 39.2545 40.4826 39.0062 40.4826C38.6338 40.4826 38.2948 40.5638 37.9892 40.7262C37.6837 40.8789 37.4163 41.089 37.1871 41.3564C36.9675 41.6238 36.7956 41.9246 36.6714 42.2588C36.5473 42.593 36.4852 42.9368 36.4852 43.2901C36.4852 43.7867 36.5903 44.245 36.8004 44.6652C37.02 45.0854 37.316 45.4244 37.6884 45.6822C38.0609 45.9305 38.4906 46.0546 38.9776 46.0546ZM44.5359 44.0063V39.5229H45.7964V43.7628C45.7964 44.5267 45.9301 45.0997 46.1975 45.4817C46.4649 45.8636 46.8612 46.0546 47.3864 46.0546C47.7301 46.0546 48.0596 45.983 48.3747 45.8398C48.6994 45.687 48.9906 45.4721 49.2485 45.1952C49.5063 44.9183 49.7068 44.5888 49.8501 44.2068V39.5229H51.1106V45.5676C51.1106 45.7204 51.1392 45.835 51.1965 45.9114C51.2634 45.9782 51.3684 46.0164 51.5116 46.026V47C51.3684 47.0191 51.2538 47.0286 51.1679 47.0286C51.0915 47.0382 51.0151 47.043 50.9387 47.043C50.7 47.043 50.4946 46.9714 50.3228 46.8281C50.1509 46.6753 50.0602 46.4891 50.0506 46.2695L50.022 45.3957C49.6973 45.9496 49.258 46.3793 48.7042 46.6849C48.1599 46.9905 47.563 47.1432 46.9137 47.1432C46.1306 47.1432 45.5386 46.8806 45.1375 46.3554C44.7365 45.8207 44.5359 45.0376 44.5359 44.0063ZM53.2102 47V39.5229H54.4707V47H53.2102ZM53.2102 38.1192V36.5436H54.4707V38.1192H53.2102ZM56.0244 43.2758C56.0244 42.5692 56.1677 41.9246 56.4541 41.3421C56.7502 40.75 57.1512 40.2773 57.6574 39.924C58.173 39.5707 58.7603 39.394 59.4192 39.394C60.0208 39.394 60.5603 39.5516 61.0378 39.8667C61.5152 40.1818 61.8877 40.5638 62.155 41.0126V36.5436H63.4155V45.5676C63.4155 45.7204 63.4442 45.835 63.5015 45.9114C63.5683 45.9782 63.6734 46.0164 63.8166 46.026V47C63.5779 47.0382 63.3917 47.0573 63.258 47.0573C63.0097 47.0573 62.7901 46.9714 62.5991 46.7995C62.4176 46.6276 62.3269 46.4366 62.3269 46.2265V45.5963C62.0309 46.0737 61.6346 46.4509 61.138 46.7278C60.6415 47.0048 60.1258 47.1432 59.5911 47.1432C59.0754 47.1432 58.598 47.043 58.1587 46.8424C57.729 46.6324 57.3518 46.3459 57.0271 45.983C56.712 45.6201 56.4637 45.2095 56.2823 44.7512C56.1104 44.2832 56.0244 43.7915 56.0244 43.2758ZM62.155 44.3787V42.2302C62.0405 41.9055 61.8542 41.6142 61.5964 41.3564C61.3386 41.089 61.0473 40.8789 60.7227 40.7262C60.4075 40.5638 60.0924 40.4826 59.7773 40.4826C59.4049 40.4826 59.0659 40.5638 58.7603 40.7262C58.4643 40.8789 58.2064 41.089 57.9868 41.3564C57.7767 41.6142 57.6144 41.9103 57.4998 42.2445C57.3852 42.5787 57.3279 42.9273 57.3279 43.2901C57.3279 43.6625 57.39 44.0159 57.5141 44.3501C57.6478 44.6843 57.8292 44.9803 58.0584 45.2382C58.2972 45.496 58.5693 45.6965 58.8749 45.8398C59.19 45.983 59.529 46.0546 59.8919 46.0546C60.1211 46.0546 60.355 46.0117 60.5937 45.9257C60.842 45.8398 61.076 45.7204 61.2956 45.5676C61.5152 45.4148 61.7015 45.2382 61.8542 45.0376C62.007 44.8275 62.1073 44.6079 62.155 44.3787ZM65.5198 47V39.5229H66.7803V47H65.5198ZM65.5198 38.1192V36.5436H66.7803V38.1192H65.5198ZM72.6884 46.6276C72.5834 46.6753 72.4402 46.7374 72.2587 46.8138C72.0773 46.8902 71.8672 46.957 71.6285 47.0143C71.3898 47.0716 71.1367 47.1003 70.8693 47.1003C70.5637 47.1003 70.282 47.0477 70.0242 46.9427C69.7664 46.8281 69.5611 46.6562 69.4083 46.427C69.2555 46.1883 69.1791 45.8923 69.1791 45.539V40.5113H68.1621V39.5229H69.1791V37.0306H70.4396V39.5229H72.1155V40.5113H70.4396V45.1522C70.4587 45.4196 70.5494 45.6201 70.7118 45.7538C70.8741 45.878 71.0651 45.94 71.2847 45.94C71.533 45.94 71.7622 45.8971 71.9723 45.8111C72.1823 45.7252 72.3208 45.6631 72.3876 45.6249L72.6884 46.6276ZM74.2005 49.034C74.3247 49.0435 74.4488 49.0531 74.5729 49.0626C74.6971 49.0817 74.7926 49.0913 74.8594 49.0913C75.0122 49.0913 75.1459 49.0388 75.2605 48.9337C75.3751 48.8287 75.4992 48.6234 75.6329 48.3178C75.7761 48.0218 75.9576 47.5825 76.1772 47L73.0116 39.5229H74.3437L76.8647 45.7252L79.1422 39.5229H80.3884L76.7502 48.9624C76.6642 49.182 76.5353 49.3873 76.3634 49.5783C76.2011 49.7788 75.991 49.9364 75.7332 50.051C75.4753 50.1656 75.165 50.2229 74.8021 50.2229C74.7162 50.2229 74.6255 50.2181 74.53 50.2085C74.444 50.199 74.3342 50.1799 74.2005 50.1512V49.034ZM87.4573 47.1432C86.8366 47.1432 86.2541 47.043 85.7098 46.8424C85.1655 46.6324 84.6976 46.322 84.3061 45.9114L84.7931 45.0233C85.2228 45.4244 85.6525 45.7109 86.0823 45.8827C86.512 46.0546 86.9512 46.1406 87.4001 46.1406C87.9157 46.1406 88.3359 46.0451 88.6606 45.8541C88.9852 45.6536 89.1476 45.3623 89.1476 44.9803C89.1476 44.7034 89.0616 44.4981 88.8897 44.3644C88.7274 44.2307 88.4934 44.1209 88.1879 44.035C87.8823 43.9395 87.5194 43.8344 87.0993 43.7198C86.5836 43.567 86.1491 43.4047 85.7958 43.2328C85.4425 43.0609 85.1751 42.8461 84.9936 42.5883C84.8122 42.3304 84.7215 42.0057 84.7215 41.6142C84.7215 41.1368 84.8456 40.7357 85.0939 40.411C85.3422 40.0768 85.6812 39.8237 86.1109 39.6519C86.5502 39.48 87.0467 39.394 87.6006 39.394C88.1544 39.394 88.6558 39.48 89.1046 39.6519C89.5534 39.8237 89.9402 40.0768 90.2648 40.411L89.6919 41.2848C89.3958 40.9792 89.0712 40.7548 88.7178 40.6116C88.3645 40.4588 87.9682 40.3824 87.529 40.3824C87.2711 40.3824 87.0181 40.4158 86.7698 40.4826C86.5215 40.5399 86.3162 40.6498 86.1539 40.8121C85.9915 40.9649 85.9104 41.1845 85.9104 41.471C85.9104 41.7097 85.9724 41.9007 86.0966 42.0439C86.2303 42.1776 86.4213 42.2922 86.6695 42.3877C86.9274 42.4832 87.2377 42.5883 87.6006 42.7028C88.164 42.8652 88.651 43.0275 89.0616 43.1899C89.4818 43.3522 89.8065 43.5623 90.0356 43.8201C90.2648 44.0779 90.3794 44.436 90.3794 44.8944C90.3794 45.601 90.112 46.1549 89.5773 46.556C89.0425 46.9475 88.3359 47.1432 87.4573 47.1432ZM95.1533 47.1432C94.5899 47.1432 94.079 47.043 93.6206 46.8424C93.1623 46.6324 92.766 46.3507 92.4318 45.9973C92.0975 45.6345 91.8397 45.2191 91.6583 44.7512C91.4768 44.2832 91.3861 43.7915 91.3861 43.2758C91.3861 42.7506 91.4768 42.254 91.6583 41.7861C91.8397 41.3182 92.0975 40.9076 92.4318 40.5543C92.766 40.1914 93.1623 39.9097 93.6206 39.7092C94.0885 39.4991 94.5994 39.394 95.1533 39.394C95.7167 39.394 96.2276 39.4991 96.6859 39.7092C97.1443 39.9097 97.5406 40.1914 97.8748 40.5543C98.2186 40.9076 98.4812 41.3182 98.6626 41.7861C98.8441 42.254 98.9348 42.7506 98.9348 43.2758C98.9348 43.7915 98.8441 44.2832 98.6626 44.7512C98.4812 45.2191 98.2234 45.6345 97.8891 45.9973C97.5549 46.3507 97.1539 46.6324 96.6859 46.8424C96.2276 47.043 95.7167 47.1432 95.1533 47.1432ZM92.6753 43.2901C92.6753 43.8058 92.7851 44.2737 93.0047 44.6939C93.2339 45.114 93.5347 45.4482 93.9071 45.6965C94.2795 45.9353 94.6949 46.0546 95.1533 46.0546C95.6116 46.0546 96.027 45.9305 96.3995 45.6822C96.7814 45.4339 97.0822 45.0997 97.3019 44.6795C97.531 44.2498 97.6456 43.7771 97.6456 43.2615C97.6456 42.7458 97.531 42.2779 97.3019 41.8577C97.0822 41.4376 96.7814 41.1033 96.3995 40.8551C96.027 40.6068 95.6116 40.4826 95.1533 40.4826C94.6949 40.4826 94.2795 40.6116 93.9071 40.8694C93.5347 41.1177 93.2339 41.4519 93.0047 41.8721C92.7851 42.2922 92.6753 42.7649 92.6753 43.2901ZM100.391 44.0063V39.5229H101.651V43.7628C101.651 44.5267 101.785 45.0997 102.052 45.4817C102.32 45.8636 102.716 46.0546 103.241 46.0546C103.585 46.0546 103.914 45.983 104.229 45.8398C104.554 45.687 104.845 45.4721 105.103 45.1952C105.361 44.9183 105.561 44.5888 105.705 44.2068V39.5229H106.965V45.5676C106.965 45.7204 106.994 45.835 107.051 45.9114C107.118 45.9782 107.223 46.0164 107.366 46.026V47C107.223 47.0191 107.108 47.0286 107.023 47.0286C106.946 47.0382 106.87 47.043 106.793 47.043C106.555 47.043 106.349 46.9714 106.177 46.8281C106.006 46.6753 105.915 46.4891 105.905 46.2695L105.877 45.3957C105.552 45.9496 105.113 46.3793 104.559 46.6849C104.014 46.9905 103.418 47.1432 102.768 47.1432C101.985 47.1432 101.393 46.8806 100.992 46.3554C100.591 45.8207 100.391 45.0376 100.391 44.0063ZM113.018 40.6259C112.388 40.6354 111.829 40.7978 111.342 41.1129C110.865 41.4185 110.526 41.8434 110.325 42.3877V47H109.065V39.5229H110.239V41.2561C110.497 40.7405 110.836 40.3251 111.256 40.01C111.686 39.6853 112.135 39.5038 112.603 39.4657C112.698 39.4657 112.78 39.4657 112.846 39.4657C112.913 39.4657 112.971 39.4704 113.018 39.48V40.6259ZM117.395 47.1432C116.832 47.1432 116.316 47.043 115.848 46.8424C115.39 46.6324 114.989 46.3459 114.645 45.983C114.311 45.6201 114.048 45.2047 113.857 44.7368C113.676 44.2689 113.585 43.7724 113.585 43.2471C113.585 42.5405 113.743 41.8959 114.058 41.3134C114.373 40.7309 114.817 40.2678 115.39 39.924C115.963 39.5707 116.627 39.394 117.381 39.394C118.116 39.394 118.756 39.5611 119.301 39.8954C119.854 40.22 120.265 40.6593 120.532 41.2132L119.301 41.5999C119.11 41.2466 118.842 40.9744 118.498 40.7834C118.155 40.5829 117.773 40.4826 117.352 40.4826C116.894 40.4826 116.474 40.602 116.092 40.8407C115.72 41.0795 115.424 41.4089 115.204 41.8291C114.984 42.2397 114.874 42.7124 114.874 43.2471C114.874 43.7724 114.984 44.2498 115.204 44.6795C115.433 45.0997 115.734 45.4339 116.106 45.6822C116.488 45.9305 116.908 46.0546 117.367 46.0546C117.663 46.0546 117.945 46.0021 118.212 45.8971C118.489 45.792 118.728 45.6536 118.928 45.4817C119.138 45.3002 119.281 45.1045 119.358 44.8944L120.59 45.2668C120.437 45.6297 120.203 45.9544 119.888 46.2408C119.582 46.5178 119.215 46.7374 118.785 46.8997C118.365 47.0621 117.902 47.1432 117.395 47.1432ZM125.257 47.1432C124.693 47.1432 124.178 47.043 123.71 46.8424C123.251 46.6324 122.85 46.3507 122.507 45.9973C122.172 45.6345 121.91 45.2191 121.719 44.7512C121.537 44.2832 121.447 43.7867 121.447 43.2615C121.447 42.5548 121.609 41.9103 121.934 41.3278C122.258 40.7452 122.707 40.2773 123.28 39.924C123.863 39.5707 124.526 39.394 125.271 39.394C126.025 39.394 126.68 39.5755 127.233 39.9383C127.797 40.2917 128.231 40.7596 128.537 41.3421C128.852 41.915 129.01 42.5357 129.01 43.2042C129.01 43.2997 129.005 43.3952 128.995 43.4907C128.995 43.5766 128.991 43.6434 128.981 43.6912H122.779C122.817 44.1782 122.951 44.6127 123.18 44.9947C123.419 45.3671 123.724 45.6631 124.097 45.8827C124.469 46.0928 124.87 46.1979 125.3 46.1979C125.758 46.1979 126.188 46.0833 126.589 45.8541C127 45.6249 127.281 45.3241 127.434 44.9517L128.523 45.2525C128.36 45.6154 128.117 45.94 127.792 46.2265C127.477 46.513 127.1 46.7374 126.661 46.8997C126.231 47.0621 125.763 47.1432 125.257 47.1432ZM122.736 42.8174H127.835C127.797 42.3304 127.658 41.9007 127.42 41.5283C127.181 41.1559 126.875 40.8646 126.503 40.6545C126.131 40.4444 125.72 40.3394 125.271 40.3394C124.832 40.3394 124.426 40.4444 124.054 40.6545C123.681 40.8646 123.376 41.1559 123.137 41.5283C122.908 41.9007 122.774 42.3304 122.736 42.8174ZM132.975 47.1432C132.354 47.1432 131.772 47.043 131.227 46.8424C130.683 46.6324 130.215 46.322 129.824 45.9114L130.311 45.0233C130.74 45.4244 131.17 45.7109 131.6 45.8827C132.029 46.0546 132.469 46.1406 132.917 46.1406C133.433 46.1406 133.853 46.0451 134.178 45.8541C134.503 45.6536 134.665 45.3623 134.665 44.9803C134.665 44.7034 134.579 44.4981 134.407 44.3644C134.245 44.2307 134.011 44.1209 133.705 44.035C133.4 43.9395 133.037 43.8344 132.617 43.7198C132.101 43.567 131.667 43.4047 131.313 43.2328C130.96 43.0609 130.692 42.8461 130.511 42.5883C130.33 42.3304 130.239 42.0057 130.239 41.6142C130.239 41.1368 130.363 40.7357 130.611 40.411C130.86 40.0768 131.199 39.8237 131.628 39.6519C132.068 39.48 132.564 39.394 133.118 39.394C133.672 39.394 134.173 39.48 134.622 39.6519C135.071 39.8237 135.458 40.0768 135.782 40.411L135.209 41.2848C134.913 40.9792 134.589 40.7548 134.235 40.6116C133.882 40.4588 133.486 40.3824 133.046 40.3824C132.789 40.3824 132.535 40.4158 132.287 40.4826C132.039 40.5399 131.834 40.6498 131.671 40.8121C131.509 40.9649 131.428 41.1845 131.428 41.471C131.428 41.7097 131.49 41.9007 131.614 42.0439C131.748 42.1776 131.939 42.2922 132.187 42.3877C132.445 42.4832 132.755 42.5883 133.118 42.7028C133.681 42.8652 134.168 43.0275 134.579 43.1899C134.999 43.3522 135.324 43.5623 135.553 43.8201C135.782 44.0779 135.897 44.436 135.897 44.8944C135.897 45.601 135.629 46.1549 135.095 46.556C134.56 46.9475 133.853 47.1432 132.975 47.1432Z" fill="white"/>
<g clip-path="url(#clip0_113_214)">
<path d="M149.606 40.2811C149.436 40.2811 149.269 40.2307 149.128 40.1363C148.987 40.0418 148.877 39.9076 148.812 39.7506C148.746 39.5935 148.729 39.4207 148.763 39.254C148.796 39.0873 148.878 38.9342 148.998 38.814C149.118 38.6938 149.271 38.6119 149.438 38.5788C149.605 38.5456 149.777 38.5626 149.934 38.6277C150.091 38.6927 150.226 38.8029 150.32 38.9442C150.415 39.0855 150.465 39.2517 150.465 39.4217C150.465 39.6496 150.374 39.8682 150.213 40.0294C150.052 40.1906 149.833 40.2811 149.606 40.2811Z" fill="#22E16E"/>
<path d="M149.606 47.5864C148.501 47.5864 147.421 47.2588 146.502 46.645C145.584 46.0311 144.868 45.1587 144.445 44.1379C144.022 43.1171 143.911 41.9939 144.127 40.9103C144.342 39.8267 144.874 38.8313 145.656 38.05C146.437 37.2688 147.432 36.7367 148.516 36.5212C149.6 36.3056 150.723 36.4162 151.744 36.8391C152.764 37.2619 153.637 37.9779 154.251 38.8965C154.865 39.8152 155.192 40.8953 155.192 42.0001C155.192 43.4817 154.604 44.9026 153.556 45.9502C152.508 46.9979 151.087 47.5864 149.606 47.5864ZM149.606 37.2733C148.671 37.2733 147.757 37.5505 146.98 38.0699C146.202 38.5893 145.597 39.3275 145.239 40.1912C144.881 41.055 144.787 42.0054 144.97 42.9223C145.152 43.8392 145.602 44.6815 146.263 45.3425C146.924 46.0036 147.767 46.4538 148.684 46.6362C149.601 46.8186 150.551 46.725 151.415 46.3672C152.278 46.0094 153.017 45.4036 153.536 44.6262C154.055 43.8489 154.333 42.935 154.333 42.0001C154.333 40.7465 153.835 39.5442 152.948 38.6577C152.062 37.7713 150.859 37.2733 149.606 37.2733Z" fill="#22E16E"/>
<path d="M149.606 45.4378C149.378 45.4378 149.159 45.3472 148.998 45.1861C148.837 45.0249 148.746 44.8063 148.746 44.5784V42.0001C148.746 41.7721 148.837 41.5535 148.998 41.3923C149.159 41.2312 149.378 41.1406 149.606 41.1406C149.833 41.1406 150.052 41.2312 150.213 41.3923C150.374 41.5535 150.465 41.7721 150.465 42.0001V44.5784C150.465 44.8063 150.374 45.0249 150.213 45.1861C150.052 45.3472 149.833 45.4378 149.606 45.4378Z" fill="#22E16E"/>
</g>
<path d="M33.0124 92.7478V84.9843L29.6606 90.9573H28.8728L25.5067 84.9843V92.7478H24.2175V82.5779H25.5783L29.2595 89.1812L32.9551 82.5779H34.3015V92.7478H33.0124ZM35.8792 90.5849C35.8792 90.1074 36.0128 89.6968 36.2802 89.353C36.5572 88.9997 36.9344 88.7276 37.4118 88.5366C37.8893 88.3456 38.4431 88.2501 39.0734 88.2501C39.4076 88.2501 39.7609 88.2788 40.1333 88.3361C40.5058 88.3838 40.8352 88.4602 41.1217 88.5652V88.0209C41.1217 87.448 40.9498 86.9992 40.606 86.6745C40.2623 86.3403 39.7752 86.1732 39.145 86.1732C38.7344 86.1732 38.3381 86.2495 37.9561 86.4023C37.5837 86.5456 37.1874 86.7557 36.7672 87.0326L36.3089 86.1445C36.7959 85.8103 37.2829 85.562 37.7699 85.3997C38.2569 85.2278 38.763 85.1418 39.2882 85.1418C40.2432 85.1418 40.9976 85.4092 41.5514 85.944C42.1053 86.4692 42.3822 87.2045 42.3822 88.1498V91.3154C42.3822 91.4682 42.4108 91.5828 42.4681 91.6592C42.535 91.726 42.64 91.7642 42.7833 91.7738V92.7478C42.6591 92.7669 42.5493 92.7812 42.4538 92.7908C42.3679 92.8003 42.2962 92.8051 42.239 92.8051C41.9429 92.8051 41.7185 92.7239 41.5657 92.5616C41.4225 92.3993 41.3413 92.2274 41.3222 92.0459L41.2936 91.5732C40.9689 91.9934 40.544 92.3181 40.0188 92.5473C39.4935 92.7765 38.9731 92.891 38.4575 92.891C37.9609 92.891 37.5169 92.7908 37.1253 92.5902C36.7338 92.3802 36.4282 92.1032 36.2086 91.7595C35.989 91.4061 35.8792 91.0146 35.8792 90.5849ZM40.7493 91.1149C40.8639 90.9812 40.9546 90.8475 41.0214 90.7138C41.0883 90.5706 41.1217 90.4512 41.1217 90.3557V89.4247C40.8257 89.3101 40.5153 89.2241 40.1906 89.1668C39.866 89.1 39.5461 89.0666 39.2309 89.0666C38.5911 89.0666 38.0707 89.1955 37.6696 89.4533C37.2781 89.7016 37.0824 90.0454 37.0824 90.4846C37.0824 90.7234 37.1444 90.9573 37.2686 91.1865C37.4023 91.4061 37.5932 91.5876 37.8415 91.7308C38.0994 91.874 38.4145 91.9457 38.7869 91.9457C39.1784 91.9457 39.5508 91.8693 39.9042 91.7165C40.2575 91.5541 40.5392 91.3536 40.7493 91.1149ZM44.9563 85.2708L46.933 88.0209L47.0476 88.2501L47.1765 88.0209L49.1389 85.2708H50.5426L47.7781 89.0236L50.557 92.7478H49.1532L47.1765 90.0119L47.0476 89.7971L46.933 90.0119L44.9563 92.7478H43.5526L46.3314 89.0236L43.5669 85.2708H44.9563ZM51.6412 92.7478V91.1435H52.7012V92.7478H51.6412ZM60.8239 92.891C60.2032 92.891 59.6207 92.7908 59.0764 92.5902C58.5321 92.3802 58.0642 92.0698 57.6727 91.6592L58.1597 90.7711C58.5894 91.1722 59.0191 91.4587 59.4488 91.6305C59.8786 91.8024 60.3178 91.8884 60.7666 91.8884C61.2823 91.8884 61.7025 91.7929 62.0271 91.6019C62.3518 91.4014 62.5141 91.1101 62.5141 90.7281C62.5141 90.4512 62.4282 90.2459 62.2563 90.1122C62.094 89.9785 61.86 89.8687 61.5544 89.7828C61.2489 89.6873 60.886 89.5822 60.4658 89.4676C59.9502 89.3149 59.5157 89.1525 59.1624 88.9806C58.809 88.8087 58.5417 88.5939 58.3602 88.3361C58.1788 88.0782 58.0881 87.7536 58.0881 87.362C58.0881 86.8846 58.2122 86.4835 58.4605 86.1588C58.7088 85.8246 59.0478 85.5716 59.4775 85.3997C59.9168 85.2278 60.4133 85.1418 60.9672 85.1418C61.521 85.1418 62.0224 85.2278 62.4712 85.3997C62.92 85.5716 63.3067 85.8246 63.6314 86.1588L63.0585 87.0326C62.7624 86.727 62.4378 86.5026 62.0844 86.3594C61.7311 86.2066 61.3348 86.1302 60.8955 86.1302C60.6377 86.1302 60.3847 86.1636 60.1364 86.2304C59.8881 86.2877 59.6828 86.3976 59.5205 86.5599C59.3581 86.7127 59.277 86.9323 59.277 87.2188C59.277 87.4575 59.339 87.6485 59.4632 87.7917C59.5969 87.9254 59.7878 88.04 60.0361 88.1355C60.2939 88.231 60.6043 88.3361 60.9672 88.4506C61.5306 88.613 62.0176 88.7753 62.4282 88.9377C62.8484 89.1 63.173 89.3101 63.4022 89.5679C63.6314 89.8257 63.746 90.1838 63.746 90.6422C63.746 91.3488 63.4786 91.9027 62.9439 92.3038C62.4091 92.6953 61.7025 92.891 60.8239 92.891ZM65.2827 82.2914H66.5432V90.8141C66.5432 91.2247 66.6005 91.4778 66.7151 91.5732C66.8297 91.6687 66.9681 91.7165 67.1305 91.7165C67.331 91.7165 67.522 91.6974 67.7034 91.6592C67.8848 91.6114 68.0376 91.5637 68.1618 91.516L68.3623 92.5473C68.1522 92.6332 67.9039 92.7048 67.6175 92.7621C67.331 92.8194 67.0779 92.8481 66.8583 92.8481C66.3713 92.8481 65.9845 92.7096 65.6981 92.4327C65.4211 92.1558 65.2827 91.769 65.2827 91.2724V82.2914ZM69.3526 92.7478V85.2708H70.6131V92.7478H69.3526ZM69.3526 83.867V82.2914H70.6131V83.867H69.3526ZM76.6788 92.891C76.0676 92.891 75.5233 92.7383 75.0458 92.4327C74.5684 92.1271 74.1912 91.7404 73.9143 91.2724V95.7988H72.6538V85.2708H73.771V86.6745C74.067 86.2161 74.4538 85.8485 74.9313 85.5716C75.4087 85.2851 75.9291 85.1418 76.4926 85.1418C77.0082 85.1418 77.4809 85.2469 77.9106 85.457C78.3403 85.667 78.7127 85.9535 79.0279 86.3164C79.343 86.6793 79.5865 87.0947 79.7584 87.5626C79.9398 88.0209 80.0305 88.5032 80.0305 89.0093C80.0305 89.7159 79.8873 90.3653 79.6008 90.9573C79.3239 91.5494 78.9324 92.0221 78.4263 92.3754C77.9202 92.7192 77.3377 92.891 76.6788 92.891ZM76.292 91.8024C76.6644 91.8024 76.9987 91.726 77.2947 91.5732C77.6003 91.4109 77.8581 91.2008 78.0682 90.943C78.2878 90.6756 78.4549 90.3748 78.5695 90.0406C78.6841 89.7064 78.7414 89.3626 78.7414 89.0093C78.7414 88.6369 78.6746 88.2835 78.5409 87.9493C78.4167 87.6151 78.2353 87.3191 77.9966 87.0612C77.7674 86.8034 77.4952 86.6029 77.1801 86.4596C76.8745 86.3068 76.5403 86.2304 76.1774 86.2304C75.9482 86.2304 75.7095 86.2734 75.4612 86.3594C75.2225 86.4453 74.9933 86.5694 74.7737 86.7318C74.5541 86.8846 74.3678 87.0612 74.2151 87.2618C74.0623 87.4623 73.962 87.6772 73.9143 87.9063V90.0406C74.0575 90.3653 74.2485 90.6613 74.4872 90.9287C74.7259 91.1961 75.0029 91.4109 75.318 91.5732C75.6331 91.726 75.9578 91.8024 76.292 91.8024ZM85.6032 92.891C84.992 92.891 84.4477 92.7383 83.9703 92.4327C83.4928 92.1271 83.1156 91.7404 82.8387 91.2724V95.7988H81.5782V85.2708H82.6954V86.6745C82.9915 86.2161 83.3782 85.8485 83.8557 85.5716C84.3331 85.2851 84.8536 85.1418 85.417 85.1418C85.9326 85.1418 86.4053 85.2469 86.835 85.457C87.2648 85.667 87.6372 85.9535 87.9523 86.3164C88.2674 86.6793 88.5109 87.0947 88.6828 87.5626C88.8643 88.0209 88.955 88.5032 88.955 89.0093C88.955 89.7159 88.8117 90.3653 88.5253 90.9573C88.2483 91.5494 87.8568 92.0221 87.3507 92.3754C86.8446 92.7192 86.2621 92.891 85.6032 92.891ZM85.2164 91.8024C85.5889 91.8024 85.9231 91.726 86.2191 91.5732C86.5247 91.4109 86.7825 91.2008 86.9926 90.943C87.2122 90.6756 87.3794 90.3748 87.4939 90.0406C87.6085 89.7064 87.6658 89.3626 87.6658 89.0093C87.6658 88.6369 87.599 88.2835 87.4653 87.9493C87.3412 87.6151 87.1597 87.3191 86.921 87.0612C86.6918 86.8034 86.4197 86.6029 86.1045 86.4596C85.799 86.3068 85.4647 86.2304 85.1019 86.2304C84.8727 86.2304 84.6339 86.2734 84.3857 86.3594C84.1469 86.4453 83.9178 86.5694 83.6981 86.7318C83.4785 86.8846 83.2923 87.0612 83.1395 87.2618C82.9867 87.4623 82.8864 87.6772 82.8387 87.9063V90.0406C82.9819 90.3653 83.1729 90.6613 83.4116 90.9287C83.6504 91.1961 83.9273 91.4109 84.2424 91.5732C84.5576 91.726 84.8822 91.8024 85.2164 91.8024ZM89.9153 90.5849C89.9153 90.1074 90.049 89.6968 90.3164 89.353C90.5933 88.9997 90.9705 88.7276 91.448 88.5366C91.9255 88.3456 92.4793 88.2501 93.1096 88.2501C93.4438 88.2501 93.7971 88.2788 94.1695 88.3361C94.542 88.3838 94.8714 88.4602 95.1579 88.5652V88.0209C95.1579 87.448 94.986 86.9992 94.6422 86.6745C94.2984 86.3403 93.8114 86.1732 93.1812 86.1732C92.7706 86.1732 92.3743 86.2495 91.9923 86.4023C91.6199 86.5456 91.2236 86.7557 90.8034 87.0326L90.3451 86.1445C90.8321 85.8103 91.3191 85.562 91.8061 85.3997C92.2931 85.2278 92.7992 85.1418 93.3244 85.1418C94.2794 85.1418 95.0337 85.4092 95.5876 85.944C96.1415 86.4692 96.4184 87.2045 96.4184 88.1498V91.3154C96.4184 91.4682 96.447 91.5828 96.5043 91.6592C96.5712 91.726 96.6762 91.7642 96.8194 91.7738V92.7478C96.6953 92.7669 96.5855 92.7812 96.49 92.7908C96.4041 92.8003 96.3324 92.8051 96.2751 92.8051C95.9791 92.8051 95.7547 92.7239 95.6019 92.5616C95.4587 92.3993 95.3775 92.2274 95.3584 92.0459L95.3298 91.5732C95.0051 91.9934 94.5802 92.3181 94.0549 92.5473C93.5297 92.7765 93.0093 92.891 92.4936 92.891C91.9971 92.891 91.553 92.7908 91.1615 92.5902C90.77 92.3802 90.4644 92.1032 90.2448 91.7595C90.0252 91.4061 89.9153 91.0146 89.9153 90.5849ZM94.7855 91.1149C94.9001 90.9812 94.9908 90.8475 95.0576 90.7138C95.1245 90.5706 95.1579 90.4512 95.1579 90.3557V89.4247C94.8619 89.3101 94.5515 89.2241 94.2268 89.1668C93.9022 89.1 93.5823 89.0666 93.2671 89.0666C92.6273 89.0666 92.1069 89.1955 91.7058 89.4533C91.3143 89.7016 91.1186 90.0454 91.1186 90.4846C91.1186 90.7234 91.1806 90.9573 91.3048 91.1865C91.4385 91.4061 91.6294 91.5876 91.8777 91.7308C92.1355 91.874 92.4507 91.9457 92.8231 91.9457C93.2146 91.9457 93.587 91.8693 93.9404 91.7165C94.2937 91.5541 94.5754 91.3536 94.7855 91.1149ZM101.413 92.8337C100.907 92.8337 100.439 92.7335 100.01 92.5329C99.5894 92.3229 99.2265 92.0412 98.9209 91.6878C98.6153 91.325 98.3766 90.9143 98.2047 90.456C98.0424 89.9976 97.9612 89.5202 97.9612 89.0236C97.9612 88.4984 98.0424 88.0018 98.2047 87.5339C98.3766 87.066 98.6153 86.6554 98.9209 86.3021C99.236 85.9392 99.6037 85.6575 100.024 85.457C100.444 85.2469 100.912 85.1418 101.428 85.1418C102.048 85.1418 102.588 85.2946 103.046 85.6002C103.514 85.9058 103.906 86.2925 104.221 86.7604V85.2708H105.338V92.6619C105.338 93.3685 105.166 93.9653 104.822 94.4523C104.488 94.9394 104.03 95.307 103.447 95.5553C102.874 95.8131 102.234 95.942 101.528 95.942C100.688 95.942 100 95.794 99.4652 95.498C98.9305 95.202 98.4864 94.8009 98.1331 94.2948L98.8636 93.6502C99.1596 94.0895 99.5416 94.4189 100.01 94.6386C100.487 94.8582 100.993 94.968 101.528 94.968C101.986 94.968 102.406 94.8821 102.788 94.7102C103.18 94.5478 103.49 94.2948 103.719 93.951C103.958 93.6072 104.078 93.1775 104.078 92.6619V91.3441C103.801 91.8024 103.419 92.1653 102.932 92.4327C102.454 92.7001 101.948 92.8337 101.413 92.8337ZM101.8 91.8024C102.067 91.8024 102.325 91.7547 102.573 91.6592C102.822 91.5637 103.051 91.4396 103.261 91.2868C103.471 91.1244 103.648 90.943 103.791 90.7425C103.934 90.5419 104.03 90.3366 104.078 90.1265V87.978C103.944 87.6342 103.753 87.3334 103.505 87.0756C103.256 86.8082 102.975 86.6029 102.659 86.4596C102.344 86.3068 102.02 86.2304 101.685 86.2304C101.303 86.2304 100.96 86.3116 100.654 86.474C100.358 86.6363 100.105 86.8559 99.8949 87.1329C99.6849 87.4002 99.5225 87.701 99.4079 88.0353C99.2933 88.3695 99.236 88.7085 99.236 89.0522C99.236 89.4247 99.3029 89.778 99.4366 90.1122C99.5703 90.4369 99.7517 90.7281 99.9809 90.986C100.21 91.2438 100.482 91.4443 100.797 91.5876C101.112 91.7308 101.447 91.8024 101.8 91.8024ZM110.681 92.891C110.118 92.891 109.602 92.7908 109.134 92.5902C108.676 92.3802 108.275 92.0985 107.931 91.7451C107.597 91.3823 107.334 90.9669 107.143 90.499C106.962 90.031 106.871 89.5345 106.871 89.0093C106.871 88.3026 107.033 87.6581 107.358 87.0756C107.683 86.4931 108.131 86.0251 108.704 85.6718C109.287 85.3185 109.951 85.1418 110.695 85.1418C111.45 85.1418 112.104 85.3233 112.658 85.6861C113.221 86.0395 113.656 86.5074 113.961 87.0899C114.276 87.6628 114.434 88.2835 114.434 88.952C114.434 89.0475 114.429 89.143 114.42 89.2385C114.42 89.3244 114.415 89.3912 114.405 89.439H108.203C108.241 89.926 108.375 90.3605 108.604 90.7425C108.843 91.1149 109.148 91.4109 109.521 91.6305C109.893 91.8406 110.294 91.9457 110.724 91.9457C111.182 91.9457 111.612 91.8311 112.013 91.6019C112.424 91.3727 112.706 91.0719 112.858 90.6995L113.947 91.0003C113.785 91.3632 113.541 91.6878 113.216 91.9743C112.901 92.2608 112.524 92.4852 112.085 92.6475C111.655 92.8099 111.187 92.891 110.681 92.891ZM108.16 88.5652H113.259C113.221 88.0782 113.083 87.6485 112.844 87.2761C112.605 86.9037 112.3 86.6124 111.927 86.4023C111.555 86.1923 111.144 86.0872 110.695 86.0872C110.256 86.0872 109.85 86.1923 109.478 86.4023C109.106 86.6124 108.8 86.9037 108.561 87.2761C108.332 87.6485 108.198 88.0782 108.16 88.5652Z" fill="white"/>
<g clip-path="url(#clip1_113_214)">
<path d="M127.606 86.0292C127.436 86.0292 127.269 85.9788 127.128 85.8843C126.987 85.7899 126.877 85.6557 126.812 85.4986C126.746 85.3416 126.729 85.1688 126.763 85.0021C126.796 84.8354 126.878 84.6822 126.998 84.562C127.118 84.4418 127.271 84.36 127.438 84.3268C127.605 84.2937 127.777 84.3107 127.934 84.3757C128.091 84.4408 128.226 84.5509 128.32 84.6923C128.415 84.8336 128.465 84.9998 128.465 85.1697C128.465 85.3977 128.374 85.6163 128.213 85.7774C128.052 85.9386 127.833 86.0292 127.606 86.0292Z" fill="#22E16E"/>
<path d="M127.605 93.3345C126.5 93.3345 125.42 93.0068 124.502 92.393C123.583 91.7792 122.867 90.9067 122.444 89.886C122.021 88.8652 121.911 87.742 122.126 86.6583C122.342 85.5747 122.874 84.5793 123.655 83.7981C124.436 83.0168 125.432 82.4848 126.515 82.2692C127.599 82.0537 128.722 82.1643 129.743 82.5871C130.764 83.0099 131.636 83.7259 132.25 84.6446C132.864 85.5633 133.191 86.6433 133.191 87.7482C133.191 89.2298 132.603 90.6506 131.555 91.6983C130.508 92.7459 129.087 93.3345 127.605 93.3345ZM127.605 83.0213C126.67 83.0213 125.756 83.2985 124.979 83.8179C124.202 84.3373 123.596 85.0756 123.238 85.9393C122.88 86.803 122.787 87.7534 122.969 88.6703C123.151 89.5873 123.602 90.4295 124.263 91.0906C124.924 91.7516 125.766 92.2018 126.683 92.3842C127.6 92.5666 128.55 92.473 129.414 92.1152C130.278 91.7575 131.016 91.1516 131.535 90.3743C132.055 89.597 132.332 88.6831 132.332 87.7482C132.332 86.4945 131.834 85.2922 130.948 84.4058C130.061 83.5193 128.859 83.0213 127.605 83.0213Z" fill="#22E16E"/>
<path d="M127.606 91.1866C127.378 91.1866 127.159 91.096 126.998 90.9348C126.837 90.7737 126.746 90.5551 126.746 90.3271V87.7488C126.746 87.5209 126.837 87.3023 126.998 87.1411C127.159 86.98 127.378 86.8894 127.606 86.8894C127.833 86.8894 128.052 86.98 128.213 87.1411C128.374 87.3023 128.465 87.5209 128.465 87.7488V90.3271C128.465 90.5551 128.374 90.7737 128.213 90.9348C128.052 91.096 127.833 91.1866 127.606 91.1866Z" fill="#22E16E"/>
</g>
<path d="M30.1906 130.46C30.076 130.326 29.9232 130.197 29.7322 130.073C29.5412 129.949 29.3264 129.839 29.0876 129.744C28.8489 129.639 28.5863 129.558 28.2998 129.5C28.0229 129.433 27.7316 129.4 27.4261 129.4C26.643 129.4 26.0653 129.548 25.6929 129.844C25.3205 130.14 25.1343 130.546 25.1343 131.062C25.1343 131.424 25.2297 131.711 25.4207 131.921C25.6117 132.131 25.903 132.303 26.2945 132.437C26.6956 132.57 27.2017 132.709 27.8128 132.852C28.5195 133.005 29.1306 133.191 29.6463 133.411C30.1619 133.63 30.5582 133.926 30.8351 134.299C31.1121 134.662 31.2505 135.149 31.2505 135.76C31.2505 136.247 31.155 136.672 30.9641 137.035C30.7826 137.388 30.5248 137.684 30.1906 137.923C29.8564 138.152 29.4648 138.324 29.016 138.438C28.5672 138.543 28.0802 138.596 27.555 138.596C27.0393 138.596 26.5332 138.543 26.0367 138.438C25.5496 138.324 25.0865 138.161 24.6472 137.951C24.208 137.741 23.7974 137.479 23.4154 137.163L24.0313 136.075C24.1841 136.237 24.3799 136.4 24.6186 136.562C24.8669 136.715 25.1438 136.858 25.4494 136.992C25.7645 137.125 26.1035 137.235 26.4664 137.321C26.8292 137.397 27.2017 137.436 27.5836 137.436C28.3094 137.436 28.8728 137.307 29.2738 137.049C29.6749 136.782 29.8755 136.395 29.8755 135.889C29.8755 135.507 29.7609 135.201 29.5317 134.972C29.312 134.743 28.9826 134.552 28.5433 134.399C28.1041 134.246 27.5693 134.093 26.9391 133.941C26.2515 133.769 25.6738 133.583 25.2059 133.382C24.738 133.172 24.3846 132.9 24.1459 132.566C23.9167 132.231 23.8021 131.797 23.8021 131.262C23.8021 130.613 23.9597 130.064 24.2748 129.615C24.5899 129.166 25.0244 128.827 25.5783 128.598C26.1321 128.369 26.7576 128.254 27.4547 128.254C27.9131 128.254 28.338 128.302 28.7295 128.397C29.1306 128.493 29.503 128.626 29.8468 128.798C30.1906 128.97 30.5057 129.176 30.7922 129.414L30.1906 130.46ZM44.0185 138.496H42.758V134.313C42.758 133.53 42.6291 132.952 42.3712 132.58C42.1229 132.207 41.7505 132.021 41.254 132.021C40.7479 132.021 40.2895 132.207 39.8789 132.58C39.4683 132.943 39.177 133.415 39.0051 133.998V138.496H37.7446V134.313C37.7446 133.52 37.6205 132.943 37.3722 132.58C37.1239 132.207 36.7515 132.021 36.2549 132.021C35.7584 132.021 35.3 132.203 34.8798 132.566C34.4692 132.919 34.178 133.392 34.0061 133.984V138.496H32.7456V131.019H33.8915V132.623C34.1971 132.069 34.5934 131.644 35.0804 131.348C35.5674 131.042 36.1165 130.89 36.7276 130.89C37.3483 130.89 37.8449 131.062 38.2173 131.405C38.5897 131.74 38.8189 132.174 38.9049 132.709C39.2391 132.117 39.6449 131.668 40.1224 131.362C40.5998 131.047 41.1441 130.89 41.7553 130.89C42.185 130.89 42.5431 130.971 42.8296 131.133C43.1256 131.286 43.3596 131.506 43.5315 131.792C43.7033 132.069 43.8275 132.398 43.9039 132.78C43.9803 133.162 44.0185 133.578 44.0185 134.027V138.496ZM45.3911 136.333C45.3911 135.855 45.5248 135.445 45.7922 135.101C46.0691 134.748 46.4463 134.475 46.9237 134.284C47.4012 134.093 47.9551 133.998 48.5853 133.998C48.9195 133.998 49.2729 134.027 49.6453 134.084C50.0177 134.132 50.3472 134.208 50.6336 134.313V133.769C50.6336 133.196 50.4617 132.747 50.118 132.422C49.7742 132.088 49.2872 131.921 48.6569 131.921C48.2463 131.921 47.85 131.997 47.4681 132.15C47.0956 132.293 46.6993 132.503 46.2792 132.78L45.8208 131.892C46.3078 131.558 46.7948 131.31 47.2818 131.147C47.7689 130.976 48.275 130.89 48.8002 130.89C49.7551 130.89 50.5095 131.157 51.0633 131.692C51.6172 132.217 51.8941 132.952 51.8941 133.898V137.063C51.8941 137.216 51.9228 137.331 51.9801 137.407C52.0469 137.474 52.152 137.512 52.2952 137.522V138.496C52.1711 138.515 52.0612 138.529 51.9657 138.539C51.8798 138.548 51.8082 138.553 51.7509 138.553C51.4549 138.553 51.2305 138.472 51.0777 138.309C50.9344 138.147 50.8533 137.975 50.8342 137.794L50.8055 137.321C50.4808 137.741 50.0559 138.066 49.5307 138.295C49.0055 138.524 48.485 138.639 47.9694 138.639C47.4728 138.639 47.0288 138.539 46.6373 138.338C46.2458 138.128 45.9402 137.851 45.7205 137.507C45.5009 137.154 45.3911 136.762 45.3911 136.333ZM50.2612 136.863C50.3758 136.729 50.4665 136.595 50.5334 136.462C50.6002 136.318 50.6336 136.199 50.6336 136.104V135.172C50.3376 135.058 50.0273 134.972 49.7026 134.915C49.3779 134.848 49.058 134.814 48.7429 134.814C48.1031 134.814 47.5826 134.943 47.1816 135.201C46.7901 135.449 46.5943 135.793 46.5943 136.232C46.5943 136.471 46.6564 136.705 46.7805 136.934C46.9142 137.154 47.1052 137.335 47.3535 137.479C47.6113 137.622 47.9264 137.693 48.2988 137.693C48.6904 137.693 49.0628 137.617 49.4161 137.464C49.7694 137.302 50.0511 137.101 50.2612 136.863ZM57.863 132.121C57.2328 132.131 56.6742 132.293 56.1871 132.609C55.7097 132.914 55.3707 133.339 55.1701 133.883V138.496H53.9096V131.019H55.0842V132.752C55.342 132.236 55.681 131.821 56.1012 131.506C56.5309 131.181 56.9797 130.999 57.4476 130.961C57.5431 130.961 57.6243 130.961 57.6911 130.961C57.758 130.961 57.8153 130.966 57.863 130.976V132.121ZM62.9807 138.123C62.8756 138.171 62.7324 138.233 62.551 138.309C62.3695 138.386 62.1594 138.453 61.9207 138.51C61.682 138.567 61.4289 138.596 61.1616 138.596C60.856 138.596 60.5743 138.543 60.3164 138.438C60.0586 138.324 59.8533 138.152 59.7005 137.923C59.5477 137.684 59.4713 137.388 59.4713 137.035V132.007H58.4543V131.019H59.4713V128.526H60.7318V131.019H62.4077V132.007H60.7318V136.648C60.7509 136.915 60.8417 137.116 61.004 137.249C61.1663 137.374 61.3573 137.436 61.5769 137.436C61.8252 137.436 62.0544 137.393 62.2645 137.307C62.4746 137.221 62.613 137.159 62.6799 137.121L62.9807 138.123ZM71.7253 132.121C71.095 132.131 70.5364 132.293 70.0494 132.609C69.5719 132.914 69.2329 133.339 69.0324 133.883V138.496H67.7719V131.019H68.9465V132.752C69.2043 132.236 69.5433 131.821 69.9634 131.506C70.3932 131.181 70.842 130.999 71.3099 130.961C71.4054 130.961 71.4865 130.961 71.5534 130.961C71.6202 130.961 71.6775 130.966 71.7253 130.976V132.121ZM76.0595 138.639C75.4961 138.639 74.9852 138.539 74.5268 138.338C74.0685 138.128 73.6722 137.846 73.3379 137.493C73.0037 137.13 72.7459 136.715 72.5645 136.247C72.383 135.779 72.2923 135.287 72.2923 134.771C72.2923 134.246 72.383 133.75 72.5645 133.282C72.7459 132.814 73.0037 132.403 73.3379 132.05C73.6722 131.687 74.0685 131.405 74.5268 131.205C74.9947 130.995 75.5056 130.89 76.0595 130.89C76.6229 130.89 77.1338 130.995 77.5921 131.205C78.0505 131.405 78.4468 131.687 78.781 132.05C79.1248 132.403 79.3874 132.814 79.5688 133.282C79.7503 133.75 79.841 134.246 79.841 134.771C79.841 135.287 79.7503 135.779 79.5688 136.247C79.3874 136.715 79.1296 137.13 78.7953 137.493C78.4611 137.846 78.06 138.128 77.5921 138.338C77.1338 138.539 76.6229 138.639 76.0595 138.639ZM73.5815 134.786C73.5815 135.301 73.6913 135.769 73.9109 136.189C74.1401 136.61 74.4409 136.944 74.8133 137.192C75.1857 137.431 75.6011 137.55 76.0595 137.55C76.5178 137.55 76.9332 137.426 77.3057 137.178C77.6876 136.93 77.9884 136.595 78.2081 136.175C78.4372 135.745 78.5518 135.273 78.5518 134.757C78.5518 134.241 78.4372 133.774 78.2081 133.353C77.9884 132.933 77.6876 132.599 77.3057 132.351C76.9332 132.102 76.5178 131.978 76.0595 131.978C75.6011 131.978 75.1857 132.107 74.8133 132.365C74.4409 132.613 74.1401 132.947 73.9109 133.368C73.6913 133.788 73.5815 134.261 73.5815 134.786ZM81.2968 135.502V131.019H82.5572V135.258C82.5572 136.022 82.6909 136.595 82.9583 136.977C83.2257 137.359 83.622 137.55 84.1472 137.55C84.491 137.55 84.8204 137.479 85.1355 137.335C85.4602 137.183 85.7515 136.968 86.0093 136.691C86.2671 136.414 86.4677 136.084 86.6109 135.702V131.019H87.8714V137.063C87.8714 137.216 87.9 137.331 87.9573 137.407C88.0242 137.474 88.1292 137.512 88.2725 137.522V138.496C88.1292 138.515 88.0146 138.524 87.9287 138.524C87.8523 138.534 87.7759 138.539 87.6995 138.539C87.4608 138.539 87.2555 138.467 87.0836 138.324C86.9117 138.171 86.821 137.985 86.8114 137.765L86.7828 136.891C86.4581 137.445 86.0188 137.875 85.465 138.18C84.9207 138.486 84.3239 138.639 83.6745 138.639C82.8915 138.639 82.2994 138.376 81.8984 137.851C81.4973 137.316 81.2968 136.533 81.2968 135.502ZM93.8385 138.123C93.7335 138.171 93.5902 138.233 93.4088 138.309C93.2274 138.386 93.0173 138.453 92.7785 138.51C92.5398 138.567 92.2868 138.596 92.0194 138.596C91.7138 138.596 91.4321 138.543 91.1743 138.438C90.9164 138.324 90.7111 138.152 90.5584 137.923C90.4056 137.684 90.3292 137.388 90.3292 137.035V132.007H89.3122V131.019H90.3292V128.526H91.5897V131.019H93.2656V132.007H91.5897V136.648C91.6088 136.915 91.6995 137.116 91.8618 137.249C92.0242 137.374 92.2151 137.436 92.4348 137.436C92.6831 137.436 92.9122 137.393 93.1223 137.307C93.3324 137.221 93.4709 137.159 93.5377 137.121L93.8385 138.123ZM95.0068 138.496V131.019H96.2673V138.496H95.0068ZM95.0068 129.615V128.039H96.2673V129.615H95.0068ZM104.797 138.496H103.536V134.313C103.536 133.52 103.412 132.943 103.164 132.58C102.925 132.207 102.557 132.021 102.061 132.021C101.717 132.021 101.373 132.107 101.03 132.279C100.695 132.451 100.395 132.685 100.127 132.981C99.8693 133.267 99.6831 133.602 99.5685 133.984V138.496H98.308V131.019H99.4539V132.623C99.6545 132.27 99.9123 131.964 100.227 131.706C100.543 131.448 100.901 131.248 101.302 131.104C101.703 130.961 102.123 130.89 102.562 130.89C102.992 130.89 103.35 130.971 103.636 131.133C103.933 131.286 104.162 131.506 104.324 131.792C104.496 132.069 104.615 132.398 104.682 132.78C104.759 133.162 104.797 133.578 104.797 134.027V138.496ZM109.736 138.582C109.23 138.582 108.762 138.481 108.332 138.281C107.912 138.071 107.549 137.789 107.244 137.436C106.938 137.073 106.7 136.662 106.528 136.204C106.365 135.745 106.284 135.268 106.284 134.771C106.284 134.246 106.365 133.75 106.528 133.282C106.7 132.814 106.938 132.403 107.244 132.05C107.559 131.687 107.927 131.405 108.347 131.205C108.767 130.995 109.235 130.89 109.751 130.89C110.371 130.89 110.911 131.042 111.369 131.348C111.837 131.654 112.229 132.04 112.544 132.508V131.019H113.661V138.41C113.661 139.116 113.489 139.713 113.145 140.2C112.811 140.687 112.353 141.055 111.77 141.303C111.197 141.561 110.557 141.69 109.851 141.69C109.01 141.69 108.323 141.542 107.788 141.246C107.253 140.95 106.809 140.549 106.456 140.043L107.187 139.398C107.483 139.837 107.865 140.167 108.332 140.386C108.81 140.606 109.316 140.716 109.851 140.716C110.309 140.716 110.729 140.63 111.111 140.458C111.503 140.296 111.813 140.043 112.042 139.699C112.281 139.355 112.4 138.925 112.4 138.41V137.092C112.124 137.55 111.742 137.913 111.255 138.18C110.777 138.448 110.271 138.582 109.736 138.582ZM110.123 137.55C110.39 137.55 110.648 137.502 110.896 137.407C111.145 137.312 111.374 137.187 111.584 137.035C111.794 136.872 111.971 136.691 112.114 136.49C112.257 136.29 112.353 136.084 112.4 135.874V133.726C112.267 133.382 112.076 133.081 111.827 132.823C111.579 132.556 111.298 132.351 110.982 132.207C110.667 132.055 110.343 131.978 110.008 131.978C109.626 131.978 109.283 132.059 108.977 132.222C108.681 132.384 108.428 132.604 108.218 132.881C108.008 133.148 107.845 133.449 107.731 133.783C107.616 134.117 107.559 134.456 107.559 134.8C107.559 135.172 107.626 135.526 107.76 135.86C107.893 136.185 108.075 136.476 108.304 136.734C108.533 136.992 108.805 137.192 109.12 137.335C109.435 137.479 109.77 137.55 110.123 137.55Z" fill="white"/>
<g clip-path="url(#clip2_113_214)">
<path d="M127.606 131.776C127.436 131.776 127.269 131.726 127.128 131.631C126.987 131.537 126.877 131.403 126.812 131.246C126.746 131.089 126.729 130.916 126.763 130.749C126.796 130.582 126.878 130.429 126.998 130.309C127.118 130.189 127.271 130.107 127.438 130.074C127.605 130.041 127.777 130.058 127.934 130.123C128.091 130.188 128.226 130.298 128.32 130.439C128.415 130.581 128.465 130.747 128.465 130.917C128.465 131.145 128.374 131.363 128.213 131.525C128.052 131.686 127.833 131.776 127.606 131.776Z" fill="#22E16E"/>
<path d="M127.605 139.082C126.5 139.082 125.42 138.754 124.502 138.141C123.583 137.527 122.867 136.654 122.444 135.634C122.021 134.613 121.911 133.49 122.126 132.406C122.342 131.322 122.874 130.327 123.655 129.546C124.436 128.764 125.432 128.232 126.515 128.017C127.599 127.801 128.722 127.912 129.743 128.335C130.764 128.757 131.636 129.473 132.25 130.392C132.864 131.311 133.191 132.391 133.191 133.496C133.191 134.977 132.603 136.398 131.555 137.446C130.508 138.493 129.087 139.082 127.605 139.082ZM127.605 128.769C126.67 128.769 125.756 129.046 124.979 129.565C124.202 130.085 123.596 130.823 123.238 131.687C122.88 132.551 122.787 133.501 122.969 134.418C123.151 135.335 123.602 136.177 124.263 136.838C124.924 137.499 125.766 137.949 126.683 138.132C127.6 138.314 128.55 138.221 129.414 137.863C130.278 137.505 131.016 136.899 131.535 136.122C132.055 135.345 132.332 134.431 132.332 133.496C132.332 132.242 131.834 131.04 130.948 130.153C130.061 129.267 128.859 128.769 127.605 128.769Z" fill="#22E16E"/>
<path d="M127.606 136.933C127.378 136.933 127.159 136.842 126.998 136.681C126.837 136.52 126.746 136.301 126.746 136.073V133.495C126.746 133.267 126.837 133.049 126.998 132.887C127.159 132.726 127.378 132.636 127.606 132.636C127.833 132.636 128.052 132.726 128.213 132.887C128.374 133.049 128.465 133.267 128.465 133.495V136.073C128.465 136.301 128.374 136.52 128.213 136.681C128.052 136.842 127.833 136.933 127.606 136.933Z" fill="#22E16E"/>
</g>
<path d="M25.5067 178.451V186.243H24.2175V176.073H25.3061L31.5227 184.023V176.088H32.8118V186.243H31.6373L25.5067 178.451ZM38.2226 186.387C37.6592 186.387 37.1435 186.286 36.6756 186.086C36.2172 185.876 35.8162 185.594 35.4724 185.241C35.1382 184.878 34.8756 184.462 34.6846 183.995C34.5031 183.527 34.4124 183.03 34.4124 182.505C34.4124 181.798 34.5748 181.154 34.8994 180.571C35.2241 179.989 35.6729 179.521 36.2459 179.167C36.8284 178.814 37.492 178.637 38.2369 178.637C38.9913 178.637 39.6454 178.819 40.1993 179.182C40.7627 179.535 41.1972 180.003 41.5027 180.585C41.8179 181.158 41.9754 181.779 41.9754 182.448C41.9754 182.543 41.9706 182.639 41.9611 182.734C41.9611 182.82 41.9563 182.887 41.9468 182.935H35.7445C35.7827 183.422 35.9164 183.856 36.1456 184.238C36.3843 184.61 36.6899 184.907 37.0623 185.126C37.4348 185.336 37.8358 185.441 38.2655 185.441C38.7239 185.441 39.1536 185.327 39.5547 185.097C39.9653 184.868 40.247 184.568 40.3998 184.195L41.4884 184.496C41.3261 184.859 41.0826 185.183 40.7579 185.47C40.4428 185.756 40.0656 185.981 39.6263 186.143C39.1966 186.305 38.7287 186.387 38.2226 186.387ZM35.7016 182.061H40.8009C40.7627 181.574 40.6242 181.144 40.3855 180.772C40.1467 180.399 39.8412 180.108 39.4687 179.898C39.0963 179.688 38.6857 179.583 38.2369 179.583C37.7976 179.583 37.3918 179.688 37.0194 179.898C36.6469 180.108 36.3414 180.399 36.1026 180.772C35.8735 181.144 35.7398 181.574 35.7016 182.061ZM47.1741 185.871C47.069 185.919 46.9258 185.981 46.7444 186.057C46.5629 186.134 46.3528 186.2 46.1141 186.258C45.8754 186.315 45.6223 186.344 45.355 186.344C45.0494 186.344 44.7677 186.291 44.5098 186.186C44.252 186.072 44.0467 185.9 43.8939 185.67C43.7411 185.432 43.6647 185.136 43.6647 184.782V179.755H42.6477V178.766H43.6647V176.274H44.9252V178.766H46.6011V179.755H44.9252V184.396C44.9443 184.663 45.0351 184.864 45.1974 184.997C45.3597 185.121 45.5507 185.183 45.7703 185.183C46.0186 185.183 46.2478 185.14 46.4579 185.055C46.668 184.969 46.8064 184.907 46.8733 184.868L47.1741 185.871ZM57.7102 178.766H58.9277L55.7478 186.243H54.6449L53.1982 182.72L51.7658 186.243H50.6628L47.4829 178.766H48.6861L51.2644 184.997L52.4676 181.932L51.2071 178.781H52.3101L53.1982 181.158L54.0862 178.781H55.1892L53.943 181.932L55.1462 184.997L57.7102 178.766ZM63.1204 186.387C62.557 186.387 62.0462 186.286 61.5878 186.086C61.1294 185.876 60.7331 185.594 60.3989 185.241C60.0647 184.878 59.8069 184.462 59.6254 183.995C59.444 183.527 59.3533 183.035 59.3533 182.519C59.3533 181.994 59.444 181.497 59.6254 181.03C59.8069 180.562 60.0647 180.151 60.3989 179.798C60.7331 179.435 61.1294 179.153 61.5878 178.953C62.0557 178.742 62.5666 178.637 63.1204 178.637C63.6839 178.637 64.1947 178.742 64.6531 178.953C65.1115 179.153 65.5078 179.435 65.842 179.798C66.1858 180.151 66.4484 180.562 66.6298 181.03C66.8112 181.497 66.9019 181.994 66.9019 182.519C66.9019 183.035 66.8112 183.527 66.6298 183.995C66.4484 184.462 66.1905 184.878 65.8563 185.241C65.5221 185.594 65.121 185.876 64.6531 186.086C64.1947 186.286 63.6839 186.387 63.1204 186.387ZM60.6424 182.534C60.6424 183.049 60.7522 183.517 60.9719 183.937C61.2011 184.357 61.5019 184.692 61.8743 184.94C62.2467 185.179 62.6621 185.298 63.1204 185.298C63.5788 185.298 63.9942 185.174 64.3666 184.926C64.7486 184.677 65.0494 184.343 65.269 183.923C65.4982 183.493 65.6128 183.021 65.6128 182.505C65.6128 181.989 65.4982 181.521 65.269 181.101C65.0494 180.681 64.7486 180.347 64.3666 180.098C63.9942 179.85 63.5788 179.726 63.1204 179.726C62.6621 179.726 62.2467 179.855 61.8743 180.113C61.5019 180.361 61.2011 180.695 60.9719 181.115C60.7522 181.536 60.6424 182.008 60.6424 182.534ZM72.3827 179.869C71.7525 179.879 71.1938 180.041 70.7068 180.356C70.2294 180.662 69.8904 181.087 69.6898 181.631V186.243H68.4293V178.766H69.6039V180.5C69.8617 179.984 70.2007 179.568 70.6209 179.253C71.0506 178.929 71.4994 178.747 71.9673 178.709C72.0628 178.709 72.144 178.709 72.2108 178.709C72.2777 178.709 72.335 178.714 72.3827 178.723V179.869ZM78.9041 186.243L76.3115 182.605L74.8934 183.937V186.243H73.6329V175.787H74.8934V182.619L78.7609 178.781H80.1216L77.1423 181.875L80.2649 186.243H78.9041ZM88.2861 186.387C87.7227 186.387 87.2071 186.286 86.7391 186.086C86.2808 185.876 85.8797 185.589 85.5359 185.226C85.2017 184.864 84.9391 184.448 84.7481 183.98C84.5667 183.512 84.476 183.016 84.476 182.491C84.476 181.784 84.6335 181.139 84.9487 180.557C85.2638 179.974 85.7078 179.511 86.2808 179.167C86.8537 178.814 87.5174 178.637 88.2718 178.637C89.0071 178.637 89.6469 178.805 90.1912 179.139C90.745 179.463 91.1557 179.903 91.423 180.457L90.1912 180.843C90.0002 180.49 89.7328 180.218 89.3891 180.027C89.0453 179.826 88.6633 179.726 88.2431 179.726C87.7848 179.726 87.3646 179.845 86.9826 180.084C86.6102 180.323 86.3142 180.652 86.0946 181.072C85.8749 181.483 85.7651 181.956 85.7651 182.491C85.7651 183.016 85.8749 183.493 86.0946 183.923C86.3238 184.343 86.6246 184.677 86.997 184.926C87.3789 185.174 87.7991 185.298 88.2575 185.298C88.5535 185.298 88.8352 185.246 89.1026 185.14C89.3795 185.035 89.6182 184.897 89.8188 184.725C90.0289 184.544 90.1721 184.348 90.2485 184.138L91.4803 184.51C91.3276 184.873 91.0936 185.198 90.7785 185.484C90.4729 185.761 90.1053 185.981 89.6755 186.143C89.2554 186.305 88.7922 186.387 88.2861 186.387ZM96.1045 186.387C95.5411 186.387 95.0302 186.286 94.5718 186.086C94.1135 185.876 93.7172 185.594 93.3829 185.241C93.0487 184.878 92.7909 184.462 92.6095 183.995C92.428 183.527 92.3373 183.035 92.3373 182.519C92.3373 181.994 92.428 181.497 92.6095 181.03C92.7909 180.562 93.0487 180.151 93.3829 179.798C93.7172 179.435 94.1135 179.153 94.5718 178.953C95.0397 178.742 95.5506 178.637 96.1045 178.637C96.6679 178.637 97.1788 178.742 97.6371 178.953C98.0955 179.153 98.4918 179.435 98.826 179.798C99.1698 180.151 99.4324 180.562 99.6138 181.03C99.7953 181.497 99.886 181.994 99.886 182.519C99.886 183.035 99.7953 183.527 99.6138 183.995C99.4324 184.462 99.1746 184.878 98.8403 185.241C98.5061 185.594 98.105 185.876 97.6371 186.086C97.1788 186.286 96.6679 186.387 96.1045 186.387ZM93.6265 182.534C93.6265 183.049 93.7363 183.517 93.9559 183.937C94.1851 184.357 94.4859 184.692 94.8583 184.94C95.2307 185.179 95.6461 185.298 96.1045 185.298C96.5628 185.298 96.9782 185.174 97.3507 184.926C97.7326 184.677 98.0334 184.343 98.2531 183.923C98.4822 183.493 98.5968 183.021 98.5968 182.505C98.5968 181.989 98.4822 181.521 98.2531 181.101C98.0334 180.681 97.7326 180.347 97.3507 180.098C96.9782 179.85 96.5628 179.726 96.1045 179.726C95.6461 179.726 95.2307 179.855 94.8583 180.113C94.4859 180.361 94.1851 180.695 93.9559 181.115C93.7363 181.536 93.6265 182.008 93.6265 182.534ZM103.977 186.387C103.357 186.387 102.774 186.286 102.23 186.086C101.686 185.876 101.218 185.565 100.826 185.155L101.313 184.267C101.743 184.668 102.173 184.954 102.602 185.126C103.032 185.298 103.471 185.384 103.92 185.384C104.436 185.384 104.856 185.288 105.181 185.097C105.505 184.897 105.668 184.606 105.668 184.224C105.668 183.947 105.582 183.742 105.41 183.608C105.247 183.474 105.013 183.364 104.708 183.278C104.402 183.183 104.039 183.078 103.619 182.963C103.104 182.81 102.669 182.648 102.316 182.476C101.962 182.304 101.695 182.089 101.514 181.832C101.332 181.574 101.241 181.249 101.241 180.858C101.241 180.38 101.366 179.979 101.614 179.654C101.862 179.32 102.201 179.067 102.631 178.895C103.07 178.723 103.567 178.637 104.121 178.637C104.674 178.637 105.176 178.723 105.625 178.895C106.073 179.067 106.46 179.32 106.785 179.654L106.212 180.528C105.916 180.223 105.591 179.998 105.238 179.855C104.885 179.702 104.488 179.626 104.049 179.626C103.791 179.626 103.538 179.659 103.29 179.726C103.042 179.783 102.836 179.893 102.674 180.056C102.512 180.208 102.43 180.428 102.43 180.714C102.43 180.953 102.492 181.144 102.617 181.287C102.75 181.421 102.941 181.536 103.19 181.631C103.447 181.727 103.758 181.832 104.121 181.946C104.684 182.109 105.171 182.271 105.582 182.433C106.002 182.596 106.326 182.806 106.556 183.064C106.785 183.321 106.899 183.679 106.899 184.138C106.899 184.844 106.632 185.398 106.097 185.799C105.563 186.191 104.856 186.387 103.977 186.387ZM112.275 185.871C112.17 185.919 112.027 185.981 111.845 186.057C111.664 186.134 111.454 186.2 111.215 186.258C110.976 186.315 110.723 186.344 110.456 186.344C110.15 186.344 109.868 186.291 109.611 186.186C109.353 186.072 109.148 185.9 108.995 185.67C108.842 185.432 108.766 185.136 108.766 184.782V179.755H107.749V178.766H108.766V176.274H110.026V178.766H111.702V179.755H110.026V184.396C110.045 184.663 110.136 184.864 110.298 184.997C110.461 185.121 110.652 185.183 110.871 185.183C111.119 185.183 111.349 185.14 111.559 185.055C111.769 184.969 111.907 184.907 111.974 184.868L112.275 185.871Z" fill="white"/>
<g clip-path="url(#clip3_113_214)">
<path d="M126.705 179.692C126.535 179.692 126.369 179.642 126.227 179.547C126.086 179.453 125.976 179.319 125.911 179.161C125.846 179.004 125.829 178.832 125.862 178.665C125.895 178.498 125.977 178.345 126.097 178.225C126.217 178.105 126.37 178.023 126.537 177.99C126.704 177.956 126.876 177.974 127.034 178.039C127.191 178.104 127.325 178.214 127.419 178.355C127.514 178.496 127.564 178.663 127.564 178.833C127.564 179.061 127.474 179.279 127.312 179.44C127.151 179.601 126.933 179.692 126.705 179.692Z" fill="#22E16E"/>
<path d="M126.705 186.998C125.6 186.998 124.52 186.67 123.601 186.056C122.683 185.442 121.967 184.57 121.544 183.549C121.121 182.528 121.01 181.405 121.226 180.321C121.442 179.238 121.974 178.242 122.755 177.461C123.536 176.68 124.531 176.148 125.615 175.932C126.699 175.717 127.822 175.827 128.843 176.25C129.864 176.673 130.736 177.389 131.35 178.308C131.964 179.226 132.291 180.306 132.291 181.411C132.291 182.893 131.703 184.314 130.655 185.361C129.607 186.409 128.187 186.998 126.705 186.998ZM126.705 176.684C125.77 176.684 124.856 176.962 124.079 177.481C123.302 178 122.696 178.739 122.338 179.602C121.98 180.466 121.887 181.417 122.069 182.333C122.251 183.25 122.701 184.093 123.363 184.754C124.024 185.415 124.866 185.865 125.783 186.047C126.7 186.23 127.65 186.136 128.514 185.778C129.378 185.421 130.116 184.815 130.635 184.037C131.155 183.26 131.432 182.346 131.432 181.411C131.432 180.158 130.934 178.955 130.047 178.069C129.161 177.182 127.959 176.684 126.705 176.684Z" fill="#22E16E"/>
<path d="M126.705 184.849C126.477 184.849 126.258 184.758 126.097 184.597C125.936 184.436 125.845 184.217 125.845 183.989V181.411C125.845 181.183 125.936 180.964 126.097 180.803C126.258 180.642 126.477 180.552 126.705 180.552C126.933 180.552 127.151 180.642 127.312 180.803C127.474 180.964 127.564 181.183 127.564 181.411V183.989C127.564 184.217 127.474 184.436 127.312 184.597C127.151 184.758 126.933 184.849 126.705 184.849Z" fill="#22E16E"/>
</g>
<path d="M24.2175 234.326V224.156H30.9354V225.302H25.5067V228.696H30.076V229.771H25.5067V234.326H24.2175ZM35.2151 234.469C34.6517 234.469 34.1361 234.369 33.6681 234.168C33.2098 233.958 32.8087 233.676 32.4649 233.323C32.1307 232.96 31.8681 232.545 31.6771 232.077C31.4957 231.609 31.405 231.112 31.405 230.587C31.405 229.881 31.5673 229.236 31.892 228.653C32.2167 228.071 32.6655 227.603 33.2384 227.25C33.8209 226.896 34.4846 226.72 35.2294 226.72C35.9838 226.72 36.638 226.901 37.1918 227.264C37.7552 227.617 38.1897 228.085 38.4953 228.668C38.8104 229.241 38.968 229.861 38.968 230.53C38.968 230.625 38.9632 230.721 38.9536 230.816C38.9536 230.902 38.9489 230.969 38.9393 231.017H32.7371C32.7753 231.504 32.909 231.938 33.1382 232.32C33.3769 232.693 33.6825 232.989 34.0549 233.208C34.4273 233.419 34.8284 233.524 35.2581 233.524C35.7165 233.524 36.1462 233.409 36.5472 233.18C36.9579 232.951 37.2396 232.65 37.3923 232.277L38.481 232.578C38.3186 232.941 38.0751 233.266 37.7504 233.552C37.4353 233.839 37.0581 234.063 36.6189 234.225C36.1891 234.388 35.7212 234.469 35.2151 234.469ZM32.6941 230.143H37.7934C37.7552 229.656 37.6167 229.226 37.378 228.854C37.1393 228.482 36.8337 228.19 36.4613 227.98C36.0889 227.77 35.6783 227.665 35.2294 227.665C34.7902 227.665 34.3843 227.77 34.0119 227.98C33.6395 228.19 33.3339 228.482 33.0952 228.854C32.866 229.226 32.7323 229.656 32.6941 230.143ZM43.6779 234.469C43.1145 234.469 42.5989 234.369 42.131 234.168C41.6726 233.958 41.2715 233.676 40.9278 233.323C40.5935 232.96 40.3309 232.545 40.1399 232.077C39.9585 231.609 39.8678 231.112 39.8678 230.587C39.8678 229.881 40.0301 229.236 40.3548 228.653C40.6795 228.071 41.1283 227.603 41.7012 227.25C42.2838 226.896 42.9474 226.72 43.6923 226.72C44.4467 226.72 45.1008 226.901 45.6546 227.264C46.218 227.617 46.6525 228.085 46.9581 228.668C47.2732 229.241 47.4308 229.861 47.4308 230.53C47.4308 230.625 47.426 230.721 47.4165 230.816C47.4165 230.902 47.4117 230.969 47.4021 231.017H41.1999C41.2381 231.504 41.3718 231.938 41.601 232.32C41.8397 232.693 42.1453 232.989 42.5177 233.208C42.8901 233.419 43.2912 233.524 43.7209 233.524C44.1793 233.524 44.609 233.409 45.0101 233.18C45.4207 232.951 45.7024 232.65 45.8552 232.277L46.9438 232.578C46.7814 232.941 46.5379 233.266 46.2133 233.552C45.8981 233.839 45.5209 234.063 45.0817 234.225C44.652 234.388 44.184 234.469 43.6779 234.469ZM41.1569 230.143H46.2562C46.218 229.656 46.0796 229.226 45.8408 228.854C45.6021 228.482 45.2965 228.19 44.9241 227.98C44.5517 227.77 44.1411 227.665 43.6923 227.665C43.253 227.665 42.8472 227.77 42.4747 227.98C42.1023 228.19 41.7967 228.482 41.558 228.854C41.3288 229.226 41.1951 229.656 41.1569 230.143Z" fill="white"/>
<g clip-path="url(#clip4_113_214)">
<path d="M60.6055 227.607C60.4355 227.607 60.2694 227.557 60.1281 227.462C59.9867 227.368 59.8766 227.234 59.8115 227.077C59.7465 226.92 59.7294 226.747 59.7626 226.58C59.7958 226.413 59.8776 226.26 59.9978 226.14C60.118 226.02 60.2711 225.938 60.4379 225.905C60.6046 225.872 60.7774 225.889 60.9344 225.954C61.0915 226.019 61.2257 226.129 61.3201 226.27C61.4146 226.412 61.465 226.578 61.465 226.748C61.465 226.976 61.3744 227.194 61.2132 227.356C61.0521 227.517 60.8335 227.607 60.6055 227.607Z" fill="#22E16E"/>
<path d="M60.6056 234.912C59.5007 234.912 58.4207 234.584 57.502 233.971C56.5833 233.357 55.8673 232.484 55.4445 231.464C55.0217 230.443 54.9111 229.32 55.1266 228.236C55.3422 227.152 55.8742 226.157 56.6555 225.376C57.4367 224.594 58.4321 224.062 59.5158 223.847C60.5994 223.631 61.7226 223.742 62.7434 224.165C63.7641 224.588 64.6366 225.304 65.2504 226.222C65.8643 227.141 66.1919 228.221 66.1919 229.326C66.1919 230.807 65.6033 232.228 64.5557 233.276C63.5081 234.324 62.0872 234.912 60.6056 234.912ZM60.6056 224.599C59.6707 224.599 58.7568 224.876 57.9795 225.396C57.2022 225.915 56.5963 226.653 56.2385 227.517C55.8808 228.381 55.7872 229.331 55.9695 230.248C56.1519 231.165 56.6021 232.007 57.2632 232.668C57.9243 233.329 58.7665 233.779 59.6834 233.962C60.6003 234.144 61.5508 234.051 62.4145 233.693C63.2782 233.335 64.0164 232.729 64.5358 231.952C65.0552 231.175 65.3325 230.261 65.3325 229.326C65.3325 228.072 64.8345 226.87 63.948 225.983C63.0615 225.097 61.8592 224.599 60.6056 224.599Z" fill="#22E16E"/>
<path d="M60.6055 232.764C60.3776 232.764 60.159 232.673 59.9978 232.512C59.8366 232.351 59.7461 232.132 59.7461 231.905V229.326C59.7461 229.098 59.8366 228.88 59.9978 228.719C60.159 228.557 60.3776 228.467 60.6055 228.467C60.8335 228.467 61.0521 228.557 61.2132 228.719C61.3744 228.88 61.465 229.098 61.465 229.326V231.905C61.465 232.132 61.3744 232.351 61.2132 232.512C61.0521 232.673 60.8335 232.764 60.6055 232.764Z" fill="#22E16E"/>
</g>
<defs>
<clipPath id="clip0_113_214">
<rect width="13.7509" height="13.7509" fill="white" transform="translate(142.729 35.1245)"/>
</clipPath>
<clipPath id="clip1_113_214">
<rect width="13.7509" height="13.7509" fill="white" transform="translate(120.729 80.8723)"/>
</clipPath>
<clipPath id="clip2_113_214">
<rect width="13.7509" height="13.7509" fill="white" transform="translate(120.729 126.62)"/>
</clipPath>
<clipPath id="clip3_113_214">
<rect width="13.7509" height="13.7509" fill="white" transform="translate(119.829 174.535)"/>
</clipPath>
<clipPath id="clip4_113_214">
<rect width="13.7509" height="13.7509" fill="white" transform="translate(53.7295 222.45)"/>
</clipPath>
</defs>
</svg>
