<svg width="609" height="371" viewBox="0 0 609 371" fill="none" xmlns="http://www.w3.org/2000/svg">
<rect width="609" height="371" rx="5" fill="#FFFFFF"/>
<path d="M79.3701 63.2167C77.9254 63.2167 76.5439 63 75.2257 62.5666C73.9074 62.1151 72.869 61.5373 72.1106 60.833L73.1128 58.7201C73.8352 59.3522 74.7562 59.8759 75.8758 60.2912C76.9954 60.7066 78.1602 60.9142 79.3701 60.9142C80.4717 60.9142 81.3655 60.7878 82.0518 60.535C82.738 60.2822 83.2436 59.9391 83.5687 59.5057C83.8937 59.0542 84.0563 58.5486 84.0563 57.9888C84.0563 57.3387 83.8396 56.815 83.4062 56.4177C82.9908 56.0204 82.44 55.7044 81.7538 55.4696C81.0856 55.2168 80.3452 55.0001 79.5326 54.8195C78.72 54.6389 77.8983 54.4313 77.0676 54.1965C76.255 53.9437 75.5056 53.6277 74.8194 53.2484C74.1512 52.8692 73.6094 52.3636 73.1941 51.7315C72.7788 51.0814 72.5711 50.2507 72.5711 49.2395C72.5711 48.2643 72.8239 47.3704 73.3295 46.5578C73.8532 45.7271 74.6478 45.068 75.7133 44.5804C76.7968 44.0748 78.1692 43.8219 79.8306 43.8219C80.9321 43.8219 82.0247 43.9664 83.1082 44.2553C84.1917 44.5443 85.1307 44.9596 85.9253 45.5014L85.0314 47.6684C84.2188 47.1266 83.361 46.7384 82.4581 46.5036C81.5552 46.2508 80.6793 46.1244 79.8306 46.1244C78.7651 46.1244 77.8893 46.2598 77.2031 46.5307C76.5169 46.8016 76.0112 47.1627 75.6862 47.6142C75.3792 48.0657 75.2257 48.5713 75.2257 49.1311C75.2257 49.7993 75.4333 50.332 75.8487 50.7293C76.2821 51.1266 76.8329 51.4426 77.501 51.6774C78.1873 51.9121 78.9367 52.1288 79.7493 52.3275C80.5619 52.508 81.3746 52.7157 82.1872 52.9505C83.0179 53.1852 83.7673 53.4922 84.4355 53.8715C85.1217 54.2507 85.6725 54.7563 86.0878 55.3884C86.5032 56.0204 86.7108 56.833 86.7108 57.8263C86.7108 58.7834 86.449 59.6772 85.9253 60.5079C85.4016 61.3206 84.589 61.9797 83.4874 62.4853C82.4039 62.9729 81.0315 63.2167 79.3701 63.2167ZM96.6816 63.1625C95.1467 63.1625 93.7923 62.8465 92.6185 62.2145C91.4628 61.5824 90.5598 60.7156 89.9097 59.614C89.2777 58.5125 88.9617 57.2484 88.9617 55.8218C88.9617 54.3952 89.2687 53.1311 89.8826 52.0295C90.5147 50.9279 91.3725 50.0702 92.456 49.4562C93.5575 48.8241 94.7945 48.5081 96.167 48.5081C97.5575 48.5081 98.7855 48.8151 99.8509 49.4291C100.916 50.0431 101.747 50.9099 102.343 52.0295C102.957 53.1311 103.264 54.4222 103.264 55.903C103.264 56.0114 103.255 56.1378 103.237 56.2823C103.237 56.4267 103.228 56.5622 103.21 56.6886H90.9932V54.8195H101.855L100.799 55.4696C100.817 54.5486 100.627 53.727 100.23 53.0047C99.8328 52.2823 99.2821 51.7225 98.5778 51.3252C97.8916 50.9099 97.088 50.7022 96.167 50.7022C95.2641 50.7022 94.4605 50.9099 93.7562 51.3252C93.0519 51.7225 92.5011 52.2913 92.1038 53.0317C91.7065 53.7541 91.5079 54.5848 91.5079 55.5238V55.9572C91.5079 56.9143 91.7246 57.7721 92.158 58.5305C92.6095 59.2709 93.2325 59.8488 94.0271 60.2641C94.8216 60.6795 95.7336 60.8872 96.7629 60.8872C97.6117 60.8872 98.3791 60.7427 99.0654 60.4538C99.7696 60.1648 100.384 59.7314 100.907 59.1536L102.343 60.833C101.693 61.5914 100.88 62.1693 99.9051 62.5666C98.948 62.9639 97.8735 63.1625 96.6816 63.1625ZM111.805 63.1625C110.36 63.1625 109.241 62.7743 108.446 61.9978C107.651 61.2212 107.254 60.1106 107.254 58.666V45.5014H109.855V58.5576C109.855 59.3341 110.044 59.9301 110.423 60.3454C110.821 60.7608 111.38 60.9684 112.103 60.9684C112.915 60.9684 113.593 60.7427 114.134 60.2912L114.947 62.1603C114.55 62.5034 114.071 62.7562 113.511 62.9187C112.97 63.0813 112.401 63.1625 111.805 63.1625ZM104.816 50.7835V48.6435H113.972V50.7835H104.816ZM122.677 63.1625C121.232 63.1625 120.113 62.7743 119.318 61.9978C118.523 61.2212 118.126 60.1106 118.126 58.666V45.5014H120.727V58.5576C120.727 59.3341 120.916 59.9301 121.295 60.3454C121.693 60.7608 122.253 60.9684 122.975 60.9684C123.788 60.9684 124.465 60.7427 125.006 60.2912L125.819 62.1603C125.422 62.5034 124.943 62.7562 124.383 62.9187C123.842 63.0813 123.273 63.1625 122.677 63.1625ZM115.688 50.7835V48.6435H124.844V50.7835H115.688ZM128.963 63V48.6435H131.563V63H128.963ZM130.263 45.8806C129.758 45.8806 129.333 45.7181 128.99 45.393C128.665 45.068 128.502 44.6707 128.502 44.2012C128.502 43.7136 128.665 43.3073 128.99 42.9822C129.333 42.6572 129.758 42.4946 130.263 42.4946C130.769 42.4946 131.184 42.6572 131.509 42.9822C131.852 43.2892 132.024 43.6775 132.024 44.147C132.024 44.6346 131.861 45.0499 131.536 45.393C131.211 45.7181 130.787 45.8806 130.263 45.8806ZM144.194 48.5081C145.368 48.5081 146.397 48.7338 147.282 49.1853C148.185 49.6368 148.889 50.323 149.395 51.244C149.901 52.1649 150.154 53.3297 150.154 54.7383V63H147.553V55.0362C147.553 53.6457 147.21 52.5983 146.524 51.8941C145.856 51.1898 144.908 50.8376 143.68 50.8376C142.759 50.8376 141.955 51.0182 141.269 51.3794C140.583 51.7406 140.05 52.2733 139.671 52.9776C139.309 53.6818 139.129 54.5577 139.129 55.6051V63H136.528V48.6435H139.021V52.5171L138.614 51.4877C139.084 50.5487 139.806 49.8173 140.781 49.2936C141.756 48.7699 142.894 48.5081 144.194 48.5081ZM161.25 68.4175C159.932 68.4175 158.65 68.2279 157.404 67.8487C156.176 67.4875 155.174 66.9638 154.397 66.2776L155.643 64.2731C156.311 64.851 157.133 65.3025 158.108 65.6275C159.083 65.9706 160.104 66.1422 161.169 66.1422C162.867 66.1422 164.113 65.7449 164.907 64.9503C165.702 64.1557 166.099 62.9458 166.099 61.3206V58.2867L166.37 55.4425L166.235 52.5712V48.6435H168.7V61.0497C168.7 63.5779 168.067 65.4379 166.803 66.6297C165.539 67.8216 163.688 68.4175 161.25 68.4175ZM160.925 62.4041C159.535 62.4041 158.289 62.1151 157.187 61.5373C156.104 60.9413 155.237 60.1197 154.587 59.0723C153.955 58.0249 153.639 56.815 153.639 55.4425C153.639 54.052 153.955 52.8421 154.587 51.8128C155.237 50.7654 156.104 49.9528 157.187 49.3749C158.289 48.797 159.535 48.5081 160.925 48.5081C162.153 48.5081 163.273 48.7609 164.284 49.2666C165.295 49.7541 166.099 50.5126 166.695 51.5419C167.309 52.5712 167.616 53.8715 167.616 55.4425C167.616 56.9956 167.309 58.2867 166.695 59.3161C166.099 60.3454 165.295 61.1219 164.284 61.6456C163.273 62.1513 162.153 62.4041 160.925 62.4041ZM161.223 60.1287C162.18 60.1287 163.029 59.9301 163.77 59.5328C164.51 59.1355 165.088 58.5847 165.503 57.8804C165.937 57.1762 166.153 56.3635 166.153 55.4425C166.153 54.5216 165.937 53.7089 165.503 53.0047C165.088 52.3004 164.51 51.7586 163.77 51.3794C163.029 50.9821 162.18 50.7835 161.223 50.7835C160.266 50.7835 159.408 50.9821 158.65 51.3794C157.91 51.7586 157.323 52.3004 156.889 53.0047C156.474 53.7089 156.266 54.5216 156.266 55.4425C156.266 56.3635 156.474 57.1762 156.889 57.8804C157.323 58.5847 157.91 59.1355 158.65 59.5328C159.408 59.9301 160.266 60.1287 161.223 60.1287ZM177.786 63.1625C176.594 63.1625 175.456 63 174.372 62.6749C173.307 62.3499 172.467 61.9526 171.853 61.4831L172.937 59.4244C173.551 59.8398 174.309 60.1919 175.212 60.4808C176.115 60.7698 177.036 60.9142 177.975 60.9142C179.185 60.9142 180.052 60.7427 180.576 60.3996C181.117 60.0565 181.388 59.5779 181.388 58.9639C181.388 58.5125 181.226 58.1603 180.901 57.9075C180.576 57.6547 180.142 57.4651 179.6 57.3387C179.077 57.2123 178.49 57.1039 177.84 57.0136C177.19 56.9053 176.539 56.7789 175.889 56.6344C175.239 56.4719 174.643 56.2552 174.102 55.9843C173.56 55.6954 173.126 55.3071 172.801 54.8195C172.476 54.3139 172.314 53.6457 172.314 52.815C172.314 51.9482 172.558 51.1898 173.045 50.5397C173.533 49.8896 174.219 49.393 175.104 49.0499C176.007 48.6887 177.072 48.5081 178.3 48.5081C179.239 48.5081 180.187 48.6255 181.144 48.8602C182.12 49.0769 182.914 49.393 183.528 49.8083L182.417 51.867C181.767 51.4336 181.09 51.1356 180.386 50.9731C179.682 50.8106 178.977 50.7293 178.273 50.7293C177.135 50.7293 176.287 50.9189 175.727 51.2981C175.167 51.6593 174.887 52.1288 174.887 52.7067C174.887 53.1943 175.05 53.5735 175.375 53.8444C175.718 54.0972 176.151 54.2958 176.675 54.4403C177.217 54.5848 177.813 54.7112 178.463 54.8195C179.113 54.9098 179.763 55.0362 180.413 55.1988C181.063 55.3432 181.65 55.5509 182.174 55.8218C182.715 56.0926 183.149 56.4719 183.474 56.9595C183.817 57.447 183.989 58.0971 183.989 58.9098C183.989 59.7766 183.736 60.526 183.23 61.158C182.724 61.7901 182.011 62.2867 181.09 62.6479C180.169 62.991 179.068 63.1625 177.786 63.1625Z" fill="#121212"/>
<path d="M523 45L538.237 60.2368" stroke="#121212" stroke-width="2.14634" stroke-linecap="round"/>
<path d="M523 60.2373L538.237 45.0005" stroke="#121212" stroke-width="2.14634" stroke-linecap="round"/>
<path d="M505.107 113.953H506.397L511.318 126H509.689L508.264 122.471H503.207L501.799 126H500.17L505.107 113.953ZM507.924 121.283L505.752 115.717L503.512 121.283H507.924ZM512.421 122.454V117.143H513.914V122.165C513.914 123.07 514.073 123.749 514.389 124.201C514.706 124.654 515.176 124.88 515.798 124.88C516.205 124.88 516.595 124.795 516.969 124.626C517.353 124.445 517.698 124.19 518.004 123.862C518.309 123.534 518.547 123.144 518.716 122.691V117.143H520.21V124.303C520.21 124.484 520.243 124.62 520.311 124.71C520.391 124.79 520.515 124.835 520.685 124.846V126C520.515 126.023 520.379 126.034 520.277 126.034C520.187 126.045 520.096 126.051 520.006 126.051C519.723 126.051 519.48 125.966 519.276 125.796C519.073 125.615 518.965 125.395 518.954 125.135L518.92 124.1C518.535 124.756 518.015 125.265 517.359 125.627C516.714 125.989 516.007 126.17 515.238 126.17C514.31 126.17 513.609 125.859 513.134 125.236C512.659 124.603 512.421 123.675 512.421 122.454ZM527.278 125.559C527.154 125.615 526.984 125.689 526.769 125.779C526.554 125.87 526.305 125.949 526.023 126.017C525.74 126.085 525.44 126.119 525.123 126.119C524.761 126.119 524.428 126.057 524.122 125.932C523.817 125.796 523.574 125.593 523.393 125.321C523.212 125.038 523.121 124.688 523.121 124.269V118.313H521.916V117.143H523.121V114.19H524.614V117.143H526.6V118.313H524.614V123.811C524.637 124.128 524.744 124.365 524.937 124.524C525.129 124.671 525.355 124.744 525.615 124.744C525.909 124.744 526.181 124.693 526.43 124.592C526.679 124.49 526.843 124.416 526.922 124.371L527.278 125.559ZM532.415 126.17C531.748 126.17 531.142 126.051 530.599 125.813C530.056 125.564 529.587 125.231 529.191 124.812C528.795 124.382 528.49 123.89 528.275 123.336C528.06 122.782 527.952 122.199 527.952 121.588C527.952 120.966 528.06 120.378 528.275 119.824C528.49 119.269 528.795 118.783 529.191 118.364C529.587 117.934 530.056 117.601 530.599 117.363C531.154 117.114 531.759 116.99 532.415 116.99C533.082 116.99 533.688 117.114 534.231 117.363C534.774 117.601 535.243 117.934 535.639 118.364C536.046 118.783 536.357 119.269 536.572 119.824C536.787 120.378 536.895 120.966 536.895 121.588C536.895 122.199 536.787 122.782 536.572 123.336C536.357 123.89 536.052 124.382 535.656 124.812C535.26 125.231 534.785 125.564 534.231 125.813C533.688 126.051 533.082 126.17 532.415 126.17ZM529.48 121.605C529.48 122.216 529.61 122.77 529.87 123.268C530.141 123.766 530.498 124.162 530.939 124.456C531.38 124.739 531.872 124.88 532.415 124.88C532.958 124.88 533.45 124.733 533.891 124.439C534.344 124.145 534.7 123.749 534.96 123.251C535.232 122.742 535.368 122.182 535.368 121.571C535.368 120.96 535.232 120.406 534.96 119.908C534.7 119.411 534.344 119.015 533.891 118.721C533.45 118.426 532.958 118.279 532.415 118.279C531.872 118.279 531.38 118.432 530.939 118.738C530.498 119.032 530.141 119.428 529.87 119.925C529.61 120.423 529.48 120.983 529.48 121.605Z" fill="#121212"/>
<path d="M72.6996 129V114.803H74.4992V127.4H82.4175V129H72.6996ZM84.0968 129V118.562H85.8564V129H84.0968ZM84.0968 116.603V114.403H85.8564V116.603H84.0968ZM92.7043 129.2C92.0111 129.2 91.3779 129.053 90.8047 128.76C90.2315 128.467 89.7383 128.074 89.3251 127.58C88.9118 127.074 88.5919 126.494 88.3653 125.841C88.1387 125.187 88.0253 124.501 88.0253 123.781C88.0253 123.048 88.152 122.355 88.4053 121.702C88.6585 121.048 89.0051 120.475 89.445 119.982C89.8983 119.489 90.4248 119.102 91.0247 118.822C91.6246 118.529 92.2711 118.382 92.9643 118.382C93.7774 118.382 94.5173 118.589 95.1838 119.002C95.8503 119.402 96.3769 119.915 96.7634 120.542V118.562H98.3231V133.259H96.5635V126.94C95.6037 128.447 94.3173 129.2 92.7043 129.2ZM93.3042 127.68C93.7974 127.68 94.244 127.58 94.6439 127.38C95.0571 127.18 95.4237 126.914 95.7437 126.581C96.0636 126.234 96.3369 125.854 96.5635 125.441V122.441C96.5102 122.095 96.3769 121.775 96.1636 121.482C95.9503 121.175 95.6903 120.902 95.3837 120.662C95.0771 120.422 94.7439 120.235 94.384 120.102C94.0374 119.969 93.6908 119.902 93.3442 119.902C92.8243 119.902 92.3511 120.015 91.9245 120.242C91.4979 120.455 91.1247 120.748 90.8047 121.122C90.4981 121.495 90.2582 121.915 90.0849 122.381C89.9116 122.848 89.825 123.328 89.825 123.821C89.825 124.514 89.9716 125.154 90.2649 125.741C90.5715 126.327 90.9847 126.8 91.5046 127.16C92.0245 127.507 92.6243 127.68 93.3042 127.68ZM101.063 124.821V118.562H102.823V124.481C102.823 125.547 103.01 126.347 103.383 126.88C103.756 127.414 104.309 127.68 105.043 127.68C105.522 127.68 105.982 127.58 106.422 127.38C106.875 127.167 107.282 126.867 107.642 126.481C108.002 126.094 108.282 125.634 108.482 125.101V118.562H110.241V127C110.241 127.214 110.281 127.374 110.361 127.48C110.455 127.574 110.601 127.627 110.801 127.64V129C110.601 129.027 110.441 129.04 110.321 129.04C110.215 129.053 110.108 129.06 110.001 129.06C109.668 129.06 109.382 128.96 109.142 128.76C108.902 128.547 108.775 128.287 108.762 127.98L108.722 126.76C108.269 127.534 107.655 128.134 106.882 128.56C106.122 128.987 105.289 129.2 104.383 129.2C103.29 129.2 102.463 128.833 101.903 128.1C101.343 127.354 101.063 126.261 101.063 124.821ZM113.173 129V118.562H114.932V129H113.173ZM113.173 116.603V114.403H114.932V116.603H113.173ZM117.101 123.801C117.101 122.815 117.301 121.915 117.701 121.102C118.114 120.275 118.674 119.615 119.381 119.122C120.1 118.629 120.92 118.382 121.84 118.382C122.68 118.382 123.433 118.602 124.099 119.042C124.766 119.482 125.286 120.015 125.659 120.642V114.403H127.419V127C127.419 127.214 127.459 127.374 127.539 127.48C127.632 127.574 127.779 127.627 127.979 127.64V129C127.645 129.053 127.385 129.08 127.199 129.08C126.852 129.08 126.546 128.96 126.279 128.72C126.026 128.48 125.899 128.214 125.899 127.92V127.04C125.486 127.707 124.933 128.234 124.239 128.62C123.546 129.007 122.826 129.2 122.08 129.2C121.36 129.2 120.694 129.06 120.08 128.78C119.481 128.487 118.954 128.087 118.501 127.58C118.061 127.074 117.714 126.501 117.461 125.861C117.221 125.207 117.101 124.521 117.101 123.801ZM125.659 125.341V122.341C125.499 121.888 125.239 121.482 124.879 121.122C124.519 120.748 124.113 120.455 123.66 120.242C123.22 120.015 122.78 119.902 122.34 119.902C121.82 119.902 121.347 120.015 120.92 120.242C120.507 120.455 120.147 120.748 119.84 121.122C119.547 121.482 119.321 121.895 119.161 122.361C119.001 122.828 118.921 123.315 118.921 123.821C118.921 124.341 119.007 124.834 119.181 125.301C119.367 125.767 119.62 126.181 119.94 126.541C120.274 126.9 120.654 127.18 121.08 127.38C121.52 127.58 121.993 127.68 122.5 127.68C122.82 127.68 123.146 127.62 123.48 127.5C123.826 127.38 124.153 127.214 124.459 127C124.766 126.787 125.026 126.541 125.239 126.261C125.453 125.967 125.593 125.661 125.659 125.341ZM130.356 129V118.562H132.116V129H130.356ZM130.356 116.603V114.403H132.116V116.603H130.356ZM140.363 128.48C140.217 128.547 140.017 128.633 139.764 128.74C139.51 128.847 139.217 128.94 138.884 129.02C138.551 129.1 138.197 129.14 137.824 129.14C137.397 129.14 137.004 129.067 136.644 128.92C136.284 128.76 135.998 128.52 135.784 128.2C135.571 127.867 135.465 127.454 135.465 126.96V119.942H134.045V118.562H135.465V115.083H137.224V118.562H139.564V119.942H137.224V126.421C137.251 126.794 137.377 127.074 137.604 127.26C137.831 127.434 138.097 127.52 138.404 127.52C138.75 127.52 139.07 127.46 139.364 127.34C139.657 127.22 139.85 127.134 139.944 127.08L140.363 128.48ZM142.474 131.839C142.648 131.853 142.821 131.866 142.994 131.879C143.167 131.906 143.301 131.919 143.394 131.919C143.607 131.919 143.794 131.846 143.954 131.699C144.114 131.553 144.287 131.266 144.474 130.84C144.674 130.426 144.927 129.813 145.234 129L140.815 118.562H142.674L146.193 127.22L149.373 118.562H151.112L146.033 131.739C145.913 132.046 145.734 132.333 145.494 132.599C145.267 132.879 144.974 133.099 144.614 133.259C144.254 133.419 143.821 133.499 143.314 133.499C143.194 133.499 143.067 133.492 142.934 133.479C142.814 133.466 142.661 133.439 142.474 133.399V131.839ZM160.98 129.2C160.114 129.2 159.301 129.06 158.541 128.78C157.781 128.487 157.128 128.054 156.581 127.48L157.261 126.241C157.861 126.8 158.461 127.2 159.061 127.44C159.661 127.68 160.274 127.8 160.9 127.8C161.62 127.8 162.207 127.667 162.66 127.4C163.113 127.12 163.34 126.714 163.34 126.181C163.34 125.794 163.22 125.507 162.98 125.321C162.753 125.134 162.427 124.981 162 124.861C161.574 124.728 161.067 124.581 160.48 124.421C159.761 124.208 159.154 123.981 158.661 123.741C158.168 123.501 157.794 123.201 157.541 122.841C157.288 122.481 157.161 122.028 157.161 121.482C157.161 120.815 157.334 120.255 157.681 119.802C158.028 119.335 158.501 118.982 159.101 118.742C159.714 118.502 160.407 118.382 161.18 118.382C161.953 118.382 162.653 118.502 163.28 118.742C163.906 118.982 164.446 119.335 164.899 119.802L164.1 121.022C163.686 120.595 163.233 120.282 162.74 120.082C162.247 119.869 161.694 119.762 161.08 119.762C160.72 119.762 160.367 119.809 160.021 119.902C159.674 119.982 159.387 120.135 159.161 120.362C158.934 120.575 158.821 120.882 158.821 121.282C158.821 121.615 158.907 121.882 159.081 122.082C159.267 122.268 159.534 122.428 159.881 122.561C160.241 122.695 160.674 122.841 161.18 123.001C161.967 123.228 162.647 123.455 163.22 123.681C163.806 123.908 164.26 124.201 164.58 124.561C164.899 124.921 165.059 125.421 165.059 126.061C165.059 127.047 164.686 127.82 163.94 128.38C163.193 128.927 162.207 129.2 160.98 129.2ZM171.724 129.2C170.937 129.2 170.224 129.06 169.584 128.78C168.944 128.487 168.391 128.094 167.924 127.6C167.458 127.094 167.098 126.514 166.845 125.861C166.591 125.207 166.465 124.521 166.465 123.801C166.465 123.068 166.591 122.375 166.845 121.722C167.098 121.068 167.458 120.495 167.924 120.002C168.391 119.495 168.944 119.102 169.584 118.822C170.237 118.529 170.95 118.382 171.724 118.382C172.51 118.382 173.223 118.529 173.863 118.822C174.503 119.102 175.056 119.495 175.523 120.002C176.003 120.495 176.369 121.068 176.623 121.722C176.876 122.375 177.002 123.068 177.002 123.801C177.002 124.521 176.876 125.207 176.623 125.861C176.369 126.514 176.009 127.094 175.543 127.6C175.076 128.094 174.516 128.487 173.863 128.78C173.223 129.06 172.51 129.2 171.724 129.2ZM168.264 123.821C168.264 124.541 168.418 125.194 168.724 125.781C169.044 126.367 169.464 126.834 169.984 127.18C170.504 127.514 171.084 127.68 171.724 127.68C172.363 127.68 172.943 127.507 173.463 127.16C173.996 126.814 174.416 126.347 174.723 125.761C175.043 125.161 175.203 124.501 175.203 123.781C175.203 123.061 175.043 122.408 174.723 121.822C174.416 121.235 173.996 120.768 173.463 120.422C172.943 120.075 172.363 119.902 171.724 119.902C171.084 119.902 170.504 120.082 169.984 120.442C169.464 120.788 169.044 121.255 168.724 121.842C168.418 122.428 168.264 123.088 168.264 123.821ZM179.035 124.821V118.562H180.794V124.481C180.794 125.547 180.981 126.347 181.354 126.88C181.727 127.414 182.281 127.68 183.014 127.68C183.494 127.68 183.954 127.58 184.394 127.38C184.847 127.167 185.253 126.867 185.613 126.481C185.973 126.094 186.253 125.634 186.453 125.101V118.562H188.213V127C188.213 127.214 188.253 127.374 188.333 127.48C188.426 127.574 188.573 127.627 188.773 127.64V129C188.573 129.027 188.413 129.04 188.293 129.04C188.186 129.053 188.079 129.06 187.973 129.06C187.639 129.06 187.353 128.96 187.113 128.76C186.873 128.547 186.746 128.287 186.733 127.98L186.693 126.76C186.24 127.534 185.627 128.134 184.853 128.56C184.094 128.987 183.26 129.2 182.354 129.2C181.261 129.2 180.434 128.833 179.874 128.1C179.315 127.354 179.035 126.261 179.035 124.821ZM196.663 120.102C195.783 120.115 195.003 120.342 194.323 120.782C193.657 121.208 193.183 121.802 192.903 122.561V129H191.144V118.562H192.783V120.982C193.143 120.262 193.617 119.682 194.203 119.242C194.803 118.789 195.429 118.536 196.083 118.482C196.216 118.482 196.329 118.482 196.423 118.482C196.516 118.482 196.596 118.489 196.663 118.502V120.102ZM202.773 129.2C201.986 129.2 201.267 129.06 200.613 128.78C199.974 128.487 199.414 128.087 198.934 127.58C198.467 127.074 198.101 126.494 197.834 125.841C197.581 125.187 197.454 124.494 197.454 123.761C197.454 122.775 197.674 121.875 198.114 121.062C198.554 120.249 199.174 119.602 199.974 119.122C200.773 118.629 201.7 118.382 202.753 118.382C203.779 118.382 204.673 118.616 205.432 119.082C206.206 119.535 206.779 120.149 207.152 120.922L205.432 121.462C205.166 120.968 204.792 120.589 204.313 120.322C203.833 120.042 203.299 119.902 202.713 119.902C202.073 119.902 201.487 120.069 200.953 120.402C200.433 120.735 200.02 121.195 199.714 121.782C199.407 122.355 199.254 123.015 199.254 123.761C199.254 124.494 199.407 125.161 199.714 125.761C200.034 126.347 200.453 126.814 200.973 127.16C201.507 127.507 202.093 127.68 202.733 127.68C203.146 127.68 203.539 127.607 203.913 127.46C204.299 127.314 204.633 127.12 204.912 126.88C205.206 126.627 205.406 126.354 205.512 126.061L207.232 126.581C207.019 127.087 206.692 127.54 206.252 127.94C205.826 128.327 205.312 128.633 204.713 128.86C204.126 129.087 203.479 129.2 202.773 129.2ZM213.747 129.2C212.961 129.2 212.241 129.06 211.588 128.78C210.948 128.487 210.388 128.094 209.908 127.6C209.441 127.094 209.075 126.514 208.808 125.861C208.555 125.207 208.428 124.514 208.428 123.781C208.428 122.795 208.655 121.895 209.108 121.082C209.561 120.269 210.188 119.615 210.988 119.122C211.801 118.629 212.727 118.382 213.767 118.382C214.82 118.382 215.733 118.636 216.506 119.142C217.293 119.635 217.9 120.289 218.326 121.102C218.766 121.902 218.986 122.768 218.986 123.701C218.986 123.834 218.979 123.968 218.966 124.101C218.966 124.221 218.959 124.314 218.946 124.381H210.288C210.341 125.061 210.528 125.667 210.848 126.201C211.181 126.72 211.608 127.134 212.127 127.44C212.647 127.734 213.207 127.88 213.807 127.88C214.447 127.88 215.047 127.72 215.607 127.4C216.18 127.08 216.573 126.661 216.786 126.141L218.306 126.561C218.079 127.067 217.74 127.52 217.286 127.92C216.846 128.32 216.32 128.633 215.707 128.86C215.107 129.087 214.454 129.2 213.747 129.2ZM210.228 123.161H217.346C217.293 122.481 217.1 121.882 216.766 121.362C216.433 120.842 216.007 120.435 215.487 120.142C214.967 119.849 214.394 119.702 213.767 119.702C213.154 119.702 212.587 119.849 212.067 120.142C211.548 120.435 211.121 120.842 210.788 121.362C210.468 121.882 210.281 122.481 210.228 123.161ZM224.521 129.2C223.655 129.2 222.842 129.06 222.082 128.78C221.322 128.487 220.669 128.054 220.122 127.48L220.802 126.241C221.402 126.8 222.002 127.2 222.602 127.44C223.201 127.68 223.815 127.8 224.441 127.8C225.161 127.8 225.748 127.667 226.201 127.4C226.654 127.12 226.881 126.714 226.881 126.181C226.881 125.794 226.761 125.507 226.521 125.321C226.294 125.134 225.968 124.981 225.541 124.861C225.114 124.728 224.608 124.581 224.021 124.421C223.301 124.208 222.695 123.981 222.202 123.741C221.708 123.501 221.335 123.201 221.082 122.841C220.829 122.481 220.702 122.028 220.702 121.482C220.702 120.815 220.875 120.255 221.222 119.802C221.568 119.335 222.042 118.982 222.642 118.742C223.255 118.502 223.948 118.382 224.721 118.382C225.494 118.382 226.194 118.502 226.821 118.742C227.447 118.982 227.987 119.335 228.44 119.802L227.64 121.022C227.227 120.595 226.774 120.282 226.281 120.082C225.788 119.869 225.234 119.762 224.621 119.762C224.261 119.762 223.908 119.809 223.561 119.902C223.215 119.982 222.928 120.135 222.702 120.362C222.475 120.575 222.362 120.882 222.362 121.282C222.362 121.615 222.448 121.882 222.622 122.082C222.808 122.268 223.075 122.428 223.421 122.561C223.781 122.695 224.215 122.841 224.721 123.001C225.508 123.228 226.187 123.455 226.761 123.681C227.347 123.908 227.8 124.201 228.12 124.561C228.44 124.921 228.6 125.421 228.6 126.061C228.6 127.047 228.227 127.82 227.481 128.38C226.734 128.927 225.748 129.2 224.521 129.2Z" fill="#121212"/>
<g clip-path="url(#clip0_588_674)">
<path d="M246.704 119.47C246.466 119.47 246.234 119.399 246.037 119.268C245.84 119.136 245.686 118.948 245.595 118.729C245.504 118.51 245.481 118.269 245.527 118.036C245.573 117.803 245.688 117.589 245.855 117.422C246.023 117.254 246.237 117.14 246.47 117.093C246.702 117.047 246.944 117.071 247.163 117.162C247.382 117.252 247.569 117.406 247.701 117.604C247.833 117.801 247.903 118.033 247.903 118.27C247.903 118.588 247.777 118.893 247.552 119.118C247.327 119.343 247.022 119.47 246.704 119.47Z" fill="#83C29B"/>
<path d="M246.703 129.666C245.16 129.666 243.653 129.209 242.37 128.352C241.088 127.495 240.088 126.277 239.498 124.852C238.908 123.427 238.753 121.859 239.054 120.346C239.355 118.834 240.098 117.444 241.188 116.353C242.279 115.263 243.669 114.52 245.181 114.219C246.694 113.918 248.262 114.073 249.687 114.663C251.112 115.253 252.33 116.253 253.187 117.535C254.044 118.818 254.501 120.325 254.501 121.868C254.501 123.936 253.679 125.919 252.217 127.382C250.754 128.844 248.771 129.666 246.703 129.666ZM246.703 115.269C245.398 115.269 244.122 115.656 243.037 116.381C241.952 117.106 241.106 118.137 240.606 119.342C240.107 120.548 239.976 121.875 240.231 123.155C240.485 124.435 241.114 125.611 242.037 126.534C242.96 127.456 244.135 128.085 245.415 128.339C246.695 128.594 248.022 128.463 249.228 127.964C250.433 127.464 251.464 126.619 252.189 125.534C252.914 124.448 253.301 123.173 253.301 121.868C253.301 120.118 252.606 118.439 251.368 117.202C250.131 115.964 248.453 115.269 246.703 115.269Z" fill="#83C29B"/>
<path d="M246.704 126.668C246.385 126.668 246.08 126.541 245.855 126.316C245.63 126.091 245.504 125.786 245.504 125.468V121.869C245.504 121.55 245.63 121.245 245.855 121.02C246.08 120.795 246.385 120.669 246.704 120.669C247.022 120.669 247.327 120.795 247.552 121.02C247.777 121.245 247.903 121.55 247.903 121.869V125.468C247.903 125.786 247.777 126.091 247.552 126.316C247.327 126.541 247.022 126.668 246.704 126.668Z" fill="#83C29B"/>
</g>
<path d="M505.608 177.953H506.898L511.819 190H510.19L508.764 186.471H503.708L502.299 190H500.67L505.608 177.953ZM508.425 185.283L506.253 179.717L504.013 185.283H508.425ZM512.922 186.454V181.143H514.415V186.165C514.415 187.07 514.573 187.749 514.89 188.201C515.207 188.654 515.676 188.88 516.298 188.88C516.706 188.88 517.096 188.795 517.469 188.626C517.854 188.445 518.199 188.19 518.504 187.862C518.81 187.534 519.047 187.144 519.217 186.691V181.143H520.71V188.303C520.71 188.484 520.744 188.62 520.812 188.71C520.891 188.79 521.016 188.835 521.185 188.846V190C521.016 190.023 520.88 190.034 520.778 190.034C520.688 190.045 520.597 190.051 520.507 190.051C520.224 190.051 519.981 189.966 519.777 189.796C519.573 189.615 519.466 189.395 519.455 189.135L519.421 188.1C519.036 188.756 518.516 189.265 517.86 189.627C517.215 189.989 516.508 190.17 515.739 190.17C514.811 190.17 514.11 189.859 513.634 189.236C513.159 188.603 512.922 187.675 512.922 186.454ZM527.779 189.559C527.655 189.615 527.485 189.689 527.27 189.779C527.055 189.87 526.806 189.949 526.523 190.017C526.241 190.085 525.941 190.119 525.624 190.119C525.262 190.119 524.928 190.057 524.623 189.932C524.317 189.796 524.074 189.593 523.893 189.321C523.712 189.038 523.622 188.688 523.622 188.269V182.313H522.417V181.143H523.622V178.19H525.115V181.143H527.1V182.313H525.115V187.811C525.138 188.128 525.245 188.365 525.437 188.524C525.63 188.671 525.856 188.744 526.116 188.744C526.41 188.744 526.682 188.693 526.931 188.592C527.179 188.49 527.343 188.416 527.423 188.371L527.779 189.559ZM532.916 190.17C532.248 190.17 531.643 190.051 531.1 189.813C530.557 189.564 530.088 189.231 529.692 188.812C529.296 188.382 528.99 187.89 528.775 187.336C528.561 186.782 528.453 186.199 528.453 185.588C528.453 184.966 528.561 184.378 528.775 183.824C528.99 183.269 529.296 182.783 529.692 182.364C530.088 181.934 530.557 181.601 531.1 181.363C531.654 181.114 532.26 180.99 532.916 180.99C533.583 180.99 534.188 181.114 534.731 181.363C535.274 181.601 535.744 181.934 536.14 182.364C536.547 182.783 536.858 183.269 537.073 183.824C537.288 184.378 537.395 184.966 537.395 185.588C537.395 186.199 537.288 186.782 537.073 187.336C536.858 187.89 536.553 188.382 536.157 188.812C535.761 189.231 535.286 189.564 534.731 189.813C534.188 190.051 533.583 190.17 532.916 190.17ZM529.98 185.605C529.98 186.216 530.11 186.77 530.37 187.268C530.642 187.766 530.998 188.162 531.44 188.456C531.881 188.739 532.373 188.88 532.916 188.88C533.459 188.88 533.951 188.733 534.392 188.439C534.844 188.145 535.201 187.749 535.461 187.251C535.732 186.742 535.868 186.182 535.868 185.571C535.868 184.96 535.732 184.406 535.461 183.908C535.201 183.411 534.844 183.015 534.392 182.721C533.951 182.426 533.459 182.279 532.916 182.279C532.373 182.279 531.881 182.432 531.44 182.738C530.998 183.032 530.642 183.428 530.37 183.925C530.11 184.423 529.98 184.983 529.98 185.605Z" fill="#121212"/>
<path d="M84.9769 194V183.162L80.298 191.501H79.1982L74.4992 183.162V194H72.6996V179.803H74.5992L79.7381 189.021L84.897 179.803H86.7766V194H84.9769ZM88.9789 190.981C88.9789 190.314 89.1655 189.741 89.5388 189.261C89.9253 188.768 90.4519 188.388 91.1184 188.121C91.7849 187.855 92.5581 187.721 93.4379 187.721C93.9045 187.721 94.3977 187.761 94.9176 187.841C95.4375 187.908 95.8974 188.015 96.2973 188.161V187.401C96.2973 186.602 96.0573 185.975 95.5774 185.522C95.0975 185.055 94.4177 184.822 93.5379 184.822C92.9647 184.822 92.4115 184.929 91.8783 185.142C91.3584 185.342 90.8052 185.635 90.2186 186.022L89.5788 184.782C90.2586 184.315 90.9385 183.969 91.6183 183.742C92.2982 183.502 93.0047 183.382 93.7378 183.382C95.0709 183.382 96.124 183.756 96.8972 184.502C97.6703 185.235 98.0569 186.262 98.0569 187.581V192C98.0569 192.214 98.0969 192.374 98.1769 192.48C98.2702 192.574 98.4168 192.627 98.6168 192.64V194C98.4435 194.027 98.2902 194.047 98.1569 194.06C98.0369 194.073 97.9369 194.08 97.8569 194.08C97.4437 194.08 97.1304 193.967 96.9172 193.74C96.7172 193.513 96.6039 193.273 96.5772 193.02L96.5372 192.36C96.084 192.947 95.4908 193.4 94.7576 193.72C94.0245 194.04 93.2979 194.2 92.5781 194.2C91.8849 194.2 91.2651 194.06 90.7185 193.78C90.172 193.487 89.7454 193.1 89.4388 192.62C89.1322 192.127 88.9789 191.581 88.9789 190.981ZM95.7774 191.72C95.9374 191.534 96.064 191.347 96.1573 191.161C96.2506 190.961 96.2973 190.794 96.2973 190.661V189.361C95.884 189.201 95.4508 189.081 94.9976 189.001C94.5443 188.908 94.0978 188.861 93.6579 188.861C92.7647 188.861 92.0382 189.041 91.4783 189.401C90.9318 189.748 90.6585 190.227 90.6585 190.841C90.6585 191.174 90.7452 191.501 90.9185 191.82C91.1051 192.127 91.3717 192.38 91.7183 192.58C92.0782 192.78 92.5181 192.88 93.038 192.88C93.5845 192.88 94.1044 192.774 94.5977 192.56C95.0909 192.334 95.4841 192.054 95.7774 191.72ZM101.65 183.562L104.41 187.401L104.57 187.721L104.75 187.401L107.489 183.562H109.449L105.589 188.801L109.469 194H107.509L104.75 190.181L104.57 189.881L104.41 190.181L101.65 194H99.6908L103.57 188.801L99.7108 183.562H101.65ZM110.982 194V191.76H112.462V194H110.982ZM123.801 194.2C122.934 194.2 122.121 194.06 121.362 193.78C120.602 193.487 119.948 193.054 119.402 192.48L120.082 191.241C120.682 191.8 121.282 192.2 121.881 192.44C122.481 192.68 123.094 192.8 123.721 192.8C124.441 192.8 125.027 192.667 125.481 192.4C125.934 192.12 126.16 191.714 126.16 191.181C126.16 190.794 126.04 190.507 125.801 190.321C125.574 190.134 125.247 189.981 124.821 189.861C124.394 189.728 123.888 189.581 123.301 189.421C122.581 189.208 121.975 188.981 121.481 188.741C120.988 188.501 120.615 188.201 120.362 187.841C120.108 187.481 119.982 187.028 119.982 186.482C119.982 185.815 120.155 185.255 120.502 184.802C120.848 184.335 121.322 183.982 121.921 183.742C122.535 183.502 123.228 183.382 124.001 183.382C124.774 183.382 125.474 183.502 126.1 183.742C126.727 183.982 127.267 184.335 127.72 184.802L126.92 186.022C126.507 185.595 126.054 185.282 125.561 185.082C125.067 184.869 124.514 184.762 123.901 184.762C123.541 184.762 123.188 184.809 122.841 184.902C122.495 184.982 122.208 185.135 121.981 185.362C121.755 185.575 121.641 185.882 121.641 186.282C121.641 186.615 121.728 186.882 121.901 187.082C122.088 187.268 122.355 187.428 122.701 187.561C123.061 187.695 123.494 187.841 124.001 188.001C124.787 188.228 125.467 188.455 126.04 188.681C126.627 188.908 127.08 189.201 127.4 189.561C127.72 189.921 127.88 190.421 127.88 191.061C127.88 192.047 127.507 192.82 126.76 193.38C126.014 193.927 125.027 194.2 123.801 194.2ZM130.025 179.403H131.785V191.301C131.785 191.874 131.865 192.227 132.025 192.36C132.185 192.494 132.378 192.56 132.605 192.56C132.885 192.56 133.151 192.534 133.404 192.48C133.658 192.414 133.871 192.347 134.044 192.28L134.324 193.72C134.031 193.84 133.684 193.94 133.285 194.02C132.885 194.1 132.531 194.14 132.225 194.14C131.545 194.14 131.005 193.947 130.605 193.56C130.219 193.174 130.025 192.634 130.025 191.94V179.403ZM135.707 194V183.562H137.466V194H135.707ZM135.707 181.603V179.403H137.466V181.603H135.707ZM145.934 194.2C145.081 194.2 144.321 193.987 143.654 193.56C142.988 193.134 142.461 192.594 142.075 191.94V198.259H140.315V183.562H141.875V185.522C142.288 184.882 142.828 184.369 143.494 183.982C144.161 183.582 144.887 183.382 145.674 183.382C146.394 183.382 147.054 183.529 147.653 183.822C148.253 184.115 148.773 184.515 149.213 185.022C149.653 185.529 149.993 186.108 150.233 186.762C150.486 187.401 150.613 188.075 150.613 188.781C150.613 189.768 150.413 190.674 150.013 191.501C149.626 192.327 149.08 192.987 148.373 193.48C147.667 193.96 146.854 194.2 145.934 194.2ZM145.394 192.68C145.914 192.68 146.38 192.574 146.794 192.36C147.22 192.134 147.58 191.84 147.873 191.481C148.18 191.107 148.413 190.687 148.573 190.221C148.733 189.754 148.813 189.274 148.813 188.781C148.813 188.261 148.72 187.768 148.533 187.301C148.36 186.835 148.107 186.422 147.773 186.062C147.453 185.702 147.074 185.422 146.634 185.222C146.207 185.009 145.74 184.902 145.234 184.902C144.914 184.902 144.581 184.962 144.234 185.082C143.901 185.202 143.581 185.375 143.274 185.602C142.968 185.815 142.708 186.062 142.495 186.342C142.281 186.622 142.141 186.922 142.075 187.241V190.221C142.275 190.674 142.541 191.087 142.874 191.461C143.208 191.834 143.594 192.134 144.034 192.36C144.474 192.574 144.927 192.68 145.394 192.68ZM158.392 194.2C157.539 194.2 156.779 193.987 156.112 193.56C155.446 193.134 154.919 192.594 154.533 191.94V198.259H152.773V183.562H154.333V185.522C154.746 184.882 155.286 184.369 155.953 183.982C156.619 183.582 157.346 183.382 158.132 183.382C158.852 183.382 159.512 183.529 160.112 183.822C160.711 184.115 161.231 184.515 161.671 185.022C162.111 185.529 162.451 186.108 162.691 186.762C162.944 187.401 163.071 188.075 163.071 188.781C163.071 189.768 162.871 190.674 162.471 191.501C162.085 192.327 161.538 192.987 160.831 193.48C160.125 193.96 159.312 194.2 158.392 194.2ZM157.852 192.68C158.372 192.68 158.839 192.574 159.252 192.36C159.678 192.134 160.038 191.84 160.332 191.481C160.638 191.107 160.871 190.687 161.031 190.221C161.191 189.754 161.271 189.274 161.271 188.781C161.271 188.261 161.178 187.768 160.991 187.301C160.818 186.835 160.565 186.422 160.232 186.062C159.912 185.702 159.532 185.422 159.092 185.222C158.665 185.009 158.199 184.902 157.692 184.902C157.372 184.902 157.039 184.962 156.692 185.082C156.359 185.202 156.039 185.375 155.733 185.602C155.426 185.815 155.166 186.062 154.953 186.342C154.739 186.622 154.599 186.922 154.533 187.241V190.221C154.733 190.674 154.999 191.087 155.333 191.461C155.666 191.834 156.053 192.134 156.492 192.36C156.932 192.574 157.386 192.68 157.852 192.68ZM164.412 190.981C164.412 190.314 164.598 189.741 164.972 189.261C165.358 188.768 165.885 188.388 166.551 188.121C167.218 187.855 167.991 187.721 168.871 187.721C169.337 187.721 169.83 187.761 170.35 187.841C170.87 187.908 171.33 188.015 171.73 188.161V187.401C171.73 186.602 171.49 185.975 171.01 185.522C170.53 185.055 169.85 184.822 168.971 184.822C168.397 184.822 167.844 184.929 167.311 185.142C166.791 185.342 166.238 185.635 165.651 186.022L165.011 184.782C165.691 184.315 166.371 183.969 167.051 183.742C167.731 183.502 168.437 183.382 169.171 183.382C170.504 183.382 171.557 183.756 172.33 184.502C173.103 185.235 173.49 186.262 173.49 187.581V192C173.49 192.214 173.53 192.374 173.61 192.48C173.703 192.574 173.85 192.627 174.05 192.64V194C173.876 194.027 173.723 194.047 173.59 194.06C173.47 194.073 173.37 194.08 173.29 194.08C172.876 194.08 172.563 193.967 172.35 193.74C172.15 193.513 172.037 193.273 172.01 193.02L171.97 192.36C171.517 192.947 170.924 193.4 170.19 193.72C169.457 194.04 168.731 194.2 168.011 194.2C167.318 194.2 166.698 194.06 166.151 193.78C165.605 193.487 165.178 193.1 164.872 192.62C164.565 192.127 164.412 191.581 164.412 190.981ZM171.21 191.72C171.37 191.534 171.497 191.347 171.59 191.161C171.683 190.961 171.73 190.794 171.73 190.661V189.361C171.317 189.201 170.884 189.081 170.43 189.001C169.977 188.908 169.531 188.861 169.091 188.861C168.197 188.861 167.471 189.041 166.911 189.401C166.365 189.748 166.091 190.227 166.091 190.841C166.091 191.174 166.178 191.501 166.351 191.82C166.538 192.127 166.804 192.38 167.151 192.58C167.511 192.78 167.951 192.88 168.471 192.88C169.017 192.88 169.537 192.774 170.03 192.56C170.524 192.334 170.917 192.054 171.21 191.72ZM180.462 194.12C179.756 194.12 179.103 193.98 178.503 193.7C177.916 193.407 177.41 193.014 176.983 192.52C176.557 192.014 176.223 191.441 175.983 190.801C175.757 190.161 175.643 189.494 175.643 188.801C175.643 188.068 175.757 187.375 175.983 186.722C176.223 186.068 176.557 185.495 176.983 185.002C177.423 184.495 177.936 184.102 178.523 183.822C179.109 183.529 179.762 183.382 180.482 183.382C181.349 183.382 182.102 183.596 182.742 184.022C183.395 184.449 183.942 184.989 184.381 185.642V183.562H185.941V193.88C185.941 194.866 185.701 195.7 185.221 196.379C184.755 197.059 184.115 197.573 183.302 197.919C182.502 198.279 181.609 198.459 180.622 198.459C179.449 198.459 178.489 198.252 177.743 197.839C176.996 197.426 176.377 196.866 175.883 196.16L176.903 195.26C177.316 195.873 177.85 196.333 178.503 196.639C179.169 196.946 179.876 197.099 180.622 197.099C181.262 197.099 181.849 196.979 182.382 196.739C182.928 196.513 183.362 196.16 183.682 195.68C184.015 195.2 184.182 194.6 184.182 193.88V192.04C183.795 192.68 183.262 193.187 182.582 193.56C181.915 193.933 181.209 194.12 180.462 194.12ZM181.002 192.68C181.375 192.68 181.735 192.614 182.082 192.48C182.429 192.347 182.749 192.174 183.042 191.96C183.335 191.734 183.582 191.481 183.782 191.201C183.982 190.921 184.115 190.634 184.182 190.341V187.341C183.995 186.862 183.728 186.442 183.382 186.082C183.035 185.708 182.642 185.422 182.202 185.222C181.762 185.009 181.309 184.902 180.842 184.902C180.309 184.902 179.829 185.015 179.403 185.242C178.989 185.469 178.636 185.775 178.343 186.162C178.05 186.535 177.823 186.955 177.663 187.421C177.503 187.888 177.423 188.361 177.423 188.841C177.423 189.361 177.516 189.854 177.703 190.321C177.89 190.774 178.143 191.181 178.463 191.541C178.783 191.9 179.163 192.18 179.603 192.38C180.042 192.58 180.509 192.68 181.002 192.68ZM193.4 194.2C192.613 194.2 191.894 194.06 191.24 193.78C190.601 193.487 190.041 193.094 189.561 192.6C189.094 192.094 188.728 191.514 188.461 190.861C188.208 190.207 188.081 189.514 188.081 188.781C188.081 187.795 188.308 186.895 188.761 186.082C189.214 185.269 189.841 184.615 190.641 184.122C191.454 183.629 192.38 183.382 193.42 183.382C194.473 183.382 195.386 183.636 196.159 184.142C196.946 184.635 197.552 185.289 197.979 186.102C198.419 186.902 198.639 187.768 198.639 188.701C198.639 188.834 198.632 188.968 198.619 189.101C198.619 189.221 198.612 189.314 198.599 189.381H189.941C189.994 190.061 190.181 190.667 190.501 191.201C190.834 191.72 191.26 192.134 191.78 192.44C192.3 192.734 192.86 192.88 193.46 192.88C194.1 192.88 194.7 192.72 195.26 192.4C195.833 192.08 196.226 191.661 196.439 191.141L197.959 191.561C197.732 192.067 197.392 192.52 196.939 192.92C196.499 193.32 195.973 193.633 195.36 193.86C194.76 194.087 194.106 194.2 193.4 194.2ZM189.881 188.161H196.999C196.946 187.481 196.753 186.882 196.419 186.362C196.086 185.842 195.659 185.435 195.14 185.142C194.62 184.849 194.047 184.702 193.42 184.702C192.807 184.702 192.24 184.849 191.72 185.142C191.2 185.435 190.774 185.842 190.441 186.362C190.121 186.882 189.934 187.481 189.881 188.161Z" fill="#121212"/>
<g clip-path="url(#clip1_588_674)">
<path d="M217.463 184.471C217.226 184.471 216.994 184.4 216.797 184.269C216.6 184.137 216.446 183.949 216.355 183.73C216.264 183.511 216.24 183.27 216.287 183.037C216.333 182.804 216.447 182.59 216.615 182.423C216.783 182.255 216.997 182.141 217.229 182.094C217.462 182.048 217.703 182.072 217.923 182.163C218.142 182.253 218.329 182.407 218.461 182.604C218.593 182.802 218.663 183.034 218.663 183.271C218.663 183.589 218.537 183.894 218.312 184.119C218.087 184.344 217.782 184.471 217.463 184.471Z" fill="#83C29B"/>
<path d="M217.462 194.667C215.92 194.667 214.412 194.21 213.13 193.353C211.847 192.496 210.848 191.278 210.258 189.853C209.667 188.428 209.513 186.86 209.814 185.347C210.115 183.835 210.858 182.445 211.948 181.354C213.039 180.264 214.428 179.521 215.941 179.22C217.454 178.919 219.022 179.074 220.447 179.664C221.872 180.254 223.09 181.254 223.946 182.536C224.803 183.819 225.261 185.326 225.261 186.869C225.261 188.937 224.439 190.92 222.977 192.383C221.514 193.845 219.531 194.667 217.462 194.667ZM217.462 180.27C216.157 180.27 214.882 180.657 213.796 181.382C212.711 182.107 211.866 183.138 211.366 184.343C210.867 185.549 210.736 186.876 210.991 188.156C211.245 189.436 211.874 190.612 212.796 191.534C213.719 192.457 214.895 193.086 216.175 193.34C217.455 193.595 218.782 193.464 219.988 192.965C221.193 192.465 222.224 191.62 222.949 190.535C223.674 189.449 224.061 188.174 224.061 186.869C224.061 185.119 223.366 183.44 222.128 182.203C220.891 180.965 219.212 180.27 217.462 180.27Z" fill="#83C29B"/>
<path d="M217.463 191.669C217.145 191.669 216.84 191.542 216.615 191.317C216.39 191.092 216.264 190.787 216.264 190.469V186.87C216.264 186.551 216.39 186.246 216.615 186.021C216.84 185.796 217.145 185.67 217.463 185.67C217.782 185.67 218.087 185.796 218.312 186.021C218.537 186.246 218.663 186.551 218.663 186.87V190.469C218.663 190.787 218.537 191.092 218.312 191.317C218.087 191.542 217.782 191.669 217.463 191.669Z" fill="#83C29B"/>
</g>
<path d="M505.107 243.953H506.397L511.318 256H509.689L508.264 252.471H503.207L501.799 256H500.17L505.107 243.953ZM507.924 251.283L505.752 245.717L503.512 251.283H507.924ZM512.421 252.454V247.143H513.914V252.165C513.914 253.07 514.073 253.749 514.389 254.201C514.706 254.654 515.176 254.88 515.798 254.88C516.205 254.88 516.595 254.795 516.969 254.626C517.353 254.445 517.698 254.19 518.004 253.862C518.309 253.534 518.547 253.144 518.716 252.691V247.143H520.21V254.303C520.21 254.484 520.243 254.62 520.311 254.71C520.391 254.79 520.515 254.835 520.685 254.846V256C520.515 256.023 520.379 256.034 520.277 256.034C520.187 256.045 520.096 256.051 520.006 256.051C519.723 256.051 519.48 255.966 519.276 255.796C519.073 255.615 518.965 255.395 518.954 255.135L518.92 254.1C518.535 254.756 518.015 255.265 517.359 255.627C516.714 255.989 516.007 256.17 515.238 256.17C514.31 256.17 513.609 255.859 513.134 255.236C512.659 254.603 512.421 253.675 512.421 252.454ZM527.278 255.559C527.154 255.615 526.984 255.689 526.769 255.779C526.554 255.87 526.305 255.949 526.023 256.017C525.74 256.085 525.44 256.119 525.123 256.119C524.761 256.119 524.428 256.057 524.122 255.932C523.817 255.796 523.574 255.593 523.393 255.321C523.212 255.038 523.121 254.688 523.121 254.269V248.313H521.916V247.143H523.121V244.19H524.614V247.143H526.6V248.313H524.614V253.811C524.637 254.128 524.744 254.365 524.937 254.524C525.129 254.671 525.355 254.744 525.615 254.744C525.909 254.744 526.181 254.693 526.43 254.592C526.679 254.49 526.843 254.416 526.922 254.371L527.278 255.559ZM532.415 256.17C531.748 256.17 531.142 256.051 530.599 255.813C530.056 255.564 529.587 255.231 529.191 254.812C528.795 254.382 528.49 253.89 528.275 253.336C528.06 252.782 527.952 252.199 527.952 251.588C527.952 250.966 528.06 250.378 528.275 249.824C528.49 249.269 528.795 248.783 529.191 248.364C529.587 247.934 530.056 247.601 530.599 247.363C531.154 247.114 531.759 246.99 532.415 246.99C533.082 246.99 533.688 247.114 534.231 247.363C534.774 247.601 535.243 247.934 535.639 248.364C536.046 248.783 536.357 249.269 536.572 249.824C536.787 250.378 536.895 250.966 536.895 251.588C536.895 252.199 536.787 252.782 536.572 253.336C536.357 253.89 536.052 254.382 535.656 254.812C535.26 255.231 534.785 255.564 534.231 255.813C533.688 256.051 533.082 256.17 532.415 256.17ZM529.48 251.605C529.48 252.216 529.61 252.77 529.87 253.268C530.141 253.766 530.498 254.162 530.939 254.456C531.38 254.739 531.872 254.88 532.415 254.88C532.958 254.88 533.45 254.733 533.891 254.439C534.344 254.145 534.7 253.749 534.96 253.251C535.232 252.742 535.368 252.182 535.368 251.571C535.368 250.96 535.232 250.406 534.96 249.908C534.7 249.411 534.344 249.015 533.891 248.721C533.45 248.426 532.958 248.279 532.415 248.279C531.872 248.279 531.38 248.432 530.939 248.738C530.498 249.032 530.141 249.428 529.87 249.925C529.61 250.423 529.48 250.983 529.48 251.605Z" fill="#121212"/>
<path d="M81.0378 247.782C80.8778 247.596 80.6646 247.416 80.3979 247.243C80.1313 247.069 79.8314 246.916 79.4981 246.783C79.1649 246.636 78.7983 246.523 78.3984 246.443C78.0118 246.349 77.6052 246.303 77.1787 246.303C76.0856 246.303 75.2791 246.509 74.7592 246.923C74.2393 247.336 73.9793 247.902 73.9793 248.622C73.9793 249.129 74.1127 249.529 74.3793 249.822C74.6459 250.115 75.0524 250.355 75.599 250.542C76.1589 250.728 76.8654 250.922 77.7185 251.122C78.705 251.335 79.5581 251.595 80.278 251.902C80.9978 252.208 81.551 252.621 81.9376 253.141C82.3242 253.648 82.5175 254.328 82.5175 255.181C82.5175 255.861 82.3842 256.454 82.1176 256.96C81.8643 257.454 81.5044 257.867 81.0378 258.2C80.5712 258.52 80.0247 258.76 79.3982 258.92C78.7716 259.067 78.0918 259.14 77.3586 259.14C76.6388 259.14 75.9323 259.067 75.2391 258.92C74.5592 258.76 73.9127 258.533 73.2995 258.24C72.6863 257.947 72.1131 257.58 71.5799 257.14L72.4397 255.621C72.653 255.847 72.9262 256.074 73.2595 256.301C73.6061 256.514 73.9927 256.714 74.4193 256.9C74.8592 257.087 75.3324 257.24 75.8389 257.36C76.3455 257.467 76.8654 257.52 77.3986 257.52C78.4117 257.52 79.1982 257.34 79.7581 256.98C80.318 256.607 80.5979 256.067 80.5979 255.361C80.5979 254.828 80.4379 254.401 80.118 254.081C79.8114 253.761 79.3515 253.495 78.7383 253.281C78.1251 253.068 77.3786 252.855 76.4988 252.641C75.539 252.401 74.7325 252.141 74.0793 251.862C73.4261 251.568 72.9329 251.188 72.5997 250.722C72.2797 250.255 72.1198 249.649 72.1198 248.902C72.1198 247.996 72.3397 247.229 72.7796 246.603C73.2195 245.976 73.826 245.503 74.5992 245.183C75.3724 244.863 76.2455 244.703 77.2186 244.703C77.8585 244.703 78.4517 244.77 78.9983 244.903C79.5581 245.036 80.078 245.223 80.5579 245.463C81.0378 245.703 81.4777 245.99 81.8776 246.323L81.0378 247.782ZM100.341 259H98.5815V253.161C98.5815 252.068 98.4015 251.262 98.0416 250.742C97.695 250.222 97.1751 249.962 96.4819 249.962C95.7754 249.962 95.1356 250.222 94.5624 250.742C93.9891 251.248 93.5826 251.908 93.3426 252.721V259H91.583V253.161C91.583 252.055 91.4097 251.248 91.0631 250.742C90.7165 250.222 90.1966 249.962 89.5035 249.962C88.8103 249.962 88.1704 250.215 87.5839 250.722C87.0107 251.215 86.6041 251.875 86.3641 252.701V259H84.6045V248.562H86.2042V250.802C86.6308 250.029 87.184 249.435 87.8638 249.022C88.5437 248.596 89.3102 248.382 90.1633 248.382C91.0298 248.382 91.723 248.622 92.2429 249.102C92.7627 249.569 93.0827 250.175 93.2027 250.922C93.6692 250.095 94.2358 249.469 94.9023 249.042C95.5688 248.602 96.3286 248.382 97.1818 248.382C97.7817 248.382 98.2815 248.496 98.6815 248.722C99.0947 248.936 99.4213 249.242 99.6612 249.642C99.9012 250.029 100.074 250.489 100.181 251.022C100.288 251.555 100.341 252.135 100.341 252.761V259ZM102.257 255.981C102.257 255.314 102.444 254.741 102.817 254.261C103.204 253.768 103.73 253.388 104.397 253.121C105.063 252.855 105.836 252.721 106.716 252.721C107.183 252.721 107.676 252.761 108.196 252.841C108.716 252.908 109.176 253.015 109.576 253.161V252.401C109.576 251.602 109.336 250.975 108.856 250.522C108.376 250.055 107.696 249.822 106.816 249.822C106.243 249.822 105.69 249.929 105.157 250.142C104.637 250.342 104.084 250.635 103.497 251.022L102.857 249.782C103.537 249.315 104.217 248.969 104.897 248.742C105.577 248.502 106.283 248.382 107.016 248.382C108.349 248.382 109.402 248.756 110.176 249.502C110.949 250.235 111.335 251.262 111.335 252.581V257C111.335 257.214 111.375 257.374 111.455 257.48C111.549 257.574 111.695 257.627 111.895 257.64V259C111.722 259.027 111.569 259.047 111.435 259.06C111.315 259.073 111.215 259.08 111.135 259.08C110.722 259.08 110.409 258.967 110.195 258.74C109.996 258.513 109.882 258.273 109.856 258.02L109.816 257.36C109.362 257.947 108.769 258.4 108.036 258.72C107.303 259.04 106.576 259.2 105.856 259.2C105.163 259.2 104.543 259.06 103.997 258.78C103.45 258.487 103.024 258.1 102.717 257.62C102.411 257.127 102.257 256.581 102.257 255.981ZM109.056 256.72C109.216 256.534 109.342 256.347 109.436 256.161C109.529 255.961 109.576 255.794 109.576 255.661V254.361C109.162 254.201 108.729 254.081 108.276 254.001C107.823 253.908 107.376 253.861 106.936 253.861C106.043 253.861 105.317 254.041 104.757 254.401C104.21 254.748 103.937 255.227 103.937 255.841C103.937 256.174 104.024 256.501 104.197 256.82C104.383 257.127 104.65 257.38 104.997 257.58C105.357 257.78 105.796 257.88 106.316 257.88C106.863 257.88 107.383 257.774 107.876 257.56C108.369 257.334 108.762 257.054 109.056 256.72ZM119.668 250.102C118.788 250.115 118.008 250.342 117.328 250.782C116.662 251.208 116.188 251.802 115.908 252.561V259H114.149V248.562H115.788V250.982C116.148 250.262 116.622 249.682 117.208 249.242C117.808 248.789 118.435 248.536 119.088 248.482C119.221 248.482 119.334 248.482 119.428 248.482C119.521 248.482 119.601 248.489 119.668 248.502V250.102ZM126.812 258.48C126.665 258.547 126.465 258.633 126.212 258.74C125.959 258.847 125.665 258.94 125.332 259.02C124.999 259.1 124.646 259.14 124.272 259.14C123.846 259.14 123.452 259.067 123.093 258.92C122.733 258.76 122.446 258.52 122.233 258.2C122.019 257.867 121.913 257.454 121.913 256.96V249.942H120.493V248.562H121.913V245.083H123.672V248.562H126.012V249.942H123.672V256.421C123.699 256.794 123.826 257.074 124.052 257.26C124.279 257.434 124.546 257.52 124.852 257.52C125.199 257.52 125.519 257.46 125.812 257.34C126.105 257.22 126.298 257.134 126.392 257.08L126.812 258.48ZM139.019 250.102C138.139 250.115 137.359 250.342 136.679 250.782C136.013 251.208 135.54 251.802 135.26 252.561V259H133.5V248.562H135.14V250.982C135.5 250.262 135.973 249.682 136.559 249.242C137.159 248.789 137.786 248.536 138.439 248.482C138.572 248.482 138.686 248.482 138.779 248.482C138.872 248.482 138.952 248.489 139.019 248.502V250.102ZM145.069 259.2C144.283 259.2 143.57 259.06 142.93 258.78C142.29 258.487 141.737 258.094 141.27 257.6C140.804 257.094 140.444 256.514 140.19 255.861C139.937 255.207 139.81 254.521 139.81 253.801C139.81 253.068 139.937 252.375 140.19 251.722C140.444 251.068 140.804 250.495 141.27 250.002C141.737 249.495 142.29 249.102 142.93 248.822C143.583 248.529 144.296 248.382 145.069 248.382C145.856 248.382 146.569 248.529 147.209 248.822C147.849 249.102 148.402 249.495 148.868 250.002C149.348 250.495 149.715 251.068 149.968 251.722C150.221 252.375 150.348 253.068 150.348 253.801C150.348 254.521 150.221 255.207 149.968 255.861C149.715 256.514 149.355 257.094 148.888 257.6C148.422 258.094 147.862 258.487 147.209 258.78C146.569 259.06 145.856 259.2 145.069 259.2ZM141.61 253.821C141.61 254.541 141.763 255.194 142.07 255.781C142.39 256.367 142.81 256.834 143.33 257.18C143.85 257.514 144.429 257.68 145.069 257.68C145.709 257.68 146.289 257.507 146.809 257.16C147.342 256.814 147.762 256.347 148.069 255.761C148.389 255.161 148.549 254.501 148.549 253.781C148.549 253.061 148.389 252.408 148.069 251.822C147.762 251.235 147.342 250.768 146.809 250.422C146.289 250.075 145.709 249.902 145.069 249.902C144.429 249.902 143.85 250.082 143.33 250.442C142.81 250.788 142.39 251.255 142.07 251.842C141.763 252.428 141.61 253.088 141.61 253.821ZM152.38 254.821V248.562H154.14V254.481C154.14 255.547 154.327 256.347 154.7 256.88C155.073 257.414 155.626 257.68 156.359 257.68C156.839 257.68 157.299 257.58 157.739 257.38C158.192 257.167 158.599 256.867 158.959 256.481C159.319 256.094 159.599 255.634 159.799 255.101V248.562H161.558V257C161.558 257.214 161.598 257.374 161.678 257.48C161.772 257.574 161.918 257.627 162.118 257.64V259C161.918 259.027 161.758 259.04 161.638 259.04C161.532 259.053 161.425 259.06 161.318 259.06C160.985 259.06 160.699 258.96 160.459 258.76C160.219 258.547 160.092 258.287 160.079 257.98L160.039 256.76C159.585 257.534 158.972 258.134 158.199 258.56C157.439 258.987 156.606 259.2 155.7 259.2C154.607 259.2 153.78 258.833 153.22 258.1C152.66 257.354 152.38 256.261 152.38 254.821ZM169.888 258.48C169.742 258.547 169.542 258.633 169.288 258.74C169.035 258.847 168.742 258.94 168.409 259.02C168.075 259.1 167.722 259.14 167.349 259.14C166.922 259.14 166.529 259.067 166.169 258.92C165.809 258.76 165.523 258.52 165.309 258.2C165.096 257.867 164.989 257.454 164.989 256.96V249.942H163.57V248.562H164.989V245.083H166.749V248.562H169.088V249.942H166.749V256.421C166.776 256.794 166.902 257.074 167.129 257.26C167.355 257.434 167.622 257.52 167.929 257.52C168.275 257.52 168.595 257.46 168.888 257.34C169.182 257.22 169.375 257.134 169.468 257.08L169.888 258.48ZM171.519 259V248.562H173.279V259H171.519ZM171.519 246.603V244.403H173.279V246.603H171.519ZM185.186 259H183.426V253.161C183.426 252.055 183.253 251.248 182.906 250.742C182.573 250.222 182.06 249.962 181.366 249.962C180.886 249.962 180.407 250.082 179.927 250.322C179.46 250.562 179.04 250.888 178.667 251.302C178.307 251.702 178.047 252.168 177.887 252.701V259H176.128V248.562H177.727V250.802C178.007 250.309 178.367 249.882 178.807 249.522C179.247 249.162 179.747 248.882 180.307 248.682C180.866 248.482 181.453 248.382 182.066 248.382C182.666 248.382 183.166 248.496 183.566 248.722C183.979 248.936 184.299 249.242 184.526 249.642C184.766 250.029 184.932 250.489 185.026 251.022C185.132 251.555 185.186 252.135 185.186 252.761V259ZM192.081 259.12C191.374 259.12 190.721 258.98 190.121 258.7C189.535 258.407 189.028 258.014 188.602 257.52C188.175 257.014 187.842 256.441 187.602 255.801C187.375 255.161 187.262 254.494 187.262 253.801C187.262 253.068 187.375 252.375 187.602 251.722C187.842 251.068 188.175 250.495 188.602 250.002C189.042 249.495 189.555 249.102 190.141 248.822C190.728 248.529 191.381 248.382 192.101 248.382C192.967 248.382 193.721 248.596 194.36 249.022C195.014 249.449 195.56 249.989 196 250.642V248.562H197.56V258.88C197.56 259.866 197.32 260.7 196.84 261.379C196.373 262.059 195.733 262.573 194.92 262.919C194.12 263.279 193.227 263.459 192.241 263.459C191.068 263.459 190.108 263.252 189.361 262.839C188.615 262.426 187.995 261.866 187.502 261.16L188.522 260.26C188.935 260.873 189.468 261.333 190.121 261.639C190.788 261.946 191.494 262.099 192.241 262.099C192.881 262.099 193.467 261.979 194 261.739C194.547 261.513 194.98 261.16 195.3 260.68C195.633 260.2 195.8 259.6 195.8 258.88V257.04C195.414 257.68 194.88 258.187 194.2 258.56C193.534 258.933 192.827 259.12 192.081 259.12ZM192.621 257.68C192.994 257.68 193.354 257.614 193.701 257.48C194.047 257.347 194.367 257.174 194.66 256.96C194.954 256.734 195.2 256.481 195.4 256.201C195.6 255.921 195.733 255.634 195.8 255.341V252.341C195.613 251.862 195.347 251.442 195 251.082C194.654 250.708 194.26 250.422 193.821 250.222C193.381 250.009 192.927 249.902 192.461 249.902C191.928 249.902 191.448 250.015 191.021 250.242C190.608 250.469 190.255 250.775 189.961 251.162C189.668 251.535 189.441 251.955 189.282 252.421C189.122 252.888 189.042 253.361 189.042 253.841C189.042 254.361 189.135 254.854 189.321 255.321C189.508 255.774 189.761 256.181 190.081 256.541C190.401 256.9 190.781 257.18 191.221 257.38C191.661 257.58 192.128 257.68 192.621 257.68Z" fill="#121212"/>
<g clip-path="url(#clip2_588_674)">
<path d="M216.456 249.473C216.218 249.473 215.986 249.402 215.789 249.271C215.592 249.139 215.438 248.951 215.347 248.732C215.256 248.513 215.233 248.272 215.279 248.039C215.325 247.806 215.439 247.592 215.607 247.425C215.775 247.257 215.989 247.143 216.222 247.096C216.454 247.05 216.695 247.074 216.915 247.165C217.134 247.255 217.321 247.409 217.453 247.606C217.585 247.804 217.655 248.036 217.655 248.273C217.655 248.591 217.529 248.896 217.304 249.121C217.079 249.346 216.774 249.473 216.456 249.473Z" fill="#83C29B"/>
<path d="M216.457 259.669C214.914 259.669 213.406 259.212 212.124 258.355C210.842 257.498 209.842 256.28 209.252 254.855C208.662 253.43 208.507 251.862 208.808 250.349C209.109 248.836 209.852 247.447 210.942 246.356C212.033 245.266 213.422 244.523 214.935 244.222C216.448 243.921 218.016 244.076 219.441 244.666C220.866 245.256 222.084 246.256 222.941 247.538C223.797 248.82 224.255 250.328 224.255 251.871C224.255 253.939 223.433 255.922 221.971 257.385C220.508 258.847 218.525 259.669 216.457 259.669ZM216.457 245.272C215.151 245.272 213.876 245.659 212.791 246.384C211.705 247.109 210.86 248.14 210.36 249.345C209.861 250.551 209.73 251.878 209.985 253.158C210.239 254.438 210.868 255.614 211.791 256.536C212.713 257.459 213.889 258.088 215.169 258.342C216.449 258.597 217.776 258.466 218.982 257.967C220.187 257.467 221.218 256.622 221.943 255.537C222.668 254.451 223.055 253.176 223.055 251.871C223.055 250.121 222.36 248.442 221.122 247.205C219.885 245.967 218.207 245.272 216.457 245.272Z" fill="#83C29B"/>
<path d="M216.456 256.671C216.137 256.671 215.832 256.544 215.607 256.319C215.382 256.094 215.256 255.789 215.256 255.471V251.872C215.256 251.553 215.382 251.248 215.607 251.023C215.832 250.798 216.137 250.672 216.456 250.672C216.774 250.672 217.079 250.798 217.304 251.023C217.529 251.248 217.655 251.553 217.655 251.872V255.471C217.655 255.789 217.529 256.094 217.304 256.319C217.079 256.544 216.774 256.671 216.456 256.671Z" fill="#83C29B"/>
</g>
<path d="M503.443 323V310.95H511.402V312.308H504.97V316.33H510.384V317.603H504.97V323H503.443ZM517.137 315.448C516.39 315.459 515.728 315.651 515.151 316.025C514.586 316.387 514.184 316.89 513.946 317.535V323H512.453V314.141H513.845V316.194C514.15 315.584 514.552 315.091 515.05 314.718C515.559 314.333 516.091 314.118 516.645 314.073C516.758 314.073 516.854 314.073 516.933 314.073C517.013 314.073 517.081 314.079 517.137 314.09V315.448ZM522.323 323.17C521.656 323.17 521.045 323.051 520.49 322.813C519.947 322.564 519.472 322.231 519.065 321.812C518.669 321.382 518.358 320.89 518.131 320.336C517.916 319.781 517.809 319.193 517.809 318.57C517.809 317.733 518.001 316.97 518.386 316.279C518.771 315.589 519.302 315.035 519.981 314.616C520.671 314.198 521.458 313.988 522.34 313.988C523.234 313.988 524.009 314.203 524.665 314.633C525.333 315.052 525.848 315.606 526.21 316.296C526.583 316.975 526.77 317.711 526.77 318.503C526.77 318.616 526.764 318.729 526.753 318.842C526.753 318.944 526.747 319.023 526.736 319.08H519.387C519.433 319.657 519.591 320.171 519.862 320.624C520.145 321.065 520.507 321.416 520.949 321.676C521.39 321.925 521.865 322.05 522.374 322.05C522.917 322.05 523.426 321.914 523.902 321.642C524.388 321.371 524.722 321.014 524.903 320.573L526.193 320.929C526 321.359 525.712 321.744 525.327 322.084C524.954 322.423 524.507 322.689 523.986 322.881C523.477 323.074 522.923 323.17 522.323 323.17ZM519.336 318.044H525.378C525.333 317.467 525.169 316.958 524.886 316.517C524.603 316.076 524.241 315.731 523.8 315.482C523.359 315.233 522.872 315.108 522.34 315.108C521.82 315.108 521.339 315.233 520.898 315.482C520.456 315.731 520.094 316.076 519.812 316.517C519.54 316.958 519.382 317.467 519.336 318.044ZM532.35 323.17C531.683 323.17 531.072 323.051 530.517 322.813C529.974 322.564 529.499 322.231 529.092 321.812C528.696 321.382 528.385 320.89 528.158 320.336C527.943 319.781 527.836 319.193 527.836 318.57C527.836 317.733 528.028 316.97 528.413 316.279C528.798 315.589 529.329 315.035 530.008 314.616C530.698 314.198 531.485 313.988 532.367 313.988C533.261 313.988 534.036 314.203 534.692 314.633C535.36 315.052 535.875 315.606 536.237 316.296C536.61 316.975 536.797 317.711 536.797 318.503C536.797 318.616 536.791 318.729 536.78 318.842C536.78 318.944 536.774 319.023 536.763 319.08H529.414C529.46 319.657 529.618 320.171 529.889 320.624C530.172 321.065 530.534 321.416 530.976 321.676C531.417 321.925 531.892 322.05 532.401 322.05C532.944 322.05 533.453 321.914 533.929 321.642C534.415 321.371 534.749 321.014 534.93 320.573L536.22 320.929C536.027 321.359 535.739 321.744 535.354 322.084C534.981 322.423 534.534 322.689 534.013 322.881C533.504 323.074 532.95 323.17 532.35 323.17ZM529.363 318.044H535.405C535.36 317.467 535.196 316.958 534.913 316.517C534.63 316.076 534.268 315.731 533.827 315.482C533.386 315.233 532.899 315.108 532.367 315.108C531.847 315.108 531.366 315.233 530.925 315.482C530.483 315.731 530.121 316.076 529.839 316.517C529.567 316.958 529.409 317.467 529.363 318.044Z" fill="#121212"/>
<path d="M74.4992 312.122V323H72.6996V308.803H74.2193L82.8974 319.901V308.823H84.697V323H83.0574L74.4992 312.122ZM92.2502 323.2C91.4637 323.2 90.7439 323.06 90.0907 322.78C89.4508 322.487 88.8909 322.094 88.411 321.6C87.9445 321.094 87.5779 320.514 87.3113 319.861C87.058 319.207 86.9314 318.514 86.9314 317.781C86.9314 316.795 87.158 315.895 87.6112 315.082C88.0644 314.269 88.691 313.615 89.4908 313.122C90.304 312.629 91.2304 312.382 92.2702 312.382C93.3233 312.382 94.2364 312.636 95.0096 313.142C95.7961 313.635 96.4026 314.289 96.8292 315.102C97.2691 315.902 97.4891 316.768 97.4891 317.701C97.4891 317.834 97.4824 317.968 97.4691 318.101C97.4691 318.221 97.4624 318.314 97.4491 318.381H88.791C88.8443 319.061 89.0309 319.667 89.3508 320.201C89.6841 320.72 90.1107 321.134 90.6306 321.44C91.1504 321.734 91.7103 321.88 92.3102 321.88C92.95 321.88 93.5499 321.72 94.1098 321.4C94.683 321.08 95.0763 320.661 95.2895 320.141L96.8092 320.561C96.5826 321.067 96.2427 321.52 95.7894 321.92C95.3495 322.32 94.823 322.633 94.2098 322.86C93.6099 323.087 92.9567 323.2 92.2502 323.2ZM88.731 317.161H95.8494C95.7961 316.481 95.6028 315.882 95.2695 315.362C94.9363 314.842 94.5097 314.435 93.9898 314.142C93.4699 313.849 92.8967 313.702 92.2702 313.702C91.657 313.702 91.0905 313.849 90.5706 314.142C90.0507 314.435 89.6241 314.842 89.2908 315.362C88.9709 315.882 88.7843 316.481 88.731 317.161ZM104.746 322.48C104.6 322.547 104.4 322.633 104.146 322.74C103.893 322.847 103.6 322.94 103.267 323.02C102.933 323.1 102.58 323.14 102.207 323.14C101.78 323.14 101.387 323.067 101.027 322.92C100.667 322.76 100.381 322.52 100.167 322.2C99.9539 321.867 99.8473 321.454 99.8473 320.96V313.942H98.4276V312.562H99.8473V309.083H101.607V312.562H103.946V313.942H101.607V320.421C101.634 320.794 101.76 321.074 101.987 321.26C102.213 321.434 102.48 321.52 102.787 321.52C103.133 321.52 103.453 321.46 103.746 321.34C104.04 321.22 104.233 321.134 104.326 321.08L104.746 322.48ZM119.454 312.562H121.154L116.715 323H115.175L113.156 318.081L111.156 323H109.616L105.177 312.562H106.857L110.456 321.26L112.136 316.981L110.376 312.582H111.916L113.156 315.902L114.395 312.582H115.935L114.195 316.981L115.875 321.26L119.454 312.562ZM127.007 323.2C126.22 323.2 125.507 323.06 124.867 322.78C124.227 322.487 123.674 322.094 123.208 321.6C122.741 321.094 122.381 320.514 122.128 319.861C121.875 319.207 121.748 318.521 121.748 317.801C121.748 317.068 121.875 316.375 122.128 315.722C122.381 315.068 122.741 314.495 123.208 314.002C123.674 313.495 124.227 313.102 124.867 312.822C125.52 312.529 126.234 312.382 127.007 312.382C127.793 312.382 128.507 312.529 129.146 312.822C129.786 313.102 130.339 313.495 130.806 314.002C131.286 314.495 131.652 315.068 131.906 315.722C132.159 316.375 132.286 317.068 132.286 317.801C132.286 318.521 132.159 319.207 131.906 319.861C131.652 320.514 131.293 321.094 130.826 321.6C130.359 322.094 129.8 322.487 129.146 322.78C128.507 323.06 127.793 323.2 127.007 323.2ZM123.548 317.821C123.548 318.541 123.701 319.194 124.007 319.781C124.327 320.367 124.747 320.834 125.267 321.18C125.787 321.514 126.367 321.68 127.007 321.68C127.647 321.68 128.227 321.507 128.746 321.16C129.28 320.814 129.7 320.347 130.006 319.761C130.326 319.161 130.486 318.501 130.486 317.781C130.486 317.061 130.326 316.408 130.006 315.822C129.7 315.235 129.28 314.768 128.746 314.422C128.227 314.075 127.647 313.902 127.007 313.902C126.367 313.902 125.787 314.082 125.267 314.442C124.747 314.788 124.327 315.255 124.007 315.842C123.701 316.428 123.548 317.088 123.548 317.821ZM139.937 314.102C139.057 314.115 138.277 314.342 137.597 314.782C136.931 315.208 136.457 315.802 136.177 316.561V323H134.418V312.562H136.058V314.982C136.417 314.262 136.891 313.682 137.477 313.242C138.077 312.789 138.704 312.536 139.357 312.482C139.49 312.482 139.603 312.482 139.697 312.482C139.79 312.482 139.87 312.489 139.937 312.502V314.102ZM149.04 323L145.421 317.921L143.442 319.781V323H141.682V308.403H143.442V317.941L148.84 312.582H150.74L146.581 316.901L150.94 323H149.04ZM162.137 323.2C161.351 323.2 160.631 323.06 159.978 322.78C159.338 322.487 158.778 322.087 158.298 321.58C157.832 321.074 157.465 320.494 157.198 319.841C156.945 319.187 156.818 318.494 156.818 317.761C156.818 316.775 157.038 315.875 157.478 315.062C157.918 314.249 158.538 313.602 159.338 313.122C160.138 312.629 161.064 312.382 162.117 312.382C163.144 312.382 164.037 312.616 164.797 313.082C165.57 313.535 166.143 314.149 166.516 314.922L164.797 315.462C164.53 314.968 164.157 314.589 163.677 314.322C163.197 314.042 162.664 313.902 162.077 313.902C161.437 313.902 160.851 314.069 160.318 314.402C159.798 314.735 159.385 315.195 159.078 315.782C158.771 316.355 158.618 317.015 158.618 317.761C158.618 318.494 158.771 319.161 159.078 319.761C159.398 320.347 159.818 320.814 160.338 321.16C160.871 321.507 161.457 321.68 162.097 321.68C162.511 321.68 162.904 321.607 163.277 321.46C163.664 321.314 163.997 321.12 164.277 320.88C164.57 320.627 164.77 320.354 164.877 320.061L166.596 320.581C166.383 321.087 166.056 321.54 165.617 321.94C165.19 322.327 164.677 322.633 164.077 322.86C163.49 323.087 162.844 323.2 162.137 323.2ZM173.051 323.2C172.265 323.2 171.552 323.06 170.912 322.78C170.272 322.487 169.719 322.094 169.252 321.6C168.786 321.094 168.426 320.514 168.173 319.861C167.919 319.207 167.793 318.521 167.793 317.801C167.793 317.068 167.919 316.375 168.173 315.722C168.426 315.068 168.786 314.495 169.252 314.002C169.719 313.495 170.272 313.102 170.912 312.822C171.565 312.529 172.278 312.382 173.051 312.382C173.838 312.382 174.551 312.529 175.191 312.822C175.831 313.102 176.384 313.495 176.851 314.002C177.331 314.495 177.697 315.068 177.95 315.722C178.204 316.375 178.33 317.068 178.33 317.801C178.33 318.521 178.204 319.207 177.95 319.861C177.697 320.514 177.337 321.094 176.871 321.6C176.404 322.094 175.844 322.487 175.191 322.78C174.551 323.06 173.838 323.2 173.051 323.2ZM169.592 317.821C169.592 318.541 169.746 319.194 170.052 319.781C170.372 320.367 170.792 320.834 171.312 321.18C171.832 321.514 172.412 321.68 173.051 321.68C173.691 321.68 174.271 321.507 174.791 321.16C175.324 320.814 175.744 320.347 176.051 319.761C176.371 319.161 176.531 318.501 176.531 317.781C176.531 317.061 176.371 316.408 176.051 315.822C175.744 315.235 175.324 314.768 174.791 314.422C174.271 314.075 173.691 313.902 173.051 313.902C172.412 313.902 171.832 314.082 171.312 314.442C170.792 314.788 170.372 315.255 170.052 315.842C169.746 316.428 169.592 317.088 169.592 317.821ZM184.042 323.2C183.175 323.2 182.362 323.06 181.602 322.78C180.842 322.487 180.189 322.054 179.643 321.48L180.323 320.241C180.922 320.8 181.522 321.2 182.122 321.44C182.722 321.68 183.335 321.8 183.962 321.8C184.682 321.8 185.268 321.667 185.721 321.4C186.175 321.12 186.401 320.714 186.401 320.181C186.401 319.794 186.281 319.507 186.041 319.321C185.815 319.134 185.488 318.981 185.061 318.861C184.635 318.728 184.128 318.581 183.542 318.421C182.822 318.208 182.215 317.981 181.722 317.741C181.229 317.501 180.856 317.201 180.602 316.841C180.349 316.481 180.223 316.028 180.223 315.482C180.223 314.815 180.396 314.255 180.742 313.802C181.089 313.335 181.562 312.982 182.162 312.742C182.775 312.502 183.469 312.382 184.242 312.382C185.015 312.382 185.715 312.502 186.341 312.742C186.968 312.982 187.508 313.335 187.961 313.802L187.161 315.022C186.748 314.595 186.295 314.282 185.801 314.082C185.308 313.869 184.755 313.762 184.142 313.762C183.782 313.762 183.429 313.809 183.082 313.902C182.735 313.982 182.449 314.135 182.222 314.362C181.995 314.575 181.882 314.882 181.882 315.282C181.882 315.615 181.969 315.882 182.142 316.082C182.329 316.268 182.595 316.428 182.942 316.561C183.302 316.695 183.735 316.841 184.242 317.001C185.028 317.228 185.708 317.455 186.281 317.681C186.868 317.908 187.321 318.201 187.641 318.561C187.961 318.921 188.121 319.421 188.121 320.061C188.121 321.047 187.748 321.82 187.001 322.38C186.255 322.927 185.268 323.2 184.042 323.2ZM195.625 322.48C195.478 322.547 195.278 322.633 195.025 322.74C194.772 322.847 194.478 322.94 194.145 323.02C193.812 323.1 193.459 323.14 193.085 323.14C192.659 323.14 192.266 323.067 191.906 322.92C191.546 322.76 191.259 322.52 191.046 322.2C190.833 321.867 190.726 321.454 190.726 320.96V313.942H189.306V312.562H190.726V309.083H192.485V312.562H194.825V313.942H192.485V320.421C192.512 320.794 192.639 321.074 192.865 321.26C193.092 321.434 193.359 321.52 193.665 321.52C194.012 321.52 194.332 321.46 194.625 321.34C194.918 321.22 195.112 321.134 195.205 321.08L195.625 322.48Z" fill="#121212"/>
<g clip-path="url(#clip3_588_674)">
<path d="M215.448 314.471C215.21 314.471 214.979 314.4 214.781 314.269C214.584 314.137 214.43 313.949 214.339 313.73C214.249 313.511 214.225 313.27 214.271 313.037C214.317 312.804 214.432 312.59 214.599 312.423C214.767 312.255 214.981 312.141 215.214 312.094C215.446 312.048 215.688 312.072 215.907 312.163C216.126 312.253 216.314 312.407 216.445 312.604C216.577 312.802 216.648 313.034 216.648 313.271C216.648 313.589 216.521 313.894 216.296 314.119C216.071 314.344 215.766 314.471 215.448 314.471Z" fill="#83C29B"/>
<path d="M215.447 324.667C213.904 324.667 212.397 324.21 211.114 323.353C209.832 322.496 208.832 321.278 208.242 319.853C207.652 318.428 207.497 316.86 207.798 315.347C208.099 313.835 208.842 312.445 209.933 311.354C211.023 310.264 212.413 309.521 213.925 309.22C215.438 308.919 217.006 309.074 218.431 309.664C219.856 310.254 221.074 311.254 221.931 312.536C222.788 313.819 223.245 315.326 223.245 316.869C223.245 318.937 222.423 320.92 220.961 322.383C219.499 323.845 217.515 324.667 215.447 324.667ZM215.447 310.27C214.142 310.27 212.866 310.657 211.781 311.382C210.696 312.107 209.85 313.138 209.35 314.343C208.851 315.549 208.72 316.876 208.975 318.156C209.23 319.436 209.858 320.612 210.781 321.534C211.704 322.457 212.879 323.086 214.159 323.34C215.439 323.595 216.766 323.464 217.972 322.965C219.178 322.465 220.208 321.62 220.933 320.535C221.658 319.449 222.045 318.174 222.045 316.869C222.045 315.119 221.35 313.44 220.113 312.203C218.875 310.965 217.197 310.27 215.447 310.27Z" fill="#83C29B"/>
<path d="M215.448 321.669C215.13 321.669 214.824 321.542 214.599 321.317C214.374 321.092 214.248 320.787 214.248 320.469V316.87C214.248 316.551 214.374 316.246 214.599 316.021C214.824 315.796 215.13 315.67 215.448 315.67C215.766 315.67 216.071 315.796 216.296 316.021C216.521 316.246 216.648 316.551 216.648 316.87V320.469C216.648 320.787 216.521 321.092 216.296 321.317C216.071 321.542 215.766 321.669 215.448 321.669Z" fill="#83C29B"/>
</g>
<defs>
<clipPath id="clip0_588_674">
<rect width="19.1958" height="19.1958" fill="white" transform="translate(237.363 112)"/>
</clipPath>
<clipPath id="clip1_588_674">
<rect width="19.1958" height="19.1958" fill="white" transform="translate(208.125 177)"/>
</clipPath>
<clipPath id="clip2_588_674">
<rect width="19.1958" height="19.1958" fill="white" transform="translate(207.119 242)"/>
</clipPath>
<clipPath id="clip3_588_674">
<rect width="19.1958" height="19.1958" fill="white" transform="translate(206.107 307)"/>
</clipPath>
</defs>
</svg>
