<svg width="610" height="372" viewBox="0 0 610 372" fill="none" xmlns="http://www.w3.org/2000/svg">
<rect x="0.5" y="0.0170898" width="609" height="371" rx="5.46056" fill="#121212"/>
<path d="M485.837 56.866H487.258L492.679 70.1392H490.885L489.314 66.2507H483.743L482.192 70.1392H480.397L485.837 56.866ZM488.94 64.9421L486.548 58.8102L484.08 64.9421H488.94ZM493.895 66.232V60.3806H495.54V65.9142C495.54 66.9112 495.714 67.659 496.063 68.1575C496.412 68.6561 496.93 68.9053 497.615 68.9053C498.064 68.9053 498.494 68.8118 498.905 68.6249C499.329 68.4255 499.709 68.1451 500.045 67.7836C500.382 67.4222 500.644 66.9922 500.83 66.4937V60.3806H502.476V68.2697C502.476 68.4691 502.513 68.6187 502.588 68.7184C502.675 68.8056 502.812 68.8555 502.999 68.8679V70.1392C502.812 70.1641 502.663 70.1765 502.55 70.1765C502.451 70.189 502.351 70.1952 502.251 70.1952C501.94 70.1952 501.672 70.1018 501.447 69.9148C501.223 69.7154 501.105 69.4724 501.092 69.1857L501.055 68.0454C500.631 68.7682 500.058 69.3291 499.335 69.7279C498.625 70.1267 497.846 70.3261 496.998 70.3261C495.976 70.3261 495.203 69.9834 494.68 69.2979C494.157 68.6 493.895 67.578 493.895 66.232ZM510.264 69.6531C510.126 69.7154 509.939 69.7964 509.703 69.8961C509.466 69.9958 509.192 70.0831 508.88 70.1579C508.569 70.2326 508.238 70.27 507.889 70.27C507.49 70.27 507.123 70.2015 506.786 70.0644C506.45 69.9148 506.182 69.6905 505.982 69.3914C505.783 69.0798 505.683 68.6934 505.683 68.2323V61.6705H504.356V60.3806H505.683V57.1277H507.328V60.3806H509.516V61.6705H507.328V67.7276C507.353 68.0765 507.472 68.3382 507.684 68.5127C507.896 68.6748 508.145 68.7558 508.431 68.7558C508.755 68.7558 509.055 68.6997 509.329 68.5875C509.603 68.4753 509.784 68.3943 509.871 68.3445L510.264 69.6531ZM515.923 70.3261C515.188 70.3261 514.521 70.1952 513.923 69.9335C513.324 69.6593 512.807 69.2917 512.371 68.8305C511.935 68.3569 511.598 67.8148 511.361 67.2041C511.125 66.5934 511.006 65.9516 511.006 65.2786C511.006 64.5931 511.125 63.945 511.361 63.3343C511.598 62.7236 511.935 62.1877 512.371 61.7266C512.807 61.253 513.324 60.8853 513.923 60.6236C514.533 60.3494 515.2 60.2123 515.923 60.2123C516.658 60.2123 517.325 60.3494 517.923 60.6236C518.521 60.8853 519.039 61.253 519.475 61.7266C519.923 62.1877 520.266 62.7236 520.503 63.3343C520.74 63.945 520.858 64.5931 520.858 65.2786C520.858 65.9516 520.74 66.5934 520.503 67.2041C520.266 67.8148 519.93 68.3569 519.494 68.8305C519.057 69.2917 518.534 69.6593 517.923 69.9335C517.325 70.1952 516.658 70.3261 515.923 70.3261ZM512.689 65.2973C512.689 65.9703 512.832 66.581 513.119 67.1293C513.418 67.6777 513.81 68.1139 514.296 68.438C514.782 68.7495 515.325 68.9053 515.923 68.9053C516.521 68.9053 517.063 68.7433 517.549 68.4193C518.048 68.0952 518.44 67.659 518.727 67.1106C519.026 66.5498 519.176 65.9329 519.176 65.2599C519.176 64.5869 519.026 63.9762 518.727 63.4278C518.44 62.8794 518.048 62.4432 517.549 62.1192C517.063 61.7951 516.521 61.6331 515.923 61.6331C515.325 61.6331 514.782 61.8014 514.296 62.1379C513.81 62.4619 513.418 62.8981 513.119 63.4465C512.832 63.9949 512.689 64.6118 512.689 65.2973Z" fill="#BDBDBD"/>
<path d="M427.837 118.528H429.258L434.679 131.801H432.885L431.314 127.912H425.743L424.192 131.801H422.397L427.837 118.528ZM430.94 126.604L428.548 120.472L426.08 126.604H430.94ZM435.895 127.894V122.042H437.54V127.576C437.54 128.573 437.714 129.321 438.063 129.819C438.412 130.318 438.93 130.567 439.615 130.567C440.064 130.567 440.494 130.473 440.905 130.287C441.329 130.087 441.709 129.807 442.045 129.445C442.382 129.084 442.644 128.654 442.83 128.155V122.042H444.476V129.931C444.476 130.131 444.513 130.28 444.588 130.38C444.675 130.467 444.812 130.517 444.999 130.53V131.801C444.812 131.826 444.663 131.838 444.55 131.838C444.451 131.851 444.351 131.857 444.251 131.857C443.94 131.857 443.672 131.763 443.447 131.576C443.223 131.377 443.105 131.134 443.092 130.847L443.055 129.707C442.631 130.43 442.058 130.991 441.335 131.39C440.625 131.788 439.846 131.988 438.998 131.988C437.976 131.988 437.203 131.645 436.68 130.96C436.157 130.262 435.895 129.24 435.895 127.894ZM452.264 131.315C452.126 131.377 451.939 131.458 451.703 131.558C451.466 131.657 451.192 131.745 450.88 131.819C450.569 131.894 450.238 131.932 449.889 131.932C449.49 131.932 449.123 131.863 448.786 131.726C448.45 131.576 448.182 131.352 447.982 131.053C447.783 130.741 447.683 130.355 447.683 129.894V123.332H446.356V122.042H447.683V118.789H449.328V122.042H451.516V123.332H449.328V129.389C449.353 129.738 449.472 130 449.684 130.174C449.896 130.336 450.145 130.417 450.431 130.417C450.755 130.417 451.055 130.361 451.329 130.249C451.603 130.137 451.784 130.056 451.871 130.006L452.264 131.315ZM457.923 131.988C457.188 131.988 456.521 131.857 455.923 131.595C455.324 131.321 454.807 130.953 454.371 130.492C453.935 130.019 453.598 129.476 453.361 128.866C453.125 128.255 453.006 127.613 453.006 126.94C453.006 126.255 453.125 125.607 453.361 124.996C453.598 124.385 453.935 123.849 454.371 123.388C454.807 122.915 455.324 122.547 455.923 122.285C456.533 122.011 457.2 121.874 457.923 121.874C458.658 121.874 459.325 122.011 459.923 122.285C460.521 122.547 461.039 122.915 461.475 123.388C461.923 123.849 462.266 124.385 462.503 124.996C462.74 125.607 462.858 126.255 462.858 126.94C462.858 127.613 462.74 128.255 462.503 128.866C462.266 129.476 461.93 130.019 461.494 130.492C461.057 130.953 460.534 131.321 459.923 131.595C459.325 131.857 458.658 131.988 457.923 131.988ZM454.689 126.959C454.689 127.632 454.832 128.243 455.119 128.791C455.418 129.339 455.81 129.776 456.296 130.1C456.782 130.411 457.325 130.567 457.923 130.567C458.521 130.567 459.063 130.405 459.549 130.081C460.048 129.757 460.44 129.321 460.727 128.772C461.026 128.211 461.176 127.595 461.176 126.921C461.176 126.248 461.026 125.638 460.727 125.089C460.44 124.541 460.048 124.105 459.549 123.781C459.063 123.457 458.521 123.295 457.923 123.295C457.325 123.295 456.782 123.463 456.296 123.8C455.81 124.124 455.418 124.56 455.119 125.108C454.832 125.656 454.689 126.273 454.689 126.959ZM469.449 127.445V125.949H474.964V127.445H469.449ZM486.728 131.987C485.728 131.987 484.876 131.714 484.172 131.17C483.469 130.621 482.931 129.827 482.559 128.787C482.187 127.742 482.002 126.481 482.002 125.003C482.002 123.533 482.187 122.279 482.559 121.239C482.935 120.194 483.475 119.397 484.179 118.849C484.887 118.295 485.737 118.019 486.728 118.019C487.72 118.019 488.567 118.295 489.271 118.849C489.979 119.397 490.519 120.194 490.891 121.239C491.267 122.279 491.455 123.533 491.455 125.003C491.455 126.481 491.269 127.742 490.897 128.787C490.526 129.827 489.988 130.621 489.284 131.17C488.58 131.714 487.729 131.987 486.728 131.987ZM486.728 130.526C487.72 130.526 488.49 130.048 489.039 129.092C489.587 128.136 489.862 126.773 489.862 125.003C489.862 123.825 489.736 122.823 489.483 121.995C489.235 121.168 488.877 120.537 488.408 120.103C487.943 119.67 487.383 119.453 486.728 119.453C485.746 119.453 484.978 119.937 484.425 120.907C483.871 121.871 483.595 123.237 483.595 125.003C483.595 126.18 483.719 127.18 483.967 128.003C484.214 128.827 484.571 129.453 485.035 129.882C485.505 130.311 486.069 130.526 486.728 130.526ZM494.671 131.907C494.344 131.907 494.063 131.79 493.828 131.555C493.594 131.321 493.477 131.04 493.477 130.712C493.477 130.385 493.594 130.103 493.828 129.869C494.063 129.634 494.344 129.517 494.671 129.517C494.999 129.517 495.28 129.634 495.515 129.869C495.749 130.103 495.866 130.385 495.866 130.712C495.866 130.929 495.811 131.128 495.7 131.31C495.594 131.491 495.45 131.637 495.269 131.748C495.092 131.854 494.893 131.907 494.671 131.907ZM502.626 131.987C501.847 131.987 501.146 131.832 500.522 131.522C499.898 131.212 499.398 130.787 499.021 130.247C498.645 129.707 498.439 129.092 498.404 128.402H499.997C500.059 129.017 500.338 129.526 500.834 129.929C501.334 130.327 501.931 130.526 502.626 130.526C503.184 130.526 503.68 130.396 504.113 130.134C504.552 129.873 504.895 129.515 505.142 129.059C505.395 128.599 505.521 128.079 505.521 127.499C505.521 126.906 505.39 126.377 505.129 125.912C504.872 125.443 504.518 125.074 504.067 124.804C503.615 124.534 503.1 124.396 502.52 124.392C502.104 124.388 501.677 124.452 501.239 124.585C500.801 124.713 500.44 124.879 500.157 125.082L498.617 124.897L499.44 118.205H506.503V119.665H500.821L500.343 123.675H500.422C500.701 123.454 501.051 123.27 501.471 123.124C501.892 122.978 502.33 122.905 502.786 122.905C503.618 122.905 504.359 123.104 505.01 123.502C505.665 123.896 506.178 124.436 506.55 125.122C506.926 125.808 507.114 126.592 507.114 127.472C507.114 128.34 506.919 129.114 506.53 129.796C506.145 130.473 505.614 131.009 504.937 131.402C504.259 131.792 503.489 131.987 502.626 131.987ZM511.915 123.8C511.391 123.8 510.911 123.681 510.475 123.444C510.039 123.195 509.69 122.865 509.428 122.453C509.166 122.03 509.036 121.569 509.036 121.07C509.036 120.559 509.166 120.098 509.428 119.687C509.69 119.275 510.039 118.951 510.475 118.715C510.911 118.465 511.391 118.341 511.915 118.341C512.45 118.341 512.937 118.465 513.373 118.715C513.809 118.951 514.152 119.275 514.401 119.687C514.663 120.098 514.794 120.553 514.794 121.051C514.794 121.562 514.663 122.03 514.401 122.453C514.152 122.865 513.809 123.195 513.373 123.444C512.937 123.681 512.45 123.8 511.915 123.8ZM511.915 122.902C512.226 122.902 512.507 122.821 512.756 122.659C513.018 122.485 513.223 122.26 513.373 121.986C513.522 121.699 513.597 121.394 513.597 121.07C513.597 120.734 513.516 120.428 513.354 120.154C513.204 119.867 512.999 119.643 512.737 119.481C512.488 119.319 512.214 119.238 511.915 119.238C511.603 119.238 511.316 119.325 511.055 119.5C510.805 119.662 510.606 119.886 510.456 120.173C510.307 120.447 510.232 120.746 510.232 121.07C510.232 121.407 510.307 121.712 510.456 121.986C510.618 122.26 510.824 122.485 511.073 122.659C511.335 122.821 511.615 122.902 511.915 122.902ZM518.476 131.988C517.94 131.988 517.454 131.869 517.018 131.633C516.594 131.383 516.252 131.053 515.99 130.642C515.728 130.218 515.597 129.757 515.597 129.258C515.597 128.747 515.728 128.286 515.99 127.875C516.252 127.464 516.594 127.14 517.018 126.903C517.454 126.654 517.94 126.529 518.476 126.529C519.012 126.529 519.498 126.654 519.935 126.903C520.371 127.14 520.713 127.464 520.963 127.875C521.224 128.286 521.355 128.741 521.355 129.24C521.355 129.751 521.224 130.218 520.963 130.642C520.713 131.053 520.371 131.383 519.935 131.633C519.498 131.869 519.012 131.988 518.476 131.988ZM518.476 131.09C518.788 131.09 519.068 131.009 519.318 130.847C519.579 130.673 519.785 130.449 519.935 130.174C520.084 129.888 520.159 129.582 520.159 129.258C520.159 128.922 520.078 128.616 519.916 128.342C519.766 128.056 519.561 127.831 519.299 127.669C519.05 127.507 518.775 127.426 518.476 127.426C518.165 127.426 517.878 127.513 517.616 127.688C517.367 127.85 517.168 128.074 517.018 128.361C516.869 128.635 516.794 128.934 516.794 129.258C516.794 129.595 516.869 129.9 517.018 130.174C517.18 130.449 517.386 130.673 517.635 130.847C517.897 131.009 518.177 131.09 518.476 131.09ZM509.671 131.184L514.906 124.884L519.916 118.434L520.72 119.126L515.541 125.389L510.456 131.894L509.671 131.184Z" fill="#BDBDBD"/>
<path d="M485.837 178.19H487.258L492.679 191.463H490.885L489.314 187.574H483.743L482.192 191.463H480.397L485.837 178.19ZM488.94 186.266L486.548 180.134L484.08 186.266H488.94ZM493.895 187.556V181.704H495.54V187.238C495.54 188.235 495.714 188.983 496.063 189.481C496.412 189.98 496.93 190.229 497.615 190.229C498.064 190.229 498.494 190.136 498.905 189.949C499.329 189.749 499.709 189.469 500.045 189.107C500.382 188.746 500.644 188.316 500.83 187.817V181.704H502.476V189.593C502.476 189.793 502.513 189.942 502.588 190.042C502.675 190.129 502.812 190.179 502.999 190.192V191.463C502.812 191.488 502.663 191.5 502.55 191.5C502.451 191.513 502.351 191.519 502.251 191.519C501.94 191.519 501.672 191.426 501.447 191.239C501.223 191.039 501.105 190.796 501.092 190.509L501.055 189.369C500.631 190.092 500.058 190.653 499.335 191.052C498.625 191.45 497.846 191.65 496.998 191.65C495.976 191.65 495.203 191.307 494.68 190.622C494.157 189.924 493.895 188.902 493.895 187.556ZM510.264 190.977C510.126 191.039 509.939 191.12 509.703 191.22C509.466 191.32 509.192 191.407 508.88 191.482C508.569 191.556 508.238 191.594 507.889 191.594C507.49 191.594 507.123 191.525 506.786 191.388C506.45 191.239 506.182 191.014 505.982 190.715C505.783 190.404 505.683 190.017 505.683 189.556V182.994H504.356V181.704H505.683V178.451H507.328V181.704H509.516V182.994H507.328V189.051C507.353 189.4 507.472 189.662 507.684 189.836C507.896 189.998 508.145 190.079 508.431 190.079C508.755 190.079 509.055 190.023 509.329 189.911C509.603 189.799 509.784 189.718 509.871 189.668L510.264 190.977ZM515.923 191.65C515.188 191.65 514.521 191.519 513.923 191.257C513.324 190.983 512.807 190.615 512.371 190.154C511.935 189.681 511.598 189.139 511.361 188.528C511.125 187.917 511.006 187.275 511.006 186.602C511.006 185.917 511.125 185.269 511.361 184.658C511.598 184.047 511.935 183.511 512.371 183.05C512.807 182.577 513.324 182.209 513.923 181.947C514.533 181.673 515.2 181.536 515.923 181.536C516.658 181.536 517.325 181.673 517.923 181.947C518.521 182.209 519.039 182.577 519.475 183.05C519.923 183.511 520.266 184.047 520.503 184.658C520.74 185.269 520.858 185.917 520.858 186.602C520.858 187.275 520.74 187.917 520.503 188.528C520.266 189.139 519.93 189.681 519.494 190.154C519.057 190.615 518.534 190.983 517.923 191.257C517.325 191.519 516.658 191.65 515.923 191.65ZM512.689 186.621C512.689 187.294 512.832 187.905 513.119 188.453C513.418 189.001 513.81 189.438 514.296 189.762C514.782 190.073 515.325 190.229 515.923 190.229C516.521 190.229 517.063 190.067 517.549 189.743C518.048 189.419 518.44 188.983 518.727 188.434C519.026 187.874 519.176 187.257 519.176 186.584C519.176 185.911 519.026 185.3 518.727 184.752C518.44 184.203 518.048 183.767 517.549 183.443C517.063 183.119 516.521 182.957 515.923 182.957C515.325 182.957 514.782 183.125 514.296 183.462C513.81 183.786 513.418 184.222 513.119 184.77C512.832 185.319 512.689 185.936 512.689 186.621Z" fill="#BDBDBD"/>
<path d="M484.799 252.125V238.851H493.567V240.347H486.482V244.778H492.445V246.18H486.482V252.125H484.799ZM499.884 243.805C499.062 243.818 498.333 244.03 497.697 244.441C497.074 244.84 496.631 245.394 496.37 246.105V252.125H494.724V242.366H496.257V244.628C496.594 243.955 497.036 243.413 497.585 243.002C498.146 242.578 498.731 242.341 499.342 242.291C499.467 242.291 499.573 242.291 499.66 242.291C499.747 242.291 499.822 242.297 499.884 242.31V243.805ZM505.597 252.311C504.862 252.311 504.189 252.181 503.578 251.919C502.98 251.645 502.456 251.277 502.008 250.816C501.571 250.342 501.229 249.8 500.979 249.189C500.743 248.579 500.624 247.931 500.624 247.245C500.624 246.323 500.836 245.482 501.26 244.721C501.684 243.961 502.269 243.351 503.017 242.889C503.777 242.428 504.644 242.198 505.616 242.198C506.6 242.198 507.454 242.434 508.177 242.908C508.912 243.369 509.479 243.98 509.878 244.74C510.289 245.488 510.495 246.298 510.495 247.17C510.495 247.295 510.489 247.42 510.476 247.544C510.476 247.657 510.47 247.744 510.458 247.806H502.363C502.413 248.442 502.587 249.009 502.886 249.507C503.198 249.993 503.597 250.38 504.083 250.666C504.569 250.941 505.092 251.078 505.653 251.078C506.251 251.078 506.812 250.928 507.336 250.629C507.871 250.33 508.239 249.937 508.439 249.451L509.859 249.844C509.647 250.317 509.33 250.741 508.906 251.115C508.495 251.489 508.002 251.782 507.429 251.994C506.868 252.206 506.258 252.311 505.597 252.311ZM502.307 246.666H508.962C508.912 246.03 508.731 245.469 508.42 244.983C508.108 244.497 507.709 244.117 507.223 243.843C506.737 243.569 506.201 243.432 505.616 243.432C505.042 243.432 504.513 243.569 504.027 243.843C503.541 244.117 503.142 244.497 502.83 244.983C502.531 245.469 502.357 246.03 502.307 246.666ZM516.642 252.311C515.907 252.311 515.234 252.181 514.623 251.919C514.025 251.645 513.501 251.277 513.053 250.816C512.617 250.342 512.274 249.8 512.025 249.189C511.788 248.579 511.669 247.931 511.669 247.245C511.669 246.323 511.881 245.482 512.305 244.721C512.729 243.961 513.314 243.351 514.062 242.889C514.823 242.428 515.689 242.198 516.661 242.198C517.645 242.198 518.499 242.434 519.222 242.908C519.957 243.369 520.524 243.98 520.923 244.74C521.334 245.488 521.54 246.298 521.54 247.17C521.54 247.295 521.534 247.42 521.521 247.544C521.521 247.657 521.515 247.744 521.503 247.806H513.408C513.458 248.442 513.632 249.009 513.931 249.507C514.243 249.993 514.642 250.38 515.128 250.666C515.614 250.941 516.137 251.078 516.698 251.078C517.296 251.078 517.857 250.928 518.381 250.629C518.917 250.33 519.284 249.937 519.484 249.451L520.904 249.844C520.693 250.317 520.375 250.741 519.951 251.115C519.54 251.489 519.047 251.782 518.474 251.994C517.913 252.206 517.303 252.311 516.642 252.311ZM513.352 246.666H520.007C519.957 246.03 519.777 245.469 519.465 244.983C519.153 244.497 518.755 244.117 518.269 243.843C517.782 243.569 517.247 243.432 516.661 243.432C516.088 243.432 515.558 243.569 515.072 243.843C514.586 244.117 514.187 244.497 513.875 244.983C513.576 245.469 513.402 246.03 513.352 246.666Z" fill="#BDBDBD"/>
<path d="M486.052 313.972C485.052 313.972 484.2 313.7 483.496 313.155C482.793 312.607 482.255 311.812 481.883 310.772C481.511 309.728 481.325 308.466 481.325 306.988C481.325 305.519 481.511 304.264 481.883 303.224C482.259 302.179 482.799 301.383 483.503 300.834C484.211 300.281 485.061 300.004 486.052 300.004C487.044 300.004 487.891 300.281 488.595 300.834C489.303 301.383 489.843 302.179 490.215 303.224C490.591 304.264 490.779 305.519 490.779 306.988C490.779 308.466 490.593 309.728 490.221 310.772C489.849 311.812 489.312 312.607 488.608 313.155C487.904 313.7 487.052 313.972 486.052 313.972ZM486.052 312.512C487.044 312.512 487.814 312.034 488.362 311.078C488.911 310.122 489.186 308.758 489.186 306.988C489.186 305.811 489.059 304.808 488.807 303.981C488.559 303.153 488.201 302.522 487.732 302.089C487.267 301.655 486.707 301.438 486.052 301.438C485.07 301.438 484.302 301.923 483.749 302.892C483.195 303.857 482.919 305.222 482.919 306.988C482.919 308.165 483.043 309.166 483.29 309.989C483.538 310.812 483.895 311.438 484.359 311.868C484.828 312.297 485.393 312.512 486.052 312.512ZM493.995 313.892C493.668 313.892 493.387 313.775 493.152 313.541C492.918 313.306 492.8 313.025 492.8 312.697C492.8 312.37 492.918 312.089 493.152 311.854C493.387 311.62 493.668 311.502 493.995 311.502C494.323 311.502 494.604 311.62 494.838 311.854C495.073 312.089 495.19 312.37 495.19 312.697C495.19 312.914 495.135 313.113 495.024 313.295C494.918 313.476 494.774 313.622 494.593 313.733C494.416 313.839 494.217 313.892 493.995 313.892ZM501.95 313.972C501.171 313.972 500.47 313.817 499.846 313.507C499.222 313.198 498.722 312.773 498.345 312.233C497.969 311.693 497.763 311.078 497.728 310.387H499.321C499.383 311.002 499.662 311.511 500.158 311.914C500.658 312.312 501.255 312.512 501.95 312.512C502.508 312.512 503.004 312.381 503.437 312.12C503.875 311.859 504.218 311.5 504.466 311.044C504.719 310.584 504.845 310.064 504.845 309.484C504.845 308.891 504.714 308.362 504.453 307.898C504.196 307.428 503.842 307.059 503.391 306.789C502.939 306.519 502.424 306.382 501.844 306.377C501.428 306.373 501.001 306.437 500.563 306.57C500.125 306.698 499.764 306.864 499.481 307.068L497.94 306.882L498.764 300.19H505.827V301.651H500.144L499.666 305.66H499.746C500.025 305.439 500.375 305.255 500.795 305.109C501.215 304.963 501.654 304.89 502.109 304.89C502.942 304.89 503.683 305.089 504.333 305.488C504.988 305.882 505.502 306.422 505.874 307.108C506.25 307.794 506.438 308.577 506.438 309.458C506.438 310.325 506.243 311.1 505.854 311.781C505.469 312.458 504.938 312.994 504.26 313.388C503.583 313.777 502.813 313.972 501.95 313.972ZM511.238 305.785C510.715 305.785 510.235 305.666 509.799 305.43C509.363 305.18 509.014 304.85 508.752 304.439C508.49 304.015 508.359 303.554 508.359 303.055C508.359 302.544 508.49 302.083 508.752 301.672C509.014 301.261 509.363 300.937 509.799 300.7C510.235 300.451 510.715 300.326 511.238 300.326C511.774 300.326 512.26 300.451 512.697 300.7C513.133 300.937 513.476 301.261 513.725 301.672C513.987 302.083 514.117 302.538 514.117 303.037C514.117 303.548 513.987 304.015 513.725 304.439C513.476 304.85 513.133 305.18 512.697 305.43C512.26 305.666 511.774 305.785 511.238 305.785ZM511.238 304.888C511.55 304.888 511.83 304.807 512.08 304.644C512.341 304.47 512.547 304.246 512.697 303.971C512.846 303.685 512.921 303.379 512.921 303.055C512.921 302.719 512.84 302.414 512.678 302.139C512.528 301.853 512.323 301.628 512.061 301.466C511.812 301.304 511.538 301.223 511.238 301.223C510.927 301.223 510.64 301.311 510.378 301.485C510.129 301.647 509.93 301.871 509.78 302.158C509.631 302.432 509.556 302.731 509.556 303.055C509.556 303.392 509.631 303.697 509.78 303.971C509.942 304.246 510.148 304.47 510.397 304.644C510.659 304.807 510.939 304.888 511.238 304.888ZM517.8 313.973C517.264 313.973 516.778 313.855 516.342 313.618C515.918 313.369 515.576 313.038 515.314 312.627C515.052 312.203 514.921 311.742 514.921 311.244C514.921 310.733 515.052 310.272 515.314 309.86C515.576 309.449 515.918 309.125 516.342 308.888C516.778 308.639 517.264 308.514 517.8 308.514C518.336 308.514 518.822 308.639 519.258 308.888C519.695 309.125 520.037 309.449 520.287 309.86C520.548 310.272 520.679 310.726 520.679 311.225C520.679 311.736 520.548 312.203 520.287 312.627C520.037 313.038 519.695 313.369 519.258 313.618C518.822 313.855 518.336 313.973 517.8 313.973ZM517.8 313.076C518.112 313.076 518.392 312.995 518.641 312.833C518.903 312.658 519.109 312.434 519.258 312.16C519.408 311.873 519.483 311.568 519.483 311.244C519.483 310.907 519.402 310.602 519.24 310.328C519.09 310.041 518.884 309.817 518.623 309.655C518.374 309.493 518.099 309.412 517.8 309.412C517.489 309.412 517.202 309.499 516.94 309.673C516.691 309.835 516.492 310.06 516.342 310.346C516.192 310.621 516.118 310.92 516.118 311.244C516.118 311.58 516.192 311.886 516.342 312.16C516.504 312.434 516.71 312.658 516.959 312.833C517.221 312.995 517.501 313.076 517.8 313.076ZM508.995 313.169L514.23 306.869L519.24 300.42L520.044 301.111L514.865 307.374L509.78 313.88L508.995 313.169Z" fill="#BDBDBD"/>
<path d="M89.7763 71.7974V55.2059H91.8795V69.9279H101.133V71.7974H89.7763ZM103.096 71.7974V59.5992H105.152V71.7974H103.096ZM103.096 57.3091V54.7386H105.152V57.3091H103.096ZM113.155 72.031C112.345 72.031 111.605 71.8597 110.935 71.5169C110.265 71.1742 109.689 70.7146 109.206 70.1382C108.723 69.5462 108.349 68.8685 108.084 68.1052C107.819 67.3418 107.687 66.5395 107.687 65.6983C107.687 64.8414 107.835 64.0313 108.131 63.268C108.427 62.5046 108.832 61.8347 109.346 61.2583C109.876 60.6819 110.491 60.2301 111.192 59.9029C111.893 59.5602 112.649 59.3888 113.459 59.3888C114.409 59.3888 115.274 59.6303 116.053 60.1133C116.832 60.5806 117.447 61.1804 117.899 61.9126V59.5992H119.722V76.7748H117.665V69.3904C116.544 71.1508 115.04 72.031 113.155 72.031ZM113.856 70.2551C114.433 70.2551 114.955 70.1382 115.422 69.9045C115.905 69.6709 116.333 69.3593 116.707 68.9698C117.081 68.5648 117.4 68.1208 117.665 67.6378V64.1326C117.603 63.7275 117.447 63.3536 117.198 63.0109C116.949 62.6526 116.645 62.3332 116.286 62.0528C115.928 61.7724 115.539 61.5543 115.118 61.3985C114.713 61.2427 114.308 61.1648 113.903 61.1648C113.295 61.1648 112.742 61.2972 112.244 61.5621C111.745 61.8113 111.309 62.1541 110.935 62.5903C110.577 63.0265 110.296 63.5172 110.094 64.0625C109.891 64.6077 109.79 65.1686 109.79 65.745C109.79 66.5551 109.961 67.3029 110.304 67.9883C110.663 68.6738 111.145 69.2269 111.753 69.6475C112.361 70.0525 113.062 70.2551 113.856 70.2551ZM122.924 66.9134V59.5992H124.981V66.5161C124.981 67.7624 125.199 68.6972 125.635 69.3203C126.071 69.9435 126.718 70.2551 127.574 70.2551C128.135 70.2551 128.673 70.1382 129.187 69.9045C129.717 69.6553 130.192 69.3048 130.612 68.853C131.033 68.4012 131.36 67.8637 131.594 67.2406V59.5992H133.65V69.4605C133.65 69.7098 133.697 69.8967 133.79 70.0214C133.899 70.1304 134.071 70.1927 134.304 70.2083V71.7974C134.071 71.8285 133.884 71.8441 133.744 71.8441C133.619 71.8597 133.494 71.8675 133.37 71.8675C132.98 71.8675 132.645 71.7506 132.365 71.5169C132.085 71.2677 131.937 70.9639 131.921 70.6056L131.874 69.1801C131.345 70.0837 130.628 70.7847 129.724 71.2833C128.836 71.7818 127.863 72.031 126.803 72.031C125.526 72.031 124.56 71.6026 123.906 70.7458C123.251 69.8734 122.924 68.5959 122.924 66.9134ZM137.076 71.7974V59.5992H139.132V71.7974H137.076ZM137.076 57.3091V54.7386H139.132V57.3091H137.076ZM141.667 65.7216C141.667 64.5688 141.9 63.5172 142.368 62.5669C142.851 61.601 143.505 60.8299 144.331 60.2535C145.172 59.677 146.13 59.3888 147.205 59.3888C148.186 59.3888 149.067 59.6459 149.846 60.16C150.625 60.6741 151.232 61.2972 151.668 62.0294V54.7386H153.725V69.4605C153.725 69.7098 153.771 69.8967 153.865 70.0214C153.974 70.1304 154.145 70.1927 154.379 70.2083V71.7974C153.99 71.8597 153.686 71.8908 153.468 71.8908C153.063 71.8908 152.704 71.7506 152.393 71.4702C152.097 71.1898 151.949 70.8782 151.949 70.5355V69.5073C151.466 70.2862 150.819 70.9016 150.009 71.3534C149.199 71.8052 148.358 72.031 147.485 72.031C146.644 72.031 145.865 71.8675 145.149 71.5403C144.448 71.1976 143.832 70.7302 143.303 70.1382C142.788 69.5462 142.383 68.8763 142.087 68.1286C141.807 67.3652 141.667 66.5629 141.667 65.7216ZM151.668 67.521V64.0157C151.481 63.4861 151.178 63.0109 150.757 62.5903C150.336 62.1541 149.861 61.8113 149.332 61.5621C148.817 61.2972 148.303 61.1648 147.789 61.1648C147.182 61.1648 146.629 61.2972 146.13 61.5621C145.647 61.8113 145.227 62.1541 144.868 62.5903C144.525 63.0109 144.261 63.4939 144.074 64.0391C143.887 64.5844 143.793 65.153 143.793 65.745C143.793 66.3526 143.895 66.929 144.097 67.4742C144.315 68.0195 144.611 68.5024 144.985 68.9231C145.375 69.3437 145.819 69.6709 146.317 69.9045C146.831 70.1382 147.384 70.2551 147.976 70.2551C148.35 70.2551 148.732 70.185 149.121 70.0447C149.526 69.9045 149.908 69.7098 150.266 69.4605C150.625 69.2113 150.928 68.9231 151.178 68.5959C151.427 68.2532 151.59 67.8949 151.668 67.521ZM157.158 71.7974V59.5992H159.214V71.7974H157.158ZM157.158 57.3091V54.7386H159.214V57.3091H157.158ZM168.853 71.1898C168.681 71.2677 168.448 71.3689 168.152 71.4936C167.856 71.6182 167.513 71.7273 167.124 71.8207C166.734 71.9142 166.321 71.9609 165.885 71.9609C165.386 71.9609 164.927 71.8753 164.506 71.7039C164.086 71.5169 163.751 71.2365 163.501 70.8626C163.252 70.4732 163.128 69.9902 163.128 69.4138V61.2116H161.468V59.5992H163.128V55.5331H165.184V59.5992H167.918V61.2116H165.184V68.7829C165.215 69.2191 165.363 69.5462 165.628 69.7643C165.893 69.9669 166.204 70.0681 166.563 70.0681C166.968 70.0681 167.342 69.998 167.684 69.8578C168.027 69.7176 168.253 69.6163 168.362 69.554L168.853 71.1898ZM171.32 75.1157C171.522 75.1312 171.725 75.1468 171.927 75.1624C172.13 75.1935 172.285 75.2091 172.395 75.2091C172.644 75.2091 172.862 75.1234 173.049 74.9521C173.236 74.7807 173.438 74.4458 173.656 73.9472C173.89 73.4643 174.186 72.7477 174.544 71.7974L169.38 59.5992H171.553L175.666 69.7176L179.382 59.5992H181.415L175.479 74.9988C175.339 75.3571 175.129 75.6921 174.848 76.0036C174.583 76.3308 174.241 76.5878 173.82 76.7748C173.399 76.9617 172.893 77.0552 172.301 77.0552C172.161 77.0552 172.013 77.0474 171.857 77.0318C171.717 77.0163 171.538 76.9851 171.32 76.9384V75.1157ZM192.947 72.031C191.934 72.031 190.984 71.8675 190.096 71.5403C189.208 71.1976 188.445 70.6913 187.806 70.0214L188.601 68.5725C189.302 69.2269 190.003 69.6942 190.704 69.9746C191.405 70.2551 192.121 70.3953 192.854 70.3953C193.695 70.3953 194.38 70.2395 194.91 69.9279C195.44 69.6008 195.704 69.1256 195.704 68.5024C195.704 68.0507 195.564 67.7157 195.284 67.4976C195.019 67.2795 194.637 67.1004 194.139 66.9601C193.64 66.8044 193.048 66.633 192.363 66.446C191.522 66.1968 190.813 65.9319 190.236 65.6515C189.66 65.3711 189.224 65.0206 188.928 64.5999C188.632 64.1793 188.484 63.6496 188.484 63.0109C188.484 62.232 188.686 61.5777 189.091 61.048C189.496 60.5027 190.049 60.0899 190.75 59.8095C191.467 59.529 192.277 59.3888 193.181 59.3888C194.084 59.3888 194.902 59.529 195.634 59.8095C196.367 60.0899 196.998 60.5027 197.527 61.048L196.592 62.4734C196.11 61.9749 195.58 61.6088 195.003 61.3751C194.427 61.1259 193.781 61.0012 193.064 61.0012C192.643 61.0012 192.23 61.0558 191.825 61.1648C191.42 61.2583 191.085 61.4375 190.821 61.7023C190.556 61.9516 190.423 62.3099 190.423 62.7772C190.423 63.1667 190.525 63.4783 190.727 63.712C190.945 63.9301 191.257 64.117 191.662 64.2728C192.082 64.4286 192.589 64.6 193.181 64.7869C194.1 65.0517 194.894 65.3166 195.564 65.5814C196.25 65.8463 196.779 66.189 197.153 66.6096C197.527 67.0302 197.714 67.6145 197.714 68.3622C197.714 69.5151 197.278 70.4186 196.406 71.0729C195.533 71.7117 194.38 72.031 192.947 72.031ZM205.502 72.031C204.583 72.031 203.75 71.8675 203.002 71.5403C202.254 71.1976 201.608 70.738 201.062 70.1616C200.517 69.5696 200.097 68.8919 199.801 68.1286C199.505 67.3652 199.357 66.5629 199.357 65.7216C199.357 64.8648 199.505 64.0547 199.801 63.2913C200.097 62.528 200.517 61.8581 201.062 61.2817C201.608 60.6897 202.254 60.2301 203.002 59.9029C203.765 59.5602 204.599 59.3888 205.502 59.3888C206.422 59.3888 207.255 59.5602 208.003 59.9029C208.751 60.2301 209.397 60.6897 209.942 61.2817C210.503 61.8581 210.932 62.528 211.228 63.2913C211.524 64.0547 211.672 64.8648 211.672 65.7216C211.672 66.5629 211.524 67.3652 211.228 68.1286C210.932 68.8919 210.511 69.5696 209.966 70.1616C209.42 70.738 208.766 71.1976 208.003 71.5403C207.255 71.8675 206.422 72.031 205.502 72.031ZM201.46 65.745C201.46 66.5862 201.639 67.3496 201.997 68.0351C202.371 68.7205 202.862 69.2658 203.469 69.6709C204.077 70.0603 204.755 70.2551 205.502 70.2551C206.25 70.2551 206.928 70.0525 207.535 69.6475C208.159 69.2424 208.649 68.6972 209.008 68.0117C209.381 67.3107 209.568 66.5395 209.568 65.6983C209.568 64.857 209.381 64.0936 209.008 63.4082C208.649 62.7227 208.159 62.1774 207.535 61.7724C206.928 61.3673 206.25 61.1648 205.502 61.1648C204.755 61.1648 204.077 61.3751 203.469 61.7958C202.862 62.2008 202.371 62.7461 201.997 63.4315C201.639 64.117 201.46 64.8882 201.46 65.745ZM214.047 66.9134V59.5992H216.103V66.5161C216.103 67.7624 216.321 68.6972 216.757 69.3203C217.193 69.9435 217.84 70.2551 218.697 70.2551C219.258 70.2551 219.795 70.1382 220.309 69.9045C220.839 69.6553 221.314 69.3048 221.735 68.853C222.155 68.4012 222.482 67.8637 222.716 67.2406V59.5992H224.773V69.4605C224.773 69.7098 224.819 69.8967 224.913 70.0214C225.022 70.1304 225.193 70.1927 225.427 70.2083V71.7974C225.193 71.8285 225.006 71.8441 224.866 71.8441C224.741 71.8597 224.617 71.8675 224.492 71.8675C224.103 71.8675 223.768 71.7506 223.487 71.5169C223.207 71.2677 223.059 70.9639 223.043 70.6056L222.997 69.1801C222.467 70.0837 221.75 70.7847 220.847 71.2833C219.959 71.7818 218.985 72.031 217.926 72.031C216.648 72.031 215.682 71.6026 215.028 70.7458C214.374 69.8734 214.047 68.5959 214.047 66.9134ZM234.648 61.3985C233.619 61.4141 232.708 61.6789 231.914 62.193C231.135 62.6915 230.582 63.3848 230.254 64.2728V71.7974H228.198V59.5992H230.114V62.4267C230.535 61.5854 231.088 60.9078 231.773 60.3937C232.474 59.864 233.207 59.568 233.97 59.5057C234.126 59.5057 234.258 59.5057 234.367 59.5057C234.476 59.5057 234.57 59.5135 234.648 59.529V61.3985ZM241.789 72.031C240.869 72.031 240.028 71.8675 239.265 71.5403C238.517 71.1976 237.863 70.7302 237.302 70.1382C236.757 69.5462 236.328 68.8685 236.017 68.1052C235.721 67.3418 235.573 66.5317 235.573 65.6749C235.573 64.5221 235.83 63.4705 236.344 62.5202C236.858 61.5699 237.582 60.8143 238.517 60.2535C239.452 59.677 240.535 59.3888 241.765 59.3888C242.965 59.3888 244.009 59.6615 244.897 60.2067C245.8 60.7364 246.47 61.453 246.906 62.3566L244.897 62.9875C244.585 62.4111 244.149 61.9671 243.588 61.6556C243.027 61.3284 242.404 61.1648 241.719 61.1648C240.971 61.1648 240.285 61.3596 239.662 61.749C239.055 62.1385 238.572 62.676 238.213 63.3614C237.855 64.0313 237.676 64.8025 237.676 65.6749C237.676 66.5317 237.855 67.3107 238.213 68.0117C238.587 68.6972 239.078 69.2424 239.685 69.6475C240.309 70.0525 240.994 70.2551 241.742 70.2551C242.225 70.2551 242.684 70.1694 243.121 69.998C243.572 69.8266 243.962 69.6008 244.289 69.3203C244.632 69.0243 244.865 68.705 244.99 68.3622L247 68.9698C246.75 69.5618 246.369 70.0915 245.855 70.5588C245.356 71.0106 244.756 71.3689 244.055 71.6338C243.37 71.8986 242.614 72.031 241.789 72.031ZM254.614 72.031C253.695 72.031 252.853 71.8675 252.09 71.5403C251.342 71.1976 250.688 70.738 250.127 70.1616C249.582 69.5696 249.153 68.8919 248.842 68.1286C248.546 67.3652 248.398 66.5551 248.398 65.6983C248.398 64.5454 248.663 63.4939 249.192 62.5435C249.722 61.5932 250.454 60.8299 251.389 60.2535C252.339 59.677 253.422 59.3888 254.637 59.3888C255.868 59.3888 256.935 59.6848 257.839 60.2768C258.758 60.8532 259.467 61.6166 259.965 62.5669C260.479 63.5016 260.736 64.5143 260.736 65.6048C260.736 65.7606 260.728 65.9164 260.713 66.0721C260.713 66.2124 260.705 66.3214 260.69 66.3993H250.571C250.633 67.1938 250.851 67.9027 251.225 68.5258C251.615 69.1334 252.113 69.6163 252.721 69.9746C253.329 70.3174 253.983 70.4887 254.684 70.4887C255.432 70.4887 256.133 70.3018 256.787 69.9279C257.457 69.554 257.916 69.0633 258.166 68.4557L259.942 68.9464C259.677 69.5384 259.28 70.0681 258.75 70.5355C258.236 71.0028 257.62 71.3689 256.904 71.6338C256.203 71.8986 255.439 72.031 254.614 72.031ZM250.501 64.9738H258.82C258.758 64.1793 258.532 63.4783 258.142 62.8707C257.753 62.2631 257.254 61.788 256.647 61.4452C256.039 61.1025 255.369 60.9311 254.637 60.9311C253.921 60.9311 253.258 61.1025 252.651 61.4452C252.043 61.788 251.545 62.2631 251.155 62.8707C250.781 63.4783 250.563 64.1793 250.501 64.9738ZM267.205 72.031C266.192 72.031 265.242 71.8675 264.354 71.5403C263.466 71.1976 262.703 70.6913 262.064 70.0214L262.859 68.5725C263.56 69.2269 264.261 69.6942 264.962 69.9746C265.663 70.2551 266.379 70.3953 267.112 70.3953C267.953 70.3953 268.638 70.2395 269.168 69.9279C269.698 69.6008 269.962 69.1256 269.962 68.5024C269.962 68.0507 269.822 67.7157 269.542 67.4976C269.277 67.2795 268.895 67.1004 268.397 66.9601C267.898 66.8044 267.306 66.633 266.621 66.446C265.78 66.1968 265.071 65.9319 264.494 65.6515C263.918 65.3711 263.482 65.0206 263.186 64.5999C262.89 64.1793 262.742 63.6496 262.742 63.0109C262.742 62.232 262.944 61.5777 263.349 61.048C263.754 60.5027 264.307 60.0899 265.008 59.8095C265.725 59.529 266.535 59.3888 267.439 59.3888C268.342 59.3888 269.16 59.529 269.892 59.8095C270.625 60.0899 271.256 60.5027 271.785 61.048L270.85 62.4734C270.368 61.9749 269.838 61.6088 269.261 61.3751C268.685 61.1259 268.039 61.0012 267.322 61.0012C266.901 61.0012 266.488 61.0558 266.083 61.1648C265.678 61.2583 265.343 61.4375 265.079 61.7023C264.814 61.9516 264.681 62.3099 264.681 62.7772C264.681 63.1667 264.783 63.4783 264.985 63.712C265.203 63.9301 265.515 64.117 265.92 64.2728C266.34 64.4286 266.847 64.6 267.439 64.7869C268.358 65.0517 269.152 65.3166 269.822 65.5814C270.508 65.8463 271.037 66.189 271.411 66.6096C271.785 67.0302 271.972 67.6145 271.972 68.3622C271.972 69.5151 271.536 70.4186 270.664 71.0729C269.791 71.7117 268.638 72.031 267.205 72.031Z" fill="white"/>
<g clip-path="url(#clip0_181_160)">
<path d="M293.355 61.4917C293.077 61.4917 292.806 61.4095 292.576 61.2554C292.345 61.1013 292.165 60.8824 292.059 60.6262C291.953 60.37 291.925 60.088 291.98 59.8161C292.034 59.5441 292.167 59.2943 292.363 59.0982C292.559 58.9021 292.809 58.7685 293.081 58.7144C293.353 58.6603 293.635 58.6881 293.891 58.7942C294.147 58.9003 294.366 59.0801 294.521 59.3106C294.675 59.5412 294.757 59.8123 294.757 60.0896C294.757 60.4615 294.609 60.8181 294.346 61.081C294.083 61.344 293.727 61.4917 293.355 61.4917Z" fill="#22E16E"/>
<path d="M293.355 73.4098C291.553 73.4098 289.791 72.8753 288.292 71.8739C286.793 70.8725 285.625 69.4491 284.935 67.7839C284.246 66.1186 284.065 64.2861 284.417 62.5183C284.768 60.7504 285.636 59.1265 286.911 57.8519C288.186 56.5774 289.809 55.7094 291.577 55.3577C293.345 55.0061 295.178 55.1866 296.843 55.8764C298.508 56.5661 299.932 57.7343 300.933 59.233C301.934 60.7317 302.469 62.4937 302.469 64.2962C302.469 66.7133 301.509 69.0314 299.8 70.7405C298.09 72.4497 295.772 73.4098 293.355 73.4098ZM293.355 56.5847C291.83 56.5847 290.339 57.037 289.071 57.8843C287.803 58.7317 286.814 59.9361 286.231 61.3452C285.647 62.7543 285.494 64.3048 285.792 65.8007C286.09 67.2966 286.824 68.6706 287.902 69.7491C288.981 70.8276 290.355 71.562 291.851 71.8596C293.347 72.1571 294.897 72.0044 296.306 71.4207C297.715 70.8371 298.92 69.8487 299.767 68.5805C300.615 67.3124 301.067 65.8214 301.067 64.2962C301.067 62.251 300.254 60.2896 298.808 58.8434C297.362 57.3972 295.401 56.5847 293.355 56.5847Z" fill="#22E16E"/>
<path d="M293.355 69.9045C292.983 69.9045 292.626 69.7568 292.363 69.4938C292.1 69.2309 291.953 68.8743 291.953 68.5024V64.2961C291.953 63.9243 292.1 63.5677 292.363 63.3047C292.626 63.0418 292.983 62.894 293.355 62.894C293.727 62.894 294.083 63.0418 294.346 63.3047C294.609 63.5677 294.757 63.9243 294.757 64.2961V68.5024C294.757 68.8743 294.609 69.2309 294.346 69.4938C294.083 69.7568 293.727 69.9045 293.355 69.9045Z" fill="#22E16E"/>
</g>
<path d="M104.124 130.357V117.691L98.6561 127.436H97.3709L91.8794 117.691V130.357H89.7762V113.765H91.9962L98.0018 124.538L104.031 113.765H106.227V130.357H104.124ZM108.801 126.828C108.801 126.049 109.019 125.38 109.456 124.819C109.907 124.242 110.523 123.798 111.302 123.487C112.081 123.175 112.984 123.019 114.012 123.019C114.558 123.019 115.134 123.066 115.742 123.16C116.349 123.237 116.887 123.362 117.354 123.533V122.645C117.354 121.711 117.074 120.978 116.513 120.449C115.952 119.904 115.157 119.631 114.129 119.631C113.459 119.631 112.813 119.756 112.19 120.005C111.582 120.238 110.936 120.581 110.25 121.033L109.502 119.584C110.297 119.039 111.091 118.634 111.886 118.369C112.68 118.089 113.506 117.948 114.363 117.948C115.921 117.948 117.151 118.385 118.055 119.257C118.959 120.114 119.41 121.313 119.41 122.856V128.02C119.41 128.269 119.457 128.456 119.551 128.581C119.66 128.69 119.831 128.752 120.065 128.768V130.357C119.862 130.388 119.683 130.411 119.527 130.427C119.387 130.443 119.27 130.45 119.177 130.45C118.694 130.45 118.328 130.318 118.078 130.053C117.845 129.788 117.712 129.508 117.681 129.212L117.634 128.441C117.105 129.126 116.411 129.656 115.555 130.03C114.698 130.404 113.849 130.591 113.008 130.591C112.197 130.591 111.473 130.427 110.834 130.1C110.196 129.757 109.697 129.305 109.339 128.745C108.98 128.168 108.801 127.529 108.801 126.828ZM116.746 127.693C116.933 127.475 117.081 127.257 117.19 127.039C117.299 126.805 117.354 126.61 117.354 126.454V124.936C116.871 124.749 116.365 124.608 115.835 124.515C115.305 124.406 114.784 124.351 114.269 124.351C113.226 124.351 112.377 124.562 111.722 124.982C111.084 125.387 110.764 125.948 110.764 126.665C110.764 127.054 110.865 127.436 111.068 127.81C111.286 128.168 111.598 128.464 112.003 128.698C112.423 128.931 112.937 129.048 113.545 129.048C114.184 129.048 114.791 128.924 115.368 128.674C115.944 128.41 116.404 128.082 116.746 127.693ZM123.61 118.159L126.835 122.645L127.022 123.019L127.232 122.645L130.433 118.159H132.724L128.213 124.281L132.747 130.357H130.457L127.232 125.894L127.022 125.543L126.835 125.894L123.61 130.357H121.32L125.853 124.281L121.343 118.159H123.61ZM134.516 130.357V127.74H136.245V130.357H134.516ZM149.497 130.591C148.484 130.591 147.534 130.427 146.646 130.1C145.758 129.757 144.994 129.251 144.356 128.581L145.15 127.132C145.851 127.786 146.552 128.254 147.253 128.534C147.954 128.815 148.671 128.955 149.403 128.955C150.244 128.955 150.93 128.799 151.46 128.487C151.989 128.16 152.254 127.685 152.254 127.062C152.254 126.61 152.114 126.275 151.833 126.057C151.569 125.839 151.187 125.66 150.688 125.52C150.19 125.364 149.598 125.193 148.912 125.006C148.071 124.756 147.362 124.492 146.786 124.211C146.21 123.931 145.773 123.58 145.477 123.16C145.181 122.739 145.033 122.209 145.033 121.57C145.033 120.792 145.236 120.137 145.641 119.608C146.046 119.062 146.599 118.649 147.3 118.369C148.017 118.089 148.827 117.948 149.73 117.948C150.634 117.948 151.452 118.089 152.184 118.369C152.916 118.649 153.547 119.062 154.077 119.608L153.142 121.033C152.659 120.534 152.129 120.168 151.553 119.935C150.977 119.685 150.33 119.561 149.613 119.561C149.193 119.561 148.78 119.615 148.375 119.724C147.97 119.818 147.635 119.997 147.37 120.262C147.105 120.511 146.973 120.869 146.973 121.337C146.973 121.726 147.074 122.038 147.277 122.272C147.495 122.49 147.806 122.677 148.211 122.832C148.632 122.988 149.138 123.16 149.73 123.346C150.649 123.611 151.444 123.876 152.114 124.141C152.799 124.406 153.329 124.749 153.703 125.169C154.077 125.59 154.264 126.174 154.264 126.922C154.264 128.075 153.828 128.978 152.955 129.633C152.083 130.271 150.93 130.591 149.497 130.591ZM156.771 113.298H158.827V127.202C158.827 127.872 158.921 128.285 159.108 128.441C159.294 128.597 159.52 128.674 159.785 128.674C160.112 128.674 160.424 128.643 160.72 128.581C161.016 128.503 161.265 128.425 161.468 128.347L161.795 130.03C161.452 130.17 161.047 130.287 160.58 130.38C160.112 130.474 159.7 130.521 159.341 130.521C158.547 130.521 157.916 130.295 157.448 129.843C156.997 129.391 156.771 128.76 156.771 127.95V113.298ZM163.41 130.357V118.159H165.467V130.357H163.41ZM163.41 115.869V113.298H165.467V115.869H163.41ZM175.363 130.591C174.365 130.591 173.477 130.341 172.699 129.843C171.92 129.344 171.304 128.713 170.852 127.95V135.334H168.796V118.159H170.619V120.449C171.102 119.701 171.733 119.101 172.512 118.649C173.291 118.182 174.14 117.948 175.059 117.948C175.9 117.948 176.671 118.12 177.372 118.463C178.073 118.805 178.681 119.273 179.195 119.865C179.709 120.457 180.106 121.134 180.387 121.898C180.683 122.645 180.831 123.432 180.831 124.258C180.831 125.411 180.597 126.47 180.13 127.436C179.678 128.402 179.039 129.173 178.213 129.749C177.388 130.31 176.437 130.591 175.363 130.591ZM174.732 128.815C175.339 128.815 175.884 128.69 176.367 128.441C176.866 128.176 177.287 127.833 177.629 127.413C177.988 126.976 178.26 126.486 178.447 125.94C178.634 125.395 178.728 124.834 178.728 124.258C178.728 123.65 178.618 123.074 178.4 122.529C178.198 121.983 177.902 121.5 177.512 121.08C177.139 120.659 176.695 120.332 176.18 120.098C175.682 119.849 175.137 119.724 174.545 119.724C174.171 119.724 173.781 119.794 173.376 119.935C172.987 120.075 172.613 120.277 172.255 120.542C171.896 120.792 171.592 121.08 171.343 121.407C171.094 121.734 170.93 122.085 170.852 122.458V125.94C171.086 126.47 171.398 126.953 171.787 127.389C172.177 127.825 172.628 128.176 173.143 128.441C173.657 128.69 174.186 128.815 174.732 128.815ZM189.922 130.591C188.925 130.591 188.037 130.341 187.258 129.843C186.479 129.344 185.864 128.713 185.412 127.95V135.334H183.356V118.159H185.178V120.449C185.661 119.701 186.292 119.101 187.071 118.649C187.85 118.182 188.699 117.948 189.618 117.948C190.459 117.948 191.231 118.12 191.932 118.463C192.633 118.805 193.24 119.273 193.754 119.865C194.269 120.457 194.666 121.134 194.946 121.898C195.242 122.645 195.39 123.432 195.39 124.258C195.39 125.411 195.156 126.47 194.689 127.436C194.237 128.402 193.599 129.173 192.773 129.749C191.947 130.31 190.997 130.591 189.922 130.591ZM189.291 128.815C189.899 128.815 190.444 128.69 190.927 128.441C191.425 128.176 191.846 127.833 192.189 127.413C192.547 126.976 192.82 126.486 193.007 125.94C193.194 125.395 193.287 124.834 193.287 124.258C193.287 123.65 193.178 123.074 192.96 122.529C192.757 121.983 192.461 121.5 192.072 121.08C191.698 120.659 191.254 120.332 190.74 120.098C190.241 119.849 189.696 119.724 189.104 119.724C188.73 119.724 188.341 119.794 187.936 119.935C187.546 120.075 187.172 120.277 186.814 120.542C186.456 120.792 186.152 121.08 185.903 121.407C185.653 121.734 185.49 122.085 185.412 122.458V125.94C185.646 126.47 185.957 126.953 186.347 127.389C186.736 127.825 187.188 128.176 187.702 128.441C188.216 128.69 188.746 128.815 189.291 128.815ZM196.957 126.828C196.957 126.049 197.175 125.38 197.611 124.819C198.063 124.242 198.678 123.798 199.457 123.487C200.236 123.175 201.14 123.019 202.168 123.019C202.713 123.019 203.29 123.066 203.897 123.16C204.505 123.237 205.042 123.362 205.51 123.533V122.645C205.51 121.711 205.229 120.978 204.668 120.449C204.108 119.904 203.313 119.631 202.285 119.631C201.615 119.631 200.968 119.756 200.345 120.005C199.738 120.238 199.091 120.581 198.406 121.033L197.658 119.584C198.453 119.039 199.247 118.634 200.042 118.369C200.836 118.089 201.662 117.948 202.519 117.948C204.076 117.948 205.307 118.385 206.211 119.257C207.114 120.114 207.566 121.313 207.566 122.856V128.02C207.566 128.269 207.613 128.456 207.706 128.581C207.815 128.69 207.987 128.752 208.22 128.768V130.357C208.018 130.388 207.839 130.411 207.683 130.427C207.543 130.443 207.426 130.45 207.332 130.45C206.849 130.45 206.483 130.318 206.234 130.053C206 129.788 205.868 129.508 205.837 129.212L205.79 128.441C205.26 129.126 204.567 129.656 203.71 130.03C202.854 130.404 202.004 130.591 201.163 130.591C200.353 130.591 199.629 130.427 198.99 130.1C198.351 129.757 197.853 129.305 197.494 128.745C197.136 128.168 196.957 127.529 196.957 126.828ZM204.902 127.693C205.089 127.475 205.237 127.257 205.346 127.039C205.455 126.805 205.51 126.61 205.51 126.454V124.936C205.027 124.749 204.52 124.608 203.991 124.515C203.461 124.406 202.939 124.351 202.425 124.351C201.381 124.351 200.532 124.562 199.878 124.982C199.239 125.387 198.92 125.948 198.92 126.665C198.92 127.054 199.021 127.436 199.224 127.81C199.442 128.168 199.753 128.464 200.158 128.698C200.579 128.931 201.093 129.048 201.701 129.048C202.339 129.048 202.947 128.924 203.523 128.674C204.1 128.41 204.559 128.082 204.902 127.693ZM215.715 130.497C214.889 130.497 214.126 130.334 213.425 130.006C212.739 129.664 212.147 129.204 211.649 128.628C211.15 128.036 210.761 127.366 210.48 126.618C210.216 125.87 210.083 125.091 210.083 124.281C210.083 123.424 210.216 122.614 210.48 121.851C210.761 121.088 211.15 120.418 211.649 119.841C212.163 119.249 212.763 118.79 213.448 118.463C214.134 118.12 214.897 117.948 215.738 117.948C216.751 117.948 217.631 118.198 218.379 118.696C219.142 119.195 219.781 119.826 220.295 120.589V118.159H222.118V130.217C222.118 131.37 221.837 132.343 221.277 133.138C220.731 133.932 219.983 134.532 219.033 134.937C218.098 135.358 217.055 135.568 215.902 135.568C214.531 135.568 213.409 135.327 212.537 134.844C211.664 134.361 210.94 133.706 210.364 132.881L211.555 131.829C212.038 132.546 212.661 133.083 213.425 133.442C214.204 133.8 215.029 133.979 215.902 133.979C216.65 133.979 217.335 133.839 217.958 133.558C218.597 133.294 219.103 132.881 219.477 132.32C219.867 131.759 220.061 131.058 220.061 130.217V128.067C219.61 128.815 218.986 129.407 218.192 129.843C217.413 130.279 216.587 130.497 215.715 130.497ZM216.346 128.815C216.782 128.815 217.203 128.737 217.608 128.581C218.013 128.425 218.387 128.223 218.729 127.973C219.072 127.709 219.36 127.413 219.594 127.085C219.828 126.758 219.983 126.423 220.061 126.081V122.575C219.843 122.014 219.532 121.524 219.127 121.103C218.722 120.667 218.262 120.332 217.748 120.098C217.234 119.849 216.704 119.724 216.159 119.724C215.536 119.724 214.975 119.857 214.476 120.122C213.993 120.386 213.581 120.745 213.238 121.197C212.895 121.633 212.63 122.124 212.443 122.669C212.256 123.214 212.163 123.767 212.163 124.328C212.163 124.936 212.272 125.512 212.49 126.057C212.708 126.587 213.004 127.062 213.378 127.483C213.752 127.903 214.196 128.23 214.71 128.464C215.224 128.698 215.769 128.815 216.346 128.815ZM230.835 130.591C229.916 130.591 229.074 130.427 228.311 130.1C227.563 129.757 226.909 129.298 226.348 128.721C225.803 128.129 225.374 127.451 225.063 126.688C224.767 125.925 224.619 125.115 224.619 124.258C224.619 123.105 224.884 122.053 225.413 121.103C225.943 120.153 226.675 119.389 227.61 118.813C228.56 118.237 229.643 117.948 230.858 117.948C232.089 117.948 233.156 118.244 234.059 118.836C234.979 119.413 235.687 120.176 236.186 121.126C236.7 122.061 236.957 123.074 236.957 124.164C236.957 124.32 236.949 124.476 236.934 124.632C236.934 124.772 236.926 124.881 236.91 124.959H226.792C226.854 125.753 227.072 126.462 227.446 127.085C227.836 127.693 228.334 128.176 228.942 128.534C229.549 128.877 230.204 129.048 230.905 129.048C231.653 129.048 232.354 128.861 233.008 128.487C233.678 128.114 234.137 127.623 234.387 127.015L236.163 127.506C235.898 128.098 235.501 128.628 234.971 129.095C234.457 129.562 233.841 129.929 233.125 130.193C232.424 130.458 231.66 130.591 230.835 130.591ZM226.722 123.533H235.041C234.979 122.739 234.753 122.038 234.363 121.43C233.974 120.823 233.475 120.348 232.868 120.005C232.26 119.662 231.59 119.491 230.858 119.491C230.141 119.491 229.479 119.662 228.872 120.005C228.264 120.348 227.766 120.823 227.376 121.43C227.002 122.038 226.784 122.739 226.722 123.533Z" fill="white"/>
<g clip-path="url(#clip1_181_160)">
<path d="M258.355 120.053C258.078 120.053 257.806 119.97 257.576 119.816C257.345 119.662 257.166 119.443 257.059 119.187C256.953 118.931 256.926 118.649 256.98 118.377C257.034 118.105 257.167 117.855 257.363 117.659C257.56 117.463 257.809 117.33 258.081 117.275C258.353 117.221 258.635 117.249 258.891 117.355C259.148 117.461 259.367 117.641 259.521 117.872C259.675 118.102 259.757 118.373 259.757 118.651C259.757 119.022 259.609 119.379 259.346 119.642C259.083 119.905 258.727 120.053 258.355 120.053Z" fill="#22E16E"/>
<path d="M258.354 131.971C256.552 131.971 254.79 131.436 253.291 130.435C251.792 129.434 250.624 128.01 249.934 126.345C249.244 124.68 249.064 122.847 249.416 121.079C249.767 119.311 250.635 117.688 251.91 116.413C253.184 115.138 254.808 114.27 256.576 113.919C258.344 113.567 260.176 113.748 261.842 114.437C263.507 115.127 264.93 116.295 265.932 117.794C266.933 119.293 267.468 121.055 267.468 122.857C267.468 125.274 266.508 127.592 264.798 129.302C263.089 131.011 260.771 131.971 258.354 131.971ZM258.354 115.146C256.829 115.146 255.338 115.598 254.07 116.445C252.802 117.293 251.813 118.497 251.23 119.906C250.646 121.315 250.493 122.866 250.791 124.362C251.088 125.858 251.823 127.232 252.901 128.31C253.98 129.389 255.354 130.123 256.85 130.421C258.346 130.718 259.896 130.565 261.305 129.982C262.714 129.398 263.919 128.41 264.766 127.142C265.613 125.873 266.066 124.382 266.066 122.857C266.066 120.812 265.253 118.851 263.807 117.404C262.361 115.958 260.399 115.146 258.354 115.146Z" fill="#22E16E"/>
<path d="M258.355 128.467C257.983 128.467 257.626 128.319 257.363 128.056C257.1 127.793 256.953 127.437 256.953 127.065V122.859C256.953 122.487 257.1 122.13 257.363 121.867C257.626 121.604 257.983 121.457 258.355 121.457C258.727 121.457 259.083 121.604 259.346 121.867C259.609 122.13 259.757 122.487 259.757 122.859V127.065C259.757 127.437 259.609 127.793 259.346 128.056C259.083 128.319 258.727 128.467 258.355 128.467Z" fill="#22E16E"/>
</g>
<path d="M99.5209 175.806C99.3339 175.588 99.0847 175.378 98.7731 175.176C98.4615 174.973 98.111 174.794 97.7215 174.638C97.3321 174.467 96.9036 174.334 96.4363 174.241C95.9845 174.132 95.5093 174.077 95.0108 174.077C93.7334 174.077 92.7908 174.319 92.1833 174.802C91.5757 175.285 91.2719 175.947 91.2719 176.788C91.2719 177.38 91.4277 177.847 91.7393 178.19C92.0508 178.533 92.526 178.813 93.1647 179.031C93.819 179.249 94.6447 179.475 95.6418 179.709C96.7946 179.958 97.7916 180.262 98.6329 180.62C99.4742 180.979 100.121 181.462 100.572 182.069C101.024 182.661 101.25 183.456 101.25 184.453C101.25 185.247 101.094 185.94 100.783 186.532C100.487 187.109 100.066 187.592 99.5209 187.981C98.9756 188.355 98.3369 188.636 97.6047 188.823C96.8725 188.994 96.078 189.08 95.2211 189.08C94.3799 189.08 93.5542 188.994 92.7441 188.823C91.9496 188.636 91.194 188.371 90.4774 188.028C89.7608 187.685 89.0909 187.257 88.4677 186.743L89.4726 184.967C89.7218 185.232 90.0412 185.496 90.4306 185.761C90.8357 186.011 91.2875 186.244 91.786 186.462C92.3001 186.68 92.8532 186.86 93.4451 187C94.0371 187.124 94.6447 187.187 95.2679 187.187C96.4519 187.187 97.371 186.976 98.0253 186.556C98.6796 186.12 99.0068 185.489 99.0068 184.663C99.0068 184.04 98.8198 183.541 98.4459 183.167C98.0876 182.794 97.5502 182.482 96.8335 182.233C96.1169 181.983 95.2445 181.734 94.2163 181.485C93.0946 181.205 92.1521 180.901 91.3887 180.574C90.6254 180.231 90.049 179.787 89.6595 179.242C89.2856 178.696 89.0987 177.987 89.0987 177.115C89.0987 176.056 89.3557 175.16 89.8698 174.428C90.3839 173.696 91.0927 173.142 91.9963 172.769C92.8999 172.395 93.9203 172.208 95.0576 172.208C95.8053 172.208 96.4986 172.286 97.1373 172.441C97.7916 172.597 98.3992 172.815 98.9601 173.096C99.5209 173.376 100.035 173.711 100.502 174.101L99.5209 175.806ZM122.08 188.916H120.024V182.092C120.024 180.815 119.813 179.873 119.393 179.265C118.988 178.657 118.38 178.354 117.57 178.354C116.744 178.354 115.996 178.657 115.327 179.265C114.657 179.857 114.182 180.628 113.901 181.578V188.916H111.845V182.092C111.845 180.799 111.642 179.857 111.237 179.265C110.832 178.657 110.225 178.354 109.414 178.354C108.604 178.354 107.857 178.65 107.171 179.242C106.501 179.818 106.026 180.589 105.746 181.555V188.916H103.689V176.718H105.559V179.335C106.057 178.431 106.704 177.738 107.498 177.255C108.293 176.757 109.189 176.507 110.186 176.507C111.198 176.507 112.008 176.788 112.616 177.349C113.223 177.894 113.597 178.603 113.738 179.475C114.283 178.509 114.945 177.777 115.724 177.279C116.503 176.765 117.391 176.507 118.388 176.507C119.089 176.507 119.673 176.64 120.14 176.905C120.623 177.154 121.005 177.512 121.285 177.98C121.566 178.431 121.768 178.969 121.893 179.592C122.018 180.215 122.08 180.893 122.08 181.625V188.916ZM124.319 185.387C124.319 184.608 124.537 183.939 124.974 183.378C125.425 182.801 126.041 182.357 126.82 182.046C127.599 181.734 128.502 181.578 129.53 181.578C130.076 181.578 130.652 181.625 131.26 181.719C131.867 181.796 132.405 181.921 132.872 182.092V181.205C132.872 180.27 132.592 179.538 132.031 179.008C131.47 178.463 130.675 178.19 129.647 178.19C128.977 178.19 128.331 178.315 127.708 178.564C127.1 178.798 126.454 179.14 125.768 179.592L125.02 178.143C125.815 177.598 126.609 177.193 127.404 176.928C128.198 176.648 129.024 176.507 129.881 176.507C131.439 176.507 132.67 176.944 133.573 177.816C134.477 178.673 134.928 179.873 134.928 181.415V186.579C134.928 186.828 134.975 187.015 135.069 187.14C135.178 187.249 135.349 187.311 135.583 187.327V188.916C135.38 188.947 135.201 188.971 135.045 188.986C134.905 189.002 134.788 189.009 134.695 189.009C134.212 189.009 133.846 188.877 133.597 188.612C133.363 188.347 133.23 188.067 133.199 187.771L133.153 187C132.623 187.685 131.93 188.215 131.073 188.589C130.216 188.963 129.367 189.15 128.526 189.15C127.715 189.15 126.991 188.986 126.352 188.659C125.714 188.316 125.215 187.864 124.857 187.304C124.498 186.727 124.319 186.088 124.319 185.387ZM132.265 186.252C132.451 186.034 132.599 185.816 132.709 185.598C132.818 185.364 132.872 185.169 132.872 185.014V183.495C132.389 183.308 131.883 183.167 131.353 183.074C130.823 182.965 130.302 182.91 129.787 182.91C128.744 182.91 127.895 183.121 127.24 183.541C126.602 183.946 126.282 184.507 126.282 185.224C126.282 185.613 126.384 185.995 126.586 186.369C126.804 186.727 127.116 187.023 127.521 187.257C127.941 187.491 128.455 187.607 129.063 187.607C129.702 187.607 130.309 187.483 130.886 187.234C131.462 186.969 131.922 186.642 132.265 186.252ZM144.666 178.517C143.638 178.533 142.727 178.798 141.932 179.312C141.153 179.81 140.6 180.503 140.273 181.391V188.916H138.217V176.718H140.133V179.545C140.553 178.704 141.107 178.026 141.792 177.512C142.493 176.983 143.225 176.687 143.989 176.624C144.144 176.624 144.277 176.624 144.386 176.624C144.495 176.624 144.588 176.632 144.666 176.648V178.517ZM153.015 188.308C152.844 188.386 152.61 188.488 152.314 188.612C152.018 188.737 151.676 188.846 151.286 188.939C150.897 189.033 150.484 189.08 150.048 189.08C149.549 189.08 149.089 188.994 148.669 188.823C148.248 188.636 147.913 188.355 147.664 187.981C147.415 187.592 147.29 187.109 147.29 186.532V178.33H145.631V176.718H147.29V172.652H149.347V176.718H152.081V178.33H149.347V185.902C149.378 186.338 149.526 186.665 149.791 186.883C150.055 187.086 150.367 187.187 150.725 187.187C151.13 187.187 151.504 187.117 151.847 186.976C152.19 186.836 152.416 186.735 152.525 186.673L153.015 188.308ZM167.281 178.517C166.253 178.533 165.342 178.798 164.547 179.312C163.768 179.81 163.215 180.503 162.888 181.391V188.916H160.832V176.718H162.748V179.545C163.169 178.704 163.722 178.026 164.407 177.512C165.108 176.983 165.84 176.687 166.604 176.624C166.76 176.624 166.892 176.624 167.001 176.624C167.11 176.624 167.204 176.632 167.281 176.648V178.517ZM174.352 189.15C173.433 189.15 172.6 188.986 171.852 188.659C171.104 188.316 170.458 187.857 169.912 187.28C169.367 186.688 168.946 186.011 168.65 185.247C168.354 184.484 168.206 183.682 168.206 182.84C168.206 181.983 168.354 181.173 168.65 180.41C168.946 179.647 169.367 178.977 169.912 178.4C170.458 177.808 171.104 177.349 171.852 177.022C172.615 176.679 173.449 176.507 174.352 176.507C175.271 176.507 176.105 176.679 176.853 177.022C177.601 177.349 178.247 177.808 178.792 178.4C179.353 178.977 179.782 179.647 180.078 180.41C180.374 181.173 180.522 181.983 180.522 182.84C180.522 183.682 180.374 184.484 180.078 185.247C179.782 186.011 179.361 186.688 178.816 187.28C178.27 187.857 177.616 188.316 176.853 188.659C176.105 188.986 175.271 189.15 174.352 189.15ZM170.31 182.864C170.31 183.705 170.489 184.468 170.847 185.154C171.221 185.839 171.712 186.384 172.319 186.79C172.927 187.179 173.605 187.374 174.352 187.374C175.1 187.374 175.778 187.171 176.385 186.766C177.009 186.361 177.499 185.816 177.858 185.13C178.231 184.429 178.418 183.658 178.418 182.817C178.418 181.976 178.231 181.212 177.858 180.527C177.499 179.841 177.009 179.296 176.385 178.891C175.778 178.486 175.1 178.283 174.352 178.283C173.605 178.283 172.927 178.494 172.319 178.914C171.712 179.319 171.221 179.865 170.847 180.55C170.489 181.236 170.31 182.007 170.31 182.864ZM182.897 184.032V176.718H184.953V183.635C184.953 184.881 185.171 185.816 185.607 186.439C186.043 187.062 186.69 187.374 187.547 187.374C188.108 187.374 188.645 187.257 189.159 187.023C189.689 186.774 190.164 186.423 190.585 185.972C191.005 185.52 191.332 184.982 191.566 184.359V176.718H193.623V186.579C193.623 186.828 193.669 187.015 193.763 187.14C193.872 187.249 194.043 187.311 194.277 187.327V188.916C194.043 188.947 193.856 188.963 193.716 188.963C193.591 188.978 193.467 188.986 193.342 188.986C192.953 188.986 192.618 188.869 192.337 188.636C192.057 188.386 191.909 188.083 191.893 187.724L191.847 186.299C191.317 187.202 190.6 187.903 189.697 188.402C188.809 188.9 187.835 189.15 186.776 189.15C185.498 189.15 184.532 188.721 183.878 187.864C183.224 186.992 182.897 185.715 182.897 184.032ZM203.357 188.308C203.186 188.386 202.952 188.488 202.656 188.612C202.36 188.737 202.018 188.846 201.628 188.939C201.239 189.033 200.826 189.08 200.39 189.08C199.891 189.08 199.432 188.994 199.011 188.823C198.59 188.636 198.255 188.355 198.006 187.981C197.757 187.592 197.632 187.109 197.632 186.532V178.33H195.973V176.718H197.632V172.652H199.689V176.718H202.423V178.33H199.689V185.902C199.72 186.338 199.868 186.665 200.133 186.883C200.397 187.086 200.709 187.187 201.067 187.187C201.472 187.187 201.846 187.117 202.189 186.976C202.532 186.836 202.758 186.735 202.867 186.673L203.357 188.308ZM205.263 188.916V176.718H207.32V188.916H205.263ZM205.263 174.428V171.857H207.32V174.428H205.263ZM221.235 188.916H219.178V182.092C219.178 180.799 218.976 179.857 218.571 179.265C218.181 178.657 217.582 178.354 216.771 178.354C216.211 178.354 215.65 178.494 215.089 178.774C214.544 179.055 214.053 179.436 213.617 179.919C213.196 180.387 212.892 180.932 212.705 181.555V188.916H210.649V176.718H212.518V179.335C212.846 178.759 213.266 178.26 213.78 177.839C214.294 177.419 214.879 177.092 215.533 176.858C216.187 176.624 216.873 176.507 217.589 176.507C218.29 176.507 218.875 176.64 219.342 176.905C219.825 177.154 220.199 177.512 220.464 177.98C220.744 178.431 220.939 178.969 221.048 179.592C221.173 180.215 221.235 180.893 221.235 181.625V188.916ZM229.293 189.056C228.468 189.056 227.704 188.893 227.003 188.565C226.318 188.223 225.726 187.763 225.227 187.187C224.729 186.595 224.339 185.925 224.059 185.177C223.794 184.429 223.661 183.65 223.661 182.84C223.661 181.983 223.794 181.173 224.059 180.41C224.339 179.647 224.729 178.977 225.227 178.4C225.741 177.808 226.341 177.349 227.027 177.022C227.712 176.679 228.475 176.507 229.317 176.507C230.329 176.507 231.209 176.757 231.957 177.255C232.721 177.754 233.359 178.385 233.873 179.148V176.718H235.696V188.776C235.696 189.929 235.416 190.902 234.855 191.697C234.31 192.491 233.562 193.091 232.612 193.496C231.677 193.917 230.633 194.127 229.48 194.127C228.109 194.127 226.988 193.886 226.115 193.403C225.243 192.92 224.518 192.265 223.942 191.44L225.134 190.388C225.617 191.105 226.24 191.642 227.003 192.001C227.782 192.359 228.608 192.538 229.48 192.538C230.228 192.538 230.913 192.398 231.537 192.117C232.175 191.853 232.682 191.44 233.056 190.879C233.445 190.318 233.64 189.617 233.64 188.776V186.626C233.188 187.374 232.565 187.966 231.77 188.402C230.991 188.838 230.166 189.056 229.293 189.056ZM229.924 187.374C230.36 187.374 230.781 187.296 231.186 187.14C231.591 186.984 231.965 186.782 232.308 186.532C232.65 186.268 232.939 185.972 233.172 185.644C233.406 185.317 233.562 184.982 233.64 184.64V181.134C233.422 180.574 233.11 180.083 232.705 179.662C232.3 179.226 231.84 178.891 231.326 178.657C230.812 178.408 230.282 178.283 229.737 178.283C229.114 178.283 228.553 178.416 228.055 178.681C227.572 178.946 227.159 179.304 226.816 179.756C226.473 180.192 226.209 180.683 226.022 181.228C225.835 181.773 225.741 182.326 225.741 182.887C225.741 183.495 225.85 184.071 226.068 184.616C226.287 185.146 226.583 185.621 226.956 186.042C227.33 186.462 227.774 186.79 228.288 187.023C228.802 187.257 229.348 187.374 229.924 187.374Z" fill="white"/>
<g clip-path="url(#clip2_181_160)">
<path d="M258.355 178.612C258.077 178.612 257.806 178.53 257.576 178.376C257.345 178.221 257.165 178.002 257.059 177.746C256.953 177.49 256.925 177.208 256.979 176.936C257.034 176.664 257.167 176.414 257.363 176.218C257.559 176.022 257.809 175.889 258.081 175.835C258.353 175.78 258.635 175.808 258.891 175.914C259.147 176.02 259.366 176.2 259.52 176.431C259.674 176.661 259.757 176.932 259.757 177.21C259.757 177.582 259.609 177.938 259.346 178.201C259.083 178.464 258.726 178.612 258.355 178.612Z" fill="#22E16E"/>
<path d="M258.354 190.53C256.552 190.53 254.79 189.995 253.291 188.994C251.792 187.993 250.624 186.569 249.934 184.904C249.244 183.239 249.064 181.406 249.416 179.638C249.767 177.871 250.635 176.247 251.91 174.972C253.184 173.697 254.808 172.83 256.576 172.478C258.344 172.126 260.176 172.307 261.842 172.996C263.507 173.686 264.93 174.854 265.932 176.353C266.933 177.852 267.468 179.614 267.468 181.416C267.468 183.833 266.508 186.152 264.798 187.861C263.089 189.57 260.771 190.53 258.354 190.53ZM258.354 173.705C256.829 173.705 255.338 174.157 254.07 175.004C252.802 175.852 251.813 177.056 251.23 178.465C250.646 179.874 250.493 181.425 250.791 182.921C251.088 184.417 251.823 185.791 252.901 186.869C253.98 187.948 255.354 188.682 256.85 188.98C258.346 189.277 259.896 189.125 261.305 188.541C262.714 187.957 263.919 186.969 264.766 185.701C265.613 184.432 266.066 182.942 266.066 181.416C266.066 179.371 265.253 177.41 263.807 175.963C262.361 174.517 260.399 173.705 258.354 173.705Z" fill="#22E16E"/>
<path d="M258.355 187.024C257.983 187.024 257.626 186.876 257.363 186.613C257.1 186.351 256.953 185.994 256.953 185.622V181.416C256.953 181.044 257.1 180.687 257.363 180.424C257.626 180.161 257.983 180.014 258.355 180.014C258.726 180.014 259.083 180.161 259.346 180.424C259.609 180.687 259.757 181.044 259.757 181.416V185.622C259.757 185.994 259.609 186.351 259.346 186.613C259.083 186.876 258.726 187.024 258.355 187.024Z" fill="#22E16E"/>
</g>
<path d="M91.8795 238.763V251.476H89.7763V234.884H91.5523L101.694 247.854V234.908H103.797V251.476H101.881L91.8795 238.763ZM112.624 251.709C111.705 251.709 110.864 251.546 110.101 251.219C109.353 250.876 108.699 250.416 108.138 249.84C107.592 249.248 107.164 248.57 106.852 247.807C106.556 247.043 106.408 246.233 106.408 245.376C106.408 244.224 106.673 243.172 107.203 242.222C107.733 241.271 108.465 240.508 109.4 239.932C110.35 239.355 111.433 239.067 112.648 239.067C113.879 239.067 114.946 239.363 115.849 239.955C116.768 240.531 117.477 241.295 117.976 242.245C118.49 243.18 118.747 244.192 118.747 245.283C118.747 245.439 118.739 245.595 118.724 245.75C118.724 245.891 118.716 246 118.7 246.078H108.582C108.644 246.872 108.862 247.581 109.236 248.204C109.626 248.812 110.124 249.295 110.732 249.653C111.339 249.996 111.993 250.167 112.695 250.167C113.442 250.167 114.143 249.98 114.798 249.606C115.468 249.232 115.927 248.742 116.176 248.134L117.952 248.625C117.688 249.217 117.29 249.746 116.761 250.214C116.247 250.681 115.631 251.047 114.915 251.312C114.213 251.577 113.45 251.709 112.624 251.709ZM108.512 244.652H116.831C116.768 243.858 116.543 243.156 116.153 242.549C115.764 241.941 115.265 241.466 114.657 241.123C114.05 240.781 113.38 240.609 112.648 240.609C111.931 240.609 111.269 240.781 110.662 241.123C110.054 241.466 109.555 241.941 109.166 242.549C108.792 243.156 108.574 243.858 108.512 244.652ZM127.228 250.868C127.057 250.946 126.823 251.047 126.527 251.172C126.231 251.296 125.888 251.405 125.499 251.499C125.109 251.592 124.697 251.639 124.26 251.639C123.762 251.639 123.302 251.553 122.882 251.382C122.461 251.195 122.126 250.915 121.877 250.541C121.628 250.151 121.503 249.668 121.503 249.092V240.89H119.844V239.277H121.503V235.211H123.559V239.277H126.293V240.89H123.559V248.461C123.59 248.897 123.738 249.224 124.003 249.443C124.268 249.645 124.58 249.746 124.938 249.746C125.343 249.746 125.717 249.676 126.06 249.536C126.402 249.396 126.628 249.295 126.737 249.232L127.228 250.868ZM144.417 239.277H146.403L141.215 251.476H139.416L137.056 245.727L134.719 251.476H132.92L127.732 239.277H129.695L133.901 249.443L135.864 244.442L133.808 239.301H135.607L137.056 243.18L138.505 239.301H140.304L138.271 244.442L140.234 249.443L144.417 239.277ZM153.243 251.709C152.324 251.709 151.491 251.546 150.743 251.219C149.995 250.876 149.349 250.416 148.803 249.84C148.258 249.248 147.837 248.57 147.541 247.807C147.245 247.043 147.097 246.241 147.097 245.4C147.097 244.543 147.245 243.733 147.541 242.97C147.837 242.206 148.258 241.536 148.803 240.96C149.349 240.368 149.995 239.908 150.743 239.581C151.506 239.238 152.34 239.067 153.243 239.067C154.162 239.067 154.996 239.238 155.744 239.581C156.492 239.908 157.138 240.368 157.683 240.96C158.244 241.536 158.673 242.206 158.969 242.97C159.265 243.733 159.413 244.543 159.413 245.4C159.413 246.241 159.265 247.043 158.969 247.807C158.673 248.57 158.252 249.248 157.707 249.84C157.161 250.416 156.507 250.876 155.744 251.219C154.996 251.546 154.162 251.709 153.243 251.709ZM149.201 245.423C149.201 246.264 149.38 247.028 149.738 247.713C150.112 248.399 150.603 248.944 151.21 249.349C151.818 249.739 152.496 249.933 153.243 249.933C153.991 249.933 154.669 249.731 155.276 249.326C155.9 248.921 156.39 248.375 156.749 247.69C157.122 246.989 157.309 246.218 157.309 245.376C157.309 244.535 157.122 243.772 156.749 243.086C156.39 242.401 155.9 241.856 155.276 241.451C154.669 241.046 153.991 240.843 153.243 240.843C152.496 240.843 151.818 241.053 151.21 241.474C150.603 241.879 150.112 242.424 149.738 243.11C149.38 243.795 149.201 244.566 149.201 245.423ZM168.354 241.077C167.326 241.092 166.414 241.357 165.62 241.871C164.841 242.37 164.288 243.063 163.961 243.951V251.476H161.904V239.277H163.821V242.105C164.241 241.264 164.794 240.586 165.48 240.072C166.181 239.542 166.913 239.246 167.676 239.184C167.832 239.184 167.965 239.184 168.074 239.184C168.183 239.184 168.276 239.192 168.354 239.207V241.077ZM178.993 251.476L174.763 245.54L172.45 247.713V251.476H170.394V234.417H172.45V245.563L178.759 239.301H180.979L176.119 244.348L181.213 251.476H178.993ZM194.299 251.709C193.38 251.709 192.539 251.546 191.775 251.219C191.028 250.876 190.373 250.408 189.812 249.816C189.267 249.224 188.839 248.547 188.527 247.783C188.231 247.02 188.083 246.21 188.083 245.353C188.083 244.2 188.34 243.149 188.854 242.198C189.368 241.248 190.093 240.493 191.028 239.932C191.962 239.355 193.045 239.067 194.276 239.067C195.475 239.067 196.519 239.34 197.407 239.885C198.311 240.415 198.981 241.131 199.417 242.035L197.407 242.666C197.096 242.089 196.659 241.645 196.098 241.334C195.538 241.007 194.914 240.843 194.229 240.843C193.481 240.843 192.796 241.038 192.173 241.427C191.565 241.817 191.082 242.354 190.724 243.04C190.365 243.71 190.186 244.481 190.186 245.353C190.186 246.21 190.365 246.989 190.724 247.69C191.098 248.375 191.588 248.921 192.196 249.326C192.819 249.731 193.505 249.933 194.252 249.933C194.735 249.933 195.195 249.848 195.631 249.676C196.083 249.505 196.472 249.279 196.8 248.999C197.142 248.703 197.376 248.383 197.501 248.04L199.51 248.648C199.261 249.24 198.879 249.77 198.365 250.237C197.867 250.689 197.267 251.047 196.566 251.312C195.88 251.577 195.125 251.709 194.299 251.709ZM207.054 251.709C206.135 251.709 205.302 251.546 204.554 251.219C203.806 250.876 203.159 250.416 202.614 249.84C202.069 249.248 201.648 248.57 201.352 247.807C201.056 247.043 200.908 246.241 200.908 245.4C200.908 244.543 201.056 243.733 201.352 242.97C201.648 242.206 202.069 241.536 202.614 240.96C203.159 240.368 203.806 239.908 204.554 239.581C205.317 239.238 206.151 239.067 207.054 239.067C207.973 239.067 208.807 239.238 209.555 239.581C210.302 239.908 210.949 240.368 211.494 240.96C212.055 241.536 212.483 242.206 212.779 242.97C213.075 243.733 213.223 244.543 213.223 245.4C213.223 246.241 213.075 247.043 212.779 247.807C212.483 248.57 212.063 249.248 211.517 249.84C210.972 250.416 210.318 250.876 209.555 251.219C208.807 251.546 207.973 251.709 207.054 251.709ZM203.011 245.423C203.011 246.264 203.191 247.028 203.549 247.713C203.923 248.399 204.414 248.944 205.021 249.349C205.629 249.739 206.306 249.933 207.054 249.933C207.802 249.933 208.48 249.731 209.087 249.326C209.71 248.921 210.201 248.375 210.559 247.69C210.933 246.989 211.12 246.218 211.12 245.376C211.12 244.535 210.933 243.772 210.559 243.086C210.201 242.401 209.71 241.856 209.087 241.451C208.48 241.046 207.802 240.843 207.054 240.843C206.306 240.843 205.629 241.053 205.021 241.474C204.414 241.879 203.923 242.424 203.549 243.11C203.191 243.795 203.011 244.566 203.011 245.423ZM219.898 251.709C218.885 251.709 217.935 251.546 217.047 251.219C216.159 250.876 215.396 250.369 214.757 249.7L215.552 248.251C216.253 248.905 216.954 249.372 217.655 249.653C218.356 249.933 219.072 250.073 219.805 250.073C220.646 250.073 221.331 249.918 221.861 249.606C222.391 249.279 222.656 248.804 222.656 248.181C222.656 247.729 222.515 247.394 222.235 247.176C221.97 246.958 221.588 246.779 221.09 246.638C220.591 246.483 219.999 246.311 219.314 246.124C218.473 245.875 217.764 245.61 217.187 245.33C216.611 245.049 216.175 244.699 215.879 244.278C215.583 243.858 215.435 243.328 215.435 242.689C215.435 241.91 215.637 241.256 216.042 240.726C216.447 240.181 217 239.768 217.701 239.488C218.418 239.207 219.228 239.067 220.132 239.067C221.035 239.067 221.853 239.207 222.585 239.488C223.318 239.768 223.949 240.181 224.478 240.726L223.544 242.152C223.061 241.653 222.531 241.287 221.954 241.053C221.378 240.804 220.732 240.679 220.015 240.679C219.594 240.679 219.181 240.734 218.776 240.843C218.371 240.937 218.036 241.116 217.772 241.381C217.507 241.63 217.374 241.988 217.374 242.455C217.374 242.845 217.476 243.156 217.678 243.39C217.896 243.608 218.208 243.795 218.613 243.951C219.033 244.107 219.54 244.278 220.132 244.465C221.051 244.73 221.845 244.995 222.515 245.26C223.201 245.524 223.73 245.867 224.104 246.288C224.478 246.708 224.665 247.293 224.665 248.04C224.665 249.193 224.229 250.097 223.357 250.751C222.484 251.39 221.331 251.709 219.898 251.709ZM233.435 250.868C233.263 250.946 233.03 251.047 232.734 251.172C232.438 251.296 232.095 251.405 231.706 251.499C231.316 251.592 230.903 251.639 230.467 251.639C229.969 251.639 229.509 251.553 229.088 251.382C228.668 251.195 228.333 250.915 228.084 250.541C227.834 250.151 227.71 249.668 227.71 249.092V240.89H226.05V239.277H227.71V235.211H229.766V239.277H232.5V240.89H229.766V248.461C229.797 248.897 229.945 249.224 230.21 249.443C230.475 249.645 230.786 249.746 231.145 249.746C231.55 249.746 231.924 249.676 232.266 249.536C232.609 249.396 232.835 249.295 232.944 249.232L233.435 250.868Z" fill="white"/>
<g clip-path="url(#clip3_181_160)">
<path d="M256.976 240.627C256.699 240.627 256.428 240.545 256.197 240.391C255.966 240.237 255.787 240.018 255.681 239.762C255.574 239.506 255.547 239.224 255.601 238.952C255.655 238.68 255.788 238.43 255.985 238.234C256.181 238.038 256.43 237.904 256.702 237.85C256.974 237.796 257.256 237.824 257.513 237.93C257.769 238.036 257.988 238.216 258.142 238.446C258.296 238.677 258.378 238.948 258.378 239.225C258.378 239.597 258.23 239.954 257.967 240.217C257.704 240.48 257.348 240.627 256.976 240.627Z" fill="#22E16E"/>
<path d="M256.977 252.545C255.174 252.545 253.412 252.011 251.913 251.009C250.415 250.008 249.247 248.584 248.557 246.919C247.867 245.254 247.687 243.421 248.038 241.654C248.39 239.886 249.258 238.262 250.532 236.987C251.807 235.713 253.431 234.845 255.199 234.493C256.967 234.141 258.799 234.322 260.464 235.012C262.13 235.701 263.553 236.87 264.554 238.368C265.556 239.867 266.09 241.629 266.09 243.431C266.09 245.849 265.13 248.167 263.421 249.876C261.712 251.585 259.394 252.545 256.977 252.545ZM256.977 235.72C255.451 235.72 253.961 236.172 252.692 237.02C251.424 237.867 250.436 239.071 249.852 240.48C249.268 241.89 249.116 243.44 249.413 244.936C249.711 246.432 250.445 247.806 251.524 248.884C252.602 249.963 253.976 250.697 255.472 250.995C256.968 251.292 258.519 251.14 259.928 250.556C261.337 249.972 262.541 248.984 263.389 247.716C264.236 246.448 264.688 244.957 264.688 243.431C264.688 241.386 263.876 239.425 262.43 237.979C260.983 236.532 259.022 235.72 256.977 235.72Z" fill="#22E16E"/>
<path d="M256.976 249.039C256.604 249.039 256.248 248.892 255.985 248.629C255.722 248.366 255.574 248.009 255.574 247.637V243.431C255.574 243.059 255.722 242.702 255.985 242.439C256.248 242.177 256.604 242.029 256.976 242.029C257.348 242.029 257.705 242.177 257.967 242.439C258.23 242.702 258.378 243.059 258.378 243.431V247.637C258.378 248.009 258.23 248.366 257.967 248.629C257.705 248.892 257.348 249.039 256.976 249.039Z" fill="#22E16E"/>
</g>
<path d="M89.7763 312.946V296.355H100.736V298.224H91.8795V303.763H99.3339V305.515H91.8795V312.946H89.7763ZM107.718 313.18C106.799 313.18 105.958 313.016 105.194 312.689C104.446 312.347 103.792 311.887 103.231 311.311C102.686 310.719 102.258 310.041 101.946 309.277C101.65 308.514 101.502 307.704 101.502 306.847C101.502 305.694 101.767 304.643 102.297 303.692C102.826 302.742 103.558 301.979 104.493 301.402C105.444 300.826 106.526 300.538 107.741 300.538C108.972 300.538 110.039 300.834 110.943 301.426C111.862 302.002 112.571 302.766 113.069 303.716C113.583 304.651 113.84 305.663 113.84 306.754C113.84 306.909 113.833 307.065 113.817 307.221C113.817 307.361 113.809 307.47 113.794 307.548H103.675C103.738 308.343 103.956 309.052 104.33 309.675C104.719 310.282 105.218 310.765 105.825 311.124C106.433 311.466 107.087 311.638 107.788 311.638C108.536 311.638 109.237 311.451 109.891 311.077C110.561 310.703 111.021 310.212 111.27 309.605L113.046 310.095C112.781 310.687 112.384 311.217 111.854 311.684C111.34 312.152 110.725 312.518 110.008 312.783C109.307 313.048 108.544 313.18 107.718 313.18ZM103.605 306.123H111.924C111.862 305.328 111.636 304.627 111.247 304.02C110.857 303.412 110.359 302.937 109.751 302.594C109.143 302.251 108.474 302.08 107.741 302.08C107.025 302.08 106.363 302.251 105.755 302.594C105.148 302.937 104.649 303.412 104.26 304.02C103.886 304.627 103.668 305.328 103.605 306.123ZM121.524 313.18C120.605 313.18 119.764 313.016 119.001 312.689C118.253 312.347 117.599 311.887 117.038 311.311C116.492 310.719 116.064 310.041 115.752 309.277C115.456 308.514 115.308 307.704 115.308 306.847C115.308 305.694 115.573 304.643 116.103 303.692C116.633 302.742 117.365 301.979 118.3 301.402C119.25 300.826 120.333 300.538 121.548 300.538C122.779 300.538 123.846 300.834 124.749 301.426C125.668 302.002 126.377 302.766 126.876 303.716C127.39 304.651 127.647 305.663 127.647 306.754C127.647 306.909 127.639 307.065 127.624 307.221C127.624 307.361 127.616 307.47 127.6 307.548H117.482C117.544 308.343 117.762 309.052 118.136 309.675C118.526 310.282 119.024 310.765 119.632 311.124C120.239 311.466 120.894 311.638 121.595 311.638C122.342 311.638 123.043 311.451 123.698 311.077C124.368 310.703 124.827 310.212 125.076 309.605L126.852 310.095C126.588 310.687 126.19 311.217 125.661 311.684C125.147 312.152 124.531 312.518 123.815 312.783C123.113 313.048 122.35 313.18 121.524 313.18ZM117.412 306.123H125.731C125.668 305.328 125.443 304.627 125.053 304.02C124.664 303.412 124.165 302.937 123.557 302.594C122.95 302.251 122.28 302.08 121.548 302.08C120.831 302.08 120.169 302.251 119.562 302.594C118.954 302.937 118.455 303.412 118.066 304.02C117.692 304.627 117.474 305.328 117.412 306.123Z" fill="white"/>
<g clip-path="url(#clip4_181_160)">
<path d="M149.355 302.642C149.077 302.642 148.806 302.56 148.576 302.406C148.345 302.252 148.165 302.033 148.059 301.777C147.953 301.52 147.925 301.238 147.98 300.966C148.034 300.694 148.167 300.445 148.363 300.249C148.559 300.052 148.809 299.919 149.081 299.865C149.353 299.811 149.635 299.838 149.891 299.945C150.147 300.051 150.366 300.23 150.521 300.461C150.675 300.692 150.757 300.963 150.757 301.24C150.757 301.612 150.609 301.968 150.346 302.231C150.083 302.494 149.727 302.642 149.355 302.642Z" fill="#22E16E"/>
<path d="M149.355 314.559C147.552 314.559 145.79 314.025 144.291 313.023C142.793 312.022 141.625 310.599 140.935 308.933C140.245 307.268 140.065 305.436 140.416 303.668C140.768 301.9 141.636 300.276 142.91 299.001C144.185 297.727 145.809 296.859 147.577 296.507C149.345 296.156 151.177 296.336 152.842 297.026C154.508 297.716 155.931 298.884 156.932 300.382C157.934 301.881 158.468 303.643 158.468 305.446C158.468 307.863 157.508 310.181 155.799 311.89C154.09 313.599 151.772 314.559 149.355 314.559ZM149.355 297.734C147.83 297.734 146.339 298.186 145.07 299.034C143.802 299.881 142.814 301.085 142.23 302.495C141.647 303.904 141.494 305.454 141.791 306.95C142.089 308.446 142.823 309.82 143.902 310.899C144.98 311.977 146.354 312.711 147.85 313.009C149.346 313.307 150.897 313.154 152.306 312.57C153.715 311.986 154.919 310.998 155.767 309.73C156.614 308.462 157.066 306.971 157.066 305.446C157.066 303.4 156.254 301.439 154.808 299.993C153.361 298.547 151.4 297.734 149.355 297.734Z" fill="#22E16E"/>
<path d="M149.355 311.055C148.983 311.055 148.626 310.908 148.363 310.645C148.1 310.382 147.953 310.025 147.953 309.653V305.447C147.953 305.075 148.1 304.719 148.363 304.456C148.626 304.193 148.983 304.045 149.355 304.045C149.727 304.045 150.083 304.193 150.346 304.456C150.609 304.719 150.757 305.075 150.757 305.447V309.653C150.757 310.025 150.609 310.382 150.346 310.645C150.083 310.908 149.727 311.055 149.355 311.055Z" fill="#22E16E"/>
</g>
<defs>
<clipPath id="clip0_181_160">
<rect width="22.4335" height="22.4335" fill="white" transform="translate(282.137 53.0806)"/>
</clipPath>
<clipPath id="clip1_181_160">
<rect width="22.4335" height="22.4335" fill="white" transform="translate(247.137 111.64)"/>
</clipPath>
<clipPath id="clip2_181_160">
<rect width="22.4335" height="22.4335" fill="white" transform="translate(247.137 170.199)"/>
</clipPath>
<clipPath id="clip3_181_160">
<rect width="22.4335" height="22.4335" fill="white" transform="translate(245.759 232.214)"/>
</clipPath>
<clipPath id="clip4_181_160">
<rect width="22.4335" height="22.4335" fill="white" transform="translate(138.137 294.229)"/>
</clipPath>
</defs>
</svg>
