<svg width="296" height="276" viewBox="0 0 296 276" fill="none" xmlns="http://www.w3.org/2000/svg">
<rect width="296" height="276" rx="2.65407" fill="#121212"/>
<path d="M250.449 38.9588H251.32L254.643 47.0947H253.543L252.581 44.7112H249.166L248.215 47.0947H247.115L250.449 38.9588ZM252.351 43.9091L250.885 40.1505L249.372 43.9091H252.351ZM255.388 44.6998V41.1131H256.397V44.505C256.397 45.1161 256.504 45.5745 256.717 45.8801C256.931 46.1856 257.248 46.3384 257.669 46.3384C257.944 46.3384 258.207 46.2811 258.459 46.1665C258.719 46.0443 258.952 45.8724 259.158 45.6509C259.365 45.4293 259.525 45.1658 259.64 44.8602V41.1131H260.648V45.9488C260.648 46.071 260.671 46.1627 260.717 46.2238C260.77 46.2773 260.854 46.3079 260.969 46.3155V47.0947C260.854 47.11 260.763 47.1176 260.694 47.1176C260.633 47.1253 260.572 47.1291 260.51 47.1291C260.319 47.1291 260.155 47.0718 260.018 46.9572C259.88 46.835 259.808 46.686 259.8 46.5103L259.777 45.8113C259.517 46.2544 259.166 46.5982 258.723 46.8426C258.287 47.0871 257.81 47.2093 257.29 47.2093C256.664 47.2093 256.19 46.9992 255.87 46.5791C255.549 46.1513 255.388 45.5248 255.388 44.6998ZM265.422 46.7968C265.338 46.835 265.223 46.8846 265.078 46.9458C264.933 47.0069 264.765 47.0603 264.574 47.1062C264.383 47.152 264.18 47.1749 263.966 47.1749C263.722 47.1749 263.497 47.1329 263.29 47.0489C263.084 46.9572 262.92 46.8197 262.798 46.6364C262.675 46.4454 262.614 46.2086 262.614 45.9259V41.9038H261.801V41.1131H262.614V39.1192H263.623V41.1131H264.963V41.9038H263.623V45.6165C263.638 45.8304 263.71 45.9908 263.84 46.0978C263.97 46.1971 264.123 46.2468 264.299 46.2468C264.497 46.2468 264.681 46.2124 264.849 46.1436C265.017 46.0749 265.128 46.0252 265.181 45.9947L265.422 46.7968ZM268.891 47.2093C268.44 47.2093 268.031 47.1291 267.664 46.9687C267.298 46.8006 266.981 46.5752 266.713 46.2926C266.446 46.0023 266.24 45.67 266.095 45.2957C265.949 44.9213 265.877 44.5279 265.877 44.1154C265.877 43.6952 265.949 43.2979 266.095 42.9236C266.24 42.5493 266.446 42.2208 266.713 41.9381C266.981 41.6478 267.298 41.4225 267.664 41.2621C268.039 41.094 268.448 41.01 268.891 41.01C269.341 41.01 269.75 41.094 270.117 41.2621C270.483 41.4225 270.8 41.6478 271.068 41.9381C271.343 42.2208 271.553 42.5493 271.698 42.9236C271.843 43.2979 271.916 43.6952 271.916 44.1154C271.916 44.5279 271.843 44.9213 271.698 45.2957C271.553 45.67 271.347 46.0023 271.079 46.2926C270.812 46.5752 270.491 46.8006 270.117 46.9687C269.75 47.1291 269.341 47.2093 268.891 47.2093ZM266.908 44.1268C266.908 44.5394 266.996 44.9137 267.172 45.2498C267.355 45.5859 267.596 45.8533 267.894 46.0519C268.192 46.2429 268.524 46.3384 268.891 46.3384C269.257 46.3384 269.59 46.2391 269.888 46.0405C270.193 45.8419 270.434 45.5745 270.609 45.2384C270.793 44.8946 270.884 44.5164 270.884 44.1039C270.884 43.6914 270.793 43.317 270.609 42.9809C270.434 42.6448 270.193 42.3774 269.888 42.1788C269.59 41.9802 269.257 41.8808 268.891 41.8808C268.524 41.8808 268.192 41.984 267.894 42.1902C267.596 42.3889 267.355 42.6562 267.172 42.9924C266.996 43.3285 266.908 43.7067 266.908 44.1268Z" fill="#BDBDBD"/>
<path d="M214.449 87.0855H215.32L218.643 95.2214H217.543L216.581 92.8379H213.166L212.215 95.2214H211.115L214.449 87.0855ZM216.351 92.0358L214.885 88.2772L213.372 92.0358H216.351ZM219.388 92.8265V89.2398H220.397V92.6317C220.397 93.2428 220.504 93.7012 220.717 94.0068C220.931 94.3123 221.248 94.4651 221.669 94.4651C221.944 94.4651 222.207 94.4078 222.459 94.2932C222.719 94.171 222.952 93.9991 223.158 93.7776C223.365 93.556 223.525 93.2925 223.64 92.9869V89.2398H224.648V94.0755C224.648 94.1978 224.671 94.2894 224.717 94.3505C224.77 94.404 224.854 94.4346 224.969 94.4422V95.2214C224.854 95.2367 224.763 95.2444 224.694 95.2444C224.633 95.252 224.572 95.2558 224.51 95.2558C224.319 95.2558 224.155 95.1985 224.018 95.0839C223.88 94.9617 223.808 94.8127 223.8 94.637L223.777 93.938C223.517 94.3811 223.166 94.7249 222.723 94.9693C222.287 95.2138 221.81 95.336 221.29 95.336C220.664 95.336 220.19 95.1259 219.87 94.7058C219.549 94.278 219.388 93.6515 219.388 92.8265ZM229.422 94.9235C229.338 94.9617 229.223 95.0114 229.078 95.0725C228.933 95.1336 228.765 95.1871 228.574 95.2329C228.383 95.2787 228.18 95.3016 227.966 95.3016C227.722 95.3016 227.497 95.2596 227.29 95.1756C227.084 95.0839 226.92 94.9464 226.798 94.7631C226.675 94.5721 226.614 94.3353 226.614 94.0526V90.0305H225.801V89.2398H226.614V87.2459H227.623V89.2398H228.963V90.0305H227.623V93.7432C227.638 93.9571 227.71 94.1175 227.84 94.2245C227.97 94.3238 228.123 94.3735 228.299 94.3735C228.497 94.3735 228.681 94.3391 228.849 94.2703C229.017 94.2016 229.128 94.1519 229.181 94.1214L229.422 94.9235ZM232.891 95.336C232.44 95.336 232.031 95.2558 231.664 95.0954C231.298 94.9273 230.981 94.702 230.713 94.4193C230.446 94.129 230.24 93.7967 230.095 93.4224C229.949 93.048 229.877 92.6546 229.877 92.2421C229.877 91.8219 229.949 91.4247 230.095 91.0503C230.24 90.676 230.446 90.3475 230.713 90.0648C230.981 89.7746 231.298 89.5492 231.664 89.3888C232.039 89.2207 232.448 89.1367 232.891 89.1367C233.341 89.1367 233.75 89.2207 234.117 89.3888C234.483 89.5492 234.8 89.7746 235.068 90.0648C235.343 90.3475 235.553 90.676 235.698 91.0503C235.843 91.4247 235.916 91.8219 235.916 92.2421C235.916 92.6546 235.843 93.048 235.698 93.4224C235.553 93.7967 235.347 94.129 235.079 94.4193C234.812 94.702 234.491 94.9273 234.117 95.0954C233.75 95.2558 233.341 95.336 232.891 95.336ZM230.908 92.2535C230.908 92.6661 230.996 93.0404 231.172 93.3765C231.355 93.7127 231.596 93.98 231.894 94.1787C232.192 94.3696 232.524 94.4651 232.891 94.4651C233.257 94.4651 233.59 94.3658 233.888 94.1672C234.193 93.9686 234.434 93.7012 234.609 93.3651C234.793 93.0213 234.884 92.6431 234.884 92.2306C234.884 91.8181 234.793 91.4438 234.609 91.1076C234.434 90.7715 234.193 90.5041 233.888 90.3055C233.59 90.1069 233.257 90.0076 232.891 90.0076C232.524 90.0076 232.192 90.1107 231.894 90.3169C231.596 90.5156 231.355 90.783 231.172 91.1191C230.996 91.4552 230.908 91.8334 230.908 92.2535ZM239.956 92.5515V91.6347H243.336V92.5515H239.956ZM250.547 95.3354C249.934 95.3354 249.412 95.1685 248.981 94.8349C248.549 94.4985 248.22 94.0115 247.992 93.374C247.764 92.7338 247.65 91.9606 247.65 91.0545C247.65 90.1538 247.764 89.3847 247.992 88.7472C248.222 88.107 248.553 87.6187 248.985 87.2823C249.419 86.9432 249.94 86.7736 250.547 86.7736C251.155 86.7736 251.674 86.9432 252.106 87.2823C252.54 87.6187 252.871 88.107 253.099 88.7472C253.329 89.3847 253.445 90.1538 253.445 91.0545C253.445 91.9606 253.331 92.7338 253.103 93.374C252.875 94.0115 252.545 94.4985 252.114 94.8349C251.683 95.1685 251.16 95.3354 250.547 95.3354ZM250.547 94.4401C251.155 94.4401 251.627 94.1471 251.963 93.5612C252.3 92.9752 252.468 92.1396 252.468 91.0545C252.468 90.3329 252.391 89.7184 252.236 89.2111C252.084 88.7038 251.864 88.3172 251.577 88.0514C251.292 87.7855 250.949 87.6526 250.547 87.6526C249.945 87.6526 249.474 87.9496 249.135 88.5438C248.796 89.1352 248.627 89.9721 248.627 91.0545C248.627 91.7761 248.703 92.3892 248.854 92.8938C249.006 93.3984 249.225 93.7823 249.51 94.0454C249.797 94.3086 250.143 94.4401 250.547 94.4401ZM255.416 95.2865C255.215 95.2865 255.043 95.2147 254.899 95.0709C254.756 94.9271 254.684 94.7548 254.684 94.5541C254.684 94.3533 254.756 94.1811 254.899 94.0373C255.043 93.8935 255.215 93.8216 255.416 93.8216C255.617 93.8216 255.789 93.8935 255.933 94.0373C256.077 94.1811 256.149 94.3533 256.149 94.5541C256.149 94.687 256.115 94.8091 256.047 94.9203C255.982 95.0315 255.894 95.1211 255.782 95.1889C255.674 95.254 255.552 95.2865 255.416 95.2865ZM260.292 95.3354C259.815 95.3354 259.385 95.2404 259.002 95.0505C258.62 94.8606 258.313 94.6002 258.083 94.2692C257.852 93.9383 257.726 93.5612 257.704 93.138H258.681C258.719 93.5151 258.89 93.827 259.193 94.0739C259.5 94.3181 259.866 94.4401 260.292 94.4401C260.634 94.4401 260.938 94.3601 261.204 94.2C261.472 94.04 261.683 93.8202 261.834 93.5408C261.989 93.2587 262.066 92.9399 262.066 92.5845C262.066 92.221 261.986 91.8968 261.826 91.612C261.669 91.3244 261.452 91.0979 261.175 90.9324C260.898 90.7669 260.582 90.6828 260.227 90.6801C259.972 90.6774 259.71 90.7167 259.442 90.7981C259.173 90.8768 258.952 90.9785 258.778 91.1033L257.834 90.9894L258.339 86.8876H262.669V87.7828H259.185L258.892 90.2406H258.941C259.112 90.105 259.326 89.9924 259.584 89.9029C259.842 89.8134 260.11 89.7686 260.39 89.7686C260.9 89.7686 261.354 89.8907 261.753 90.1348C262.155 90.3763 262.469 90.7073 262.697 91.1277C262.928 91.5482 263.043 92.0284 263.043 92.5683C263.043 93.1 262.924 93.5747 262.685 93.9925C262.449 94.4076 262.123 94.7358 261.708 94.9773C261.293 95.216 260.821 95.3354 260.292 95.3354ZM265.986 90.3169C265.665 90.3169 265.371 90.2444 265.103 90.0992C264.836 89.9464 264.622 89.744 264.461 89.4919C264.301 89.2322 264.221 88.9495 264.221 88.6439C264.221 88.3307 264.301 88.048 264.461 87.7959C264.622 87.5438 264.836 87.3452 265.103 87.2001C265.371 87.0473 265.665 86.9709 265.986 86.9709C266.314 86.9709 266.612 87.0473 266.879 87.2001C267.147 87.3452 267.357 87.5438 267.51 87.7959C267.67 88.048 267.75 88.3269 267.75 88.6325C267.75 88.9457 267.67 89.2322 267.51 89.4919C267.357 89.744 267.147 89.9464 266.879 90.0992C266.612 90.2444 266.314 90.3169 265.986 90.3169ZM265.986 89.7669C266.177 89.7669 266.348 89.7173 266.501 89.6179C266.662 89.511 266.788 89.3735 266.879 89.2054C266.971 89.0297 267.017 88.8425 267.017 88.6439C267.017 88.4377 266.967 88.2505 266.868 88.0824C266.776 87.9067 266.65 87.7692 266.49 87.6699C266.337 87.5706 266.169 87.5209 265.986 87.5209C265.795 87.5209 265.619 87.5744 265.458 87.6814C265.306 87.7807 265.183 87.9182 265.092 88.0939C265 88.262 264.954 88.4453 264.954 88.6439C264.954 88.8502 265 89.0373 265.092 89.2054C265.191 89.3735 265.317 89.511 265.47 89.6179C265.63 89.7173 265.802 89.7669 265.986 89.7669ZM270.008 95.336C269.679 95.336 269.381 95.2635 269.114 95.1183C268.854 94.9655 268.644 94.7631 268.484 94.511C268.323 94.2512 268.243 93.9686 268.243 93.663C268.243 93.3498 268.323 93.0671 268.484 92.815C268.644 92.5629 268.854 92.3643 269.114 92.2192C269.381 92.0664 269.679 91.99 270.008 91.99C270.336 91.99 270.634 92.0664 270.901 92.2192C271.169 92.3643 271.379 92.5629 271.532 92.815C271.692 93.0671 271.772 93.346 271.772 93.6515C271.772 93.9648 271.692 94.2512 271.532 94.511C271.379 94.7631 271.169 94.9655 270.901 95.1183C270.634 95.2635 270.336 95.336 270.008 95.336ZM270.008 94.786C270.199 94.786 270.371 94.7363 270.523 94.637C270.684 94.5301 270.81 94.3926 270.901 94.2245C270.993 94.0488 271.039 93.8616 271.039 93.663C271.039 93.4567 270.989 93.2696 270.89 93.1015C270.798 92.9258 270.672 92.7883 270.512 92.689C270.359 92.5897 270.191 92.54 270.008 92.54C269.817 92.54 269.641 92.5935 269.481 92.7004C269.328 92.7997 269.206 92.9373 269.114 93.113C269.022 93.281 268.976 93.4644 268.976 93.663C268.976 93.8693 269.022 94.0564 269.114 94.2245C269.213 94.3926 269.339 94.5301 269.492 94.637C269.652 94.7363 269.824 94.786 270.008 94.786ZM264.61 94.8433L267.819 90.9816L270.89 87.0282L271.383 87.4522L268.209 91.291L265.092 95.2787L264.61 94.8433Z" fill="#BDBDBD"/>
<path d="M250.449 133.212H251.32L254.643 141.348H253.543L252.581 138.965H249.166L248.215 141.348H247.115L250.449 133.212ZM252.351 138.163L250.885 134.404L249.372 138.163H252.351ZM255.388 138.953V135.367H256.397V138.759C256.397 139.37 256.504 139.828 256.717 140.134C256.931 140.439 257.248 140.592 257.669 140.592C257.944 140.592 258.207 140.535 258.459 140.42C258.719 140.298 258.952 140.126 259.158 139.905C259.365 139.683 259.525 139.419 259.64 139.114V135.367H260.648V140.202C260.648 140.325 260.671 140.416 260.717 140.477C260.77 140.531 260.854 140.562 260.969 140.569V141.348C260.854 141.364 260.763 141.371 260.694 141.371C260.633 141.379 260.572 141.383 260.51 141.383C260.319 141.383 260.155 141.325 260.018 141.211C259.88 141.089 259.808 140.94 259.8 140.764L259.777 140.065C259.517 140.508 259.166 140.852 258.723 141.096C258.287 141.341 257.81 141.463 257.29 141.463C256.664 141.463 256.19 141.253 255.87 140.833C255.549 140.405 255.388 139.778 255.388 138.953ZM265.422 141.05C265.338 141.089 265.223 141.138 265.078 141.199C264.933 141.261 264.765 141.314 264.574 141.36C264.383 141.406 264.18 141.429 263.966 141.429C263.722 141.429 263.497 141.387 263.29 141.303C263.084 141.211 262.92 141.073 262.798 140.89C262.675 140.699 262.614 140.462 262.614 140.18V136.157H261.801V135.367H262.614V133.373H263.623V135.367H264.963V136.157H263.623V139.87C263.638 140.084 263.71 140.244 263.84 140.351C263.97 140.451 264.123 140.5 264.299 140.5C264.497 140.5 264.681 140.466 264.849 140.397C265.017 140.329 265.128 140.279 265.181 140.248L265.422 141.05ZM268.891 141.463C268.44 141.463 268.031 141.383 267.664 141.222C267.298 141.054 266.981 140.829 266.713 140.546C266.446 140.256 266.24 139.924 266.095 139.549C265.949 139.175 265.877 138.782 265.877 138.369C265.877 137.949 265.949 137.552 266.095 137.177C266.24 136.803 266.446 136.474 266.713 136.192C266.981 135.902 267.298 135.676 267.664 135.516C268.039 135.348 268.448 135.264 268.891 135.264C269.341 135.264 269.75 135.348 270.117 135.516C270.483 135.676 270.8 135.902 271.068 136.192C271.343 136.474 271.553 136.803 271.698 137.177C271.843 137.552 271.916 137.949 271.916 138.369C271.916 138.782 271.843 139.175 271.698 139.549C271.553 139.924 271.347 140.256 271.079 140.546C270.812 140.829 270.491 141.054 270.117 141.222C269.75 141.383 269.341 141.463 268.891 141.463ZM266.908 138.38C266.908 138.793 266.996 139.167 267.172 139.503C267.355 139.84 267.596 140.107 267.894 140.306C268.192 140.497 268.524 140.592 268.891 140.592C269.257 140.592 269.59 140.493 269.888 140.294C270.193 140.096 270.434 139.828 270.609 139.492C270.793 139.148 270.884 138.77 270.884 138.358C270.884 137.945 270.793 137.571 270.609 137.235C270.434 136.898 270.193 136.631 269.888 136.432C269.59 136.234 269.257 136.135 268.891 136.135C268.524 136.135 268.192 136.238 267.894 136.444C267.596 136.643 267.355 136.91 267.172 137.246C266.996 137.582 266.908 137.96 266.908 138.38Z" fill="#BDBDBD"/>
<path d="M249.974 188.475V180.339H255.348V181.256H251.005V183.972H254.661V184.831H251.005V188.475H249.974ZM259.221 183.376C258.716 183.383 258.27 183.513 257.88 183.765C257.498 184.01 257.227 184.35 257.066 184.785V188.475H256.058V182.493H256.998V183.88C257.204 183.467 257.475 183.135 257.811 182.883C258.155 182.623 258.514 182.478 258.888 182.448C258.965 182.448 259.03 182.448 259.083 182.448C259.137 182.448 259.182 182.451 259.221 182.459V183.376ZM262.722 188.59C262.272 188.59 261.859 188.509 261.485 188.349C261.118 188.181 260.797 187.956 260.522 187.673C260.255 187.383 260.045 187.05 259.892 186.676C259.747 186.302 259.674 185.904 259.674 185.484C259.674 184.919 259.804 184.403 260.064 183.937C260.324 183.471 260.683 183.097 261.141 182.814C261.607 182.532 262.138 182.39 262.734 182.39C263.337 182.39 263.861 182.535 264.304 182.826C264.754 183.108 265.102 183.483 265.346 183.949C265.599 184.407 265.725 184.904 265.725 185.438C265.725 185.515 265.721 185.591 265.713 185.668C265.713 185.736 265.709 185.79 265.702 185.828H260.74C260.77 186.218 260.877 186.565 261.061 186.871C261.252 187.169 261.496 187.406 261.794 187.581C262.092 187.749 262.413 187.833 262.757 187.833C263.123 187.833 263.467 187.742 263.788 187.558C264.117 187.375 264.342 187.134 264.464 186.836L265.335 187.077C265.205 187.367 265.01 187.627 264.751 187.856C264.499 188.085 264.197 188.265 263.845 188.395C263.502 188.525 263.127 188.59 262.722 188.59ZM260.706 185.129H264.785C264.754 184.739 264.644 184.396 264.453 184.098C264.262 183.8 264.017 183.567 263.719 183.399C263.421 183.231 263.093 183.147 262.734 183.147C262.382 183.147 262.058 183.231 261.76 183.399C261.462 183.567 261.217 183.8 261.026 184.098C260.843 184.396 260.736 184.739 260.706 185.129ZM269.493 188.59C269.042 188.59 268.629 188.509 268.255 188.349C267.888 188.181 267.567 187.956 267.292 187.673C267.025 187.383 266.815 187.05 266.662 186.676C266.517 186.302 266.444 185.904 266.444 185.484C266.444 184.919 266.574 184.403 266.834 183.937C267.094 183.471 267.453 183.097 267.911 182.814C268.377 182.532 268.908 182.39 269.504 182.39C270.108 182.39 270.631 182.535 271.074 182.826C271.525 183.108 271.872 183.483 272.117 183.949C272.369 184.407 272.495 184.904 272.495 185.438C272.495 185.515 272.491 185.591 272.483 185.668C272.483 185.736 272.48 185.79 272.472 185.828H267.51C267.541 186.218 267.648 186.565 267.831 186.871C268.022 187.169 268.266 187.406 268.564 187.581C268.862 187.749 269.183 187.833 269.527 187.833C269.894 187.833 270.237 187.742 270.558 187.558C270.887 187.375 271.112 187.134 271.234 186.836L272.105 187.077C271.975 187.367 271.781 187.627 271.521 187.856C271.269 188.085 270.967 188.265 270.616 188.395C270.272 188.525 269.897 188.59 269.493 188.59ZM267.476 185.129H271.555C271.525 184.739 271.414 184.396 271.223 184.098C271.032 183.8 270.787 183.567 270.49 183.399C270.192 183.231 269.863 183.147 269.504 183.147C269.153 183.147 268.828 183.231 268.53 183.399C268.232 183.567 267.988 183.8 267.797 184.098C267.613 184.396 267.506 184.739 267.476 185.129Z" fill="#BDBDBD"/>
<path d="M250.581 236.716C249.968 236.716 249.446 236.549 249.014 236.215C248.583 235.879 248.253 235.392 248.025 234.755C247.798 234.114 247.684 233.341 247.684 232.435C247.684 231.534 247.798 230.765 248.025 230.128C248.256 229.488 248.587 228.999 249.018 228.663C249.452 228.324 249.973 228.154 250.581 228.154C251.189 228.154 251.708 228.324 252.139 228.663C252.574 228.999 252.905 229.488 253.132 230.128C253.363 230.765 253.478 231.534 253.478 232.435C253.478 233.341 253.364 234.114 253.136 234.755C252.909 235.392 252.579 235.879 252.148 236.215C251.716 236.549 251.194 236.716 250.581 236.716ZM250.581 235.821C251.189 235.821 251.661 235.528 251.997 234.942C252.333 234.356 252.502 233.52 252.502 232.435C252.502 231.713 252.424 231.099 252.27 230.592C252.118 230.084 251.898 229.698 251.61 229.432C251.326 229.166 250.982 229.033 250.581 229.033C249.979 229.033 249.508 229.33 249.169 229.924C248.83 230.516 248.66 231.353 248.66 232.435C248.66 233.157 248.736 233.77 248.888 234.274C249.04 234.779 249.258 235.163 249.543 235.426C249.831 235.689 250.177 235.821 250.581 235.821ZM255.45 236.667C255.249 236.667 255.077 236.595 254.933 236.451C254.789 236.308 254.717 236.135 254.717 235.935C254.717 235.734 254.789 235.562 254.933 235.418C255.077 235.274 255.249 235.202 255.45 235.202C255.651 235.202 255.823 235.274 255.967 235.418C256.11 235.562 256.182 235.734 256.182 235.935C256.182 236.068 256.148 236.19 256.081 236.301C256.015 236.412 255.927 236.502 255.816 236.569C255.708 236.635 255.585 236.667 255.45 236.667ZM260.326 236.716C259.848 236.716 259.418 236.621 259.036 236.431C258.653 236.241 258.347 235.981 258.116 235.65C257.886 235.319 257.76 234.942 257.738 234.519H258.714C258.752 234.896 258.923 235.208 259.227 235.455C259.534 235.699 259.9 235.821 260.326 235.821C260.668 235.821 260.972 235.741 261.237 235.581C261.506 235.421 261.716 235.201 261.868 234.921C262.023 234.639 262.1 234.321 262.1 233.965C262.1 233.602 262.02 233.277 261.86 232.993C261.703 232.705 261.486 232.479 261.209 232.313C260.932 232.148 260.616 232.063 260.261 232.061C260.006 232.058 259.744 232.097 259.475 232.179C259.207 232.257 258.986 232.359 258.812 232.484L257.868 232.37L258.373 228.268H262.702V229.163H259.219L258.926 231.621H258.975C259.146 231.486 259.36 231.373 259.618 231.284C259.876 231.194 260.144 231.149 260.424 231.149C260.934 231.149 261.388 231.271 261.787 231.515C262.188 231.757 262.503 232.088 262.731 232.508C262.961 232.929 263.077 233.409 263.077 233.949C263.077 234.481 262.957 234.955 262.719 235.373C262.483 235.788 262.157 236.116 261.742 236.358C261.327 236.597 260.855 236.716 260.326 236.716ZM266.019 231.698C265.698 231.698 265.404 231.625 265.137 231.48C264.869 231.327 264.656 231.125 264.495 230.873C264.335 230.613 264.255 230.33 264.255 230.025C264.255 229.711 264.335 229.429 264.495 229.177C264.656 228.924 264.869 228.726 265.137 228.581C265.404 228.428 265.698 228.352 266.019 228.352C266.348 228.352 266.646 228.428 266.913 228.581C267.18 228.726 267.39 228.924 267.543 229.177C267.704 229.429 267.784 229.708 267.784 230.013C267.784 230.326 267.704 230.613 267.543 230.873C267.39 231.125 267.18 231.327 266.913 231.48C266.646 231.625 266.348 231.698 266.019 231.698ZM266.019 231.148C266.21 231.148 266.382 231.098 266.535 230.999C266.695 230.892 266.821 230.754 266.913 230.586C267.005 230.41 267.051 230.223 267.051 230.025C267.051 229.818 267.001 229.631 266.902 229.463C266.81 229.287 266.684 229.15 266.523 229.051C266.371 228.951 266.203 228.902 266.019 228.902C265.828 228.902 265.653 228.955 265.492 229.062C265.339 229.161 265.217 229.299 265.125 229.475C265.034 229.643 264.988 229.826 264.988 230.025C264.988 230.231 265.034 230.418 265.125 230.586C265.225 230.754 265.351 230.892 265.504 230.999C265.664 231.098 265.836 231.148 266.019 231.148ZM270.041 236.717C269.713 236.717 269.415 236.644 269.148 236.499C268.888 236.346 268.678 236.144 268.517 235.892C268.357 235.632 268.277 235.349 268.277 235.044C268.277 234.73 268.357 234.448 268.517 234.196C268.678 233.944 268.888 233.745 269.148 233.6C269.415 233.447 269.713 233.371 270.041 233.371C270.37 233.371 270.668 233.447 270.935 233.6C271.203 233.745 271.413 233.944 271.565 234.196C271.726 234.448 271.806 234.727 271.806 235.032C271.806 235.345 271.726 235.632 271.565 235.892C271.413 236.144 271.203 236.346 270.935 236.499C270.668 236.644 270.37 236.717 270.041 236.717ZM270.041 236.167C270.232 236.167 270.404 236.117 270.557 236.018C270.717 235.911 270.843 235.773 270.935 235.605C271.027 235.429 271.073 235.242 271.073 235.044C271.073 234.837 271.023 234.65 270.924 234.482C270.832 234.306 270.706 234.169 270.546 234.07C270.393 233.97 270.225 233.921 270.041 233.921C269.85 233.921 269.675 233.974 269.514 234.081C269.361 234.18 269.239 234.318 269.148 234.494C269.056 234.662 269.01 234.845 269.01 235.044C269.01 235.25 269.056 235.437 269.148 235.605C269.247 235.773 269.373 235.911 269.526 236.018C269.686 236.117 269.858 236.167 270.041 236.167ZM264.644 236.224L267.853 232.362L270.924 228.409L271.416 228.833L268.242 232.672L265.125 236.659L264.644 236.224Z" fill="#BDBDBD"/>
<path d="M24.2175 49V38.8301H25.5067V47.8541H31.1789V49H24.2175ZM32.3819 49V41.5229H33.6424V49H32.3819ZM32.3819 40.1192V38.5436H33.6424V40.1192H32.3819ZM38.5479 49.1432C38.0513 49.1432 37.5977 49.0382 37.1871 48.8281C36.7765 48.618 36.4232 48.3363 36.1271 47.983C35.8311 47.6201 35.6019 47.2047 35.4396 46.7368C35.2773 46.2689 35.1961 45.7771 35.1961 45.2615C35.1961 44.7363 35.2868 44.2397 35.4682 43.7718C35.6497 43.3039 35.898 42.8933 36.2131 42.5399C36.5378 42.1866 36.915 41.9097 37.3447 41.7092C37.7744 41.4991 38.2375 41.394 38.7341 41.394C39.3166 41.394 39.8466 41.542 40.324 41.8381C40.8015 42.1245 41.1787 42.4922 41.4556 42.941V41.5229H42.5729V52.051H41.3124V47.5246C40.6248 48.6037 39.7033 49.1432 38.5479 49.1432ZM38.9776 48.0546C39.3309 48.0546 39.6508 47.983 39.9373 47.8398C40.2333 47.6965 40.4959 47.5055 40.7251 47.2668C40.9543 47.0185 41.15 46.7464 41.3124 46.4504V44.3018C41.2742 44.0535 41.1787 43.8243 41.0259 43.6142C40.8731 43.3946 40.6869 43.1988 40.4673 43.027C40.2476 42.8551 40.0089 42.7214 39.7511 42.6259C39.5028 42.5304 39.2545 42.4826 39.0062 42.4826C38.6338 42.4826 38.2948 42.5638 37.9892 42.7262C37.6837 42.8789 37.4163 43.089 37.1871 43.3564C36.9675 43.6238 36.7956 43.9246 36.6714 44.2588C36.5473 44.593 36.4852 44.9368 36.4852 45.2901C36.4852 45.7867 36.5903 46.245 36.8004 46.6652C37.02 47.0854 37.316 47.4244 37.6884 47.6822C38.0609 47.9305 38.4906 48.0546 38.9776 48.0546ZM44.5359 46.0063V41.5229H45.7964V45.7628C45.7964 46.5267 45.9301 47.0997 46.1975 47.4817C46.4649 47.8636 46.8612 48.0546 47.3864 48.0546C47.7301 48.0546 48.0596 47.983 48.3747 47.8398C48.6994 47.687 48.9906 47.4721 49.2485 47.1952C49.5063 46.9183 49.7068 46.5888 49.8501 46.2068V41.5229H51.1106V47.5676C51.1106 47.7204 51.1392 47.835 51.1965 47.9114C51.2634 47.9782 51.3684 48.0164 51.5116 48.026V49C51.3684 49.0191 51.2538 49.0286 51.1679 49.0286C51.0915 49.0382 51.0151 49.043 50.9387 49.043C50.7 49.043 50.4946 48.9714 50.3228 48.8281C50.1509 48.6753 50.0602 48.4891 50.0506 48.2695L50.022 47.3957C49.6973 47.9496 49.258 48.3793 48.7042 48.6849C48.1599 48.9905 47.563 49.1432 46.9137 49.1432C46.1306 49.1432 45.5386 48.8806 45.1375 48.3554C44.7365 47.8207 44.5359 47.0376 44.5359 46.0063ZM53.2102 49V41.5229H54.4707V49H53.2102ZM53.2102 40.1192V38.5436H54.4707V40.1192H53.2102ZM56.0244 45.2758C56.0244 44.5692 56.1677 43.9246 56.4541 43.3421C56.7502 42.75 57.1512 42.2773 57.6574 41.924C58.173 41.5707 58.7603 41.394 59.4192 41.394C60.0208 41.394 60.5603 41.5516 61.0378 41.8667C61.5152 42.1818 61.8877 42.5638 62.155 43.0126V38.5436H63.4155V47.5676C63.4155 47.7204 63.4442 47.835 63.5015 47.9114C63.5683 47.9782 63.6734 48.0164 63.8166 48.026V49C63.5779 49.0382 63.3917 49.0573 63.258 49.0573C63.0097 49.0573 62.7901 48.9714 62.5991 48.7995C62.4176 48.6276 62.3269 48.4366 62.3269 48.2265V47.5963C62.0309 48.0737 61.6346 48.4509 61.138 48.7278C60.6415 49.0048 60.1258 49.1432 59.5911 49.1432C59.0754 49.1432 58.598 49.043 58.1587 48.8424C57.729 48.6324 57.3518 48.3459 57.0271 47.983C56.712 47.6201 56.4637 47.2095 56.2823 46.7512C56.1104 46.2832 56.0244 45.7915 56.0244 45.2758ZM62.155 46.3787V44.2302C62.0405 43.9055 61.8542 43.6142 61.5964 43.3564C61.3386 43.089 61.0473 42.8789 60.7227 42.7262C60.4075 42.5638 60.0924 42.4826 59.7773 42.4826C59.4049 42.4826 59.0659 42.5638 58.7603 42.7262C58.4643 42.8789 58.2064 43.089 57.9868 43.3564C57.7767 43.6142 57.6144 43.9103 57.4998 44.2445C57.3852 44.5787 57.3279 44.9273 57.3279 45.2901C57.3279 45.6625 57.39 46.0159 57.5141 46.3501C57.6478 46.6843 57.8292 46.9803 58.0584 47.2382C58.2972 47.496 58.5693 47.6965 58.8749 47.8398C59.19 47.983 59.529 48.0546 59.8919 48.0546C60.1211 48.0546 60.355 48.0117 60.5937 47.9257C60.842 47.8398 61.076 47.7204 61.2956 47.5676C61.5152 47.4148 61.7015 47.2382 61.8542 47.0376C62.007 46.8275 62.1073 46.6079 62.155 46.3787ZM65.5198 49V41.5229H66.7803V49H65.5198ZM65.5198 40.1192V38.5436H66.7803V40.1192H65.5198ZM72.6884 48.6276C72.5834 48.6753 72.4402 48.7374 72.2587 48.8138C72.0773 48.8902 71.8672 48.957 71.6285 49.0143C71.3898 49.0716 71.1367 49.1003 70.8693 49.1003C70.5637 49.1003 70.282 49.0477 70.0242 48.9427C69.7664 48.8281 69.5611 48.6562 69.4083 48.427C69.2555 48.1883 69.1791 47.8923 69.1791 47.539V42.5113H68.1621V41.5229H69.1791V39.0306H70.4396V41.5229H72.1155V42.5113H70.4396V47.1522C70.4587 47.4196 70.5494 47.6201 70.7118 47.7538C70.8741 47.878 71.0651 47.94 71.2847 47.94C71.533 47.94 71.7622 47.8971 71.9723 47.8111C72.1823 47.7252 72.3208 47.6631 72.3876 47.6249L72.6884 48.6276ZM74.2005 51.034C74.3247 51.0435 74.4488 51.0531 74.5729 51.0626C74.6971 51.0817 74.7926 51.0913 74.8594 51.0913C75.0122 51.0913 75.1459 51.0388 75.2605 50.9337C75.3751 50.8287 75.4992 50.6234 75.6329 50.3178C75.7761 50.0218 75.9576 49.5825 76.1772 49L73.0116 41.5229H74.3437L76.8647 47.7252L79.1422 41.5229H80.3884L76.7502 50.9624C76.6642 51.182 76.5353 51.3873 76.3634 51.5783C76.2011 51.7788 75.991 51.9364 75.7332 52.051C75.4753 52.1656 75.165 52.2229 74.8021 52.2229C74.7162 52.2229 74.6255 52.2181 74.53 52.2085C74.444 52.199 74.3342 52.1799 74.2005 52.1512V51.034ZM87.4573 49.1432C86.8366 49.1432 86.2541 49.043 85.7098 48.8424C85.1655 48.6324 84.6976 48.322 84.3061 47.9114L84.7931 47.0233C85.2228 47.4244 85.6525 47.7109 86.0823 47.8827C86.512 48.0546 86.9512 48.1406 87.4001 48.1406C87.9157 48.1406 88.3359 48.0451 88.6606 47.8541C88.9852 47.6536 89.1476 47.3623 89.1476 46.9803C89.1476 46.7034 89.0616 46.4981 88.8897 46.3644C88.7274 46.2307 88.4934 46.1209 88.1879 46.035C87.8823 45.9395 87.5194 45.8344 87.0993 45.7198C86.5836 45.567 86.1491 45.4047 85.7958 45.2328C85.4425 45.0609 85.1751 44.8461 84.9936 44.5883C84.8122 44.3304 84.7215 44.0057 84.7215 43.6142C84.7215 43.1368 84.8456 42.7357 85.0939 42.411C85.3422 42.0768 85.6812 41.8237 86.1109 41.6519C86.5502 41.48 87.0467 41.394 87.6006 41.394C88.1544 41.394 88.6558 41.48 89.1046 41.6519C89.5534 41.8237 89.9402 42.0768 90.2648 42.411L89.6919 43.2848C89.3958 42.9792 89.0712 42.7548 88.7178 42.6116C88.3645 42.4588 87.9682 42.3824 87.529 42.3824C87.2711 42.3824 87.0181 42.4158 86.7698 42.4826C86.5215 42.5399 86.3162 42.6498 86.1539 42.8121C85.9915 42.9649 85.9104 43.1845 85.9104 43.471C85.9104 43.7097 85.9724 43.9007 86.0966 44.0439C86.2303 44.1776 86.4213 44.2922 86.6695 44.3877C86.9274 44.4832 87.2377 44.5883 87.6006 44.7028C88.164 44.8652 88.651 45.0275 89.0616 45.1899C89.4818 45.3522 89.8065 45.5623 90.0356 45.8201C90.2648 46.0779 90.3794 46.436 90.3794 46.8944C90.3794 47.601 90.112 48.1549 89.5773 48.556C89.0425 48.9475 88.3359 49.1432 87.4573 49.1432ZM95.1533 49.1432C94.5899 49.1432 94.079 49.043 93.6206 48.8424C93.1623 48.6324 92.766 48.3507 92.4318 47.9973C92.0975 47.6345 91.8397 47.2191 91.6583 46.7512C91.4768 46.2832 91.3861 45.7915 91.3861 45.2758C91.3861 44.7506 91.4768 44.254 91.6583 43.7861C91.8397 43.3182 92.0975 42.9076 92.4318 42.5543C92.766 42.1914 93.1623 41.9097 93.6206 41.7092C94.0885 41.4991 94.5994 41.394 95.1533 41.394C95.7167 41.394 96.2276 41.4991 96.6859 41.7092C97.1443 41.9097 97.5406 42.1914 97.8748 42.5543C98.2186 42.9076 98.4812 43.3182 98.6626 43.7861C98.8441 44.254 98.9348 44.7506 98.9348 45.2758C98.9348 45.7915 98.8441 46.2832 98.6626 46.7512C98.4812 47.2191 98.2234 47.6345 97.8891 47.9973C97.5549 48.3507 97.1539 48.6324 96.6859 48.8424C96.2276 49.043 95.7167 49.1432 95.1533 49.1432ZM92.6753 45.2901C92.6753 45.8058 92.7851 46.2737 93.0047 46.6939C93.2339 47.114 93.5347 47.4482 93.9071 47.6965C94.2795 47.9353 94.6949 48.0546 95.1533 48.0546C95.6116 48.0546 96.027 47.9305 96.3995 47.6822C96.7814 47.4339 97.0822 47.0997 97.3019 46.6795C97.531 46.2498 97.6456 45.7771 97.6456 45.2615C97.6456 44.7458 97.531 44.2779 97.3019 43.8577C97.0822 43.4376 96.7814 43.1033 96.3995 42.8551C96.027 42.6068 95.6116 42.4826 95.1533 42.4826C94.6949 42.4826 94.2795 42.6116 93.9071 42.8694C93.5347 43.1177 93.2339 43.4519 93.0047 43.8721C92.7851 44.2922 92.6753 44.7649 92.6753 45.2901ZM100.391 46.0063V41.5229H101.651V45.7628C101.651 46.5267 101.785 47.0997 102.052 47.4817C102.32 47.8636 102.716 48.0546 103.241 48.0546C103.585 48.0546 103.914 47.983 104.229 47.8398C104.554 47.687 104.845 47.4721 105.103 47.1952C105.361 46.9183 105.561 46.5888 105.705 46.2068V41.5229H106.965V47.5676C106.965 47.7204 106.994 47.835 107.051 47.9114C107.118 47.9782 107.223 48.0164 107.366 48.026V49C107.223 49.0191 107.108 49.0286 107.023 49.0286C106.946 49.0382 106.87 49.043 106.793 49.043C106.555 49.043 106.349 48.9714 106.177 48.8281C106.006 48.6753 105.915 48.4891 105.905 48.2695L105.877 47.3957C105.552 47.9496 105.113 48.3793 104.559 48.6849C104.014 48.9905 103.418 49.1432 102.768 49.1432C101.985 49.1432 101.393 48.8806 100.992 48.3554C100.591 47.8207 100.391 47.0376 100.391 46.0063ZM113.018 42.6259C112.388 42.6354 111.829 42.7978 111.342 43.1129C110.865 43.4185 110.526 43.8434 110.325 44.3877V49H109.065V41.5229H110.239V43.2561C110.497 42.7405 110.836 42.3251 111.256 42.01C111.686 41.6853 112.135 41.5038 112.603 41.4657C112.698 41.4657 112.78 41.4657 112.846 41.4657C112.913 41.4657 112.971 41.4704 113.018 41.48V42.6259ZM117.395 49.1432C116.832 49.1432 116.316 49.043 115.848 48.8424C115.39 48.6324 114.989 48.3459 114.645 47.983C114.311 47.6201 114.048 47.2047 113.857 46.7368C113.676 46.2689 113.585 45.7724 113.585 45.2471C113.585 44.5405 113.743 43.8959 114.058 43.3134C114.373 42.7309 114.817 42.2678 115.39 41.924C115.963 41.5707 116.627 41.394 117.381 41.394C118.116 41.394 118.756 41.5611 119.301 41.8954C119.854 42.22 120.265 42.6593 120.532 43.2132L119.301 43.5999C119.11 43.2466 118.842 42.9744 118.498 42.7834C118.155 42.5829 117.773 42.4826 117.352 42.4826C116.894 42.4826 116.474 42.602 116.092 42.8407C115.72 43.0795 115.424 43.4089 115.204 43.8291C114.984 44.2397 114.874 44.7124 114.874 45.2471C114.874 45.7724 114.984 46.2498 115.204 46.6795C115.433 47.0997 115.734 47.4339 116.106 47.6822C116.488 47.9305 116.908 48.0546 117.367 48.0546C117.663 48.0546 117.945 48.0021 118.212 47.8971C118.489 47.792 118.728 47.6536 118.928 47.4817C119.138 47.3002 119.281 47.1045 119.358 46.8944L120.59 47.2668C120.437 47.6297 120.203 47.9544 119.888 48.2408C119.582 48.5178 119.215 48.7374 118.785 48.8997C118.365 49.0621 117.902 49.1432 117.395 49.1432ZM125.257 49.1432C124.693 49.1432 124.178 49.043 123.71 48.8424C123.251 48.6324 122.85 48.3507 122.507 47.9973C122.172 47.6345 121.91 47.2191 121.719 46.7512C121.537 46.2832 121.447 45.7867 121.447 45.2615C121.447 44.5548 121.609 43.9103 121.934 43.3278C122.258 42.7452 122.707 42.2773 123.28 41.924C123.863 41.5707 124.526 41.394 125.271 41.394C126.025 41.394 126.68 41.5755 127.233 41.9383C127.797 42.2917 128.231 42.7596 128.537 43.3421C128.852 43.915 129.01 44.5357 129.01 45.2042C129.01 45.2997 129.005 45.3952 128.995 45.4907C128.995 45.5766 128.991 45.6434 128.981 45.6912H122.779C122.817 46.1782 122.951 46.6127 123.18 46.9947C123.419 47.3671 123.724 47.6631 124.097 47.8827C124.469 48.0928 124.87 48.1979 125.3 48.1979C125.758 48.1979 126.188 48.0833 126.589 47.8541C127 47.6249 127.281 47.3241 127.434 46.9517L128.523 47.2525C128.36 47.6154 128.117 47.94 127.792 48.2265C127.477 48.513 127.1 48.7374 126.661 48.8997C126.231 49.0621 125.763 49.1432 125.257 49.1432ZM122.736 44.8174H127.835C127.797 44.3304 127.658 43.9007 127.42 43.5283C127.181 43.1559 126.875 42.8646 126.503 42.6545C126.131 42.4444 125.72 42.3394 125.271 42.3394C124.832 42.3394 124.426 42.4444 124.054 42.6545C123.681 42.8646 123.376 43.1559 123.137 43.5283C122.908 43.9007 122.774 44.3304 122.736 44.8174ZM132.975 49.1432C132.354 49.1432 131.772 49.043 131.227 48.8424C130.683 48.6324 130.215 48.322 129.824 47.9114L130.311 47.0233C130.74 47.4244 131.17 47.7109 131.6 47.8827C132.029 48.0546 132.469 48.1406 132.917 48.1406C133.433 48.1406 133.853 48.0451 134.178 47.8541C134.503 47.6536 134.665 47.3623 134.665 46.9803C134.665 46.7034 134.579 46.4981 134.407 46.3644C134.245 46.2307 134.011 46.1209 133.705 46.035C133.4 45.9395 133.037 45.8344 132.617 45.7198C132.101 45.567 131.667 45.4047 131.313 45.2328C130.96 45.0609 130.692 44.8461 130.511 44.5883C130.33 44.3304 130.239 44.0057 130.239 43.6142C130.239 43.1368 130.363 42.7357 130.611 42.411C130.86 42.0768 131.199 41.8237 131.628 41.6519C132.068 41.48 132.564 41.394 133.118 41.394C133.672 41.394 134.173 41.48 134.622 41.6519C135.071 41.8237 135.458 42.0768 135.782 42.411L135.209 43.2848C134.913 42.9792 134.589 42.7548 134.235 42.6116C133.882 42.4588 133.486 42.3824 133.046 42.3824C132.789 42.3824 132.535 42.4158 132.287 42.4826C132.039 42.5399 131.834 42.6498 131.671 42.8121C131.509 42.9649 131.428 43.1845 131.428 43.471C131.428 43.7097 131.49 43.9007 131.614 44.0439C131.748 44.1776 131.939 44.2922 132.187 44.3877C132.445 44.4832 132.755 44.5883 133.118 44.7028C133.681 44.8652 134.168 45.0275 134.579 45.1899C134.999 45.3522 135.324 45.5623 135.553 45.8201C135.782 46.0779 135.897 46.436 135.897 46.8944C135.897 47.601 135.629 48.1549 135.095 48.556C134.56 48.9475 133.853 49.1432 132.975 49.1432Z" fill="white"/>
<g clip-path="url(#clip0_113_214)">
<path d="M149.606 42.2811C149.436 42.2811 149.269 42.2307 149.128 42.1363C148.987 42.0418 148.877 41.9076 148.812 41.7506C148.746 41.5935 148.729 41.4207 148.763 41.254C148.796 41.0873 148.878 40.9342 148.998 40.814C149.118 40.6938 149.271 40.6119 149.438 40.5788C149.605 40.5456 149.777 40.5626 149.934 40.6277C150.091 40.6927 150.226 40.8029 150.32 40.9442C150.415 41.0855 150.465 41.2517 150.465 41.4217C150.465 41.6496 150.374 41.8682 150.213 42.0294C150.052 42.1906 149.833 42.2811 149.606 42.2811Z" fill="#22E16E"/>
<path d="M149.606 49.5864C148.501 49.5864 147.421 49.2588 146.502 48.645C145.584 48.0311 144.868 47.1587 144.445 46.1379C144.022 45.1171 143.911 43.9939 144.127 42.9103C144.342 41.8267 144.874 40.8313 145.656 40.05C146.437 39.2688 147.432 38.7367 148.516 38.5212C149.6 38.3056 150.723 38.4162 151.744 38.8391C152.764 39.2619 153.637 39.9779 154.251 40.8965C154.865 41.8152 155.192 42.8953 155.192 44.0001C155.192 45.4817 154.604 46.9026 153.556 47.9502C152.508 48.9979 151.087 49.5864 149.606 49.5864ZM149.606 39.2733C148.671 39.2733 147.757 39.5505 146.98 40.0699C146.202 40.5893 145.597 41.3275 145.239 42.1912C144.881 43.055 144.787 44.0054 144.97 44.9223C145.152 45.8392 145.602 46.6815 146.263 47.3425C146.924 48.0036 147.767 48.4538 148.684 48.6362C149.601 48.8186 150.551 48.725 151.415 48.3672C152.278 48.0094 153.017 47.4036 153.536 46.6262C154.055 45.8489 154.333 44.935 154.333 44.0001C154.333 42.7465 153.835 41.5442 152.948 40.6577C152.062 39.7713 150.859 39.2733 149.606 39.2733Z" fill="#22E16E"/>
<path d="M149.606 47.4378C149.378 47.4378 149.159 47.3472 148.998 47.1861C148.837 47.0249 148.746 46.8063 148.746 46.5784V44.0001C148.746 43.7721 148.837 43.5535 148.998 43.3923C149.159 43.2312 149.378 43.1406 149.606 43.1406C149.833 43.1406 150.052 43.2312 150.213 43.3923C150.374 43.5535 150.465 43.7721 150.465 44.0001V46.5784C150.465 46.8063 150.374 47.0249 150.213 47.1861C150.052 47.3472 149.833 47.4378 149.606 47.4378Z" fill="#22E16E"/>
</g>
<path d="M33.0124 94.7478V86.9843L29.6606 92.9573H28.8728L25.5067 86.9843V94.7478H24.2175V84.5779H25.5783L29.2595 91.1812L32.9551 84.5779H34.3015V94.7478H33.0124ZM35.8792 92.5849C35.8792 92.1074 36.0128 91.6968 36.2802 91.353C36.5572 90.9997 36.9344 90.7276 37.4118 90.5366C37.8893 90.3456 38.4431 90.2501 39.0734 90.2501C39.4076 90.2501 39.7609 90.2788 40.1333 90.3361C40.5058 90.3838 40.8352 90.4602 41.1217 90.5652V90.0209C41.1217 89.448 40.9498 88.9992 40.606 88.6745C40.2623 88.3403 39.7752 88.1732 39.145 88.1732C38.7344 88.1732 38.3381 88.2495 37.9561 88.4023C37.5837 88.5456 37.1874 88.7557 36.7672 89.0326L36.3089 88.1445C36.7959 87.8103 37.2829 87.562 37.7699 87.3997C38.2569 87.2278 38.763 87.1418 39.2882 87.1418C40.2432 87.1418 40.9976 87.4092 41.5514 87.944C42.1053 88.4692 42.3822 89.2045 42.3822 90.1498V93.3154C42.3822 93.4682 42.4108 93.5828 42.4681 93.6592C42.535 93.726 42.64 93.7642 42.7833 93.7738V94.7478C42.6591 94.7669 42.5493 94.7812 42.4538 94.7908C42.3679 94.8003 42.2962 94.8051 42.239 94.8051C41.9429 94.8051 41.7185 94.7239 41.5657 94.5616C41.4225 94.3993 41.3413 94.2274 41.3222 94.0459L41.2936 93.5732C40.9689 93.9934 40.544 94.3181 40.0188 94.5473C39.4935 94.7765 38.9731 94.891 38.4575 94.891C37.9609 94.891 37.5169 94.7908 37.1253 94.5902C36.7338 94.3802 36.4282 94.1032 36.2086 93.7595C35.989 93.4061 35.8792 93.0146 35.8792 92.5849ZM40.7493 93.1149C40.8639 92.9812 40.9546 92.8475 41.0214 92.7138C41.0883 92.5706 41.1217 92.4512 41.1217 92.3557V91.4247C40.8257 91.3101 40.5153 91.2241 40.1906 91.1668C39.866 91.1 39.5461 91.0666 39.2309 91.0666C38.5911 91.0666 38.0707 91.1955 37.6696 91.4533C37.2781 91.7016 37.0824 92.0454 37.0824 92.4846C37.0824 92.7234 37.1444 92.9573 37.2686 93.1865C37.4023 93.4061 37.5932 93.5876 37.8415 93.7308C38.0994 93.874 38.4145 93.9457 38.7869 93.9457C39.1784 93.9457 39.5508 93.8693 39.9042 93.7165C40.2575 93.5541 40.5392 93.3536 40.7493 93.1149ZM44.9563 87.2708L46.933 90.0209L47.0476 90.2501L47.1765 90.0209L49.1389 87.2708H50.5426L47.7781 91.0236L50.557 94.7478H49.1532L47.1765 92.0119L47.0476 91.7971L46.933 92.0119L44.9563 94.7478H43.5526L46.3314 91.0236L43.5669 87.2708H44.9563ZM51.6412 94.7478V93.1435H52.7012V94.7478H51.6412ZM60.8239 94.891C60.2032 94.891 59.6207 94.7908 59.0764 94.5902C58.5321 94.3802 58.0642 94.0698 57.6727 93.6592L58.1597 92.7711C58.5894 93.1722 59.0191 93.4587 59.4488 93.6305C59.8786 93.8024 60.3178 93.8884 60.7666 93.8884C61.2823 93.8884 61.7025 93.7929 62.0271 93.6019C62.3518 93.4014 62.5141 93.1101 62.5141 92.7281C62.5141 92.4512 62.4282 92.2459 62.2563 92.1122C62.094 91.9785 61.86 91.8687 61.5544 91.7828C61.2489 91.6873 60.886 91.5822 60.4658 91.4676C59.9502 91.3149 59.5157 91.1525 59.1624 90.9806C58.809 90.8087 58.5417 90.5939 58.3602 90.3361C58.1788 90.0782 58.0881 89.7536 58.0881 89.362C58.0881 88.8846 58.2122 88.4835 58.4605 88.1588C58.7088 87.8246 59.0478 87.5716 59.4775 87.3997C59.9168 87.2278 60.4133 87.1418 60.9672 87.1418C61.521 87.1418 62.0224 87.2278 62.4712 87.3997C62.92 87.5716 63.3067 87.8246 63.6314 88.1588L63.0585 89.0326C62.7624 88.727 62.4378 88.5026 62.0844 88.3594C61.7311 88.2066 61.3348 88.1302 60.8955 88.1302C60.6377 88.1302 60.3847 88.1636 60.1364 88.2304C59.8881 88.2877 59.6828 88.3976 59.5205 88.5599C59.3581 88.7127 59.277 88.9323 59.277 89.2188C59.277 89.4575 59.339 89.6485 59.4632 89.7917C59.5969 89.9254 59.7878 90.04 60.0361 90.1355C60.2939 90.231 60.6043 90.3361 60.9672 90.4506C61.5306 90.613 62.0176 90.7753 62.4282 90.9377C62.8484 91.1 63.173 91.3101 63.4022 91.5679C63.6314 91.8257 63.746 92.1838 63.746 92.6422C63.746 93.3488 63.4786 93.9027 62.9439 94.3038C62.4091 94.6953 61.7025 94.891 60.8239 94.891ZM65.2827 84.2914H66.5432V92.8141C66.5432 93.2247 66.6005 93.4778 66.7151 93.5732C66.8297 93.6687 66.9681 93.7165 67.1305 93.7165C67.331 93.7165 67.522 93.6974 67.7034 93.6592C67.8848 93.6114 68.0376 93.5637 68.1618 93.516L68.3623 94.5473C68.1522 94.6332 67.9039 94.7048 67.6175 94.7621C67.331 94.8194 67.0779 94.8481 66.8583 94.8481C66.3713 94.8481 65.9845 94.7096 65.6981 94.4327C65.4211 94.1558 65.2827 93.769 65.2827 93.2724V84.2914ZM69.3526 94.7478V87.2708H70.6131V94.7478H69.3526ZM69.3526 85.867V84.2914H70.6131V85.867H69.3526ZM76.6788 94.891C76.0676 94.891 75.5233 94.7383 75.0458 94.4327C74.5684 94.1271 74.1912 93.7404 73.9143 93.2724V97.7988H72.6538V87.2708H73.771V88.6745C74.067 88.2161 74.4538 87.8485 74.9313 87.5716C75.4087 87.2851 75.9291 87.1418 76.4926 87.1418C77.0082 87.1418 77.4809 87.2469 77.9106 87.457C78.3403 87.667 78.7127 87.9535 79.0279 88.3164C79.343 88.6793 79.5865 89.0947 79.7584 89.5626C79.9398 90.0209 80.0305 90.5032 80.0305 91.0093C80.0305 91.7159 79.8873 92.3653 79.6008 92.9573C79.3239 93.5494 78.9324 94.0221 78.4263 94.3754C77.9202 94.7192 77.3377 94.891 76.6788 94.891ZM76.292 93.8024C76.6644 93.8024 76.9987 93.726 77.2947 93.5732C77.6003 93.4109 77.8581 93.2008 78.0682 92.943C78.2878 92.6756 78.4549 92.3748 78.5695 92.0406C78.6841 91.7064 78.7414 91.3626 78.7414 91.0093C78.7414 90.6369 78.6746 90.2835 78.5409 89.9493C78.4167 89.6151 78.2353 89.3191 77.9966 89.0612C77.7674 88.8034 77.4952 88.6029 77.1801 88.4596C76.8745 88.3068 76.5403 88.2304 76.1774 88.2304C75.9482 88.2304 75.7095 88.2734 75.4612 88.3594C75.2225 88.4453 74.9933 88.5694 74.7737 88.7318C74.5541 88.8846 74.3678 89.0612 74.2151 89.2618C74.0623 89.4623 73.962 89.6772 73.9143 89.9063V92.0406C74.0575 92.3653 74.2485 92.6613 74.4872 92.9287C74.7259 93.1961 75.0029 93.4109 75.318 93.5732C75.6331 93.726 75.9578 93.8024 76.292 93.8024ZM85.6032 94.891C84.992 94.891 84.4477 94.7383 83.9703 94.4327C83.4928 94.1271 83.1156 93.7404 82.8387 93.2724V97.7988H81.5782V87.2708H82.6954V88.6745C82.9915 88.2161 83.3782 87.8485 83.8557 87.5716C84.3331 87.2851 84.8536 87.1418 85.417 87.1418C85.9326 87.1418 86.4053 87.2469 86.835 87.457C87.2648 87.667 87.6372 87.9535 87.9523 88.3164C88.2674 88.6793 88.5109 89.0947 88.6828 89.5626C88.8643 90.0209 88.955 90.5032 88.955 91.0093C88.955 91.7159 88.8117 92.3653 88.5253 92.9573C88.2483 93.5494 87.8568 94.0221 87.3507 94.3754C86.8446 94.7192 86.2621 94.891 85.6032 94.891ZM85.2164 93.8024C85.5889 93.8024 85.9231 93.726 86.2191 93.5732C86.5247 93.4109 86.7825 93.2008 86.9926 92.943C87.2122 92.6756 87.3794 92.3748 87.4939 92.0406C87.6085 91.7064 87.6658 91.3626 87.6658 91.0093C87.6658 90.6369 87.599 90.2835 87.4653 89.9493C87.3412 89.6151 87.1597 89.3191 86.921 89.0612C86.6918 88.8034 86.4197 88.6029 86.1045 88.4596C85.799 88.3068 85.4647 88.2304 85.1019 88.2304C84.8727 88.2304 84.6339 88.2734 84.3857 88.3594C84.1469 88.4453 83.9178 88.5694 83.6981 88.7318C83.4785 88.8846 83.2923 89.0612 83.1395 89.2618C82.9867 89.4623 82.8864 89.6772 82.8387 89.9063V92.0406C82.9819 92.3653 83.1729 92.6613 83.4116 92.9287C83.6504 93.1961 83.9273 93.4109 84.2424 93.5732C84.5576 93.726 84.8822 93.8024 85.2164 93.8024ZM89.9153 92.5849C89.9153 92.1074 90.049 91.6968 90.3164 91.353C90.5933 90.9997 90.9705 90.7276 91.448 90.5366C91.9255 90.3456 92.4793 90.2501 93.1096 90.2501C93.4438 90.2501 93.7971 90.2788 94.1695 90.3361C94.542 90.3838 94.8714 90.4602 95.1579 90.5652V90.0209C95.1579 89.448 94.986 88.9992 94.6422 88.6745C94.2984 88.3403 93.8114 88.1732 93.1812 88.1732C92.7706 88.1732 92.3743 88.2495 91.9923 88.4023C91.6199 88.5456 91.2236 88.7557 90.8034 89.0326L90.3451 88.1445C90.8321 87.8103 91.3191 87.562 91.8061 87.3997C92.2931 87.2278 92.7992 87.1418 93.3244 87.1418C94.2794 87.1418 95.0337 87.4092 95.5876 87.944C96.1415 88.4692 96.4184 89.2045 96.4184 90.1498V93.3154C96.4184 93.4682 96.447 93.5828 96.5043 93.6592C96.5712 93.726 96.6762 93.7642 96.8194 93.7738V94.7478C96.6953 94.7669 96.5855 94.7812 96.49 94.7908C96.4041 94.8003 96.3324 94.8051 96.2751 94.8051C95.9791 94.8051 95.7547 94.7239 95.6019 94.5616C95.4587 94.3993 95.3775 94.2274 95.3584 94.0459L95.3298 93.5732C95.0051 93.9934 94.5802 94.3181 94.0549 94.5473C93.5297 94.7765 93.0093 94.891 92.4936 94.891C91.9971 94.891 91.553 94.7908 91.1615 94.5902C90.77 94.3802 90.4644 94.1032 90.2448 93.7595C90.0252 93.4061 89.9153 93.0146 89.9153 92.5849ZM94.7855 93.1149C94.9001 92.9812 94.9908 92.8475 95.0576 92.7138C95.1245 92.5706 95.1579 92.4512 95.1579 92.3557V91.4247C94.8619 91.3101 94.5515 91.2241 94.2268 91.1668C93.9022 91.1 93.5823 91.0666 93.2671 91.0666C92.6273 91.0666 92.1069 91.1955 91.7058 91.4533C91.3143 91.7016 91.1186 92.0454 91.1186 92.4846C91.1186 92.7234 91.1806 92.9573 91.3048 93.1865C91.4385 93.4061 91.6294 93.5876 91.8777 93.7308C92.1355 93.874 92.4507 93.9457 92.8231 93.9457C93.2146 93.9457 93.587 93.8693 93.9404 93.7165C94.2937 93.5541 94.5754 93.3536 94.7855 93.1149ZM101.413 94.8337C100.907 94.8337 100.439 94.7335 100.01 94.5329C99.5894 94.3229 99.2265 94.0412 98.9209 93.6878C98.6153 93.325 98.3766 92.9143 98.2047 92.456C98.0424 91.9976 97.9612 91.5202 97.9612 91.0236C97.9612 90.4984 98.0424 90.0018 98.2047 89.5339C98.3766 89.066 98.6153 88.6554 98.9209 88.3021C99.236 87.9392 99.6037 87.6575 100.024 87.457C100.444 87.2469 100.912 87.1418 101.428 87.1418C102.048 87.1418 102.588 87.2946 103.046 87.6002C103.514 87.9058 103.906 88.2925 104.221 88.7604V87.2708H105.338V94.6619C105.338 95.3685 105.166 95.9653 104.822 96.4523C104.488 96.9394 104.03 97.307 103.447 97.5553C102.874 97.8131 102.234 97.942 101.528 97.942C100.688 97.942 100 97.794 99.4652 97.498C98.9305 97.202 98.4864 96.8009 98.1331 96.2948L98.8636 95.6502C99.1596 96.0895 99.5416 96.4189 100.01 96.6386C100.487 96.8582 100.993 96.968 101.528 96.968C101.986 96.968 102.406 96.8821 102.788 96.7102C103.18 96.5478 103.49 96.2948 103.719 95.951C103.958 95.6072 104.078 95.1775 104.078 94.6619V93.3441C103.801 93.8024 103.419 94.1653 102.932 94.4327C102.454 94.7001 101.948 94.8337 101.413 94.8337ZM101.8 93.8024C102.067 93.8024 102.325 93.7547 102.573 93.6592C102.822 93.5637 103.051 93.4396 103.261 93.2868C103.471 93.1244 103.648 92.943 103.791 92.7425C103.934 92.5419 104.03 92.3366 104.078 92.1265V89.978C103.944 89.6342 103.753 89.3334 103.505 89.0756C103.256 88.8082 102.975 88.6029 102.659 88.4596C102.344 88.3068 102.02 88.2304 101.685 88.2304C101.303 88.2304 100.96 88.3116 100.654 88.474C100.358 88.6363 100.105 88.8559 99.8949 89.1329C99.6849 89.4002 99.5225 89.701 99.4079 90.0353C99.2933 90.3695 99.236 90.7085 99.236 91.0522C99.236 91.4247 99.3029 91.778 99.4366 92.1122C99.5703 92.4369 99.7517 92.7281 99.9809 92.986C100.21 93.2438 100.482 93.4443 100.797 93.5876C101.112 93.7308 101.447 93.8024 101.8 93.8024ZM110.681 94.891C110.118 94.891 109.602 94.7908 109.134 94.5902C108.676 94.3802 108.275 94.0985 107.931 93.7451C107.597 93.3823 107.334 92.9669 107.143 92.499C106.962 92.031 106.871 91.5345 106.871 91.0093C106.871 90.3026 107.033 89.6581 107.358 89.0756C107.683 88.4931 108.131 88.0251 108.704 87.6718C109.287 87.3185 109.951 87.1418 110.695 87.1418C111.45 87.1418 112.104 87.3233 112.658 87.6861C113.221 88.0395 113.656 88.5074 113.961 89.0899C114.276 89.6628 114.434 90.2835 114.434 90.952C114.434 91.0475 114.429 91.143 114.42 91.2385C114.42 91.3244 114.415 91.3912 114.405 91.439H108.203C108.241 91.926 108.375 92.3605 108.604 92.7425C108.843 93.1149 109.148 93.4109 109.521 93.6305C109.893 93.8406 110.294 93.9457 110.724 93.9457C111.182 93.9457 111.612 93.8311 112.013 93.6019C112.424 93.3727 112.706 93.0719 112.858 92.6995L113.947 93.0003C113.785 93.3632 113.541 93.6878 113.216 93.9743C112.901 94.2608 112.524 94.4852 112.085 94.6475C111.655 94.8099 111.187 94.891 110.681 94.891ZM108.16 90.5652H113.259C113.221 90.0782 113.083 89.6485 112.844 89.2761C112.605 88.9037 112.3 88.6124 111.927 88.4023C111.555 88.1923 111.144 88.0872 110.695 88.0872C110.256 88.0872 109.85 88.1923 109.478 88.4023C109.106 88.6124 108.8 88.9037 108.561 89.2761C108.332 89.6485 108.198 90.0782 108.16 90.5652Z" fill="white"/>
<g clip-path="url(#clip1_113_214)">
<path d="M127.606 88.0292C127.436 88.0292 127.269 87.9788 127.128 87.8843C126.987 87.7899 126.877 87.6557 126.812 87.4986C126.746 87.3416 126.729 87.1688 126.763 87.0021C126.796 86.8354 126.878 86.6822 126.998 86.562C127.118 86.4418 127.271 86.36 127.438 86.3268C127.605 86.2937 127.777 86.3107 127.934 86.3757C128.091 86.4408 128.226 86.5509 128.32 86.6923C128.415 86.8336 128.465 86.9998 128.465 87.1697C128.465 87.3977 128.374 87.6163 128.213 87.7774C128.052 87.9386 127.833 88.0292 127.606 88.0292Z" fill="#22E16E"/>
<path d="M127.605 95.3345C126.5 95.3345 125.42 95.0068 124.502 94.393C123.583 93.7792 122.867 92.9067 122.444 91.886C122.021 90.8652 121.911 89.742 122.126 88.6583C122.342 87.5747 122.874 86.5793 123.655 85.7981C124.436 85.0168 125.432 84.4848 126.515 84.2692C127.599 84.0537 128.722 84.1643 129.743 84.5871C130.764 85.0099 131.636 85.7259 132.25 86.6446C132.864 87.5633 133.191 88.6433 133.191 89.7482C133.191 91.2298 132.603 92.6506 131.555 93.6983C130.508 94.7459 129.087 95.3345 127.605 95.3345ZM127.605 85.0213C126.67 85.0213 125.756 85.2985 124.979 85.8179C124.202 86.3373 123.596 87.0756 123.238 87.9393C122.88 88.803 122.787 89.7534 122.969 90.6703C123.151 91.5873 123.602 92.4295 124.263 93.0906C124.924 93.7516 125.766 94.2018 126.683 94.3842C127.6 94.5666 128.55 94.473 129.414 94.1152C130.278 93.7575 131.016 93.1516 131.535 92.3743C132.055 91.597 132.332 90.6831 132.332 89.7482C132.332 88.4945 131.834 87.2922 130.948 86.4058C130.061 85.5193 128.859 85.0213 127.605 85.0213Z" fill="#22E16E"/>
<path d="M127.606 93.1866C127.378 93.1866 127.159 93.096 126.998 92.9348C126.837 92.7737 126.746 92.5551 126.746 92.3271V89.7488C126.746 89.5209 126.837 89.3023 126.998 89.1411C127.159 88.98 127.378 88.8894 127.606 88.8894C127.833 88.8894 128.052 88.98 128.213 89.1411C128.374 89.3023 128.465 89.5209 128.465 89.7488V92.3271C128.465 92.5551 128.374 92.7737 128.213 92.9348C128.052 93.096 127.833 93.1866 127.606 93.1866Z" fill="#22E16E"/>
</g>
<path d="M30.1906 132.46C30.076 132.326 29.9232 132.197 29.7322 132.073C29.5412 131.949 29.3264 131.839 29.0876 131.744C28.8489 131.639 28.5863 131.558 28.2998 131.5C28.0229 131.433 27.7316 131.4 27.4261 131.4C26.643 131.4 26.0653 131.548 25.6929 131.844C25.3205 132.14 25.1343 132.546 25.1343 133.062C25.1343 133.424 25.2297 133.711 25.4207 133.921C25.6117 134.131 25.903 134.303 26.2945 134.437C26.6956 134.57 27.2017 134.709 27.8128 134.852C28.5195 135.005 29.1306 135.191 29.6463 135.411C30.1619 135.63 30.5582 135.926 30.8351 136.299C31.1121 136.662 31.2505 137.149 31.2505 137.76C31.2505 138.247 31.155 138.672 30.9641 139.035C30.7826 139.388 30.5248 139.684 30.1906 139.923C29.8564 140.152 29.4648 140.324 29.016 140.438C28.5672 140.543 28.0802 140.596 27.555 140.596C27.0393 140.596 26.5332 140.543 26.0367 140.438C25.5496 140.324 25.0865 140.161 24.6472 139.951C24.208 139.741 23.7974 139.479 23.4154 139.163L24.0313 138.075C24.1841 138.237 24.3799 138.4 24.6186 138.562C24.8669 138.715 25.1438 138.858 25.4494 138.992C25.7645 139.125 26.1035 139.235 26.4664 139.321C26.8292 139.397 27.2017 139.436 27.5836 139.436C28.3094 139.436 28.8728 139.307 29.2738 139.049C29.6749 138.782 29.8755 138.395 29.8755 137.889C29.8755 137.507 29.7609 137.201 29.5317 136.972C29.312 136.743 28.9826 136.552 28.5433 136.399C28.1041 136.246 27.5693 136.093 26.9391 135.941C26.2515 135.769 25.6738 135.583 25.2059 135.382C24.738 135.172 24.3846 134.9 24.1459 134.566C23.9167 134.231 23.8021 133.797 23.8021 133.262C23.8021 132.613 23.9597 132.064 24.2748 131.615C24.5899 131.166 25.0244 130.827 25.5783 130.598C26.1321 130.369 26.7576 130.254 27.4547 130.254C27.9131 130.254 28.338 130.302 28.7295 130.397C29.1306 130.493 29.503 130.626 29.8468 130.798C30.1906 130.97 30.5057 131.176 30.7922 131.414L30.1906 132.46ZM44.0185 140.496H42.758V136.313C42.758 135.53 42.6291 134.952 42.3712 134.58C42.1229 134.207 41.7505 134.021 41.254 134.021C40.7479 134.021 40.2895 134.207 39.8789 134.58C39.4683 134.943 39.177 135.415 39.0051 135.998V140.496H37.7446V136.313C37.7446 135.52 37.6205 134.943 37.3722 134.58C37.1239 134.207 36.7515 134.021 36.2549 134.021C35.7584 134.021 35.3 134.203 34.8798 134.566C34.4692 134.919 34.178 135.392 34.0061 135.984V140.496H32.7456V133.019H33.8915V134.623C34.1971 134.069 34.5934 133.644 35.0804 133.348C35.5674 133.042 36.1165 132.89 36.7276 132.89C37.3483 132.89 37.8449 133.062 38.2173 133.405C38.5897 133.74 38.8189 134.174 38.9049 134.709C39.2391 134.117 39.6449 133.668 40.1224 133.362C40.5998 133.047 41.1441 132.89 41.7553 132.89C42.185 132.89 42.5431 132.971 42.8296 133.133C43.1256 133.286 43.3596 133.506 43.5315 133.792C43.7033 134.069 43.8275 134.398 43.9039 134.78C43.9803 135.162 44.0185 135.578 44.0185 136.027V140.496ZM45.3911 138.333C45.3911 137.855 45.5248 137.445 45.7922 137.101C46.0691 136.748 46.4463 136.475 46.9237 136.284C47.4012 136.093 47.9551 135.998 48.5853 135.998C48.9195 135.998 49.2729 136.027 49.6453 136.084C50.0177 136.132 50.3472 136.208 50.6336 136.313V135.769C50.6336 135.196 50.4617 134.747 50.118 134.422C49.7742 134.088 49.2872 133.921 48.6569 133.921C48.2463 133.921 47.85 133.997 47.4681 134.15C47.0956 134.293 46.6993 134.503 46.2792 134.78L45.8208 133.892C46.3078 133.558 46.7948 133.31 47.2818 133.147C47.7689 132.976 48.275 132.89 48.8002 132.89C49.7551 132.89 50.5095 133.157 51.0633 133.692C51.6172 134.217 51.8941 134.952 51.8941 135.898V139.063C51.8941 139.216 51.9228 139.331 51.9801 139.407C52.0469 139.474 52.152 139.512 52.2952 139.522V140.496C52.1711 140.515 52.0612 140.529 51.9657 140.539C51.8798 140.548 51.8082 140.553 51.7509 140.553C51.4549 140.553 51.2305 140.472 51.0777 140.309C50.9344 140.147 50.8533 139.975 50.8342 139.794L50.8055 139.321C50.4808 139.741 50.0559 140.066 49.5307 140.295C49.0055 140.524 48.485 140.639 47.9694 140.639C47.4728 140.639 47.0288 140.539 46.6373 140.338C46.2458 140.128 45.9402 139.851 45.7205 139.507C45.5009 139.154 45.3911 138.762 45.3911 138.333ZM50.2612 138.863C50.3758 138.729 50.4665 138.595 50.5334 138.462C50.6002 138.318 50.6336 138.199 50.6336 138.104V137.172C50.3376 137.058 50.0273 136.972 49.7026 136.915C49.3779 136.848 49.058 136.814 48.7429 136.814C48.1031 136.814 47.5826 136.943 47.1816 137.201C46.7901 137.449 46.5943 137.793 46.5943 138.232C46.5943 138.471 46.6564 138.705 46.7805 138.934C46.9142 139.154 47.1052 139.335 47.3535 139.479C47.6113 139.622 47.9264 139.693 48.2988 139.693C48.6904 139.693 49.0628 139.617 49.4161 139.464C49.7694 139.302 50.0511 139.101 50.2612 138.863ZM57.863 134.121C57.2328 134.131 56.6742 134.293 56.1871 134.609C55.7097 134.914 55.3707 135.339 55.1701 135.883V140.496H53.9096V133.019H55.0842V134.752C55.342 134.236 55.681 133.821 56.1012 133.506C56.5309 133.181 56.9797 132.999 57.4476 132.961C57.5431 132.961 57.6243 132.961 57.6911 132.961C57.758 132.961 57.8153 132.966 57.863 132.976V134.121ZM62.9807 140.123C62.8756 140.171 62.7324 140.233 62.551 140.309C62.3695 140.386 62.1594 140.453 61.9207 140.51C61.682 140.567 61.4289 140.596 61.1616 140.596C60.856 140.596 60.5743 140.543 60.3164 140.438C60.0586 140.324 59.8533 140.152 59.7005 139.923C59.5477 139.684 59.4713 139.388 59.4713 139.035V134.007H58.4543V133.019H59.4713V130.526H60.7318V133.019H62.4077V134.007H60.7318V138.648C60.7509 138.915 60.8417 139.116 61.004 139.249C61.1663 139.374 61.3573 139.436 61.5769 139.436C61.8252 139.436 62.0544 139.393 62.2645 139.307C62.4746 139.221 62.613 139.159 62.6799 139.121L62.9807 140.123ZM71.7253 134.121C71.095 134.131 70.5364 134.293 70.0494 134.609C69.5719 134.914 69.2329 135.339 69.0324 135.883V140.496H67.7719V133.019H68.9465V134.752C69.2043 134.236 69.5433 133.821 69.9634 133.506C70.3932 133.181 70.842 132.999 71.3099 132.961C71.4054 132.961 71.4865 132.961 71.5534 132.961C71.6202 132.961 71.6775 132.966 71.7253 132.976V134.121ZM76.0595 140.639C75.4961 140.639 74.9852 140.539 74.5268 140.338C74.0685 140.128 73.6722 139.846 73.3379 139.493C73.0037 139.13 72.7459 138.715 72.5645 138.247C72.383 137.779 72.2923 137.287 72.2923 136.771C72.2923 136.246 72.383 135.75 72.5645 135.282C72.7459 134.814 73.0037 134.403 73.3379 134.05C73.6722 133.687 74.0685 133.405 74.5268 133.205C74.9947 132.995 75.5056 132.89 76.0595 132.89C76.6229 132.89 77.1338 132.995 77.5921 133.205C78.0505 133.405 78.4468 133.687 78.781 134.05C79.1248 134.403 79.3874 134.814 79.5688 135.282C79.7503 135.75 79.841 136.246 79.841 136.771C79.841 137.287 79.7503 137.779 79.5688 138.247C79.3874 138.715 79.1296 139.13 78.7953 139.493C78.4611 139.846 78.06 140.128 77.5921 140.338C77.1338 140.539 76.6229 140.639 76.0595 140.639ZM73.5815 136.786C73.5815 137.301 73.6913 137.769 73.9109 138.189C74.1401 138.61 74.4409 138.944 74.8133 139.192C75.1857 139.431 75.6011 139.55 76.0595 139.55C76.5178 139.55 76.9332 139.426 77.3057 139.178C77.6876 138.93 77.9884 138.595 78.2081 138.175C78.4372 137.745 78.5518 137.273 78.5518 136.757C78.5518 136.241 78.4372 135.774 78.2081 135.353C77.9884 134.933 77.6876 134.599 77.3057 134.351C76.9332 134.102 76.5178 133.978 76.0595 133.978C75.6011 133.978 75.1857 134.107 74.8133 134.365C74.4409 134.613 74.1401 134.947 73.9109 135.368C73.6913 135.788 73.5815 136.261 73.5815 136.786ZM81.2968 137.502V133.019H82.5572V137.258C82.5572 138.022 82.6909 138.595 82.9583 138.977C83.2257 139.359 83.622 139.55 84.1472 139.55C84.491 139.55 84.8204 139.479 85.1355 139.335C85.4602 139.183 85.7515 138.968 86.0093 138.691C86.2671 138.414 86.4677 138.084 86.6109 137.702V133.019H87.8714V139.063C87.8714 139.216 87.9 139.331 87.9573 139.407C88.0242 139.474 88.1292 139.512 88.2725 139.522V140.496C88.1292 140.515 88.0146 140.524 87.9287 140.524C87.8523 140.534 87.7759 140.539 87.6995 140.539C87.4608 140.539 87.2555 140.467 87.0836 140.324C86.9117 140.171 86.821 139.985 86.8114 139.765L86.7828 138.891C86.4581 139.445 86.0188 139.875 85.465 140.18C84.9207 140.486 84.3239 140.639 83.6745 140.639C82.8915 140.639 82.2994 140.376 81.8984 139.851C81.4973 139.316 81.2968 138.533 81.2968 137.502ZM93.8385 140.123C93.7335 140.171 93.5902 140.233 93.4088 140.309C93.2274 140.386 93.0173 140.453 92.7785 140.51C92.5398 140.567 92.2868 140.596 92.0194 140.596C91.7138 140.596 91.4321 140.543 91.1743 140.438C90.9164 140.324 90.7111 140.152 90.5584 139.923C90.4056 139.684 90.3292 139.388 90.3292 139.035V134.007H89.3122V133.019H90.3292V130.526H91.5897V133.019H93.2656V134.007H91.5897V138.648C91.6088 138.915 91.6995 139.116 91.8618 139.249C92.0242 139.374 92.2151 139.436 92.4348 139.436C92.6831 139.436 92.9122 139.393 93.1223 139.307C93.3324 139.221 93.4709 139.159 93.5377 139.121L93.8385 140.123ZM95.0068 140.496V133.019H96.2673V140.496H95.0068ZM95.0068 131.615V130.039H96.2673V131.615H95.0068ZM104.797 140.496H103.536V136.313C103.536 135.52 103.412 134.943 103.164 134.58C102.925 134.207 102.557 134.021 102.061 134.021C101.717 134.021 101.373 134.107 101.03 134.279C100.695 134.451 100.395 134.685 100.127 134.981C99.8693 135.267 99.6831 135.602 99.5685 135.984V140.496H98.308V133.019H99.4539V134.623C99.6545 134.27 99.9123 133.964 100.227 133.706C100.543 133.448 100.901 133.248 101.302 133.104C101.703 132.961 102.123 132.89 102.562 132.89C102.992 132.89 103.35 132.971 103.636 133.133C103.933 133.286 104.162 133.506 104.324 133.792C104.496 134.069 104.615 134.398 104.682 134.78C104.759 135.162 104.797 135.578 104.797 136.027V140.496ZM109.736 140.582C109.23 140.582 108.762 140.481 108.332 140.281C107.912 140.071 107.549 139.789 107.244 139.436C106.938 139.073 106.7 138.662 106.528 138.204C106.365 137.745 106.284 137.268 106.284 136.771C106.284 136.246 106.365 135.75 106.528 135.282C106.7 134.814 106.938 134.403 107.244 134.05C107.559 133.687 107.927 133.405 108.347 133.205C108.767 132.995 109.235 132.89 109.751 132.89C110.371 132.89 110.911 133.042 111.369 133.348C111.837 133.654 112.229 134.04 112.544 134.508V133.019H113.661V140.41C113.661 141.116 113.489 141.713 113.145 142.2C112.811 142.687 112.353 143.055 111.77 143.303C111.197 143.561 110.557 143.69 109.851 143.69C109.01 143.69 108.323 143.542 107.788 143.246C107.253 142.95 106.809 142.549 106.456 142.043L107.187 141.398C107.483 141.837 107.865 142.167 108.332 142.386C108.81 142.606 109.316 142.716 109.851 142.716C110.309 142.716 110.729 142.63 111.111 142.458C111.503 142.296 111.813 142.043 112.042 141.699C112.281 141.355 112.4 140.925 112.4 140.41V139.092C112.124 139.55 111.742 139.913 111.255 140.18C110.777 140.448 110.271 140.582 109.736 140.582ZM110.123 139.55C110.39 139.55 110.648 139.502 110.896 139.407C111.145 139.312 111.374 139.187 111.584 139.035C111.794 138.872 111.971 138.691 112.114 138.49C112.257 138.29 112.353 138.084 112.4 137.874V135.726C112.267 135.382 112.076 135.081 111.827 134.823C111.579 134.556 111.298 134.351 110.982 134.207C110.667 134.055 110.343 133.978 110.008 133.978C109.626 133.978 109.283 134.059 108.977 134.222C108.681 134.384 108.428 134.604 108.218 134.881C108.008 135.148 107.845 135.449 107.731 135.783C107.616 136.117 107.559 136.456 107.559 136.8C107.559 137.172 107.626 137.526 107.76 137.86C107.893 138.185 108.075 138.476 108.304 138.734C108.533 138.992 108.805 139.192 109.12 139.335C109.435 139.479 109.77 139.55 110.123 139.55Z" fill="white"/>
<g clip-path="url(#clip2_113_214)">
<path d="M127.606 133.776C127.436 133.776 127.269 133.726 127.128 133.631C126.987 133.537 126.877 133.403 126.812 133.246C126.746 133.089 126.729 132.916 126.763 132.749C126.796 132.582 126.878 132.429 126.998 132.309C127.118 132.189 127.271 132.107 127.438 132.074C127.605 132.041 127.777 132.058 127.934 132.123C128.091 132.188 128.226 132.298 128.32 132.439C128.415 132.581 128.465 132.747 128.465 132.917C128.465 133.145 128.374 133.363 128.213 133.525C128.052 133.686 127.833 133.776 127.606 133.776Z" fill="#22E16E"/>
<path d="M127.605 141.082C126.5 141.082 125.42 140.754 124.502 140.141C123.583 139.527 122.867 138.654 122.444 137.634C122.021 136.613 121.911 135.49 122.126 134.406C122.342 133.322 122.874 132.327 123.655 131.546C124.436 130.764 125.432 130.232 126.515 130.017C127.599 129.801 128.722 129.912 129.743 130.335C130.764 130.757 131.636 131.473 132.25 132.392C132.864 133.311 133.191 134.391 133.191 135.496C133.191 136.977 132.603 138.398 131.555 139.446C130.508 140.493 129.087 141.082 127.605 141.082ZM127.605 130.769C126.67 130.769 125.756 131.046 124.979 131.565C124.202 132.085 123.596 132.823 123.238 133.687C122.88 134.551 122.787 135.501 122.969 136.418C123.151 137.335 123.602 138.177 124.263 138.838C124.924 139.499 125.766 139.949 126.683 140.132C127.6 140.314 128.55 140.221 129.414 139.863C130.278 139.505 131.016 138.899 131.535 138.122C132.055 137.345 132.332 136.431 132.332 135.496C132.332 134.242 131.834 133.04 130.948 132.153C130.061 131.267 128.859 130.769 127.605 130.769Z" fill="#22E16E"/>
<path d="M127.606 138.933C127.378 138.933 127.159 138.842 126.998 138.681C126.837 138.52 126.746 138.301 126.746 138.073V135.495C126.746 135.267 126.837 135.049 126.998 134.887C127.159 134.726 127.378 134.636 127.606 134.636C127.833 134.636 128.052 134.726 128.213 134.887C128.374 135.049 128.465 135.267 128.465 135.495V138.073C128.465 138.301 128.374 138.52 128.213 138.681C128.052 138.842 127.833 138.933 127.606 138.933Z" fill="#22E16E"/>
</g>
<path d="M25.5067 180.451V188.243H24.2175V178.073H25.3061L31.5227 186.023V178.088H32.8118V188.243H31.6373L25.5067 180.451ZM38.2226 188.387C37.6592 188.387 37.1435 188.286 36.6756 188.086C36.2172 187.876 35.8162 187.594 35.4724 187.241C35.1382 186.878 34.8756 186.462 34.6846 185.995C34.5031 185.527 34.4124 185.03 34.4124 184.505C34.4124 183.798 34.5748 183.154 34.8994 182.571C35.2241 181.989 35.6729 181.521 36.2459 181.167C36.8284 180.814 37.492 180.637 38.2369 180.637C38.9913 180.637 39.6454 180.819 40.1993 181.182C40.7627 181.535 41.1972 182.003 41.5027 182.585C41.8179 183.158 41.9754 183.779 41.9754 184.448C41.9754 184.543 41.9706 184.639 41.9611 184.734C41.9611 184.82 41.9563 184.887 41.9468 184.935H35.7445C35.7827 185.422 35.9164 185.856 36.1456 186.238C36.3843 186.61 36.6899 186.907 37.0623 187.126C37.4348 187.336 37.8358 187.441 38.2655 187.441C38.7239 187.441 39.1536 187.327 39.5547 187.097C39.9653 186.868 40.247 186.568 40.3998 186.195L41.4884 186.496C41.3261 186.859 41.0826 187.183 40.7579 187.47C40.4428 187.756 40.0656 187.981 39.6263 188.143C39.1966 188.305 38.7287 188.387 38.2226 188.387ZM35.7016 184.061H40.8009C40.7627 183.574 40.6242 183.144 40.3855 182.772C40.1467 182.399 39.8412 182.108 39.4687 181.898C39.0963 181.688 38.6857 181.583 38.2369 181.583C37.7976 181.583 37.3918 181.688 37.0194 181.898C36.6469 182.108 36.3414 182.399 36.1026 182.772C35.8735 183.144 35.7398 183.574 35.7016 184.061ZM47.1741 187.871C47.069 187.919 46.9258 187.981 46.7444 188.057C46.5629 188.134 46.3528 188.2 46.1141 188.258C45.8754 188.315 45.6223 188.344 45.355 188.344C45.0494 188.344 44.7677 188.291 44.5098 188.186C44.252 188.072 44.0467 187.9 43.8939 187.67C43.7411 187.432 43.6647 187.136 43.6647 186.782V181.755H42.6477V180.766H43.6647V178.274H44.9252V180.766H46.6011V181.755H44.9252V186.396C44.9443 186.663 45.0351 186.864 45.1974 186.997C45.3597 187.121 45.5507 187.183 45.7703 187.183C46.0186 187.183 46.2478 187.14 46.4579 187.055C46.668 186.969 46.8064 186.907 46.8733 186.868L47.1741 187.871ZM57.7102 180.766H58.9277L55.7478 188.243H54.6449L53.1982 184.72L51.7658 188.243H50.6628L47.4829 180.766H48.6861L51.2644 186.997L52.4676 183.932L51.2071 180.781H52.3101L53.1982 183.158L54.0862 180.781H55.1892L53.943 183.932L55.1462 186.997L57.7102 180.766ZM63.1204 188.387C62.557 188.387 62.0462 188.286 61.5878 188.086C61.1294 187.876 60.7331 187.594 60.3989 187.241C60.0647 186.878 59.8069 186.462 59.6254 185.995C59.444 185.527 59.3533 185.035 59.3533 184.519C59.3533 183.994 59.444 183.497 59.6254 183.03C59.8069 182.562 60.0647 182.151 60.3989 181.798C60.7331 181.435 61.1294 181.153 61.5878 180.953C62.0557 180.742 62.5666 180.637 63.1204 180.637C63.6839 180.637 64.1947 180.742 64.6531 180.953C65.1115 181.153 65.5078 181.435 65.842 181.798C66.1858 182.151 66.4484 182.562 66.6298 183.03C66.8112 183.497 66.9019 183.994 66.9019 184.519C66.9019 185.035 66.8112 185.527 66.6298 185.995C66.4484 186.462 66.1905 186.878 65.8563 187.241C65.5221 187.594 65.121 187.876 64.6531 188.086C64.1947 188.286 63.6839 188.387 63.1204 188.387ZM60.6424 184.534C60.6424 185.049 60.7522 185.517 60.9719 185.937C61.2011 186.357 61.5019 186.692 61.8743 186.94C62.2467 187.179 62.6621 187.298 63.1204 187.298C63.5788 187.298 63.9942 187.174 64.3666 186.926C64.7486 186.677 65.0494 186.343 65.269 185.923C65.4982 185.493 65.6128 185.021 65.6128 184.505C65.6128 183.989 65.4982 183.521 65.269 183.101C65.0494 182.681 64.7486 182.347 64.3666 182.098C63.9942 181.85 63.5788 181.726 63.1204 181.726C62.6621 181.726 62.2467 181.855 61.8743 182.113C61.5019 182.361 61.2011 182.695 60.9719 183.115C60.7522 183.536 60.6424 184.008 60.6424 184.534ZM72.3827 181.869C71.7525 181.879 71.1938 182.041 70.7068 182.356C70.2294 182.662 69.8904 183.087 69.6898 183.631V188.243H68.4293V180.766H69.6039V182.5C69.8617 181.984 70.2007 181.568 70.6209 181.253C71.0506 180.929 71.4994 180.747 71.9673 180.709C72.0628 180.709 72.144 180.709 72.2108 180.709C72.2777 180.709 72.335 180.714 72.3827 180.723V181.869ZM78.9041 188.243L76.3115 184.605L74.8934 185.937V188.243H73.6329V177.787H74.8934V184.619L78.7609 180.781H80.1216L77.1423 183.875L80.2649 188.243H78.9041ZM88.2861 188.387C87.7227 188.387 87.2071 188.286 86.7391 188.086C86.2808 187.876 85.8797 187.589 85.5359 187.226C85.2017 186.864 84.9391 186.448 84.7481 185.98C84.5667 185.512 84.476 185.016 84.476 184.491C84.476 183.784 84.6335 183.139 84.9487 182.557C85.2638 181.974 85.7078 181.511 86.2808 181.167C86.8537 180.814 87.5174 180.637 88.2718 180.637C89.0071 180.637 89.6469 180.805 90.1912 181.139C90.745 181.463 91.1557 181.903 91.423 182.457L90.1912 182.843C90.0002 182.49 89.7328 182.218 89.3891 182.027C89.0453 181.826 88.6633 181.726 88.2431 181.726C87.7848 181.726 87.3646 181.845 86.9826 182.084C86.6102 182.323 86.3142 182.652 86.0946 183.072C85.8749 183.483 85.7651 183.956 85.7651 184.491C85.7651 185.016 85.8749 185.493 86.0946 185.923C86.3238 186.343 86.6246 186.677 86.997 186.926C87.3789 187.174 87.7991 187.298 88.2575 187.298C88.5535 187.298 88.8352 187.246 89.1026 187.14C89.3795 187.035 89.6182 186.897 89.8188 186.725C90.0289 186.544 90.1721 186.348 90.2485 186.138L91.4803 186.51C91.3276 186.873 91.0936 187.198 90.7785 187.484C90.4729 187.761 90.1053 187.981 89.6755 188.143C89.2554 188.305 88.7922 188.387 88.2861 188.387ZM96.1045 188.387C95.5411 188.387 95.0302 188.286 94.5718 188.086C94.1135 187.876 93.7172 187.594 93.3829 187.241C93.0487 186.878 92.7909 186.462 92.6095 185.995C92.428 185.527 92.3373 185.035 92.3373 184.519C92.3373 183.994 92.428 183.497 92.6095 183.03C92.7909 182.562 93.0487 182.151 93.3829 181.798C93.7172 181.435 94.1135 181.153 94.5718 180.953C95.0397 180.742 95.5506 180.637 96.1045 180.637C96.6679 180.637 97.1788 180.742 97.6371 180.953C98.0955 181.153 98.4918 181.435 98.826 181.798C99.1698 182.151 99.4324 182.562 99.6138 183.03C99.7953 183.497 99.886 183.994 99.886 184.519C99.886 185.035 99.7953 185.527 99.6138 185.995C99.4324 186.462 99.1746 186.878 98.8403 187.241C98.5061 187.594 98.105 187.876 97.6371 188.086C97.1788 188.286 96.6679 188.387 96.1045 188.387ZM93.6265 184.534C93.6265 185.049 93.7363 185.517 93.9559 185.937C94.1851 186.357 94.4859 186.692 94.8583 186.94C95.2307 187.179 95.6461 187.298 96.1045 187.298C96.5628 187.298 96.9782 187.174 97.3507 186.926C97.7326 186.677 98.0334 186.343 98.2531 185.923C98.4822 185.493 98.5968 185.021 98.5968 184.505C98.5968 183.989 98.4822 183.521 98.2531 183.101C98.0334 182.681 97.7326 182.347 97.3507 182.098C96.9782 181.85 96.5628 181.726 96.1045 181.726C95.6461 181.726 95.2307 181.855 94.8583 182.113C94.4859 182.361 94.1851 182.695 93.9559 183.115C93.7363 183.536 93.6265 184.008 93.6265 184.534ZM103.977 188.387C103.357 188.387 102.774 188.286 102.23 188.086C101.686 187.876 101.218 187.565 100.826 187.155L101.313 186.267C101.743 186.668 102.173 186.954 102.602 187.126C103.032 187.298 103.471 187.384 103.92 187.384C104.436 187.384 104.856 187.288 105.181 187.097C105.505 186.897 105.668 186.606 105.668 186.224C105.668 185.947 105.582 185.742 105.41 185.608C105.247 185.474 105.013 185.364 104.708 185.278C104.402 185.183 104.039 185.078 103.619 184.963C103.104 184.81 102.669 184.648 102.316 184.476C101.962 184.304 101.695 184.089 101.514 183.832C101.332 183.574 101.241 183.249 101.241 182.858C101.241 182.38 101.366 181.979 101.614 181.654C101.862 181.32 102.201 181.067 102.631 180.895C103.07 180.723 103.567 180.637 104.121 180.637C104.674 180.637 105.176 180.723 105.625 180.895C106.073 181.067 106.46 181.32 106.785 181.654L106.212 182.528C105.916 182.223 105.591 181.998 105.238 181.855C104.885 181.702 104.488 181.626 104.049 181.626C103.791 181.626 103.538 181.659 103.29 181.726C103.042 181.783 102.836 181.893 102.674 182.056C102.512 182.208 102.43 182.428 102.43 182.714C102.43 182.953 102.492 183.144 102.617 183.287C102.75 183.421 102.941 183.536 103.19 183.631C103.447 183.727 103.758 183.832 104.121 183.946C104.684 184.109 105.171 184.271 105.582 184.433C106.002 184.596 106.326 184.806 106.556 185.064C106.785 185.321 106.899 185.679 106.899 186.138C106.899 186.844 106.632 187.398 106.097 187.799C105.563 188.191 104.856 188.387 103.977 188.387ZM112.275 187.871C112.17 187.919 112.027 187.981 111.845 188.057C111.664 188.134 111.454 188.2 111.215 188.258C110.976 188.315 110.723 188.344 110.456 188.344C110.15 188.344 109.868 188.291 109.611 188.186C109.353 188.072 109.148 187.9 108.995 187.67C108.842 187.432 108.766 187.136 108.766 186.782V181.755H107.749V180.766H108.766V178.274H110.026V180.766H111.702V181.755H110.026V186.396C110.045 186.663 110.136 186.864 110.298 186.997C110.461 187.121 110.652 187.183 110.871 187.183C111.119 187.183 111.349 187.14 111.559 187.055C111.769 186.969 111.907 186.907 111.974 186.868L112.275 187.871Z" fill="white"/>
<g clip-path="url(#clip3_113_214)">
<path d="M126.705 181.692C126.535 181.692 126.369 181.642 126.227 181.547C126.086 181.453 125.976 181.319 125.911 181.161C125.846 181.004 125.829 180.832 125.862 180.665C125.895 180.498 125.977 180.345 126.097 180.225C126.217 180.105 126.37 180.023 126.537 179.99C126.704 179.956 126.876 179.974 127.034 180.039C127.191 180.104 127.325 180.214 127.419 180.355C127.514 180.496 127.564 180.663 127.564 180.833C127.564 181.061 127.474 181.279 127.312 181.44C127.151 181.601 126.933 181.692 126.705 181.692Z" fill="#22E16E"/>
<path d="M126.705 188.998C125.6 188.998 124.52 188.67 123.601 188.056C122.683 187.442 121.967 186.57 121.544 185.549C121.121 184.528 121.01 183.405 121.226 182.321C121.442 181.238 121.974 180.242 122.755 179.461C123.536 178.68 124.531 178.148 125.615 177.932C126.699 177.717 127.822 177.827 128.843 178.25C129.864 178.673 130.736 179.389 131.35 180.308C131.964 181.226 132.291 182.306 132.291 183.411C132.291 184.893 131.703 186.314 130.655 187.361C129.607 188.409 128.187 188.998 126.705 188.998ZM126.705 178.684C125.77 178.684 124.856 178.962 124.079 179.481C123.302 180 122.696 180.739 122.338 181.602C121.98 182.466 121.887 183.417 122.069 184.333C122.251 185.25 122.701 186.093 123.363 186.754C124.024 187.415 124.866 187.865 125.783 188.047C126.7 188.23 127.65 188.136 128.514 187.778C129.378 187.421 130.116 186.815 130.635 186.037C131.155 185.26 131.432 184.346 131.432 183.411C131.432 182.158 130.934 180.955 130.047 180.069C129.161 179.182 127.959 178.684 126.705 178.684Z" fill="#22E16E"/>
<path d="M126.705 186.849C126.477 186.849 126.258 186.758 126.097 186.597C125.936 186.436 125.845 186.217 125.845 185.989V183.411C125.845 183.183 125.936 182.964 126.097 182.803C126.258 182.642 126.477 182.552 126.705 182.552C126.933 182.552 127.151 182.642 127.312 182.803C127.474 182.964 127.564 183.183 127.564 183.411V185.989C127.564 186.217 127.474 186.436 127.312 186.597C127.151 186.758 126.933 186.849 126.705 186.849Z" fill="#22E16E"/>
</g>
<path d="M24.2175 236.326V226.156H30.9354V227.302H25.5067V230.696H30.076V231.771H25.5067V236.326H24.2175ZM35.2151 236.469C34.6517 236.469 34.1361 236.369 33.6681 236.168C33.2098 235.958 32.8087 235.676 32.4649 235.323C32.1307 234.96 31.8681 234.545 31.6771 234.077C31.4957 233.609 31.405 233.112 31.405 232.587C31.405 231.881 31.5673 231.236 31.892 230.653C32.2167 230.071 32.6655 229.603 33.2384 229.25C33.8209 228.896 34.4846 228.72 35.2294 228.72C35.9838 228.72 36.638 228.901 37.1918 229.264C37.7552 229.617 38.1897 230.085 38.4953 230.668C38.8104 231.241 38.968 231.861 38.968 232.53C38.968 232.625 38.9632 232.721 38.9536 232.816C38.9536 232.902 38.9489 232.969 38.9393 233.017H32.7371C32.7753 233.504 32.909 233.938 33.1382 234.32C33.3769 234.693 33.6825 234.989 34.0549 235.208C34.4273 235.419 34.8284 235.524 35.2581 235.524C35.7165 235.524 36.1462 235.409 36.5472 235.18C36.9579 234.951 37.2396 234.65 37.3923 234.277L38.481 234.578C38.3186 234.941 38.0751 235.266 37.7504 235.552C37.4353 235.839 37.0581 236.063 36.6189 236.225C36.1891 236.388 35.7212 236.469 35.2151 236.469ZM32.6941 232.143H37.7934C37.7552 231.656 37.6167 231.226 37.378 230.854C37.1393 230.482 36.8337 230.19 36.4613 229.98C36.0889 229.77 35.6783 229.665 35.2294 229.665C34.7902 229.665 34.3843 229.77 34.0119 229.98C33.6395 230.19 33.3339 230.482 33.0952 230.854C32.866 231.226 32.7323 231.656 32.6941 232.143ZM43.6779 236.469C43.1145 236.469 42.5989 236.369 42.131 236.168C41.6726 235.958 41.2715 235.676 40.9278 235.323C40.5935 234.96 40.3309 234.545 40.1399 234.077C39.9585 233.609 39.8678 233.112 39.8678 232.587C39.8678 231.881 40.0301 231.236 40.3548 230.653C40.6795 230.071 41.1283 229.603 41.7012 229.25C42.2838 228.896 42.9474 228.72 43.6923 228.72C44.4467 228.72 45.1008 228.901 45.6546 229.264C46.218 229.617 46.6525 230.085 46.9581 230.668C47.2732 231.241 47.4308 231.861 47.4308 232.53C47.4308 232.625 47.426 232.721 47.4165 232.816C47.4165 232.902 47.4117 232.969 47.4021 233.017H41.1999C41.2381 233.504 41.3718 233.938 41.601 234.32C41.8397 234.693 42.1453 234.989 42.5177 235.208C42.8901 235.419 43.2912 235.524 43.7209 235.524C44.1793 235.524 44.609 235.409 45.0101 235.18C45.4207 234.951 45.7024 234.65 45.8552 234.277L46.9438 234.578C46.7814 234.941 46.5379 235.266 46.2133 235.552C45.8981 235.839 45.5209 236.063 45.0817 236.225C44.652 236.388 44.184 236.469 43.6779 236.469ZM41.1569 232.143H46.2562C46.218 231.656 46.0796 231.226 45.8408 230.854C45.6021 230.482 45.2965 230.19 44.9241 229.98C44.5517 229.77 44.1411 229.665 43.6923 229.665C43.253 229.665 42.8472 229.77 42.4747 229.98C42.1023 230.19 41.7967 230.482 41.558 230.854C41.3288 231.226 41.1951 231.656 41.1569 232.143Z" fill="white"/>
<g clip-path="url(#clip4_113_214)">
<path d="M60.6055 229.607C60.4355 229.607 60.2694 229.557 60.1281 229.462C59.9867 229.368 59.8766 229.234 59.8115 229.077C59.7465 228.92 59.7294 228.747 59.7626 228.58C59.7958 228.413 59.8776 228.26 59.9978 228.14C60.118 228.02 60.2711 227.938 60.4379 227.905C60.6046 227.872 60.7774 227.889 60.9344 227.954C61.0915 228.019 61.2257 228.129 61.3201 228.27C61.4146 228.412 61.465 228.578 61.465 228.748C61.465 228.976 61.3744 229.194 61.2132 229.356C61.0521 229.517 60.8335 229.607 60.6055 229.607Z" fill="#22E16E"/>
<path d="M60.6056 236.912C59.5007 236.912 58.4207 236.584 57.502 235.971C56.5833 235.357 55.8673 234.484 55.4445 233.464C55.0217 232.443 54.9111 231.32 55.1266 230.236C55.3422 229.152 55.8742 228.157 56.6555 227.376C57.4367 226.594 58.4321 226.062 59.5158 225.847C60.5994 225.631 61.7226 225.742 62.7434 226.165C63.7641 226.588 64.6366 227.304 65.2504 228.222C65.8643 229.141 66.1919 230.221 66.1919 231.326C66.1919 232.807 65.6033 234.228 64.5557 235.276C63.5081 236.324 62.0872 236.912 60.6056 236.912ZM60.6056 226.599C59.6707 226.599 58.7568 226.876 57.9795 227.396C57.2022 227.915 56.5963 228.653 56.2385 229.517C55.8808 230.381 55.7872 231.331 55.9695 232.248C56.1519 233.165 56.6021 234.007 57.2632 234.668C57.9243 235.329 58.7665 235.779 59.6834 235.962C60.6003 236.144 61.5508 236.051 62.4145 235.693C63.2782 235.335 64.0164 234.729 64.5358 233.952C65.0552 233.175 65.3325 232.261 65.3325 231.326C65.3325 230.072 64.8345 228.87 63.948 227.983C63.0615 227.097 61.8592 226.599 60.6056 226.599Z" fill="#22E16E"/>
<path d="M60.6055 234.764C60.3776 234.764 60.159 234.673 59.9978 234.512C59.8366 234.351 59.7461 234.132 59.7461 233.905V231.326C59.7461 231.098 59.8366 230.88 59.9978 230.719C60.159 230.557 60.3776 230.467 60.6055 230.467C60.8335 230.467 61.0521 230.557 61.2132 230.719C61.3744 230.88 61.465 231.098 61.465 231.326V233.905C61.465 234.132 61.3744 234.351 61.2132 234.512C61.0521 234.673 60.8335 234.764 60.6055 234.764Z" fill="#22E16E"/>
</g>
<defs>
<clipPath id="clip0_113_214">
<rect width="13.7509" height="13.7509" fill="white" transform="translate(142.729 37.1245)"/>
</clipPath>
<clipPath id="clip1_113_214">
<rect width="13.7509" height="13.7509" fill="white" transform="translate(120.729 82.8723)"/>
</clipPath>
<clipPath id="clip2_113_214">
<rect width="13.7509" height="13.7509" fill="white" transform="translate(120.729 128.62)"/>
</clipPath>
<clipPath id="clip3_113_214">
<rect width="13.7509" height="13.7509" fill="white" transform="translate(119.829 176.535)"/>
</clipPath>
<clipPath id="clip4_113_214">
<rect width="13.7509" height="13.7509" fill="white" transform="translate(53.7295 224.45)"/>
</clipPath>
</defs>
</svg>
