<svg width="296" height="276" viewBox="0 0 296 276" fill="none" xmlns="http://www.w3.org/2000/svg">
<rect width="296" height="276" rx="5" fill="#121212"/>
<path d="M40.0257 63.1301C39.1583 63.1301 38.3288 63 37.5373 62.7398C36.7457 62.4687 36.1222 62.1217 35.6668 61.6988L36.2686 60.4302C36.7023 60.8097 37.2553 61.1242 37.9276 61.3736C38.5999 61.6229 39.2992 61.7476 40.0257 61.7476C40.6871 61.7476 41.2239 61.6717 41.6359 61.5199C42.0479 61.3681 42.3515 61.1621 42.5467 60.9019C42.7419 60.6308 42.8395 60.3272 42.8395 59.9911C42.8395 59.6007 42.7094 59.2863 42.4491 59.0477C42.1997 58.8092 41.869 58.6194 41.457 58.4785C41.0558 58.3267 40.6112 58.1966 40.1233 58.0881C39.6354 57.9797 39.142 57.855 38.6432 57.7141C38.1553 57.5622 37.7053 57.3725 37.2933 57.1448C36.8921 56.9171 36.5668 56.6135 36.3174 56.234C36.068 55.8436 35.9433 55.3449 35.9433 54.7377C35.9433 54.1521 36.0951 53.6154 36.3987 53.1275C36.7132 52.6287 37.1903 52.2329 37.83 51.9402C38.4806 51.6366 39.3047 51.4848 40.3022 51.4848C40.9636 51.4848 41.6196 51.5715 42.2702 51.745C42.9208 51.9185 43.4846 52.1679 43.9617 52.4932L43.425 53.7943C42.9371 53.469 42.422 53.2359 41.8799 53.0949C41.3377 52.9431 40.8118 52.8672 40.3022 52.8672C39.6625 52.8672 39.1366 52.9486 38.7246 53.1112C38.3125 53.2739 38.0089 53.4907 37.8138 53.7618C37.6294 54.0329 37.5373 54.3365 37.5373 54.6726C37.5373 55.0738 37.6619 55.3937 37.9113 55.6322C38.1716 55.8707 38.5023 56.0605 38.9035 56.2015C39.3155 56.3424 39.7655 56.4725 40.2534 56.5918C40.7414 56.7002 41.2293 56.8249 41.7172 56.9659C42.216 57.1068 42.666 57.2912 43.0672 57.5189C43.4792 57.7466 43.8099 58.0502 44.0593 58.4297C44.3087 58.8092 44.4334 59.2971 44.4334 59.8935C44.4334 60.4682 44.2762 61.0049 43.9617 61.5037C43.6473 61.9916 43.1593 62.3874 42.4979 62.691C41.8473 62.9837 41.0233 63.1301 40.0257 63.1301ZM50.4202 63.0976C49.4986 63.0976 48.6854 62.9078 47.9806 62.5283C47.2866 62.1488 46.7445 61.6284 46.3541 60.9669C45.9746 60.3055 45.7849 59.5465 45.7849 58.6899C45.7849 57.8333 45.9692 57.0743 46.3379 56.4129C46.7174 55.7515 47.2324 55.2364 47.883 54.8678C48.5444 54.4883 49.2871 54.2985 50.1112 54.2985C50.9461 54.2985 51.6834 54.4828 52.3232 54.8515C52.9629 55.2202 53.4617 55.7406 53.8195 56.4129C54.1882 57.0743 54.3725 57.8496 54.3725 58.7387C54.3725 58.8038 54.3671 58.8797 54.3562 58.9664C54.3562 59.0532 54.3508 59.1345 54.34 59.2104H47.0047V58.0881H53.5267L52.8924 58.4785C52.9033 57.9255 52.7894 57.4321 52.5509 56.9984C52.3123 56.5647 51.9816 56.2286 51.5587 55.99C51.1467 55.7406 50.6642 55.6159 50.1112 55.6159C49.5691 55.6159 49.0865 55.7406 48.6637 55.99C48.2408 56.2286 47.9101 56.5701 47.6715 57.0147C47.433 57.4484 47.3137 57.9472 47.3137 58.511V58.7712C47.3137 59.3459 47.4438 59.861 47.7041 60.3164C47.9751 60.7609 48.3492 61.1079 48.8263 61.3573C49.3034 61.6067 49.851 61.7314 50.469 61.7314C50.9786 61.7314 51.4395 61.6446 51.8515 61.4711C52.2744 61.2977 52.643 61.0374 52.9575 60.6904L53.8195 61.6988C53.4292 62.1542 52.9412 62.5012 52.3557 62.7398C51.781 62.9783 51.1359 63.0976 50.4202 63.0976ZM59.5008 63.0976C58.6333 63.0976 57.9611 62.8645 57.484 62.3982C57.0069 61.932 56.7683 61.2651 56.7683 60.3977V52.4932H58.3297V60.3326C58.3297 60.7989 58.4436 61.1567 58.6713 61.4061C58.9098 61.6555 59.2459 61.7802 59.6797 61.7802C60.1676 61.7802 60.5742 61.6446 60.8995 61.3736L61.3874 62.4958C61.1489 62.7018 60.8615 62.8536 60.5254 62.9512C60.2001 63.0488 59.8586 63.0976 59.5008 63.0976ZM55.3045 55.6647V54.3798H60.8019V55.6647H55.3045ZM66.0288 63.0976C65.1613 63.0976 64.4891 62.8645 64.012 62.3982C63.5349 61.932 63.2963 61.2651 63.2963 60.3977V52.4932H64.8577V60.3326C64.8577 60.7989 64.9716 61.1567 65.1993 61.4061C65.4378 61.6555 65.774 61.7802 66.2077 61.7802C66.6956 61.7802 67.1022 61.6446 67.4275 61.3736L67.9155 62.4958C67.6769 62.7018 67.3896 62.8536 67.0534 62.9512C66.7281 63.0488 66.3866 63.0976 66.0288 63.0976ZM61.8325 55.6647V54.3798H67.3299V55.6647H61.8325ZM69.8031 63V54.3798H71.3645V63H69.8031ZM70.5838 52.7209C70.2802 52.7209 70.0254 52.6233 69.8194 52.4281C69.6242 52.2329 69.5267 51.9944 69.5267 51.7125C69.5267 51.4197 69.6242 51.1757 69.8194 50.9806C70.0254 50.7854 70.2802 50.6878 70.5838 50.6878C70.8874 50.6878 71.1368 50.7854 71.332 50.9806C71.538 51.1649 71.641 51.398 71.641 51.6799C71.641 51.9727 71.5434 52.2221 71.3483 52.4281C71.1531 52.6233 70.8983 52.7209 70.5838 52.7209ZM78.9486 54.2985C79.6534 54.2985 80.2714 54.4341 80.8028 54.7051C81.3449 54.9762 81.7678 55.3882 82.0714 55.9412C82.375 56.4942 82.5268 57.1936 82.5268 58.0393V63H80.9654V58.2182C80.9654 57.3833 80.7594 56.7544 80.3473 56.3316C79.9462 55.9087 79.3769 55.6973 78.6396 55.6973C78.0866 55.6973 77.6041 55.8057 77.192 56.0225C76.78 56.2394 76.4601 56.5593 76.2324 56.9821C76.0156 57.405 75.9072 57.9309 75.9072 58.5598V63H74.3458V54.3798H75.8421V56.7057L75.5981 56.0876C75.88 55.5238 76.3138 55.0846 76.8993 54.7702C77.4848 54.4557 78.1679 54.2985 78.9486 54.2985ZM89.1897 66.2529C88.3982 66.2529 87.6284 66.139 86.8802 65.9113C86.1429 65.6945 85.5411 65.38 85.0748 64.968L85.823 63.7644C86.2242 64.1114 86.7176 64.3825 87.3031 64.5777C87.8886 64.7837 88.5012 64.8867 89.141 64.8867C90.1602 64.8867 90.9084 64.6481 91.3855 64.171C91.8625 63.694 92.1011 62.9675 92.1011 61.9916V60.17L92.2637 58.4622L92.1824 56.7382V54.3798H93.6625V61.829C93.6625 63.347 93.283 64.4638 92.524 65.1794C91.765 65.8951 90.6536 66.2529 89.1897 66.2529ZM88.9946 62.6422C88.1597 62.6422 87.4115 62.4687 86.7501 62.1217C86.0995 61.7639 85.579 61.2705 85.1887 60.6417C84.8092 60.0128 84.6194 59.2863 84.6194 58.4622C84.6194 57.6273 84.8092 56.9008 85.1887 56.2828C85.579 55.6539 86.0995 55.166 86.7501 54.819C87.4115 54.472 88.1597 54.2985 88.9946 54.2985C89.7319 54.2985 90.4042 54.4503 91.0114 54.7539C91.6186 55.0467 92.1011 55.5021 92.4589 56.1201C92.8276 56.7382 93.0119 57.5189 93.0119 58.4622C93.0119 59.3947 92.8276 60.17 92.4589 60.788C92.1011 61.4061 91.6186 61.8723 91.0114 62.1868C90.4042 62.4904 89.7319 62.6422 88.9946 62.6422ZM89.1735 61.276C89.7482 61.276 90.2578 61.1567 90.7023 60.9181C91.1469 60.6796 91.4939 60.3489 91.7433 59.926C92.0035 59.5031 92.1336 59.0152 92.1336 58.4622C92.1336 57.9092 92.0035 57.4213 91.7433 56.9984C91.4939 56.5755 91.1469 56.2502 90.7023 56.0225C90.2578 55.784 89.7482 55.6647 89.1735 55.6647C88.5988 55.6647 88.0838 55.784 87.6284 56.0225C87.1838 56.2502 86.8314 56.5755 86.5712 56.9984C86.3218 57.4213 86.1971 57.9092 86.1971 58.4622C86.1971 59.0152 86.3218 59.5031 86.5712 59.926C86.8314 60.3489 87.1838 60.6796 87.6284 60.9181C88.0838 61.1567 88.5988 61.276 89.1735 61.276ZM99.1181 63.0976C98.4024 63.0976 97.7193 63 97.0687 62.8048C96.429 62.6097 95.9248 62.3711 95.5561 62.0892L96.2067 60.8531C96.5754 61.1025 97.0308 61.3139 97.5729 61.4874C98.1151 61.6609 98.6681 61.7476 99.2319 61.7476C99.9584 61.7476 100.479 61.6446 100.793 61.4386C101.119 61.2326 101.281 60.9453 101.281 60.5766C101.281 60.3055 101.184 60.0941 100.988 59.9423C100.793 59.7905 100.533 59.6766 100.208 59.6007C99.8933 59.5248 99.5409 59.4598 99.1506 59.4056C98.7602 59.3405 98.3699 59.2646 97.9795 59.1779C97.5892 59.0803 97.2314 58.9501 96.9061 58.7875C96.5808 58.614 96.3206 58.3809 96.1254 58.0881C95.9302 57.7845 95.8326 57.3833 95.8326 56.8846C95.8326 56.3641 95.979 55.9087 96.2718 55.5183C96.5645 55.128 96.9766 54.8298 97.5079 54.6238C98.05 54.4069 98.6898 54.2985 99.4271 54.2985C99.9909 54.2985 100.56 54.369 101.135 54.51C101.72 54.6401 102.197 54.8298 102.566 55.0792L101.899 56.3153C101.509 56.0551 101.102 55.8762 100.679 55.7786C100.257 55.681 99.8337 55.6322 99.4108 55.6322C98.7277 55.6322 98.2181 55.7461 97.882 55.9738C97.5458 56.1906 97.3778 56.4725 97.3778 56.8195C97.3778 57.1123 97.4753 57.34 97.6705 57.5026C97.8765 57.6544 98.1368 57.7737 98.4512 57.8604C98.7765 57.9472 99.1343 58.0231 99.5247 58.0881C99.915 58.1423 100.305 58.2182 100.696 58.3158C101.086 58.4026 101.438 58.5273 101.753 58.6899C102.078 58.8526 102.338 59.0803 102.534 59.373C102.74 59.6658 102.843 60.0561 102.843 60.5441C102.843 61.0645 102.691 61.5145 102.387 61.894C102.084 62.2735 101.655 62.5717 101.102 62.7886C100.549 62.9946 99.8879 63.0976 99.1181 63.0976Z" fill="white"/>
<path d="M249.397 52L258.546 61.1488" stroke="white" stroke-width="1.28875" stroke-linecap="round"/>
<path d="M249.397 61.1489L258.546 52.0002" stroke="white" stroke-width="1.28875" stroke-linecap="round"/>
<path d="M235.578 104L238.807 96.8681H239.816L243.056 104H241.986L239.103 97.4387H239.51L236.627 104H235.578ZM236.953 102.217L237.228 101.402H241.242L241.538 102.217H236.953ZM246.15 104.061C245.688 104.061 245.28 103.976 244.927 103.806C244.581 103.637 244.309 103.379 244.112 103.032C243.922 102.679 243.827 102.237 243.827 101.708V98.6001H244.805V101.596C244.805 102.125 244.931 102.523 245.182 102.788C245.44 103.052 245.8 103.185 246.262 103.185C246.601 103.185 246.897 103.117 247.148 102.981C247.4 102.839 247.593 102.635 247.729 102.37C247.865 102.098 247.933 101.772 247.933 101.392V98.6001H248.911V104H247.984V102.543L248.137 102.93C247.96 103.29 247.695 103.569 247.342 103.766C246.989 103.963 246.591 104.061 246.15 104.061ZM252.627 104.061C252.084 104.061 251.663 103.915 251.364 103.623C251.065 103.331 250.915 102.913 250.915 102.37V97.4183H251.894V102.329C251.894 102.621 251.965 102.845 252.108 103.002C252.257 103.158 252.468 103.236 252.739 103.236C253.045 103.236 253.3 103.151 253.503 102.981L253.809 103.684C253.66 103.813 253.48 103.908 253.269 103.969C253.065 104.031 252.851 104.061 252.627 104.061ZM249.999 99.405V98.6001H253.442V99.405H249.999ZM257.125 104.061C256.582 104.061 256.1 103.942 255.678 103.705C255.257 103.467 254.924 103.141 254.68 102.726C254.435 102.305 254.313 101.83 254.313 101.3C254.313 100.763 254.435 100.288 254.68 99.8737C254.924 99.4594 255.257 99.1367 255.678 98.9058C256.1 98.6681 256.582 98.5492 257.125 98.5492C257.662 98.5492 258.141 98.6681 258.562 98.9058C258.99 99.1367 259.322 99.4594 259.56 99.8737C259.805 100.281 259.927 100.757 259.927 101.3C259.927 101.837 259.805 102.312 259.56 102.726C259.322 103.141 258.99 103.467 258.562 103.705C258.141 103.942 257.662 104.061 257.125 104.061ZM257.125 103.205C257.472 103.205 257.781 103.127 258.052 102.971C258.331 102.815 258.548 102.594 258.704 102.309C258.861 102.017 258.939 101.68 258.939 101.3C258.939 100.913 258.861 100.58 258.704 100.302C258.548 100.016 258.331 99.7956 258.052 99.6394C257.781 99.4831 257.472 99.405 257.125 99.405C256.779 99.405 256.47 99.4831 256.198 99.6394C255.926 99.7956 255.709 100.016 255.546 100.302C255.383 100.58 255.301 100.913 255.301 101.3C255.301 101.68 255.383 102.017 255.546 102.309C255.709 102.594 255.926 102.815 256.198 102.971C256.47 103.127 256.779 103.205 257.125 103.205Z" fill="white"/>
<path d="M36.2606 105V96.5957H37.4613V103.955H42.0116V105H36.2606ZM43.2212 105V98.6367H44.3738V105H43.2212ZM43.7975 97.4121C43.5734 97.4121 43.3853 97.3401 43.2332 97.196C43.0891 97.0519 43.0171 96.8758 43.0171 96.6677C43.0171 96.4516 43.0891 96.2715 43.2332 96.1275C43.3853 95.9834 43.5734 95.9114 43.7975 95.9114C44.0216 95.9114 44.2057 95.9834 44.3498 96.1275C44.5019 96.2635 44.5779 96.4356 44.5779 96.6437C44.5779 96.8598 44.5059 97.0439 44.3618 97.196C44.2177 97.3401 44.0296 97.4121 43.7975 97.4121ZM49.2038 105.072C48.5875 105.072 48.0352 104.936 47.547 104.664C47.0667 104.392 46.6865 104.011 46.4064 103.523C46.1262 103.035 45.9862 102.467 45.9862 101.818C45.9862 101.17 46.1262 100.606 46.4064 100.126C46.6865 99.6373 47.0667 99.2571 47.547 98.9849C48.0352 98.7128 48.5875 98.5767 49.2038 98.5767C49.7561 98.5767 50.2484 98.6968 50.6806 98.9369C51.1128 99.177 51.453 99.5372 51.7011 100.017C51.9572 100.498 52.0853 101.098 52.0853 101.818C52.0853 102.539 51.9532 103.139 51.6891 103.619C51.433 104.1 51.0888 104.464 50.6566 104.712C50.2243 104.952 49.7401 105.072 49.2038 105.072ZM49.2999 104.064C49.7001 104.064 50.0603 103.971 50.3804 103.787C50.7086 103.603 50.9647 103.343 51.1488 103.007C51.3409 102.663 51.437 102.267 51.437 101.818C51.437 101.362 51.3409 100.97 51.1488 100.642C50.9647 100.306 50.7086 100.045 50.3804 99.8614C50.0603 99.6773 49.7001 99.5852 49.2999 99.5852C48.8917 99.5852 48.5275 99.6773 48.2073 99.8614C47.8871 100.045 47.631 100.306 47.4389 100.642C47.2468 100.97 47.1508 101.362 47.1508 101.818C47.1508 102.267 47.2468 102.663 47.4389 103.007C47.631 103.343 47.8871 103.603 48.2073 103.787C48.5275 103.971 48.8917 104.064 49.2999 104.064ZM51.425 107.329V103.307L51.545 101.83L51.473 100.354V98.6367H52.5775V107.329H51.425ZM57.4357 105.072C56.8914 105.072 56.4112 104.972 55.995 104.772C55.5868 104.572 55.2666 104.268 55.0345 103.859C54.8104 103.443 54.6983 102.923 54.6983 102.299V98.6367H55.8509V102.167C55.8509 102.791 55.999 103.259 56.2951 103.571C56.5993 103.883 57.0235 104.04 57.5678 104.04C57.968 104.04 58.3162 103.959 58.6123 103.799C58.9085 103.631 59.1366 103.391 59.2967 103.079C59.4567 102.759 59.5368 102.375 59.5368 101.926V98.6367H60.6894V105H59.5968V103.283L59.7769 103.739C59.5688 104.164 59.2566 104.492 58.8404 104.724C58.4242 104.956 57.956 105.072 57.4357 105.072ZM62.8836 105V98.6367H64.0362V105H62.8836ZM63.4599 97.4121C63.2358 97.4121 63.0477 97.3401 62.8956 97.196C62.7515 97.0519 62.6795 96.8758 62.6795 96.6677C62.6795 96.4516 62.7515 96.2715 62.8956 96.1275C63.0477 95.9834 63.2358 95.9114 63.4599 95.9114C63.684 95.9114 63.8681 95.9834 64.0122 96.1275C64.1642 96.2635 64.2403 96.4356 64.2403 96.6437C64.2403 96.8598 64.1682 97.0439 64.0242 97.196C63.8801 97.3401 63.692 97.4121 63.4599 97.4121ZM68.8662 105.072C68.2499 105.072 67.6976 104.936 67.2094 104.664C66.7291 104.392 66.3489 104.011 66.0688 103.523C65.7886 103.035 65.6486 102.467 65.6486 101.818C65.6486 101.17 65.7886 100.606 66.0688 100.126C66.3489 99.6373 66.7291 99.2571 67.2094 98.9849C67.6976 98.7128 68.2499 98.5767 68.8662 98.5767C69.4025 98.5767 69.8867 98.6968 70.319 98.9369C70.7512 99.177 71.0954 99.5372 71.3515 100.017C71.6156 100.498 71.7477 101.098 71.7477 101.818C71.7477 102.539 71.6196 103.139 71.3635 103.619C71.1154 104.1 70.7752 104.464 70.343 104.712C69.9107 104.952 69.4185 105.072 68.8662 105.072ZM68.9623 104.064C69.3625 104.064 69.7226 103.971 70.0428 103.787C70.371 103.603 70.6271 103.343 70.8112 103.007C71.0033 102.663 71.0994 102.267 71.0994 101.818C71.0994 101.362 71.0033 100.97 70.8112 100.642C70.6271 100.306 70.371 100.045 70.0428 99.8614C69.7226 99.6773 69.3625 99.5852 68.9623 99.5852C68.5541 99.5852 68.1899 99.6773 67.8697 99.8614C67.5495 100.045 67.2934 100.306 67.1013 100.642C66.9092 100.97 66.8132 101.362 66.8132 101.818C66.8132 102.267 66.9092 102.663 67.1013 103.007C67.2934 103.343 67.5495 103.603 67.8697 103.787C68.1899 103.971 68.5541 104.064 68.9623 104.064ZM71.1354 105V103.283L71.2074 101.806L71.0873 100.33V96.0914H72.2399V105H71.1354ZM74.4207 105V98.6367H75.5733V105H74.4207ZM74.997 97.4121C74.7729 97.4121 74.5848 97.3401 74.4327 97.196C74.2887 97.0519 74.2166 96.8758 74.2166 96.6677C74.2166 96.4516 74.2887 96.2715 74.4327 96.1275C74.5848 95.9834 74.7729 95.9114 74.997 95.9114C75.2211 95.9114 75.4052 95.9834 75.5493 96.1275C75.7014 96.2635 75.7774 96.4356 75.7774 96.6437C75.7774 96.8598 75.7054 97.0439 75.5613 97.196C75.4172 97.3401 75.2291 97.4121 74.997 97.4121ZM79.9591 105.072C79.3188 105.072 78.8225 104.9 78.4704 104.556C78.1182 104.212 77.9421 103.719 77.9421 103.079V97.244H79.0947V103.031C79.0947 103.375 79.1787 103.639 79.3468 103.823C79.5229 104.007 79.771 104.1 80.0912 104.1C80.4514 104.1 80.7515 103.999 80.9917 103.799L81.3518 104.628C81.1758 104.78 80.9636 104.892 80.7155 104.964C80.4754 105.036 80.2233 105.072 79.9591 105.072ZM76.8615 99.5852V98.6367H80.9196V99.5852H76.8615ZM82.9042 107.401C82.6 107.401 82.3039 107.349 82.0157 107.245C81.7276 107.149 81.4795 107.005 81.2714 106.813L81.7636 105.948C81.9237 106.101 82.0998 106.217 82.2919 106.297C82.484 106.377 82.6881 106.417 82.9042 106.417C83.1843 106.417 83.4165 106.345 83.6006 106.201C83.7846 106.057 83.9567 105.8 84.1168 105.432L84.513 104.556L84.6331 104.412L87.1304 98.6367H88.2589L85.1734 105.636C84.9893 106.085 84.7812 106.437 84.549 106.693C84.3249 106.949 84.0768 107.129 83.8047 107.233C83.5325 107.345 83.2324 107.401 82.9042 107.401ZM84.417 105.204L81.5115 98.6367H82.7121L85.1854 104.304L84.417 105.204ZM94.3838 105.072C93.8556 105.072 93.3513 105 92.8711 104.856C92.3988 104.712 92.0266 104.536 91.7545 104.328L92.2347 103.415C92.5069 103.599 92.8431 103.755 93.2433 103.883C93.6435 104.011 94.0517 104.076 94.4679 104.076C95.0042 104.076 95.3884 103.999 95.6205 103.847C95.8606 103.695 95.9807 103.483 95.9807 103.211C95.9807 103.011 95.9086 102.855 95.7646 102.743C95.6205 102.631 95.4284 102.547 95.1883 102.491C94.9561 102.435 94.696 102.387 94.4079 102.347C94.1197 102.299 93.8316 102.243 93.5434 102.179C93.2553 102.107 92.9911 102.01 92.751 101.89C92.5109 101.762 92.3188 101.59 92.1747 101.374C92.0306 101.15 91.9586 100.854 91.9586 100.486C91.9586 100.101 92.0667 99.7653 92.2828 99.4772C92.4989 99.189 92.803 98.9689 93.1952 98.8168C93.5954 98.6568 94.0677 98.5767 94.612 98.5767C95.0282 98.5767 95.4484 98.6287 95.8726 98.7328C96.3048 98.8288 96.657 98.9689 96.9291 99.153L96.4369 100.065C96.1487 99.8734 95.8486 99.7413 95.5364 99.6693C95.2243 99.5972 94.9121 99.5612 94.6 99.5612C94.0957 99.5612 93.7195 99.6453 93.4714 99.8133C93.2233 99.9734 93.0992 100.182 93.0992 100.438C93.0992 100.654 93.1712 100.822 93.3153 100.942C93.4674 101.054 93.6595 101.142 93.8916 101.206C94.1317 101.27 94.3959 101.326 94.684 101.374C94.9721 101.414 95.2603 101.47 95.5484 101.542C95.8366 101.606 96.0967 101.698 96.3288 101.818C96.569 101.938 96.7611 102.107 96.9051 102.323C97.0572 102.539 97.1333 102.827 97.1333 103.187C97.1333 103.571 97.0212 103.903 96.7971 104.184C96.573 104.464 96.2568 104.684 95.8486 104.844C95.4404 104.996 94.9521 105.072 94.3838 105.072ZM101.299 105.072C100.659 105.072 100.09 104.932 99.5942 104.652C99.098 104.372 98.7058 103.987 98.4176 103.499C98.1295 103.003 97.9854 102.443 97.9854 101.818C97.9854 101.186 98.1295 100.626 98.4176 100.138C98.7058 99.6493 99.098 99.2691 99.5942 98.9969C100.09 98.7168 100.659 98.5767 101.299 98.5767C101.931 98.5767 102.496 98.7168 102.992 98.9969C103.496 99.2691 103.888 99.6493 104.169 100.138C104.457 100.618 104.601 101.178 104.601 101.818C104.601 102.451 104.457 103.011 104.169 103.499C103.888 103.987 103.496 104.372 102.992 104.652C102.496 104.932 101.931 105.072 101.299 105.072ZM101.299 104.064C101.707 104.064 102.071 103.971 102.392 103.787C102.72 103.603 102.976 103.343 103.16 103.007C103.344 102.663 103.436 102.267 103.436 101.818C103.436 101.362 103.344 100.97 103.16 100.642C102.976 100.306 102.72 100.045 102.392 99.8614C102.071 99.6773 101.707 99.5852 101.299 99.5852C100.891 99.5852 100.527 99.6773 100.207 99.8614C99.8864 100.045 99.6302 100.306 99.4381 100.642C99.246 100.97 99.15 101.362 99.15 101.818C99.15 102.267 99.246 102.663 99.4381 103.007C99.6302 103.343 99.8864 103.603 100.207 103.787C100.527 103.971 100.891 104.064 101.299 104.064ZM108.872 105.072C108.328 105.072 107.848 104.972 107.431 104.772C107.023 104.572 106.703 104.268 106.471 103.859C106.247 103.443 106.135 102.923 106.135 102.299V98.6367H107.287V102.167C107.287 102.791 107.435 103.259 107.732 103.571C108.036 103.883 108.46 104.04 109.004 104.04C109.404 104.04 109.753 103.959 110.049 103.799C110.345 103.631 110.573 103.391 110.733 103.079C110.893 102.759 110.973 102.375 110.973 101.926V98.6367H112.126V105H111.033V103.283L111.213 103.739C111.005 104.164 110.693 104.492 110.277 104.724C109.861 104.956 109.392 105.072 108.872 105.072ZM114.32 105V98.6367H115.425V100.366L115.317 99.9334C115.493 99.4932 115.789 99.157 116.205 98.9249C116.621 98.6928 117.133 98.5767 117.742 98.5767V99.6933C117.694 99.6853 117.646 99.6813 117.598 99.6813C117.558 99.6813 117.518 99.6813 117.478 99.6813C116.861 99.6813 116.373 99.8654 116.013 100.234C115.653 100.602 115.473 101.134 115.473 101.83V105H114.32ZM121.877 105.072C121.229 105.072 120.649 104.932 120.136 104.652C119.632 104.372 119.236 103.987 118.948 103.499C118.66 103.011 118.515 102.451 118.515 101.818C118.515 101.186 118.66 100.626 118.948 100.138C119.236 99.6493 119.632 99.2691 120.136 98.9969C120.649 98.7168 121.229 98.5767 121.877 98.5767C122.453 98.5767 122.966 98.6928 123.414 98.9249C123.87 99.149 124.222 99.4852 124.47 99.9334L123.594 100.498C123.386 100.186 123.13 99.9574 122.826 99.8133C122.529 99.6613 122.209 99.5852 121.865 99.5852C121.449 99.5852 121.077 99.6773 120.749 99.8614C120.42 100.045 120.16 100.306 119.968 100.642C119.776 100.97 119.68 101.362 119.68 101.818C119.68 102.275 119.776 102.671 119.968 103.007C120.16 103.343 120.42 103.603 120.749 103.787C121.077 103.971 121.449 104.064 121.865 104.064C122.209 104.064 122.529 103.991 122.826 103.847C123.13 103.695 123.386 103.463 123.594 103.151L124.47 103.703C124.222 104.144 123.87 104.484 123.414 104.724C122.966 104.956 122.453 105.072 121.877 105.072ZM128.702 105.072C128.022 105.072 127.422 104.932 126.901 104.652C126.389 104.372 125.989 103.987 125.701 103.499C125.421 103.011 125.281 102.451 125.281 101.818C125.281 101.186 125.417 100.626 125.689 100.138C125.969 99.6493 126.349 99.2691 126.829 98.9969C127.318 98.7168 127.866 98.5767 128.474 98.5767C129.091 98.5767 129.635 98.7128 130.107 98.9849C130.579 99.2571 130.947 99.6413 131.212 100.138C131.484 100.626 131.62 101.198 131.62 101.854C131.62 101.902 131.616 101.958 131.608 102.022C131.608 102.087 131.604 102.147 131.596 102.203H126.181V101.374H130.996L130.527 101.662C130.535 101.254 130.451 100.89 130.275 100.57C130.099 100.25 129.855 100.001 129.543 99.8254C129.239 99.6413 128.882 99.5492 128.474 99.5492C128.074 99.5492 127.718 99.6413 127.406 99.8254C127.094 100.001 126.849 100.254 126.673 100.582C126.497 100.902 126.409 101.27 126.409 101.686V101.878C126.409 102.303 126.505 102.683 126.697 103.019C126.897 103.347 127.174 103.603 127.526 103.787C127.878 103.971 128.282 104.064 128.738 104.064C129.115 104.064 129.455 103.999 129.759 103.871C130.071 103.743 130.343 103.551 130.575 103.295L131.212 104.04C130.923 104.376 130.563 104.632 130.131 104.808C129.707 104.984 129.231 105.072 128.702 105.072ZM135.045 105.072C134.517 105.072 134.013 105 133.532 104.856C133.06 104.712 132.688 104.536 132.416 104.328L132.896 103.415C133.168 103.599 133.504 103.755 133.905 103.883C134.305 104.011 134.713 104.076 135.129 104.076C135.666 104.076 136.05 103.999 136.282 103.847C136.522 103.695 136.642 103.483 136.642 103.211C136.642 103.011 136.57 102.855 136.426 102.743C136.282 102.631 136.09 102.547 135.85 102.491C135.618 102.435 135.357 102.387 135.069 102.347C134.781 102.299 134.493 102.243 134.205 102.179C133.917 102.107 133.653 102.01 133.412 101.89C133.172 101.762 132.98 101.59 132.836 101.374C132.692 101.15 132.62 100.854 132.62 100.486C132.62 100.101 132.728 99.7653 132.944 99.4772C133.16 99.189 133.464 98.9689 133.857 98.8168C134.257 98.6568 134.729 98.5767 135.273 98.5767C135.69 98.5767 136.11 98.6287 136.534 98.7328C136.966 98.8288 137.318 98.9689 137.591 99.153L137.098 100.065C136.81 99.8734 136.51 99.7413 136.198 99.6693C135.886 99.5972 135.574 99.5612 135.261 99.5612C134.757 99.5612 134.381 99.6453 134.133 99.8133C133.885 99.9734 133.761 100.182 133.761 100.438C133.761 100.654 133.833 100.822 133.977 100.942C134.129 101.054 134.321 101.142 134.553 101.206C134.793 101.27 135.057 101.326 135.345 101.374C135.634 101.414 135.922 101.47 136.21 101.542C136.498 101.606 136.758 101.698 136.99 101.818C137.23 101.938 137.422 102.107 137.567 102.323C137.719 102.539 137.795 102.827 137.795 103.187C137.795 103.571 137.683 103.903 137.458 104.184C137.234 104.464 136.918 104.684 136.51 104.844C136.102 104.996 135.614 105.072 135.045 105.072Z" fill="white"/>
<g clip-path="url(#clip0_629_1676)">
<path d="M148.607 100.486C148.465 100.486 148.325 100.444 148.207 100.365C148.088 100.286 147.996 100.173 147.942 100.041C147.887 99.9098 147.873 99.765 147.901 99.6252C147.928 99.4855 147.997 99.3571 148.098 99.2564C148.198 99.1557 148.327 99.087 148.467 99.0593C148.606 99.0315 148.751 99.0457 148.883 99.1002C149.014 99.1548 149.127 99.2471 149.206 99.3656C149.285 99.484 149.327 99.6233 149.327 99.7658C149.327 99.9568 149.252 100.14 149.116 100.275C148.981 100.41 148.798 100.486 148.607 100.486Z" fill="#1B7F4E"/>
<path d="M148.606 106.608C147.68 106.608 146.775 106.334 146.005 105.819C145.235 105.305 144.635 104.574 144.28 103.718C143.926 102.862 143.833 101.921 144.014 101.013C144.194 100.104 144.64 99.2699 145.295 98.6151C145.95 97.9603 146.784 97.5143 147.693 97.3336C148.601 97.153 149.543 97.2457 150.398 97.6001C151.254 97.9545 151.985 98.5546 152.499 99.3246C153.014 100.095 153.289 101 153.289 101.926C153.289 103.168 152.795 104.359 151.917 105.237C151.039 106.115 149.848 106.608 148.606 106.608ZM148.606 97.964C147.823 97.964 147.057 98.1964 146.405 98.6317C145.753 99.0671 145.246 99.6859 144.946 100.41C144.646 101.134 144.567 101.93 144.72 102.699C144.873 103.468 145.251 104.174 145.805 104.728C146.359 105.282 147.065 105.659 147.833 105.812C148.602 105.965 149.398 105.886 150.122 105.586C150.846 105.287 151.465 104.779 151.901 104.127C152.336 103.476 152.568 102.71 152.568 101.926C152.568 100.875 152.151 99.8675 151.408 99.1245C150.665 98.3814 149.657 97.964 148.606 97.964Z" fill="#1B7F4E"/>
<path d="M148.607 104.808C148.416 104.808 148.233 104.732 148.098 104.597C147.963 104.462 147.887 104.279 147.887 104.088V101.927C147.887 101.736 147.963 101.553 148.098 101.418C148.233 101.282 148.416 101.207 148.607 101.207C148.798 101.207 148.981 101.282 149.116 101.418C149.252 101.553 149.327 101.736 149.327 101.927V104.088C149.327 104.279 149.252 104.462 149.116 104.597C148.981 104.732 148.798 104.808 148.607 104.808Z" fill="#1B7F4E"/>
</g>
<path d="M233.813 146L237.043 138.868H238.051L241.291 146H240.222L237.338 139.439H237.746L234.863 146H233.813ZM235.189 144.217L235.464 143.402H239.478L239.773 144.217H235.189ZM244.385 146.061C243.923 146.061 243.516 145.976 243.163 145.806C242.816 145.637 242.544 145.379 242.347 145.032C242.157 144.679 242.062 144.237 242.062 143.708V140.6H243.04V143.596C243.04 144.125 243.166 144.523 243.417 144.788C243.675 145.052 244.035 145.185 244.497 145.185C244.837 145.185 245.132 145.117 245.384 144.981C245.635 144.839 245.829 144.635 245.964 144.37C246.1 144.098 246.168 143.772 246.168 143.392V140.6H247.146V146H246.219V144.543L246.372 144.93C246.195 145.29 245.93 145.569 245.577 145.766C245.224 145.963 244.827 146.061 244.385 146.061ZM250.863 146.061C250.319 146.061 249.898 145.915 249.599 145.623C249.3 145.331 249.151 144.913 249.151 144.37V139.418H250.129V144.329C250.129 144.621 250.2 144.845 250.343 145.002C250.492 145.158 250.703 145.236 250.975 145.236C251.28 145.236 251.535 145.151 251.739 144.981L252.044 145.684C251.895 145.813 251.715 145.908 251.504 145.969C251.301 146.031 251.087 146.061 250.863 146.061ZM248.234 141.405V140.6H251.678V141.405H248.234ZM255.361 146.061C254.817 146.061 254.335 145.942 253.914 145.705C253.493 145.467 253.16 145.141 252.915 144.726C252.671 144.305 252.549 143.83 252.549 143.3C252.549 142.763 252.671 142.288 252.915 141.874C253.16 141.459 253.493 141.137 253.914 140.906C254.335 140.668 254.817 140.549 255.361 140.549C255.897 140.549 256.376 140.668 256.797 140.906C257.225 141.137 257.558 141.459 257.796 141.874C258.04 142.281 258.162 142.757 258.162 143.3C258.162 143.837 258.04 144.312 257.796 144.726C257.558 145.141 257.225 145.467 256.797 145.705C256.376 145.942 255.897 146.061 255.361 146.061ZM255.361 145.205C255.707 145.205 256.016 145.127 256.288 144.971C256.566 144.815 256.784 144.594 256.94 144.309C257.096 144.017 257.174 143.68 257.174 143.3C257.174 142.913 257.096 142.58 256.94 142.302C256.784 142.016 256.566 141.796 256.288 141.639C256.016 141.483 255.707 141.405 255.361 141.405C255.014 141.405 254.705 141.483 254.433 141.639C254.162 141.796 253.944 142.016 253.781 142.302C253.618 142.58 253.537 142.913 253.537 143.3C253.537 143.68 253.618 144.017 253.781 144.309C253.944 144.594 254.162 144.815 254.433 144.971C254.705 145.127 255.014 145.205 255.361 145.205Z" fill="white"/>
<path d="M36.2606 147V138.596H37.2451L41.0151 144.947H40.4868L44.2087 138.596H45.1932L45.2052 147H44.0526L44.0406 140.409H44.3168L41.0031 145.979H40.4508L37.1131 140.409H37.4132V147H36.2606ZM51.5094 147V145.655L51.4493 145.403V143.11C51.4493 142.622 51.3053 142.246 51.0171 141.981C50.737 141.709 50.3128 141.573 49.7445 141.573C49.3683 141.573 49.0001 141.637 48.6399 141.765C48.2797 141.885 47.9756 142.049 47.7274 142.258L47.2472 141.393C47.5754 141.129 47.9676 140.929 48.4238 140.793C48.888 140.649 49.3723 140.577 49.8765 140.577C50.749 140.577 51.4213 140.789 51.8936 141.213C52.3658 141.637 52.6019 142.286 52.6019 143.158V147H51.5094ZM49.4203 147.072C48.9481 147.072 48.5319 146.992 48.1717 146.832C47.8195 146.672 47.5473 146.452 47.3553 146.172C47.1632 145.883 47.0671 145.559 47.0671 145.199C47.0671 144.855 47.1471 144.543 47.3072 144.263C47.4753 143.982 47.7434 143.758 48.1116 143.59C48.4878 143.422 48.9921 143.338 49.6244 143.338H51.6414V144.167H49.6724C49.0961 144.167 48.7079 144.263 48.5078 144.455C48.3077 144.647 48.2077 144.879 48.2077 145.151C48.2077 145.463 48.3317 145.715 48.5799 145.907C48.828 146.092 49.1722 146.184 49.6124 146.184C50.0446 146.184 50.4208 146.088 50.741 145.895C51.0691 145.703 51.3053 145.423 51.4493 145.055L51.6775 145.847C51.5254 146.224 51.2572 146.524 50.873 146.748C50.4889 146.964 50.0046 147.072 49.4203 147.072ZM53.8104 147L56.5478 143.446L56.5358 144.034L53.9305 140.637H55.2151L57.2082 143.254H56.7159L58.7089 140.637H59.9696L57.3282 144.058L57.3402 143.446L60.1016 147H58.793L56.6919 144.215L57.1601 144.287L55.0951 147H53.8104ZM61.6355 147.072C61.4114 147.072 61.2193 146.996 61.0592 146.844C60.8991 146.684 60.8191 146.484 60.8191 146.244C60.8191 146.003 60.8991 145.807 61.0592 145.655C61.2193 145.503 61.4114 145.427 61.6355 145.427C61.8516 145.427 62.0357 145.503 62.1878 145.655C62.3479 145.807 62.4279 146.003 62.4279 146.244C62.4279 146.484 62.3479 146.684 62.1878 146.844C62.0357 146.996 61.8516 147.072 61.6355 147.072ZM69.1288 147.072C68.6005 147.072 68.0962 147 67.616 146.856C67.1437 146.712 66.7715 146.536 66.4994 146.328L66.9797 145.415C67.2518 145.599 67.588 145.755 67.9882 145.883C68.3884 146.011 68.7966 146.076 69.2128 146.076C69.7491 146.076 70.1333 145.999 70.3654 145.847C70.6055 145.695 70.7256 145.483 70.7256 145.211C70.7256 145.011 70.6535 144.855 70.5095 144.743C70.3654 144.631 70.1733 144.547 69.9332 144.491C69.701 144.435 69.4409 144.387 69.1528 144.347C68.8646 144.299 68.5765 144.243 68.2883 144.179C68.0002 144.107 67.736 144.01 67.4959 143.89C67.2558 143.762 67.0637 143.59 66.9196 143.374C66.7756 143.15 66.7035 142.854 66.7035 142.486C66.7035 142.101 66.8116 141.765 67.0277 141.477C67.2438 141.189 67.5479 140.969 67.9401 140.817C68.3403 140.657 68.8126 140.577 69.3569 140.577C69.7731 140.577 70.1933 140.629 70.6175 140.733C71.0497 140.829 71.4019 140.969 71.6741 141.153L71.1818 142.065C70.8937 141.873 70.5935 141.741 70.2813 141.669C69.9692 141.597 69.657 141.561 69.3449 141.561C68.8406 141.561 68.4644 141.645 68.2163 141.813C67.9682 141.973 67.8441 142.182 67.8441 142.438C67.8441 142.654 67.9161 142.822 68.0602 142.942C68.2123 143.054 68.4044 143.142 68.6365 143.206C68.8766 143.27 69.1408 143.326 69.4289 143.374C69.7171 143.414 70.0052 143.47 70.2933 143.542C70.5815 143.606 70.8416 143.698 71.0737 143.818C71.3139 143.938 71.506 144.107 71.65 144.323C71.8021 144.539 71.8782 144.827 71.8782 145.187C71.8782 145.571 71.7661 145.903 71.542 146.184C71.3179 146.464 71.0017 146.684 70.5935 146.844C70.1853 146.996 69.697 147.072 69.1288 147.072ZM73.3186 147V138.091H74.4712V147H73.3186ZM76.6719 147V140.637H77.8245V147H76.6719ZM77.2482 139.412C77.0241 139.412 76.836 139.34 76.6839 139.196C76.5398 139.052 76.4678 138.876 76.4678 138.668C76.4678 138.452 76.5398 138.272 76.6839 138.127C76.836 137.983 77.0241 137.911 77.2482 137.911C77.4723 137.911 77.6564 137.983 77.8005 138.127C77.9525 138.264 78.0286 138.436 78.0286 138.644C78.0286 138.86 77.9565 139.044 77.8125 139.196C77.6684 139.34 77.4803 139.412 77.2482 139.412ZM83.3989 147.072C82.8706 147.072 82.3864 146.952 81.9461 146.712C81.5139 146.464 81.1657 146.1 80.9016 145.619C80.6455 145.139 80.5174 144.539 80.5174 143.818C80.5174 143.098 80.6415 142.498 80.8896 142.017C81.1457 141.537 81.4899 141.177 81.9221 140.937C82.3624 140.697 82.8546 140.577 83.3989 140.577C84.0232 140.577 84.5755 140.713 85.0557 140.985C85.536 141.257 85.9162 141.637 86.1963 142.126C86.4765 142.606 86.6165 143.17 86.6165 143.818C86.6165 144.467 86.4765 145.035 86.1963 145.523C85.9162 146.011 85.536 146.392 85.0557 146.664C84.5755 146.936 84.0232 147.072 83.3989 147.072ZM80.0252 149.329V140.637H81.1297V142.354L81.0577 143.83L81.1778 145.307V149.329H80.0252ZM83.3028 146.064C83.711 146.064 84.0752 145.971 84.3954 145.787C84.7236 145.603 84.9797 145.343 85.1638 145.007C85.3559 144.663 85.4519 144.267 85.4519 143.818C85.4519 143.362 85.3559 142.97 85.1638 142.642C84.9797 142.306 84.7236 142.045 84.3954 141.861C84.0752 141.677 83.711 141.585 83.3028 141.585C82.9026 141.585 82.5384 141.677 82.2103 141.861C81.8901 142.045 81.634 142.306 81.4419 142.642C81.2578 142.97 81.1657 143.362 81.1657 143.818C81.1657 144.267 81.2578 144.663 81.4419 145.007C81.634 145.343 81.8901 145.603 82.2103 145.787C82.5384 145.971 82.9026 146.064 83.3028 146.064ZM91.5828 147.072C91.0545 147.072 90.5702 146.952 90.13 146.712C89.6978 146.464 89.3496 146.1 89.0855 145.619C88.8293 145.139 88.7013 144.539 88.7013 143.818C88.7013 143.098 88.8253 142.498 89.0735 142.017C89.3296 141.537 89.6738 141.177 90.106 140.937C90.5462 140.697 91.0385 140.577 91.5828 140.577C92.2071 140.577 92.7594 140.713 93.2396 140.985C93.7198 141.257 94.1 141.637 94.3802 142.126C94.6603 142.606 94.8004 143.17 94.8004 143.818C94.8004 144.467 94.6603 145.035 94.3802 145.523C94.1 146.011 93.7198 146.392 93.2396 146.664C92.7594 146.936 92.2071 147.072 91.5828 147.072ZM88.209 149.329V140.637H89.3136V142.354L89.2416 143.83L89.3616 145.307V149.329H88.209ZM91.4867 146.064C91.8949 146.064 92.2591 145.971 92.5793 145.787C92.9074 145.603 93.1636 145.343 93.3477 145.007C93.5398 144.663 93.6358 144.267 93.6358 143.818C93.6358 143.362 93.5398 142.97 93.3477 142.642C93.1636 142.306 92.9074 142.045 92.5793 141.861C92.2591 141.677 91.8949 141.585 91.4867 141.585C91.0865 141.585 90.7223 141.677 90.3941 141.861C90.074 142.045 89.8179 142.306 89.6258 142.642C89.4417 142.97 89.3496 143.362 89.3496 143.818C89.3496 144.267 89.4417 144.663 89.6258 145.007C89.8179 145.343 90.074 145.603 90.3941 145.787C90.7223 145.971 91.0865 146.064 91.4867 146.064ZM100.284 147V145.655L100.224 145.403V143.11C100.224 142.622 100.08 142.246 99.792 141.981C99.5119 141.709 99.0877 141.573 98.5194 141.573C98.1432 141.573 97.775 141.637 97.4148 141.765C97.0546 141.885 96.7505 142.049 96.5024 142.258L96.0221 141.393C96.3503 141.129 96.7425 140.929 97.1987 140.793C97.663 140.649 98.1472 140.577 98.6515 140.577C99.5239 140.577 100.196 140.789 100.668 141.213C101.141 141.637 101.377 142.286 101.377 143.158V147H100.284ZM98.1952 147.072C97.723 147.072 97.3068 146.992 96.9466 146.832C96.5944 146.672 96.3223 146.452 96.1302 146.172C95.9381 145.883 95.842 145.559 95.842 145.199C95.842 144.855 95.9221 144.543 96.0822 144.263C96.2502 143.982 96.5184 143.758 96.8866 143.59C97.2628 143.422 97.767 143.338 98.3993 143.338H100.416V144.167H98.4474C97.8711 144.167 97.4829 144.263 97.2828 144.455C97.0827 144.647 96.9826 144.879 96.9826 145.151C96.9826 145.463 97.1067 145.715 97.3548 145.907C97.6029 146.092 97.9471 146.184 98.3873 146.184C98.8196 146.184 99.1957 146.088 99.5159 145.895C99.8441 145.703 100.08 145.423 100.224 145.055L100.452 145.847C100.3 146.224 100.032 146.524 99.648 146.748C99.2638 146.964 98.7795 147.072 98.1952 147.072ZM106.295 149.401C105.711 149.401 105.143 149.317 104.59 149.149C104.046 148.989 103.602 148.757 103.258 148.453L103.81 147.564C104.106 147.82 104.47 148.021 104.903 148.165C105.335 148.317 105.787 148.393 106.259 148.393C107.012 148.393 107.564 148.217 107.916 147.864C108.268 147.512 108.444 146.976 108.444 146.256V144.911L108.564 143.65L108.504 142.378V140.637H109.597V146.136C109.597 147.256 109.317 148.081 108.756 148.609C108.196 149.137 107.376 149.401 106.295 149.401ZM106.151 146.736C105.535 146.736 104.983 146.608 104.494 146.352C104.014 146.088 103.63 145.723 103.342 145.259C103.062 144.795 102.922 144.259 102.922 143.65C102.922 143.034 103.062 142.498 103.342 142.041C103.63 141.577 104.014 141.217 104.494 140.961C104.983 140.705 105.535 140.577 106.151 140.577C106.695 140.577 107.192 140.689 107.64 140.913C108.088 141.129 108.444 141.465 108.708 141.921C108.981 142.378 109.117 142.954 109.117 143.65C109.117 144.339 108.981 144.911 108.708 145.367C108.444 145.823 108.088 146.168 107.64 146.4C107.192 146.624 106.695 146.736 106.151 146.736ZM106.283 145.727C106.707 145.727 107.084 145.639 107.412 145.463C107.74 145.287 107.996 145.043 108.18 144.731C108.372 144.419 108.468 144.058 108.468 143.65C108.468 143.242 108.372 142.882 108.18 142.57C107.996 142.258 107.74 142.017 107.412 141.849C107.084 141.673 106.707 141.585 106.283 141.585C105.859 141.585 105.479 141.673 105.143 141.849C104.814 142.017 104.554 142.258 104.362 142.57C104.178 142.882 104.086 143.242 104.086 143.65C104.086 144.058 104.178 144.419 104.362 144.731C104.554 145.043 104.814 145.287 105.143 145.463C105.479 145.639 105.859 145.727 106.283 145.727ZM114.633 147.072C113.952 147.072 113.352 146.932 112.832 146.652C112.319 146.372 111.919 145.987 111.631 145.499C111.351 145.011 111.211 144.451 111.211 143.818C111.211 143.186 111.347 142.626 111.619 142.138C111.899 141.649 112.279 141.269 112.76 140.997C113.248 140.717 113.796 140.577 114.405 140.577C115.021 140.577 115.565 140.713 116.037 140.985C116.51 141.257 116.878 141.641 117.142 142.138C117.414 142.626 117.55 143.198 117.55 143.854C117.55 143.902 117.546 143.958 117.538 144.022C117.538 144.087 117.534 144.147 117.526 144.203H112.111V143.374H116.926L116.458 143.662C116.466 143.254 116.382 142.89 116.205 142.57C116.029 142.25 115.785 142.001 115.473 141.825C115.169 141.641 114.813 141.549 114.405 141.549C114.004 141.549 113.648 141.641 113.336 141.825C113.024 142.001 112.78 142.254 112.604 142.582C112.428 142.902 112.339 143.27 112.339 143.686V143.878C112.339 144.303 112.436 144.683 112.628 145.019C112.828 145.347 113.104 145.603 113.456 145.787C113.808 145.971 114.212 146.064 114.669 146.064C115.045 146.064 115.385 145.999 115.689 145.871C116.001 145.743 116.274 145.551 116.506 145.295L117.142 146.04C116.854 146.376 116.494 146.632 116.061 146.808C115.637 146.984 115.161 147.072 114.633 147.072Z" fill="white"/>
<g clip-path="url(#clip1_629_1676)">
<path d="M126.608 142.485C126.466 142.485 126.326 142.443 126.208 142.364C126.089 142.285 125.997 142.172 125.943 142.04C125.888 141.909 125.874 141.764 125.902 141.624C125.929 141.485 125.998 141.356 126.099 141.255C126.199 141.155 126.328 141.086 126.468 141.058C126.607 141.03 126.752 141.045 126.884 141.099C127.015 141.154 127.128 141.246 127.207 141.365C127.286 141.483 127.328 141.622 127.328 141.765C127.328 141.956 127.253 142.139 127.117 142.274C126.982 142.409 126.799 142.485 126.608 142.485Z" fill="#1B7F4E"/>
<path d="M126.607 148.607C125.681 148.607 124.776 148.333 124.006 147.818C123.236 147.304 122.636 146.573 122.281 145.717C121.927 144.861 121.834 143.92 122.015 143.012C122.195 142.103 122.641 141.269 123.296 140.614C123.951 139.959 124.785 139.513 125.694 139.333C126.602 139.152 127.543 139.245 128.399 139.599C129.255 139.954 129.986 140.554 130.5 141.324C131.015 142.094 131.29 142.999 131.29 143.925C131.29 145.167 130.796 146.358 129.918 147.236C129.04 148.114 127.849 148.607 126.607 148.607ZM126.607 139.963C125.824 139.963 125.058 140.195 124.406 140.631C123.754 141.066 123.247 141.685 122.947 142.409C122.647 143.133 122.568 143.929 122.721 144.698C122.874 145.467 123.252 146.173 123.806 146.727C124.36 147.281 125.066 147.658 125.834 147.811C126.603 147.964 127.399 147.885 128.123 147.586C128.847 147.286 129.466 146.778 129.902 146.126C130.337 145.475 130.569 144.709 130.569 143.925C130.569 142.874 130.152 141.867 129.409 141.123C128.666 140.38 127.658 139.963 126.607 139.963Z" fill="#1B7F4E"/>
<path d="M126.608 146.807C126.417 146.807 126.234 146.732 126.099 146.596C125.964 146.461 125.888 146.278 125.888 146.087V143.926C125.888 143.735 125.964 143.552 126.099 143.417C126.234 143.281 126.417 143.206 126.608 143.206C126.799 143.206 126.982 143.281 127.117 143.417C127.253 143.552 127.328 143.735 127.328 143.926V146.087C127.328 146.278 127.253 146.461 127.117 146.596C126.982 146.732 126.799 146.807 126.608 146.807Z" fill="#1B7F4E"/>
</g>
<path d="M235.578 188L238.807 180.868H239.816L243.056 188H241.986L239.103 181.439H239.51L236.627 188H235.578ZM236.953 186.217L237.228 185.402H241.242L241.538 186.217H236.953ZM246.15 188.061C245.688 188.061 245.28 187.976 244.927 187.806C244.581 187.637 244.309 187.379 244.112 187.032C243.922 186.679 243.827 186.237 243.827 185.708V182.6H244.805V185.596C244.805 186.125 244.931 186.523 245.182 186.788C245.44 187.052 245.8 187.185 246.262 187.185C246.601 187.185 246.897 187.117 247.148 186.981C247.4 186.839 247.593 186.635 247.729 186.37C247.865 186.098 247.933 185.772 247.933 185.392V182.6H248.911V188H247.984V186.543L248.137 186.93C247.96 187.29 247.695 187.569 247.342 187.766C246.989 187.963 246.591 188.061 246.15 188.061ZM252.627 188.061C252.084 188.061 251.663 187.915 251.364 187.623C251.065 187.331 250.915 186.913 250.915 186.37V181.418H251.894V186.329C251.894 186.621 251.965 186.845 252.108 187.002C252.257 187.158 252.468 187.236 252.739 187.236C253.045 187.236 253.3 187.151 253.503 186.981L253.809 187.684C253.66 187.813 253.48 187.908 253.269 187.969C253.065 188.031 252.851 188.061 252.627 188.061ZM249.999 183.405V182.6H253.442V183.405H249.999ZM257.125 188.061C256.582 188.061 256.1 187.942 255.678 187.705C255.257 187.467 254.924 187.141 254.68 186.726C254.435 186.305 254.313 185.83 254.313 185.3C254.313 184.763 254.435 184.288 254.68 183.874C254.924 183.459 255.257 183.137 255.678 182.906C256.1 182.668 256.582 182.549 257.125 182.549C257.662 182.549 258.141 182.668 258.562 182.906C258.99 183.137 259.322 183.459 259.56 183.874C259.805 184.281 259.927 184.757 259.927 185.3C259.927 185.837 259.805 186.312 259.56 186.726C259.322 187.141 258.99 187.467 258.562 187.705C258.141 187.942 257.662 188.061 257.125 188.061ZM257.125 187.205C257.472 187.205 257.781 187.127 258.052 186.971C258.331 186.815 258.548 186.594 258.704 186.309C258.861 186.017 258.939 185.68 258.939 185.3C258.939 184.913 258.861 184.58 258.704 184.302C258.548 184.016 258.331 183.796 258.052 183.639C257.781 183.483 257.472 183.405 257.125 183.405C256.779 183.405 256.47 183.483 256.198 183.639C255.926 183.796 255.709 184.016 255.546 184.302C255.383 184.58 255.301 184.913 255.301 185.3C255.301 185.68 255.383 186.017 255.546 186.309C255.709 186.594 255.926 186.815 256.198 186.971C256.47 187.127 256.779 187.205 257.125 187.205Z" fill="white"/>
<path d="M38.7099 189.096C38.0696 189.096 37.4573 189 36.873 188.808C36.2887 188.608 35.8284 188.352 35.4923 188.04L35.9365 187.103C36.2566 187.383 36.6649 187.615 37.1611 187.799C37.6574 187.983 38.1736 188.076 38.7099 188.076C39.1981 188.076 39.5943 188.019 39.8985 187.907C40.2027 187.795 40.4268 187.643 40.5708 187.451C40.7149 187.251 40.787 187.027 40.787 186.779C40.787 186.491 40.6909 186.259 40.4988 186.083C40.3147 185.906 40.0706 185.766 39.7664 185.662C39.4703 185.55 39.1421 185.454 38.7819 185.374C38.4217 185.294 38.0576 185.202 37.6894 185.098C37.3292 184.986 36.997 184.846 36.6929 184.678C36.3967 184.51 36.1566 184.286 35.9725 184.005C35.7884 183.717 35.6964 183.349 35.6964 182.901C35.6964 182.469 35.8084 182.072 36.0325 181.712C36.2646 181.344 36.6168 181.052 37.0891 180.836C37.5693 180.612 38.1776 180.5 38.914 180.5C39.4022 180.5 39.8865 180.564 40.3667 180.692C40.847 180.82 41.2632 181.004 41.6154 181.244L41.2192 182.205C40.859 181.964 40.4788 181.792 40.0786 181.688C39.6784 181.576 39.2902 181.52 38.914 181.52C38.4418 181.52 38.0536 181.58 37.7494 181.7C37.4452 181.82 37.2211 181.98 37.0771 182.181C36.941 182.381 36.873 182.605 36.873 182.853C36.873 183.149 36.965 183.385 37.1491 183.561C37.3412 183.737 37.5853 183.877 37.8815 183.981C38.1856 184.085 38.5178 184.182 38.878 184.27C39.2382 184.35 39.5984 184.442 39.9585 184.546C40.3267 184.65 40.6589 184.786 40.955 184.954C41.2592 185.122 41.5033 185.346 41.6874 185.626C41.8715 185.906 41.9636 186.267 41.9636 186.707C41.9636 187.131 41.8475 187.527 41.6154 187.895C41.3833 188.256 41.0231 188.548 40.5348 188.772C40.0546 188.988 39.4463 189.096 38.7099 189.096ZM51.5096 182.577C52.0218 182.577 52.4741 182.677 52.8663 182.877C53.2585 183.077 53.5626 183.381 53.7787 183.789C54.0028 184.198 54.1149 184.714 54.1149 185.338V189H52.9623V185.47C52.9623 184.854 52.8182 184.39 52.5301 184.077C52.2419 183.765 51.8377 183.609 51.3175 183.609C50.9333 183.609 50.5971 183.689 50.3089 183.849C50.0208 184.009 49.7967 184.246 49.6366 184.558C49.4845 184.87 49.4085 185.258 49.4085 185.722V189H48.2559V185.47C48.2559 184.854 48.1118 184.39 47.8237 184.077C47.5435 183.765 47.1393 183.609 46.6111 183.609C46.2349 183.609 45.9027 183.689 45.6145 183.849C45.3264 184.009 45.1023 184.246 44.9422 184.558C44.7821 184.87 44.7021 185.258 44.7021 185.722V189H43.5495V182.637H44.6541V184.33L44.474 183.897C44.6741 183.481 44.9822 183.157 45.3984 182.925C45.8147 182.693 46.2989 182.577 46.8512 182.577C47.4595 182.577 47.9838 182.729 48.424 183.033C48.8642 183.329 49.1524 183.781 49.2884 184.39L48.8202 184.198C49.0123 183.709 49.3485 183.317 49.8287 183.021C50.3089 182.725 50.8692 182.577 51.5096 182.577ZM60.1857 189V187.655L60.1257 187.403V185.11C60.1257 184.622 59.9816 184.246 59.6934 183.981C59.4133 183.709 58.9891 183.573 58.4208 183.573C58.0446 183.573 57.6764 183.637 57.3162 183.765C56.956 183.885 56.6519 184.049 56.4037 184.258L55.9235 183.393C56.2517 183.129 56.6439 182.929 57.1001 182.793C57.5643 182.649 58.0486 182.577 58.5528 182.577C59.4253 182.577 60.0976 182.789 60.5699 183.213C61.0421 183.637 61.2782 184.286 61.2782 185.158V189H60.1857ZM58.0966 189.072C57.6244 189.072 57.2082 188.992 56.848 188.832C56.4958 188.672 56.2237 188.452 56.0316 188.172C55.8395 187.883 55.7434 187.559 55.7434 187.199C55.7434 186.855 55.8235 186.543 55.9835 186.263C56.1516 185.982 56.4198 185.758 56.7879 185.59C57.1641 185.422 57.6684 185.338 58.3007 185.338H60.3177V186.167H58.3487C57.7724 186.167 57.3842 186.263 57.1841 186.455C56.984 186.647 56.884 186.879 56.884 187.151C56.884 187.463 57.0081 187.715 57.2562 187.907C57.5043 188.092 57.8485 188.184 58.2887 188.184C58.7209 188.184 59.0971 188.088 59.4173 187.895C59.7455 187.703 59.9816 187.423 60.1257 187.055L60.3538 187.847C60.2017 188.224 59.9336 188.524 59.5494 188.748C59.1652 188.964 58.6809 189.072 58.0966 189.072ZM63.4112 189V182.637H64.5158V184.366L64.4077 183.933C64.5838 183.493 64.88 183.157 65.2962 182.925C65.7124 182.693 66.2246 182.577 66.833 182.577V183.693C66.7849 183.685 66.7369 183.681 66.6889 183.681C66.6489 183.681 66.6088 183.681 66.5688 183.681C65.9525 183.681 65.4643 183.865 65.1041 184.234C64.7439 184.602 64.5638 185.134 64.5638 185.83V189H63.4112ZM70.6966 189.072C70.0563 189.072 69.56 188.9 69.2078 188.556C68.8556 188.212 68.6796 187.719 68.6796 187.079V181.244H69.8321V187.031C69.8321 187.375 69.9162 187.639 70.0843 187.823C70.2604 188.007 70.5085 188.1 70.8286 188.1C71.1888 188.1 71.489 187.999 71.7291 187.799L72.0893 188.628C71.9132 188.78 71.7011 188.892 71.453 188.964C71.2128 189.036 70.9607 189.072 70.6966 189.072ZM67.599 183.585V182.637H71.6571V183.585H67.599ZM76.7071 189V182.637H77.8116V184.366L77.7036 183.933C77.8797 183.493 78.1758 183.157 78.592 182.925C79.0082 182.693 79.5205 182.577 80.1288 182.577V183.693C80.0808 183.685 80.0328 183.681 79.9847 183.681C79.9447 183.681 79.9047 183.681 79.8647 183.681C79.2484 183.681 78.7601 183.865 78.3999 184.234C78.0397 184.602 77.8596 185.134 77.8596 185.83V189H76.7071ZM84.2161 189.072C83.5758 189.072 83.0075 188.932 82.5113 188.652C82.015 188.372 81.6228 187.987 81.3347 187.499C81.0465 187.003 80.9025 186.443 80.9025 185.818C80.9025 185.186 81.0465 184.626 81.3347 184.138C81.6228 183.649 82.015 183.269 82.5113 182.997C83.0075 182.717 83.5758 182.577 84.2161 182.577C84.8485 182.577 85.4128 182.717 85.909 182.997C86.4133 183.269 86.8055 183.649 87.0856 184.138C87.3738 184.618 87.5178 185.178 87.5178 185.818C87.5178 186.451 87.3738 187.011 87.0856 187.499C86.8055 187.987 86.4133 188.372 85.909 188.652C85.4128 188.932 84.8485 189.072 84.2161 189.072ZM84.2161 188.064C84.6244 188.064 84.9885 187.971 85.3087 187.787C85.6369 187.603 85.893 187.343 86.0771 187.007C86.2612 186.663 86.3532 186.267 86.3532 185.818C86.3532 185.362 86.2612 184.97 86.0771 184.642C85.893 184.306 85.6369 184.045 85.3087 183.861C84.9885 183.677 84.6244 183.585 84.2161 183.585C83.8079 183.585 83.4438 183.677 83.1236 183.861C82.8034 184.045 82.5473 184.306 82.3552 184.642C82.1631 184.97 82.0671 185.362 82.0671 185.818C82.0671 186.267 82.1631 186.663 82.3552 187.007C82.5473 187.343 82.8034 187.603 83.1236 187.787C83.4438 187.971 83.8079 188.064 84.2161 188.064ZM91.7892 189.072C91.2449 189.072 90.7647 188.972 90.3485 188.772C89.9403 188.572 89.6201 188.268 89.388 187.859C89.1639 187.443 89.0518 186.923 89.0518 186.299V182.637H90.2044V186.167C90.2044 186.791 90.3525 187.259 90.6486 187.571C90.9528 187.883 91.377 188.04 91.9213 188.04C92.3215 188.04 92.6697 187.959 92.9658 187.799C93.262 187.631 93.4901 187.391 93.6502 187.079C93.8102 186.759 93.8903 186.375 93.8903 185.926V182.637H95.0429V189H93.9503V187.283L94.1304 187.739C93.9223 188.164 93.6101 188.492 93.1939 188.724C92.7777 188.956 92.3095 189.072 91.7892 189.072ZM99.4222 189.072C98.7819 189.072 98.2856 188.9 97.9334 188.556C97.5813 188.212 97.4052 187.719 97.4052 187.079V181.244H98.5578V187.031C98.5578 187.375 98.6418 187.639 98.8099 187.823C98.986 188.007 99.2341 188.1 99.5543 188.1C99.9145 188.1 100.215 187.999 100.455 187.799L100.815 188.628C100.639 188.78 100.427 188.892 100.179 188.964C99.9385 189.036 99.6863 189.072 99.4222 189.072ZM96.3246 183.585V182.637H100.383V183.585H96.3246ZM102.208 189V182.637H103.361V189H102.208ZM102.785 181.412C102.561 181.412 102.372 181.34 102.22 181.196C102.076 181.052 102.004 180.876 102.004 180.668C102.004 180.452 102.076 180.272 102.22 180.127C102.372 179.983 102.561 179.911 102.785 179.911C103.009 179.911 103.193 179.983 103.337 180.127C103.489 180.264 103.565 180.436 103.565 180.644C103.565 180.86 103.493 181.044 103.349 181.196C103.205 181.34 103.017 181.412 102.785 181.412ZM108.959 182.577C109.48 182.577 109.936 182.677 110.328 182.877C110.728 183.077 111.04 183.381 111.265 183.789C111.489 184.198 111.601 184.714 111.601 185.338V189H110.448V185.47C110.448 184.854 110.296 184.39 109.992 184.077C109.696 183.765 109.276 183.609 108.731 183.609C108.323 183.609 107.967 183.689 107.663 183.849C107.359 184.009 107.122 184.246 106.954 184.558C106.794 184.87 106.714 185.258 106.714 185.722V189H105.562V182.637H106.666V184.354L106.486 183.897C106.694 183.481 107.014 183.157 107.447 182.925C107.879 182.693 108.383 182.577 108.959 182.577ZM116.519 191.401C115.935 191.401 115.367 191.317 114.814 191.149C114.27 190.989 113.826 190.757 113.482 190.453L114.034 189.564C114.33 189.82 114.694 190.021 115.127 190.165C115.559 190.317 116.011 190.393 116.483 190.393C117.236 190.393 117.788 190.217 118.14 189.864C118.492 189.512 118.668 188.976 118.668 188.256V186.911L118.788 185.65L118.728 184.378V182.637H119.821V188.136C119.821 189.256 119.541 190.081 118.98 190.609C118.42 191.137 117.6 191.401 116.519 191.401ZM116.375 188.736C115.759 188.736 115.207 188.608 114.718 188.352C114.238 188.088 113.854 187.723 113.566 187.259C113.286 186.795 113.145 186.259 113.145 185.65C113.145 185.034 113.286 184.498 113.566 184.041C113.854 183.577 114.238 183.217 114.718 182.961C115.207 182.705 115.759 182.577 116.375 182.577C116.919 182.577 117.416 182.689 117.864 182.913C118.312 183.129 118.668 183.465 118.932 183.921C119.205 184.378 119.341 184.954 119.341 185.65C119.341 186.339 119.205 186.911 118.932 187.367C118.668 187.823 118.312 188.168 117.864 188.4C117.416 188.624 116.919 188.736 116.375 188.736ZM116.507 187.727C116.931 187.727 117.308 187.639 117.636 187.463C117.964 187.287 118.22 187.043 118.404 186.731C118.596 186.419 118.692 186.058 118.692 185.65C118.692 185.242 118.596 184.882 118.404 184.57C118.22 184.258 117.964 184.017 117.636 183.849C117.308 183.673 116.931 183.585 116.507 183.585C116.083 183.585 115.703 183.673 115.367 183.849C115.038 184.017 114.778 184.258 114.586 184.57C114.402 184.882 114.31 185.242 114.31 185.65C114.31 186.058 114.402 186.419 114.586 186.731C114.778 187.043 115.038 187.287 115.367 187.463C115.703 187.639 116.083 187.727 116.507 187.727Z" fill="white"/>
<g clip-path="url(#clip2_629_1676)">
<path d="M129.337 184.773C129.194 184.773 129.055 184.731 128.936 184.652C128.818 184.573 128.726 184.46 128.671 184.329C128.617 184.197 128.602 184.052 128.63 183.912C128.658 183.773 128.726 183.644 128.827 183.544C128.928 183.443 129.056 183.374 129.196 183.346C129.336 183.319 129.481 183.333 129.612 183.387C129.744 183.442 129.856 183.534 129.936 183.653C130.015 183.771 130.057 183.91 130.057 184.053C130.057 184.244 129.981 184.427 129.846 184.562C129.711 184.697 129.528 184.773 129.337 184.773Z" fill="#1B7F4E"/>
<path d="M129.337 190.896C128.411 190.896 127.505 190.621 126.735 190.106C125.965 189.592 125.365 188.861 125.011 188.005C124.656 187.149 124.564 186.208 124.744 185.3C124.925 184.391 125.371 183.557 126.026 182.902C126.681 182.247 127.515 181.801 128.423 181.621C129.331 181.44 130.273 181.533 131.129 181.887C131.984 182.242 132.715 182.842 133.23 183.612C133.744 184.382 134.019 185.287 134.019 186.213C134.019 187.455 133.526 188.646 132.648 189.524C131.77 190.402 130.579 190.896 129.337 190.896ZM129.337 182.251C128.553 182.251 127.787 182.484 127.136 182.919C126.484 183.354 125.976 183.973 125.676 184.697C125.376 185.421 125.298 186.218 125.451 186.986C125.604 187.755 125.981 188.461 126.535 189.015C127.089 189.569 127.795 189.946 128.564 190.099C129.332 190.252 130.129 190.173 130.853 189.874C131.577 189.574 132.196 189.066 132.631 188.414C133.066 187.763 133.299 186.997 133.299 186.213C133.299 185.162 132.881 184.155 132.138 183.412C131.395 182.669 130.387 182.251 129.337 182.251Z" fill="#1B7F4E"/>
<path d="M129.337 189.095C129.146 189.095 128.962 189.02 128.827 188.885C128.692 188.749 128.616 188.566 128.616 188.375V186.214C128.616 186.023 128.692 185.84 128.827 185.705C128.962 185.57 129.146 185.494 129.337 185.494C129.528 185.494 129.711 185.57 129.846 185.705C129.981 185.84 130.057 186.023 130.057 186.214V188.375C130.057 188.566 129.981 188.749 129.846 188.885C129.711 189.02 129.528 189.095 129.337 189.095Z" fill="#1B7F4E"/>
</g>
<path d="M238.775 226.24H242.454V227.116H238.775V226.24ZM238.877 230H237.858V222.867H242.892V223.753H238.877V230ZM244.084 230V224.599H245.022V226.067L244.93 225.7C245.08 225.326 245.331 225.041 245.684 224.844C246.037 224.647 246.472 224.548 246.989 224.548V225.496C246.948 225.489 246.907 225.486 246.866 225.486C246.832 225.486 246.798 225.486 246.764 225.486C246.241 225.486 245.827 225.642 245.521 225.954C245.215 226.267 245.063 226.719 245.063 227.31V230H244.084ZM250.549 230.061C249.972 230.061 249.462 229.942 249.021 229.704C248.586 229.467 248.246 229.141 248.002 228.726C247.764 228.312 247.645 227.836 247.645 227.3C247.645 226.763 247.761 226.287 247.992 225.873C248.229 225.459 248.552 225.136 248.96 224.905C249.374 224.667 249.839 224.548 250.356 224.548C250.879 224.548 251.341 224.664 251.742 224.895C252.142 225.126 252.455 225.452 252.679 225.873C252.91 226.287 253.026 226.773 253.026 227.33C253.026 227.371 253.022 227.418 253.015 227.473C253.015 227.527 253.012 227.578 253.005 227.626H248.409V226.923H252.496L252.098 227.167C252.105 226.821 252.034 226.512 251.884 226.24C251.735 225.968 251.528 225.757 251.263 225.608C251.005 225.452 250.702 225.374 250.356 225.374C250.016 225.374 249.714 225.452 249.449 225.608C249.184 225.757 248.977 225.971 248.827 226.25C248.678 226.522 248.603 226.834 248.603 227.187V227.351C248.603 227.711 248.685 228.033 248.848 228.319C249.017 228.597 249.252 228.815 249.551 228.971C249.85 229.127 250.193 229.205 250.58 229.205C250.899 229.205 251.188 229.151 251.446 229.042C251.711 228.933 251.942 228.77 252.139 228.553L252.679 229.185C252.435 229.47 252.129 229.687 251.762 229.837C251.402 229.986 250.998 230.061 250.549 230.061ZM256.789 230.061C256.211 230.061 255.702 229.942 255.26 229.704C254.826 229.467 254.486 229.141 254.241 228.726C254.004 228.312 253.885 227.836 253.885 227.3C253.885 226.763 254 226.287 254.231 225.873C254.469 225.459 254.792 225.136 255.199 224.905C255.614 224.667 256.079 224.548 256.595 224.548C257.118 224.548 257.58 224.664 257.981 224.895C258.382 225.126 258.694 225.452 258.919 225.873C259.15 226.287 259.265 226.773 259.265 227.33C259.265 227.371 259.262 227.418 259.255 227.473C259.255 227.527 259.252 227.578 259.245 227.626H254.649V226.923H258.735L258.338 227.167C258.345 226.821 258.273 226.512 258.124 226.24C257.974 225.968 257.767 225.757 257.502 225.608C257.244 225.452 256.942 225.374 256.595 225.374C256.256 225.374 255.953 225.452 255.688 225.608C255.423 225.757 255.216 225.971 255.067 226.25C254.917 226.522 254.843 226.834 254.843 227.187V227.351C254.843 227.711 254.924 228.033 255.087 228.319C255.257 228.597 255.491 228.815 255.79 228.971C256.089 229.127 256.432 229.205 256.819 229.205C257.139 229.205 257.427 229.151 257.686 229.042C257.951 228.933 258.182 228.77 258.379 228.553L258.919 229.185C258.674 229.47 258.368 229.687 258.002 229.837C257.641 229.986 257.237 230.061 256.789 230.061Z" fill="white"/>
<path d="M36.2606 231V222.596H37.2451L42.804 229.499H42.2877V222.596H43.4883V231H42.5038L36.945 224.096H37.4613V231H36.2606ZM48.6693 231.072C47.9889 231.072 47.3886 230.932 46.8683 230.652C46.3561 230.372 45.9559 229.987 45.6677 229.499C45.3876 229.011 45.2475 228.451 45.2475 227.818C45.2475 227.186 45.3836 226.626 45.6557 226.138C45.9359 225.649 46.3161 225.269 46.7963 224.997C47.2846 224.717 47.8328 224.577 48.4412 224.577C49.0575 224.577 49.6017 224.713 50.074 224.985C50.5462 225.257 50.9144 225.641 51.1785 226.138C51.4507 226.626 51.5868 227.198 51.5868 227.854C51.5868 227.902 51.5828 227.958 51.5748 228.022C51.5748 228.087 51.5707 228.147 51.5627 228.203H46.148V227.374H50.9624L50.4942 227.662C50.5022 227.254 50.4182 226.89 50.2421 226.57C50.066 226.25 49.8219 226.001 49.5097 225.825C49.2055 225.641 48.8494 225.549 48.4412 225.549C48.0409 225.549 47.6848 225.641 47.3726 225.825C47.0604 226.001 46.8163 226.254 46.6402 226.582C46.4641 226.902 46.3761 227.27 46.3761 227.686V227.878C46.3761 228.303 46.4721 228.683 46.6642 229.019C46.8643 229.347 47.1405 229.603 47.4927 229.787C47.8448 229.971 48.2491 230.064 48.7053 230.064C49.0815 230.064 49.4217 229.999 49.7258 229.871C50.038 229.743 50.3101 229.551 50.5422 229.295L51.1785 230.04C50.8904 230.376 50.5302 230.632 50.098 230.808C49.6738 230.984 49.1975 231.072 48.6693 231.072ZM55.3723 231.072C54.732 231.072 54.2358 230.9 53.8836 230.556C53.5314 230.212 53.3553 229.719 53.3553 229.079V223.244H54.5079V229.031C54.5079 229.375 54.5919 229.639 54.76 229.823C54.9361 230.007 55.1843 230.1 55.5044 230.1C55.8646 230.1 56.1648 229.999 56.4049 229.799L56.7651 230.628C56.589 230.78 56.3769 230.892 56.1287 230.964C55.8886 231.036 55.6365 231.072 55.3723 231.072ZM52.2748 225.585V224.637H56.3328V225.585H52.2748ZM59.386 231L57.0208 224.637H58.1133L60.2144 230.4H59.6981L61.8832 224.637H62.8557L64.9928 230.4H64.4886L66.6377 224.637H67.6702L65.293 231H64.1884L62.1834 225.741H62.5196L60.4905 231H59.386ZM71.3893 231.072C70.749 231.072 70.1807 230.932 69.6844 230.652C69.1882 230.372 68.796 229.987 68.5078 229.499C68.2197 229.003 68.0756 228.443 68.0756 227.818C68.0756 227.186 68.2197 226.626 68.5078 226.138C68.796 225.649 69.1882 225.269 69.6844 224.997C70.1807 224.717 70.749 224.577 71.3893 224.577C72.0216 224.577 72.5859 224.717 73.0821 224.997C73.5864 225.269 73.9786 225.649 74.2587 226.138C74.5469 226.618 74.691 227.178 74.691 227.818C74.691 228.451 74.5469 229.011 74.2587 229.499C73.9786 229.987 73.5864 230.372 73.0821 230.652C72.5859 230.932 72.0216 231.072 71.3893 231.072ZM71.3893 230.064C71.7975 230.064 72.1617 229.971 72.4818 229.787C72.81 229.603 73.0661 229.343 73.2502 229.007C73.4343 228.663 73.5264 228.267 73.5264 227.818C73.5264 227.362 73.4343 226.97 73.2502 226.642C73.0661 226.306 72.81 226.045 72.4818 225.861C72.1617 225.677 71.7975 225.585 71.3893 225.585C70.9811 225.585 70.6169 225.677 70.2967 225.861C69.9766 226.045 69.7204 226.306 69.5283 226.642C69.3362 226.97 69.2402 227.362 69.2402 227.818C69.2402 228.267 69.3362 228.663 69.5283 229.007C69.7204 229.343 69.9766 229.603 70.2967 229.787C70.6169 229.971 70.9811 230.064 71.3893 230.064ZM76.285 231V224.637H77.3895V226.366L77.2815 225.933C77.4576 225.493 77.7537 225.157 78.1699 224.925C78.5861 224.693 79.0984 224.577 79.7067 224.577V225.693C79.6587 225.685 79.6107 225.681 79.5626 225.681C79.5226 225.681 79.4826 225.681 79.4426 225.681C78.8263 225.681 78.338 225.865 77.9778 226.234C77.6177 226.602 77.4376 227.134 77.4376 227.83V231H76.285ZM82.0638 229.463L82.0878 227.986L85.7497 224.637H87.1424L84.3329 227.398L83.7086 227.926L82.0638 229.463ZM81.1273 231V222.091H82.2799V231H81.1273ZM85.9898 231L83.4925 227.902L84.2369 226.978L87.4065 231H85.9898ZM94.5233 231.072C93.875 231.072 93.2947 230.932 92.7824 230.652C92.2782 230.372 91.882 229.987 91.5938 229.499C91.3057 229.011 91.1616 228.451 91.1616 227.818C91.1616 227.186 91.3057 226.626 91.5938 226.138C91.882 225.649 92.2782 225.269 92.7824 224.997C93.2947 224.717 93.875 224.577 94.5233 224.577C95.0996 224.577 95.6119 224.693 96.0601 224.925C96.5163 225.149 96.8685 225.485 97.1166 225.933L96.2402 226.498C96.0321 226.186 95.776 225.957 95.4718 225.813C95.1757 225.661 94.8555 225.585 94.5113 225.585C94.0951 225.585 93.7229 225.677 93.3947 225.861C93.0666 226.045 92.8064 226.306 92.6143 226.642C92.4223 226.97 92.3262 227.362 92.3262 227.818C92.3262 228.275 92.4223 228.671 92.6143 229.007C92.8064 229.343 93.0666 229.603 93.3947 229.787C93.7229 229.971 94.0951 230.064 94.5113 230.064C94.8555 230.064 95.1757 229.991 95.4718 229.847C95.776 229.695 96.0321 229.463 96.2402 229.151L97.1166 229.703C96.8685 230.144 96.5163 230.484 96.0601 230.724C95.6119 230.956 95.0996 231.072 94.5233 231.072ZM101.24 231.072C100.6 231.072 100.032 230.932 99.5356 230.652C99.0393 230.372 98.6471 229.987 98.359 229.499C98.0709 229.003 97.9268 228.443 97.9268 227.818C97.9268 227.186 98.0709 226.626 98.359 226.138C98.6471 225.649 99.0393 225.269 99.5356 224.997C100.032 224.717 100.6 224.577 101.24 224.577C101.873 224.577 102.437 224.717 102.933 224.997C103.438 225.269 103.83 225.649 104.11 226.138C104.398 226.618 104.542 227.178 104.542 227.818C104.542 228.451 104.398 229.011 104.11 229.499C103.83 229.987 103.438 230.372 102.933 230.652C102.437 230.932 101.873 231.072 101.24 231.072ZM101.24 230.064C101.649 230.064 102.013 229.971 102.333 229.787C102.661 229.603 102.917 229.343 103.101 229.007C103.286 228.663 103.378 228.267 103.378 227.818C103.378 227.362 103.286 226.97 103.101 226.642C102.917 226.306 102.661 226.045 102.333 225.861C102.013 225.677 101.649 225.585 101.24 225.585C100.832 225.585 100.468 225.677 100.148 225.861C99.8278 226.045 99.5716 226.306 99.3795 226.642C99.1874 226.97 99.0914 227.362 99.0914 227.818C99.0914 228.267 99.1874 228.663 99.3795 229.007C99.5716 229.343 99.8278 229.603 100.148 229.787C100.468 229.971 100.832 230.064 101.24 230.064ZM107.961 231.072C107.433 231.072 106.929 231 106.448 230.856C105.976 230.712 105.604 230.536 105.332 230.328L105.812 229.415C106.084 229.599 106.42 229.755 106.821 229.883C107.221 230.011 107.629 230.076 108.045 230.076C108.581 230.076 108.966 229.999 109.198 229.847C109.438 229.695 109.558 229.483 109.558 229.211C109.558 229.011 109.486 228.855 109.342 228.743C109.198 228.631 109.006 228.547 108.766 228.491C108.533 228.435 108.273 228.387 107.985 228.347C107.697 228.299 107.409 228.243 107.121 228.179C106.833 228.107 106.568 228.01 106.328 227.89C106.088 227.762 105.896 227.59 105.752 227.374C105.608 227.15 105.536 226.854 105.536 226.486C105.536 226.101 105.644 225.765 105.86 225.477C106.076 225.189 106.38 224.969 106.772 224.817C107.173 224.657 107.645 224.577 108.189 224.577C108.605 224.577 109.026 224.629 109.45 224.733C109.882 224.829 110.234 224.969 110.506 225.153L110.014 226.065C109.726 225.873 109.426 225.741 109.114 225.669C108.802 225.597 108.489 225.561 108.177 225.561C107.673 225.561 107.297 225.645 107.049 225.813C106.8 225.973 106.676 226.182 106.676 226.438C106.676 226.654 106.748 226.822 106.893 226.942C107.045 227.054 107.237 227.142 107.469 227.206C107.709 227.27 107.973 227.326 108.261 227.374C108.549 227.414 108.838 227.47 109.126 227.542C109.414 227.606 109.674 227.698 109.906 227.818C110.146 227.938 110.338 228.107 110.482 228.323C110.634 228.539 110.71 228.827 110.71 229.187C110.71 229.571 110.598 229.903 110.374 230.184C110.15 230.464 109.834 230.684 109.426 230.844C109.018 230.996 108.529 231.072 107.961 231.072ZM114.336 231.072C113.696 231.072 113.199 230.9 112.847 230.556C112.495 230.212 112.319 229.719 112.319 229.079V223.244H113.472V229.031C113.472 229.375 113.556 229.639 113.724 229.823C113.9 230.007 114.148 230.1 114.468 230.1C114.828 230.1 115.128 229.999 115.369 229.799L115.729 230.628C115.553 230.78 115.341 230.892 115.092 230.964C114.852 231.036 114.6 231.072 114.336 231.072ZM111.238 225.585V224.637H115.297V225.585H111.238Z" fill="white"/>
<g clip-path="url(#clip3_629_1676)">
<path d="M124.733 225.8C124.591 225.8 124.451 225.758 124.333 225.679C124.214 225.6 124.122 225.487 124.068 225.355C124.013 225.224 123.999 225.079 124.027 224.939C124.054 224.799 124.123 224.671 124.224 224.57C124.324 224.47 124.453 224.401 124.593 224.373C124.732 224.345 124.877 224.36 125.009 224.414C125.14 224.469 125.253 224.561 125.332 224.68C125.411 224.798 125.453 224.937 125.453 225.08C125.453 225.271 125.378 225.454 125.242 225.589C125.107 225.724 124.924 225.8 124.733 225.8Z" fill="#1B7F4E"/>
<path d="M124.732 231.922C123.806 231.922 122.901 231.648 122.131 231.133C121.361 230.619 120.761 229.887 120.406 229.032C120.052 228.176 119.959 227.235 120.14 226.327C120.32 225.418 120.766 224.584 121.421 223.929C122.076 223.274 122.91 222.828 123.819 222.648C124.727 222.467 125.668 222.56 126.524 222.914C127.38 223.268 128.111 223.869 128.625 224.639C129.14 225.409 129.415 226.314 129.415 227.24C129.415 228.482 128.921 229.673 128.043 230.551C127.165 231.429 125.974 231.922 124.732 231.922ZM124.732 223.278C123.949 223.278 123.183 223.51 122.531 223.946C121.879 224.381 121.372 225 121.072 225.724C120.772 226.448 120.693 227.244 120.846 228.013C120.999 228.782 121.377 229.487 121.931 230.042C122.485 230.596 123.191 230.973 123.959 231.126C124.728 231.279 125.524 231.2 126.248 230.9C126.972 230.601 127.591 230.093 128.027 229.441C128.462 228.79 128.694 228.024 128.694 227.24C128.694 226.189 128.277 225.181 127.534 224.438C126.791 223.695 125.783 223.278 124.732 223.278Z" fill="#1B7F4E"/>
<path d="M124.733 230.122C124.542 230.122 124.359 230.046 124.224 229.911C124.089 229.776 124.013 229.593 124.013 229.402V227.241C124.013 227.05 124.089 226.867 124.224 226.731C124.359 226.596 124.542 226.521 124.733 226.521C124.924 226.521 125.107 226.596 125.242 226.731C125.378 226.867 125.453 227.05 125.453 227.241V229.402C125.453 229.593 125.378 229.776 125.242 229.911C125.107 230.046 124.924 230.122 124.733 230.122Z" fill="#1B7F4E"/>
</g>
<defs>
<clipPath id="clip0_629_1676">
<rect width="11.5259" height="11.5259" fill="white" transform="translate(143 96)"/>
</clipPath>
<clipPath id="clip1_629_1676">
<rect width="11.5259" height="11.5259" fill="white" transform="translate(121 138)"/>
</clipPath>
<clipPath id="clip2_629_1676">
<rect width="11.5259" height="11.5259" fill="white" transform="translate(123.731 180.287)"/>
</clipPath>
<clipPath id="clip3_629_1676">
<rect width="11.5259" height="11.5259" fill="white" transform="translate(119.124 221.315)"/>
</clipPath>
</defs>
</svg>
