<svg width="584" height="371" viewBox="0 0 584 371" fill="none" xmlns="http://www.w3.org/2000/svg">
<rect width="583.75" height="371" fill="#121212"/>
<path d="M469.047 56.0686H470.468L475.889 69.3418H474.095L472.524 65.4533H466.953L465.402 69.3418H463.607L469.047 56.0686ZM472.151 64.1447L469.758 58.0129L467.29 64.1447H472.151ZM477.105 65.4346V59.5832H478.75V65.1168C478.75 66.1139 478.924 66.8616 479.273 67.3602C479.622 67.8587 480.14 68.108 480.825 68.108C481.274 68.108 481.704 68.0145 482.115 67.8275C482.539 67.6281 482.919 67.3477 483.255 66.9863C483.592 66.6249 483.854 66.1949 484.041 65.6964V59.5832H485.686V67.4723C485.686 67.6717 485.723 67.8213 485.798 67.921C485.885 68.0083 486.022 68.0581 486.209 68.0706V69.3418C486.022 69.3667 485.873 69.3792 485.76 69.3792C485.661 69.3916 485.561 69.3979 485.461 69.3979C485.15 69.3979 484.882 69.3044 484.657 69.1175C484.433 68.9181 484.315 68.675 484.302 68.3884L484.265 67.248C483.841 67.9709 483.268 68.5317 482.545 68.9305C481.835 69.3293 481.056 69.5287 480.208 69.5287C479.186 69.5287 478.414 69.186 477.89 68.5005C477.367 67.8026 477.105 66.7806 477.105 65.4346ZM493.474 68.8557C493.337 68.9181 493.15 68.9991 492.913 69.0988C492.676 69.1985 492.402 69.2857 492.09 69.3605C491.779 69.4353 491.448 69.4727 491.099 69.4727C490.701 69.4727 490.333 69.4041 489.996 69.267C489.66 69.1175 489.392 68.8931 489.193 68.594C488.993 68.2824 488.893 67.8961 488.893 67.4349V60.8732H487.566V59.5832H488.893V56.3304H490.539V59.5832H492.726V60.8732H490.539V66.9302C490.563 67.2792 490.682 67.5409 490.894 67.7154C491.106 67.8774 491.355 67.9584 491.642 67.9584C491.966 67.9584 492.265 67.9023 492.539 67.7901C492.813 67.678 492.994 67.597 493.081 67.5471L493.474 68.8557ZM499.133 69.5287C498.398 69.5287 497.731 69.3979 497.133 69.1362C496.534 68.862 496.017 68.4943 495.581 68.0332C495.145 67.5596 494.808 67.0174 494.571 66.4067C494.335 65.7961 494.216 65.1542 494.216 64.4812C494.216 63.7957 494.335 63.1477 494.571 62.537C494.808 61.9263 495.145 61.3904 495.581 60.9292C496.017 60.4556 496.534 60.088 497.133 59.8263C497.743 59.5521 498.41 59.415 499.133 59.415C499.868 59.415 500.535 59.5521 501.133 59.8263C501.731 60.088 502.249 60.4556 502.685 60.9292C503.134 61.3904 503.476 61.9263 503.713 62.537C503.95 63.1477 504.068 63.7957 504.068 64.4812C504.068 65.1542 503.95 65.7961 503.713 66.4067C503.476 67.0174 503.14 67.5596 502.704 68.0332C502.267 68.4943 501.744 68.862 501.133 69.1362C500.535 69.3979 499.868 69.5287 499.133 69.5287ZM495.899 64.4999C495.899 65.1729 496.042 65.7836 496.329 66.332C496.628 66.8803 497.02 67.3166 497.507 67.6406C497.993 67.9522 498.535 68.108 499.133 68.108C499.731 68.108 500.273 67.9459 500.759 67.6219C501.258 67.2979 501.65 66.8616 501.937 66.3133C502.236 65.7524 502.386 65.1355 502.386 64.4625C502.386 63.7895 502.236 63.1788 501.937 62.6304C501.65 62.0821 501.258 61.6459 500.759 61.3218C500.273 60.9978 499.731 60.8358 499.133 60.8358C498.535 60.8358 497.993 61.004 497.507 61.3405C497.02 61.6646 496.628 62.1008 496.329 62.6491C496.042 63.1975 495.899 63.8144 495.899 64.4999Z" fill="#BDBDBD"/>
<path d="M411.047 117.73H412.468L417.889 131.003H416.095L414.524 127.115H408.953L407.402 131.003H405.607L411.047 117.73ZM414.151 125.806L411.758 119.675L409.29 125.806H414.151ZM419.105 127.096V121.245H420.75V126.778C420.75 127.775 420.924 128.523 421.273 129.022C421.622 129.52 422.14 129.77 422.825 129.77C423.274 129.77 423.704 129.676 424.115 129.489C424.539 129.29 424.919 129.009 425.255 128.648C425.592 128.286 425.854 127.856 426.041 127.358V121.245H427.686V129.134C427.686 129.333 427.723 129.483 427.798 129.583C427.885 129.67 428.022 129.72 428.209 129.732V131.003C428.022 131.028 427.873 131.041 427.76 131.041C427.661 131.053 427.561 131.06 427.461 131.06C427.15 131.06 426.882 130.966 426.657 130.779C426.433 130.58 426.315 130.337 426.302 130.05L426.265 128.91C425.841 129.632 425.268 130.193 424.545 130.592C423.835 130.991 423.056 131.19 422.208 131.19C421.186 131.19 420.414 130.848 419.89 130.162C419.367 129.464 419.105 128.442 419.105 127.096ZM435.474 130.517C435.337 130.58 435.15 130.661 434.913 130.76C434.676 130.86 434.402 130.947 434.09 131.022C433.779 131.097 433.448 131.134 433.099 131.134C432.701 131.134 432.333 131.066 431.996 130.929C431.66 130.779 431.392 130.555 431.193 130.256C430.993 129.944 430.893 129.558 430.893 129.097V122.535H429.566V121.245H430.893V117.992H432.539V121.245H434.726V122.535H432.539V128.592C432.563 128.941 432.682 129.203 432.894 129.377C433.106 129.539 433.355 129.62 433.642 129.62C433.966 129.62 434.265 129.564 434.539 129.452C434.813 129.34 434.994 129.259 435.081 129.209L435.474 130.517ZM441.133 131.19C440.398 131.19 439.731 131.06 439.133 130.798C438.534 130.524 438.017 130.156 437.581 129.695C437.145 129.221 436.808 128.679 436.571 128.068C436.335 127.458 436.216 126.816 436.216 126.143C436.216 125.457 436.335 124.809 436.571 124.199C436.808 123.588 437.145 123.052 437.581 122.591C438.017 122.117 438.534 121.75 439.133 121.488C439.743 121.214 440.41 121.077 441.133 121.077C441.868 121.077 442.535 121.214 443.133 121.488C443.731 121.75 444.249 122.117 444.685 122.591C445.134 123.052 445.476 123.588 445.713 124.199C445.95 124.809 446.068 125.457 446.068 126.143C446.068 126.816 445.95 127.458 445.713 128.068C445.476 128.679 445.14 129.221 444.704 129.695C444.267 130.156 443.744 130.524 443.133 130.798C442.535 131.06 441.868 131.19 441.133 131.19ZM437.899 126.162C437.899 126.835 438.042 127.445 438.329 127.994C438.628 128.542 439.02 128.978 439.507 129.302C439.993 129.614 440.535 129.77 441.133 129.77C441.731 129.77 442.273 129.608 442.759 129.284C443.258 128.959 443.65 128.523 443.937 127.975C444.236 127.414 444.386 126.797 444.386 126.124C444.386 125.451 444.236 124.84 443.937 124.292C443.65 123.744 443.258 123.307 442.759 122.983C442.273 122.659 441.731 122.497 441.133 122.497C440.535 122.497 439.993 122.666 439.507 123.002C439.02 123.326 438.628 123.762 438.329 124.311C438.042 124.859 437.899 125.476 437.899 126.162ZM452.659 126.648V125.152H458.174V126.648H452.659ZM469.938 131.189C468.938 131.189 468.086 130.917 467.382 130.373C466.679 129.824 466.141 129.03 465.769 127.989C465.397 126.945 465.212 125.684 465.212 124.205C465.212 122.736 465.397 121.481 465.769 120.441C466.145 119.397 466.685 118.6 467.389 118.051C468.097 117.498 468.947 117.221 469.938 117.221C470.93 117.221 471.777 117.498 472.481 118.051C473.189 118.6 473.729 119.397 474.101 120.441C474.477 121.481 474.665 122.736 474.665 124.205C474.665 125.684 474.479 126.945 474.107 127.989C473.736 129.03 473.198 129.824 472.494 130.373C471.791 130.917 470.939 131.189 469.938 131.189ZM469.938 129.729C470.93 129.729 471.7 129.251 472.249 128.295C472.797 127.339 473.072 125.976 473.072 124.205C473.072 123.028 472.946 122.026 472.693 121.198C472.446 120.37 472.087 119.74 471.618 119.306C471.153 118.872 470.593 118.655 469.938 118.655C468.956 118.655 468.188 119.14 467.635 120.109C467.082 121.074 466.805 122.439 466.805 124.205C466.805 125.383 466.929 126.383 467.177 127.206C467.425 128.029 467.781 128.656 468.245 129.085C468.715 129.514 469.279 129.729 469.938 129.729ZM477.882 131.11C477.554 131.11 477.273 130.992 477.038 130.758C476.804 130.523 476.687 130.242 476.687 129.915C476.687 129.587 476.804 129.306 477.038 129.072C477.273 128.837 477.554 128.72 477.882 128.72C478.209 128.72 478.49 128.837 478.725 129.072C478.959 129.306 479.077 129.587 479.077 129.915C479.077 130.132 479.021 130.331 478.911 130.512C478.804 130.694 478.661 130.84 478.479 130.95C478.302 131.057 478.103 131.11 477.882 131.11ZM485.836 131.189C485.057 131.189 484.356 131.034 483.732 130.725C483.108 130.415 482.608 129.99 482.232 129.45C481.855 128.91 481.65 128.295 481.614 127.604H483.207C483.269 128.22 483.548 128.729 484.044 129.131C484.544 129.53 485.142 129.729 485.836 129.729C486.394 129.729 486.89 129.598 487.323 129.337C487.762 129.076 488.105 128.717 488.352 128.262C488.605 127.801 488.731 127.281 488.731 126.702C488.731 126.108 488.6 125.58 488.339 125.115C488.082 124.646 487.728 124.276 487.277 124.006C486.826 123.736 486.31 123.599 485.73 123.595C485.314 123.59 484.887 123.654 484.449 123.787C484.011 123.916 483.65 124.081 483.367 124.285L481.827 124.099L482.65 117.407H489.713V118.868H484.031L483.553 122.878H483.632C483.911 122.656 484.261 122.473 484.681 122.327C485.102 122.181 485.54 122.108 485.996 122.108C486.828 122.108 487.569 122.307 488.22 122.705C488.875 123.099 489.388 123.639 489.76 124.325C490.136 125.011 490.324 125.794 490.324 126.675C490.324 127.542 490.129 128.317 489.74 128.999C489.355 129.676 488.824 130.211 488.147 130.605C487.47 130.995 486.699 131.189 485.836 131.189ZM495.125 123.002C494.601 123.002 494.121 122.884 493.685 122.647C493.249 122.398 492.9 122.067 492.638 121.656C492.377 121.232 492.246 120.771 492.246 120.273C492.246 119.762 492.377 119.301 492.638 118.889C492.9 118.478 493.249 118.154 493.685 117.917C494.121 117.668 494.601 117.543 495.125 117.543C495.661 117.543 496.147 117.668 496.583 117.917C497.019 118.154 497.362 118.478 497.611 118.889C497.873 119.301 498.004 119.756 498.004 120.254C498.004 120.765 497.873 121.232 497.611 121.656C497.362 122.067 497.019 122.398 496.583 122.647C496.147 122.884 495.661 123.002 495.125 123.002ZM495.125 122.105C495.436 122.105 495.717 122.024 495.966 121.862C496.228 121.687 496.433 121.463 496.583 121.189C496.732 120.902 496.807 120.597 496.807 120.273C496.807 119.936 496.726 119.631 496.564 119.357C496.415 119.07 496.209 118.846 495.947 118.684C495.698 118.522 495.424 118.441 495.125 118.441C494.813 118.441 494.526 118.528 494.265 118.702C494.015 118.864 493.816 119.089 493.666 119.375C493.517 119.65 493.442 119.949 493.442 120.273C493.442 120.609 493.517 120.915 493.666 121.189C493.828 121.463 494.034 121.687 494.283 121.862C494.545 122.024 494.826 122.105 495.125 122.105ZM501.686 131.19C501.151 131.19 500.664 131.072 500.228 130.835C499.805 130.586 499.462 130.256 499.2 129.844C498.938 129.421 498.807 128.959 498.807 128.461C498.807 127.95 498.938 127.489 499.2 127.078C499.462 126.666 499.805 126.342 500.228 126.105C500.664 125.856 501.151 125.732 501.686 125.732C502.222 125.732 502.708 125.856 503.145 126.105C503.581 126.342 503.924 126.666 504.173 127.078C504.435 127.489 504.565 127.944 504.565 128.442C504.565 128.953 504.435 129.421 504.173 129.844C503.924 130.256 503.581 130.586 503.145 130.835C502.708 131.072 502.222 131.19 501.686 131.19ZM501.686 130.293C501.998 130.293 502.278 130.212 502.528 130.05C502.789 129.876 502.995 129.651 503.145 129.377C503.294 129.09 503.369 128.785 503.369 128.461C503.369 128.124 503.288 127.819 503.126 127.545C502.976 127.258 502.771 127.034 502.509 126.872C502.26 126.71 501.986 126.629 501.686 126.629C501.375 126.629 501.088 126.716 500.826 126.891C500.577 127.053 500.378 127.277 500.228 127.564C500.079 127.838 500.004 128.137 500.004 128.461C500.004 128.797 500.079 129.103 500.228 129.377C500.39 129.651 500.596 129.876 500.845 130.05C501.107 130.212 501.387 130.293 501.686 130.293ZM492.881 130.386L498.116 124.086L503.126 117.637L503.93 118.328L498.751 124.591L493.666 131.097L492.881 130.386Z" fill="#BDBDBD"/>
<path d="M469.047 177.392H470.468L475.889 190.666H474.095L472.524 186.777H466.953L465.402 190.666H463.607L469.047 177.392ZM472.151 185.468L469.758 179.337L467.29 185.468H472.151ZM477.105 186.758V180.907H478.75V186.441C478.75 187.438 478.924 188.185 479.273 188.684C479.622 189.182 480.14 189.432 480.825 189.432C481.274 189.432 481.704 189.338 482.115 189.151C482.539 188.952 482.919 188.671 483.255 188.31C483.592 187.949 483.854 187.519 484.041 187.02V180.907H485.686V188.796C485.686 188.995 485.723 189.145 485.798 189.245C485.885 189.332 486.022 189.382 486.209 189.394V190.666C486.022 190.69 485.873 190.703 485.76 190.703C485.661 190.715 485.561 190.722 485.461 190.722C485.15 190.722 484.882 190.628 484.657 190.441C484.433 190.242 484.315 189.999 484.302 189.712L484.265 188.572C483.841 189.295 483.268 189.855 482.545 190.254C481.835 190.653 481.056 190.852 480.208 190.852C479.186 190.852 478.414 190.51 477.89 189.824C477.367 189.126 477.105 188.104 477.105 186.758ZM493.474 190.179C493.337 190.242 493.15 190.323 492.913 190.422C492.676 190.522 492.402 190.609 492.09 190.684C491.779 190.759 491.448 190.796 491.099 190.796C490.701 190.796 490.333 190.728 489.996 190.591C489.66 190.441 489.392 190.217 489.193 189.918C488.993 189.606 488.893 189.22 488.893 188.759V182.197H487.566V180.907H488.893V177.654H490.539V180.907H492.726V182.197H490.539V188.254C490.563 188.603 490.682 188.865 490.894 189.039C491.106 189.201 491.355 189.282 491.642 189.282C491.966 189.282 492.265 189.226 492.539 189.114C492.813 189.002 492.994 188.921 493.081 188.871L493.474 190.179ZM499.133 190.852C498.398 190.852 497.731 190.722 497.133 190.46C496.534 190.186 496.017 189.818 495.581 189.357C495.145 188.883 494.808 188.341 494.571 187.73C494.335 187.12 494.216 186.478 494.216 185.805C494.216 185.119 494.335 184.471 494.571 183.861C494.808 183.25 495.145 182.714 495.581 182.253C496.017 181.779 496.534 181.412 497.133 181.15C497.743 180.876 498.41 180.739 499.133 180.739C499.868 180.739 500.535 180.876 501.133 181.15C501.731 181.412 502.249 181.779 502.685 182.253C503.134 182.714 503.476 183.25 503.713 183.861C503.95 184.471 504.068 185.119 504.068 185.805C504.068 186.478 503.95 187.12 503.713 187.73C503.476 188.341 503.14 188.883 502.704 189.357C502.267 189.818 501.744 190.186 501.133 190.46C500.535 190.722 499.868 190.852 499.133 190.852ZM495.899 185.824C495.899 186.497 496.042 187.107 496.329 187.656C496.628 188.204 497.02 188.64 497.507 188.964C497.993 189.276 498.535 189.432 499.133 189.432C499.731 189.432 500.273 189.27 500.759 188.946C501.258 188.622 501.65 188.185 501.937 187.637C502.236 187.076 502.386 186.459 502.386 185.786C502.386 185.113 502.236 184.503 501.937 183.954C501.65 183.406 501.258 182.97 500.759 182.646C500.273 182.322 499.731 182.159 499.133 182.159C498.535 182.159 497.993 182.328 497.507 182.664C497.02 182.988 496.628 183.424 496.329 183.973C496.042 184.521 495.899 185.138 495.899 185.824Z" fill="#BDBDBD"/>
<path d="M468.009 251.327V238.054H476.777V239.55H469.692V243.98H475.655V245.382H469.692V251.327H468.009ZM483.094 243.008C482.272 243.021 481.543 243.232 480.907 243.644C480.284 244.042 479.841 244.597 479.58 245.307V251.327H477.935V241.569H479.468V243.831C479.804 243.158 480.246 242.615 480.795 242.204C481.356 241.78 481.941 241.544 482.552 241.494C482.677 241.494 482.783 241.494 482.87 241.494C482.957 241.494 483.032 241.5 483.094 241.512V243.008ZM488.807 251.514C488.072 251.514 487.399 251.383 486.788 251.122C486.19 250.847 485.666 250.48 485.218 250.019C484.782 249.545 484.439 249.003 484.19 248.392C483.953 247.781 483.834 247.133 483.834 246.448C483.834 245.526 484.046 244.684 484.47 243.924C484.894 243.164 485.479 242.553 486.227 242.092C486.987 241.631 487.854 241.4 488.826 241.4C489.81 241.4 490.664 241.637 491.387 242.111C492.122 242.572 492.689 243.183 493.088 243.943C493.499 244.691 493.705 245.501 493.705 246.373C493.705 246.498 493.699 246.622 493.686 246.747C493.686 246.859 493.68 246.946 493.668 247.009H485.573C485.623 247.644 485.797 248.211 486.096 248.71C486.408 249.196 486.807 249.582 487.293 249.869C487.779 250.143 488.302 250.28 488.863 250.28C489.461 250.28 490.022 250.131 490.546 249.832C491.082 249.532 491.449 249.14 491.649 248.654L493.069 249.046C492.858 249.52 492.54 249.944 492.116 250.318C491.705 250.692 491.212 250.984 490.639 251.196C490.078 251.408 489.468 251.514 488.807 251.514ZM485.517 245.868H492.172C492.122 245.233 491.942 244.672 491.63 244.186C491.318 243.7 490.92 243.32 490.433 243.045C489.947 242.771 489.412 242.634 488.826 242.634C488.252 242.634 487.723 242.771 487.237 243.045C486.751 243.32 486.352 243.7 486.04 244.186C485.741 244.672 485.567 245.233 485.517 245.868ZM499.852 251.514C499.117 251.514 498.444 251.383 497.833 251.122C497.235 250.847 496.712 250.48 496.263 250.019C495.827 249.545 495.484 249.003 495.235 248.392C494.998 247.781 494.879 247.133 494.879 246.448C494.879 245.526 495.091 244.684 495.515 243.924C495.939 243.164 496.525 242.553 497.272 242.092C498.033 241.631 498.899 241.4 499.871 241.4C500.855 241.4 501.709 241.637 502.432 242.111C503.167 242.572 503.734 243.183 504.133 243.943C504.545 244.691 504.75 245.501 504.75 246.373C504.75 246.498 504.744 246.622 504.731 246.747C504.731 246.859 504.725 246.946 504.713 247.009H496.618C496.668 247.644 496.842 248.211 497.141 248.71C497.453 249.196 497.852 249.582 498.338 249.869C498.824 250.143 499.347 250.28 499.908 250.28C500.507 250.28 501.067 250.131 501.591 249.832C502.127 249.532 502.494 249.14 502.694 248.654L504.115 249.046C503.903 249.52 503.585 249.944 503.161 250.318C502.75 250.692 502.258 250.984 501.684 251.196C501.123 251.408 500.513 251.514 499.852 251.514ZM496.562 245.868H503.217C503.167 245.233 502.987 244.672 502.675 244.186C502.364 243.7 501.965 243.32 501.479 243.045C500.993 242.771 500.457 242.634 499.871 242.634C499.298 242.634 498.768 242.771 498.282 243.045C497.796 243.32 497.397 243.7 497.085 244.186C496.786 244.672 496.612 245.233 496.562 245.868Z" fill="#BDBDBD"/>
<path d="M469.262 313.175C468.262 313.175 467.41 312.902 466.706 312.358C466.003 311.809 465.465 311.015 465.093 309.975C464.721 308.93 464.535 307.669 464.535 306.191C464.535 304.721 464.721 303.467 465.093 302.427C465.469 301.382 466.009 300.585 466.713 300.037C467.421 299.483 468.271 299.207 469.262 299.207C470.254 299.207 471.101 299.483 471.805 300.037C472.513 300.585 473.053 301.382 473.425 302.427C473.801 303.467 473.989 304.721 473.989 306.191C473.989 307.669 473.803 308.93 473.431 309.975C473.06 311.015 472.522 311.809 471.818 312.358C471.114 312.902 470.262 313.175 469.262 313.175ZM469.262 311.714C470.254 311.714 471.024 311.236 471.572 310.28C472.121 309.324 472.396 307.961 472.396 306.191C472.396 305.013 472.27 304.011 472.017 303.183C471.769 302.356 471.411 301.725 470.942 301.291C470.477 300.858 469.917 300.641 469.262 300.641C468.28 300.641 467.512 301.125 466.959 302.095C466.405 303.059 466.129 304.425 466.129 306.191C466.129 307.368 466.253 308.368 466.501 309.191C466.748 310.015 467.105 310.641 467.569 311.07C468.038 311.499 468.603 311.714 469.262 311.714ZM477.205 313.095C476.878 313.095 476.597 312.978 476.362 312.743C476.128 312.509 476.01 312.228 476.01 311.9C476.01 311.573 476.128 311.291 476.362 311.057C476.597 310.822 476.878 310.705 477.205 310.705C477.533 310.705 477.814 310.822 478.049 311.057C478.283 311.291 478.4 311.573 478.4 311.9C478.4 312.117 478.345 312.316 478.234 312.498C478.128 312.679 477.984 312.825 477.803 312.936C477.626 313.042 477.427 313.095 477.205 313.095ZM485.16 313.175C484.381 313.175 483.68 313.02 483.056 312.71C482.432 312.4 481.932 311.975 481.555 311.435C481.179 310.895 480.973 310.28 480.938 309.59H482.531C482.593 310.205 482.872 310.714 483.368 311.117C483.868 311.515 484.465 311.714 485.16 311.714C485.718 311.714 486.214 311.584 486.647 311.322C487.085 311.061 487.428 310.703 487.676 310.247C487.929 309.787 488.055 309.267 488.055 308.687C488.055 308.094 487.924 307.565 487.663 307.1C487.406 306.631 487.052 306.262 486.601 305.992C486.149 305.722 485.634 305.584 485.054 305.58C484.638 305.576 484.211 305.64 483.773 305.773C483.335 305.901 482.974 306.067 482.691 306.27L481.15 306.085L481.974 299.393H489.037V300.853H483.355L482.877 304.863H482.956C483.235 304.642 483.585 304.458 484.005 304.312C484.426 304.166 484.864 304.093 485.32 304.093C486.152 304.093 486.893 304.292 487.544 304.69C488.199 305.084 488.712 305.624 489.084 306.31C489.46 306.996 489.648 307.78 489.648 308.66C489.648 309.528 489.453 310.302 489.064 310.984C488.679 311.661 488.148 312.197 487.471 312.59C486.793 312.98 486.023 313.175 485.16 313.175ZM494.448 304.987C493.925 304.987 493.445 304.869 493.009 304.632C492.573 304.383 492.224 304.053 491.962 303.641C491.7 303.218 491.57 302.757 491.57 302.258C491.57 301.747 491.7 301.286 491.962 300.875C492.224 300.463 492.573 300.139 493.009 299.903C493.445 299.653 493.925 299.529 494.448 299.529C494.984 299.529 495.47 299.653 495.907 299.903C496.343 300.139 496.686 300.463 496.935 300.875C497.197 301.286 497.327 301.741 497.327 302.239C497.327 302.75 497.197 303.218 496.935 303.641C496.686 304.053 496.343 304.383 495.907 304.632C495.47 304.869 494.984 304.987 494.448 304.987ZM494.448 304.09C494.76 304.09 495.04 304.009 495.29 303.847C495.551 303.673 495.757 303.448 495.907 303.174C496.056 302.887 496.131 302.582 496.131 302.258C496.131 301.922 496.05 301.616 495.888 301.342C495.738 301.055 495.533 300.831 495.271 300.669C495.022 300.507 494.748 300.426 494.448 300.426C494.137 300.426 493.85 300.513 493.589 300.688C493.339 300.85 493.14 301.074 492.99 301.361C492.841 301.635 492.766 301.934 492.766 302.258C492.766 302.595 492.841 302.9 492.99 303.174C493.152 303.448 493.358 303.673 493.607 303.847C493.869 304.009 494.149 304.09 494.448 304.09ZM501.01 313.176C500.474 313.176 499.988 313.057 499.552 312.821C499.128 312.571 498.786 312.241 498.524 311.83C498.262 311.406 498.131 310.945 498.131 310.446C498.131 309.935 498.262 309.474 498.524 309.063C498.786 308.652 499.128 308.328 499.552 308.091C499.988 307.842 500.474 307.717 501.01 307.717C501.546 307.717 502.032 307.842 502.468 308.091C502.905 308.328 503.247 308.652 503.497 309.063C503.758 309.474 503.889 309.929 503.889 310.428C503.889 310.939 503.758 311.406 503.497 311.83C503.247 312.241 502.905 312.571 502.468 312.821C502.032 313.057 501.546 313.176 501.01 313.176ZM501.01 312.278C501.322 312.278 501.602 312.197 501.852 312.035C502.113 311.861 502.319 311.637 502.468 311.362C502.618 311.076 502.693 310.77 502.693 310.446C502.693 310.11 502.612 309.804 502.45 309.53C502.3 309.244 502.095 309.019 501.833 308.857C501.584 308.695 501.309 308.614 501.01 308.614C500.699 308.614 500.412 308.701 500.15 308.876C499.901 309.038 499.702 309.262 499.552 309.549C499.403 309.823 499.328 310.122 499.328 310.446C499.328 310.783 499.403 311.088 499.552 311.362C499.714 311.637 499.92 311.861 500.169 312.035C500.431 312.197 500.711 312.278 501.01 312.278ZM492.205 312.372L497.44 306.072L502.45 299.622L503.254 300.314L498.075 306.577L492.99 313.082L492.205 312.372Z" fill="#BDBDBD"/>
<path d="M72.9863 71V54.4086H75.0894V69.1305H84.3433V71H72.9863ZM86.3058 71V58.8018H88.3622V71H86.3058ZM86.3058 56.5117V53.9412H88.3622V56.5117H86.3058ZM96.3651 71.2337C95.555 71.2337 94.815 71.0623 94.1451 70.7196C93.4752 70.3768 92.8988 69.9173 92.4159 69.3409C91.9329 68.7489 91.559 68.0712 91.2942 67.3078C91.0294 66.5445 90.8969 65.7421 90.8969 64.9009C90.8969 64.0441 91.0449 63.234 91.3409 62.4706C91.6369 61.7072 92.042 61.0373 92.5561 60.4609C93.0858 59.8845 93.7011 59.4327 94.4022 59.1056C95.1032 58.7628 95.8588 58.5915 96.6689 58.5915C97.6192 58.5915 98.4838 58.8329 99.2628 59.3159C100.042 59.7833 100.657 60.383 101.109 61.1152V58.8018H102.932V75.9774H100.875V68.5931C99.7535 70.3535 98.2501 71.2337 96.3651 71.2337ZM97.0662 69.4577C97.6426 69.4577 98.1645 69.3409 98.6318 69.1072C99.1148 68.8735 99.5432 68.5619 99.9171 68.1724C100.291 67.7674 100.61 67.3234 100.875 66.8405V63.3352C100.813 62.9302 100.657 62.5563 100.408 62.2135C100.159 61.8552 99.8548 61.5359 99.4965 61.2555C99.1381 60.975 98.7487 60.7569 98.328 60.6011C97.923 60.4454 97.5179 60.3675 97.1129 60.3675C96.5053 60.3675 95.9523 60.4999 95.4537 60.7647C94.9552 61.014 94.519 61.3567 94.1451 61.7929C93.7868 62.2291 93.5064 62.7199 93.3039 63.2651C93.1013 63.8104 93.0001 64.3712 93.0001 64.9476C93.0001 65.7577 93.1715 66.5055 93.5142 67.191C93.8725 67.8764 94.3554 68.4295 94.963 68.8501C95.5706 69.2552 96.2716 69.4577 97.0662 69.4577ZM106.134 66.116V58.8018H108.191V65.7188C108.191 66.9651 108.409 67.8998 108.845 68.523C109.281 69.1461 109.928 69.4577 110.784 69.4577C111.345 69.4577 111.883 69.3409 112.397 69.1072C112.926 68.8579 113.402 68.5074 113.822 68.0556C114.243 67.6038 114.57 67.0663 114.804 66.4432V58.8018H116.86V68.6632C116.86 68.9124 116.907 69.0994 117 69.224C117.109 69.3331 117.281 69.3954 117.514 69.411V71C117.281 71.0312 117.094 71.0467 116.954 71.0467C116.829 71.0623 116.704 71.0701 116.58 71.0701C116.19 71.0701 115.855 70.9533 115.575 70.7196C115.294 70.4703 115.146 70.1665 115.131 69.8082L115.084 68.3828C114.554 69.2863 113.838 69.9874 112.934 70.4859C112.046 70.9844 111.073 71.2337 110.013 71.2337C108.736 71.2337 107.77 70.8053 107.116 69.9484C106.461 69.076 106.134 67.7986 106.134 66.116ZM120.286 71V58.8018H122.342V71H120.286ZM120.286 56.5117V53.9412H122.342V56.5117H120.286ZM124.877 64.9243C124.877 63.7714 125.11 62.7199 125.578 61.7696C126.061 60.8037 126.715 60.0325 127.541 59.4561C128.382 58.8797 129.34 58.5915 130.415 58.5915C131.396 58.5915 132.277 58.8485 133.056 59.3626C133.835 59.8767 134.442 60.4999 134.878 61.2321V53.9412H136.935V68.6632C136.935 68.9124 136.981 69.0994 137.075 69.224C137.184 69.3331 137.355 69.3954 137.589 69.411V71C137.2 71.0623 136.896 71.0935 136.678 71.0935C136.273 71.0935 135.914 70.9533 135.603 70.6728C135.307 70.3924 135.159 70.0808 135.159 69.7381V68.7099C134.676 69.4889 134.029 70.1042 133.219 70.556C132.409 71.0078 131.568 71.2337 130.695 71.2337C129.854 71.2337 129.075 71.0701 128.359 70.7429C127.658 70.4002 127.042 69.9329 126.512 69.3409C125.998 68.7489 125.593 68.079 125.297 67.3312C125.017 66.5678 124.877 65.7655 124.877 64.9243ZM134.878 66.7236V63.2184C134.691 62.6887 134.388 62.2135 133.967 61.7929C133.546 61.3567 133.071 61.014 132.541 60.7647C132.027 60.4999 131.513 60.3675 130.999 60.3675C130.392 60.3675 129.839 60.4999 129.34 60.7647C128.857 61.014 128.436 61.3567 128.078 61.7929C127.735 62.2135 127.471 62.6965 127.284 63.2417C127.097 63.787 127.003 64.3556 127.003 64.9476C127.003 65.5552 127.104 66.1316 127.307 66.6769C127.525 67.2221 127.821 67.7051 128.195 68.1257C128.584 68.5463 129.028 68.8735 129.527 69.1072C130.041 69.3409 130.594 69.4577 131.186 69.4577C131.56 69.4577 131.942 69.3876 132.331 69.2474C132.736 69.1072 133.118 68.9124 133.476 68.6632C133.835 68.4139 134.138 68.1257 134.388 67.7986C134.637 67.4558 134.8 67.0975 134.878 66.7236ZM140.368 71V58.8018H142.424V71H140.368ZM140.368 56.5117V53.9412H142.424V56.5117H140.368ZM152.063 70.3924C151.891 70.4703 151.658 70.5716 151.362 70.6962C151.066 70.8208 150.723 70.9299 150.333 71.0234C149.944 71.1168 149.531 71.1636 149.095 71.1636C148.596 71.1636 148.137 71.0779 147.716 70.9065C147.296 70.7196 146.961 70.4392 146.711 70.0653C146.462 69.6758 146.338 69.1929 146.338 68.6164V60.4142H144.678V58.8018H146.338V54.7357H148.394V58.8018H151.128V60.4142H148.394V67.9855C148.425 68.4217 148.573 68.7489 148.838 68.967C149.103 69.1695 149.414 69.2708 149.773 69.2708C150.178 69.2708 150.552 69.2006 150.894 69.0604C151.237 68.9202 151.463 68.819 151.572 68.7567L152.063 70.3924ZM154.53 74.3183C154.732 74.3339 154.935 74.3494 155.137 74.365C155.34 74.3962 155.495 74.4118 155.604 74.4118C155.854 74.4118 156.072 74.3261 156.259 74.1547C156.446 73.9833 156.648 73.6484 156.866 73.1499C157.1 72.6669 157.396 71.9503 157.754 71L152.59 58.8018H154.763L158.876 68.9202L162.592 58.8018H164.625L158.689 74.2014C158.549 74.5598 158.339 74.8947 158.058 75.2063C157.793 75.5334 157.451 75.7905 157.03 75.9774C156.609 76.1644 156.103 76.2579 155.511 76.2579C155.371 76.2579 155.223 76.2501 155.067 76.2345C154.927 76.2189 154.748 76.1877 154.53 76.141V74.3183ZM176.157 71.2337C175.144 71.2337 174.194 71.0701 173.306 70.7429C172.418 70.4002 171.655 69.8939 171.016 69.224L171.811 67.7752C172.512 68.4295 173.213 68.8969 173.914 69.1773C174.615 69.4577 175.331 69.5979 176.064 69.5979C176.905 69.5979 177.59 69.4421 178.12 69.1305C178.65 68.8034 178.914 68.3282 178.914 67.7051C178.914 67.2533 178.774 66.9184 178.494 66.7002C178.229 66.4821 177.847 66.303 177.349 66.1628C176.85 66.007 176.258 65.8356 175.573 65.6487C174.732 65.3994 174.023 65.1346 173.446 64.8542C172.87 64.5737 172.434 64.2232 172.138 63.8026C171.842 63.382 171.694 62.8523 171.694 62.2135C171.694 61.4346 171.896 60.7803 172.301 60.2506C172.706 59.7054 173.259 59.2925 173.96 59.0121C174.677 58.7317 175.487 58.5915 176.391 58.5915C177.294 58.5915 178.112 58.7317 178.844 59.0121C179.577 59.2925 180.207 59.7054 180.737 60.2506L179.802 61.6761C179.32 61.1776 178.79 60.8115 178.213 60.5778C177.637 60.3285 176.99 60.2039 176.274 60.2039C175.853 60.2039 175.44 60.2584 175.035 60.3675C174.63 60.4609 174.295 60.6401 174.03 60.9049C173.766 61.1542 173.633 61.5125 173.633 61.9799C173.633 62.3693 173.734 62.6809 173.937 62.9146C174.155 63.1327 174.467 63.3196 174.872 63.4754C175.292 63.6312 175.799 63.8026 176.391 63.9895C177.31 64.2544 178.104 64.5192 178.774 64.7841C179.46 65.0489 179.989 65.3916 180.363 65.8123C180.737 66.2329 180.924 66.8171 180.924 67.5649C180.924 68.7177 180.488 69.6213 179.616 70.2756C178.743 70.9143 177.59 71.2337 176.157 71.2337ZM188.712 71.2337C187.793 71.2337 186.96 71.0701 186.212 70.7429C185.464 70.4002 184.818 69.9406 184.272 69.3642C183.727 68.7722 183.306 68.0946 183.01 67.3312C182.714 66.5678 182.566 65.7655 182.566 64.9243C182.566 64.0674 182.714 63.2573 183.01 62.494C183.306 61.7306 183.727 61.0607 184.272 60.4843C184.818 59.8923 185.464 59.4327 186.212 59.1056C186.975 58.7628 187.809 58.5915 188.712 58.5915C189.631 58.5915 190.465 58.7628 191.213 59.1056C191.96 59.4327 192.607 59.8923 193.152 60.4843C193.713 61.0607 194.142 61.7306 194.438 62.494C194.734 63.2573 194.882 64.0674 194.882 64.9243C194.882 65.7655 194.734 66.5678 194.438 67.3312C194.142 68.0946 193.721 68.7722 193.176 69.3642C192.63 69.9406 191.976 70.4002 191.213 70.7429C190.465 71.0701 189.631 71.2337 188.712 71.2337ZM184.67 64.9476C184.67 65.7889 184.849 66.5522 185.207 67.2377C185.581 67.9232 186.072 68.4684 186.679 68.8735C187.287 69.263 187.965 69.4577 188.712 69.4577C189.46 69.4577 190.138 69.2552 190.745 68.8501C191.368 68.4451 191.859 67.8998 192.218 67.2143C192.591 66.5133 192.778 65.7421 192.778 64.9009C192.778 64.0596 192.591 63.2963 192.218 62.6108C191.859 61.9253 191.368 61.3801 190.745 60.975C190.138 60.57 189.46 60.3675 188.712 60.3675C187.965 60.3675 187.287 60.5778 186.679 60.9984C186.072 61.4034 185.581 61.9487 185.207 62.6342C184.849 63.3196 184.67 64.0908 184.67 64.9476ZM197.257 66.116V58.8018H199.313V65.7188C199.313 66.9651 199.531 67.8998 199.967 68.523C200.403 69.1461 201.05 69.4577 201.907 69.4577C202.468 69.4577 203.005 69.3409 203.519 69.1072C204.049 68.8579 204.524 68.5074 204.945 68.0556C205.365 67.6038 205.692 67.0663 205.926 66.4432V58.8018H207.983V68.6632C207.983 68.9124 208.029 69.0994 208.123 69.224C208.232 69.3331 208.403 69.3954 208.637 69.411V71C208.403 71.0312 208.216 71.0467 208.076 71.0467C207.951 71.0623 207.827 71.0701 207.702 71.0701C207.313 71.0701 206.978 70.9533 206.697 70.7196C206.417 70.4703 206.269 70.1665 206.253 69.8082L206.207 68.3828C205.677 69.2863 204.96 69.9874 204.057 70.4859C203.169 70.9844 202.195 71.2337 201.136 71.2337C199.858 71.2337 198.892 70.8053 198.238 69.9484C197.584 69.076 197.257 67.7986 197.257 66.116ZM217.858 60.6011C216.829 60.6167 215.918 60.8816 215.124 61.3957C214.345 61.8942 213.792 62.5874 213.464 63.4754V71H211.408V58.8018H213.324V61.6293C213.745 60.7881 214.298 60.1104 214.983 59.5963C215.684 59.0666 216.417 58.7706 217.18 58.7083C217.336 58.7083 217.468 58.7083 217.577 58.7083C217.686 58.7083 217.78 58.7161 217.858 58.7317V60.6011ZM224.999 71.2337C224.079 71.2337 223.238 71.0701 222.475 70.7429C221.727 70.4002 221.073 69.9329 220.512 69.3409C219.967 68.7489 219.538 68.0712 219.227 67.3078C218.931 66.5445 218.783 65.7344 218.783 64.8775C218.783 63.7247 219.04 62.6731 219.554 61.7228C220.068 60.7725 220.792 60.0169 221.727 59.4561C222.662 58.8797 223.745 58.5915 224.975 58.5915C226.175 58.5915 227.219 58.8641 228.107 59.4094C229.01 59.939 229.68 60.6557 230.116 61.5592L228.107 62.1902C227.795 61.6138 227.359 61.1698 226.798 60.8582C226.237 60.531 225.614 60.3675 224.928 60.3675C224.181 60.3675 223.495 60.5622 222.872 60.9517C222.265 61.3411 221.782 61.8786 221.423 62.5641C221.065 63.234 220.886 64.0051 220.886 64.8775C220.886 65.7344 221.065 66.5133 221.423 67.2143C221.797 67.8998 222.288 68.4451 222.895 68.8501C223.519 69.2552 224.204 69.4577 224.952 69.4577C225.435 69.4577 225.894 69.372 226.331 69.2006C226.782 69.0293 227.172 68.8034 227.499 68.523C227.842 68.227 228.075 67.9076 228.2 67.5649L230.21 68.1724C229.96 68.7644 229.579 69.2941 229.065 69.7615C228.566 70.2133 227.966 70.5716 227.265 70.8364C226.58 71.1013 225.824 71.2337 224.999 71.2337ZM237.824 71.2337C236.905 71.2337 236.063 71.0701 235.3 70.7429C234.552 70.4002 233.898 69.9406 233.337 69.3642C232.792 68.7722 232.363 68.0946 232.052 67.3312C231.756 66.5678 231.608 65.7577 231.608 64.9009C231.608 63.7481 231.873 62.6965 232.402 61.7462C232.932 60.7959 233.664 60.0325 234.599 59.4561C235.549 58.8797 236.632 58.5915 237.847 58.5915C239.078 58.5915 240.145 58.8875 241.049 59.4795C241.968 60.0559 242.677 60.8192 243.175 61.7696C243.689 62.7043 243.946 63.7169 243.946 64.8074C243.946 64.9632 243.938 65.119 243.923 65.2748C243.923 65.415 243.915 65.524 243.899 65.6019H233.781C233.843 66.3965 234.061 67.1053 234.435 67.7284C234.825 68.336 235.323 68.819 235.931 69.1773C236.538 69.52 237.193 69.6914 237.894 69.6914C238.642 69.6914 239.343 69.5044 239.997 69.1305C240.667 68.7567 241.126 68.2659 241.376 67.6583L243.152 68.1491C242.887 68.7411 242.49 69.2708 241.96 69.7381C241.446 70.2055 240.83 70.5716 240.114 70.8364C239.413 71.1013 238.649 71.2337 237.824 71.2337ZM233.711 64.1765H242.03C241.968 63.382 241.742 62.6809 241.352 62.0733C240.963 61.4658 240.464 60.9906 239.857 60.6479C239.249 60.3051 238.579 60.1338 237.847 60.1338C237.13 60.1338 236.468 60.3051 235.861 60.6479C235.253 60.9906 234.755 61.4658 234.365 62.0733C233.991 62.6809 233.773 63.382 233.711 64.1765ZM250.415 71.2337C249.402 71.2337 248.452 71.0701 247.564 70.7429C246.676 70.4002 245.913 69.8939 245.274 69.224L246.069 67.7752C246.77 68.4295 247.471 68.8969 248.172 69.1773C248.873 69.4577 249.589 69.5979 250.322 69.5979C251.163 69.5979 251.848 69.4421 252.378 69.1305C252.908 68.8034 253.172 68.3282 253.172 67.7051C253.172 67.2533 253.032 66.9184 252.752 66.7002C252.487 66.4821 252.105 66.303 251.607 66.1628C251.108 66.007 250.516 65.8356 249.831 65.6487C248.99 65.3994 248.281 65.1346 247.704 64.8542C247.128 64.5737 246.692 64.2232 246.396 63.8026C246.1 63.382 245.952 62.8523 245.952 62.2135C245.952 61.4346 246.154 60.7803 246.559 60.2506C246.964 59.7054 247.517 59.2925 248.218 59.0121C248.935 58.7317 249.745 58.5915 250.649 58.5915C251.552 58.5915 252.37 58.7317 253.102 59.0121C253.835 59.2925 254.466 59.7054 254.995 60.2506L254.06 61.6761C253.578 61.1776 253.048 60.8115 252.471 60.5778C251.895 60.3285 251.248 60.2039 250.532 60.2039C250.111 60.2039 249.698 60.2584 249.293 60.3675C248.888 60.4609 248.553 60.6401 248.288 60.9049C248.024 61.1542 247.891 61.5125 247.891 61.9799C247.891 62.3693 247.993 62.6809 248.195 62.9146C248.413 63.1327 248.725 63.3196 249.13 63.4754C249.55 63.6312 250.057 63.8026 250.649 63.9895C251.568 64.2544 252.362 64.5192 253.032 64.7841C253.718 65.0489 254.247 65.3916 254.621 65.8123C254.995 66.2329 255.182 66.8171 255.182 67.5649C255.182 68.7177 254.746 69.6213 253.874 70.2756C253.001 70.9143 251.848 71.2337 250.415 71.2337Z" fill="white"/>
<g clip-path="url(#clip0_210_239)">
<path d="M276.564 60.6943C276.287 60.6943 276.016 60.6121 275.785 60.458C275.555 60.304 275.375 60.085 275.269 59.8288C275.163 59.5726 275.135 59.2907 275.189 59.0187C275.243 58.7467 275.377 58.4969 275.573 58.3008C275.769 58.1047 276.019 57.9712 276.291 57.9171C276.563 57.863 276.845 57.8907 277.101 57.9969C277.357 58.103 277.576 58.2827 277.73 58.5133C277.884 58.7438 277.967 59.0149 277.967 59.2922C277.967 59.6641 277.819 60.0207 277.556 60.2837C277.293 60.5466 276.936 60.6943 276.564 60.6943Z" fill="#22E16E"/>
<path d="M276.565 72.6125C274.763 72.6125 273.001 72.078 271.502 71.0766C270.003 70.0751 268.835 68.6518 268.145 66.9865C267.455 65.3212 267.275 63.4888 267.627 61.7209C267.978 59.953 268.846 58.3291 270.121 57.0546C271.395 55.78 273.019 54.912 274.787 54.5604C276.555 54.2087 278.387 54.3892 280.053 55.079C281.718 55.7688 283.141 56.9369 284.143 58.4356C285.144 59.9343 285.679 61.6964 285.679 63.4989C285.679 65.9159 284.718 68.234 283.009 69.9432C281.3 71.6523 278.982 72.6125 276.565 72.6125ZM276.565 55.7874C275.04 55.7874 273.549 56.2396 272.281 57.087C271.013 57.9343 270.024 59.1387 269.441 60.5478C268.857 61.9569 268.704 63.5074 269.002 65.0033C269.299 66.4992 270.034 67.8733 271.112 68.9517C272.191 70.0302 273.565 70.7647 275.061 71.0622C276.556 71.3598 278.107 71.207 279.516 70.6234C280.925 70.0397 282.13 69.0513 282.977 67.7832C283.824 66.515 284.277 65.0241 284.277 63.4989C284.277 61.4536 283.464 59.4922 282.018 58.046C280.572 56.5998 278.61 55.7874 276.565 55.7874Z" fill="#22E16E"/>
<path d="M276.564 69.1071C276.193 69.1071 275.836 68.9594 275.573 68.6965C275.31 68.4335 275.162 68.0769 275.162 67.7051V63.4988C275.162 63.1269 275.31 62.7703 275.573 62.5073C275.836 62.2444 276.193 62.0967 276.564 62.0967C276.936 62.0967 277.293 62.2444 277.556 62.5073C277.819 62.7703 277.967 63.1269 277.967 63.4988V67.7051C277.967 68.0769 277.819 68.4335 277.556 68.6965C277.293 68.9594 276.936 69.1071 276.564 69.1071Z" fill="#22E16E"/>
</g>
<path d="M87.3344 129.56V116.894L81.8662 126.639H80.581L75.0894 116.894V129.56H72.9863V112.968H75.2063L81.2119 123.741L87.2409 112.968H89.4375V129.56H87.3344ZM92.0113 126.031C92.0113 125.252 92.2294 124.582 92.6656 124.021C93.1174 123.445 93.7328 123.001 94.5117 122.689C95.2907 122.378 96.1942 122.222 97.2224 122.222C97.7677 122.222 98.3441 122.269 98.9517 122.362C99.5593 122.44 100.097 122.565 100.564 122.736V121.848C100.564 120.913 100.284 120.181 99.7228 119.651C99.162 119.106 98.3675 118.834 97.3393 118.834C96.6694 118.834 96.0229 118.958 95.3997 119.207C94.7921 119.441 94.1456 119.784 93.4601 120.236L92.7124 118.787C93.5069 118.242 94.3014 117.837 95.0959 117.572C95.8904 117.291 96.7161 117.151 97.573 117.151C99.1308 117.151 100.362 117.587 101.265 118.46C102.169 119.316 102.62 120.516 102.62 122.058V127.223C102.62 127.472 102.667 127.659 102.761 127.784C102.87 127.893 103.041 127.955 103.275 127.971V129.56C103.072 129.591 102.893 129.614 102.737 129.63C102.597 129.645 102.48 129.653 102.387 129.653C101.904 129.653 101.538 129.521 101.289 129.256C101.055 128.991 100.922 128.711 100.891 128.415L100.845 127.643C100.315 128.329 99.6216 128.859 98.7647 129.232C97.9079 129.606 97.0589 129.793 96.2176 129.793C95.4075 129.793 94.6831 129.63 94.0444 129.303C93.4056 128.96 92.9071 128.508 92.5488 127.947C92.1905 127.371 92.0113 126.732 92.0113 126.031ZM99.9565 126.896C100.143 126.677 100.291 126.459 100.401 126.241C100.51 126.008 100.564 125.813 100.564 125.657V124.138C100.081 123.951 99.5748 123.811 99.0452 123.718C98.5155 123.608 97.9936 123.554 97.4795 123.554C96.4357 123.554 95.5867 123.764 94.9323 124.185C94.2936 124.59 93.9742 125.151 93.9742 125.867C93.9742 126.257 94.0755 126.639 94.278 127.012C94.4961 127.371 94.8077 127.667 95.2128 127.9C95.6334 128.134 96.1475 128.251 96.7551 128.251C97.3938 128.251 98.0014 128.126 98.5778 127.877C99.1542 127.612 99.6138 127.285 99.9565 126.896ZM106.82 117.361L110.045 121.848L110.232 122.222L110.442 121.848L113.644 117.361H115.934L111.424 123.484L115.957 129.56H113.667L110.442 125.096L110.232 124.746L110.045 125.096L106.82 129.56H104.53L109.063 123.484L104.553 117.361H106.82ZM117.726 129.56V126.942H119.455V129.56H117.726ZM132.707 129.793C131.694 129.793 130.744 129.63 129.856 129.303C128.968 128.96 128.204 128.453 127.566 127.784L128.36 126.335C129.061 126.989 129.762 127.456 130.463 127.737C131.164 128.017 131.881 128.157 132.613 128.157C133.454 128.157 134.14 128.002 134.67 127.69C135.199 127.363 135.464 126.888 135.464 126.265C135.464 125.813 135.324 125.478 135.044 125.26C134.779 125.042 134.397 124.863 133.898 124.722C133.4 124.567 132.808 124.395 132.123 124.208C131.281 123.959 130.572 123.694 129.996 123.414C129.42 123.133 128.983 122.783 128.687 122.362C128.391 121.942 128.243 121.412 128.243 120.773C128.243 119.994 128.446 119.34 128.851 118.81C129.256 118.265 129.809 117.852 130.51 117.572C131.227 117.291 132.037 117.151 132.94 117.151C133.844 117.151 134.662 117.291 135.394 117.572C136.126 117.852 136.757 118.265 137.287 118.81L136.352 120.236C135.869 119.737 135.34 119.371 134.763 119.137C134.187 118.888 133.54 118.763 132.824 118.763C132.403 118.763 131.99 118.818 131.585 118.927C131.18 119.021 130.845 119.2 130.58 119.464C130.315 119.714 130.183 120.072 130.183 120.539C130.183 120.929 130.284 121.24 130.487 121.474C130.705 121.692 131.016 121.879 131.421 122.035C131.842 122.191 132.348 122.362 132.94 122.549C133.86 122.814 134.654 123.079 135.324 123.344C136.009 123.608 136.539 123.951 136.913 124.372C137.287 124.792 137.474 125.377 137.474 126.124C137.474 127.277 137.038 128.181 136.165 128.835C135.293 129.474 134.14 129.793 132.707 129.793ZM139.981 112.501H142.037V126.405C142.037 127.075 142.131 127.488 142.318 127.643C142.505 127.799 142.73 127.877 142.995 127.877C143.322 127.877 143.634 127.846 143.93 127.784C144.226 127.706 144.475 127.628 144.678 127.55L145.005 129.232C144.662 129.373 144.257 129.489 143.79 129.583C143.322 129.676 142.91 129.723 142.551 129.723C141.757 129.723 141.126 129.497 140.658 129.045C140.207 128.594 139.981 127.963 139.981 127.153V112.501ZM146.62 129.56V117.361H148.677V129.56H146.62ZM146.62 115.071V112.501H148.677V115.071H146.62ZM158.573 129.793C157.576 129.793 156.688 129.544 155.909 129.045C155.13 128.547 154.514 127.916 154.063 127.153V134.537H152.006V117.361H153.829V119.651C154.312 118.904 154.943 118.304 155.722 117.852C156.501 117.385 157.35 117.151 158.269 117.151C159.11 117.151 159.881 117.322 160.582 117.665C161.283 118.008 161.891 118.475 162.405 119.067C162.919 119.659 163.316 120.337 163.597 121.1C163.893 121.848 164.041 122.635 164.041 123.46C164.041 124.613 163.807 125.673 163.34 126.639C162.888 127.604 162.249 128.376 161.424 128.952C160.598 129.513 159.648 129.793 158.573 129.793ZM157.942 128.017C158.549 128.017 159.094 127.893 159.577 127.643C160.076 127.379 160.497 127.036 160.839 126.615C161.198 126.179 161.47 125.688 161.657 125.143C161.844 124.598 161.938 124.037 161.938 123.46C161.938 122.853 161.829 122.276 161.61 121.731C161.408 121.186 161.112 120.703 160.722 120.282C160.349 119.862 159.905 119.535 159.39 119.301C158.892 119.052 158.347 118.927 157.755 118.927C157.381 118.927 156.991 118.997 156.586 119.137C156.197 119.278 155.823 119.48 155.465 119.745C155.106 119.994 154.803 120.282 154.553 120.61C154.304 120.937 154.14 121.287 154.063 121.661V125.143C154.296 125.673 154.608 126.156 154.997 126.592C155.387 127.028 155.839 127.379 156.353 127.643C156.867 127.893 157.396 128.017 157.942 128.017ZM173.132 129.793C172.135 129.793 171.247 129.544 170.468 129.045C169.689 128.547 169.074 127.916 168.622 127.153V134.537H166.566V117.361H168.388V119.651C168.871 118.904 169.502 118.304 170.281 117.852C171.06 117.385 171.909 117.151 172.828 117.151C173.67 117.151 174.441 117.322 175.142 117.665C175.843 118.008 176.45 118.475 176.964 119.067C177.479 119.659 177.876 120.337 178.156 121.1C178.452 121.848 178.6 122.635 178.6 123.46C178.6 124.613 178.367 125.673 177.899 126.639C177.447 127.604 176.809 128.376 175.983 128.952C175.157 129.513 174.207 129.793 173.132 129.793ZM172.501 128.017C173.109 128.017 173.654 127.893 174.137 127.643C174.635 127.379 175.056 127.036 175.399 126.615C175.757 126.179 176.03 125.688 176.217 125.143C176.404 124.598 176.497 124.037 176.497 123.46C176.497 122.853 176.388 122.276 176.17 121.731C175.967 121.186 175.671 120.703 175.282 120.282C174.908 119.862 174.464 119.535 173.95 119.301C173.451 119.052 172.906 118.927 172.314 118.927C171.94 118.927 171.551 118.997 171.146 119.137C170.756 119.278 170.382 119.48 170.024 119.745C169.666 119.994 169.362 120.282 169.113 120.61C168.863 120.937 168.7 121.287 168.622 121.661V125.143C168.856 125.673 169.167 126.156 169.557 126.592C169.946 127.028 170.398 127.379 170.912 127.643C171.426 127.893 171.956 128.017 172.501 128.017ZM180.167 126.031C180.167 125.252 180.385 124.582 180.821 124.021C181.273 123.445 181.888 123.001 182.667 122.689C183.446 122.378 184.35 122.222 185.378 122.222C185.923 122.222 186.5 122.269 187.107 122.362C187.715 122.44 188.252 122.565 188.72 122.736V121.848C188.72 120.913 188.439 120.181 187.879 119.651C187.318 119.106 186.523 118.834 185.495 118.834C184.825 118.834 184.179 118.958 183.555 119.207C182.948 119.441 182.301 119.784 181.616 120.236L180.868 118.787C181.663 118.242 182.457 117.837 183.252 117.572C184.046 117.291 184.872 117.151 185.729 117.151C187.287 117.151 188.517 117.587 189.421 118.46C190.324 119.316 190.776 120.516 190.776 122.058V127.223C190.776 127.472 190.823 127.659 190.916 127.784C191.025 127.893 191.197 127.955 191.431 127.971V129.56C191.228 129.591 191.049 129.614 190.893 129.63C190.753 129.645 190.636 129.653 190.543 129.653C190.06 129.653 189.693 129.521 189.444 129.256C189.211 128.991 189.078 128.711 189.047 128.415L189 127.643C188.471 128.329 187.777 128.859 186.92 129.232C186.064 129.606 185.215 129.793 184.373 129.793C183.563 129.793 182.839 129.63 182.2 129.303C181.561 128.96 181.063 128.508 180.704 127.947C180.346 127.371 180.167 126.732 180.167 126.031ZM188.112 126.896C188.299 126.677 188.447 126.459 188.556 126.241C188.665 126.008 188.72 125.813 188.72 125.657V124.138C188.237 123.951 187.731 123.811 187.201 123.718C186.671 123.608 186.149 123.554 185.635 123.554C184.591 123.554 183.742 123.764 183.088 124.185C182.449 124.59 182.13 125.151 182.13 125.867C182.13 126.257 182.231 126.639 182.434 127.012C182.652 127.371 182.963 127.667 183.368 127.9C183.789 128.134 184.303 128.251 184.911 128.251C185.55 128.251 186.157 128.126 186.733 127.877C187.31 127.612 187.769 127.285 188.112 126.896ZM198.925 129.7C198.099 129.7 197.336 129.536 196.635 129.209C195.949 128.866 195.357 128.407 194.859 127.83C194.36 127.238 193.971 126.568 193.69 125.821C193.426 125.073 193.293 124.294 193.293 123.484C193.293 122.627 193.426 121.817 193.69 121.054C193.971 120.29 194.36 119.62 194.859 119.044C195.373 118.452 195.973 117.992 196.658 117.665C197.344 117.322 198.107 117.151 198.948 117.151C199.961 117.151 200.841 117.4 201.589 117.899C202.352 118.397 202.991 119.028 203.505 119.792V117.361H205.328V129.419C205.328 130.572 205.047 131.546 204.487 132.34C203.941 133.135 203.194 133.735 202.243 134.14C201.309 134.56 200.265 134.771 199.112 134.771C197.741 134.771 196.619 134.529 195.747 134.046C194.874 133.563 194.15 132.909 193.574 132.083L194.765 131.032C195.248 131.748 195.872 132.286 196.635 132.644C197.414 133.002 198.239 133.182 199.112 133.182C199.86 133.182 200.545 133.041 201.168 132.761C201.807 132.496 202.313 132.083 202.687 131.523C203.077 130.962 203.271 130.261 203.271 129.419V127.269C202.82 128.017 202.197 128.609 201.402 129.045C200.623 129.482 199.797 129.7 198.925 129.7ZM199.556 128.017C199.992 128.017 200.413 127.939 200.818 127.784C201.223 127.628 201.597 127.425 201.939 127.176C202.282 126.911 202.57 126.615 202.804 126.288C203.038 125.961 203.194 125.626 203.271 125.283V121.778C203.053 121.217 202.742 120.726 202.337 120.306C201.932 119.87 201.472 119.535 200.958 119.301C200.444 119.052 199.914 118.927 199.369 118.927C198.746 118.927 198.185 119.059 197.686 119.324C197.203 119.589 196.791 119.947 196.448 120.399C196.105 120.835 195.84 121.326 195.653 121.871C195.466 122.417 195.373 122.97 195.373 123.531C195.373 124.138 195.482 124.715 195.7 125.26C195.918 125.789 196.214 126.265 196.588 126.685C196.962 127.106 197.406 127.433 197.92 127.667C198.434 127.9 198.979 128.017 199.556 128.017ZM214.045 129.793C213.126 129.793 212.284 129.63 211.521 129.303C210.773 128.96 210.119 128.5 209.558 127.924C209.013 127.332 208.584 126.654 208.273 125.891C207.977 125.127 207.829 124.317 207.829 123.46C207.829 122.308 208.094 121.256 208.623 120.306C209.153 119.355 209.885 118.592 210.82 118.016C211.77 117.439 212.853 117.151 214.068 117.151C215.299 117.151 216.366 117.447 217.27 118.039C218.189 118.615 218.898 119.379 219.396 120.329C219.91 121.264 220.167 122.276 220.167 123.367C220.167 123.523 220.159 123.679 220.144 123.834C220.144 123.975 220.136 124.084 220.12 124.162H210.002C210.064 124.956 210.282 125.665 210.656 126.288C211.046 126.896 211.544 127.379 212.152 127.737C212.76 128.08 213.414 128.251 214.115 128.251C214.863 128.251 215.564 128.064 216.218 127.69C216.888 127.316 217.347 126.825 217.597 126.218L219.373 126.709C219.108 127.301 218.711 127.83 218.181 128.298C217.667 128.765 217.051 129.131 216.335 129.396C215.634 129.661 214.87 129.793 214.045 129.793ZM209.932 122.736H218.251C218.189 121.942 217.963 121.24 217.573 120.633C217.184 120.025 216.685 119.55 216.078 119.207C215.47 118.865 214.8 118.693 214.068 118.693C213.351 118.693 212.689 118.865 212.082 119.207C211.474 119.55 210.976 120.025 210.586 120.633C210.212 121.24 209.994 121.942 209.932 122.736Z" fill="white"/>
<g clip-path="url(#clip1_210_239)">
<path d="M241.565 119.255C241.287 119.255 241.016 119.173 240.786 119.019C240.555 118.865 240.375 118.646 240.269 118.39C240.163 118.134 240.135 117.852 240.19 117.58C240.244 117.308 240.377 117.058 240.573 116.862C240.769 116.666 241.019 116.532 241.291 116.478C241.563 116.424 241.845 116.452 242.101 116.558C242.357 116.664 242.576 116.844 242.73 117.074C242.885 117.305 242.967 117.576 242.967 117.853C242.967 118.225 242.819 118.582 242.556 118.845C242.293 119.108 241.937 119.255 241.565 119.255Z" fill="#22E16E"/>
<path d="M241.564 131.174C239.762 131.174 238 130.639 236.501 129.638C235.002 128.636 233.834 127.213 233.144 125.548C232.454 123.882 232.274 122.05 232.626 120.282C232.977 118.514 233.845 116.89 235.12 115.616C236.394 114.341 238.018 113.473 239.786 113.121C241.554 112.77 243.386 112.95 245.052 113.64C246.717 114.33 248.14 115.498 249.142 116.997C250.143 118.495 250.678 120.257 250.678 122.06C250.678 124.477 249.717 126.795 248.008 128.504C246.299 130.213 243.981 131.174 241.564 131.174ZM241.564 114.348C240.039 114.348 238.548 114.801 237.28 115.648C236.012 116.495 235.023 117.7 234.44 119.109C233.856 120.518 233.703 122.068 234.001 123.564C234.298 125.06 235.033 126.434 236.111 127.513C237.19 128.591 238.564 129.326 240.06 129.623C241.555 129.921 243.106 129.768 244.515 129.184C245.924 128.601 247.129 127.612 247.976 126.344C248.823 125.076 249.276 123.585 249.276 122.06C249.276 120.015 248.463 118.053 247.017 116.607C245.571 115.161 243.609 114.348 241.564 114.348Z" fill="#22E16E"/>
<path d="M241.565 127.67C241.193 127.67 240.836 127.522 240.573 127.259C240.31 126.996 240.163 126.639 240.163 126.268V122.061C240.163 121.689 240.31 121.333 240.573 121.07C240.836 120.807 241.193 120.659 241.565 120.659C241.937 120.659 242.293 120.807 242.556 121.07C242.819 121.333 242.967 121.689 242.967 122.061V126.268C242.967 126.639 242.819 126.996 242.556 127.259C242.293 127.522 241.937 127.67 241.565 127.67Z" fill="#22E16E"/>
</g>
<path d="M82.7308 175.009C82.5439 174.791 82.2946 174.581 81.9831 174.378C81.6715 174.176 81.321 173.996 80.9315 173.841C80.542 173.669 80.1136 173.537 79.6462 173.443C79.1945 173.334 78.7193 173.28 78.2208 173.28C76.9433 173.28 76.0008 173.521 75.3932 174.004C74.7857 174.487 74.4819 175.149 74.4819 175.991C74.4819 176.583 74.6377 177.05 74.9492 177.393C75.2608 177.735 75.736 178.016 76.3747 178.234C77.029 178.452 77.8547 178.678 78.8517 178.912C80.0046 179.161 81.0016 179.465 81.8429 179.823C82.6841 180.181 83.3306 180.664 83.7824 181.272C84.2342 181.864 84.4601 182.658 84.4601 183.655C84.4601 184.45 84.3043 185.143 83.9927 185.735C83.6967 186.312 83.2761 186.794 82.7308 187.184C82.1856 187.558 81.5469 187.838 80.8147 188.025C80.0824 188.197 79.2879 188.282 78.4311 188.282C77.5898 188.282 76.7642 188.197 75.9541 188.025C75.1595 187.838 74.404 187.573 73.6873 187.231C72.9707 186.888 72.3008 186.46 71.6777 185.945L72.6825 184.169C72.9318 184.434 73.2511 184.699 73.6406 184.964C74.0457 185.213 74.4974 185.447 74.996 185.665C75.5101 185.883 76.0631 186.062 76.6551 186.202C77.2471 186.327 77.8547 186.389 78.4778 186.389C79.6618 186.389 80.581 186.179 81.2353 185.758C81.8896 185.322 82.2167 184.691 82.2167 183.866C82.2167 183.242 82.0298 182.744 81.6559 182.37C81.2976 181.996 80.7601 181.685 80.0435 181.435C79.3269 181.186 78.4545 180.937 77.4263 180.688C76.3046 180.407 75.3621 180.103 74.5987 179.776C73.8353 179.433 73.2589 178.989 72.8695 178.444C72.4956 177.899 72.3086 177.19 72.3086 176.318C72.3086 175.258 72.5657 174.363 73.0798 173.63C73.5939 172.898 74.3027 172.345 75.2063 171.971C76.1099 171.597 77.1303 171.41 78.2675 171.41C79.0153 171.41 79.7086 171.488 80.3473 171.644C81.0016 171.8 81.6092 172.018 82.17 172.298C82.7308 172.579 83.2449 172.914 83.7123 173.303L82.7308 175.009ZM105.29 188.119H103.234V181.295C103.234 180.018 103.023 179.075 102.603 178.468C102.198 177.86 101.59 177.556 100.78 177.556C99.9542 177.556 99.2064 177.86 98.5365 178.468C97.8666 179.06 97.3915 179.831 97.1111 180.781V188.119H95.0547V181.295C95.0547 180.002 94.8521 179.06 94.4471 178.468C94.042 177.86 93.4345 177.556 92.6244 177.556C91.8143 177.556 91.0665 177.852 90.381 178.444C89.7111 179.021 89.236 179.792 88.9556 180.758V188.119H86.8992V175.92H88.7686V178.538C89.2671 177.634 89.9137 176.941 90.7082 176.458C91.5027 175.959 92.3985 175.71 93.3955 175.71C94.4081 175.71 95.2182 175.991 95.8258 176.551C96.4334 177.097 96.8073 177.805 96.9475 178.678C97.4928 177.712 98.1548 176.98 98.9338 176.481C99.7127 175.967 100.601 175.71 101.598 175.71C102.299 175.71 102.883 175.843 103.35 176.107C103.833 176.357 104.215 176.715 104.495 177.182C104.776 177.634 104.978 178.172 105.103 178.795C105.228 179.418 105.29 180.096 105.29 180.828V188.119ZM107.529 184.59C107.529 183.811 107.747 183.141 108.184 182.58C108.635 182.004 109.251 181.56 110.03 181.248C110.809 180.937 111.712 180.781 112.74 180.781C113.286 180.781 113.862 180.828 114.47 180.921C115.077 180.999 115.615 181.124 116.082 181.295V180.407C116.082 179.472 115.802 178.74 115.241 178.211C114.68 177.665 113.885 177.393 112.857 177.393C112.187 177.393 111.541 177.517 110.918 177.767C110.31 178 109.664 178.343 108.978 178.795L108.23 177.346C109.025 176.801 109.819 176.396 110.614 176.131C111.408 175.85 112.234 175.71 113.091 175.71C114.649 175.71 115.88 176.146 116.783 177.019C117.687 177.876 118.138 179.075 118.138 180.617V185.782C118.138 186.031 118.185 186.218 118.279 186.343C118.388 186.452 118.559 186.514 118.793 186.53V188.119C118.59 188.15 118.411 188.173 118.255 188.189C118.115 188.204 117.998 188.212 117.905 188.212C117.422 188.212 117.056 188.08 116.806 187.815C116.573 187.55 116.44 187.27 116.409 186.974L116.362 186.202C115.833 186.888 115.14 187.418 114.283 187.791C113.426 188.165 112.577 188.352 111.736 188.352C110.925 188.352 110.201 188.189 109.562 187.862C108.924 187.519 108.425 187.067 108.067 186.506C107.708 185.93 107.529 185.291 107.529 184.59ZM115.474 185.455C115.661 185.237 115.809 185.018 115.918 184.8C116.028 184.567 116.082 184.372 116.082 184.216V182.697C115.599 182.51 115.093 182.37 114.563 182.277C114.033 182.168 113.512 182.113 112.997 182.113C111.954 182.113 111.105 182.323 110.45 182.744C109.812 183.149 109.492 183.71 109.492 184.426C109.492 184.816 109.593 185.198 109.796 185.572C110.014 185.93 110.326 186.226 110.731 186.46C111.151 186.693 111.665 186.81 112.273 186.81C112.912 186.81 113.519 186.685 114.096 186.436C114.672 186.171 115.132 185.844 115.474 185.455ZM127.876 177.72C126.848 177.735 125.937 178 125.142 178.514C124.363 179.013 123.81 179.706 123.483 180.594V188.119H121.427V175.92H123.343V178.748C123.763 177.907 124.316 177.229 125.002 176.715C125.703 176.185 126.435 175.889 127.199 175.827C127.354 175.827 127.487 175.827 127.596 175.827C127.705 175.827 127.798 175.835 127.876 175.85V177.72ZM136.225 187.511C136.054 187.589 135.82 187.69 135.524 187.815C135.228 187.939 134.886 188.049 134.496 188.142C134.107 188.235 133.694 188.282 133.258 188.282C132.759 188.282 132.299 188.197 131.879 188.025C131.458 187.838 131.123 187.558 130.874 187.184C130.625 186.794 130.5 186.312 130.5 185.735V177.533H128.841V175.92H130.5V171.854H132.556V175.92H135.291V177.533H132.556V185.104C132.588 185.54 132.736 185.868 133 186.086C133.265 186.288 133.577 186.389 133.935 186.389C134.34 186.389 134.714 186.319 135.057 186.179C135.4 186.039 135.625 185.938 135.735 185.875L136.225 187.511ZM150.491 177.72C149.463 177.735 148.552 178 147.757 178.514C146.978 179.013 146.425 179.706 146.098 180.594V188.119H144.042V175.92H145.958V178.748C146.379 177.907 146.932 177.229 147.617 176.715C148.318 176.185 149.05 175.889 149.814 175.827C149.97 175.827 150.102 175.827 150.211 175.827C150.32 175.827 150.414 175.835 150.491 175.85V177.72ZM157.562 188.352C156.643 188.352 155.81 188.189 155.062 187.862C154.314 187.519 153.668 187.059 153.122 186.483C152.577 185.891 152.156 185.213 151.86 184.45C151.564 183.686 151.416 182.884 151.416 182.043C151.416 181.186 151.564 180.376 151.86 179.613C152.156 178.849 152.577 178.179 153.122 177.603C153.668 177.011 154.314 176.551 155.062 176.224C155.825 175.881 156.659 175.71 157.562 175.71C158.481 175.71 159.315 175.881 160.063 176.224C160.81 176.551 161.457 177.011 162.002 177.603C162.563 178.179 162.992 178.849 163.288 179.613C163.583 180.376 163.731 181.186 163.731 182.043C163.731 182.884 163.583 183.686 163.288 184.45C162.992 185.213 162.571 185.891 162.026 186.483C161.48 187.059 160.826 187.519 160.063 187.862C159.315 188.189 158.481 188.352 157.562 188.352ZM153.52 182.066C153.52 182.908 153.699 183.671 154.057 184.356C154.431 185.042 154.922 185.587 155.529 185.992C156.137 186.382 156.815 186.576 157.562 186.576C158.31 186.576 158.988 186.374 159.595 185.969C160.218 185.564 160.709 185.018 161.068 184.333C161.441 183.632 161.628 182.861 161.628 182.02C161.628 181.178 161.441 180.415 161.068 179.729C160.709 179.044 160.218 178.499 159.595 178.094C158.988 177.689 158.31 177.486 157.562 177.486C156.815 177.486 156.137 177.696 155.529 178.117C154.922 178.522 154.431 179.067 154.057 179.753C153.699 180.438 153.52 181.209 153.52 182.066ZM166.106 183.235V175.92H168.163V182.837C168.163 184.084 168.381 185.018 168.817 185.642C169.253 186.265 169.9 186.576 170.757 186.576C171.318 186.576 171.855 186.46 172.369 186.226C172.899 185.977 173.374 185.626 173.795 185.174C174.215 184.722 174.542 184.185 174.776 183.562V175.92H176.832V185.782C176.832 186.031 176.879 186.218 176.973 186.343C177.082 186.452 177.253 186.514 177.487 186.53V188.119C177.253 188.15 177.066 188.165 176.926 188.165C176.801 188.181 176.677 188.189 176.552 188.189C176.163 188.189 175.828 188.072 175.547 187.838C175.267 187.589 175.119 187.285 175.103 186.927L175.057 185.501C174.527 186.405 173.81 187.106 172.907 187.605C172.019 188.103 171.045 188.352 169.986 188.352C168.708 188.352 167.742 187.924 167.088 187.067C166.434 186.195 166.106 184.917 166.106 183.235ZM186.567 187.511C186.396 187.589 186.162 187.69 185.866 187.815C185.57 187.939 185.228 188.049 184.838 188.142C184.449 188.235 184.036 188.282 183.6 188.282C183.101 188.282 182.642 188.197 182.221 188.025C181.8 187.838 181.465 187.558 181.216 187.184C180.967 186.794 180.842 186.312 180.842 185.735V177.533H179.183V175.92H180.842V171.854H182.899V175.92H185.633V177.533H182.899V185.104C182.93 185.54 183.078 185.868 183.343 186.086C183.607 186.288 183.919 186.389 184.277 186.389C184.682 186.389 185.056 186.319 185.399 186.179C185.742 186.039 185.968 185.938 186.077 185.875L186.567 187.511ZM188.473 188.119V175.92H190.53V188.119H188.473ZM188.473 173.63V171.06H190.53V173.63H188.473ZM204.445 188.119H202.388V181.295C202.388 180.002 202.186 179.06 201.781 178.468C201.391 177.86 200.792 177.556 199.981 177.556C199.421 177.556 198.86 177.696 198.299 177.977C197.754 178.257 197.263 178.639 196.827 179.122C196.406 179.589 196.102 180.135 195.915 180.758V188.119H193.859V175.92H195.728V178.538C196.056 177.961 196.476 177.463 196.99 177.042C197.504 176.621 198.089 176.294 198.743 176.061C199.397 175.827 200.083 175.71 200.799 175.71C201.5 175.71 202.085 175.843 202.552 176.107C203.035 176.357 203.409 176.715 203.674 177.182C203.954 177.634 204.149 178.172 204.258 178.795C204.382 179.418 204.445 180.096 204.445 180.828V188.119ZM212.503 188.259C211.678 188.259 210.914 188.095 210.213 187.768C209.528 187.425 208.936 186.966 208.437 186.389C207.939 185.797 207.549 185.128 207.269 184.38C207.004 183.632 206.871 182.853 206.871 182.043C206.871 181.186 207.004 180.376 207.269 179.613C207.549 178.849 207.939 178.179 208.437 177.603C208.951 177.011 209.551 176.551 210.236 176.224C210.922 175.881 211.685 175.71 212.527 175.71C213.539 175.71 214.419 175.959 215.167 176.458C215.931 176.956 216.569 177.587 217.083 178.351V175.92H218.906V187.978C218.906 189.131 218.626 190.105 218.065 190.899C217.52 191.694 216.772 192.294 215.821 192.699C214.887 193.119 213.843 193.33 212.69 193.33C211.319 193.33 210.198 193.088 209.325 192.605C208.453 192.122 207.728 191.468 207.152 190.642L208.344 189.591C208.827 190.307 209.45 190.845 210.213 191.203C210.992 191.562 211.818 191.741 212.69 191.741C213.438 191.741 214.123 191.601 214.747 191.32C215.385 191.055 215.892 190.642 216.265 190.082C216.655 189.521 216.85 188.82 216.85 187.978V185.829C216.398 186.576 215.775 187.168 214.98 187.605C214.201 188.041 213.376 188.259 212.503 188.259ZM213.134 186.576C213.57 186.576 213.991 186.498 214.396 186.343C214.801 186.187 215.175 185.984 215.518 185.735C215.86 185.47 216.149 185.174 216.382 184.847C216.616 184.52 216.772 184.185 216.85 183.842V180.337C216.632 179.776 216.32 179.285 215.915 178.865C215.51 178.429 215.05 178.094 214.536 177.86C214.022 177.611 213.492 177.486 212.947 177.486C212.324 177.486 211.763 177.619 211.265 177.883C210.782 178.148 210.369 178.507 210.026 178.958C209.683 179.395 209.419 179.885 209.232 180.431C209.045 180.976 208.951 181.529 208.951 182.09C208.951 182.697 209.06 183.274 209.278 183.819C209.496 184.349 209.792 184.824 210.166 185.244C210.54 185.665 210.984 185.992 211.498 186.226C212.012 186.46 212.558 186.576 213.134 186.576Z" fill="white"/>
<g clip-path="url(#clip2_210_239)">
<path d="M241.564 177.814C241.287 177.814 241.016 177.732 240.785 177.578C240.555 177.424 240.375 177.205 240.269 176.949C240.163 176.693 240.135 176.411 240.189 176.139C240.243 175.867 240.377 175.617 240.573 175.421C240.769 175.225 241.019 175.091 241.291 175.037C241.563 174.983 241.845 175.011 242.101 175.117C242.357 175.223 242.576 175.403 242.73 175.633C242.884 175.864 242.966 176.135 242.966 176.412C242.966 176.784 242.819 177.141 242.556 177.404C242.293 177.667 241.936 177.814 241.564 177.814Z" fill="#22E16E"/>
<path d="M241.564 189.733C239.761 189.733 237.999 189.198 236.501 188.197C235.002 187.195 233.834 185.772 233.144 184.107C232.454 182.441 232.274 180.609 232.625 178.841C232.977 177.073 233.845 175.449 235.12 174.175C236.394 172.9 238.018 172.032 239.786 171.68C241.554 171.329 243.386 171.509 245.051 172.199C246.717 172.889 248.14 174.057 249.141 175.556C250.143 177.054 250.677 178.816 250.677 180.619C250.677 183.036 249.717 185.354 248.008 187.063C246.299 188.772 243.981 189.733 241.564 189.733ZM241.564 172.907C240.039 172.907 238.548 173.36 237.28 174.207C236.011 175.054 235.023 176.259 234.439 177.668C233.856 179.077 233.703 180.628 234 182.123C234.298 183.619 235.032 184.993 236.111 186.072C237.189 187.15 238.563 187.885 240.059 188.182C241.555 188.48 243.106 188.327 244.515 187.743C245.924 187.16 247.128 186.171 247.976 184.903C248.823 183.635 249.275 182.144 249.275 180.619C249.275 178.574 248.463 176.612 247.017 175.166C245.57 173.72 243.609 172.907 241.564 172.907Z" fill="#22E16E"/>
<path d="M241.564 186.227C241.192 186.227 240.836 186.079 240.573 185.816C240.31 185.553 240.162 185.197 240.162 184.825V180.618C240.162 180.247 240.31 179.89 240.573 179.627C240.836 179.364 241.192 179.216 241.564 179.216C241.936 179.216 242.293 179.364 242.556 179.627C242.819 179.89 242.966 180.247 242.966 180.618V184.825C242.966 185.197 242.819 185.553 242.556 185.816C242.293 186.079 241.936 186.227 241.564 186.227Z" fill="#22E16E"/>
</g>
<path d="M75.0894 237.966V250.678H72.9863V234.087H74.7623L84.9041 247.056V234.11H87.0072V250.678H85.091L75.0894 237.966ZM95.8344 250.912C94.9152 250.912 94.074 250.748 93.3106 250.421C92.5628 250.078 91.9085 249.619 91.3477 249.042C90.8024 248.45 90.374 247.773 90.0624 247.009C89.7664 246.246 89.6184 245.436 89.6184 244.579C89.6184 243.426 89.8833 242.375 90.413 241.424C90.9426 240.474 91.6749 239.711 92.6096 239.134C93.5599 238.558 94.6426 238.27 95.8578 238.27C97.0885 238.27 98.1556 238.566 99.0592 239.158C99.9784 239.734 100.687 240.497 101.186 241.448C101.7 242.383 101.957 243.395 101.957 244.486C101.957 244.641 101.949 244.797 101.934 244.953C101.934 245.093 101.926 245.202 101.91 245.28H91.7917C91.854 246.075 92.0721 246.784 92.446 247.407C92.8355 248.014 93.334 248.497 93.9416 248.856C94.5491 249.198 95.2035 249.37 95.9045 249.37C96.6523 249.37 97.3533 249.183 98.0076 248.809C98.6775 248.435 99.1371 247.944 99.3864 247.337L101.162 247.827C100.898 248.419 100.5 248.949 99.9706 249.416C99.4565 249.884 98.8411 250.25 98.1245 250.515C97.4234 250.779 96.6601 250.912 95.8344 250.912ZM91.7216 243.855H100.041C99.9784 243.06 99.7525 242.359 99.363 241.752C98.9735 241.144 98.475 240.669 97.8674 240.326C97.2599 239.983 96.59 239.812 95.8578 239.812C95.1411 239.812 94.479 239.983 93.8715 240.326C93.2639 240.669 92.7654 241.144 92.3759 241.752C92.002 242.359 91.7839 243.06 91.7216 243.855ZM110.438 250.071C110.267 250.149 110.033 250.25 109.737 250.374C109.441 250.499 109.098 250.608 108.709 250.702C108.319 250.795 107.907 250.842 107.47 250.842C106.972 250.842 106.512 250.756 106.092 250.585C105.671 250.398 105.336 250.117 105.087 249.743C104.837 249.354 104.713 248.871 104.713 248.295V240.092H103.054V238.48H104.713V234.414H106.769V238.48H109.503V240.092H106.769V247.664C106.8 248.1 106.948 248.427 107.213 248.645C107.478 248.848 107.79 248.949 108.148 248.949C108.553 248.949 108.927 248.879 109.27 248.739C109.612 248.598 109.838 248.497 109.947 248.435L110.438 250.071ZM127.627 238.48H129.613L124.425 250.678H122.626L120.266 244.93L117.929 250.678H116.13L110.942 238.48H112.905L117.111 248.645L119.074 243.644L117.018 238.503H118.817L120.266 242.383L121.715 238.503H123.514L121.481 243.644L123.444 248.645L127.627 238.48ZM136.453 250.912C135.534 250.912 134.701 250.748 133.953 250.421C133.205 250.078 132.559 249.619 132.013 249.042C131.468 248.45 131.047 247.773 130.751 247.009C130.455 246.246 130.307 245.444 130.307 244.602C130.307 243.746 130.455 242.936 130.751 242.172C131.047 241.409 131.468 240.739 132.013 240.163C132.559 239.571 133.205 239.111 133.953 238.784C134.716 238.441 135.55 238.27 136.453 238.27C137.372 238.27 138.206 238.441 138.954 238.784C139.701 239.111 140.348 239.571 140.893 240.163C141.454 240.739 141.883 241.409 142.179 242.172C142.475 242.936 142.623 243.746 142.623 244.602C142.623 245.444 142.475 246.246 142.179 247.009C141.883 247.773 141.462 248.45 140.917 249.042C140.371 249.619 139.717 250.078 138.954 250.421C138.206 250.748 137.372 250.912 136.453 250.912ZM132.411 244.626C132.411 245.467 132.59 246.23 132.948 246.916C133.322 247.601 133.813 248.147 134.42 248.552C135.028 248.941 135.706 249.136 136.453 249.136C137.201 249.136 137.879 248.933 138.486 248.528C139.109 248.123 139.6 247.578 139.959 246.893C140.332 246.192 140.519 245.42 140.519 244.579C140.519 243.738 140.332 242.974 139.959 242.289C139.6 241.604 139.109 241.058 138.486 240.653C137.879 240.248 137.201 240.046 136.453 240.046C135.706 240.046 135.028 240.256 134.42 240.677C133.813 241.082 133.322 241.627 132.948 242.312C132.59 242.998 132.411 243.769 132.411 244.626ZM151.564 240.279C150.536 240.295 149.624 240.56 148.83 241.074C148.051 241.572 147.498 242.266 147.171 243.154V250.678H145.114V238.48H147.031V241.308C147.451 240.466 148.004 239.789 148.69 239.275C149.391 238.745 150.123 238.449 150.886 238.387C151.042 238.387 151.174 238.387 151.284 238.387C151.393 238.387 151.486 238.394 151.564 238.41V240.279ZM162.203 250.678L157.973 244.743L155.66 246.916V250.678H153.604V233.619H155.66V244.766L161.969 238.503H164.189L159.329 243.551L164.423 250.678H162.203ZM177.509 250.912C176.59 250.912 175.749 250.748 174.985 250.421C174.238 250.078 173.583 249.611 173.022 249.019C172.477 248.427 172.049 247.749 171.737 246.986C171.441 246.223 171.293 245.413 171.293 244.556C171.293 243.403 171.55 242.351 172.064 241.401C172.578 240.451 173.303 239.695 174.238 239.134C175.172 238.558 176.255 238.27 177.486 238.27C178.685 238.27 179.729 238.542 180.617 239.088C181.521 239.617 182.191 240.334 182.627 241.237L180.617 241.868C180.305 241.292 179.869 240.848 179.308 240.536C178.748 240.209 178.124 240.046 177.439 240.046C176.691 240.046 176.006 240.24 175.383 240.63C174.775 241.019 174.292 241.557 173.934 242.242C173.575 242.912 173.396 243.683 173.396 244.556C173.396 245.413 173.575 246.192 173.934 246.893C174.308 247.578 174.798 248.123 175.406 248.528C176.029 248.933 176.715 249.136 177.462 249.136C177.945 249.136 178.405 249.05 178.841 248.879C179.293 248.708 179.682 248.482 180.009 248.201C180.352 247.905 180.586 247.586 180.711 247.243L182.72 247.851C182.471 248.443 182.089 248.972 181.575 249.44C181.077 249.891 180.477 250.25 179.776 250.515C179.09 250.779 178.335 250.912 177.509 250.912ZM190.264 250.912C189.345 250.912 188.511 250.748 187.764 250.421C187.016 250.078 186.369 249.619 185.824 249.042C185.279 248.45 184.858 247.773 184.562 247.009C184.266 246.246 184.118 245.444 184.118 244.602C184.118 243.746 184.266 242.936 184.562 242.172C184.858 241.409 185.279 240.739 185.824 240.163C186.369 239.571 187.016 239.111 187.764 238.784C188.527 238.441 189.361 238.27 190.264 238.27C191.183 238.27 192.017 238.441 192.765 238.784C193.512 239.111 194.159 239.571 194.704 240.163C195.265 240.739 195.693 241.409 195.989 242.172C196.285 242.936 196.433 243.746 196.433 244.602C196.433 245.444 196.285 246.246 195.989 247.009C195.693 247.773 195.273 248.45 194.727 249.042C194.182 249.619 193.528 250.078 192.765 250.421C192.017 250.748 191.183 250.912 190.264 250.912ZM186.221 244.626C186.221 245.467 186.401 246.23 186.759 246.916C187.133 247.601 187.623 248.147 188.231 248.552C188.839 248.941 189.516 249.136 190.264 249.136C191.012 249.136 191.69 248.933 192.297 248.528C192.92 248.123 193.411 247.578 193.769 246.893C194.143 246.192 194.33 245.42 194.33 244.579C194.33 243.738 194.143 242.974 193.769 242.289C193.411 241.604 192.92 241.058 192.297 240.653C191.69 240.248 191.012 240.046 190.264 240.046C189.516 240.046 188.839 240.256 188.231 240.677C187.623 241.082 187.133 241.627 186.759 242.312C186.401 242.998 186.221 243.769 186.221 244.626ZM203.108 250.912C202.095 250.912 201.145 250.748 200.257 250.421C199.369 250.078 198.606 249.572 197.967 248.902L198.762 247.453C199.463 248.108 200.164 248.575 200.865 248.856C201.566 249.136 202.282 249.276 203.015 249.276C203.856 249.276 204.541 249.12 205.071 248.809C205.601 248.482 205.865 248.006 205.865 247.383C205.865 246.932 205.725 246.597 205.445 246.378C205.18 246.16 204.798 245.981 204.3 245.841C203.801 245.685 203.209 245.514 202.524 245.327C201.683 245.078 200.974 244.813 200.397 244.532C199.821 244.252 199.385 243.901 199.089 243.481C198.793 243.06 198.645 242.531 198.645 241.892C198.645 241.113 198.847 240.459 199.252 239.929C199.657 239.384 200.21 238.971 200.911 238.69C201.628 238.41 202.438 238.27 203.342 238.27C204.245 238.27 205.063 238.41 205.795 238.69C206.528 238.971 207.159 239.384 207.688 239.929L206.753 241.354C206.271 240.856 205.741 240.49 205.164 240.256C204.588 240.007 203.942 239.882 203.225 239.882C202.804 239.882 202.391 239.937 201.986 240.046C201.581 240.139 201.246 240.318 200.982 240.583C200.717 240.832 200.584 241.191 200.584 241.658C200.584 242.048 200.686 242.359 200.888 242.593C201.106 242.811 201.418 242.998 201.823 243.154C202.243 243.309 202.75 243.481 203.342 243.668C204.261 243.933 205.055 244.197 205.725 244.462C206.411 244.727 206.94 245.07 207.314 245.49C207.688 245.911 207.875 246.495 207.875 247.243C207.875 248.396 207.439 249.299 206.567 249.954C205.694 250.593 204.541 250.912 203.108 250.912ZM216.645 250.071C216.473 250.149 216.24 250.25 215.944 250.374C215.648 250.499 215.305 250.608 214.916 250.702C214.526 250.795 214.113 250.842 213.677 250.842C213.179 250.842 212.719 250.756 212.298 250.585C211.878 250.398 211.543 250.117 211.293 249.743C211.044 249.354 210.92 248.871 210.92 248.295V240.092H209.26V238.48H210.92V234.414H212.976V238.48H215.71V240.092H212.976V247.664C213.007 248.1 213.155 248.427 213.42 248.645C213.685 248.848 213.996 248.949 214.355 248.949C214.76 248.949 215.134 248.879 215.476 248.739C215.819 248.598 216.045 248.497 216.154 248.435L216.645 250.071Z" fill="white"/>
<g clip-path="url(#clip3_210_239)">
<path d="M240.186 239.83C239.908 239.83 239.637 239.748 239.407 239.594C239.176 239.44 238.997 239.221 238.89 238.965C238.784 238.708 238.757 238.426 238.811 238.154C238.865 237.882 238.998 237.633 239.194 237.437C239.39 237.24 239.64 237.107 239.912 237.053C240.184 236.999 240.466 237.026 240.722 237.133C240.979 237.239 241.198 237.418 241.352 237.649C241.506 237.88 241.588 238.151 241.588 238.428C241.588 238.8 241.44 239.156 241.177 239.419C240.914 239.682 240.558 239.83 240.186 239.83Z" fill="#22E16E"/>
<path d="M240.187 251.748C238.384 251.748 236.622 251.213 235.123 250.212C233.625 249.21 232.457 247.787 231.767 246.122C231.077 244.456 230.896 242.624 231.248 240.856C231.6 239.088 232.468 237.464 233.742 236.19C235.017 234.915 236.641 234.047 238.409 233.696C240.176 233.344 242.009 233.524 243.674 234.214C245.34 234.904 246.763 236.072 247.764 237.571C248.766 239.07 249.3 240.832 249.3 242.634C249.3 245.051 248.34 247.369 246.631 249.078C244.922 250.788 242.604 251.748 240.187 251.748ZM240.187 234.923C238.661 234.923 237.17 235.375 235.902 236.222C234.634 237.07 233.646 238.274 233.062 239.683C232.478 241.092 232.326 242.643 232.623 244.139C232.921 245.634 233.655 247.009 234.734 248.087C235.812 249.165 237.186 249.9 238.682 250.197C240.178 250.495 241.729 250.342 243.138 249.759C244.547 249.175 245.751 248.187 246.598 246.918C247.446 245.65 247.898 244.159 247.898 242.634C247.898 240.589 247.086 238.627 245.639 237.181C244.193 235.735 242.232 234.923 240.187 234.923Z" fill="#22E16E"/>
<path d="M240.186 248.242C239.814 248.242 239.458 248.094 239.195 247.831C238.932 247.568 238.784 247.212 238.784 246.84V242.634C238.784 242.262 238.932 241.905 239.195 241.642C239.458 241.379 239.814 241.231 240.186 241.231C240.558 241.231 240.915 241.379 241.177 241.642C241.44 241.905 241.588 242.262 241.588 242.634V246.84C241.588 247.212 241.44 247.568 241.177 247.831C240.915 248.094 240.558 248.242 240.186 248.242Z" fill="#22E16E"/>
</g>
<path d="M72.9863 312.149V295.557H83.946V297.427H75.0894V302.965H82.5439V304.718H75.0894V312.149H72.9863ZM90.928 312.383C90.0088 312.383 89.1676 312.219 88.4042 311.892C87.6564 311.549 87.0021 311.09 86.4413 310.513C85.896 309.921 85.4676 309.243 85.156 308.48C84.86 307.717 84.712 306.907 84.712 306.05C84.712 304.897 84.9769 303.845 85.5066 302.895C86.0362 301.945 86.7684 301.181 87.7032 300.605C88.6535 300.029 89.7362 299.74 90.9514 299.74C92.1821 299.74 93.2492 300.036 94.1528 300.628C95.0719 301.205 95.7808 301.968 96.2793 302.918C96.7934 303.853 97.0505 304.866 97.0505 305.956C97.0505 306.112 97.0427 306.268 97.0271 306.424C97.0271 306.564 97.0193 306.673 97.0037 306.751H86.8853C86.9476 307.545 87.1657 308.254 87.5396 308.877C87.9291 309.485 88.4276 309.968 89.0352 310.326C89.6427 310.669 90.297 310.84 90.9981 310.84C91.7459 310.84 92.4469 310.653 93.1012 310.279C93.7711 309.906 94.2307 309.415 94.48 308.807L96.2559 309.298C95.9911 309.89 95.5938 310.42 95.0642 310.887C94.5501 311.354 93.9347 311.721 93.2181 311.985C92.517 312.25 91.7537 312.383 90.928 312.383ZM86.8152 305.325H95.1343C95.0719 304.531 94.8461 303.83 94.4566 303.222C94.0671 302.615 93.5686 302.14 92.961 301.797C92.3534 301.454 91.6836 301.283 90.9514 301.283C90.2347 301.283 89.5726 301.454 88.9651 301.797C88.3575 302.14 87.859 302.615 87.4695 303.222C87.0956 303.83 86.8775 304.531 86.8152 305.325ZM104.734 312.383C103.815 312.383 102.974 312.219 102.211 311.892C101.463 311.549 100.809 311.09 100.248 310.513C99.7024 309.921 99.274 309.243 98.9625 308.48C98.6665 307.717 98.5185 306.907 98.5185 306.05C98.5185 304.897 98.7833 303.845 99.313 302.895C99.8427 301.945 100.575 301.181 101.51 300.605C102.46 300.029 103.543 299.74 104.758 299.74C105.988 299.74 107.056 300.036 107.959 300.628C108.878 301.205 109.587 301.968 110.086 302.918C110.6 303.853 110.857 304.866 110.857 305.956C110.857 306.112 110.849 306.268 110.834 306.424C110.834 306.564 110.826 306.673 110.81 306.751H100.692C100.754 307.545 100.972 308.254 101.346 308.877C101.735 309.485 102.234 309.968 102.842 310.326C103.449 310.669 104.103 310.84 104.805 310.84C105.552 310.84 106.253 310.653 106.908 310.279C107.578 309.906 108.037 309.415 108.286 308.807L110.062 309.298C109.798 309.89 109.4 310.42 108.871 310.887C108.356 311.354 107.741 311.721 107.024 311.985C106.323 312.25 105.56 312.383 104.734 312.383ZM100.622 305.325H108.941C108.878 304.531 108.652 303.83 108.263 303.222C107.874 302.615 107.375 302.14 106.767 301.797C106.16 301.454 105.49 301.283 104.758 301.283C104.041 301.283 103.379 301.454 102.771 301.797C102.164 302.14 101.665 302.615 101.276 303.222C100.902 303.83 100.684 304.531 100.622 305.325Z" fill="white"/>
<g clip-path="url(#clip4_210_239)">
<path d="M132.565 301.845C132.287 301.845 132.016 301.762 131.786 301.608C131.555 301.454 131.375 301.235 131.269 300.979C131.163 300.723 131.135 300.441 131.19 300.169C131.244 299.897 131.377 299.647 131.573 299.451C131.769 299.255 132.019 299.122 132.291 299.067C132.563 299.013 132.845 299.041 133.101 299.147C133.357 299.253 133.576 299.433 133.73 299.664C133.885 299.894 133.967 300.165 133.967 300.443C133.967 300.814 133.819 301.171 133.556 301.434C133.293 301.697 132.937 301.845 132.565 301.845Z" fill="#22E16E"/>
<path d="M132.565 313.762C130.762 313.762 129 313.227 127.501 312.226C126.003 311.225 124.834 309.801 124.145 308.136C123.455 306.471 123.274 304.638 123.626 302.87C123.978 301.102 124.846 299.479 126.12 298.204C127.395 296.929 129.019 296.061 130.787 295.71C132.554 295.358 134.387 295.539 136.052 296.228C137.717 296.918 139.141 298.086 140.142 299.585C141.144 301.084 141.678 302.846 141.678 304.648C141.678 307.065 140.718 309.383 139.009 311.093C137.3 312.802 134.982 313.762 132.565 313.762ZM132.565 296.937C131.039 296.937 129.548 297.389 128.28 298.236C127.012 299.084 126.024 300.288 125.44 301.697C124.856 303.106 124.704 304.657 125.001 306.153C125.299 307.649 126.033 309.023 127.112 310.101C128.19 311.18 129.564 311.914 131.06 312.212C132.556 312.509 134.107 312.356 135.516 311.773C136.925 311.189 138.129 310.201 138.976 308.933C139.824 307.664 140.276 306.173 140.276 304.648C140.276 302.603 139.464 300.642 138.017 299.195C136.571 297.749 134.61 296.937 132.565 296.937Z" fill="#22E16E"/>
<path d="M132.565 310.258C132.193 310.258 131.836 310.11 131.573 309.847C131.31 309.584 131.163 309.228 131.163 308.856V304.65C131.163 304.278 131.31 303.921 131.573 303.658C131.836 303.395 132.193 303.248 132.565 303.248C132.937 303.248 133.293 303.395 133.556 303.658C133.819 303.921 133.967 304.278 133.967 304.65V308.856C133.967 309.228 133.819 309.584 133.556 309.847C133.293 310.11 132.937 310.258 132.565 310.258Z" fill="#22E16E"/>
</g>
<defs>
<clipPath id="clip0_210_239">
<rect width="22.4335" height="22.4335" fill="white" transform="translate(265.347 52.2832)"/>
</clipPath>
<clipPath id="clip1_210_239">
<rect width="22.4335" height="22.4335" fill="white" transform="translate(230.347 110.843)"/>
</clipPath>
<clipPath id="clip2_210_239">
<rect width="22.4335" height="22.4335" fill="white" transform="translate(230.347 169.402)"/>
</clipPath>
<clipPath id="clip3_210_239">
<rect width="22.4335" height="22.4335" fill="white" transform="translate(228.969 231.417)"/>
</clipPath>
<clipPath id="clip4_210_239">
<rect width="22.4335" height="22.4335" fill="white" transform="translate(121.347 293.432)"/>
</clipPath>
</defs>
</svg>
