<svg width="297" height="69" viewBox="0 0 297 69" fill="none" xmlns="http://www.w3.org/2000/svg">
<path d="M3.01132 21.1966V47.6627C3.01132 49.285 4.06512 50.9073 5.58069 51.7132L31.2153 64.9462C32.8729 65.7521 34.8385 65.7521 36.4961 64.9462L62.1307 51.7132C63.7884 50.9073 64.7001 49.285 64.7001 47.6627V21.1966C64.7001 19.5743 63.6463 17.952 62.1307 17.1461L36.4843 3.9131C34.8266 3.10724 32.8611 3.10724 31.2034 3.9131L5.56885 17.1461C3.91119 17.952 3.01132 19.5743 3.01132 21.1966Z" />
<path d="M45.5303 24.4413C45.8383 23.9005 46.5841 23.9005 46.7382 24.4413L59.3956 55.6364L52.1609 59.4219L41.9072 34.1646C41.7534 33.8995 41.7534 33.6238 41.9072 33.3587L45.5303 24.4413Z" fill="white"/>
<path d="M35.8803 48.4792L39.5035 39.5617C39.7995 39.0209 40.5573 39.0209 40.6995 39.5617L49.4494 60.8957L42.215 64.6811L35.8803 49.285C35.7265 49.0199 35.7265 48.7442 35.8803 48.4792Z" fill="white"/>
<path d="M33.7728 4.8568C33.9267 4.8568 34.0688 4.8568 34.2227 4.99464L61.9649 19.3092C62.2609 19.4471 62.4148 19.7122 62.4148 20.1151V48.7442C62.4148 49.0093 62.2609 49.4229 61.9649 49.5501L34.2227 63.8647C34.0688 64.0025 33.9267 64.0025 33.7728 64.0025C33.6189 64.0025 33.4768 64.0025 33.3228 63.8647L5.58065 49.5501C5.28464 49.4123 5.13071 49.1472 5.13071 48.7442V20.1151C5.13071 19.85 5.28464 19.4365 5.58065 19.3092L33.3228 4.99464C33.4649 4.8568 33.6189 4.8568 33.7728 4.8568ZM33.7728 0.668457C32.719 0.668457 31.8073 0.933542 30.9074 1.34707L3.16519 15.6617C1.35361 16.6054 0.299805 18.2277 0.299805 20.1151V48.7442C0.299805 50.5044 1.35361 52.254 3.16519 53.1977L30.9074 67.5122C31.8073 67.9152 32.719 68.1909 33.7728 68.1909C34.8266 68.1909 35.7383 67.9258 36.6382 67.5122L64.3804 53.1977C66.1919 52.254 67.2458 50.6316 67.2458 48.7442V20.1151C67.2458 18.3549 66.1919 16.6054 64.3804 15.6617L36.7803 1.34707C35.8804 0.944145 34.9687 0.668457 33.9149 0.668457H33.7728Z" fill="white"/>
<path d="M15.5266 59.4113L18.0841 53.1977L23.211 56.9831L18.392 61.0336L15.5266 59.4113Z" fill="black"/>
<path d="M36.6264 18.0898H43.7187L43.5649 17.9626C44.0147 17.9626 44.3227 18.3655 44.1687 18.7684L25.4726 64.6811L18.2381 60.8957L35.4186 18.7684C35.5726 18.3549 36.1764 18.0898 36.6264 18.0898Z" fill="white"/>
<path d="M24.4187 18.0898H31.3572C31.8072 18.0898 32.115 18.4928 31.961 18.8957L15.3726 59.5491L8.13809 55.7637L23.2111 18.7684C23.3649 18.3549 23.9687 18.0898 24.4187 18.0898Z" fill="white"/>
<path fill-rule="evenodd" clip-rule="evenodd" d="M98.8954 26.2014C98.4454 25.9363 97.8416 25.7985 97.0837 25.7985H95.2603C94.6564 25.7985 94.2184 25.9363 93.7566 26.2014C93.2948 26.4665 92.8448 26.88 92.395 27.6859L83.3488 42.5413V42.9442C83.3488 43.082 83.5028 43.082 83.7988 43.082H87.422C87.7298 43.082 87.8718 43.082 88.0258 42.8169L89.9913 39.5723H102.957L104.934 42.8169L104.952 42.8319C105.1 42.9548 105.253 43.082 105.538 43.082H109.007C109.303 43.082 109.457 43.082 109.457 42.9442C109.611 42.8063 109.611 42.6791 109.457 42.5413L100.257 27.6859C99.7952 27.0073 99.3452 26.4665 98.8954 26.2014ZM101.145 36.7412H91.6489L96.0299 29.4461C96.0299 29.3082 96.1721 29.3082 96.3259 29.3082H96.4799C96.5377 29.3082 96.572 29.3082 96.6027 29.3176C96.6476 29.3311 96.6848 29.3644 96.7759 29.4461L101.145 36.7412Z" fill="white"/>
<path fill-rule="evenodd" clip-rule="evenodd" d="M134.026 27.1451C133.126 26.2014 131.61 25.7985 129.503 25.7985H114.75C114.146 25.7985 113.85 26.0636 113.85 26.6044V42.6685C113.85 43.0714 114.004 43.2093 114.454 43.2093H117.473C117.923 43.2093 118.077 43.0714 118.077 42.6685V37.6743H126.969L131.338 42.8063C131.392 42.8543 131.425 42.9038 131.454 42.9468C131.502 43.0179 131.538 43.0714 131.634 43.0714C131.634 43.2093 131.788 43.2093 132.084 43.2093H135.707C136.003 43.2093 136.157 43.082 136.157 42.9442C136.157 42.8063 136.157 42.6791 136.003 42.5413L131.326 37.2714C132.83 36.9957 133.884 36.4549 134.488 35.649C135.092 34.8432 135.388 33.7616 135.388 32.2772V30.9305C135.388 29.3082 134.926 27.951 134.026 27.1451ZM128.591 34.7053H118.041V29.5627C118.041 29.4355 118.041 29.2976 118.337 29.2976H128.591C129.503 29.2976 130.107 29.4355 130.557 29.8384C131.007 30.1141 131.16 30.6549 131.16 31.4607V32.5423C131.16 33.2209 131.007 33.7616 130.557 34.1646C130.249 34.5675 129.491 34.7053 128.591 34.7053Z" fill="white"/>
<path fill-rule="evenodd" clip-rule="evenodd" d="M158.607 25.7985C160.572 25.7985 161.922 26.2014 162.68 26.88C163.438 27.5587 163.888 28.6402 163.888 29.9868V31.2062C163.888 32.5529 163.284 33.6344 162.076 34.313C163.284 34.9916 164.042 36.0732 164.042 37.5577V39.0421C164.042 39.6819 163.905 40.1991 163.77 40.7093L163.746 40.8023C163.604 41.3431 163.296 41.746 162.988 42.1489C162.538 42.5519 162.088 42.8275 161.484 42.9548C160.88 43.0926 160.122 43.2199 159.223 43.2199H142.788C142.184 43.2199 141.888 42.9548 141.888 42.414V26.615C141.888 26.0742 142.184 25.8091 142.788 25.8091H158.607V25.7985ZM146.103 32.9558H157.399C158.299 32.9558 158.903 32.8179 159.211 32.5529C159.519 32.2878 159.661 32.0121 159.661 31.4713V30.6655C159.661 30.1247 159.507 29.7218 159.211 29.5839C158.915 29.3188 158.311 29.181 157.707 29.181H146.399C146.103 29.181 146.103 29.3188 146.103 29.4461V32.9558ZM146.091 35.6597V39.3072C146.091 39.5723 146.245 39.5723 146.387 39.5723H157.695C158.453 39.5723 158.903 39.4345 159.199 39.1694C159.495 38.9043 159.649 38.4908 159.649 38.0878V37.1441C159.649 36.6034 159.495 36.2004 159.199 35.9247C158.903 35.649 158.299 35.5218 157.233 35.5218H145.937L146.091 35.6597Z" fill="white"/>
<path d="M174.887 26.3393C174.887 25.9363 174.734 25.7985 174.284 25.7985H171.264C170.814 25.7985 170.66 25.9363 170.66 26.3393V42.5413C170.66 42.9442 170.814 43.082 171.264 43.082H174.284C174.734 43.082 174.887 42.9442 174.887 42.5413V26.3393Z" fill="white"/>
<path d="M203.387 25.7985C203.837 25.7985 203.991 25.9363 203.991 26.3393V28.7674C203.991 29.1704 203.837 29.3082 203.387 29.3082H194.637V42.5413C194.637 42.9442 194.483 43.082 194.033 43.082H191.014C190.564 43.082 190.41 42.9442 190.41 42.5413V29.3082H181.66C181.21 29.3082 181.056 29.1704 181.056 28.7674V26.3393C181.056 25.9363 181.21 25.7985 181.66 25.7985H203.387Z" fill="white"/>
<path fill-rule="evenodd" clip-rule="evenodd" d="M229.78 27.1451C228.88 26.2014 227.364 25.7985 225.257 25.7985H210.504C209.9 25.7985 209.604 26.0636 209.604 26.6044V42.6685C209.604 43.0714 209.758 43.2093 210.207 43.2093H213.227C213.677 43.2093 213.831 43.0714 213.831 42.6685V37.6743H222.723L227.092 42.8063C227.146 42.8543 227.179 42.9038 227.208 42.9468C227.256 43.0179 227.292 43.0714 227.388 43.0714C227.388 43.2093 227.542 43.2093 227.838 43.2093H231.461C231.757 43.2093 231.911 43.082 231.911 42.9442C231.911 42.8063 231.911 42.6791 231.757 42.5413L227.08 37.2714C228.584 36.9957 229.638 36.4549 230.242 35.649C230.846 34.8432 231.142 33.7616 231.142 32.2772V30.9305C231.142 29.3082 230.68 27.951 229.78 27.1451ZM224.345 34.7053H213.795V29.5627C213.795 29.4355 213.795 29.2976 214.091 29.2976H224.345C225.257 29.2976 225.861 29.4355 226.311 29.8384C226.761 30.1141 226.914 30.6549 226.914 31.4607V32.5423C226.914 33.2209 226.761 33.7616 226.311 34.1646C226.003 34.5675 225.245 34.7053 224.345 34.7053Z" fill="white"/>
<path d="M240.791 25.7985C241.241 25.7985 241.395 25.9363 241.395 26.3393V36.2004C241.395 36.879 241.395 37.4198 241.549 37.8227L241.573 37.887L241.575 37.8897C241.719 38.2699 241.862 38.6439 242.153 38.9043C242.461 39.18 242.757 39.3072 243.207 39.4451C243.657 39.5829 244.261 39.5829 245.018 39.5829H252.715C253.472 39.5829 254.076 39.5829 254.526 39.4451L254.583 39.4276C255.014 39.2962 255.432 39.1683 255.58 38.9043C255.87 38.6442 256.024 38.2412 256.175 37.8455L256.184 37.8227C256.338 37.4198 256.338 36.879 256.338 36.2004V26.3393C256.338 25.9363 256.492 25.7985 256.942 25.7985H259.961C260.411 25.7985 260.565 25.9363 260.565 26.3393V36.6034C260.565 37.8227 260.411 38.7664 260.115 39.5723C259.819 40.3782 259.357 41.0568 258.753 41.5975C258.149 42.1383 257.392 42.5413 256.338 42.6791C255.284 42.9442 254.23 43.082 252.715 43.082H244.722C243.361 43.082 242.153 42.9442 241.099 42.6791C240.199 42.414 239.288 42.0005 238.684 41.5975C238.08 41.0568 237.63 40.3782 237.322 39.5723C237.026 38.7664 236.872 37.6849 236.872 36.6034V26.3393C236.872 25.9363 237.026 25.7985 237.476 25.7985H240.791Z" fill="white"/>
<path d="M273.507 25.9363C273.211 25.7985 272.903 25.7985 272.453 25.7985H269.587C268.676 25.7985 267.918 25.9363 267.622 26.3393C267.326 26.7422 267.172 27.4208 267.172 28.3645V42.5519C267.172 42.9548 267.326 43.0926 267.776 43.0926H270.653C271.103 43.0926 271.257 42.9548 271.257 42.5519V29.5839C271.257 29.4567 271.257 29.3188 271.411 29.3188H271.707C271.849 29.3188 272.003 29.3188 272.003 29.4567L277.58 40.5266C277.706 40.6915 277.806 40.8581 277.901 41.0157C278.037 41.2431 278.163 41.4515 278.338 41.6082C278.393 41.6805 278.443 41.7483 278.49 41.8118C278.705 42.1021 278.853 42.3009 279.095 42.414C279.294 42.5063 279.492 42.5938 279.693 42.683C279.793 42.727 279.893 42.7714 279.995 42.8169C280.303 42.9548 280.753 42.9548 281.203 42.9548H282.564C283.015 42.9548 283.476 42.9548 283.772 42.8169C283.974 42.8169 284.182 42.6936 284.387 42.5714C284.483 42.5145 284.578 42.4578 284.672 42.414C284.83 42.2779 284.944 42.1418 285.06 42.0043C285.17 41.8739 285.28 41.7423 285.43 41.6082C285.738 41.3325 286.034 40.9295 286.188 40.5266L291.765 29.4567C291.765 29.4567 291.907 29.3188 292.061 29.3188H292.357C292.357 29.3188 292.51 29.4461 292.51 29.5839V42.5413C292.51 42.9442 292.664 43.082 293.114 43.082H295.98C296.43 43.082 296.584 42.9442 296.584 42.5413V28.3645C296.584 27.4208 296.43 26.7422 296.134 26.3393C295.826 25.9363 295.068 25.7985 294.168 25.7985H291.149C290.903 25.7985 290.702 25.8398 290.521 25.8772C290.371 25.9081 290.234 25.9363 290.095 25.9363C289.787 25.9363 289.491 26.0636 289.337 26.2014C289.029 26.3393 288.887 26.4771 288.733 26.7422C288.426 27.0073 288.284 27.283 288.13 27.6859L282.399 39.5723L282.343 39.6188C282.21 39.7309 282.084 39.8374 281.949 39.8374H281.653C281.435 39.8374 281.378 39.7686 281.301 39.6775C281.274 39.6446 281.244 39.6088 281.203 39.5723L275.472 27.6859C275.214 27.3483 275.073 27.1001 274.943 26.8726L274.868 26.7422C274.761 26.5506 274.585 26.4307 274.437 26.3291C274.371 26.2845 274.311 26.2435 274.264 26.2014C274.11 26.0742 273.803 25.9363 273.507 25.9363Z" fill="white"/>
</svg>
