<svg width="314" height="50" viewBox="0 0 314 50" fill="none" xmlns="http://www.w3.org/2000/svg">
<path d="M9.91727 8.43198L24.5311 0.859375L39.145 8.43198L33.6617 11.0941L24.5311 6.38503L15.1633 11.0941L9.91727 8.43198ZM38.9202 17.839L33.6617 15.1769L24.5311 19.886L15.1633 15.1769L9.90478 17.839V23.3647L19.0478 28.0738V37.6933L24.3063 40.5568L29.5648 37.6933V28.2863L38.7078 23.5772V17.8502H38.9202V17.839ZM38.9202 32.9842V27.4586L33.6617 30.3221V35.6352L38.9202 32.9842ZM42.8047 34.8186L33.6742 39.5278V45.0534L48.3005 37.4808V22.3468L42.8172 25.4116L42.8047 34.8186ZM37.5462 13.1411L42.8047 16.0046V21.5302L48.0632 18.6667V13.1411L42.8047 10.2776L37.5462 13.1411ZM19.0478 41.5747V47.1004L24.3063 49.9639L29.5648 47.1004V41.5747L24.3063 44.4382L19.0478 41.5747ZM9.90478 32.9842L15.1633 35.6464V30.1207L9.90478 27.2572V32.9842ZM19.0478 13.1411L24.3063 16.0046L29.7896 13.1411L24.5311 10.2776L19.0478 13.1411ZM6.03273 16.0046L11.516 13.1411L6.03273 10.2776L0.774231 13.1411V18.6667L6.03273 21.5302V16.0046ZM6.03273 25.4116L0.774231 22.5481V37.6821L15.4006 45.2547V39.7291L6.25755 35.02V25.4004L6.03273 25.4116Z" fill="white"/>
<path d="M90.3184 31.7537C90.3184 28.0737 88.0326 26.2281 84.6103 24.9977C86.896 23.9798 88.7196 22.1342 88.7196 19.0693C88.7196 14.7741 84.8351 11.9106 78.6648 11.9106H64.5006V39.3263H79.1144C85.7469 39.1138 90.3184 36.6642 90.3184 31.7537ZM81.8623 20.0872C81.8623 22.1342 80.0387 22.9507 77.066 22.9507H70.8957V17.0224H77.5157C80.5009 17.0224 81.8623 18.0514 81.8623 20.0872ZM83.6985 30.9372C83.6985 32.9841 81.8748 34.002 78.9021 34.002H70.9082V28.0737H78.6773C82.0997 27.8611 83.6985 29.0916 83.6985 30.9372Z" fill="white"/>
<path d="M123.443 11.9107H116.811V28.689L102.422 11.9107H96.2641V39.3264H102.884V21.9329L117.735 39.3264H123.443V11.9107Z" fill="white"/>
<path d="M157.018 31.7537C157.018 28.0737 154.732 26.2281 151.31 24.9977C153.596 23.9798 155.419 22.1342 155.419 19.0693C155.419 14.7741 151.535 11.9106 145.364 11.9106H131.2V39.3263H145.814C152.446 39.1138 157.018 36.6642 157.018 31.7537ZM148.799 20.0872C148.799 22.1342 146.976 22.9507 144.003 22.9507H137.833V17.0224H144.452C147.2 17.0224 148.799 18.0514 148.799 20.0872ZM150.398 30.9372C150.398 32.9841 148.574 34.002 145.602 34.002H137.608V28.0737H145.377C148.799 27.8611 150.398 29.0916 150.398 30.9372Z" fill="white"/>
<path d="M197.45 34.4161L194.027 31.3513C191.517 33.5996 189.006 34.83 185.346 34.83C179.401 34.83 175.292 30.5348 175.292 25.0091C175.292 19.6848 179.638 15.4007 185.346 15.4007C188.769 15.4007 191.517 16.8325 193.802 18.8794L197.225 15.1994C194.252 12.7498 190.83 10.9042 185.346 10.9042C176.203 10.9042 169.583 17.2463 169.583 25.0203C169.583 32.9956 176.203 39.1364 185.122 39.1364C190.83 39.1141 194.252 37.2796 197.45 34.4161Z" fill="white"/>
<path d="M223.492 27.2572V38.7112H228.751V11.2955H223.492V22.7495H208.878V11.2955H203.62V38.7112H208.878V27.2572H223.492Z" fill="white"/>
<path d="M252.957 11.2956H247.935L234.458 38.9127H239.942L243.139 32.3691H257.528L260.726 38.9127H266.434L252.957 11.2956ZM255.705 27.8613H245.2L250.459 17.0226L255.705 27.8613Z" fill="white"/>
<path d="M272.38 11.2955V38.7112H277.626V11.2955H272.38Z" fill="white"/>
<path d="M307.554 30.3222L291.104 11.4969H286.308V38.9127H291.566V19.2709L308.466 38.7113H313.037V11.2956H307.779V30.3222H307.554Z" fill="white"/>
</svg>
