<svg width="296" height="64" viewBox="0 0 296 64" fill="none" xmlns="http://www.w3.org/2000/svg">
<path d="M33.4241 3.7425C33.1218 3.93385 32.7734 4.02455 32.4231 4.00311C31.9536 3.97438 31.514 3.74653 31.2009 3.36963C30.8877 2.99274 30.7266 2.49764 30.7529 1.99315C30.7726 1.61667 30.8957 1.25492 31.1068 0.95366C31.3178 0.652399 31.6072 0.425162 31.9384 0.300693C32.2696 0.176224 32.6278 0.160116 32.9675 0.254407C33.3072 0.348697 33.6133 0.54915 33.847 0.830408C34.0807 1.11167 34.2316 1.46109 34.2804 1.83449C34.3293 2.20788 34.274 2.58846 34.1216 2.92809C33.9692 3.26772 33.7265 3.55114 33.4241 3.7425Z" fill="black"/>
<path d="M47.0751 4.70171C47.3059 4.86425 47.5763 4.94958 47.8522 4.94692C48.1281 4.94425 48.397 4.85371 48.625 4.68674C48.853 4.51977 49.0298 4.28389 49.1329 4.00893C49.2361 3.73397 49.2611 3.4323 49.2048 3.14207C49.1484 2.85185 49.0131 2.58612 48.8162 2.37851C48.6192 2.1709 48.3694 2.03074 48.0983 1.97575C47.8272 1.92077 47.547 1.95344 47.2931 2.06962C47.0393 2.18581 46.8233 2.38029 46.6723 2.62847C46.4701 2.96087 46.399 3.36593 46.4745 3.75466C46.5501 4.14339 46.7661 4.48401 47.0751 4.70171Z" fill="black"/>
<path d="M18.4256 4.25562C18.2915 4.51388 18.0894 4.72375 17.8446 4.85883C17.6805 4.94902 17.5014 5.00341 17.3176 5.01887C17.1339 5.03432 16.9491 5.01054 16.7739 4.94889C16.5987 4.88723 16.4366 4.78893 16.2969 4.65964C16.1573 4.53036 16.0428 4.37264 15.9601 4.19559C15.8371 3.93108 15.7897 3.63338 15.8238 3.33997C15.8579 3.04655 15.972 2.77054 16.1518 2.54667C16.3316 2.3228 16.5689 2.16108 16.834 2.08188C17.0991 2.00267 17.3801 2.00951 17.6416 2.10154C17.9031 2.19357 18.1334 2.36668 18.3036 2.59907C18.4737 2.83145 18.5761 3.11274 18.5978 3.40751C18.6195 3.70229 18.5596 3.99737 18.4256 4.25562Z" fill="black"/>
<path d="M18.1177 31.7452C18.0521 32.9737 18.443 34.1799 19.2045 35.0989C19.966 36.0178 21.0358 36.5743 22.1789 36.6461H22.4144C23.2563 36.6451 24.0795 36.3792 24.7823 35.8813C25.4852 35.3834 26.037 34.6752 26.3697 33.8441C26.7023 33.013 26.8013 32.0955 26.6543 31.2047C26.5073 30.3139 26.1208 29.4888 25.5425 28.8314C24.9642 28.1739 24.2194 27.7128 23.4001 27.505C22.5807 27.2971 21.7227 27.3516 20.9318 27.6618C20.141 27.9719 19.452 28.5241 18.9498 29.2502C18.4476 29.9763 18.1543 30.8446 18.106 31.7478L18.1177 31.7452Z" fill="black"/>
<path d="M2.04261 30.5705C1.76779 30.554 1.49457 30.6254 1.25748 30.7757C1.0204 30.9259 0.830095 31.1484 0.710618 31.4149C0.59114 31.6813 0.547854 31.9799 0.586229 32.2728C0.624603 32.5657 0.742917 32.8398 0.926217 33.0605C1.10952 33.2812 1.34958 33.4385 1.61606 33.5126C1.88254 33.5867 2.16348 33.5743 2.42338 33.4768C2.68327 33.3794 2.91046 33.2014 3.07623 32.9652C3.242 32.7291 3.33891 32.4454 3.35471 32.1501C3.36553 31.9537 3.34013 31.7569 3.27997 31.5711C3.21981 31.3853 3.12608 31.2141 3.00415 31.0673C2.88223 30.9205 2.73452 30.801 2.56951 30.7158C2.4045 30.6305 2.22544 30.5812 2.04261 30.5705Z" fill="black"/>
<path d="M22.2187 13.0556C22.5988 12.8496 22.9136 12.527 23.1231 12.1287C23.3327 11.7305 23.4277 11.2744 23.3961 10.8181C23.3645 10.3618 23.2077 9.92583 22.9456 9.5653C22.6834 9.20476 22.3277 8.93584 21.9233 8.79253C21.519 8.64923 21.0842 8.63797 20.6739 8.76018C20.2636 8.88239 19.8962 9.13258 19.6182 9.47913C19.3402 9.82568 19.1641 10.253 19.1121 10.7071C19.06 11.1612 19.1345 11.6217 19.3259 12.0304C19.4532 12.3019 19.6289 12.5438 19.8432 12.7423C20.0574 12.9408 20.306 13.092 20.5746 13.1872C20.8433 13.2824 21.1267 13.3198 21.4088 13.2972C21.6909 13.2746 21.9661 13.1925 22.2187 13.0556Z" fill="black"/>
<path d="M8.48638 19.0065C8.13546 19.0093 7.79164 18.9003 7.49843 18.693C7.10572 18.4155 6.83157 17.9819 6.73616 17.4873C6.64076 16.9927 6.73192 16.4777 6.98961 16.0553C7.18201 15.7399 7.45715 15.4929 7.7802 15.3456C8.10326 15.1983 8.45971 15.1573 8.80446 15.2278C9.14921 15.2982 9.46677 15.477 9.71694 15.7415C9.96712 16.0059 10.1387 16.3442 10.2099 16.7135C10.2811 17.0827 10.2488 17.4664 10.1171 17.816C9.98537 18.1655 9.76011 18.4652 9.46983 18.6771C9.17955 18.889 8.8373 19.0037 8.48638 19.0065Z" fill="black"/>
<path d="M10.1196 29.7276C9.6945 29.7019 9.27187 29.8121 8.90509 30.0444C8.53831 30.2767 8.24384 30.6206 8.05892 31.0327C7.87399 31.4448 7.80691 31.9066 7.86615 32.3596C7.92538 32.8127 8.10828 33.2367 8.39171 33.5781C8.67515 33.9195 9.0464 34.1629 9.45855 34.2776C9.8707 34.3923 10.3052 34.3731 10.7072 34.2224C11.1092 34.0718 11.4606 33.7964 11.717 33.4312C11.9734 33.066 12.1233 32.6272 12.1478 32.1705C12.1799 31.5576 11.9844 30.9561 11.6041 30.498C11.2238 30.04 10.6898 29.7629 10.1196 29.7276Z" fill="black"/>
<path d="M6.98902 46.0474C7.16145 45.7191 7.42056 45.4532 7.73361 45.2832C7.94163 45.1702 8.16832 45.1024 8.40074 45.0836C8.63315 45.0648 8.86673 45.0955 9.08813 45.1738C9.30952 45.252 9.51439 45.3765 9.69102 45.5399C9.86765 45.7033 10.0126 45.9025 10.1175 46.1262C10.2755 46.4627 10.337 46.842 10.2943 47.2162C10.2517 47.5903 10.1068 47.9425 9.87794 48.2281C9.64909 48.5138 9.34657 48.7201 9.00862 48.821C8.67066 48.9219 8.31246 48.9129 7.97927 48.7951C7.64609 48.6773 7.35289 48.456 7.13674 48.1591C6.92059 47.8622 6.79119 47.5032 6.76489 47.1273C6.7386 46.7514 6.8166 46.3756 6.98902 46.0474Z" fill="black"/>
<path d="M16.1032 24.9457C16.5225 25.241 17.0138 25.3961 17.515 25.3913C18.0163 25.3865 18.505 25.2221 18.9193 24.9189C19.3336 24.6156 19.655 24.1872 19.8427 23.6877C20.0305 23.1882 20.0762 22.6401 19.9741 22.1127C19.872 21.5853 19.6266 21.1023 19.2691 20.7247C18.9115 20.3472 18.4578 20.092 17.9654 19.9915C17.4729 19.891 16.9637 19.9497 16.5023 20.1602C16.0408 20.3707 15.6478 20.7234 15.3729 21.1739C15.1901 21.473 15.0639 21.8079 15.0016 22.1594C14.9393 22.5109 14.9422 22.8722 15.01 23.2226C15.0779 23.5729 15.2093 23.9055 15.3969 24.2012C15.5845 24.4968 15.8245 24.7499 16.1032 24.9457Z" fill="black"/>
<path d="M43.8572 13.2493C43.431 13.2543 43.013 13.1234 42.656 12.8732C42.4186 12.7071 42.2139 12.4923 42.0539 12.2411C41.8938 11.9899 41.7814 11.7072 41.7232 11.4093C41.665 11.1113 41.6621 10.8039 41.7146 10.5048C41.7672 10.2056 41.8742 9.92049 42.0294 9.66583C42.2626 9.28245 42.5964 8.98197 42.9884 8.80237C43.3805 8.62277 43.8133 8.57212 44.2322 8.65682C44.6511 8.74152 45.0372 8.95777 45.3417 9.27823C45.6462 9.59869 45.8555 10.009 45.943 10.4572C46.0306 10.9055 45.9925 11.3716 45.8337 11.7966C45.6748 12.2216 45.4022 12.5864 45.0504 12.845C44.6986 13.1036 44.2834 13.2442 43.8572 13.2493Z" fill="black"/>
<path d="M41.329 27.5858C41.8637 27.3856 42.4299 27.3005 42.9952 27.3354C43.56 27.3665 44.1133 27.5182 44.6229 27.7816C45.1324 28.045 45.5881 28.4148 45.9633 28.8694C46.5174 29.5361 46.8801 30.3607 47.0078 31.2439C47.1355 32.1271 47.0228 33.0311 46.6831 33.847C46.3435 34.6629 45.7915 35.3557 45.0936 35.842C44.3958 36.3283 43.582 36.5873 42.7502 36.5878H42.5005C41.3588 36.5173 40.2899 35.9623 39.5289 35.0448C38.768 34.1274 38.3773 32.9227 38.4429 31.6958C38.5085 30.4688 39.025 29.3201 39.8787 28.5024C40.3014 28.0975 40.7942 27.786 41.329 27.5858Z" fill="black"/>
<path d="M23.6348 24.6242C23.9927 25.3925 24.543 26.0382 25.2239 26.4886C25.9048 26.9389 26.6891 27.1761 27.4886 27.1734C28.2257 27.1735 28.9506 26.9707 29.594 26.5842C30.2374 26.1977 30.778 25.6405 31.164 24.9657C31.55 24.2909 31.7687 23.521 31.7991 22.7296C31.8295 21.9381 31.6707 21.1515 31.3377 20.4448C30.9774 19.68 30.426 19.0381 29.7453 18.591C29.0647 18.1439 28.2816 17.9093 27.4839 17.9134C26.7491 17.9147 26.0267 18.1178 25.3854 18.5033C24.7441 18.8889 24.2051 19.4441 23.8195 20.1164C23.4339 20.7886 23.2146 21.5556 23.1823 22.3445C23.1499 23.1334 23.3057 23.9181 23.6348 24.6242Z" fill="black"/>
<path d="M58.1825 17.9242C58.0099 18.2523 57.7507 18.518 57.4375 18.6878C57.017 18.9151 56.5298 18.9537 56.0828 18.7952C55.6358 18.6366 55.2656 18.2939 55.0536 17.8423C54.8961 17.5056 54.835 17.1262 54.878 16.7522C54.921 16.3781 55.0663 16.0262 55.2954 15.7408C55.5245 15.4555 55.8271 15.2495 56.1651 15.149C56.5031 15.0484 56.8613 15.0578 57.1943 15.1759C57.5274 15.294 57.8204 15.5156 58.0363 15.8126C58.2522 16.1096 58.3813 16.4687 58.4073 16.8446C58.4333 17.2204 58.3551 17.5961 58.1825 17.9242Z" fill="black"/>
<path d="M46.5049 20.1638C46.0572 20.4061 45.6864 20.7857 45.4394 21.2545C45.1924 21.7233 45.0803 22.2602 45.1173 22.7975C45.1543 23.3347 45.3387 23.8481 45.6472 24.2728C45.9557 24.6974 46.3745 25.0142 46.8505 25.183C47.3266 25.3519 47.8385 25.3653 48.3216 25.2215C48.8048 25.0777 49.2374 24.7832 49.5647 24.3752C49.8921 23.9672 50.0995 23.464 50.1607 22.9293C50.222 22.3946 50.1343 21.8524 49.9088 21.3713C49.7593 21.0516 49.5527 20.7667 49.3006 20.5329C49.0485 20.2992 48.7561 20.1211 48.4399 20.009C48.1237 19.8968 47.7901 19.8527 47.4581 19.8793C47.126 19.9059 46.8021 20.0025 46.5049 20.1638Z" fill="black"/>
<path d="M32.4042 15.9996C32.9046 16.0297 33.402 15.8998 33.8337 15.6262C34.2654 15.3526 34.6119 14.9476 34.8295 14.4625C35.047 13.9773 35.1258 13.4337 35.056 12.9004C34.9861 12.3671 34.7707 11.868 34.437 11.4662C34.1033 11.0644 33.6662 10.778 33.181 10.6431C32.6958 10.5081 32.1843 10.5308 31.7111 10.7082C31.2379 10.8856 30.8243 11.2098 30.5225 11.6398C30.2207 12.0697 30.0443 12.5862 30.0156 13.1239C29.9776 13.8456 30.2079 14.5539 30.6558 15.0932C31.1038 15.6324 31.7326 15.9585 32.4042 15.9996Z" fill="black"/>
<path d="M19.7364 42.7136C19.4896 43.1826 19.1189 43.5624 18.6712 43.8049C18.0711 44.1301 17.3754 44.1858 16.7371 43.9598C16.0988 43.7338 15.5701 43.2447 15.2673 42.6C15.0414 42.119 14.9534 41.5768 15.0142 41.042C15.0751 40.5072 15.2822 40.0039 15.6093 39.5956C15.9364 39.1873 16.3688 38.8924 16.8519 38.7482C17.335 38.6041 17.847 38.6171 18.3232 38.7857C18.7994 38.9542 19.2183 39.2708 19.5271 39.6952C19.8359 40.1197 20.0206 40.633 20.0578 41.1703C20.0951 41.7076 19.9832 42.2447 19.7364 42.7136Z" fill="black"/>
<path d="M34.0419 19.974C33.5162 20.8361 33.2731 21.862 33.351 22.8893C33.4289 23.9166 33.8234 24.8867 34.4721 25.6459C35.1208 26.4052 35.9865 26.9103 36.9324 27.0813C37.8782 27.2523 38.8501 27.0795 39.6943 26.5901C40.5384 26.1007 41.2066 25.3228 41.593 24.3794C41.9795 23.4361 42.0621 22.3811 41.8279 21.3816C41.5936 20.3821 41.0559 19.4951 40.2997 18.861C39.5436 18.2268 38.6123 17.8818 37.6531 17.8805C36.9368 17.8799 36.2316 18.071 35.6012 18.4365C34.9707 18.802 34.4349 19.3303 34.0419 19.974Z" fill="black"/>
<path d="M40.0254 37.5404C40.6699 37.9874 41.1917 38.611 41.5371 39.347C42.0483 40.4431 42.1345 41.7122 41.7769 42.8765C41.4193 44.0408 40.647 45.0054 39.6291 45.5591C39.0272 45.8871 38.3628 46.0604 37.688 46.0654C36.921 46.0654 36.1678 45.8455 35.5063 45.4283C34.8447 45.0111 34.2987 44.4118 33.9246 43.6922C33.5505 42.9726 33.3619 42.1588 33.3782 41.3347C33.3944 40.5106 33.615 39.7061 34.0172 39.0042C34.4193 38.3023 34.9884 37.7284 35.6658 37.3417C36.3432 36.955 37.1044 36.7696 37.8707 36.8045C38.6371 36.8395 39.3809 37.0935 40.0254 37.5404Z" fill="black"/>
<path d="M49.0707 39.023C48.6516 38.7274 48.1604 38.5719 47.6591 38.5763C47.1578 38.5807 46.669 38.7447 46.2544 39.0476C45.8399 39.3506 45.5182 39.7788 45.3302 40.2782C45.1421 40.7775 45.0961 41.3256 45.1979 41.8531C45.2997 42.3806 45.5447 42.8638 45.9021 43.2417C46.2594 43.6195 46.713 43.875 47.2055 43.9757C47.6979 44.0765 48.2071 44.0182 48.6687 43.808C49.1303 43.5978 49.5235 43.2452 49.7986 42.7948C50.1663 42.1905 50.2961 41.4543 50.1597 40.7473C50.0233 40.0404 49.6317 39.4203 49.0707 39.023Z" fill="black"/>
<path d="M57.0294 30.7589C57.2455 31.1531 57.3481 31.6073 57.3241 32.0641C57.2913 32.6769 57.0335 33.2507 56.6072 33.6594C56.181 34.068 55.6212 34.2782 55.0509 34.2436C54.6259 34.2174 54.2176 34.0563 53.8778 33.7807C53.5379 33.5052 53.2817 33.1276 53.1415 32.6956C53.0013 32.2636 52.9834 31.7966 53.0902 31.3537C53.1969 30.9108 53.4234 30.5119 53.7411 30.2073C54.0587 29.9027 54.4533 29.7061 54.8749 29.6425C55.2965 29.5788 55.7262 29.6509 56.1097 29.8496C56.4932 30.0484 56.8132 30.3648 57.0294 30.7589Z" fill="black"/>
<path d="M63.2893 30.4162C63.0139 30.3992 62.74 30.4702 62.5022 30.6205C62.2645 30.7707 62.0735 30.9934 61.9535 31.2602C61.8335 31.5271 61.7898 31.8262 61.828 32.1198C61.8662 32.4133 61.9845 32.6881 62.168 32.9094C62.3515 33.1307 62.592 33.2885 62.859 33.3629C63.1259 33.4373 63.4075 33.425 63.6679 33.3275C63.9284 33.23 64.1561 33.0516 64.3222 32.8151C64.4884 32.5785 64.5855 32.2942 64.6013 31.9983C64.6219 31.6017 64.4954 31.2125 64.2495 30.9159C64.0035 30.6194 63.6583 30.4397 63.2893 30.4162Z" fill="black"/>
<path d="M56.6849 44.9642C57.0356 44.9608 57.3795 45.0692 57.6729 45.2758C57.8678 45.413 58.0357 45.5901 58.1669 45.7971C58.2982 46.0041 58.3901 46.2369 58.4376 46.4821C58.4851 46.7273 58.4871 46.9801 58.4436 47.2262C58.4001 47.4722 58.3119 47.7066 58.1841 47.916C57.9916 48.2312 57.7166 48.478 57.3937 48.6252C57.0707 48.7724 56.7145 48.8134 56.3699 48.743C56.0253 48.6726 55.7078 48.4941 55.4577 48.2298C55.2075 47.9656 55.0358 47.6276 54.9644 47.2586C54.8929 46.8896 54.9249 46.5061 55.0563 46.1565C55.1876 45.807 55.4124 45.5072 55.7023 45.295C55.9922 45.0828 56.3341 44.9677 56.6849 44.9642Z" fill="black"/>
<path d="M18.0988 59.2669C17.8682 59.1043 17.598 59.0188 17.3222 59.0213C17.0464 59.0238 16.7775 59.114 16.5495 59.2807C16.3215 59.4473 16.1445 59.6829 16.0411 59.9577C15.9376 60.2324 15.9123 60.5339 15.9682 60.8241C16.0242 61.1143 16.159 61.3801 16.3556 61.588C16.5521 61.7959 16.8017 61.9364 17.0726 61.9919C17.3435 62.0475 17.6236 62.0154 17.8775 61.8998C18.1315 61.7843 18.3479 61.5904 18.4993 61.3427C18.5999 61.1782 18.6693 60.9939 18.7036 60.8005C18.7379 60.6072 18.7364 60.4084 18.6993 60.2156C18.6621 60.0229 18.5899 59.8399 18.4869 59.6771C18.3838 59.5143 18.252 59.3749 18.0988 59.2669Z" fill="black"/>
<path d="M46.7414 59.7104C46.8773 59.4524 47.0812 59.2435 47.3275 59.1101C47.491 59.0212 47.6691 58.9678 47.8518 58.953C48.0344 58.9383 48.218 58.9624 48.392 59.024C48.566 59.0856 48.7269 59.1835 48.8656 59.3121C49.0043 59.4407 49.118 59.5974 49.2003 59.7733C49.3245 60.0379 49.3729 60.3362 49.3394 60.6305C49.3059 60.9247 49.1919 61.2016 49.0119 61.4262C48.8319 61.6508 48.594 61.813 48.3282 61.8923C48.0624 61.9716 47.7807 61.9644 47.5187 61.8716C47.2567 61.7788 47.0262 61.6046 46.8564 61.3711C46.6865 61.1375 46.585 60.8551 46.5645 60.5595C46.544 60.2639 46.6056 59.9684 46.7414 59.7104Z" fill="black"/>
<path d="M31.1302 43.9872C31.656 43.125 31.8991 42.099 31.8211 41.0715C31.7431 40.0441 31.3485 39.074 30.6996 38.3148C30.0508 37.5555 29.1849 37.0505 28.2389 36.8797C27.2929 36.7089 26.3209 36.882 25.4768 37.3717C24.6327 37.8613 23.9647 38.6396 23.5785 39.5832C23.1923 40.5268 23.11 41.5819 23.3447 42.5814C23.5793 43.5809 24.1175 44.4678 24.874 45.1016C25.6305 45.7354 26.5621 46.0799 27.5214 46.0807C28.2377 46.0833 28.9433 45.8931 29.5737 45.5274C30.2041 45.1617 30.7392 44.6322 31.1302 43.9872Z" fill="black"/>
<path d="M21.3159 50.7204C21.7417 50.716 22.159 50.8474 22.5153 51.0979C22.993 51.4345 23.3268 51.9611 23.4434 52.562C23.56 53.1629 23.4499 53.7889 23.1372 54.3027C22.9038 54.6853 22.57 54.9849 22.1781 55.1637C21.7863 55.3426 21.3539 55.3925 20.9356 55.3073C20.5173 55.2221 20.1319 55.0055 19.8281 54.685C19.5243 54.3644 19.3158 53.9543 19.2289 53.5064C19.142 53.0585 19.1806 52.593 19.3398 52.1687C19.4991 51.7444 19.7718 51.3803 20.1235 51.1226C20.4752 50.8648 20.8902 50.7248 21.3159 50.7204Z" fill="black"/>
<path d="M32.5669 59.9655C32.2167 59.9441 31.8684 60.0348 31.5661 60.2261C31.2639 60.4173 31.0212 60.7006 30.8687 61.0401C30.7162 61.3796 30.6608 61.76 30.7095 62.1333C30.7582 62.5066 30.9089 62.856 31.1423 63.1374C31.3758 63.4187 31.6817 63.6193 32.0212 63.7139C32.3608 63.8084 32.7188 63.7927 33.05 63.6686C33.3813 63.5445 33.6708 63.3176 33.8821 63.0167C34.0934 62.7158 34.2169 62.3544 34.237 61.978C34.2504 61.728 34.2178 61.4776 34.1411 61.2412C34.0644 61.0047 33.9451 60.7868 33.79 60.5999C33.6349 60.413 33.447 60.2608 33.2372 60.1519C33.0273 60.0431 32.7995 59.9798 32.5669 59.9655Z" fill="black"/>
<path d="M31.1527 48.3387C31.5859 48.0666 32.0845 47.9389 32.5854 47.9716C33.2548 48.0146 33.8811 48.3413 34.3267 48.88C34.7723 49.4186 35.0008 50.1252 34.9622 50.8448C34.9338 51.3831 34.7573 51.9002 34.4551 52.3307C34.153 52.7611 33.7388 53.0855 33.2649 53.2628C32.7911 53.4401 32.2789 53.4622 31.7933 53.3264C31.3078 53.1907 30.8706 52.9031 30.5372 52.5001C30.2039 52.0971 29.9893 51.5969 29.9207 51.0628C29.8521 50.5287 29.9326 49.9847 30.1519 49.4997C30.3712 49.0148 30.7195 48.6107 31.1527 48.3387Z" fill="black"/>
<path d="M42.9528 50.9133C42.5724 51.1207 42.2578 51.4447 42.0489 51.8442C41.84 52.2439 41.7461 52.7011 41.7791 53.1581C41.8121 53.615 41.9705 54.0512 42.2343 54.4114C42.4981 54.7716 42.8554 55.0395 43.261 55.1814C43.6665 55.3232 44.1022 55.3326 44.5127 55.2083C44.9232 55.0839 45.2902 54.8315 45.5672 54.483C45.8441 54.1344 46.0187 53.7054 46.0686 53.2502C46.1186 52.795 46.0417 52.3341 45.8478 51.9258C45.7198 51.6549 45.5433 51.4137 45.3285 51.2161C45.1136 51.0185 44.8646 50.8684 44.5957 50.7743C44.3268 50.6803 44.0433 50.6441 43.7614 50.668C43.4794 50.6918 43.2047 50.7752 42.9528 50.9133Z" fill="black"/>
<path d="M97.6199 28.0821C97.6199 23.5052 94.6965 21.0396 90.5223 21.0396C84.7604 21.0396 82.0491 24.6267 82.0444 31.6641V32.5602C82.0444 39.7368 84.7204 43.1922 90.5247 43.1922C94.9462 43.1922 97.8272 40.7241 97.8272 36.2384H103.087C103.087 44.2706 97.6623 48.0374 90.4399 48.0374C81.6722 48.0374 76.5793 43.1922 76.5793 32.1121C76.5793 21.3004 81.6722 16.1843 90.4399 16.1843C97.5775 16.1843 103.087 20.0524 103.087 28.0821H97.6199Z" fill="black"/>
<path fill-rule="evenodd" clip-rule="evenodd" d="M117.544 16.731L106.398 47.5082H111.91L114.204 40.8227H127.304L129.66 47.5082H135.421L124.267 16.731H117.544ZM115.874 35.9699L118.798 27.5326C119.19 26.4198 119.789 24.4368 120.204 23.0632L120.204 23.0615L120.205 23.0594L120.207 23.0519L120.208 23.0479C120.409 22.3823 120.567 21.862 120.635 21.6572H120.842C120.909 21.8556 121.058 22.3544 121.25 22.9948C121.666 24.3801 122.28 26.4283 122.68 27.5326L125.601 35.9674L115.874 35.9699Z" fill="black"/>
<path fill-rule="evenodd" clip-rule="evenodd" d="M155.878 16.731C162.182 16.731 165.23 20.3661 165.23 26.0619C165.23 30.2362 163.517 33.2866 160.137 34.7219L166.262 47.5082H160.417L154.999 35.6104H146.109V47.5082H140.764V16.731H155.878ZM146.109 30.7729H155.459C158.215 30.7729 159.842 28.9806 159.842 26.0619C159.842 23.2823 158.34 21.6217 155.459 21.6217H146.109V30.7729Z" fill="black"/>
<path fill-rule="evenodd" clip-rule="evenodd" d="M183.976 16.731H172.533V47.5082H183.972C192.612 47.5082 197.87 42.663 197.87 32.1196C197.87 21.5762 192.617 16.731 183.976 16.731ZM192.409 32.5676C192.367 39.2987 189.404 42.6175 183.976 42.6175H177.882V21.6217H183.976C189.394 21.6217 192.409 24.943 192.409 31.6715V32.5676Z" fill="black"/>
<path fill-rule="evenodd" clip-rule="evenodd" d="M206.229 47.5082H200.719L211.871 16.731H218.587L229.734 47.5082H223.972L221.635 40.8227H208.526L206.229 47.5082ZM213.12 27.5326L210.201 35.9699L219.927 35.9674L217.006 27.5326C216.6 26.4085 215.969 24.3069 215.554 22.9215L215.553 22.9174C215.372 22.3143 215.232 21.8476 215.169 21.6572H214.957C214.888 21.8636 214.729 22.3903 214.526 23.0632L214.525 23.0654C214.11 24.4389 213.511 26.4204 213.12 27.5326Z" fill="black"/>
<path d="M254.164 35.0358C254.164 35.3819 254.194 36.077 254.217 36.6407L254.218 36.6485C254.233 37.0296 254.247 37.3493 254.247 37.4584L254.04 37.547C253.988 37.4741 253.817 37.1654 253.601 36.7772C253.292 36.2216 252.892 35.503 252.626 35.0814L240.186 16.731H235.086V47.5082H240.221V29.0692C240.221 28.5776 240.186 27.7825 240.161 27.2218L240.161 27.2199C240.147 26.9154 240.137 26.6803 240.137 26.6011L240.346 26.4669C240.388 26.5272 240.487 26.7139 240.624 26.9744L240.624 26.9754C240.896 27.4909 241.32 28.2949 241.76 28.9806L254.285 47.5082H259.293V16.731H254.16V35.0358H254.164Z" fill="black"/>
<path fill-rule="evenodd" clip-rule="evenodd" d="M266.178 32.1197C266.178 21.3079 271.606 16.1944 280.581 16.1944C289.556 16.1944 295.026 21.3079 295.026 32.1197C295.026 42.9314 289.565 48.0449 280.581 48.0449C271.596 48.0449 266.178 42.9314 266.178 32.1197ZM280.581 43.1998C286.425 43.1998 289.556 39.6558 289.556 32.6133V31.6716C289.556 24.6266 286.385 21.0396 280.581 21.0396C274.821 21.0396 271.648 24.6266 271.648 31.6716V32.6133C271.648 39.6558 274.779 43.1998 280.581 43.1998Z" fill="black"/>
</svg>
