<svg width="303" height="69" viewBox="0 0 303 69" fill="none" xmlns="http://www.w3.org/2000/svg">
<path d="M139.309 38.8035V49.4051C139.302 49.6224 139.203 49.8292 139.031 49.9829C138.859 50.1367 138.628 50.2258 138.386 50.2321C138.263 50.2353 138.142 50.216 138.028 50.1755C137.914 50.1351 137.811 50.0743 137.725 49.9968C137.638 49.9194 137.57 49.827 137.525 49.7252C137.48 49.6235 137.459 49.5145 137.462 49.4051V38.8035C137.462 35.2195 135.195 31.6606 130.745 31.6606C125.036 31.6606 122.573 36.1218 122.909 40.7083C122.909 40.7787 122.927 40.9759 122.942 41.1484C122.954 41.2822 122.965 41.4023 122.965 41.4351V49.38C122.964 49.5918 122.88 49.7965 122.726 49.9572C122.572 50.118 122.359 50.2244 122.125 50.2572C121.995 50.2727 121.862 50.2628 121.736 50.2282C121.61 50.1935 121.494 50.1349 121.396 50.0564C121.297 49.9779 121.219 49.8813 121.166 49.7732C121.113 49.6651 121.087 49.5481 121.09 49.4301V14.5677C121.092 14.349 121.19 14.1397 121.363 13.985C121.535 13.8304 121.769 13.7426 122.013 13.7406C122.256 13.7469 122.487 13.8361 122.659 13.9899C122.83 14.1436 122.93 14.3503 122.937 14.5677V34.2671C124.532 31.7107 127.387 29.9814 130.717 29.9814C136.203 29.9814 139.309 34.2671 139.309 38.8035Z" fill="white"/>
<path d="M109.589 30.5815C109.417 30.4278 109.186 30.3386 108.943 30.3323H103.99V23.8912C103.992 23.7732 103.966 23.6562 103.913 23.5481C103.86 23.44 103.782 23.3434 103.684 23.2649C103.585 23.1864 103.469 23.1278 103.343 23.0931C103.217 23.0585 103.085 23.0486 102.954 23.0641C102.72 23.0969 102.508 23.2033 102.354 23.364C102.2 23.5248 102.115 23.7295 102.114 23.9413V30.3323H97.3287C97.0845 30.3343 96.8508 30.422 96.6781 30.5767C96.5054 30.7314 96.4074 30.9406 96.4052 31.1594C96.4017 31.2688 96.4232 31.3778 96.4684 31.4795C96.5136 31.5813 96.5815 31.6737 96.668 31.7512C96.7544 31.8286 96.8576 31.8894 96.9712 31.9299C97.0849 31.9703 97.2065 31.9896 97.3287 31.9865H102.114V49.5054C102.122 49.7228 102.221 49.9295 102.393 50.0832C102.564 50.237 102.795 50.3262 103.038 50.3325C103.282 50.3305 103.516 50.2427 103.689 50.0881C103.861 49.9334 103.959 49.7241 103.962 49.5054V31.9865H108.943C109.066 31.9896 109.187 31.9703 109.301 31.9299C109.414 31.8894 109.518 31.8286 109.604 31.7512C109.691 31.6737 109.758 31.5813 109.804 31.4795C109.849 31.3778 109.87 31.2688 109.867 31.1594C109.86 30.942 109.76 30.7353 109.589 30.5815Z" fill="white"/>
<path fill-rule="evenodd" clip-rule="evenodd" d="M86.0841 40.8569C86.2729 40.6925 86.3814 40.4679 86.3858 40.2321C86.3578 34.8938 81.8799 29.9313 75.6109 29.9313C69.3418 29.9313 64.8919 34.9439 64.8919 40.2823C64.8919 45.6207 69.3698 50.6332 75.6109 50.6332C79.2492 50.6332 82.9714 49.2046 84.8465 46.2974C84.9385 46.1706 84.9871 46.0225 84.9865 45.8713C84.99 45.7618 84.9684 45.6529 84.9233 45.5511C84.8781 45.4494 84.8102 45.357 84.7237 45.2795C84.6372 45.2021 84.534 45.1413 84.4204 45.1008C84.3068 45.0604 84.1851 45.0411 84.0629 45.0442C83.899 45.0503 83.7393 45.0924 83.5978 45.1666C83.4563 45.2409 83.3373 45.3452 83.2513 45.4703C81.4042 47.8513 78.9413 48.9791 75.6109 48.9791C70.7412 48.9791 67.2988 45.2197 66.823 41.1093H85.3783C85.6416 41.112 85.8954 41.0213 86.0841 40.8569ZM75.6109 31.5855C80.4806 31.5855 84.0069 35.3449 84.3988 39.4552H66.823C67.2988 35.3449 70.7412 31.5855 75.6109 31.5855Z" fill="white"/>
<path fill-rule="evenodd" clip-rule="evenodd" d="M172.34 40.8569C172.528 40.6925 172.637 40.4679 172.641 40.2321C172.613 34.8938 168.079 29.9313 161.866 29.9313C155.597 29.9313 151.147 34.9439 151.147 40.2823C151.147 45.6207 155.625 50.6332 161.866 50.6332C165.505 50.6332 169.227 49.2046 171.102 46.2974C171.194 46.1706 171.243 46.0225 171.242 45.8713C171.245 45.7618 171.224 45.6529 171.179 45.5511C171.134 45.4494 171.066 45.357 170.979 45.2795C170.893 45.2021 170.79 45.1413 170.676 45.1008C170.562 45.0604 170.441 45.0411 170.318 45.0442C170.155 45.0503 169.995 45.0924 169.853 45.1666C169.712 45.2409 169.593 45.3452 169.507 45.4703C167.66 47.8513 165.197 48.9791 161.866 48.9791C156.997 48.9791 153.554 45.2197 153.079 41.1093H171.634C171.897 41.112 172.151 41.0213 172.34 40.8569ZM161.838 31.5855C166.708 31.5855 170.234 35.3449 170.626 39.4552H153.051C153.526 35.3449 156.969 31.5855 161.838 31.5855Z" fill="white"/>
<path d="M195.451 31.1092C195.468 31.3317 195.387 31.5515 195.225 31.7205C195.062 31.8896 194.831 31.9942 194.583 32.0115C189.126 32.7383 186.663 36.7233 186.663 41.3599V49.3048C186.662 49.5166 186.578 49.7213 186.424 49.8821C186.27 50.0429 186.057 50.1492 185.823 50.182C185.693 50.1976 185.56 50.1877 185.434 50.153C185.308 50.1184 185.192 50.0598 185.094 49.9812C184.995 49.9027 184.917 49.8061 184.864 49.698C184.811 49.5899 184.785 49.4729 184.788 49.355V31.2345C184.788 31.0227 184.873 30.8181 185.027 30.6573C185.181 30.4965 185.394 30.3901 185.627 30.3573C185.758 30.3418 185.891 30.3517 186.017 30.3863C186.143 30.421 186.259 30.4796 186.357 30.5581C186.455 30.6366 186.533 30.7332 186.586 30.8413C186.639 30.9494 186.665 31.0664 186.663 31.1844V34.8686C188.202 32.5378 191.253 30.3323 194.443 30.3323C194.919 30.3323 195.451 30.633 195.451 31.1092Z" fill="white"/>
<path fill-rule="evenodd" clip-rule="evenodd" d="M225.655 40.8569C225.843 40.6925 225.952 40.4679 225.956 40.2321C225.928 34.8938 221.45 29.9313 215.181 29.9313C208.912 29.9313 204.462 34.9439 204.462 40.2823C204.462 45.6207 208.94 50.6332 215.181 50.6332C218.82 50.6332 222.542 49.2046 224.417 46.2974C224.509 46.1706 224.558 46.0225 224.557 45.8713C224.56 45.7618 224.539 45.6529 224.494 45.5511C224.449 45.4494 224.381 45.357 224.294 45.2795C224.208 45.2021 224.104 45.1413 223.991 45.1008C223.877 45.0604 223.756 45.0411 223.633 45.0442C223.469 45.0503 223.31 45.0924 223.168 45.1666C223.027 45.2409 222.908 45.3452 222.822 45.4703C220.975 47.8513 218.512 48.9791 215.181 48.9791C210.312 48.9791 206.869 45.2197 206.393 41.1093H224.949C225.212 41.112 225.466 41.0213 225.655 40.8569ZM215.181 31.5855C220.051 31.5855 223.577 35.3449 223.969 39.4552H206.393C206.869 35.3449 210.312 31.5855 215.181 31.5855Z" fill="white"/>
<path d="M255.958 31.3097V49.5053C255.951 49.7227 255.852 49.9294 255.68 50.0832C255.508 50.2369 255.277 50.3261 255.035 50.3324C254.912 50.3355 254.791 50.3162 254.677 50.2758C254.564 50.2353 254.46 50.1745 254.374 50.0971C254.287 50.0196 254.22 49.9272 254.174 49.8255C254.129 49.7237 254.108 49.6148 254.111 49.5053V46.0466C252.572 48.7785 249.857 50.7585 246.387 50.7585C240.873 50.7585 237.823 46.4727 237.823 41.9363V31.2846C237.825 31.0659 237.923 30.8566 238.096 30.702C238.268 30.5473 238.502 30.4595 238.746 30.4575C238.989 30.4639 239.22 30.553 239.392 30.7068C239.563 30.8605 239.663 31.0673 239.67 31.2846V41.9363C239.67 45.5203 241.937 49.0792 246.387 49.0792C252.628 49.0792 254.111 43.8411 254.111 38.0516V31.2596C254.113 31.1255 254.151 30.9938 254.222 30.8755C254.292 30.7572 254.393 30.6558 254.517 30.5797C254.64 30.5037 254.782 30.4552 254.93 30.4383C255.079 30.4214 255.23 30.4366 255.371 30.4826C255.546 30.5558 255.695 30.6726 255.799 30.8192C255.904 30.9658 255.959 31.136 255.958 31.3097Z" fill="white"/>
<path d="M302.948 49.38V38.7283C302.948 34.217 299.842 29.9813 294.384 29.9813C290.55 29.9813 287.555 32.1618 286.016 35.2696C284.813 32.1367 281.874 29.9813 278.096 29.9813C274.765 29.9813 271.911 31.6606 270.316 34.217V31.1844C270.318 31.0664 270.292 30.9494 270.239 30.8413C270.186 30.7332 270.108 30.6366 270.01 30.5581C269.911 30.4795 269.795 30.421 269.669 30.3863C269.543 30.3517 269.411 30.3418 269.28 30.3573C269.046 30.3901 268.833 30.4965 268.68 30.6572C268.526 30.818 268.441 31.0227 268.44 31.2345V49.405C268.438 49.523 268.464 49.64 268.517 49.7481C268.57 49.8562 268.648 49.9528 268.746 50.0313C268.845 50.1099 268.961 50.1684 269.087 50.2031C269.213 50.2378 269.345 50.2477 269.476 50.2321C269.71 50.1993 269.922 50.093 270.076 49.9322C270.23 49.7714 270.315 49.5667 270.316 49.3549V41.3599C270.354 41.3087 270.34 41.188 270.327 41.0765C270.321 41.0242 270.316 40.9739 270.316 40.9338C270.12 35.6205 272.443 31.6355 278.096 31.6355C282.546 31.6355 284.813 35.1443 284.813 38.7283V49.38C284.809 49.4894 284.831 49.5984 284.876 49.7001C284.921 49.8019 284.989 49.8943 285.076 49.9717C285.162 50.0492 285.265 50.11 285.379 50.1504C285.492 50.1909 285.614 50.2102 285.736 50.2071C285.979 50.2008 286.21 50.1116 286.382 49.9578C286.553 49.8041 286.653 49.5973 286.66 49.38V41.1594C286.66 36.9989 288.787 31.6355 294.384 31.6355C298.834 31.6355 301.101 35.1443 301.101 38.7283V49.38C301.098 49.4894 301.119 49.5984 301.164 49.7001C301.209 49.8019 301.277 49.8943 301.364 49.9717C301.45 50.0492 301.553 50.11 301.667 50.1504C301.781 50.1909 301.902 50.2102 302.025 50.2071C302.267 50.2008 302.498 50.1116 302.67 49.9578C302.842 49.8041 302.941 49.5973 302.948 49.38Z" fill="white"/>
<path d="M24.2536 47.7367C24.0273 47.8056 23.8983 47.6293 23.7444 47.5482C16.1998 43.5607 8.66359 39.5704 1.13564 35.5774C1.06274 35.5444 0.987064 35.5167 0.909302 35.4943V35.4051L1.04285 35.3362C1.23246 35.2916 1.41911 35.2375 1.6019 35.1741L19.3806 27.93C20.965 27.2834 22.5493 26.6469 24.1337 26.0064H24.2469C24.2469 26.2091 24.2469 26.3895 24.2469 26.5821C24.2529 33.6343 24.2551 40.6859 24.2536 47.7367Z" fill="#D1D1D1"/>
<path d="M24.2649 26.0114H24.1517C24.1517 25.8087 24.1743 25.606 24.1743 25.3932C24.1743 17.4721 24.1743 9.55031 24.1743 1.62788C24.1483 1.4244 24.1637 1.21839 24.2196 1.01981H24.2671C25.1974 2.25013 26.0077 3.54734 26.8632 4.8182C33.6412 14.8864 40.4155 24.9533 47.186 35.0189C47.2516 35.1182 47.3037 35.2215 47.3625 35.331C47.1708 35.2943 46.9824 35.2449 46.7989 35.183C45.5563 34.6804 44.3092 34.1696 43.078 33.6568C41.1496 32.8663 39.2204 32.0772 37.2905 31.2894L27.9926 27.5173C26.7546 27.0066 25.5097 26.51 24.2649 26.0114Z" fill="#BFBFBF"/>
<path d="M24.2271 1.00933C24.1711 1.20791 24.1558 1.41393 24.1818 1.6174C24.1818 9.53849 24.1818 17.4602 24.1818 25.3827C24.1818 25.5854 24.1682 25.7881 24.1592 26.0009C22.5748 26.6414 20.9905 27.2778 19.4061 27.9244L1.62738 35.1685C1.44459 35.2319 1.25794 35.2861 1.06833 35.3307C1.58211 34.374 2.24981 33.5065 2.85866 32.5903C9.91281 22.0897 16.9722 11.5911 24.0369 1.09447C24.0836 1.03632 24.1343 0.980809 24.1886 0.928259L24.2271 1.00933Z" fill="white"/>
<path d="M24.2649 26.0114C25.5097 26.51 26.755 27.0067 27.9976 27.5094L37.2954 31.2815C39.2268 32.0679 41.156 32.857 43.0829 33.6489C44.3232 34.1576 45.5726 34.6724 46.8038 35.1751C46.9873 35.2369 47.1757 35.2864 47.3674 35.3231C47.5937 35.5764 47.2588 35.5866 47.1569 35.6413C45.2263 36.675 43.2866 37.6945 41.3514 38.7201C35.7971 41.6632 30.2443 44.6056 24.693 47.5472C24.5527 47.6202 24.4008 47.6739 24.2536 47.7367C24.2536 40.6872 24.2539 33.638 24.2539 26.5872C24.2562 26.3946 24.2626 26.2039 24.2649 26.0114Z" fill="#797979"/>
<path d="M24.1741 51.7412L38.7162 44.0654C41.4926 42.5979 44.2675 41.1291 47.0409 39.6589L47.2921 39.5353C47.317 39.738 47.1608 39.8454 47.0658 39.963C40.7284 47.9638 34.3909 55.9619 28.0535 63.9573C26.8539 65.4734 25.6566 66.9976 24.4457 68.5016C24.3823 68.5806 24.285 68.9515 24.0904 68.5583C24.2443 68.4408 24.1764 68.2827 24.1764 68.1529C24.1779 62.6803 24.1771 57.2098 24.1741 51.7412Z" fill="#BFBFBF"/>
<path d="M24.1729 51.7422C24.1729 57.2108 24.1729 62.678 24.1729 68.1438C24.1729 68.2837 24.2408 68.4418 24.0869 68.5492C23.7632 68.3749 23.6229 68.0627 23.4078 67.8053C16.0595 58.5357 8.71485 49.2647 1.374 39.9924C1.28121 39.8748 1.19519 39.7491 1.10013 39.6194C1.29025 39.5201 1.39211 39.6559 1.50302 39.7147C8.93439 43.6441 16.3643 47.577 23.7926 51.5132C23.9307 51.5902 24.0484 51.6693 24.1729 51.7422Z" fill="white"/>
<path d="M24.2287 1.00922L24.1744 0.934228C24.274 0.877475 24.2604 0.960577 24.2763 1.00314L24.2287 1.00922Z" fill="white"/>
</svg>
