<svg width="339" height="53" viewBox="0 0 339 53" fill="none" xmlns="http://www.w3.org/2000/svg">
<g clip-path="url(#clip0_118_1284)">
<path d="M65.4134 40.7192C64.6254 40.7192 64.0683 40.556 63.7422 40.2302C63.4433 39.904 63.2938 39.3877 63.2938 38.6812V15.0815C63.2938 14.3747 63.4568 13.8584 63.7829 13.5325C64.109 13.1791 64.6524 13.0024 65.4134 13.0024H75.3995C79.2037 13.0024 82.0025 13.8041 83.7961 15.4073C85.5895 17.0105 86.4862 19.4017 86.4862 22.5809C86.4862 25.7331 85.5895 28.1108 83.7961 29.714C82.0297 31.2902 79.2309 32.0782 75.3995 32.0782H71.5273V38.6812C71.5273 39.3877 71.3643 39.904 71.0382 40.2302C70.7121 40.556 70.155 40.7192 69.367 40.7192H65.4134ZM74.7474 26.1679C75.8616 26.1679 76.7175 25.869 77.3153 25.2712C77.9401 24.6734 78.2527 23.7767 78.2527 22.5812C78.2527 21.3583 77.9401 20.4479 77.3153 19.8501C76.7175 19.2523 75.8616 18.9534 74.7474 18.9534H71.5273V26.1679H74.7474ZM96.112 41.3305C93.5579 41.3305 91.5064 40.5153 89.9574 38.8851C88.4356 37.2274 87.6749 34.9042 87.6749 31.915C87.6749 29.6325 88.1912 27.6352 89.2236 25.9233C90.2835 24.2113 91.7645 22.8935 93.6666 21.9696C95.596 21.0187 97.8105 20.5431 100.31 20.5431C102.376 20.5431 104.196 20.774 105.772 21.2361C107.375 21.6707 108.843 22.3092 110.174 23.1517V39.4557C110.174 39.972 110.079 40.3116 109.889 40.4746C109.699 40.6378 109.318 40.7192 108.748 40.7192H104.59C104.291 40.7192 104.06 40.6785 103.897 40.5968C103.734 40.4883 103.599 40.3251 103.49 40.1077L102.96 38.8851C102.172 39.7273 101.221 40.3389 100.107 40.7192C99.0198 41.1269 97.6883 41.3305 96.112 41.3305ZM99.1693 35.7872C100.229 35.7872 101.058 35.529 101.655 35.0129C102.253 34.4966 102.552 33.7629 102.552 32.8117V26.4533C102.036 26.2087 101.384 26.0865 100.596 26.0865C99.1555 26.0865 98.0007 26.589 97.1312 27.5944C96.2887 28.5999 95.8676 30.0129 95.8676 31.8335C95.8676 34.4694 96.968 35.7872 99.1693 35.7872ZM115.847 40.7192C115.058 40.7192 114.501 40.556 114.176 40.2302C113.849 39.904 113.686 39.3877 113.686 38.6812V22.418C113.686 21.9289 113.768 21.6027 113.931 21.4398C114.121 21.2493 114.501 21.1544 115.072 21.1544H119.271C119.596 21.1544 119.841 21.2089 120.004 21.3176C120.194 21.3991 120.303 21.562 120.33 21.8067L120.534 23.0295C121.295 22.2685 122.287 21.6707 123.509 21.2361C124.759 20.774 126.145 20.5431 127.667 20.5431C129.868 20.5431 131.648 21.1681 133.006 22.418C134.365 23.6408 135.044 25.4614 135.044 27.8799V38.6812C135.044 39.3877 134.881 39.904 134.555 40.2302C134.256 40.556 133.713 40.7192 132.925 40.7192H128.971C128.183 40.7192 127.613 40.556 127.259 40.2302C126.933 39.904 126.77 39.3877 126.77 38.6812V28.4097C126.77 27.5944 126.594 27.0104 126.24 26.657C125.887 26.3039 125.33 26.1272 124.569 26.1272C123.754 26.1272 123.102 26.3446 122.613 26.7792C122.151 27.2141 121.92 27.8119 121.92 28.5729V38.6812C121.92 39.3877 121.757 39.904 121.431 40.2302C121.132 40.556 120.588 40.7192 119.8 40.7192H115.847ZM149.452 41.3305C145.648 41.3305 142.713 40.4473 140.648 38.6812C138.583 36.915 137.55 34.3472 137.55 30.9775C137.55 28.9125 138.025 27.0919 138.976 25.5159C139.928 23.9397 141.3 22.7169 143.093 21.8474C144.914 20.978 147.061 20.5431 149.533 20.5431C151.408 20.5431 152.984 20.7198 154.261 21.0729C155.566 21.4263 156.721 21.9696 157.726 22.7034C158.025 22.8938 158.174 23.1382 158.174 23.4371C158.174 23.6545 158.066 23.9397 157.848 24.2931L156.177 27.1868C155.987 27.5675 155.756 27.7576 155.484 27.7576C155.321 27.7576 155.063 27.6489 154.71 27.4315C153.976 26.9697 153.283 26.63 152.631 26.4126C152.006 26.1952 151.218 26.0865 150.267 26.0865C148.908 26.0865 147.808 26.5213 146.965 27.3908C146.15 28.2602 145.743 29.4558 145.743 30.9775C145.743 32.5265 146.164 33.7221 147.006 34.5643C147.849 35.3795 149.004 35.7872 150.471 35.7872C151.34 35.7872 152.128 35.665 152.835 35.4203C153.541 35.1759 154.261 34.8362 154.995 34.4014C155.376 34.184 155.647 34.0752 155.81 34.0752C156.055 34.0752 156.272 34.2654 156.462 34.6461L158.297 37.7845C158.433 38.0561 158.501 38.2736 158.501 38.4365C158.501 38.6812 158.337 38.9121 158.011 39.1295C156.87 39.8633 155.62 40.4066 154.261 40.76C152.93 41.1403 151.327 41.3305 149.452 41.3305ZM168.835 41.3305C166.281 41.3305 164.229 40.5153 162.68 38.8851C161.159 37.2274 160.398 34.9042 160.398 31.915C160.398 29.6325 160.914 27.6352 161.947 25.9233C163.006 24.2113 164.487 22.8935 166.389 21.9696C168.319 21.0187 170.533 20.5431 173.033 20.5431C175.098 20.5431 176.919 20.774 178.495 21.2361C180.098 21.6707 181.566 22.3092 182.897 23.1517V39.4557C182.897 39.972 182.802 40.3116 182.612 40.4746C182.422 40.6378 182.041 40.7192 181.47 40.7192H177.313C177.014 40.7192 176.783 40.6785 176.62 40.5968C176.457 40.4883 176.321 40.3251 176.212 40.1077L175.683 38.8851C174.895 39.7273 173.943 40.3389 172.829 40.7192C171.743 41.1269 170.411 41.3305 168.835 41.3305ZM171.892 35.7872C172.952 35.7872 173.781 35.529 174.378 35.0129C174.976 34.4966 175.275 33.7629 175.275 32.8117V26.4533C174.759 26.2087 174.107 26.0865 173.318 26.0865C171.878 26.0865 170.724 26.589 169.854 27.5944C169.012 28.5999 168.59 30.0129 168.59 31.8335C168.59 34.4694 169.691 35.7872 171.892 35.7872ZM208.501 39.1703C208.691 39.3877 208.786 39.6324 208.786 39.904C208.786 40.1484 208.705 40.3524 208.542 40.5153C208.379 40.6513 208.161 40.7192 207.89 40.7192H201.572C201.191 40.7192 200.906 40.692 200.716 40.6378C200.553 40.556 200.376 40.4066 200.186 40.1894L194.643 32.6487V38.6812C194.643 39.3877 194.48 39.904 194.154 40.2302C193.827 40.556 193.27 40.7192 192.482 40.7192H188.529C187.741 40.7192 187.184 40.556 186.857 40.2302C186.559 39.904 186.409 39.3877 186.409 38.6812V15.0815C186.409 14.3747 186.572 13.8584 186.898 13.5325C187.224 13.1791 187.768 13.0024 188.529 13.0024H192.482C193.27 13.0024 193.827 13.1791 194.154 13.5325C194.48 13.8584 194.643 14.3747 194.643 15.0812V28.7358L200.023 21.7252C200.186 21.5078 200.363 21.3583 200.553 21.2769C200.743 21.1951 201.028 21.1544 201.409 21.1544H207.727C207.998 21.1544 208.202 21.2361 208.338 21.3991C208.501 21.535 208.583 21.7252 208.583 21.9696C208.583 22.2415 208.487 22.4859 208.297 22.7034L201.327 30.6924L208.501 39.1703ZM221.736 41.3305C219.453 41.3305 217.415 40.9502 215.622 40.1894C213.856 39.4284 212.456 38.2871 211.423 36.7656C210.391 35.2439 209.875 33.3825 209.875 31.1815C209.875 27.7304 210.853 25.0945 212.81 23.2739C214.766 21.4533 217.578 20.5431 221.247 20.5431C224.834 20.5431 227.551 21.4398 229.399 23.2332C231.274 24.9996 232.211 27.4587 232.211 30.6107C232.211 31.9695 231.613 32.6487 230.418 32.6487H217.619C217.619 33.8171 218.054 34.714 218.923 35.3388C219.82 35.9639 221.165 36.2762 222.959 36.2762C224.073 36.2762 224.997 36.1813 225.73 35.9911C226.491 35.7737 227.252 35.4613 228.013 35.0537C228.339 34.9177 228.556 34.8497 228.665 34.8497C228.91 34.8497 229.113 35.0129 229.276 35.3388L230.662 37.9474C230.798 38.2193 230.866 38.423 230.866 38.559C230.866 38.8034 230.703 39.0346 230.377 39.2517C229.263 39.9855 227.999 40.5153 226.586 40.8414C225.173 41.1676 223.556 41.3305 221.736 41.3305ZM224.874 28.6136C224.874 27.581 224.576 26.7792 223.978 26.2087C223.38 25.6381 222.483 25.3527 221.287 25.3527C220.092 25.3527 219.182 25.6516 218.557 26.2494C217.932 26.8202 217.619 27.6082 217.619 28.6136H224.874ZM246.182 41.3305C243.899 41.3305 241.739 41.0996 239.701 40.6378C237.663 40.1484 236.019 39.4692 234.769 38.5997C234.307 38.3008 234.076 37.9882 234.076 37.6623C234.076 37.4449 234.157 37.2139 234.32 36.9693L236.318 33.7901C236.535 33.464 236.752 33.301 236.97 33.301C237.106 33.301 237.337 33.396 237.663 33.5862C238.668 34.157 239.809 34.6188 241.087 34.9719C242.364 35.3253 243.627 35.502 244.877 35.502C246.154 35.502 247.092 35.3118 247.69 34.9312C248.315 34.5508 248.627 33.9395 248.627 33.0971C248.627 32.2819 248.287 31.6433 247.608 31.1815C246.956 30.7194 245.719 30.1353 243.899 29.4288C241.155 28.3962 239.008 27.2413 237.459 25.964C235.937 24.66 235.176 22.8935 235.176 20.6653C235.176 17.9752 236.141 15.9237 238.07 14.5106C240 13.0974 242.567 12.3911 245.774 12.3911C248.002 12.3911 249.904 12.5948 251.48 13.0024C253.083 13.383 254.442 13.9808 255.556 14.7958C256.018 15.1492 256.249 15.4753 256.249 15.7742C256.249 15.9644 256.168 16.1816 256.005 16.4262L254.007 19.6057C253.763 19.9315 253.545 20.0947 253.355 20.0947C253.219 20.0947 252.988 19.9995 252.662 19.8093C251.086 18.7767 249.211 18.2606 247.038 18.2606C245.869 18.2606 244.972 18.4508 244.347 18.8312C243.722 19.2115 243.41 19.8366 243.41 20.706C243.41 21.3038 243.573 21.7932 243.899 22.1735C244.225 22.5539 244.66 22.8935 245.203 23.1924C245.774 23.4641 246.643 23.8175 247.812 24.2523L248.586 24.5375C250.597 25.3257 252.173 26.0865 253.314 26.8202C254.483 27.5265 255.366 28.4097 255.964 29.4696C256.562 30.502 256.86 31.8063 256.86 33.3825C256.86 35.8009 255.95 37.7303 254.13 39.1703C252.336 40.6105 249.687 41.3305 246.182 41.3305ZM265.521 40.7192C265.114 40.7192 264.801 40.6513 264.583 40.5153C264.366 40.3796 264.203 40.1077 264.094 39.7001L258.836 22.0918C258.782 21.9289 258.755 21.8067 258.755 21.7252C258.755 21.3448 259.026 21.1544 259.57 21.1544H264.949C265.304 21.1544 265.561 21.2224 265.725 21.3581C265.889 21.467 265.997 21.657 266.05 21.9289L268.251 31.1815L271.023 23.7223C271.16 23.3964 271.295 23.179 271.43 23.0702C271.594 22.9343 271.866 22.8666 272.247 22.8666H274.813C275.194 22.8666 275.453 22.9343 275.588 23.0702C275.752 23.1787 275.9 23.3964 276.038 23.7223L278.768 31.1815L281.011 21.9289C281.09 21.6572 281.198 21.467 281.336 21.3583C281.471 21.2224 281.717 21.1546 282.069 21.1546H287.491C288.033 21.1546 288.306 21.3448 288.306 21.7252C288.306 21.8067 288.279 21.9289 288.224 22.0918L282.926 39.7001C282.817 40.1077 282.653 40.3796 282.436 40.5153C282.246 40.6513 281.947 40.7192 281.54 40.7192H277.546C277.165 40.7192 276.879 40.6513 276.689 40.5153C276.498 40.3524 276.337 40.0807 276.199 39.7001L273.509 32.3226L270.819 39.7001C270.711 40.0807 270.547 40.3524 270.33 40.5153C270.139 40.6513 269.856 40.7192 269.475 40.7192H265.521ZM298.638 41.3305C296.083 41.3305 294.033 40.5153 292.482 38.8851C290.962 37.2274 290.2 34.9042 290.2 31.915C290.2 29.6325 290.716 27.6352 291.75 25.9233C292.808 24.2113 294.289 22.8935 296.191 21.9696C298.122 21.0187 300.336 20.5431 302.835 20.5431C304.901 20.5431 306.721 20.774 308.298 21.2361C309.901 21.6707 311.369 22.3092 312.699 23.1517V39.4557C312.699 39.972 312.604 40.3116 312.413 40.4746C312.223 40.6378 311.845 40.7192 311.273 40.7192H307.115C306.816 40.7192 306.586 40.6785 306.422 40.5968C306.258 40.4883 306.123 40.3251 306.015 40.1077L305.486 38.8851C304.698 39.7273 303.745 40.3389 302.632 40.7192C301.545 41.1269 300.214 41.3305 298.638 41.3305ZM301.695 35.7872C302.753 35.7872 303.584 35.529 304.182 35.0129C304.78 34.4966 305.079 33.7629 305.079 32.8117V26.4533C304.56 26.2087 303.909 26.0865 303.121 26.0865C301.68 26.0865 300.526 26.589 299.656 27.5944C298.815 28.5999 298.392 30.0129 298.392 31.8335C298.392 34.4694 299.495 35.7872 301.695 35.7872ZM318.331 48.9527C317.542 48.9527 316.987 48.7898 316.659 48.4636C316.36 48.1375 316.212 47.6211 316.212 46.9146V23.5593C317.434 22.6899 318.971 21.9696 320.817 21.3991C322.666 20.8285 324.594 20.5431 326.604 20.5431C334.812 20.5431 338.915 24.0214 338.915 30.9775C338.915 34.1297 338.045 36.6431 336.307 38.5182C334.566 40.3931 332.109 41.3305 328.93 41.3305C328.033 41.3305 327.163 41.2218 326.319 41.0044C325.504 40.7872 324.824 40.4883 324.282 40.1077V46.9146C324.282 47.6211 324.118 48.1375 323.793 48.4636C323.467 48.7898 322.909 48.9527 322.121 48.9527H318.331ZM327.176 35.8279C328.345 35.8279 329.215 35.3933 329.784 34.5236C330.382 33.6269 330.681 32.4313 330.681 30.9368C330.681 29.1707 330.329 27.9341 329.623 27.2276C328.943 26.4941 327.882 26.1272 326.443 26.1272C325.517 26.1272 324.785 26.2494 324.242 26.4941V32.9749C324.242 33.8988 324.499 34.6053 325.015 35.0944C325.533 35.5835 326.253 35.8279 327.176 35.8279Z" fill="black"/>
<g clip-path="url(#clip1_118_1284)">
<path fill-rule="evenodd" clip-rule="evenodd" d="M23.8349 50.1833C16.7027 50.178 10.9573 48.4847 6.94309 45.4432C2.88048 42.3652 0.725586 37.9971 0.725586 33.0543C0.725586 28.2919 2.87588 24.8579 5.30914 22.5365C7.21589 20.7175 9.32 19.5525 10.7851 18.8822C10.4538 17.8761 10.0405 16.5592 9.67068 15.1987C9.17585 13.3784 8.69046 11.2425 8.69046 9.67748C8.69046 7.82507 9.09846 5.96445 10.1991 4.51888C11.3622 2.99161 13.1127 2.17334 15.2187 2.17334C16.8648 2.17334 18.2622 2.77743 19.3563 3.81955C20.4021 4.81549 21.0981 6.1385 21.5787 7.51759C22.423 9.94073 22.7517 12.9851 22.8441 16.0235H24.8613C24.9537 12.9851 25.2824 9.94073 26.1269 7.51759C26.6075 6.1385 27.3035 4.81573 28.3493 3.81955C29.4432 2.77767 30.8406 2.17334 32.4866 2.17334C34.5927 2.17334 36.3434 2.99161 37.5063 4.51888C38.6069 5.96445 39.0152 7.82507 39.0152 9.67748C39.0152 11.2425 38.5298 13.3784 38.0347 15.1987C37.6649 16.5592 37.2516 17.8761 36.9202 18.8822C38.3854 19.5525 40.4897 20.7175 42.3965 22.5367C44.8295 24.8579 46.98 28.2919 46.98 33.0543C46.98 37.9971 44.8249 42.3652 40.7625 45.4432C36.7483 48.4847 31.0029 50.178 23.8707 50.1833H23.8349Z" fill="black"/>
<path d="M15.2157 3.93506C12.1311 3.93506 10.711 6.2354 10.711 9.41637C10.711 11.9449 12.3609 17.0087 13.0378 18.9801C13.1902 19.4237 12.9507 19.9093 12.5144 20.0812C10.0423 21.0556 2.74609 24.6231 2.74609 32.7935C2.74609 41.3999 10.1608 47.8893 23.8333 47.8994H23.866C37.5388 47.8893 44.9529 41.3999 44.9529 32.7935C44.9529 24.6231 37.657 21.0556 35.1848 20.0812C34.7485 19.9095 34.5091 19.4237 34.6615 18.9801C35.3384 17.009 36.9883 11.9449 36.9883 9.41637C36.9883 6.23516 35.5684 3.93506 32.4836 3.93506C28.0432 3.93506 26.9365 10.2218 26.8574 16.9693C26.8521 17.4197 26.4879 17.7852 26.0371 17.7852H21.662C21.2114 17.7852 20.8469 17.4197 20.8419 16.9693C20.763 10.2218 19.6561 3.93506 15.2157 3.93506Z" fill="#555555"/>
<path d="M23.8657 45.1428C13.8197 45.1428 2.76351 39.7679 2.74609 32.8101V32.8425C2.74609 41.4559 10.1721 47.9486 23.8657 47.9486C37.5593 47.9486 44.9853 41.4559 44.9853 32.8425V32.8101C44.9679 39.7679 33.9117 45.1428 23.8657 45.1428Z" fill="#858585"/>
<path d="M18.2715 30.6727C18.2715 33.0219 17.1607 34.2453 15.7906 34.2453C14.4205 34.2453 13.3097 33.0219 13.3097 30.6727C13.3097 28.3235 14.4205 27.1001 15.7906 27.1001C17.1607 27.1001 18.2715 28.3235 18.2715 30.6727ZM34.3967 30.6727C34.3967 33.0219 33.2861 34.2453 31.916 34.2453C30.5457 34.2453 29.4351 33.0219 29.4351 30.6727C29.4351 28.3235 30.5457 27.1001 31.916 27.1001C33.2861 27.1001 34.3967 28.3235 34.3967 30.6727Z" fill="#272727"/>
</g>
</g>
<defs>
<clipPath id="clip0_118_1284">
<rect width="339" height="52.6377" fill="white" transform="translate(-0.000976562 0.223633)"/>
</clipPath>
<clipPath id="clip1_118_1284">
<rect width="47.8945" height="48.105" fill="white" transform="translate(-0.00500488 2.17334)"/>
</clipPath>
</defs>
</svg>
