<svg width="290" height="58" viewBox="0 0 290 58" fill="none" xmlns="http://www.w3.org/2000/svg">
<path d="M156.223 3.13623V38.3969H163.086V3.13623H156.223Z" fill="white"/>
<path fill-rule="evenodd" clip-rule="evenodd" d="M90.3912 48.4708V12.9086H96.2997L96.8624 15.7792H97.1437C98.8318 13.813 101.701 12.4047 105.695 12.4047C113.005 12.4047 118.858 17.7453 118.858 25.6505C118.858 33.5557 113.01 38.8963 105.695 38.8963C101.756 38.8963 99.0027 37.4341 97.5406 35.7739H97.2593V48.4663H90.3963L90.3912 48.4708ZM111.99 25.655C111.99 21.0208 108.669 18.1008 104.62 18.1008C100.57 18.1008 97.2492 21.0208 97.2492 25.655C97.2492 30.2893 100.57 33.2093 104.62 33.2093C108.669 33.2093 111.99 30.2893 111.99 25.655Z" fill="white"/>
<path fill-rule="evenodd" clip-rule="evenodd" d="M122.34 25.6505C122.34 17.9433 128.525 12.4047 136.794 12.4047C145.064 12.4047 151.249 17.9433 151.249 25.6505C151.249 33.3578 145.064 38.8963 136.794 38.8963C128.525 38.8963 122.34 33.3038 122.34 25.6505ZM144.331 25.6505C144.331 21.1153 140.955 18.0963 136.794 18.0963C132.634 18.0963 129.203 21.1198 129.203 25.6505C129.203 30.1813 132.634 33.1553 136.794 33.1553C140.955 33.1553 144.331 30.1858 144.331 25.6505Z" fill="white"/>
<path d="M188.564 12.9086H195.874L183.499 43.886C182.263 46.959 180.575 48.4708 176.129 48.4708H169.492V42.7792H175.119C176.134 42.7792 176.691 42.3248 177.033 41.5689L177.706 39.9087L166.121 12.9086H173.431L180.801 30.5907H181.927L188.564 12.9086Z" fill="white"/>
<path fill-rule="evenodd" clip-rule="evenodd" d="M204.159 39.6567H197.185C197.356 43.3326 201.069 48.9747 210.685 48.9747C219.291 48.9747 224.356 44.4889 224.356 37.74V12.9086H218.392L217.829 15.6802H217.548C215.805 13.7635 213.046 12.4047 209.278 12.4047C201.968 12.4047 196.341 17.3899 196.341 24.6427C196.341 31.8955 201.968 36.9347 209.278 36.9347C212.881 36.9347 215.694 35.6254 217.211 34.1631H217.493V37.74C217.493 41.2675 214.79 43.5846 210.685 43.5846C206.294 43.5846 204.44 41.3169 204.159 39.6567ZM210.348 17.8983C214.343 17.8983 217.493 20.6698 217.493 24.6472C217.493 28.674 214.287 31.4456 210.348 31.4456C206.409 31.4456 203.259 28.6245 203.259 24.6472C203.259 20.6698 206.354 17.8983 210.348 17.8983Z" fill="white"/>
<path fill-rule="evenodd" clip-rule="evenodd" d="M229.124 25.6505C229.124 17.9433 235.308 12.4047 243.578 12.4047C251.848 12.4047 258.033 17.9433 258.033 25.6505C258.033 33.3578 251.848 38.8963 243.578 38.8963C235.308 38.8963 229.124 33.3038 229.124 25.6505ZM251.114 25.6505C251.114 21.1153 247.738 18.0963 243.578 18.0963C239.418 18.0963 235.987 21.1198 235.987 25.6505C235.987 30.1813 239.418 33.1553 243.578 33.1553C247.738 33.1553 251.114 30.1858 251.114 25.6505Z" fill="white"/>
<path d="M262.811 38.3924V38.3969L262.806 38.3924H262.811Z" fill="white"/>
<path d="M262.811 38.3924H269.669V23.8868C269.669 20.7148 272.482 18.2447 276.024 18.2447C279.566 18.2447 282.154 20.6114 282.154 23.8868V38.3924H289.017V23.0814C289.017 16.634 284.294 12.4047 277.768 12.4047C273.497 12.4047 270.684 14.1684 269.558 15.3247H269.277L268.714 12.9086H262.811V38.3924Z" fill="white"/>
<path d="M53.4584 40.5386L70.3296 31.8145C71.2239 31.3511 71.7765 30.4917 71.7765 29.5694V12.1212C71.7765 11.1989 71.2239 10.3395 70.3296 9.8761L53.4584 1.15203C52.5641 0.688611 51.4538 0.693111 50.5645 1.15203L33.6933 9.8761C32.799 10.3395 32.2463 11.1989 32.2463 12.1212V43.3011L20.4144 49.4156L8.58246 43.3011V31.0676L20.4144 24.9531L28.2169 28.989V20.7823L21.8614 17.4933C21.4243 17.2684 20.9218 17.1469 20.4144 17.1469C19.907 17.1469 19.4045 17.2684 18.9674 17.4933L2.09625 26.2174C1.20195 26.6808 0.649292 27.5402 0.649292 28.4625V45.9107C0.649292 46.833 1.20195 47.6924 2.09625 48.1558L18.9674 56.8799C19.8617 57.3388 20.9671 57.3388 21.8614 56.8799L38.7325 48.1558C39.6268 47.6924 40.1795 46.833 40.1795 45.9107V14.7308L40.3905 14.6228L52.0064 8.61631L63.8383 14.7308V26.9643L52.0064 33.0788L44.2139 29.0519V37.2586L50.5594 40.5386C51.4538 40.9975 52.5641 40.9975 53.4534 40.5386H53.4584Z" fill="white"/>
</svg>
