<svg width="286" height="47" viewBox="0 0 286 47" fill="none" xmlns="http://www.w3.org/2000/svg">
<path d="M48.0591 36.653L40.24 45.6626C40.0708 45.8583 39.866 46.0145 39.6383 46.1213C39.4105 46.2282 39.1647 46.2836 38.9162 46.2838H1.8502C1.67342 46.2837 1.50049 46.2282 1.35261 46.1241C1.20473 46.02 1.08831 45.8718 1.01759 45.6977C0.946882 45.5236 0.924952 45.3311 0.95449 45.1438C0.984028 44.9565 1.06375 44.7825 1.18389 44.6431L8.99422 35.6335C9.16336 35.4378 9.36815 35.2816 9.59593 35.1747C9.82366 35.0679 10.0695 35.0126 10.318 35.0123H47.384C47.5623 35.0083 47.7379 35.0612 47.8883 35.1642C48.0388 35.2671 48.158 35.4157 48.2299 35.591C48.3022 35.7664 48.3243 35.9608 48.2939 36.1498C48.2634 36.3388 48.1818 36.5138 48.0591 36.653ZM40.24 18.5057C40.0702 18.3109 39.8652 18.1553 39.6376 18.0485C39.41 17.9417 39.1645 17.8859 38.9162 17.8845H1.8502C1.67342 17.8846 1.50049 17.9401 1.35261 18.0442C1.20473 18.1483 1.08831 18.2965 1.01759 18.4706C0.946882 18.6447 0.924952 18.8372 0.95449 19.0245C0.984028 19.2118 1.06375 19.3859 1.18389 19.5252L8.99422 28.5396C9.16398 28.7344 9.36894 28.8899 9.59655 28.9968C9.82415 29.1036 10.0697 29.1594 10.318 29.1607H47.384C47.5605 29.1597 47.7326 29.1036 47.88 28.9991C48.0273 28.8947 48.143 28.7464 48.2131 28.5725C48.2833 28.3986 48.3049 28.2064 48.2749 28.0196C48.2453 27.8327 48.1659 27.6591 48.0459 27.5201L40.24 18.5057ZM1.8502 12.0329H38.9162C39.1647 12.0327 39.4105 11.9774 39.6383 11.8705C39.866 11.7637 40.0708 11.6075 40.24 11.4118L48.0591 2.40214C48.1818 2.26298 48.2634 2.0879 48.2939 1.89894C48.3243 1.70998 48.3022 1.51557 48.2299 1.34019C48.158 1.16481 48.0388 1.01628 47.8883 0.913296C47.7379 0.810314 47.5623 0.757478 47.384 0.761438H10.318C10.0695 0.761719 9.82366 0.817022 9.59593 0.923898C9.36815 1.03077 9.16336 1.18693 8.99422 1.38263L1.18389 10.3922C1.06375 10.5316 0.984028 10.7056 0.95449 10.8929C0.924952 11.0802 0.946882 11.2727 1.01759 11.4468C1.08831 11.621 1.20473 11.7692 1.35261 11.8732C1.50049 11.9774 1.67342 12.0329 1.8502 12.0329Z" fill="white"/>
<path fill-rule="evenodd" clip-rule="evenodd" d="M201.385 5.97757H181.97C181.114 5.97259 180.266 6.1488 179.473 6.49615C178.681 6.84354 177.959 7.35524 177.351 8.00208C176.742 8.64893 176.258 9.41826 175.927 10.2661C175.595 11.1139 175.421 12.0237 175.417 12.9434V41.0677H182.036V29.5401H201.363V41.0677H207.982V12.9434C207.978 12.0197 207.803 11.106 207.468 10.255C207.133 9.40408 206.646 8.63266 206.033 7.98515C205.42 7.33769 204.693 6.82699 203.896 6.48244C203.098 6.13789 202.245 5.96633 201.385 5.97757ZM201.337 22.5221H182.009V12.9956H201.337V22.5221Z" fill="white"/>
<path fill-rule="evenodd" clip-rule="evenodd" d="M111.761 5.9775H131.666C132.522 5.97253 133.37 6.14874 134.163 6.49608C134.955 6.84347 135.676 7.35517 136.285 8.00202C136.893 8.64886 137.377 9.41819 137.709 10.266C138.041 11.1139 138.214 12.0236 138.219 12.9434V34.1018C138.214 35.0215 138.041 35.9313 137.709 36.7792C137.377 37.627 136.893 38.3963 136.285 39.0432C135.676 39.69 134.955 40.2017 134.163 40.5491C133.37 40.8965 132.522 41.0727 131.666 41.0677H111.761C110.903 41.0752 110.053 40.9008 109.258 40.5546C108.464 40.2083 107.741 39.697 107.13 39.0499C106.52 38.4028 106.034 37.6327 105.702 36.7836C105.368 35.9345 105.195 35.0232 105.19 34.1018V12.9434C105.195 12.022 105.368 11.1107 105.702 10.2616C106.034 9.4125 106.52 8.64237 107.13 7.99528C107.741 7.34816 108.464 6.83688 109.258 6.49063C110.053 6.14437 110.903 5.97001 111.761 5.9775ZM111.809 34.0496H131.617L131.608 12.9955H111.809V34.0496Z" fill="white"/>
<path d="M73.4193 20.0134H93.2496C94.1061 20.0085 94.9555 20.185 95.7485 20.533C96.5414 20.8809 97.2629 21.3935 97.8718 22.0413C98.4803 22.6892 98.964 23.4596 99.2954 24.3085C99.6267 25.1575 99.7988 26.0683 99.8024 26.9888V34.1017C99.7979 35.0214 99.6245 35.9312 99.2927 36.7791C98.9609 37.6269 98.4768 38.3962 97.8683 39.043C97.2603 39.6899 96.5388 40.2016 95.7463 40.549C94.9538 40.8963 94.1057 41.0726 93.2496 41.0675H67.2726V34.0495H93.2099V27.0315H73.3532C72.4967 27.0365 71.6472 26.86 70.8543 26.512C70.0613 26.164 69.3399 25.6515 68.7309 25.0036C68.1224 24.3558 67.6388 23.5853 67.3074 22.7364C66.976 21.8875 66.8039 20.9767 66.8004 20.0561V12.9433C66.8048 12.0235 66.9782 11.1137 67.3101 10.2659C67.6419 9.41806 68.126 8.64873 68.7345 8.00189C69.3425 7.35504 70.064 6.84334 70.8565 6.49595C71.649 6.14861 72.4971 5.9724 73.3532 5.97738H98.4036V12.9954H73.4193V20.0134Z" fill="white"/>
<path fill-rule="evenodd" clip-rule="evenodd" d="M259.256 5.97738H278.672C279.528 5.9724 280.376 6.14861 281.169 6.49595C281.961 6.84334 282.682 7.35504 283.291 8.00189C283.899 8.64873 284.383 9.41806 284.715 10.2659C285.047 11.1137 285.22 12.0235 285.225 12.9433V41.0675H278.606V29.54H259.323V41.0675H252.704V12.9433C252.708 12.0235 252.881 11.1137 253.213 10.2659C253.545 9.41806 254.029 8.64873 254.638 8.00189C255.246 7.35504 255.967 6.84334 256.76 6.49595C257.552 6.14861 258.4 5.9724 259.256 5.97738ZM259.278 22.5219H278.606V12.9954H259.278V22.5219Z" fill="white"/>
<path d="M240.216 34.0495H237.569L228.104 8.91732C227.779 8.05026 227.221 7.30716 226.501 6.78336C225.781 6.25952 224.931 5.97885 224.062 5.97733H218.188C217.617 5.9742 217.052 6.09195 216.524 6.32378C215.995 6.55566 215.514 6.89708 215.108 7.32859C214.703 7.76015 214.38 8.27327 214.159 8.8388C213.938 9.40427 213.823 10.011 213.82 10.6244V41.0675H220.439V12.9954H223.086L232.547 38.1275C232.877 38.9929 233.439 39.733 234.163 40.2533C234.885 40.7736 235.737 41.0504 236.607 41.0485H242.48C243.051 41.0517 243.617 40.934 244.145 40.7021C244.673 40.4703 245.154 40.1288 245.56 39.6973C245.965 39.2658 246.288 38.7526 246.509 38.1871C246.73 37.6216 246.845 37.0149 246.848 36.4015V5.97733H240.216V34.0495Z" fill="white"/>
<path d="M144.066 5.9775H150.685V34.0496H170.497V41.0677H150.64C149.783 41.0758 148.932 40.9019 148.137 40.5559C147.342 40.21 146.618 39.6988 146.007 39.0516C145.396 38.4044 144.911 37.6341 144.577 36.7847C144.244 35.9353 144.07 35.0236 144.066 34.1018V5.9775Z" fill="white"/>
</svg>
