<svg width="306" height="68" viewBox="0 0 306 68" fill="none" xmlns="http://www.w3.org/2000/svg">
<path fill-rule="evenodd" clip-rule="evenodd" d="M1.19607 1.72055C8.82184 11.0693 17.1947 22.8141 18.549 24.7138C18.6212 24.8151 18.6735 24.8884 18.7046 24.9318C19.4265 25.9397 20.0225 26.6889 20.4751 27.2579C21.4798 28.521 21.778 28.8958 21.1785 29.2401C20.6949 29.5177 20.196 29.6093 19.6983 29.6093C19.1352 29.6093 18.5009 29.3354 18.039 28.8929C17.7126 28.5801 15.4787 25.303 12.4368 20.5356C10.1094 16.8878 8.16156 13.8617 8.10842 13.811C7.98557 13.6939 7.98767 13.6978 12.1995 21.3098C14.8442 26.0896 16.6532 29.6218 16.6532 29.8478C16.6532 30.3074 16.529 30.5491 15.9676 31.1815C15.0318 32.2363 14.6134 33.4212 14.3115 35.8733C13.9729 38.6222 13.0209 40.5643 10.3827 43.8874C8.83831 45.833 8.58562 46.1895 8.19593 46.9737C7.70512 47.9611 7.57013 48.5141 7.51543 49.7611C7.45761 51.0795 7.57022 51.9311 7.96897 53.1914C8.31808 54.2949 8.68246 55.0238 9.614 56.4812C10.4179 57.7386 10.8808 58.6732 10.8808 59.0389C10.8808 59.3299 10.9358 59.3302 12.1815 59.0463C15.1627 58.366 17.5834 57.1703 18.9449 55.7046C19.7875 54.7973 19.9853 54.2965 19.9917 53.0534C19.996 52.2402 19.9676 52.0701 19.75 51.6023C19.3958 50.8407 18.7509 50.2079 17.3297 49.2265C15.4674 47.9405 14.672 46.9053 14.4523 45.4816C14.2721 44.3136 14.4811 43.4893 15.5114 41.3084C16.5777 39.0508 16.8419 38.0889 17.0207 35.8132C17.1361 34.3431 17.296 33.7633 17.7142 33.2981C18.1504 32.8128 18.543 32.6484 19.6223 32.4992C21.382 32.2566 22.5024 31.7967 23.4234 30.9395C24.2224 30.1958 24.5568 29.4792 24.6081 28.4005L24.647 27.5829L24.2005 27.0571C22.5836 25.1528 0.113243 0.223633 0.013738 0.223633C-0.00751902 0.223633 0.524552 0.897292 1.19607 1.72055ZM11.7885 51.2528C12.1541 50.5987 11.9598 49.7582 11.3483 49.3473C10.7705 48.9594 9.87295 49.1422 9.87295 49.6478C9.87295 49.8021 9.95741 49.9143 10.1478 50.0135C10.4684 50.1802 10.4917 50.3675 10.2395 50.7504C9.984 51.1383 10.0046 51.4792 10.2976 51.7108C10.7699 52.0844 11.4383 51.879 11.7885 51.2528ZM22.7921 15.5912C22.0707 15.4782 22.0403 15.4649 22.3797 15.4122C23.0303 15.3112 24.5664 15.4489 25.6249 15.7032C28.0961 16.2965 30.3448 17.8164 32.7451 20.5159L33.3827 21.233L34.295 21.0849C38.1382 20.461 42.0478 20.9568 45.3178 22.4827C46.2175 22.9025 47.6358 23.7381 47.8129 23.9528C47.8692 24.0212 47.9732 24.4617 48.0432 24.9318C48.2861 26.5581 48.1647 27.8046 47.6721 28.7356C47.4043 29.2423 47.3893 29.4029 47.5693 29.8365C47.7131 30.1825 48.1141 30.4385 48.5113 30.438C49.3238 30.4369 50.1983 29.11 50.6038 27.2638L50.7647 26.5304L51.0837 26.8953C52.8327 28.8971 54.2068 31.6271 54.4428 33.5703L54.5041 34.0769L54.2103 33.6164C53.704 32.8239 53.1959 32.2843 52.5446 31.8491C51.3711 31.0647 50.1299 30.7978 46.8436 30.6229C43.8754 30.4649 42.1956 30.2088 40.5299 29.6601C37.6955 28.7268 36.267 27.4837 32.9003 23.0223C31.405 21.0406 30.4808 19.9442 29.5614 19.0613C27.4724 17.0551 25.4197 16.0029 22.7921 15.5912ZM48.4823 20.0157C48.5571 18.6879 48.7355 17.812 49.0939 17.0121C49.2357 16.6955 49.3686 16.4364 49.389 16.4364C49.4097 16.4364 49.348 16.6701 49.2519 16.9557C48.9915 17.732 48.9485 18.7937 49.1282 20.029C49.3559 21.5964 49.4857 21.8226 51.1256 23.5157C51.8949 24.3098 52.7898 25.3114 53.1141 25.7414L53.704 26.5233L53.1141 25.9646C52.3929 25.2812 50.7342 23.9485 50.3678 23.758C50.122 23.6303 50.0854 23.6325 49.9341 23.7848C49.7944 23.9252 49.7649 24.1362 49.7455 25.1334C49.7153 26.6878 49.5057 27.6854 48.9994 28.683C48.7256 29.2225 48.6824 29.1073 48.9301 28.4984C49.1152 28.0437 49.1339 27.8438 49.1327 26.3391C49.1298 23.3159 48.7743 22.5891 46.6904 21.344C46.1628 21.0286 45.2927 20.5737 44.7575 20.3331C44.2226 20.0925 43.7974 19.8829 43.8127 19.8673C43.8719 19.8079 45.9043 20.4071 46.7222 20.7249C47.9389 21.1976 48.1395 21.2589 48.2874 21.2018C48.3863 21.1636 48.4343 20.8723 48.4823 20.0157ZM22.0189 17.6948C21.8228 20.0288 22.7289 23.1512 24.1933 25.1876C25.3285 26.7663 27.0883 27.993 28.3874 28.1115C29.2381 28.189 29.4937 27.92 29.1089 27.3524C28.5746 26.5642 27.9175 25.3507 27.7436 24.8311C27.6356 24.5083 27.4008 23.5549 27.2219 22.7124C26.611 19.836 26.0106 18.7159 24.6236 17.8651C24.1182 17.555 23.0389 17.1492 22.4129 17.0339L22.0796 16.9724L22.0189 17.6948ZM46.7063 40.3439C39.8624 37.5607 37.4519 35.1448 37.4519 31.0684C37.4519 30.4686 37.4726 29.9778 37.4974 29.9778C37.5225 29.9778 37.7871 30.1757 38.0857 30.4177C39.4735 31.542 41.0276 32.0222 45.3299 32.656C47.8613 33.0294 49.2859 33.3305 50.6003 33.771C54.7773 35.1702 57.3618 38.0097 57.9781 41.8776C58.1571 43.0015 58.0522 45.1089 57.7618 46.2197C57.5325 47.0971 56.8329 48.6782 56.6475 48.739C56.596 48.7558 56.5454 48.5568 56.5324 48.2858C56.4621 46.8335 55.7355 45.4196 54.5153 44.3603C53.1278 43.156 51.2636 42.1975 46.7063 40.3439ZM41.5711 40.0376C41.6671 40.3267 41.8159 40.9847 41.9015 41.5001C42.4497 44.7953 40.7373 47.4577 37.4061 48.4893C37.0534 48.5984 35.6644 48.8732 34.3192 49.0993C31.5962 49.5572 30.3809 49.8816 29.16 50.4756C28.2942 50.897 27.2459 51.5279 27.3082 51.5905C27.3282 51.6109 27.5259 51.5632 27.7472 51.4847C29.2869 50.9386 31.0004 50.6559 33.6037 50.5192C34.6369 50.4651 35.8119 50.3786 36.2152 50.3274C38.5344 50.0323 40.1419 49.3206 41.392 48.0355C42.0875 47.3203 42.5022 46.6541 42.8364 45.7147C43.0482 45.1188 43.0768 44.8974 43.0784 43.8416C43.0803 42.7658 43.0546 42.569 42.825 41.9072C42.5245 41.0397 42.1699 40.3887 41.7209 39.8796L41.3965 39.512L41.5711 40.0376ZM45.039 47.1279C44.1294 45.1534 43.9208 43.2473 44.4188 41.4696C44.4723 41.2795 44.5578 41.1239 44.6096 41.1239C44.6612 41.1239 44.8755 41.2413 45.0863 41.3844C45.5051 41.6693 46.3456 42.1492 48.5844 43.3821C51.3784 44.9206 52.9713 46.1119 54.0545 47.4733C55.0031 48.6652 55.5901 50.0228 55.8725 51.6783C56.0328 52.6161 55.939 54.8727 55.7008 55.8169C54.9497 58.7944 53.2038 61.133 50.7138 62.4979C50.349 62.6976 50.0215 62.8617 49.9859 62.8627C49.9506 62.8633 50.0835 62.5221 50.2813 62.1039C51.1189 60.3351 51.2144 58.6147 50.5812 56.7C50.1932 55.5275 49.4027 54.0968 47.8063 51.6786C45.9504 48.8674 45.4953 48.1192 45.039 47.1279ZM27.9111 53.6039C25.0328 54.0761 21.8728 55.6146 19.3331 57.7806L18.577 58.4255L19.2415 58.5304C22.7091 59.0771 23.6428 59.5621 26.0481 62.0648C27.4322 63.5047 27.8997 63.8253 29.0478 64.1213C30.734 64.5561 32.3962 63.7572 32.9664 62.2378C33.2211 61.5588 33.1871 60.4347 32.8948 59.8702C32.1997 58.526 30.1744 58.0916 29.195 59.0761C28.3793 59.8963 28.6169 61.1318 29.6315 61.3442C29.8638 61.3932 29.8572 61.3827 29.5723 61.2526C29.1283 61.0497 28.9354 60.7686 28.9329 60.3211C28.9273 59.272 30.1158 58.6831 31.2215 59.1868C32.0311 59.556 32.3526 60.0381 32.3526 60.8834C32.3526 62.185 31.2559 63.1657 29.9796 63.0055C29.2973 62.9196 28.463 62.4788 28.0156 61.9681C26.8899 60.6824 27.3284 58.6535 28.9002 57.875C30.0967 57.2826 31.6872 57.4285 32.9206 58.2442C34.3377 59.1817 34.9403 60.0384 36.1608 62.8503C36.5583 63.7658 37.0697 64.7965 37.297 65.1406C38.4533 66.8887 39.8386 67.746 41.5071 67.746C42.4275 67.746 43.1198 67.5762 43.9908 67.137C44.6379 66.8104 45.5554 66.19 45.4893 66.1235C45.4705 66.1048 45.2021 66.189 44.8927 66.3108C43.0708 67.0286 41.2187 66.9793 40.1432 66.184C39.4659 65.6834 38.9195 64.6861 38.6387 63.4389C38.5901 63.223 38.4298 62.2696 38.2822 61.32C37.9082 58.9133 37.5492 57.8315 36.7119 56.59C35.8552 55.3198 34.2082 54.2539 32.367 53.7778C31.2182 53.4808 29.1517 53.4 27.9111 53.6039ZM23.8798 34.9962C24.1284 34.0689 24.9314 33.1846 25.7575 32.9282C26.2828 32.7654 27.3686 32.8694 27.8791 33.1314C28.8684 33.6396 29.5867 34.7969 29.4308 35.6323C29.2407 36.6508 27.6053 37.4659 25.7241 37.4793C24.7632 37.4859 24.4083 37.3555 24.0414 36.8607C23.8142 36.5542 23.7282 35.562 23.8798 34.9962ZM27.6265 33.4946C28.1199 33.7989 28.2468 34.2489 27.9567 34.6652C27.7568 34.952 27.1382 35.2246 26.6861 35.2246C26.0069 35.2246 25.266 34.7374 25.266 34.2912C25.266 33.3948 26.6868 32.9149 27.6265 33.4946ZM175.087 36.0616C173.552 30.9567 176.083 26.7224 181.484 25.3618C183.032 24.9713 190.045 25.1475 191.247 25.6072C191.688 25.7756 191.88 26.4221 191.884 27.7508C191.887 28.7972 192.001 30.0681 192.138 30.5749C192.344 31.3431 192.223 31.4943 191.413 31.482C190.679 31.4705 190.236 31.0408 189.617 29.7408C188.628 27.6644 187.431 27.0039 184.641 26.9961C181.079 26.9859 178.473 29.3839 178.898 32.2814C179.174 34.1669 181.058 36.0221 185.285 38.5726C189.308 40.9986 191.656 42.9938 192.591 44.7814C195.092 49.5604 192.956 54.6746 187.383 57.2514C184.522 58.574 179.728 58.7108 176.357 57.5659L174.198 56.8326V53.3835C174.198 50.2597 174.273 49.9337 174.985 49.9337C175.58 49.9337 175.838 50.3274 176.047 51.5607C176.567 54.6272 178.897 56.4888 182.216 56.4888C185.468 56.4888 187.74 54.7124 188.611 51.4913C188.982 50.1191 188.918 49.6132 188.182 48.0995C187.301 46.2846 185.783 45.0803 180.628 42.1063C177.767 40.4558 175.745 38.2491 175.087 36.0616ZM74.0302 27.3997C73.3267 27.3997 73.0523 27.1698 73.0523 26.5803C73.0523 25.7998 73.3267 25.7608 78.8388 25.7608C83.9549 25.7608 84.6097 25.8379 84.4923 26.425C84.4189 26.7904 83.7119 27.2973 82.9204 27.5517L81.4811 28.0142L81.3584 38.4619C81.276 45.4333 81.3918 49.4548 81.7056 50.5481C82.639 53.7998 85.4861 55.6696 89.5032 55.6696C92.2998 55.6696 93.9334 55.0158 95.9858 53.0741C98.1934 50.9867 98.5454 49.0032 98.5384 38.6947C98.5318 28.5265 98.3546 27.6873 96.1709 27.4763C95.1771 27.38 94.8441 27.1485 94.8441 26.5544C94.8441 25.8137 95.172 25.7608 99.778 25.7608C104.438 25.7608 104.712 25.8063 104.712 26.5803C104.712 27.085 104.436 27.4021 103.992 27.4058C102.088 27.4226 102.053 27.6038 101.797 38.7535C101.531 50.3322 101.283 51.7031 98.936 54.5394C98.2592 55.3577 96.6453 56.5458 95.3498 57.1799C93.2385 58.2131 92.5669 58.3317 88.8821 58.325C85.4855 58.318 84.4132 58.1539 82.7147 57.3808C80.2355 56.2522 78.6232 54.7916 77.4345 52.5967C76.6048 51.0646 76.5339 50.2355 76.3418 39.8548C76.1217 27.9725 76.0152 27.3997 74.0302 27.3997ZM112.505 27.3997C111.565 27.3997 111.291 27.2145 111.291 26.5803C111.291 25.8121 111.553 25.7629 115.505 25.7945L119.719 25.828L121.736 28.1503C122.844 29.4273 126.458 33.4224 129.766 37.0277C133.074 40.6333 136.871 44.8275 138.205 46.3485C139.538 47.8699 140.793 49.1142 140.994 49.1142C141.2 49.1142 141.303 44.8173 141.229 39.2452L141.1 29.3761L139.946 28.3879C139.312 27.8442 138.341 27.3997 137.788 27.3997C137.052 27.3997 136.783 27.1768 136.783 26.5688C136.783 25.7686 136.993 25.742 142.436 25.8518C147.065 25.9452 148.09 26.0743 148.09 26.5635C148.09 26.9121 147.517 27.278 146.715 27.4415C145.96 27.5956 145.127 27.9348 144.865 28.1954C144.527 28.5317 144.355 32.8809 144.272 43.1935L144.154 57.7179H142.962C141.936 57.7179 140.715 56.5636 134.186 49.4214C130.015 44.858 125.146 39.4347 123.366 37.3695C121.586 35.3041 119.992 33.5986 119.822 33.5798C119.345 33.5264 119.46 51.9792 119.948 53.7307C120.329 55.0956 120.591 55.3306 122.208 55.7619C123.51 56.1088 124.037 56.4608 124.037 56.9837C124.037 57.655 123.54 57.7179 118.28 57.7179C112.926 57.7179 112.524 57.6645 112.524 56.9499C112.524 56.4268 112.911 56.1047 113.739 55.9396C116.25 55.4394 116.416 54.6453 116.557 42.507C116.636 35.7086 116.52 30.9519 116.251 29.9559C115.778 28.2044 114.599 27.3997 112.505 27.3997ZM155.618 27.3997C154.737 27.3997 154.463 27.2051 154.463 26.5803C154.463 25.7973 154.737 25.7608 160.63 25.7608C166.523 25.7608 166.798 25.7973 166.798 26.5803C166.798 27.1813 166.523 27.3997 165.77 27.3997C165.204 27.3997 164.364 27.7758 163.903 28.2355C163.088 29.0471 163.067 29.4507 163.184 41.9943C163.296 54.2392 163.345 54.9478 164.101 55.4982C164.54 55.8178 165.326 56.0792 165.848 56.0792C166.523 56.0792 166.798 56.3155 166.798 56.8987C166.798 57.6817 166.523 57.7179 160.63 57.7179C154.877 57.7179 154.463 57.6664 154.463 56.9512C154.463 56.3743 154.866 56.1196 156.092 55.9244C158.525 55.5367 158.649 54.743 158.497 40.5792C158.376 29.2364 158.324 28.5292 157.571 27.9806C157.131 27.6611 156.253 27.3997 155.618 27.3997ZM198.639 27.3997C198.076 27.3997 197.649 27.0879 197.515 26.5803C197.308 25.7879 197.503 25.7608 203.43 25.7608C209.284 25.7608 209.558 25.7973 209.558 26.5803C209.558 27.21 209.284 27.3997 208.375 27.3997C205.787 27.3997 205.845 27.8683 209.762 38.5831C211.756 44.0372 213.692 49.2182 214.064 50.0962L214.741 51.6929L217.881 43.336C221.578 33.4991 222.058 31.6799 221.431 29.8858C220.993 28.6353 219.292 27.3997 218.008 27.3997C217.645 27.3997 217.371 27.0473 217.371 26.5803C217.371 25.7961 217.645 25.7608 223.744 25.7608C229.842 25.7608 230.117 25.7961 230.117 26.5803C230.117 27.1633 229.842 27.3997 229.167 27.3997C227.439 27.3997 226.676 28.3183 226.925 30.103C227.18 31.9401 234.252 51.685 234.549 51.3896C235.031 50.9091 242.863 29.6535 242.863 28.825C242.863 27.8323 242.166 27.3997 240.568 27.3997C239.848 27.3997 239.573 27.1739 239.573 26.5803C239.573 25.8063 239.848 25.7608 244.507 25.7608C248.692 25.7608 249.441 25.8576 249.441 26.3967C249.441 26.7466 248.929 27.2108 248.302 27.4283C246.893 27.918 246.539 28.4768 244.77 33.0036C243.994 34.9915 241.564 41.213 239.37 46.8284C237.177 52.4444 235.287 57.2842 235.172 57.5834C235.057 57.883 234.377 58.1278 233.661 58.1278H232.36L229.406 50.4457C227.781 46.221 225.862 41.2155 225.142 39.3227C223.906 36.0794 223.802 35.9385 223.337 36.8642C223.066 37.4052 221.115 42.4195 219 48.0075L215.157 58.1679L213.722 58.0455L212.288 57.923L206.816 43.6152C203.76 35.6214 200.949 28.8861 200.446 28.3535C199.952 27.8287 199.138 27.3997 198.639 27.3997ZM280.852 27.5734C280.783 27.4178 280.783 26.8585 280.783 26.8585C280.783 26.8585 280.768 26.6567 280.852 26.5491C280.937 26.4419 280.966 26.439 281.269 26.4102L281.272 26.41C282.382 26.3044 284.609 26.1267 286.468 26.0456C286.638 26.0381 286.827 26.0296 287.033 26.0202L287.037 26.02L287.04 26.0199L287.041 26.0199C289.087 25.927 292.748 25.8029 295.264 25.9286C300.091 26.1698 303.525 28.5033 304.695 32.3593C305.865 36.2152 305.246 39.8347 303.651 42.1387C302.056 44.4427 299.374 46.4264 294.917 46.2973C291.237 46.1908 290.252 45.5016 289.465 44.9512C289.299 44.8348 289.141 44.7244 288.969 44.6274V49.5448C289.008 52.8985 289.036 54.5092 289.296 55.1055C289.646 55.9081 290.436 56.4026 291.978 56.7817C291.978 56.7817 292.675 56.9452 292.855 57.1194C293.034 57.2937 293.034 57.6807 293.034 57.6807C293.034 57.6807 293.071 58.0426 292.927 58.2271C292.782 58.4115 292.503 58.3746 292.503 58.3746L285.679 58.3196L281.564 58.3088C281.564 58.3088 281.132 58.3915 280.97 58.2178C280.808 58.0439 280.823 57.6817 280.823 57.6817C280.823 57.6817 280.859 57.2915 281.048 57.1169C281.237 56.942 281.939 56.7467 281.939 56.7467C283.526 56.3012 284.214 55.8299 284.574 54.942C284.864 54.2262 284.866 52.8988 284.863 42.0665C284.86 31.7939 284.845 29.8776 284.609 29.3265C284.261 28.5108 283.388 28.2946 282.145 27.9869L282.144 27.9867C281.898 27.9257 281.637 27.8611 281.363 27.7875C281.363 27.7875 280.921 27.7291 280.852 27.5734ZM300.723 35.9557C300.723 37.6402 300.693 40.2774 298.9 41.9632C297.107 43.6489 293.576 44.1104 291.179 43.641C290.423 43.4931 289.992 43.2651 289.659 43.0892L289.625 43.0717L289.012 42.7487L288.976 36.8302C288.954 33.1219 288.993 30.7059 289.08 30.3605C289.16 28.4051 292.044 28.1619 293.453 28.2343C299.483 28.2343 300.547 33.3143 300.723 35.9557ZM261.919 25.9903C261.919 25.9903 261.625 26.1033 261.178 26.2726L259.568 27.1041L258.409 29.9982C257.772 31.5899 256.605 34.5119 255.817 36.4915C254.383 40.0971 253.435 42.4659 252.438 44.9385C252.144 45.6657 251.259 47.8804 250.469 49.86C249.68 51.8392 248.892 53.7231 248.717 54.0462C248.688 54.1 248.657 54.1578 248.624 54.2189C248.183 55.0483 247.417 56.4888 246.063 56.7067C246.063 56.7067 245.319 56.7798 245.043 57.052C244.767 57.3246 244.794 57.5472 244.794 57.5472V57.8903C244.794 57.8903 244.819 58.0566 244.975 58.1393C245.131 58.2223 245.343 58.2271 245.343 58.2271L250.295 58.1708H255.413C255.413 58.1708 255.774 58.2131 255.914 58.0973C256.054 57.9816 256.092 57.8098 256.092 57.8098V57.4486C256.092 57.4486 256.021 57.0568 255.818 56.9038C255.616 56.7512 254.856 56.6466 254.856 56.6466C252.807 56.3772 252.454 54.8276 252.707 53.434C252.832 52.7494 253.655 50.2168 254.582 47.667L254.903 46.7858L260.266 46.7447C263.215 46.7222 265.762 46.7374 265.925 46.7788C266.157 46.8376 266.483 47.4994 267.44 49.8565C268.89 53.4277 269.006 53.8627 268.685 54.5309C268.665 54.5716 268.645 54.6164 268.622 54.6647C268.321 55.3109 267.736 56.5664 266.262 56.6943C266.262 56.6943 265.481 56.7213 265.286 56.955C265.092 57.1891 265.134 57.4581 265.134 57.4581V57.8156C265.134 57.8156 265.186 58.0251 265.286 58.1081C265.387 58.1911 265.556 58.1701 265.556 58.1701L270.424 58.1352L277.267 58.1348C277.267 58.1348 277.535 58.1635 277.608 58.0604C277.681 57.9571 277.696 57.8356 277.696 57.8356V57.3608C277.696 57.3608 277.667 57.1083 277.535 56.969C277.404 56.8301 276.516 56.6831 276.516 56.6831C275.383 56.5003 274.818 55.5647 274.398 54.8679C274.291 54.6902 274.193 54.528 274.097 54.3979C273.902 54.1324 273.206 52.6772 272.661 51.2776C272.117 49.8781 270.887 46.7164 269.93 44.2522C268.972 41.7879 267.635 38.3503 266.959 36.6133C266.284 34.876 265 31.5707 264.106 29.2679C263.959 28.89 263.827 28.5505 263.71 28.2466L263.709 28.2452C263.11 26.6988 262.868 26.0748 262.802 25.9903C262.587 25.7161 261.919 25.9903 261.919 25.9903ZM261.6 35.4004C261.384 34.8754 261.004 33.9335 260.756 33.3073C260.304 32.1691 260.133 31.907 259.993 32.1421C259.952 32.2108 259.668 32.9887 259.361 33.8708C257.377 39.5822 256.478 42.154 256.298 42.6386C256.185 42.9433 256.092 43.2571 256.092 43.3363C256.092 43.4273 257.706 43.4804 260.472 43.4804C262.88 43.4804 264.851 43.4505 264.851 43.4139C264.851 43.3774 264.636 42.8323 264.374 42.202C264.111 41.5717 263.468 39.9985 262.945 38.7058C262.422 37.4131 261.817 35.9258 261.6 35.4004Z" fill="black"/>
</svg>
