<svg width="23" height="23" viewBox="0 0 23 23" fill="none" xmlns="http://www.w3.org/2000/svg">
<path d="M20.1629 11.1809L19.5745 10.8254L19.5745 10.8254L20.1629 11.1809ZM11.9825 3.00054L11.6269 2.41212L11.6269 2.41212L11.9825 3.00054ZM20.3304 11.3122C20.3304 15.9951 16.5342 19.7913 11.8512 19.7913V21.1663C17.2935 21.1663 21.7054 16.7545 21.7054 11.3122H20.3304ZM11.8512 19.7913C7.16832 19.7913 3.37207 15.9951 3.37207 11.3122H1.99707C1.99707 16.7545 6.40893 21.1663 11.8512 21.1663V19.7913ZM3.37207 11.3122C3.37207 6.62926 7.16832 2.83301 11.8512 2.83301V1.45801C6.40893 1.45801 1.99707 5.86987 1.99707 11.3122H3.37207ZM15.0596 13.3747C12.1486 13.3747 9.78874 11.0148 9.78874 8.10384H8.41374C8.41374 11.7742 11.3892 14.7497 15.0596 14.7497V13.3747ZM19.5745 10.8254C18.6503 12.3547 16.9737 13.3747 15.0596 13.3747V14.7497C17.4749 14.7497 19.5885 13.4608 20.7513 11.5365L19.5745 10.8254ZM9.78874 8.10384C9.78874 6.18968 10.8087 4.51308 12.338 3.58896L11.6269 2.41212C9.70266 3.57487 8.41374 5.6885 8.41374 8.10384H9.78874ZM11.8512 2.83301C11.7701 2.83301 11.675 2.79642 11.6059 2.72455C11.5474 2.66367 11.5339 2.60608 11.5307 2.58278C11.5269 2.55422 11.5287 2.47145 11.6269 2.41212L12.338 3.58896C12.7992 3.31027 12.9475 2.79999 12.8933 2.39875C12.837 1.98166 12.5081 1.45801 11.8512 1.45801V2.83301ZM20.7513 11.5365C20.692 11.6347 20.6092 11.6366 20.5806 11.6327C20.5573 11.6296 20.4997 11.616 20.4389 11.5575C20.367 11.4884 20.3304 11.3933 20.3304 11.3122H21.7054C21.7054 10.6553 21.1818 10.3264 20.7647 10.2701C20.3634 10.2159 19.8531 10.3642 19.5745 10.8254L20.7513 11.5365Z" fill="#121212"/>
</svg>
